<?xml version="1.0" encoding="UTF-8" standalone="no"?>
<svg width="2687px" height="496px" viewBox="0 0 2687 496"
 xmlns="http://www.w3.org/2000/svg" xmlns:xlink="http://www.w3.org/1999/xlink" version="1.2" baseProfile="tiny">
<title>Sin título</title>
<desc>Generated by MuseScore 3.6.2</desc>
<path class="" d="M2478.12,-9.01405 C2478.12,-9.1703 2478.07,-9.3578 2477.97,-9.56093 L2477.32,-11.1078 C2477.17,-11.5141 2476.92,-11.7172 2476.67,-11.7172 C2476.53,-11.7172 2476.37,-11.6703 2476.22,-11.5609 C2473.87,-10.4203 2470.87,-9.71718 2468.42,-9.71718 C2460.76,-9.71718 2457.37,-16.4672 2457.37,-23.9672 C2457.37,-27.6703 2458.26,-31.3109 2460.47,-34.0141 C2462.37,-36.4203 2465.22,-37.8109 2468.42,-37.8109 C2471.07,-37.8109 2473.51,-37.1703 2475.87,-35.8109 C2476.03,-35.7172 2476.17,-35.6703 2476.32,-35.6703 C2476.57,-35.6703 2476.78,-35.8109 2476.92,-36.1703 L2477.72,-38.0141 C2477.82,-38.2641 2477.87,-38.4672 2477.87,-38.6234 C2477.87,-38.9203 2477.67,-39.0609 2477.28,-39.3109 C2474.51,-40.8734 2471.42,-41.5609 2468.12,-41.5609 C2458.12,-41.5609 2452.42,-33.2641 2452.42,-23.7172 C2452.42,-13.9672 2457.32,-6.01405 2467.76,-6.01405 C2471.22,-6.01405 2474.37,-6.71718 2477.42,-8.1703 C2477.87,-8.3578 2478.12,-8.6703 2478.12,-9.01405 M2502.92,-18.6078 C2502.92,-25.8578 2499.42,-31.2172 2491.67,-31.2172 C2484.22,-31.2172 2480.17,-25.7172 2480.17,-18.6703 C2480.17,-11.5141 2483.62,-6.01405 2491.37,-6.01405 C2498.82,-6.01405 2502.92,-11.5609 2502.92,-18.6078 M2498.51,-18.5609 C2498.51,-13.9203 2496.67,-9.31093 2491.42,-9.31093 C2486.12,-9.31093 2484.57,-14.1703 2484.57,-18.7641 C2484.57,-23.1703 2486.22,-27.9203 2491.62,-27.9203 C2496.82,-27.9203 2498.51,-23.2172 2498.51,-18.5609 M2542.97,-7.56093 L2542.97,-21.4672 C2542.97,-24.2641 2542.51,-26.4672 2541.47,-28.1078 C2540.26,-29.9672 2538.15,-31.2172 2534.81,-31.2172 C2531.9,-31.2172 2528.76,-30.1703 2526.45,-28.1078 C2525.15,-30.2172 2522.7,-31.2172 2519.95,-31.2172 C2517.26,-31.2172 2514.45,-30.1078 2512.36,-28.2172 L2512.31,-29.7641 C2512.31,-30.4203 2511.9,-30.6703 2511.31,-30.6703 L2509.15,-30.6703 C2508.56,-30.6703 2508.2,-30.3109 2508.2,-29.6703 L2508.2,-7.56093 C2508.2,-6.8578 2508.51,-6.51405 2509.15,-6.51405 L2511.51,-6.51405 C2512.15,-6.51405 2512.45,-6.8578 2512.45,-7.56093 L2512.45,-24.7641 C2514.26,-26.4203 2516.65,-27.7172 2518.95,-27.7172 C2522.9,-27.7172 2523.65,-25.0609 2523.65,-21.6078 L2523.65,-7.56093 C2523.65,-6.8578 2524.01,-6.51405 2524.65,-6.51405 L2526.95,-6.51405 C2527.61,-6.51405 2527.9,-6.8578 2527.9,-7.56093 L2527.9,-19.8578 C2527.9,-21.4203 2527.81,-24.4203 2527.51,-25.3578 C2529.26,-26.7172 2531.72,-27.7172 2533.76,-27.7172 C2537.81,-27.7172 2538.72,-25.2172 2538.72,-21.6078 L2538.72,-7.56093 C2538.72,-6.8578 2539.06,-6.51405 2539.72,-6.51405 L2542.01,-6.51405 C2542.65,-6.51405 2542.97,-6.8578 2542.97,-7.56093 M2571.29,-18.8109 C2571.29,-25.2641 2568.14,-31.2172 2561.04,-31.2172 C2558.2,-31.2172 2555.2,-29.9203 2553.59,-28.0141 L2553.59,-29.7641 C2553.59,-30.4672 2553.2,-30.6703 2552.45,-30.6703 L2550.54,-30.6703 C2549.89,-30.6703 2549.59,-30.4672 2549.59,-29.7641 L2549.59,3.18907 C2549.59,3.8922 2549.89,4.23595 2550.54,4.23595 L2552.75,4.23595 C2553.39,4.23595 2553.84,4.03282 2553.84,3.28282 L2553.84,-8.81093 C2555.34,-6.96718 2558,-6.01405 2560.45,-6.01405 C2567.7,-6.01405 2571.29,-12.1703 2571.29,-18.8109 M2566.84,-18.7172 C2566.84,-14.2641 2565.04,-9.3578 2559.89,-9.3578 C2557.45,-9.3578 2554.89,-10.9203 2553.84,-12.8578 L2553.84,-24.6078 C2555.09,-26.4203 2557.84,-27.8109 2560.2,-27.8109 C2565.39,-27.8109 2566.84,-23.0609 2566.84,-18.7172 M2597.98,-18.6078 C2597.98,-25.8578 2594.48,-31.2172 2586.73,-31.2172 C2579.28,-31.2172 2575.23,-25.7172 2575.23,-18.6703 C2575.23,-11.5141 2578.68,-6.01405 2586.43,-6.01405 C2593.89,-6.01405 2597.98,-11.5609 2597.98,-18.6078 M2593.57,-18.5609 C2593.57,-13.9203 2591.73,-9.31093 2586.48,-9.31093 C2581.18,-9.31093 2579.64,-14.1703 2579.64,-18.7641 C2579.64,-23.1703 2581.28,-27.9203 2586.68,-27.9203 C2591.89,-27.9203 2593.57,-23.2172 2593.57,-18.5609 M2618.01,-13.4672 C2618.01,-16.6703 2615.76,-18.6703 2613.01,-19.8109 L2609.12,-21.4672 C2607.01,-22.3578 2606.01,-23.1703 2606.01,-24.8578 C2606.01,-26.5609 2607.47,-27.9672 2610.12,-27.9672 C2611.72,-27.9672 2614.07,-27.3578 2615.37,-26.7641 C2615.51,-26.7172 2615.67,-26.6703 2615.76,-26.6703 C2616.01,-26.6703 2616.22,-26.8109 2616.32,-27.1703 L2616.87,-28.9203 C2616.92,-29.0609 2616.97,-29.2172 2616.97,-29.3109 C2616.97,-29.5141 2616.82,-29.6703 2616.51,-29.8109 C2614.26,-30.8578 2612.17,-31.2172 2610.01,-31.2172 C2605.62,-31.2172 2601.62,-28.9672 2601.62,-24.5609 C2601.62,-21.4203 2603.82,-19.4203 2606.76,-18.2641 L2610.12,-16.9672 C2612.42,-16.0609 2613.87,-15.0141 2613.87,-13.0609 C2613.87,-10.7172 2611.92,-9.31093 2609.01,-9.31093 C2607.32,-9.31093 2604.92,-10.0141 2603.07,-10.8109 C2602.97,-10.8578 2602.87,-10.8578 2602.76,-10.8578 C2602.51,-10.8578 2602.32,-10.6703 2602.22,-10.3578 L2601.57,-8.56093 C2601.51,-8.46718 2601.51,-8.3578 2601.51,-8.26405 C2601.51,-8.01405 2601.67,-7.76405 2602.01,-7.6078 C2603.67,-6.8578 2606.32,-6.01405 2608.87,-6.01405 C2614.17,-6.01405 2618.01,-8.8578 2618.01,-13.4672 M2642.76,-19.3578 L2642.76,-20.2172 C2642.76,-23.4672 2641.92,-26.4203 2639.92,-28.4672 C2638.26,-30.1703 2635.97,-31.2172 2633.12,-31.2172 C2625.92,-31.2172 2621.47,-25.7641 2621.47,-18.6078 C2621.47,-11.0609 2625.56,-6.01405 2633.26,-6.01405 C2635.56,-6.01405 2638.76,-6.46718 2640.92,-7.46718 C2641.31,-7.6703 2641.51,-7.81093 2641.51,-8.1078 C2641.51,-8.1703 2641.51,-8.26405 2641.47,-8.3578 L2640.92,-10.2172 C2640.81,-10.5609 2640.56,-10.6703 2640.31,-10.6703 C2640.17,-10.6703 2640.01,-10.6078 2639.81,-10.5609 C2638.17,-9.9203 2635.87,-9.51405 2633.81,-9.51405 C2628.76,-9.51405 2626.06,-13.2172 2625.92,-17.9672 L2641.26,-17.9672 C2642.56,-17.9672 2642.76,-18.2172 2642.76,-19.3578 M2638.56,-20.8578 L2626.01,-20.8578 C2626.42,-24.5609 2628.76,-27.9203 2632.92,-27.9203 C2636.72,-27.9203 2638.56,-24.9672 2638.56,-21.5609 L2638.56,-20.8578 M2659.5,-30.2172 C2659.5,-30.3109 2659.5,-30.3578 2659.5,-30.4672 C2659.5,-30.7641 2659.4,-31.0141 2659.11,-31.0609 C2658.61,-31.1703 2658,-31.2172 2657.65,-31.2172 C2655,-31.2172 2653.11,-29.7172 2651.9,-28.0609 L2651.86,-29.7641 C2651.86,-30.4203 2651.5,-30.6703 2650.86,-30.6703 L2648.7,-30.6703 C2648.11,-30.6703 2647.75,-30.4203 2647.75,-29.6703 L2647.75,-7.56093 C2647.75,-6.8578 2648.06,-6.51405 2648.7,-6.51405 L2651.06,-6.51405 C2651.7,-6.51405 2652,-6.9203 2652,-7.56093 L2652,-24.6078 C2653.31,-26.4672 2655.25,-27.6078 2657,-27.6078 C2657.5,-27.6078 2658,-27.5609 2658.45,-27.4672 C2658.5,-27.4672 2658.56,-27.4672 2658.61,-27.4672 C2658.9,-27.4672 2659.11,-27.6078 2659.15,-27.9672 L2659.5,-30.2172 "/>
<path class="" stroke="#000000" stroke-width="1.74" stroke-linecap="round" stroke-linejoin="round" fill-rule="evenodd" d="M1477.24,163.556 C1515.22,131.22 1629.15,131.22 1667.13,163.556 C1629.15,138.165 1515.22,138.165 1477.24,163.556"/>
<path class="" stroke="#000000" stroke-width="1.74" stroke-linecap="round" stroke-linejoin="round" fill-rule="evenodd" d="M342.402,188.359 C381.623,155.079 499.284,155.079 538.505,188.359 C499.284,162.024 381.623,162.024 342.402,188.359"/>
<polyline class="" stroke="#000000" stroke-width="4.46" stroke-linejoin="bevel" points="2637.74,230.4 2637.74,332.341"/>
<polyline class="" stroke="#000000" stroke-width="13.64" stroke-linejoin="bevel" points="2655.1,230.4 2655.1,332.341"/>
<polyline class="" stroke="#000000" stroke-width="4.46" stroke-linejoin="bevel" points="1408.67,230.4 1408.67,332.341"/>
<polyline class="" stroke="#000000" stroke-width="2.73" stroke-linejoin="bevel" points="1410.9,231.765 2661.92,231.765"/>
<polyline class="" stroke="#000000" stroke-width="2.73" stroke-linejoin="bevel" points="1410.9,256.568 2661.92,256.568"/>
<polyline class="" stroke="#000000" stroke-width="2.73" stroke-linejoin="bevel" points="1410.9,281.371 2661.92,281.371"/>
<polyline class="" stroke="#000000" stroke-width="2.73" stroke-linejoin="bevel" points="1410.9,306.174 2661.92,306.174"/>
<polyline class="" stroke="#000000" stroke-width="2.73" stroke-linejoin="bevel" points="1410.9,330.977 2661.92,330.977"/>
<polyline class="" stroke="#000000" stroke-width="2.73" stroke-linejoin="bevel" points="24.1906,231.765 1410.9,231.765"/>
<polyline class="" stroke="#000000" stroke-width="2.73" stroke-linejoin="bevel" points="24.1906,256.568 1410.9,256.568"/>
<polyline class="" stroke="#000000" stroke-width="2.73" stroke-linejoin="bevel" points="24.1906,281.371 1410.9,281.371"/>
<polyline class="" stroke="#000000" stroke-width="2.73" stroke-linejoin="bevel" points="24.1906,306.174 1410.9,306.174"/>
<polyline class="" stroke="#000000" stroke-width="2.73" stroke-linejoin="bevel" points="24.1906,330.977 1410.9,330.977"/>
<path class="" transform="matrix(0.992126,0,0,0.992126,2452.03,194.56)" d="M23.2969,-10.5938 C23.9063,-10.7031 24.4063,-11.4063 24.4063,-12 L24.4063,-17.9063 C24.4063,-18.7031 23.7969,-19.2969 23,-19.2969 L22.7969,-19.2969 L19.5,-18.5938 L19.5,-33.5 L16.7031,-33.5 L16.7031,-18 L7.79688,-16.2031 L7.79688,-30.2969 L5,-30.2969 L5,-15.5938 L1.09375,-14.7969 C0.5,-14.7031 0,-14 0,-13.4063 L0,-13.2031 L0,-7.40625 L0,-7.59375 C0,-6.79688 0.59375,-6.20313 1.40625,-6.20313 L1.70313,-6.20313 L5,-6.90625 L5,9.59375 L1.09375,10.4063 C0.5,10.5 0,11.2031 0,11.7969 L0,17.5938 C0,18.4063 0.59375,19 1.40625,19 L1.70313,19 L5,18.2969 L5,33.2031 L7.79688,33.2031 L7.79688,17.7031 L16.7031,15.9063 L16.7031,30 L19.5,30 L19.5,15.2969 L23.2969,14.5938 C23.9063,14.5 24.4063,13.7969 24.4063,13.2031 L24.4063,7.29688 C24.4063,6.5 23.7969,5.90625 23,5.90625 L22.7969,5.90625 L19.5,6.59375 L19.5,-9.90625 L23.2969,-10.5938 M7.79688,9.09375 L7.79688,-7.5 L16.7031,-9.29688 L16.7031,7.20313 L7.79688,9.09375 "/>
<polyline class="" stroke="#000000" stroke-width="3.97" stroke-linejoin="bevel" points="2481.69,206.961 2531.29,206.961"/>
<polyline class="" stroke="#000000" stroke-width="3.97" stroke-linejoin="bevel" points="1792.3,380.583 1841.9,380.583"/>
<polyline class="" stroke="#000000" stroke-width="3.97" stroke-linejoin="bevel" points="1792.3,355.78 1841.9,355.78"/>
<polyline class="" stroke="#000000" stroke-width="3.97" stroke-linejoin="bevel" points="1447.61,206.961 1497.2,206.961"/>
<polyline class="" stroke="#000000" stroke-width="3.97" stroke-linejoin="bevel" points="1447.61,182.158 1497.2,182.158"/>
<polyline class="" stroke="#000000" stroke-width="3.97" stroke-linejoin="bevel" points="1647.17,206.961 1696.76,206.961"/>
<polyline class="" stroke="#000000" stroke-width="3.97" stroke-linejoin="bevel" points="1647.17,182.158 1696.76,182.158"/>
<polyline class="" stroke="#000000" stroke-width="3.97" stroke-linejoin="bevel" points="518.541,206.961 568.14,206.961"/>
<polyline class="" stroke="#000000" stroke-width="3.97" stroke-linejoin="bevel" points="855.261,206.961 904.86,206.961"/>
<polyline class="" stroke="#000000" stroke-width="3.97" stroke-linejoin="bevel" points="312.767,206.961 362.366,206.961"/>
<polyline class="" stroke="#000000" stroke-width="2.73" stroke-linejoin="bevel" points="2491.74,197.893 2491.74,299.973"/>
<polyline class="" stroke="#000000" stroke-width="2.73" stroke-linejoin="bevel" points="2158.41,302.999 2158.41,218.886"/>
<polyline class="" stroke="#000000" stroke-width="2.73" stroke-linejoin="bevel" points="2249.12,278.196 2249.12,206.961"/>
<polyline class="" stroke="#000000" stroke-width="2.73" stroke-linejoin="bevel" points="2310.32,247.5 2310.32,330.977"/>
<polyline class="" stroke="#000000" stroke-width="2.73" stroke-linejoin="bevel" points="2401.03,222.697 2401.03,315.475"/>
<polyline class="" stroke="#000000" stroke-width="2.73" stroke-linejoin="bevel" points="1802.35,383.917 1802.35,454.993"/>
<polyline class="" stroke="#000000" stroke-width="2.73" stroke-linejoin="bevel" points="1893.06,321.909 1893.06,454.993"/>
<polyline class="" stroke="#000000" stroke-width="2.73" stroke-linejoin="bevel" points="2013.27,327.802 2013.27,237.965"/>
<polyline class="" stroke="#000000" stroke-width="2.73" stroke-linejoin="bevel" points="1457.65,185.492 1457.65,281.371"/>
<polyline class="" stroke="#000000" stroke-width="2.73" stroke-linejoin="bevel" points="1657.21,185.492 1657.21,454.993"/>
<polyline class="" stroke="#000000" stroke-width="2.73" stroke-linejoin="bevel" points="1014.96,284.704 1014.96,368.659"/>
<polyline class="" stroke="#000000" stroke-width="2.73" stroke-linejoin="bevel" points="1108.49,309.508 1108.49,380.583"/>
<polyline class="" stroke="#000000" stroke-width="2.73" stroke-linejoin="bevel" points="1231.54,340.204 1231.54,256.568"/>
<polyline class="" stroke="#000000" stroke-width="2.73" stroke-linejoin="bevel" points="528.586,210.295 528.586,399.186"/>
<polyline class="" stroke="#000000" stroke-width="2.73" stroke-linejoin="bevel" points="678.24,321.909 678.24,399.186"/>
<polyline class="" stroke="#000000" stroke-width="2.73" stroke-linejoin="bevel" points="771.773,259.901 771.773,399.186"/>
<polyline class="" stroke="#000000" stroke-width="2.73" stroke-linejoin="bevel" points="865.307,197.893 865.307,349.579"/>
<polyline class="" stroke="#000000" stroke-width="2.73" stroke-linejoin="bevel" points="322.813,210.295 322.813,293.772"/>
<path class="" transform="matrix(0.992126,0,0,0.992126,2490.37,194.56)" d="M31.5,-8.09375 C29.7031,-11.4063 25.9063,-13.2031 21.2969,-13.2031 C17.9063,-13.2031 14.2031,-12.2031 10.5938,-10.2969 C4,-6.79688 0,-0.90625 0,4.20313 C0,5.59375 0.296875,7 1,8.29688 C2.79688,11.5938 6.59375,13.2969 11.2031,13.2969 C14.5938,13.2969 18.2969,12.4063 21.9063,10.5 C28.5,7 32.5,1.09375 32.5,-4 C32.5,-5.40625 32.2031,-6.79688 31.5,-8.09375"/>
<path class="" transform="matrix(0.992126,0,0,0.992126,2127.54,306.174)" d="M31.5,-8.09375 C29.7031,-11.4063 25.9063,-13.2031 21.2969,-13.2031 C17.9063,-13.2031 14.2031,-12.2031 10.5938,-10.2969 C4,-6.79688 0,-0.90625 0,4.20313 C0,5.59375 0.296875,7 1,8.29688 C2.79688,11.5938 6.59375,13.2969 11.2031,13.2969 C14.5938,13.2969 18.2969,12.4063 21.9063,10.5 C28.5,7 32.5,1.09375 32.5,-4 C32.5,-5.40625 32.2031,-6.79688 31.5,-8.09375"/>
<path class="" transform="matrix(0.992126,0,0,0.992126,2218.25,281.371)" d="M31.5,-8.09375 C29.7031,-11.4063 25.9063,-13.2031 21.2969,-13.2031 C17.9063,-13.2031 14.2031,-12.2031 10.5938,-10.2969 C4,-6.79688 0,-0.90625 0,4.20313 C0,5.59375 0.296875,7 1,8.29688 C2.79688,11.5938 6.59375,13.2969 11.2031,13.2969 C14.5938,13.2969 18.2969,12.4063 21.9063,10.5 C28.5,7 32.5,1.09375 32.5,-4 C32.5,-5.40625 32.2031,-6.79688 31.5,-8.09375"/>
<path class="" transform="matrix(0.992126,0,0,0.992126,2308.95,244.166)" d="M31.5,-8.09375 C29.7031,-11.4063 25.9063,-13.2031 21.2969,-13.2031 C17.9063,-13.2031 14.2031,-12.2031 10.5938,-10.2969 C4,-6.79688 0,-0.90625 0,4.20313 C0,5.59375 0.296875,7 1,8.29688 C2.79688,11.5938 6.59375,13.2969 11.2031,13.2969 C14.5938,13.2969 18.2969,12.4063 21.9063,10.5 C28.5,7 32.5,1.09375 32.5,-4 C32.5,-5.40625 32.2031,-6.79688 31.5,-8.09375"/>
<path class="" transform="matrix(0.992126,0,0,0.992126,2399.66,219.363)" d="M31.5,-8.09375 C29.7031,-11.4063 25.9063,-13.2031 21.2969,-13.2031 C17.9063,-13.2031 14.2031,-12.2031 10.5938,-10.2969 C4,-6.79688 0,-0.90625 0,4.20313 C0,5.59375 0.296875,7 1,8.29688 C2.79688,11.5938 6.59375,13.2969 11.2031,13.2969 C14.5938,13.2969 18.2969,12.4063 21.9063,10.5 C28.5,7 32.5,1.09375 32.5,-4 C32.5,-5.40625 32.2031,-6.79688 31.5,-8.09375"/>
<path class="" transform="matrix(0.992126,0,0,0.992126,1800.98,380.583)" d="M31.5,-8.09375 C29.7031,-11.4063 25.9063,-13.2031 21.2969,-13.2031 C17.9063,-13.2031 14.2031,-12.2031 10.5938,-10.2969 C4,-6.79688 0,-0.90625 0,4.20313 C0,5.59375 0.296875,7 1,8.29688 C2.79688,11.5938 6.59375,13.2969 11.2031,13.2969 C14.5938,13.2969 18.2969,12.4063 21.9063,10.5 C28.5,7 32.5,1.09375 32.5,-4 C32.5,-5.40625 32.2031,-6.79688 31.5,-8.09375"/>
<path class="" transform="matrix(0.992126,0,0,0.992126,1891.69,318.576)" d="M31.5,-8.09375 C29.7031,-11.4063 25.9063,-13.2031 21.2969,-13.2031 C17.9063,-13.2031 14.2031,-12.2031 10.5938,-10.2969 C4,-6.79688 0,-0.90625 0,4.20313 C0,5.59375 0.296875,7 1,8.29688 C2.79688,11.5938 6.59375,13.2969 11.2031,13.2969 C14.5938,13.2969 18.2969,12.4063 21.9063,10.5 C28.5,7 32.5,1.09375 32.5,-4 C32.5,-5.40625 32.2031,-6.79688 31.5,-8.09375"/>
<path class="" transform="matrix(0.992126,0,0,0.992126,1982.4,330.977)" d="M31.5,-8.09375 C29.7031,-11.4063 25.9063,-13.2031 21.2969,-13.2031 C17.9063,-13.2031 14.2031,-12.2031 10.5938,-10.2969 C4,-6.79688 0,-0.90625 0,4.20313 C0,5.59375 0.296875,7 1,8.29688 C2.79688,11.5938 6.59375,13.2969 11.2031,13.2969 C14.5938,13.2969 18.2969,12.4063 21.9063,10.5 C28.5,7 32.5,1.09375 32.5,-4 C32.5,-5.40625 32.2031,-6.79688 31.5,-8.09375"/>
<path class="" transform="matrix(0.992126,0,0,0.992126,1456.29,182.158)" d="M31.5,-8.09375 C29.7031,-11.4063 25.9063,-13.2031 21.2969,-13.2031 C17.9063,-13.2031 14.2031,-12.2031 10.5938,-10.2969 C4,-6.79688 0,-0.90625 0,4.20313 C0,5.59375 0.296875,7 1,8.29688 C2.79688,11.5938 6.59375,13.2969 11.2031,13.2969 C14.5938,13.2969 18.2969,12.4063 21.9063,10.5 C28.5,7 32.5,1.09375 32.5,-4 C32.5,-5.40625 32.2031,-6.79688 31.5,-8.09375"/>
<path class="" transform="matrix(0.992126,0,0,0.992126,1655.85,182.158)" d="M31.5,-8.09375 C29.7031,-11.4063 25.9063,-13.2031 21.2969,-13.2031 C17.9063,-13.2031 14.2031,-12.2031 10.5938,-10.2969 C4,-6.79688 0,-0.90625 0,4.20313 C0,5.59375 0.296875,7 1,8.29688 C2.79688,11.5938 6.59375,13.2969 11.2031,13.2969 C14.5938,13.2969 18.2969,12.4063 21.9063,10.5 C28.5,7 32.5,1.09375 32.5,-4 C32.5,-5.40625 32.2031,-6.79688 31.5,-8.09375"/>
<path class="" transform="matrix(0.992126,0,0,0.992126,1013.6,281.371)" d="M31.5,-8.09375 C29.7031,-11.4063 25.9063,-13.2031 21.2969,-13.2031 C17.9063,-13.2031 14.2031,-12.2031 10.5938,-10.2969 C4,-6.79688 0,-0.90625 0,4.20313 C0,5.59375 0.296875,7 1,8.29688 C2.79688,11.5938 6.59375,13.2969 11.2031,13.2969 C14.5938,13.2969 18.2969,12.4063 21.9063,10.5 C28.5,7 32.5,1.09375 32.5,-4 C32.5,-5.40625 32.2031,-6.79688 31.5,-8.09375"/>
<path class="" transform="matrix(0.992126,0,0,0.992126,1107.13,306.174)" d="M31.5,-8.09375 C29.7031,-11.4063 25.9063,-13.2031 21.2969,-13.2031 C17.9063,-13.2031 14.2031,-12.2031 10.5938,-10.2969 C4,-6.79688 0,-0.90625 0,4.20313 C0,5.59375 0.296875,7 1,8.29688 C2.79688,11.5938 6.59375,13.2969 11.2031,13.2969 C14.5938,13.2969 18.2969,12.4063 21.9063,10.5 C28.5,7 32.5,1.09375 32.5,-4 C32.5,-5.40625 32.2031,-6.79688 31.5,-8.09375"/>
<path class="" transform="matrix(0.992126,0,0,0.992126,1200.66,343.379)" d="M31.5,-8.09375 C29.7031,-11.4063 25.9063,-13.2031 21.2969,-13.2031 C17.9063,-13.2031 14.2031,-12.2031 10.5938,-10.2969 C4,-6.79688 0,-0.90625 0,4.20313 C0,5.59375 0.296875,7 1,8.29688 C2.79688,11.5938 6.59375,13.2969 11.2031,13.2969 C14.5938,13.2969 18.2969,12.4063 21.9063,10.5 C28.5,7 32.5,1.09375 32.5,-4 C32.5,-5.40625 32.2031,-6.79688 31.5,-8.09375"/>
<path class="" transform="matrix(0.992126,0,0,0.992126,527.222,206.961)" d="M31.5,-8.09375 C29.7031,-11.4063 25.9063,-13.2031 21.2969,-13.2031 C17.9063,-13.2031 14.2031,-12.2031 10.5938,-10.2969 C4,-6.79688 0,-0.90625 0,4.20313 C0,5.59375 0.296875,7 1,8.29688 C2.79688,11.5938 6.59375,13.2969 11.2031,13.2969 C14.5938,13.2969 18.2969,12.4063 21.9063,10.5 C28.5,7 32.5,1.09375 32.5,-4 C32.5,-5.40625 32.2031,-6.79688 31.5,-8.09375"/>
<path class="" transform="matrix(0.992126,0,0,0.992126,676.876,318.576)" d="M31.5,-8.09375 C29.7031,-11.4063 25.9063,-13.2031 21.2969,-13.2031 C17.9063,-13.2031 14.2031,-12.2031 10.5938,-10.2969 C4,-6.79688 0,-0.90625 0,4.20313 C0,5.59375 0.296875,7 1,8.29688 C2.79688,11.5938 6.59375,13.2969 11.2031,13.2969 C14.5938,13.2969 18.2969,12.4063 21.9063,10.5 C28.5,7 32.5,1.09375 32.5,-4 C32.5,-5.40625 32.2031,-6.79688 31.5,-8.09375"/>
<path class="" transform="matrix(0.992126,0,0,0.992126,770.409,256.568)" d="M31.5,-8.09375 C29.7031,-11.4063 25.9063,-13.2031 21.2969,-13.2031 C17.9063,-13.2031 14.2031,-12.2031 10.5938,-10.2969 C4,-6.79688 0,-0.90625 0,4.20313 C0,5.59375 0.296875,7 1,8.29688 C2.79688,11.5938 6.59375,13.2969 11.2031,13.2969 C14.5938,13.2969 18.2969,12.4063 21.9063,10.5 C28.5,7 32.5,1.09375 32.5,-4 C32.5,-5.40625 32.2031,-6.79688 31.5,-8.09375"/>
<path class="" transform="matrix(0.992126,0,0,0.992126,863.943,194.56)" d="M31.5,-8.09375 C29.7031,-11.4063 25.9063,-13.2031 21.2969,-13.2031 C17.9063,-13.2031 14.2031,-12.2031 10.5938,-10.2969 C4,-6.79688 0,-0.90625 0,4.20313 C0,5.59375 0.296875,7 1,8.29688 C2.79688,11.5938 6.59375,13.2969 11.2031,13.2969 C14.5938,13.2969 18.2969,12.4063 21.9063,10.5 C28.5,7 32.5,1.09375 32.5,-4 C32.5,-5.40625 32.2031,-6.79688 31.5,-8.09375"/>
<path class="" transform="matrix(0.992126,0,0,0.992126,321.449,206.961)" d="M31.5,-8.09375 C29.7031,-11.4063 25.9063,-13.2031 21.2969,-13.2031 C17.9063,-13.2031 14.2031,-12.2031 10.5938,-10.2969 C4,-6.79688 0,-0.90625 0,4.20313 C0,5.59375 0.296875,7 1,8.29688 C2.79688,11.5938 6.59375,13.2969 11.2031,13.2969 C14.5938,13.2969 18.2969,12.4063 21.9063,10.5 C28.5,7 32.5,1.09375 32.5,-4 C32.5,-5.40625 32.2031,-6.79688 31.5,-8.09375"/>
<path class="" transform="matrix(0.992126,0,0,0.992126,40.0646,256.568)" d="M25.4063,-25.0938 C17.7969,-25.0938 11.7031,-20.7031 11.5938,-20.7031 C5.79688,-16.4063 3.5,-11.2969 2.59375,-7.79688 C2.09375,-6 1.90625,-4.20313 1.90625,-2.5 C1.90625,-0.09375 2.29688,2.09375 3.20313,4 C4.40625,6.70313 6.70313,8.59375 9.70313,9.59375 C10.9063,10 12.2031,10.2031 13.5,10.2031 C15.7031,10.2031 18,9.59375 19.9063,8.5 C23,6.79688 24.9063,3.20313 24.9063,-0.703125 C24.9063,-4.20313 23.0938,-7.40625 20.0938,-9.29688 C18,-10.7031 16,-11.0938 14.2969,-11.0938 C13.0938,-11.0938 12,-10.9063 11.0938,-10.5938 C10.0938,-10.2031 8.40625,-9.20313 7.59375,-8.5 C7.90625,-10.4063 9.09375,-13.2969 10.2031,-14.9063 C11.2969,-16.5 13.5,-18.5 15.2031,-19.4063 C17.7031,-20.7969 20.9063,-21.4063 24.4063,-21.4063 C34.6094,-21.4063 39.6094,-13.2031 39.6094,3.59375 C39.6094,12.9063 36.1094,21.7969 33.1094,27.7031 C29.7969,34.2969 25.4063,40.6094 21.5,44.1094 C11.0938,53.6094 1.29688,58.1094 1.20313,58.1094 C1.20313,58.1094 -0.296875,59 0.09375,60.5 C0.40625,61.5 1.29688,61.7031 1.90625,61.7031 C2,61.7031 2.29688,61.6094 2.40625,61.6094 C2.5,61.6094 13.9063,56.9063 23,49.7969 C28.1094,46.1094 32.7031,42.1094 36.7031,37.7969 C40.2969,33.9063 43.4063,29.7031 45.9063,25.5 C50.2969,18 52.7969,10.2031 52.7969,3.5 C52.7969,-4.79688 50.6094,-11.7031 46.5,-16.5938 C41.7969,-22.2031 34.7031,-25.0938 25.4063,-25.0938 M56.7969,-12.4063 C56.7969,-9.59375 59,-7.40625 61.6094,-7.40625 C64.2031,-7.40625 66.4063,-9.59375 66.4063,-12.4063 C66.4063,-15.2031 64.2031,-17.5 61.6094,-17.5 C59,-17.5 56.7969,-15.2031 56.7969,-12.4063 M56.7969,12.2969 C56.7969,15.0938 59,17.4063 61.6094,17.4063 C64.2031,17.4063 66.4063,15.0938 66.4063,12.2969 C66.4063,9.5 64.2031,7.20313 61.6094,7.20313 C59,7.20313 56.7969,9.5 56.7969,12.2969"/>
<path class="" transform="matrix(0.992126,0,0,0.992126,180.35,244.166)" d="M23.2969,-10.5938 C23.9063,-10.7031 24.4063,-11.4063 24.4063,-12 L24.4063,-17.9063 C24.4063,-18.7031 23.7969,-19.2969 23,-19.2969 L22.7969,-19.2969 L19.5,-18.5938 L19.5,-33.5 L16.7031,-33.5 L16.7031,-18 L7.79688,-16.2031 L7.79688,-30.2969 L5,-30.2969 L5,-15.5938 L1.09375,-14.7969 C0.5,-14.7031 0,-14 0,-13.4063 L0,-13.2031 L0,-7.40625 L0,-7.59375 C0,-6.79688 0.59375,-6.20313 1.40625,-6.20313 L1.70313,-6.20313 L5,-6.90625 L5,9.59375 L1.09375,10.4063 C0.5,10.5 0,11.2031 0,11.7969 L0,17.5938 C0,18.4063 0.59375,19 1.40625,19 L1.70313,19 L5,18.2969 L5,33.2031 L7.79688,33.2031 L7.79688,17.7031 L16.7031,15.9063 L16.7031,30 L19.5,30 L19.5,15.2969 L23.2969,14.5938 C23.9063,14.5 24.4063,13.7969 24.4063,13.2031 L24.4063,7.29688 C24.4063,6.5 23.7969,5.90625 23,5.90625 L22.7969,5.90625 L19.5,6.59375 L19.5,-9.90625 L23.2969,-10.5938 M7.79688,9.09375 L7.79688,-7.5 L16.7031,-9.29688 L16.7031,7.20313 L7.79688,9.09375 "/>
<path class="" transform="matrix(0.992126,0,0,0.992126,155.547,293.772)" d="M23.2969,-10.5938 C23.9063,-10.7031 24.4063,-11.4063 24.4063,-12 L24.4063,-17.9063 C24.4063,-18.7031 23.7969,-19.2969 23,-19.2969 L22.7969,-19.2969 L19.5,-18.5938 L19.5,-33.5 L16.7031,-33.5 L16.7031,-18 L7.79688,-16.2031 L7.79688,-30.2969 L5,-30.2969 L5,-15.5938 L1.09375,-14.7969 C0.5,-14.7031 0,-14 0,-13.4063 L0,-13.2031 L0,-7.40625 L0,-7.59375 C0,-6.79688 0.59375,-6.20313 1.40625,-6.20313 L1.70313,-6.20313 L5,-6.90625 L5,9.59375 L1.09375,10.4063 C0.5,10.5 0,11.2031 0,11.7969 L0,17.5938 C0,18.4063 0.59375,19 1.40625,19 L1.70313,19 L5,18.2969 L5,33.2031 L7.79688,33.2031 L7.79688,17.7031 L16.7031,15.9063 L16.7031,30 L19.5,30 L19.5,15.2969 L23.2969,14.5938 C23.9063,14.5 24.4063,13.7969 24.4063,13.2031 L24.4063,7.29688 C24.4063,6.5 23.7969,5.90625 23,5.90625 L22.7969,5.90625 L19.5,6.59375 L19.5,-9.90625 L23.2969,-10.5938 M7.79688,9.09375 L7.79688,-7.5 L16.7031,-9.29688 L16.7031,7.20313 L7.79688,9.09375 "/>
<path class="" transform="matrix(0.992126,0,0,0.992126,130.743,256.568)" d="M23.2969,-10.5938 C23.9063,-10.7031 24.4063,-11.4063 24.4063,-12 L24.4063,-17.9063 C24.4063,-18.7031 23.7969,-19.2969 23,-19.2969 L22.7969,-19.2969 L19.5,-18.5938 L19.5,-33.5 L16.7031,-33.5 L16.7031,-18 L7.79688,-16.2031 L7.79688,-30.2969 L5,-30.2969 L5,-15.5938 L1.09375,-14.7969 C0.5,-14.7031 0,-14 0,-13.4063 L0,-13.2031 L0,-7.40625 L0,-7.59375 C0,-6.79688 0.59375,-6.20313 1.40625,-6.20313 L1.70313,-6.20313 L5,-6.90625 L5,9.59375 L1.09375,10.4063 C0.5,10.5 0,11.2031 0,11.7969 L0,17.5938 C0,18.4063 0.59375,19 1.40625,19 L1.70313,19 L5,18.2969 L5,33.2031 L7.79688,33.2031 L7.79688,17.7031 L16.7031,15.9063 L16.7031,30 L19.5,30 L19.5,15.2969 L23.2969,14.5938 C23.9063,14.5 24.4063,13.7969 24.4063,13.2031 L24.4063,7.29688 C24.4063,6.5 23.7969,5.90625 23,5.90625 L22.7969,5.90625 L19.5,6.59375 L19.5,-9.90625 L23.2969,-10.5938 M7.79688,9.09375 L7.79688,-7.5 L16.7031,-9.29688 L16.7031,7.20313 L7.79688,9.09375 "/>
<path class="" transform="matrix(0.992126,0,0,0.992126,227.995,256.699)" d="M3.59375,12.625 L20.7656,12.625 L20.7656,20.0781 L12.5469,20.0781 C11.7656,20.0781 11.125,20.7031 11.125,21.4844 L11.125,23.3906 C11.125,24.1719 11.7656,24.7969 12.5469,24.7969 L42.7969,24.7969 C43.5781,24.7969 44.2031,24.1719 44.2031,23.3906 L44.2031,21.4844 C44.2031,20.7031 43.5781,20.0781 42.7969,20.0781 L33.8594,20.0781 L33.8594,12.625 L42.7969,12.625 C43.5781,12.625 44.2031,12 44.2031,11.2188 L44.2031,9.3125 C44.2031,8.53125 43.5781,7.90625 42.7969,7.90625 L33.8594,7.90625 L33.8594,-8.0625 C33.8594,-8.59375 33.5469,-9.07813 33.0781,-9.3125 L31.8594,-9.92188 C31.3281,-10.1719 30.7031,-10.0781 30.2656,-9.6875 L21.2188,-1.375 C20.9375,-1.09375 20.7656,-0.734375 20.7656,-0.328125 L20.7656,7.90625 L9.25,7.90625 C9.25,7.90625 20.375,-4.125 32.2188,-19.8906 C33.0781,-21.0469 32.5781,-22.0938 32.3906,-22.2813 L30.2188,-24.4844 C29.9531,-24.75 29.5938,-24.9063 29.2188,-24.9063 C28.625,-24.9063 15.0625,-24.875 14.3438,-24.9063 C13.625,-24.9219 13.0938,-24.2969 13.0156,-23.6875 C13.0156,-23.6875 12.4844,-16.3281 9.875,-8.1875 C7.28125,-0.078125 4.34375,4.90625 1.6875,8.53125 C1.6875,8.53125 1.14063,9.51563 1.5,10.2656 C1.84375,11.0156 2.48438,12.0938 2.48438,12.0938 C2.48438,12.0938 2.73438,12.625 3.59375,12.625"/>
<path class="" transform="matrix(0.992126,0,0,0.992126,227.995,306.042)" d="M3.59375,12.625 L20.7656,12.625 L20.7656,20.0781 L12.5469,20.0781 C11.7656,20.0781 11.125,20.7031 11.125,21.4844 L11.125,23.3906 C11.125,24.1719 11.7656,24.7969 12.5469,24.7969 L42.7969,24.7969 C43.5781,24.7969 44.2031,24.1719 44.2031,23.3906 L44.2031,21.4844 C44.2031,20.7031 43.5781,20.0781 42.7969,20.0781 L33.8594,20.0781 L33.8594,12.625 L42.7969,12.625 C43.5781,12.625 44.2031,12 44.2031,11.2188 L44.2031,9.3125 C44.2031,8.53125 43.5781,7.90625 42.7969,7.90625 L33.8594,7.90625 L33.8594,-8.0625 C33.8594,-8.59375 33.5469,-9.07813 33.0781,-9.3125 L31.8594,-9.92188 C31.3281,-10.1719 30.7031,-10.0781 30.2656,-9.6875 L21.2188,-1.375 C20.9375,-1.09375 20.7656,-0.734375 20.7656,-0.328125 L20.7656,7.90625 L9.25,7.90625 C9.25,7.90625 20.375,-4.125 32.2188,-19.8906 C33.0781,-21.0469 32.5781,-22.0938 32.3906,-22.2813 L30.2188,-24.4844 C29.9531,-24.75 29.5938,-24.9063 29.2188,-24.9063 C28.625,-24.9063 15.0625,-24.875 14.3438,-24.9063 C13.625,-24.9219 13.0938,-24.2969 13.0156,-23.6875 C13.0156,-23.6875 12.4844,-16.3281 9.875,-8.1875 C7.28125,-0.078125 4.34375,4.90625 1.6875,8.53125 C1.6875,8.53125 1.14063,9.51563 1.5,10.2656 C1.84375,11.0156 2.48438,12.0938 2.48438,12.0938 C2.48438,12.0938 2.73438,12.625 3.59375,12.625"/>
<path class="" fill-rule="evenodd" d="M2308.95,322.17 L2493.1,290.7 L2493.1,308.314 L2308.95,339.784 L2308.95,322.17 "/>
<path class="" fill-rule="evenodd" d="M2308.95,292.654 L2402.39,276.686 L2402.39,294.3 L2308.95,310.268 L2308.95,292.654 "/>
<path class="" fill-rule="evenodd" d="M2011.91,229.568 L2250.48,198.206 L2250.48,215.717 L2011.91,247.08 L2011.91,229.568 "/>
<path class="" fill-rule="evenodd" d="M2157.04,240.005 L2250.48,227.721 L2250.48,245.233 L2157.04,257.516 L2157.04,240.005 "/>
<path class="" fill-rule="evenodd" d="M1655.85,446.312 L1894.42,446.312 L1894.42,463.674 L1655.85,463.674 L1655.85,446.312 "/>
<path class="" fill-rule="evenodd" d="M1800.98,416.796 L1894.42,416.796 L1894.42,434.158 L1800.98,434.158 L1800.98,416.796 "/>
<path class="" fill-rule="evenodd" d="M527.222,390.505 L773.137,390.505 L773.137,407.867 L527.222,407.867 L527.222,390.505 "/>
<path class="" fill-rule="evenodd" d="M676.876,360.989 L773.137,360.989 L773.137,378.351 L676.876,378.351 L676.876,360.989 "/>
<path class="" fill-rule="evenodd" d="M863.943,340.828 L1109.86,372.18 L1109.86,389.683 L863.943,358.331 L863.943,340.828 "/>
<path class="" fill-rule="evenodd" d="M1013.6,330.392 L1109.86,342.664 L1109.86,360.167 L1013.6,347.894 L1013.6,330.392 "/>
<path class="" d="M258.604,4.9547 L254.807,4.9547 L254.807,56.6891 C253.511,55.9078 251.917,55.4234 250.089,55.2359 C249.589,55.1734 249.073,55.1578 248.557,55.1578 C245.417,55.1578 242.057,56.0484 238.901,57.7516 C235.229,59.7359 232.307,62.5641 230.651,65.7203 C228.995,68.8922 228.823,72.0172 230.167,74.5016 C231.761,77.4547 235.214,79.0016 239.307,79.0016 C242.354,79.0016 245.729,78.1422 248.979,76.4078 C254.886,73.2047 258.573,67.9391 258.604,63.3297 L258.604,4.9547 "/>
<path class="" d="M320.511,48.6422 L282.417,48.6422 L282.417,42.0172 L320.511,42.0172 L320.511,48.6422 M320.511,65.4859 L282.417,65.4859 L282.417,58.8609 L320.511,58.8609 L320.511,65.4859 M370.464,53.8922 L374.807,53.8922 L374.807,61.5484 L370.464,61.5484 L370.464,71.4859 L360.448,71.4859 L360.448,61.5484 L343.339,61.5484 L343.339,53.7516 C347.068,47.8662 352.912,39.7255 360.87,29.3297 L364.932,24.0172 L370.464,24.0172 L370.464,53.8922 M360.589,53.8922 L360.589,33.3922 L346.167,53.8922 L360.589,53.8922 M378.182,48.0328 C378.182,41.262 379.677,35.5667 382.667,30.9469 C385.656,26.3271 389.36,24.0172 393.776,24.0172 C398.245,24.0172 401.961,26.3271 404.925,30.9469 C407.888,35.5667 409.37,41.3297 409.37,48.2359 C409.37,55.1839 407.899,60.9443 404.956,65.5172 C402.013,70.0901 398.313,72.3766 393.854,72.3766 C389.25,72.3766 385.487,70.1005 382.565,65.5484 C379.643,60.9964 378.182,55.1578 378.182,48.0328 M393.854,70.4547 C395.365,70.4547 396.511,69.4182 397.292,67.3453 C398.073,65.2724 398.464,61.5484 398.464,56.1734 L398.464,40.3609 C398.464,35.2568 398.097,31.5771 397.362,29.3219 C396.628,27.0667 395.412,25.9391 393.714,25.9391 C392.057,25.9391 390.873,27.0432 390.159,29.2516 C389.445,31.4599 389.089,35.163 389.089,40.3609 L389.089,56.1734 C389.089,61.2776 389.456,64.9339 390.19,67.1422 C390.925,69.3505 392.146,70.4547 393.854,70.4547"/>
<path class="" d="M2333.57,93.2527 L2303.53,93.2527 L2303.53,95.6121 L2304.42,95.6121 C2307.28,95.659 2308.23,95.8152 2308.62,96.3152 C2308.92,96.7527 2308.92,96.8621 2308.92,99.409 L2308.92,123.206 C2308.92,125.768 2308.92,125.862 2308.62,126.315 C2308.23,126.815 2307.28,127.018 2304.42,127.018 L2303.53,127.018 L2303.53,129.362 L2334.23,129.362 L2335.23,116.018 L2333.03,116.018 C2331.12,124.909 2329.07,126.815 2321.42,127.018 L2318.12,127.018 C2315.12,126.909 2314.37,126.409 2314.53,124.612 L2314.53,111.862 L2315.53,111.862 C2320.67,111.659 2322.53,113.518 2322.73,119.065 L2325.07,119.065 L2325.07,102.659 L2322.73,102.659 C2322.42,107.565 2320.48,109.518 2315.73,109.518 L2314.53,109.518 L2314.53,98.1121 C2314.48,96.0027 2314.98,95.659 2317.67,95.6121 L2320.28,95.6121 C2328.48,95.5652 2330.53,97.3621 2332.12,106.018 L2334.28,106.018 L2333.57,93.2527 "/>
<path class="" d="M2350.67,106.065 L2341.78,106.612 L2341.78,108.768 L2343.82,108.768 C2345.71,108.815 2345.96,109.112 2345.96,111.268 L2345.96,123.206 L2345.96,125.159 L2345.96,125.565 C2345.92,126.315 2345.87,126.612 2345.67,126.862 C2345.32,127.315 2344.37,127.518 2342.21,127.565 L2342.03,127.565 L2342.03,129.362 L2354.62,129.362 L2354.62,127.565 L2354.42,127.565 C2351.12,127.456 2350.67,127.206 2350.67,125.362 L2350.67,123.206 L2350.67,116.112 C2350.67,111.659 2353.12,108.362 2356.37,108.362 C2359.21,108.362 2360.67,110.409 2360.67,114.456 L2360.67,123.206 L2360.67,125.612 C2360.62,126.268 2360.57,126.612 2360.32,126.862 C2360.03,127.315 2359.03,127.518 2356.87,127.565 L2356.67,127.565 L2356.67,129.362 L2369.32,129.362 L2369.32,127.565 L2369.12,127.565 C2365.82,127.456 2365.37,127.206 2365.37,125.409 L2365.37,123.206 L2365.37,116.565 C2365.37,111.565 2367.62,108.362 2371.12,108.362 C2373.98,108.362 2375.37,110.518 2375.37,115.018 L2375.37,123.206 L2375.37,125.565 C2375.32,126.268 2375.28,126.612 2375.03,126.862 C2374.73,127.315 2373.73,127.518 2371.57,127.565 L2371.37,127.565 L2371.37,129.362 L2384.03,129.362 L2384.03,127.565 L2383.82,127.565 C2380.53,127.456 2380.07,127.206 2380.07,125.362 L2380.07,123.206 L2380.07,114.018 C2380.07,110.909 2379.78,109.862 2378.48,108.159 C2377.03,106.315 2374.98,105.315 2372.57,105.315 C2369.32,105.315 2366.92,106.862 2364.78,110.315 C2363.92,107.315 2361.21,105.315 2357.87,105.315 C2354.82,105.315 2352.62,106.768 2350.67,109.909 L2350.67,106.065 M2407.65,113.268 C2407.65,110.112 2407.11,108.518 2405.65,107.315 C2404.01,105.956 2401.56,105.315 2398.36,105.315 C2392.71,105.315 2388.61,107.956 2388.61,111.612 C2388.61,113.456 2389.76,114.659 2391.51,114.659 C2393.11,114.659 2394.21,113.612 2394.21,112.112 C2394.21,111.456 2393.96,110.768 2393.46,110.065 C2393.15,109.706 2393.11,109.612 2393.11,109.362 C2393.11,108.362 2395.11,107.456 2397.51,107.456 C2399.11,107.456 2400.86,107.956 2401.65,108.706 C2402.61,109.518 2402.96,110.706 2402.96,112.956 L2402.96,114.909 C2397.76,115.815 2396.11,116.206 2393.65,117.159 C2389.31,118.768 2387.26,121.065 2387.26,124.268 C2387.26,127.862 2390.06,130.112 2394.51,130.112 C2397.96,130.112 2401.06,128.706 2403.21,126.159 C2404.01,128.706 2405.26,129.706 2407.61,129.706 C2409.86,129.706 2412.21,128.268 2412.21,126.815 C2412.21,126.456 2412.01,126.206 2411.71,126.206 C2411.51,126.206 2411.31,126.268 2410.96,126.409 C2410.26,126.706 2409.96,126.768 2409.56,126.768 C2408.15,126.768 2407.65,125.862 2407.65,123.315 L2407.65,113.268 M2402.96,119.362 C2402.96,122.362 2402.81,123.065 2401.96,124.362 C2400.71,126.206 2398.46,127.456 2396.26,127.456 C2393.96,127.456 2392.31,125.815 2392.31,123.565 C2392.31,121.456 2393.36,119.956 2395.56,118.909 C2397.11,118.206 2399.06,117.706 2402.96,117.065 L2402.96,119.362 M2421.75,106.065 L2412,106.612 L2412,108.768 L2414.9,108.768 C2416.81,108.815 2417.06,109.112 2417.06,111.268 L2417.06,128.206 C2417.06,132.268 2416.81,134.159 2416.11,135.612 C2415.61,136.612 2414.45,137.362 2413.36,137.362 C2412.65,137.362 2412.11,137.065 2412.11,136.706 C2412.11,136.518 2412.15,136.409 2412.36,135.909 C2412.61,135.409 2412.7,135.065 2412.7,134.706 C2412.7,133.456 2411.5,132.362 2410.11,132.362 C2408.5,132.362 2407.31,133.612 2407.31,135.362 C2407.31,137.815 2409.56,139.456 2412.9,139.456 C2415.7,139.456 2418.25,138.268 2419.7,136.206 C2421.25,134.018 2421.75,131.456 2421.75,125.815 L2421.75,106.065 M2419.4,93.6121 C2417.81,93.6121 2416.5,94.909 2416.5,96.5027 C2416.5,98.1121 2417.81,99.409 2419.36,99.409 C2421,99.409 2422.31,98.1121 2422.31,96.5027 C2422.31,94.909 2421,93.6121 2419.4,93.6121"/>
<path class="" d="M2429.15,106.268 L2431.36,106.612 L2432.25,102.659 C2433,99.3621 2433.36,98.8621 2434.79,98.8621 C2435.04,98.8621 2435.45,98.8621 2435.9,98.909 C2442.04,99.2058 2442.04,99.2058 2444.36,99.2058 C2445,99.2058 2446.15,99.2058 2447.54,99.159 L2444.15,106.018 C2440.45,113.362 2440,114.268 2438.75,117.362 C2437.2,121.112 2436.4,124.268 2436.4,126.362 C2436.4,128.659 2437.61,130.065 2439.54,130.065 C2441.95,130.065 2442.9,128.456 2442.86,124.112 C2442.61,116.909 2443.5,113.409 2448.86,101.706 C2449.61,100.112 2450.36,98.5652 2451.11,97.0027 C2451.15,96.909 2451.29,96.4558 2451.61,95.8152 L2451.61,94.3621 C2448.61,94.6121 2447,94.7058 2443.9,94.7058 C2439.54,94.7058 2436.11,94.5652 2430.7,94.159 L2429.15,106.268 "/>
<path class="" d="M1657.5,118.822 L1674.3,118.822 C1678.75,118.822 1682.16,118.119 1684.8,116.619 C1689.85,113.775 1692.66,108.072 1692.66,100.572 C1692.66,93.6658 1690.16,88.2752 1685.55,85.2752 C1682.8,83.5252 1679.1,82.7127 1673.39,82.7127 L1657.5,82.7127 L1657.5,85.072 L1658.46,85.072 C1661.25,85.1189 1662.21,85.2752 1662.6,85.7752 C1662.89,86.2127 1662.89,86.322 1662.89,88.8689 L1662.89,112.666 C1662.89,115.228 1662.89,115.322 1662.6,115.775 C1662.21,116.275 1661.25,116.416 1658.46,116.478 L1657.5,116.478 L1657.5,118.822 M1671.35,116.478 C1668.8,116.478 1668.5,116.166 1668.5,113.728 L1668.5,87.8689 C1668.5,85.4158 1668.85,85.072 1671.35,85.072 L1673.96,85.072 C1682.5,85.072 1686.05,89.7127 1686.05,100.775 C1686.05,111.978 1682.85,116.478 1674.75,116.478 L1671.35,116.478 "/>
<path class="" d="M1707.44,95.5252 L1698.55,96.072 L1698.55,98.2283 L1700.6,98.2283 C1702.49,98.2752 1702.74,98.572 1702.74,100.728 L1702.74,112.666 L1702.74,114.619 L1702.74,115.025 C1702.69,115.775 1702.64,116.072 1702.44,116.322 C1702.1,116.775 1701.14,116.978 1698.99,117.025 L1698.8,117.025 L1698.8,118.822 L1711.39,118.822 L1711.39,117.025 L1711.19,117.025 C1707.89,116.916 1707.44,116.666 1707.44,114.822 L1707.44,112.666 L1707.44,105.572 C1707.44,101.119 1709.89,97.822 1713.14,97.822 C1715.99,97.822 1717.44,99.8689 1717.44,103.916 L1717.44,112.666 L1717.44,115.072 C1717.39,115.728 1717.35,116.072 1717.1,116.322 C1716.8,116.775 1715.8,116.978 1713.64,117.025 L1713.44,117.025 L1713.44,118.822 L1726.1,118.822 L1726.1,117.025 L1725.89,117.025 C1722.6,116.916 1722.14,116.666 1722.14,114.869 L1722.14,112.666 L1722.14,106.025 C1722.14,101.025 1724.39,97.822 1727.89,97.822 C1730.75,97.822 1732.14,99.9783 1732.14,104.478 L1732.14,112.666 L1732.14,115.025 C1732.1,115.728 1732.05,116.072 1731.8,116.322 C1731.5,116.775 1730.5,116.978 1728.35,117.025 L1728.14,117.025 L1728.14,118.822 L1740.8,118.822 L1740.8,117.025 L1740.6,117.025 C1737.3,116.916 1736.85,116.666 1736.85,114.822 L1736.85,112.666 L1736.85,103.478 C1736.85,100.369 1736.55,99.322 1735.25,97.6189 C1733.8,95.7752 1731.75,94.7752 1729.35,94.7752 C1726.1,94.7752 1723.69,96.322 1721.55,99.7752 C1720.69,96.7752 1717.99,94.7752 1714.64,94.7752 C1711.6,94.7752 1709.39,96.2283 1707.44,99.3689 L1707.44,95.5252 M1764.42,102.728 C1764.42,99.572 1763.88,97.9783 1762.42,96.7752 C1760.78,95.4158 1758.33,94.7752 1755.13,94.7752 C1749.49,94.7752 1745.38,97.4158 1745.38,101.072 C1745.38,102.916 1746.53,104.119 1748.28,104.119 C1749.88,104.119 1750.99,103.072 1750.99,101.572 C1750.99,100.916 1750.74,100.228 1750.24,99.5252 C1749.92,99.1658 1749.88,99.072 1749.88,98.822 C1749.88,97.822 1751.88,96.9158 1754.28,96.9158 C1755.88,96.9158 1757.63,97.4158 1758.42,98.1658 C1759.38,98.9783 1759.74,100.166 1759.74,102.416 L1759.74,104.369 C1754.53,105.275 1752.88,105.666 1750.42,106.619 C1746.08,108.228 1744.03,110.525 1744.03,113.728 C1744.03,117.322 1746.83,119.572 1751.28,119.572 C1754.74,119.572 1757.83,118.166 1759.99,115.619 C1760.78,118.166 1762.03,119.166 1764.38,119.166 C1766.63,119.166 1768.99,117.728 1768.99,116.275 C1768.99,115.916 1768.78,115.666 1768.49,115.666 C1768.28,115.666 1768.08,115.728 1767.74,115.869 C1767.03,116.166 1766.74,116.228 1766.33,116.228 C1764.92,116.228 1764.42,115.322 1764.42,112.775 L1764.42,102.728 M1759.74,108.822 C1759.74,111.822 1759.58,112.525 1758.74,113.822 C1757.49,115.666 1755.24,116.916 1753.03,116.916 C1750.74,116.916 1749.08,115.275 1749.08,113.025 C1749.08,110.916 1750.13,109.416 1752.33,108.369 C1753.88,107.666 1755.83,107.166 1759.74,106.525 L1759.74,108.822 M1778.52,95.5252 L1768.77,96.072 L1768.77,98.2283 L1771.67,98.2283 C1773.58,98.2752 1773.83,98.572 1773.83,100.728 L1773.83,117.666 C1773.83,121.728 1773.58,123.619 1772.88,125.072 C1772.38,126.072 1771.22,126.822 1770.13,126.822 C1769.42,126.822 1768.88,126.525 1768.88,126.166 C1768.88,125.978 1768.92,125.869 1769.13,125.369 C1769.38,124.869 1769.47,124.525 1769.47,124.166 C1769.47,122.916 1768.27,121.822 1766.88,121.822 C1765.27,121.822 1764.08,123.072 1764.08,124.822 C1764.08,127.275 1766.33,128.916 1769.67,128.916 C1772.47,128.916 1775.02,127.728 1776.47,125.666 C1778.02,123.478 1778.52,120.916 1778.52,115.275 L1778.52,95.5252 M1776.17,83.072 C1774.58,83.072 1773.27,84.3689 1773.27,85.9627 C1773.27,87.572 1774.58,88.8689 1776.13,88.8689 C1777.77,88.8689 1779.08,87.572 1779.08,85.9627 C1779.08,84.3689 1777.77,83.072 1776.17,83.072"/>
<path class="" d="M1989.32,81.3837 L1987.43,81.3837 L1985.47,84.3837 C1982.22,81.8369 1980.02,80.9775 1976.36,80.9775 C1972.41,80.9775 1969.32,82.0869 1966.16,84.6337 C1961.22,88.6337 1958.91,93.6806 1958.91,100.431 C1958.91,105.54 1960.36,109.79 1963.32,113.04 C1966.41,116.54 1971.02,118.587 1975.82,118.587 C1980.02,118.587 1982.97,117.29 1986.22,114.04 L1988.07,118.54 L1990.18,118.54 L1990.18,107.54 C1990.18,104.993 1990.18,104.884 1990.47,104.431 C1990.93,103.884 1991.82,103.743 1994.68,103.743 L1995.43,103.743 L1995.43,101.384 L1979.52,101.384 L1979.52,103.743 L1980.47,103.743 C1984.68,103.743 1985.02,103.993 1985.02,106.79 C1985.02,108.931 1984.68,110.884 1984.02,112.087 C1982.77,114.54 1979.57,116.243 1976.32,116.243 C1973.07,116.243 1969.86,114.587 1968.16,112.087 C1966.32,109.29 1965.52,105.79 1965.52,100.431 C1965.52,89.29 1969.22,83.3369 1976.16,83.3369 C1981.86,83.3369 1985.82,87.4306 1987.86,95.4306 L1990.02,95.4306 L1989.32,81.3837 "/>
<path class="" d="M2014.47,92.7744 C2014.88,92.6962 2015.21,92.29 2015.21,91.8837 L2015.21,91.8681 L2015.21,87.9775 C2015.21,87.7275 2015.05,87.415 2014.86,87.2587 C2014.72,87.1494 2014.47,87.0556 2014.3,87.0556 C2014.24,87.0556 2014.16,87.0712 2014.11,87.0869 L2011.96,87.5244 L2011.96,77.6806 L2010.13,77.6806 L2010.13,87.8994 L2004.21,89.1337 L2004.21,79.7587 L2002.38,79.7587 L2002.38,89.5087 L1999.78,90.04 C1999.38,90.1337 1999.05,90.54 1999.05,90.9462 L1999.05,94.7744 C1999.05,95.0087 1999.21,95.3369 1999.39,95.4931 C1999.53,95.6025 1999.78,95.6962 1999.97,95.6962 C2000.02,95.6962 2000.11,95.6806 2000.16,95.6806 L2002.38,95.2275 L2002.38,106.149 L1999.78,106.681 C1999.38,106.774 1999.05,107.165 1999.05,107.587 L1999.05,111.415 C1999.05,111.649 1999.21,111.977 1999.39,112.134 C1999.53,112.243 1999.78,112.337 1999.97,112.337 C1999.97,112.337 1999.97,112.337 1999.99,112.337 C2000.03,112.337 2000.11,112.321 2000.16,112.306 L2002.38,111.868 L2002.38,121.681 L2004.21,121.681 L2004.21,111.493 L2010.13,110.29 L2010.13,119.602 L2011.96,119.602 L2011.96,109.915 L2014.47,109.415 C2014.88,109.337 2015.21,108.931 2015.21,108.524 L2015.21,104.618 C2015.21,104.368 2015.05,104.056 2014.86,103.899 C2014.74,103.79 2014.47,103.696 2014.3,103.696 C2014.25,103.696 2014.16,103.712 2014.11,103.727 L2011.96,104.165 L2011.96,93.29 L2014.47,92.7744 M2004.21,105.774 L2004.21,94.8525 L2010.13,93.6494 L2010.13,104.54 L2004.21,105.774 "/>
<path class="" d="M2031.1,94.54 L2022.21,95.0869 L2022.21,97.2431 L2024.25,97.2431 C2026.14,97.29 2026.39,97.5869 2026.39,99.7431 L2026.39,111.681 L2026.39,113.634 L2026.39,114.04 C2026.35,114.79 2026.3,115.087 2026.1,115.337 C2025.75,115.79 2024.8,115.993 2022.64,116.04 L2022.46,116.04 L2022.46,117.837 L2035.05,117.837 L2035.05,116.04 L2034.85,116.04 C2031.55,115.931 2031.1,115.681 2031.1,113.837 L2031.1,111.681 L2031.1,104.587 C2031.1,100.134 2033.55,96.8369 2036.8,96.8369 C2039.64,96.8369 2041.1,98.8837 2041.1,102.931 L2041.1,111.681 L2041.1,114.087 C2041.05,114.743 2041,115.087 2040.75,115.337 C2040.46,115.79 2039.46,115.993 2037.3,116.04 L2037.1,116.04 L2037.1,117.837 L2049.75,117.837 L2049.75,116.04 L2049.55,116.04 C2046.25,115.931 2045.8,115.681 2045.8,113.884 L2045.8,111.681 L2045.8,105.04 C2045.8,100.04 2048.05,96.8369 2051.55,96.8369 C2054.41,96.8369 2055.8,98.9931 2055.8,103.493 L2055.8,111.681 L2055.8,114.04 C2055.75,114.743 2055.71,115.087 2055.46,115.337 C2055.16,115.79 2054.16,115.993 2052,116.04 L2051.8,116.04 L2051.8,117.837 L2064.46,117.837 L2064.46,116.04 L2064.25,116.04 C2060.96,115.931 2060.5,115.681 2060.5,113.837 L2060.5,111.681 L2060.5,102.493 C2060.5,99.3837 2060.21,98.3369 2058.91,96.6337 C2057.46,94.79 2055.41,93.79 2053,93.79 C2049.75,93.79 2047.35,95.3369 2045.21,98.79 C2044.35,95.79 2041.64,93.79 2038.3,93.79 C2035.25,93.79 2033.05,95.2431 2031.1,98.3837 L2031.1,94.54 M2075.78,94.54 L2066.39,95.0869 L2066.39,97.2431 L2068.94,97.2431 C2070.83,97.29 2071.08,97.5869 2071.08,99.7431 L2071.08,111.681 L2071.08,114.04 C2071.03,114.79 2070.99,115.087 2070.78,115.337 C2070.44,115.79 2069.49,115.993 2067.33,116.04 L2066.99,116.04 L2066.99,117.837 L2079.94,117.837 L2079.94,116.04 L2079.58,116.04 C2076.24,115.931 2075.78,115.681 2075.78,113.884 L2075.78,111.681 L2075.78,94.54 M2073.44,82.0869 C2071.83,82.0869 2070.53,83.3837 2070.53,84.9775 C2070.53,86.5869 2071.83,87.8837 2073.39,87.8837 C2075.03,87.8837 2076.33,86.5869 2076.33,84.9775 C2076.33,83.3837 2075.03,82.0869 2073.44,82.0869 M2091.22,94.54 L2082.57,95.0869 L2082.57,97.2431 L2084.38,97.2431 C2086.27,97.29 2086.52,97.5869 2086.52,99.7431 L2086.52,111.681 L2086.52,112.884 L2086.52,114.04 C2086.47,114.79 2086.43,115.087 2086.22,115.337 C2085.88,115.79 2084.93,115.993 2082.77,116.04 L2082.57,116.04 L2082.57,117.837 L2095.22,117.837 L2095.22,116.04 L2095.02,116.04 C2091.68,115.931 2091.22,115.681 2091.22,113.884 L2091.22,111.681 L2091.22,106.493 C2091.22,104.04 2091.57,101.79 2092.13,100.634 C2093.18,98.3837 2095.43,96.8369 2097.57,96.8369 C2098.88,96.8369 2100.38,97.54 2101.13,98.5869 C2101.88,99.6806 2102.22,101.181 2102.22,103.587 L2102.22,111.681 L2102.22,114.04 C2102.18,114.79 2102.13,115.087 2101.93,115.337 C2101.57,115.79 2100.57,115.993 2098.43,116.04 L2098.22,116.04 L2098.22,117.837 L2110.88,117.837 L2110.88,116.04 L2110.68,116.04 C2107.38,115.931 2106.93,115.681 2106.93,113.884 L2106.93,111.681 L2106.93,103.837 C2106.93,100.243 2106.77,99.3369 2105.88,97.6337 C2104.63,95.2431 2102.13,93.79 2099.13,93.79 C2095.88,93.79 2093.43,95.29 2091.22,98.5869 L2091.22,94.54 "/>
<path class="" d="M1466.77,77.5976 L1464.66,77.5976 L1453.16,106.738 C1451.82,110.644 1450.52,111.848 1447.66,112.051 L1447.46,112.051 L1447.46,114.394 L1460.71,114.394 L1460.71,112.051 L1459.71,112.051 C1457.02,112.051 1455.66,111.098 1455.66,109.191 C1455.66,108.551 1455.82,107.941 1456.12,107.098 L1457.77,102.691 L1471.02,102.691 L1473.73,109.394 C1474.02,110.191 1474.12,110.488 1474.12,110.738 C1474.12,111.551 1472.87,112.051 1471.02,112.051 L1468.91,112.051 L1468.91,114.394 L1484.41,114.394 L1484.41,112.051 L1483.73,112.051 C1481.12,111.988 1480.66,111.691 1479.52,108.848 L1466.77,77.5976 M1464.32,85.7851 L1469.96,99.9882 L1458.77,99.9882 L1464.32,85.7851 "/>
<path class="" d="M1496.46,91.0976 L1487.57,91.6444 L1487.57,93.8007 L1489.62,93.8007 C1491.51,93.8476 1491.76,94.1444 1491.76,96.3007 L1491.76,108.238 L1491.76,110.191 L1491.76,110.598 C1491.71,111.348 1491.66,111.644 1491.46,111.894 C1491.12,112.348 1490.16,112.551 1488.01,112.598 L1487.82,112.598 L1487.82,114.394 L1500.41,114.394 L1500.41,112.598 L1500.21,112.598 C1496.91,112.488 1496.46,112.238 1496.46,110.394 L1496.46,108.238 L1496.46,101.144 C1496.46,96.6913 1498.91,93.3944 1502.16,93.3944 C1505.01,93.3944 1506.46,95.4413 1506.46,99.4882 L1506.46,108.238 L1506.46,110.644 C1506.41,111.301 1506.37,111.644 1506.12,111.894 C1505.82,112.348 1504.82,112.551 1502.66,112.598 L1502.46,112.598 L1502.46,114.394 L1515.12,114.394 L1515.12,112.598 L1514.91,112.598 C1511.62,112.488 1511.16,112.238 1511.16,110.441 L1511.16,108.238 L1511.16,101.598 C1511.16,96.5976 1513.41,93.3944 1516.91,93.3944 C1519.77,93.3944 1521.16,95.5507 1521.16,100.051 L1521.16,108.238 L1521.16,110.598 C1521.12,111.301 1521.07,111.644 1520.82,111.894 C1520.52,112.348 1519.52,112.551 1517.37,112.598 L1517.16,112.598 L1517.16,114.394 L1529.82,114.394 L1529.82,112.598 L1529.62,112.598 C1526.32,112.488 1525.87,112.238 1525.87,110.394 L1525.87,108.238 L1525.87,99.0507 C1525.87,95.9413 1525.57,94.8944 1524.27,93.1913 C1522.82,91.3476 1520.77,90.3476 1518.37,90.3476 C1515.12,90.3476 1512.71,91.8944 1510.57,95.3476 C1509.71,92.3476 1507.01,90.3476 1503.66,90.3476 C1500.62,90.3476 1498.41,91.8007 1496.46,94.9413 L1496.46,91.0976 M1553.44,98.3007 C1553.44,95.1444 1552.9,93.5507 1551.44,92.3476 C1549.8,90.9882 1547.35,90.3476 1544.15,90.3476 C1538.51,90.3476 1534.4,92.9882 1534.4,96.6444 C1534.4,98.4882 1535.55,99.6913 1537.3,99.6913 C1538.9,99.6913 1540.01,98.6444 1540.01,97.1444 C1540.01,96.4882 1539.76,95.8007 1539.26,95.0976 C1538.94,94.7382 1538.9,94.6444 1538.9,94.3944 C1538.9,93.3944 1540.9,92.4882 1543.3,92.4882 C1544.9,92.4882 1546.65,92.9882 1547.44,93.7382 C1548.4,94.5507 1548.76,95.7382 1548.76,97.9882 L1548.76,99.9413 C1543.55,100.848 1541.9,101.238 1539.44,102.191 C1535.1,103.801 1533.05,106.098 1533.05,109.301 C1533.05,112.894 1535.85,115.144 1540.3,115.144 C1543.76,115.144 1546.85,113.738 1549.01,111.191 C1549.8,113.738 1551.05,114.738 1553.4,114.738 C1555.65,114.738 1558.01,113.301 1558.01,111.848 C1558.01,111.488 1557.8,111.238 1557.51,111.238 C1557.3,111.238 1557.1,111.301 1556.76,111.441 C1556.05,111.738 1555.76,111.801 1555.35,111.801 C1553.94,111.801 1553.44,110.894 1553.44,108.348 L1553.44,98.3007 M1548.76,104.394 C1548.76,107.394 1548.6,108.098 1547.76,109.394 C1546.51,111.238 1544.26,112.488 1542.05,112.488 C1539.76,112.488 1538.1,110.848 1538.1,108.598 C1538.1,106.488 1539.15,104.988 1541.35,103.941 C1542.9,103.238 1544.85,102.738 1548.76,102.098 L1548.76,104.394 M1567.54,91.0976 L1557.79,91.6444 L1557.79,93.8007 L1560.69,93.8007 C1562.6,93.8476 1562.85,94.1444 1562.85,96.3007 L1562.85,113.238 C1562.85,117.301 1562.6,119.191 1561.9,120.644 C1561.4,121.644 1560.24,122.394 1559.15,122.394 C1558.44,122.394 1557.9,122.098 1557.9,121.738 C1557.9,121.551 1557.94,121.441 1558.15,120.941 C1558.4,120.441 1558.49,120.098 1558.49,119.738 C1558.49,118.488 1557.29,117.394 1555.9,117.394 C1554.29,117.394 1553.1,118.644 1553.1,120.394 C1553.1,122.848 1555.35,124.488 1558.69,124.488 C1561.49,124.488 1564.04,123.301 1565.49,121.238 C1567.04,119.051 1567.54,116.488 1567.54,110.848 L1567.54,91.0976 M1565.19,78.6444 C1563.6,78.6444 1562.29,79.9413 1562.29,81.5351 C1562.29,83.1444 1563.6,84.4413 1565.15,84.4413 C1566.79,84.4413 1568.1,83.1444 1568.1,81.5351 C1568.1,79.9413 1566.79,78.6444 1565.19,78.6444"/>
<path class="" d="M1202.36,124.246 L1202.36,126.605 L1203.27,126.605 C1206.11,126.652 1207.07,126.808 1207.46,127.308 C1207.77,127.746 1207.77,127.855 1207.77,130.402 L1207.77,154.199 C1207.77,156.761 1207.77,156.855 1207.46,157.308 C1207.07,157.808 1206.11,158.011 1203.27,158.011 L1202.36,158.011 L1202.36,160.355 L1220.52,160.355 C1229.16,160.355 1234.36,156.699 1234.36,150.558 C1234.36,145.558 1231.22,142.699 1224.36,141.511 C1226.77,141.011 1227.86,140.558 1229.16,139.605 C1231.22,138.058 1232.47,135.605 1232.47,133.105 C1232.47,129.855 1230.47,126.699 1227.57,125.449 C1225.77,124.652 1223.27,124.246 1220.32,124.246 L1202.36,124.246 M1213.36,140.511 L1213.36,129.105 C1213.36,127.152 1214.02,126.652 1216.66,126.605 L1218.66,126.605 C1220.96,126.605 1222.86,126.996 1223.91,127.652 C1225.71,128.746 1226.66,130.855 1226.66,133.652 C1226.66,138.605 1224.27,140.511 1217.82,140.511 L1213.36,140.511 M1213.36,142.855 L1217.77,142.855 C1225.41,142.855 1228.22,144.902 1228.22,150.402 C1228.22,153.605 1227.11,155.902 1225.16,156.855 C1223.61,157.652 1221.52,158.011 1218.36,158.011 L1216.27,158.011 C1213.77,158.011 1213.27,157.511 1213.36,154.855 L1213.36,142.855 "/>
<path class="" d="M1249.46,137.058 L1240.57,137.605 L1240.57,139.761 L1242.61,139.761 C1244.51,139.808 1244.76,140.105 1244.76,142.261 L1244.76,154.199 L1244.76,156.152 L1244.76,156.558 C1244.71,157.308 1244.66,157.605 1244.46,157.855 C1244.11,158.308 1243.16,158.511 1241.01,158.558 L1240.82,158.558 L1240.82,160.355 L1253.41,160.355 L1253.41,158.558 L1253.21,158.558 C1249.91,158.449 1249.46,158.199 1249.46,156.355 L1249.46,154.199 L1249.46,147.105 C1249.46,142.652 1251.91,139.355 1255.16,139.355 C1258.01,139.355 1259.46,141.402 1259.46,145.449 L1259.46,154.199 L1259.46,156.605 C1259.41,157.261 1259.36,157.605 1259.11,157.855 C1258.82,158.308 1257.82,158.511 1255.66,158.558 L1255.46,158.558 L1255.46,160.355 L1268.11,160.355 L1268.11,158.558 L1267.91,158.558 C1264.61,158.449 1264.16,158.199 1264.16,156.402 L1264.16,154.199 L1264.16,147.558 C1264.16,142.558 1266.41,139.355 1269.91,139.355 C1272.77,139.355 1274.16,141.511 1274.16,146.011 L1274.16,154.199 L1274.16,156.558 C1274.11,157.261 1274.07,157.605 1273.82,157.855 C1273.52,158.308 1272.52,158.511 1270.36,158.558 L1270.16,158.558 L1270.16,160.355 L1282.82,160.355 L1282.82,158.558 L1282.61,158.558 C1279.32,158.449 1278.86,158.199 1278.86,156.355 L1278.86,154.199 L1278.86,145.011 C1278.86,141.902 1278.57,140.855 1277.27,139.152 C1275.82,137.308 1273.77,136.308 1271.36,136.308 C1268.11,136.308 1265.71,137.855 1263.57,141.308 C1262.71,138.308 1260.01,136.308 1256.66,136.308 C1253.61,136.308 1251.41,137.761 1249.46,140.902 L1249.46,137.058 M1294.15,137.058 L1284.76,137.605 L1284.76,139.761 L1287.3,139.761 C1289.19,139.808 1289.44,140.105 1289.44,142.261 L1289.44,154.199 L1289.44,156.558 C1289.4,157.308 1289.35,157.605 1289.15,157.855 C1288.8,158.308 1287.85,158.511 1285.69,158.558 L1285.35,158.558 L1285.35,160.355 L1298.3,160.355 L1298.3,158.558 L1297.94,158.558 C1294.6,158.449 1294.15,158.199 1294.15,156.402 L1294.15,154.199 L1294.15,137.058 M1291.8,124.605 C1290.19,124.605 1288.9,125.902 1288.9,127.496 C1288.9,129.105 1290.19,130.402 1291.76,130.402 C1293.4,130.402 1294.69,129.105 1294.69,127.496 C1294.69,125.902 1293.4,124.605 1291.8,124.605 M1309.58,137.058 L1300.93,137.605 L1300.93,139.761 L1302.74,139.761 C1304.63,139.808 1304.88,140.105 1304.88,142.261 L1304.88,154.199 L1304.88,155.402 L1304.88,156.558 C1304.83,157.308 1304.79,157.605 1304.58,157.855 C1304.24,158.308 1303.29,158.511 1301.13,158.558 L1300.93,158.558 L1300.93,160.355 L1313.58,160.355 L1313.58,158.558 L1313.38,158.558 C1310.04,158.449 1309.58,158.199 1309.58,156.402 L1309.58,154.199 L1309.58,149.011 C1309.58,146.558 1309.93,144.308 1310.49,143.152 C1311.54,140.902 1313.79,139.355 1315.93,139.355 C1317.24,139.355 1318.74,140.058 1319.49,141.105 C1320.24,142.199 1320.58,143.699 1320.58,146.105 L1320.58,154.199 L1320.58,156.558 C1320.54,157.308 1320.49,157.605 1320.29,157.855 C1319.93,158.308 1318.93,158.511 1316.79,158.558 L1316.58,158.558 L1316.58,160.355 L1329.24,160.355 L1329.24,158.558 L1329.04,158.558 C1325.74,158.449 1325.29,158.199 1325.29,156.402 L1325.29,154.199 L1325.29,146.355 C1325.29,142.761 1325.13,141.855 1324.24,140.152 C1322.99,137.761 1320.49,136.308 1317.49,136.308 C1314.24,136.308 1311.79,137.808 1309.58,141.105 L1309.58,137.058 "/>
<path class="" d="M590.821,97.5504 L588.712,97.5504 L577.212,126.691 C575.868,130.597 574.571,131.8 571.712,132.003 L571.509,132.003 L571.509,134.347 L584.759,134.347 L584.759,132.003 L583.759,132.003 C581.071,132.003 579.712,131.05 579.712,129.144 C579.712,128.503 579.868,127.894 580.165,127.05 L581.821,122.644 L595.071,122.644 L597.774,129.347 C598.071,130.144 598.165,130.441 598.165,130.691 C598.165,131.503 596.915,132.003 595.071,132.003 L592.962,132.003 L592.962,134.347 L608.462,134.347 L608.462,132.003 L607.774,132.003 C605.165,131.941 604.712,131.644 603.571,128.8 L590.821,97.5504 M588.368,105.738 L594.009,119.941 L582.821,119.941 L588.368,105.738 "/>
<path class="" d="M620.509,111.05 L611.618,111.597 L611.618,113.753 L613.665,113.753 C615.556,113.8 615.806,114.097 615.806,116.253 L615.806,128.191 L615.806,130.144 L615.806,130.55 C615.759,131.3 615.712,131.597 615.509,131.847 C615.165,132.3 614.212,132.503 612.056,132.55 L611.868,132.55 L611.868,134.347 L624.462,134.347 L624.462,132.55 L624.259,132.55 C620.962,132.441 620.509,132.191 620.509,130.347 L620.509,128.191 L620.509,121.097 C620.509,116.644 622.962,113.347 626.212,113.347 C629.056,113.347 630.509,115.394 630.509,119.441 L630.509,128.191 L630.509,130.597 C630.462,131.253 630.415,131.597 630.165,131.847 C629.868,132.3 628.868,132.503 626.712,132.55 L626.509,132.55 L626.509,134.347 L639.165,134.347 L639.165,132.55 L638.962,132.55 C635.665,132.441 635.212,132.191 635.212,130.394 L635.212,128.191 L635.212,121.55 C635.212,116.55 637.462,113.347 640.962,113.347 C643.821,113.347 645.212,115.503 645.212,120.003 L645.212,128.191 L645.212,130.55 C645.165,131.253 645.118,131.597 644.868,131.847 C644.571,132.3 643.571,132.503 641.415,132.55 L641.212,132.55 L641.212,134.347 L653.868,134.347 L653.868,132.55 L653.665,132.55 C650.368,132.441 649.915,132.191 649.915,130.347 L649.915,128.191 L649.915,119.003 C649.915,115.894 649.618,114.847 648.321,113.144 C646.868,111.3 644.821,110.3 642.415,110.3 C639.165,110.3 636.759,111.847 634.618,115.3 C633.759,112.3 631.056,110.3 627.712,110.3 C624.665,110.3 622.462,111.753 620.509,114.894 L620.509,111.05 M677.493,118.253 C677.493,115.097 676.946,113.503 675.493,112.3 C673.852,110.941 671.399,110.3 668.196,110.3 C662.556,110.3 658.446,112.941 658.446,116.597 C658.446,118.441 659.602,119.644 661.352,119.644 C662.946,119.644 664.056,118.597 664.056,117.097 C664.056,116.441 663.806,115.753 663.306,115.05 C662.993,114.691 662.946,114.597 662.946,114.347 C662.946,113.347 664.946,112.441 667.352,112.441 C668.946,112.441 670.696,112.941 671.493,113.691 C672.446,114.503 672.806,115.691 672.806,117.941 L672.806,119.894 C667.602,120.8 665.946,121.191 663.493,122.144 C659.149,123.753 657.102,126.05 657.102,129.253 C657.102,132.847 659.899,135.097 664.352,135.097 C667.806,135.097 670.899,133.691 673.056,131.144 C673.852,133.691 675.102,134.691 677.446,134.691 C679.696,134.691 682.056,133.253 682.056,131.8 C682.056,131.441 681.852,131.191 681.556,131.191 C681.352,131.191 681.149,131.253 680.806,131.394 C680.102,131.691 679.806,131.753 679.399,131.753 C677.993,131.753 677.493,130.847 677.493,128.3 L677.493,118.253 M672.806,124.347 C672.806,127.347 672.649,128.05 671.806,129.347 C670.556,131.191 668.306,132.441 666.102,132.441 C663.806,132.441 662.149,130.8 662.149,128.55 C662.149,126.441 663.196,124.941 665.399,123.894 C666.946,123.191 668.899,122.691 672.806,122.05 L672.806,124.347 M691.587,111.05 L681.837,111.597 L681.837,113.753 L684.743,113.753 C686.649,113.8 686.899,114.097 686.899,116.253 L686.899,133.191 C686.899,137.253 686.649,139.144 685.946,140.597 C685.446,141.597 684.29,142.347 683.196,142.347 C682.493,142.347 681.946,142.05 681.946,141.691 C681.946,141.503 681.993,141.394 682.196,140.894 C682.446,140.394 682.54,140.05 682.54,139.691 C682.54,138.441 681.337,137.347 679.946,137.347 C678.337,137.347 677.149,138.597 677.149,140.347 C677.149,142.8 679.399,144.441 682.743,144.441 C685.54,144.441 688.087,143.253 689.54,141.191 C691.087,139.003 691.587,136.441 691.587,130.8 L691.587,111.05 M689.243,98.5972 C687.649,98.5972 686.337,99.8941 686.337,101.488 C686.337,103.097 687.649,104.394 689.196,104.394 C690.837,104.394 692.149,103.097 692.149,101.488 C692.149,99.8941 690.837,98.5972 689.243,98.5972"/>
<path class="" d="M858.562,109.199 L858.562,111.558 L859.468,111.558 C862.312,111.605 863.265,111.761 863.656,112.261 C863.968,112.699 863.968,112.808 863.968,115.355 L863.968,139.152 C863.968,141.714 863.968,141.808 863.656,142.261 C863.265,142.761 862.312,142.964 859.468,142.964 L858.562,142.964 L858.562,145.308 L876.718,145.308 C885.359,145.308 890.562,141.652 890.562,135.511 C890.562,130.511 887.422,127.652 880.562,126.464 C882.968,125.964 884.062,125.511 885.359,124.558 C887.422,123.011 888.672,120.558 888.672,118.058 C888.672,114.808 886.672,111.652 883.765,110.402 C881.968,109.605 879.468,109.199 876.515,109.199 L858.562,109.199 M869.562,125.464 L869.562,114.058 C869.562,112.105 870.218,111.605 872.859,111.558 L874.859,111.558 C877.156,111.558 879.062,111.949 880.109,112.605 C881.906,113.699 882.859,115.808 882.859,118.605 C882.859,123.558 880.468,125.464 874.015,125.464 L869.562,125.464 M869.562,127.808 L873.968,127.808 C881.609,127.808 884.422,129.855 884.422,135.355 C884.422,138.558 883.312,140.855 881.359,141.808 C879.812,142.605 877.718,142.964 874.562,142.964 L872.468,142.964 C869.968,142.964 869.468,142.464 869.562,139.808 L869.562,127.808 "/>
<path class="" d="M905.656,122.011 L896.765,122.558 L896.765,124.714 L898.812,124.714 C900.703,124.761 900.953,125.058 900.953,127.214 L900.953,139.152 L900.953,141.105 L900.953,141.511 C900.906,142.261 900.859,142.558 900.656,142.808 C900.312,143.261 899.359,143.464 897.203,143.511 L897.015,143.511 L897.015,145.308 L909.609,145.308 L909.609,143.511 L909.406,143.511 C906.109,143.402 905.656,143.152 905.656,141.308 L905.656,139.152 L905.656,132.058 C905.656,127.605 908.109,124.308 911.359,124.308 C914.203,124.308 915.656,126.355 915.656,130.402 L915.656,139.152 L915.656,141.558 C915.609,142.214 915.562,142.558 915.312,142.808 C915.015,143.261 914.015,143.464 911.859,143.511 L911.656,143.511 L911.656,145.308 L924.312,145.308 L924.312,143.511 L924.109,143.511 C920.812,143.402 920.359,143.152 920.359,141.355 L920.359,139.152 L920.359,132.511 C920.359,127.511 922.609,124.308 926.109,124.308 C928.968,124.308 930.359,126.464 930.359,130.964 L930.359,139.152 L930.359,141.511 C930.312,142.214 930.265,142.558 930.015,142.808 C929.718,143.261 928.718,143.464 926.562,143.511 L926.359,143.511 L926.359,145.308 L939.015,145.308 L939.015,143.511 L938.812,143.511 C935.515,143.402 935.062,143.152 935.062,141.308 L935.062,139.152 L935.062,129.964 C935.062,126.855 934.765,125.808 933.468,124.105 C932.015,122.261 929.968,121.261 927.562,121.261 C924.312,121.261 921.906,122.808 919.765,126.261 C918.906,123.261 916.203,121.261 912.859,121.261 C909.812,121.261 907.609,122.714 905.656,125.855 L905.656,122.011 M950.343,122.011 L940.953,122.558 L940.953,124.714 L943.5,124.714 C945.39,124.761 945.64,125.058 945.64,127.214 L945.64,139.152 L945.64,141.511 C945.593,142.261 945.547,142.558 945.343,142.808 C945,143.261 944.047,143.464 941.89,143.511 L941.547,143.511 L941.547,145.308 L954.5,145.308 L954.5,143.511 L954.14,143.511 C950.797,143.402 950.343,143.152 950.343,141.355 L950.343,139.152 L950.343,122.011 M948,109.558 C946.39,109.558 945.093,110.855 945.093,112.449 C945.093,114.058 946.39,115.355 947.953,115.355 C949.593,115.355 950.89,114.058 950.89,112.449 C950.89,110.855 949.593,109.558 948,109.558 M965.781,122.011 L957.125,122.558 L957.125,124.714 L958.937,124.714 C960.828,124.761 961.078,125.058 961.078,127.214 L961.078,139.152 L961.078,140.355 L961.078,141.511 C961.031,142.261 960.984,142.558 960.781,142.808 C960.437,143.261 959.484,143.464 957.328,143.511 L957.125,143.511 L957.125,145.308 L969.781,145.308 L969.781,143.511 L969.578,143.511 C966.234,143.402 965.781,143.152 965.781,141.355 L965.781,139.152 L965.781,133.964 C965.781,131.511 966.125,129.261 966.687,128.105 C967.734,125.855 969.984,124.308 972.125,124.308 C973.437,124.308 974.937,125.011 975.687,126.058 C976.437,127.152 976.781,128.652 976.781,131.058 L976.781,139.152 L976.781,141.511 C976.734,142.261 976.687,142.558 976.484,142.808 C976.125,143.261 975.125,143.464 972.984,143.511 L972.781,143.511 L972.781,145.308 L985.437,145.308 L985.437,143.511 L985.234,143.511 C981.937,143.402 981.484,143.152 981.484,141.355 L981.484,139.152 L981.484,131.308 C981.484,127.714 981.328,126.808 980.437,125.105 C979.187,122.714 976.687,121.261 973.687,121.261 C970.437,121.261 967.984,122.761 965.781,126.058 L965.781,122.011 "/>
<path class="" d="M391.804,96.7781 L362.054,96.7781 L362.054,99.1375 L362.944,99.1375 C365.804,99.1844 366.757,99.3406 367.147,99.8406 C367.444,100.278 367.444,100.388 367.444,102.934 L367.444,126.731 C367.444,129.294 367.444,129.388 367.147,129.841 C366.757,130.341 365.804,130.544 362.944,130.544 L362.054,130.544 L362.054,132.888 L379.194,132.888 L379.194,130.544 L377.554,130.544 C374.694,130.544 373.757,130.341 373.35,129.841 C373.054,129.388 373.054,129.231 373.054,126.731 L373.054,115.388 L374.054,115.388 C379.194,115.184 381.054,117.044 381.257,122.591 L383.6,122.591 L383.6,106.184 L381.257,106.184 C380.944,111.091 379.007,112.981 374.257,113.044 L373.054,113.044 L373.054,101.638 C373.007,99.5281 373.507,99.1844 376.194,99.1375 L378.507,99.1375 C386.71,99.0906 388.757,100.934 390.304,109.544 L392.507,109.544 L391.804,96.7781 "/>
<path class="" d="M412.71,107.825 C413.116,107.747 413.444,107.341 413.444,106.934 L413.444,106.919 L413.444,103.028 C413.444,102.778 413.288,102.466 413.1,102.309 C412.96,102.2 412.71,102.106 412.538,102.106 C412.475,102.106 412.397,102.122 412.35,102.138 L410.194,102.575 L410.194,92.7313 L408.366,92.7313 L408.366,102.95 L402.444,104.184 L402.444,94.8094 L400.616,94.8094 L400.616,104.559 L398.022,105.091 C397.616,105.184 397.288,105.591 397.288,105.997 L397.288,109.825 C397.288,110.059 397.444,110.388 397.632,110.544 C397.772,110.653 398.022,110.747 398.21,110.747 C398.257,110.747 398.35,110.731 398.397,110.731 L400.616,110.278 L400.616,121.2 L398.022,121.731 C397.616,121.825 397.288,122.216 397.288,122.638 L397.288,126.466 C397.288,126.7 397.444,127.028 397.632,127.184 C397.772,127.294 398.022,127.388 398.21,127.388 C398.21,127.388 398.21,127.388 398.225,127.388 C398.272,127.388 398.35,127.372 398.397,127.356 L400.616,126.919 L400.616,136.731 L402.444,136.731 L402.444,126.544 L408.366,125.341 L408.366,134.653 L410.194,134.653 L410.194,124.966 L412.71,124.466 C413.116,124.388 413.444,123.981 413.444,123.575 L413.444,119.669 C413.444,119.419 413.288,119.106 413.1,118.95 C412.975,118.841 412.71,118.747 412.538,118.747 C412.491,118.747 412.397,118.763 412.35,118.778 L410.194,119.216 L410.194,108.341 L412.71,107.825 M402.444,120.825 L402.444,109.903 L408.366,108.7 L408.366,119.591 L402.444,120.825 "/>
<path class="" d="M429.335,109.591 L420.444,110.138 L420.444,112.294 L422.491,112.294 C424.382,112.341 424.632,112.638 424.632,114.794 L424.632,126.731 L424.632,128.684 L424.632,129.091 C424.585,129.841 424.538,130.138 424.335,130.388 C423.991,130.841 423.038,131.044 420.882,131.091 L420.694,131.091 L420.694,132.888 L433.288,132.888 L433.288,131.091 L433.085,131.091 C429.788,130.981 429.335,130.731 429.335,128.888 L429.335,126.731 L429.335,119.638 C429.335,115.184 431.788,111.888 435.038,111.888 C437.882,111.888 439.335,113.934 439.335,117.981 L439.335,126.731 L439.335,129.138 C439.288,129.794 439.241,130.138 438.991,130.388 C438.694,130.841 437.694,131.044 435.538,131.091 L435.335,131.091 L435.335,132.888 L447.991,132.888 L447.991,131.091 L447.788,131.091 C444.491,130.981 444.038,130.731 444.038,128.934 L444.038,126.731 L444.038,120.091 C444.038,115.091 446.288,111.888 449.788,111.888 C452.647,111.888 454.038,114.044 454.038,118.544 L454.038,126.731 L454.038,129.091 C453.991,129.794 453.944,130.138 453.694,130.388 C453.397,130.841 452.397,131.044 450.241,131.091 L450.038,131.091 L450.038,132.888 L462.694,132.888 L462.694,131.091 L462.491,131.091 C459.194,130.981 458.741,130.731 458.741,128.888 L458.741,126.731 L458.741,117.544 C458.741,114.434 458.444,113.388 457.147,111.684 C455.694,109.841 453.647,108.841 451.241,108.841 C447.991,108.841 445.585,110.388 443.444,113.841 C442.585,110.841 439.882,108.841 436.538,108.841 C433.491,108.841 431.288,110.294 429.335,113.434 L429.335,109.591 M474.022,109.591 L464.632,110.138 L464.632,112.294 L467.179,112.294 C469.069,112.341 469.319,112.638 469.319,114.794 L469.319,126.731 L469.319,129.091 C469.272,129.841 469.225,130.138 469.022,130.388 C468.679,130.841 467.725,131.044 465.569,131.091 L465.225,131.091 L465.225,132.888 L478.179,132.888 L478.179,131.091 L477.819,131.091 C474.475,130.981 474.022,130.731 474.022,128.934 L474.022,126.731 L474.022,109.591 M471.679,97.1375 C470.069,97.1375 468.772,98.4344 468.772,100.028 C468.772,101.638 470.069,102.934 471.632,102.934 C473.272,102.934 474.569,101.638 474.569,100.028 C474.569,98.4344 473.272,97.1375 471.679,97.1375 M489.46,109.591 L480.804,110.138 L480.804,112.294 L482.616,112.294 C484.507,112.341 484.757,112.638 484.757,114.794 L484.757,126.731 L484.757,127.934 L484.757,129.091 C484.71,129.841 484.663,130.138 484.46,130.388 C484.116,130.841 483.163,131.044 481.007,131.091 L480.804,131.091 L480.804,132.888 L493.46,132.888 L493.46,131.091 L493.257,131.091 C489.913,130.981 489.46,130.731 489.46,128.934 L489.46,126.731 L489.46,121.544 C489.46,119.091 489.804,116.841 490.366,115.684 C491.413,113.434 493.663,111.888 495.804,111.888 C497.116,111.888 498.616,112.591 499.366,113.638 C500.116,114.731 500.46,116.231 500.46,118.638 L500.46,126.731 L500.46,129.091 C500.413,129.841 500.366,130.138 500.163,130.388 C499.804,130.841 498.804,131.044 496.663,131.091 L496.46,131.091 L496.46,132.888 L509.116,132.888 L509.116,131.091 L508.913,131.091 C505.616,130.981 505.163,130.731 505.163,128.934 L505.163,126.731 L505.163,118.888 C505.163,115.294 505.007,114.388 504.116,112.684 C502.866,110.294 500.366,108.841 497.366,108.841 C494.116,108.841 491.663,110.341 489.46,113.638 L489.46,109.591 "/>
<path class="" d="M1997.14,410.004 C1998.48,411.973 2001.37,415.332 2002.57,416.988 C2003.76,418.645 2003.78,420.379 2001.35,422.441 C1998.71,424.723 1996.06,426.145 1994.84,426.91 C1993.85,427.535 1987.78,430.113 1989.7,433.832 C1991.29,436.941 1994.99,434.098 1996.71,432.27 C1997.6,431.316 1998.79,429.176 2000.39,429.176 C2001.76,429.176 2002.59,431.16 2003.45,432.348 C2004.96,434.41 2005.98,435.035 2008.28,435.035 C2010.95,435.035 2012.67,432.098 2016.09,429.207 C2016.09,429.207 2018.46,435.004 2022.46,435.004 C2027.17,435.004 2032.67,429.316 2032.67,429.316 C2034.12,433.004 2038.84,435.988 2043.07,434.848 C2048.57,433.348 2051.46,427.285 2050.76,421.098 C2048.93,404.988 2031.51,399.441 2026.51,398.535 C2025.2,398.301 2023.64,397.879 2023.46,399.113 C2023.28,400.332 2024.95,401.035 2024.95,401.035 C2025.56,401.238 2026.15,401.457 2026.71,401.66 C2036.92,405.551 2040.42,410.957 2040.42,410.957 C2031.14,414.145 2031.4,423.738 2031.68,426.801 C2031.04,427.629 2028.12,430.254 2024.99,430.254 C2021.7,430.254 2020.73,426.301 2020.73,426.301 C2020.73,426.301 2022.57,424.66 2025.7,421.973 C2032.21,416.332 2028.43,409.738 2023.43,409.738 C2015.62,409.738 2013.81,421.004 2015.37,426.816 C2015.37,426.816 2014.57,427.816 2012.9,428.848 C2011.24,429.879 2008.7,428.441 2007.31,426.941 C2004.78,424.238 2003.95,424.52 2003.95,424.52 C2003.95,424.52 2006.95,422.238 2008.17,419.379 C2009.4,416.504 2006.71,412.254 2006.71,412.254 C2006.71,412.254 2003.12,407.27 2001.98,405.598 C2000.85,403.941 2002.24,401.395 2003.29,399.207 C2004.35,397.02 2005.64,395.895 2005.64,395.895 C2012.14,397.566 2013.49,402.598 2012.1,403.691 C2010.24,405.16 2008.03,403.035 2007.31,402.441 C2006.59,401.832 2005.62,400.785 2004.57,401.582 C2003.53,402.379 2004.06,403.582 2004.51,404.582 C2007.18,409.848 2012.12,410.77 2015.29,408.551 C2019.35,405.707 2018.78,394.754 2005.62,392.379 C1991.09,389.723 1982.4,401.191 1982.4,407.035 C1982.4,411.16 1985.35,414.691 1989.1,414.691 C1989.1,414.691 1995.2,414.895 1995.7,407.504 C1995.84,405.504 1994.96,405.082 1994.37,404.988 C1993.78,404.895 1992.78,405.27 1992.45,406.879 C1992.04,408.816 1990.98,409.535 1989.64,409.332 C1987.89,409.066 1986.82,405.66 1989.99,401.254 C1994.29,395.316 2001.68,395.441 2001.68,395.441 C2001.68,395.441 1998.54,401.082 1997.35,404.16 C1997.35,404.16 1995.54,407.676 1997.14,410.004 M2023.09,413.176 C2025.56,413.176 2026.32,416.551 2024.14,419.02 C2022.34,421.02 2019.89,423.473 2019.89,423.473 C2019.12,416.91 2020.6,413.176 2023.09,413.176 M2041.53,429.707 C2038.9,430.238 2036.74,427.332 2036.74,423.473 C2036.74,414.973 2042.37,414.129 2042.37,414.129 C2043.54,416.316 2044.59,418.941 2044.59,423.145 C2044.59,428.145 2043.6,429.285 2041.53,429.707 M2055.67,433.895 C2057.45,433.895 2058.9,432.27 2058.9,430.27 C2058.9,428.27 2057.45,426.645 2055.67,426.645 C2053.9,426.645 2052.45,428.27 2052.45,430.27 C2052.45,432.27 2053.9,433.895 2055.67,433.895"/>
<polyline class="" fill="none" stroke="#000000" stroke-width="2.73" stroke-linecap="square" stroke-linejoin="bevel" points="2071.8,430.19 2603.27,430.19"/>
<polyline class="" fill="none" stroke="#000000" stroke-width="2.73" stroke-linecap="square" stroke-linejoin="bevel" points="2603.27,430.19 2603.27,400.426"/>
<path class="" d="M1471.02,410.004 C1472.37,411.973 1475.26,415.332 1476.46,416.988 C1477.65,418.645 1477.66,420.379 1475.24,422.441 C1472.6,424.723 1469.94,426.145 1468.72,426.91 C1467.74,427.535 1461.66,430.113 1463.58,433.832 C1465.18,436.941 1468.88,434.098 1470.6,432.27 C1471.49,431.316 1472.68,429.176 1474.27,429.176 C1475.65,429.176 1476.47,431.16 1477.33,432.348 C1478.85,434.41 1479.87,435.035 1482.16,435.035 C1484.83,435.035 1486.55,432.098 1489.97,429.207 C1489.97,429.207 1492.35,435.004 1496.35,435.004 C1501.05,435.004 1506.55,429.316 1506.55,429.316 C1508.01,433.004 1512.72,435.988 1516.96,434.848 C1522.46,433.348 1525.35,427.285 1524.65,421.098 C1522.82,404.988 1505.4,399.441 1500.4,398.535 C1499.08,398.301 1497.52,397.879 1497.35,399.113 C1497.16,400.332 1498.83,401.035 1498.83,401.035 C1499.44,401.238 1500.04,401.457 1500.6,401.66 C1510.8,405.551 1514.3,410.957 1514.3,410.957 C1505.02,414.145 1505.29,423.738 1505.57,426.801 C1504.93,427.629 1502.01,430.254 1498.88,430.254 C1495.58,430.254 1494.62,426.301 1494.62,426.301 C1494.62,426.301 1496.46,424.66 1499.58,421.973 C1506.1,416.332 1502.32,409.738 1497.32,409.738 C1489.51,409.738 1487.69,421.004 1489.26,426.816 C1489.26,426.816 1488.46,427.816 1486.79,428.848 C1485.13,429.879 1482.58,428.441 1481.19,426.941 C1478.66,424.238 1477.83,424.52 1477.83,424.52 C1477.83,424.52 1480.83,422.238 1482.05,419.379 C1483.29,416.504 1480.6,412.254 1480.6,412.254 C1480.6,412.254 1477.01,407.27 1475.87,405.598 C1474.74,403.941 1476.13,401.395 1477.18,399.207 C1478.24,397.02 1479.52,395.895 1479.52,395.895 C1486.02,397.566 1487.38,402.598 1485.99,403.691 C1484.13,405.16 1481.91,403.035 1481.19,402.441 C1480.47,401.832 1479.51,400.785 1478.46,401.582 C1477.41,402.379 1477.94,403.582 1478.4,404.582 C1481.07,409.848 1486.01,410.77 1489.18,408.551 C1493.24,405.707 1492.66,394.754 1479.51,392.379 C1464.97,389.723 1456.29,401.191 1456.29,407.035 C1456.29,411.16 1459.24,414.691 1462.99,414.691 C1462.99,414.691 1469.08,414.895 1469.58,407.504 C1469.72,405.504 1468.85,405.082 1468.26,404.988 C1467.66,404.895 1466.66,405.27 1466.33,406.879 C1465.93,408.816 1464.87,409.535 1463.52,409.332 C1461.77,409.066 1460.71,405.66 1463.88,401.254 C1468.18,395.316 1475.57,395.441 1475.57,395.441 C1475.57,395.441 1472.43,401.082 1471.24,404.16 C1471.24,404.16 1469.43,407.676 1471.02,410.004 M1496.97,413.176 C1499.44,413.176 1500.21,416.551 1498.02,419.02 C1496.22,421.02 1493.77,423.473 1493.77,423.473 C1493.01,416.91 1494.49,413.176 1496.97,413.176 M1515.41,429.707 C1512.79,430.238 1510.63,427.332 1510.63,423.473 C1510.63,414.973 1516.26,414.129 1516.26,414.129 C1517.43,416.316 1518.47,418.941 1518.47,423.145 C1518.47,428.145 1517.49,429.285 1515.41,429.707 M1529.55,433.895 C1531.33,433.895 1532.79,432.27 1532.79,430.27 C1532.79,428.27 1531.33,426.645 1529.55,426.645 C1527.79,426.645 1526.33,428.27 1526.33,430.27 C1526.33,432.27 1527.79,433.895 1529.55,433.895"/>
<polyline class="" fill="none" stroke="#000000" stroke-width="2.73" stroke-linecap="square" stroke-linejoin="bevel" points="1545.69,430.19 1623.61,430.19"/>
<polyline class="" fill="none" stroke="#000000" stroke-width="2.73" stroke-linecap="square" stroke-linejoin="bevel" points="1623.61,430.19 1623.61,400.426"/>
<path class="" d="M878.677,410.004 C880.021,411.973 882.911,415.332 884.114,416.988 C885.302,418.645 885.318,420.379 882.896,422.441 C880.255,424.723 877.599,426.145 876.38,426.91 C875.396,427.535 869.318,430.113 871.239,433.832 C872.833,436.941 876.536,434.098 878.255,432.27 C879.146,431.316 880.333,429.176 881.927,429.176 C883.302,429.176 884.13,431.16 884.989,432.348 C886.505,434.41 887.521,435.035 889.818,435.035 C892.489,435.035 894.208,432.098 897.63,429.207 C897.63,429.207 900.005,435.004 904.005,435.004 C908.708,435.004 914.208,429.316 914.208,429.316 C915.661,433.004 920.38,435.988 924.614,434.848 C930.114,433.348 933.005,427.285 932.302,421.098 C930.474,404.988 913.052,399.441 908.052,398.535 C906.739,398.301 905.177,397.879 905.005,399.113 C904.818,400.332 906.489,401.035 906.489,401.035 C907.099,401.238 907.693,401.457 908.255,401.66 C918.458,405.551 921.958,410.957 921.958,410.957 C912.677,414.145 912.943,423.738 913.224,426.801 C912.583,427.629 909.661,430.254 906.536,430.254 C903.239,430.254 902.271,426.301 902.271,426.301 C902.271,426.301 904.114,424.66 907.239,421.973 C913.755,416.332 909.974,409.738 904.974,409.738 C897.161,409.738 895.349,421.004 896.911,426.816 C896.911,426.816 896.114,427.816 894.443,428.848 C892.786,429.879 890.239,428.441 888.849,426.941 C886.318,424.238 885.489,424.52 885.489,424.52 C885.489,424.52 888.489,422.238 889.708,419.379 C890.943,416.504 888.255,412.254 888.255,412.254 C888.255,412.254 884.661,407.27 883.521,405.598 C882.396,403.941 883.786,401.395 884.833,399.207 C885.896,397.02 887.177,395.895 887.177,395.895 C893.677,397.566 895.036,402.598 893.646,403.691 C891.786,405.16 889.568,403.035 888.849,402.441 C888.13,401.832 887.161,400.785 886.114,401.582 C885.068,402.379 885.599,403.582 886.052,404.582 C888.724,409.848 893.661,410.77 896.833,408.551 C900.896,405.707 900.318,394.754 887.161,392.379 C872.63,389.723 863.943,401.191 863.943,407.035 C863.943,411.16 866.896,414.691 870.646,414.691 C870.646,414.691 876.739,414.895 877.239,407.504 C877.38,405.504 876.505,405.082 875.911,404.988 C875.318,404.895 874.318,405.27 873.989,406.879 C873.583,408.816 872.521,409.535 871.177,409.332 C869.427,409.066 868.364,405.66 871.536,401.254 C875.833,395.316 883.224,395.441 883.224,395.441 C883.224,395.441 880.083,401.082 878.896,404.16 C878.896,404.16 877.083,407.676 878.677,410.004 M904.63,413.176 C907.099,413.176 907.864,416.551 905.677,419.02 C903.88,421.02 901.427,423.473 901.427,423.473 C900.661,416.91 902.146,413.176 904.63,413.176 M923.068,429.707 C920.443,430.238 918.286,427.332 918.286,423.473 C918.286,414.973 923.911,414.129 923.911,414.129 C925.083,416.316 926.13,418.941 926.13,423.145 C926.13,428.145 925.146,429.285 923.068,429.707 M937.208,433.895 C938.989,433.895 940.443,432.27 940.443,430.27 C940.443,428.27 938.989,426.645 937.208,426.645 C935.443,426.645 933.989,428.27 933.989,430.27 C933.989,432.27 935.443,433.895 937.208,433.895"/>
<polyline class="" fill="none" stroke="#000000" stroke-width="2.73" stroke-linecap="square" stroke-linejoin="bevel" points="953.344,430.19 1374.2,430.19"/>
<polyline class="" fill="none" stroke="#000000" stroke-width="2.73" stroke-linecap="square" stroke-linejoin="bevel" points="1374.2,430.19 1374.2,400.426"/>
<path class="" d="M336.183,410.004 C337.527,411.973 340.417,415.332 341.62,416.988 C342.808,418.645 342.824,420.379 340.402,422.441 C337.761,424.723 335.105,426.145 333.886,426.91 C332.902,427.535 326.824,430.113 328.745,433.832 C330.339,436.941 334.042,434.098 335.761,432.27 C336.652,431.316 337.839,429.176 339.433,429.176 C340.808,429.176 341.636,431.16 342.495,432.348 C344.011,434.41 345.027,435.035 347.324,435.035 C349.995,435.035 351.714,432.098 355.136,429.207 C355.136,429.207 357.511,435.004 361.511,435.004 C366.214,435.004 371.714,429.316 371.714,429.316 C373.167,433.004 377.886,435.988 382.12,434.848 C387.62,433.348 390.511,427.285 389.808,421.098 C387.98,404.988 370.558,399.441 365.558,398.535 C364.245,398.301 362.683,397.879 362.511,399.113 C362.324,400.332 363.995,401.035 363.995,401.035 C364.605,401.238 365.199,401.457 365.761,401.66 C375.964,405.551 379.464,410.957 379.464,410.957 C370.183,414.145 370.449,423.738 370.73,426.801 C370.089,427.629 367.167,430.254 364.042,430.254 C360.745,430.254 359.777,426.301 359.777,426.301 C359.777,426.301 361.62,424.66 364.745,421.973 C371.261,416.332 367.48,409.738 362.48,409.738 C354.667,409.738 352.855,421.004 354.417,426.816 C354.417,426.816 353.62,427.816 351.949,428.848 C350.292,429.879 347.745,428.441 346.355,426.941 C343.824,424.238 342.995,424.52 342.995,424.52 C342.995,424.52 345.995,422.238 347.214,419.379 C348.449,416.504 345.761,412.254 345.761,412.254 C345.761,412.254 342.167,407.27 341.027,405.598 C339.902,403.941 341.292,401.395 342.339,399.207 C343.402,397.02 344.683,395.895 344.683,395.895 C351.183,397.566 352.542,402.598 351.152,403.691 C349.292,405.16 347.074,403.035 346.355,402.441 C345.636,401.832 344.667,400.785 343.62,401.582 C342.574,402.379 343.105,403.582 343.558,404.582 C346.23,409.848 351.167,410.77 354.339,408.551 C358.402,405.707 357.824,394.754 344.667,392.379 C330.136,389.723 321.449,401.191 321.449,407.035 C321.449,411.16 324.402,414.691 328.152,414.691 C328.152,414.691 334.245,414.895 334.745,407.504 C334.886,405.504 334.011,405.082 333.417,404.988 C332.824,404.895 331.824,405.27 331.495,406.879 C331.089,408.816 330.027,409.535 328.683,409.332 C326.933,409.066 325.87,405.66 329.042,401.254 C333.339,395.316 340.73,395.441 340.73,395.441 C340.73,395.441 337.589,401.082 336.402,404.16 C336.402,404.16 334.589,407.676 336.183,410.004 M362.136,413.176 C364.605,413.176 365.37,416.551 363.183,419.02 C361.386,421.02 358.933,423.473 358.933,423.473 C358.167,416.91 359.652,413.176 362.136,413.176 M380.574,429.707 C377.949,430.238 375.792,427.332 375.792,423.473 C375.792,414.973 381.417,414.129 381.417,414.129 C382.589,416.316 383.636,418.941 383.636,423.145 C383.636,428.145 382.652,429.285 380.574,429.707 M394.714,433.895 C396.495,433.895 397.949,432.27 397.949,430.27 C397.949,428.27 396.495,426.645 394.714,426.645 C392.949,426.645 391.495,428.27 391.495,430.27 C391.495,432.27 392.949,433.895 394.714,433.895"/>
<polyline class="" fill="none" stroke="#000000" stroke-width="2.73" stroke-linecap="square" stroke-linejoin="bevel" points="410.85,430.19 831.706,430.19"/>
<polyline class="" fill="none" stroke="#000000" stroke-width="2.73" stroke-linecap="square" stroke-linejoin="bevel" points="831.706,430.19 831.706,400.426"/>
</svg>
