<?xml version="1.0" encoding="UTF-8" standalone="no"?>
<svg
   xmlns:dc="http://purl.org/dc/elements/1.1/"
   xmlns:cc="http://creativecommons.org/ns#"
   xmlns:rdf="http://www.w3.org/1999/02/22-rdf-syntax-ns#"
   xmlns:svg="http://www.w3.org/2000/svg"
   xmlns="http://www.w3.org/2000/svg"
   xmlns:sodipodi="http://sodipodi.sourceforge.net/DTD/sodipodi-0.dtd"
   xmlns:inkscape="http://www.inkscape.org/namespaces/inkscape"
   width="2657px"
   height="445px"
   viewBox="0 0 2657 445"
   version="1.2"
   id="svg138"
   sodipodi:docname="Begin-1.svg"
   inkscape:version="0.92.5 (2060ec1f9f, 2020-04-08)">
  <metadata
     id="metadata144">
    <rdf:RDF>
      <cc:Work
         rdf:about="">
        <dc:format>image/svg+xml</dc:format>
        <dc:type
           rdf:resource="http://purl.org/dc/dcmitype/StillImage" />
      </cc:Work>
    </rdf:RDF>
  </metadata>
  <defs
     id="defs142" />
  <sodipodi:namedview
     pagecolor="#ffffff"
     bordercolor="#666666"
     borderopacity="1"
     objecttolerance="10"
     gridtolerance="10"
     guidetolerance="10"
     inkscape:pageopacity="0"
     inkscape:pageshadow="2"
     inkscape:window-width="640"
     inkscape:window-height="480"
     id="namedview140"
     showgrid="false"
     inkscape:zoom="0.16748212"
     inkscape:cx="1328.5"
     inkscape:cy="222.5"
     inkscape:window-x="0"
     inkscape:window-y="27"
     inkscape:window-maximized="0"
     inkscape:current-layer="svg138" />
  <title
     id="title2">Sin título</title>
  <desc
     id="desc4">Generated by MuseScore 3.6.2</desc>
  <path
     class=""
     stroke="#000000"
     stroke-width="1.74"
     stroke-linecap="round"
     stroke-linejoin="round"
     fill-rule="evenodd"
     d="M1633.02,152.415 C1698.05,116.699 1893.12,116.699 1958.14,152.415 C1893.12,123.644 1698.05,123.644 1633.02,152.415"
     id="path8" />
  <path
     class=""
     stroke="#000000"
     stroke-width="1.74"
     stroke-linecap="round"
     stroke-linejoin="round"
     fill-rule="evenodd"
     d="M339.896,152.415 C377.962,120.012 492.162,120.012 530.228,152.415 C492.162,126.957 377.962,126.957 339.896,152.415"
     id="path10" />
  <polyline
     class=""
     stroke="#000000"
     stroke-width="4.46"
     stroke-linejoin="bevel"
     points="2642.58,182.055 2642.58,283.996"
     id="polyline12" />
  <polyline
     class=""
     stroke="#000000"
     stroke-width="4.46"
     stroke-linejoin="bevel"
     points="1580.07,182.055 1580.07,283.996"
     id="polyline14" />
  <polyline
     class=""
     stroke="#000000"
     stroke-width="2.73"
     stroke-linejoin="bevel"
     points="1582.31,183.419 2644.81,183.419"
     id="polyline16" />
  <polyline
     class=""
     stroke="#000000"
     stroke-width="2.73"
     stroke-linejoin="bevel"
     points="1582.31,208.222 2644.81,208.222"
     id="polyline18" />
  <polyline
     class=""
     stroke="#000000"
     stroke-width="2.73"
     stroke-linejoin="bevel"
     points="1582.31,233.026 2644.81,233.026"
     id="polyline20" />
  <polyline
     class=""
     stroke="#000000"
     stroke-width="2.73"
     stroke-linejoin="bevel"
     points="1582.31,257.829 2644.81,257.829"
     id="polyline22" />
  <polyline
     class=""
     stroke="#000000"
     stroke-width="2.73"
     stroke-linejoin="bevel"
     points="1582.31,282.632 2644.81,282.632"
     id="polyline24" />
  <polyline
     class=""
     stroke="#000000"
     stroke-width="2.73"
     stroke-linejoin="bevel"
     points="24.079,183.419 1582.31,183.419"
     id="polyline26" />
  <polyline
     class=""
     stroke="#000000"
     stroke-width="2.73"
     stroke-linejoin="bevel"
     points="24.079,208.222 1582.31,208.222"
     id="polyline28" />
  <polyline
     class=""
     stroke="#000000"
     stroke-width="2.73"
     stroke-linejoin="bevel"
     points="24.079,233.026 1582.31,233.026"
     id="polyline30" />
  <polyline
     class=""
     stroke="#000000"
     stroke-width="2.73"
     stroke-linejoin="bevel"
     points="24.079,257.829 1582.31,257.829"
     id="polyline32" />
  <polyline
     class=""
     stroke="#000000"
     stroke-width="2.73"
     stroke-linejoin="bevel"
     points="24.079,282.632 1582.31,282.632"
     id="polyline34" />
  <polyline
     class=""
     stroke="#000000"
     stroke-width="3.97"
     stroke-linejoin="bevel"
     points="1416.2,158.616 1465.8,158.616"
     id="polyline36" />
  <polyline
     class=""
     stroke="#000000"
     stroke-width="2.73"
     stroke-linejoin="bevel"
     points="2259.1,199.154 2259.1,276.431"
     id="polyline38" />
  <polyline
     class=""
     stroke="#000000"
     stroke-width="2.73"
     stroke-linejoin="bevel"
     points="2378.66,211.556 2378.66,291.933"
     id="polyline40" />
  <polyline
     class=""
     stroke="#000000"
     stroke-width="2.73"
     stroke-linejoin="bevel"
     points="2139.53,186.753 2139.53,276.431"
     id="polyline42" />
  <polyline
     class=""
     stroke="#000000"
     stroke-width="2.73"
     stroke-linejoin="bevel"
     points="1948.22,174.351 1948.22,276.431"
     id="polyline44" />
  <polyline
     class=""
     stroke="#000000"
     stroke-width="2.73"
     stroke-linejoin="bevel"
     points="1613.43,174.351 1613.43,257.829"
     id="polyline46" />
  <polyline
     class=""
     stroke="#000000"
     stroke-width="2.73"
     stroke-linejoin="bevel"
     points="1273.28,236.359 1273.28,307.435"
     id="polyline48" />
  <polyline
     class=""
     stroke="#000000"
     stroke-width="2.73"
     stroke-linejoin="bevel"
     points="1426.24,149.548 1426.24,307.435"
     id="polyline50" />
  <polyline
     class=""
     stroke="#000000"
     stroke-width="2.73"
     stroke-linejoin="bevel"
     points="1116.48,211.556 1116.48,301.234"
     id="polyline52" />
  <polyline
     class=""
     stroke="#000000"
     stroke-width="2.73"
     stroke-linejoin="bevel"
     points="1194.88,223.958 1194.88,301.234"
     id="polyline54" />
  <polyline
     class=""
     stroke="#000000"
     stroke-width="2.73"
     stroke-linejoin="bevel"
     points="885.112,211.556 885.112,301.234"
     id="polyline56" />
  <polyline
     class=""
     stroke="#000000"
     stroke-width="2.73"
     stroke-linejoin="bevel"
     points="1038.07,199.154 1038.07,301.234"
     id="polyline58" />
  <polyline
     class=""
     stroke="#000000"
     stroke-width="2.73"
     stroke-linejoin="bevel"
     points="779.192,199.154 779.192,276.431"
     id="polyline60" />
  <polyline
     class=""
     stroke="#000000"
     stroke-width="2.73"
     stroke-linejoin="bevel"
     points="520.31,174.351 520.31,276.431"
     id="polyline62" />
  <polyline
     class=""
     stroke="#000000"
     stroke-width="2.73"
     stroke-linejoin="bevel"
     points="673.272,186.753 673.272,276.431"
     id="polyline64" />
  <polyline
     class=""
     stroke="#000000"
     stroke-width="2.73"
     stroke-linejoin="bevel"
     points="320.306,174.351 320.306,257.829"
     id="polyline66" />
  <path
     class=""
     transform="matrix(0.992126,0,0,0.992126,2257.73,195.821)"
     d="M31.5,-8.09375 C29.7031,-11.4063 25.9063,-13.2031 21.2969,-13.2031 C17.9063,-13.2031 14.2031,-12.2031 10.5938,-10.2969 C4,-6.79688 0,-0.90625 0,4.20313 C0,5.59375 0.296875,7 1,8.29688 C2.79688,11.5938 6.59375,13.2969 11.2031,13.2969 C14.5938,13.2969 18.2969,12.4063 21.9063,10.5 C28.5,7 32.5,1.09375 32.5,-4 C32.5,-5.40625 32.2031,-6.79688 31.5,-8.09375"
     id="path68" />
  <path
     class=""
     transform="matrix(0.992126,0,0,0.992126,2377.3,208.222)"
     d="M31.5,-8.09375 C29.7031,-11.4063 25.9063,-13.2031 21.2969,-13.2031 C17.9063,-13.2031 14.2031,-12.2031 10.5938,-10.2969 C4,-6.79688 0,-0.90625 0,4.20313 C0,5.59375 0.296875,7 1,8.29688 C2.79688,11.5938 6.59375,13.2969 11.2031,13.2969 C14.5938,13.2969 18.2969,12.4063 21.9063,10.5 C28.5,7 32.5,1.09375 32.5,-4 C32.5,-5.40625 32.2031,-6.79688 31.5,-8.09375"
     id="path70" />
  <path
     class=""
     transform="matrix(0.992126,0,0,0.992126,2138.17,183.419)"
     d="M31.5,-8.09375 C29.7031,-11.4063 25.9063,-13.2031 21.2969,-13.2031 C17.9063,-13.2031 14.2031,-12.2031 10.5938,-10.2969 C4,-6.79688 0,-0.90625 0,4.20313 C0,5.59375 0.296875,7 1,8.29688 C2.79688,11.5938 6.59375,13.2969 11.2031,13.2969 C14.5938,13.2969 18.2969,12.4063 21.9063,10.5 C28.5,7 32.5,1.09375 32.5,-4 C32.5,-5.40625 32.2031,-6.79688 31.5,-8.09375"
     id="path72" />
  <path
     class=""
     transform="matrix(0.992126,0,0,0.992126,1946.86,171.018)"
     d="M31.5,-8.09375 C29.7031,-11.4063 25.9063,-13.2031 21.2969,-13.2031 C17.9063,-13.2031 14.2031,-12.2031 10.5938,-10.2969 C4,-6.79688 0,-0.90625 0,4.20313 C0,5.59375 0.296875,7 1,8.29688 C2.79688,11.5938 6.59375,13.2969 11.2031,13.2969 C14.5938,13.2969 18.2969,12.4063 21.9063,10.5 C28.5,7 32.5,1.09375 32.5,-4 C32.5,-5.40625 32.2031,-6.79688 31.5,-8.09375"
     id="path74" />
  <path
     class=""
     transform="matrix(0.992126,0,0,0.992126,1612.07,171.018)"
     d="M31.5,-8.14063 C29.7031,-11.4375 25.9063,-13.2344 21.2969,-13.2344 C17.9063,-13.2344 14.2031,-12.2344 10.5938,-10.3438 C4,-6.84375 0,-0.9375 0,4.15625 C0,5.5625 0.296875,6.96875 1,8.26563 C2.79688,11.5781 6.59375,13.2813 11.2031,13.2813 C14.5938,13.2813 18.2969,12.375 21.9063,10.4844 C28.5,6.96875 32.5,1.0625 32.5,-4.04688 C32.5,-5.4375 32.2031,-6.84375 31.5,-8.14063 M27.2031,-1.34375 C25.5,0.359375 22.0938,2.45313 18.5,4.46875 C14.9063,6.46875 11.2969,7.96875 8.90625,8.46875 C8.40625,8.57813 7.90625,8.67188 7.40625,8.67188 C5.79688,8.67188 4.59375,8.07813 3.90625,6.76563 C3.59375,6.26563 3.40625,5.67188 3.40625,5.0625 C3.40625,3.96875 4.09375,2.65625 5.20313,1.5625 C6.90625,-0.140625 10.2031,-2.23438 13.7969,-4.23438 C17.4063,-6.23438 21,-7.73438 23.4063,-8.23438 C23.9063,-8.34375 24.4063,-8.4375 24.9063,-8.4375 C26.5,-8.4375 27.7969,-7.84375 28.5,-6.54688 C28.7969,-6.04688 28.9063,-5.4375 28.9063,-4.84375 C28.9063,-3.73438 28.2969,-2.54688 27.2031,-1.34375"
     id="path76" />
  <path
     class=""
     transform="matrix(0.992126,0,0,0.992126,1271.92,233.026)"
     d="M31.5,-8.09375 C29.7031,-11.4063 25.9063,-13.2031 21.2969,-13.2031 C17.9063,-13.2031 14.2031,-12.2031 10.5938,-10.2969 C4,-6.79688 0,-0.90625 0,4.20313 C0,5.59375 0.296875,7 1,8.29688 C2.79688,11.5938 6.59375,13.2969 11.2031,13.2969 C14.5938,13.2969 18.2969,12.4063 21.9063,10.5 C28.5,7 32.5,1.09375 32.5,-4 C32.5,-5.40625 32.2031,-6.79688 31.5,-8.09375"
     id="path78" />
  <path
     class=""
     transform="matrix(0.992126,0,0,0.992126,1424.88,146.215)"
     d="M31.5,-8.09375 C29.7031,-11.4063 25.9063,-13.2031 21.2969,-13.2031 C17.9063,-13.2031 14.2031,-12.2031 10.5938,-10.2969 C4,-6.79688 0,-0.90625 0,4.20313 C0,5.59375 0.296875,7 1,8.29688 C2.79688,11.5938 6.59375,13.2969 11.2031,13.2969 C14.5938,13.2969 18.2969,12.4063 21.9063,10.5 C28.5,7 32.5,1.09375 32.5,-4 C32.5,-5.40625 32.2031,-6.79688 31.5,-8.09375"
     id="path80" />
  <path
     class=""
     transform="matrix(0.992126,0,0,0.992126,1115.11,208.222)"
     d="M31.5,-8.09375 C29.7031,-11.4063 25.9063,-13.2031 21.2969,-13.2031 C17.9063,-13.2031 14.2031,-12.2031 10.5938,-10.2969 C4,-6.79688 0,-0.90625 0,4.20313 C0,5.59375 0.296875,7 1,8.29688 C2.79688,11.5938 6.59375,13.2969 11.2031,13.2969 C14.5938,13.2969 18.2969,12.4063 21.9063,10.5 C28.5,7 32.5,1.09375 32.5,-4 C32.5,-5.40625 32.2031,-6.79688 31.5,-8.09375"
     id="path82" />
  <path
     class=""
     transform="matrix(0.992126,0,0,0.992126,1193.52,220.624)"
     d="M31.5,-8.09375 C29.7031,-11.4063 25.9063,-13.2031 21.2969,-13.2031 C17.9063,-13.2031 14.2031,-12.2031 10.5938,-10.2969 C4,-6.79688 0,-0.90625 0,4.20313 C0,5.59375 0.296875,7 1,8.29688 C2.79688,11.5938 6.59375,13.2969 11.2031,13.2969 C14.5938,13.2969 18.2969,12.4063 21.9063,10.5 C28.5,7 32.5,1.09375 32.5,-4 C32.5,-5.40625 32.2031,-6.79688 31.5,-8.09375"
     id="path84" />
  <path
     class=""
     transform="matrix(0.992126,0,0,0.992126,883.748,208.222)"
     d="M31.5,-8.09375 C29.7031,-11.4063 25.9063,-13.2031 21.2969,-13.2031 C17.9063,-13.2031 14.2031,-12.2031 10.5938,-10.2969 C4,-6.79688 0,-0.90625 0,4.20313 C0,5.59375 0.296875,7 1,8.29688 C2.79688,11.5938 6.59375,13.2969 11.2031,13.2969 C14.5938,13.2969 18.2969,12.4063 21.9063,10.5 C28.5,7 32.5,1.09375 32.5,-4 C32.5,-5.40625 32.2031,-6.79688 31.5,-8.09375"
     id="path86" />
  <path
     class=""
     transform="matrix(0.992126,0,0,0.992126,1036.71,195.821)"
     d="M31.5,-8.09375 C29.7031,-11.4063 25.9063,-13.2031 21.2969,-13.2031 C17.9063,-13.2031 14.2031,-12.2031 10.5938,-10.2969 C4,-6.79688 0,-0.90625 0,4.20313 C0,5.59375 0.296875,7 1,8.29688 C2.79688,11.5938 6.59375,13.2969 11.2031,13.2969 C14.5938,13.2969 18.2969,12.4063 21.9063,10.5 C28.5,7 32.5,1.09375 32.5,-4 C32.5,-5.40625 32.2031,-6.79688 31.5,-8.09375"
     id="path88" />
  <path
     class=""
     transform="matrix(0.992126,0,0,0.992126,777.828,195.821)"
     d="M31.5,-8.09375 C29.7031,-11.4063 25.9063,-13.2031 21.2969,-13.2031 C17.9063,-13.2031 14.2031,-12.2031 10.5938,-10.2969 C4,-6.79688 0,-0.90625 0,4.20313 C0,5.59375 0.296875,7 1,8.29688 C2.79688,11.5938 6.59375,13.2969 11.2031,13.2969 C14.5938,13.2969 18.2969,12.4063 21.9063,10.5 C28.5,7 32.5,1.09375 32.5,-4 C32.5,-5.40625 32.2031,-6.79688 31.5,-8.09375"
     id="path90" />
  <path
     class=""
     transform="matrix(0.992126,0,0,0.992126,518.945,171.018)"
     d="M31.5,-8.09375 C29.7031,-11.4063 25.9063,-13.2031 21.2969,-13.2031 C17.9063,-13.2031 14.2031,-12.2031 10.5938,-10.2969 C4,-6.79688 0,-0.90625 0,4.20313 C0,5.59375 0.296875,7 1,8.29688 C2.79688,11.5938 6.59375,13.2969 11.2031,13.2969 C14.5938,13.2969 18.2969,12.4063 21.9063,10.5 C28.5,7 32.5,1.09375 32.5,-4 C32.5,-5.40625 32.2031,-6.79688 31.5,-8.09375"
     id="path92" />
  <path
     class=""
     transform="matrix(0.992126,0,0,0.992126,671.907,183.419)"
     d="M31.5,-8.09375 C29.7031,-11.4063 25.9063,-13.2031 21.2969,-13.2031 C17.9063,-13.2031 14.2031,-12.2031 10.5938,-10.2969 C4,-6.79688 0,-0.90625 0,4.20313 C0,5.59375 0.296875,7 1,8.29688 C2.79688,11.5938 6.59375,13.2969 11.2031,13.2969 C14.5938,13.2969 18.2969,12.4063 21.9063,10.5 C28.5,7 32.5,1.09375 32.5,-4 C32.5,-5.40625 32.2031,-6.79688 31.5,-8.09375"
     id="path94" />
  <path
     class=""
     transform="matrix(0.992126,0,0,0.992126,318.942,171.018)"
     d="M31.5,-8.09375 C29.7031,-11.4063 25.9063,-13.2031 21.2969,-13.2031 C17.9063,-13.2031 14.2031,-12.2031 10.5938,-10.2969 C4,-6.79688 0,-0.90625 0,4.20313 C0,5.59375 0.296875,7 1,8.29688 C2.79688,11.5938 6.59375,13.2969 11.2031,13.2969 C14.5938,13.2969 18.2969,12.4063 21.9063,10.5 C28.5,7 32.5,1.09375 32.5,-4 C32.5,-5.40625 32.2031,-6.79688 31.5,-8.09375"
     id="path96" />
  <path
     class=""
     transform="matrix(0.992126,0,0,0.992126,39.953,257.829)"
     d="M63.3594,-5.92188 C62.125,-11.3438 59.4844,-15.1719 58.7031,-16.2031 C55.5156,-20.4844 51.5,-23.3281 46.8125,-24.6875 C43.7031,-25.5625 40.7031,-25.6875 38.2813,-25.5 C37.2344,-31.5156 36.2344,-37.3906 35.3281,-42.8438 C40.7813,-49.0156 44.4063,-54.8125 46.6875,-59.1094 C50.1563,-65.6875 51.2969,-70.2656 51.3594,-70.4688 C53.0781,-75.6875 53.4375,-83.3906 52.3281,-91.5938 C51.3281,-99.1406 49.2344,-105.859 46.875,-109.109 C45.8594,-110.531 44.7969,-111.266 43.7656,-111.266 C42.5469,-111.266 40.0313,-110.031 37.1406,-107.25 C34.8438,-105.063 31.5781,-101.172 29.0156,-95.1563 C26.0156,-88.0938 25.7969,-78.6094 26.1563,-71.8906 C26.5313,-64.6094 27.6406,-58.9219 27.6563,-58.875 C27.6719,-58.7813 27.9375,-57.2813 28.375,-54.7188 C28.1563,-54.4844 27.9063,-54.2656 27.6563,-54.0156 C26.625,-53.0156 25.4375,-51.8906 24.0469,-50.5 C23.1875,-49.6406 22.2344,-48.7344 21.2344,-47.7656 C12.7969,-39.625 0,-27.2969 0,-8.14063 C0,-3.4375 0.90625,0.984375 2.6875,5 C4.26563,8.59375 6.5625,11.875 9.5,14.75 C17.2344,22.3125 27.8281,25.5156 34.875,25.3594 C37.8281,25.2813 40.4688,25.0469 42.8594,24.5938 C44.6875,34.2031 45.8281,41.2344 45.8594,46.5781 C45.9063,53.0938 44.25,57.0781 40.3594,59.8438 C37.9219,61.5781 35.1094,62.5313 32.0156,62.6719 C29.4219,62.7969 27.1563,62.3281 25.7344,61.9219 L25.7188,61.9219 C25.7188,61.9219 25.4375,61.8281 25.4219,61.6406 C25.4063,61.4531 25.7656,61.4063 25.7656,61.4063 L25.7969,61.4063 C27.7188,60.9688 31.2813,59.7344 33.6406,56.4375 C35.4375,53.9063 36.3125,49.2813 34.4688,45.3438 C33.3594,42.9531 30.8594,40 25.2344,39.5469 C22.7344,39.3438 20.4688,39.8594 18.4688,41.0625 C16.6563,42.1406 15.1563,43.7813 14.1094,45.7813 C11.6563,50.4844 12.1094,56.2188 15.2344,60.0625 C18.2031,63.6875 22.8125,66 28.25,66.5781 C29.1094,66.6719 29.9531,66.7031 30.7969,66.7031 C35.2344,66.7031 39.625,65.5 43.2031,63.2969 C46.8594,60.7188 48.9844,56.7344 49.6563,51.1094 C50.2188,46.4688 49.8281,40.5469 48.4375,32.4688 C48.0781,30.375 47.5313,27.3438 46.875,23.5938 C52.625,21.6719 56.7813,18.0938 60.5469,12.2344 C63.8438,6.5 64.7813,0.390625 63.3594,-5.92188 M29.1406,20.2969 C24.5,19.0781 20.0625,16.5781 16.3125,13.0625 C15,11.8438 13.125,9.67188 11.6563,6.28125 C10.2969,3.10938 9.625,-0.328125 9.6875,-3.90625 C9.75,-8.60938 11.0625,-13.4375 13.5625,-18.2188 C16.4844,-23.7969 21.0469,-29.3281 27.1094,-34.6563 C28.5625,-35.9375 29.9375,-37.2188 31.2188,-38.5 C31.9844,-34.2344 32.8125,-29.5469 33.6875,-24.6719 C29.8438,-23.4063 25.0938,-20.25 21.9844,-14.5938 C18.4375,-8.03125 18.5781,-2.5 19.3125,0.984375 C20.25,5.4375 22.7813,9.20313 26.2344,11.2969 C27.1719,11.8594 31.2969,13.9844 33.1406,13.4063 C33.5156,13.2969 33.7813,13.0625 33.9219,12.7344 C34.4375,11.5625 33.4063,10.9219 31.8594,9.96875 C31.25,9.59375 30.5781,9.17188 29.8594,8.64063 C26.5313,6.15625 25.0781,1.70313 26.1563,-2.6875 C26.7344,-5.07813 28.0156,-7.25 29.8594,-8.95313 C31.5156,-10.5 33.5625,-11.5938 35.9375,-12.2344 C37.9844,-0.984375 40.0469,10.1719 41.6875,18.5313 C41.8125,19.2188 41.9531,19.8906 42.0781,20.5625 C37.7031,21.5 33.3594,21.4063 29.1406,20.2969 M40.4688,-12.9063 C50.8125,-13.375 55.0781,-5.9375 55.9688,-1.10938 C56.4375,1.4375 56.4375,5.875 54.8906,10.0938 C53.7188,13.2656 51.2656,17.3438 46.125,19.4063 C46.0625,18.9844 45.9844,18.5469 45.9063,18.125 C44.3594,9.34375 42.4219,-1.65625 40.4688,-12.9063 M33.1406,-83.8594 C34.9219,-89.5938 37.6563,-92.8438 39.6563,-94.5781 C41.4063,-96.0938 43.0469,-96.8125 43.9688,-96.8125 C44.1094,-96.8125 44.2344,-96.7813 44.3281,-96.75 C44.7969,-96.6094 45.3281,-96.0469 45.7969,-95.1719 C48.1094,-90.8906 47.3594,-84.1719 46.0156,-79.7344 C44.3906,-74.3281 41.4688,-68.7188 32.6719,-59.1094 C32.5,-60.2188 32.3438,-61.2656 32.1875,-62.25 C30.9375,-70.5313 31.2656,-77.8125 33.1406,-83.8594"
     id="path98" />
  <path
     class=""
     transform="matrix(0.992126,0,0,0.992126,177.843,171.018)"
     d="M23.2969,-10.5938 C23.9063,-10.7031 24.4063,-11.4063 24.4063,-12 L24.4063,-17.9063 C24.4063,-18.7031 23.7969,-19.2969 23,-19.2969 L22.7969,-19.2969 L19.5,-18.5938 L19.5,-33.5 L16.7031,-33.5 L16.7031,-18 L7.79688,-16.2031 L7.79688,-30.2969 L5,-30.2969 L5,-15.5938 L1.09375,-14.7969 C0.5,-14.7031 0,-14 0,-13.4063 L0,-13.2031 L0,-7.40625 L0,-7.59375 C0,-6.79688 0.59375,-6.20313 1.40625,-6.20313 L1.70313,-6.20313 L5,-6.90625 L5,9.59375 L1.09375,10.4063 C0.5,10.5 0,11.2031 0,11.7969 L0,17.5938 C0,18.4063 0.59375,19 1.40625,19 L1.70313,19 L5,18.2969 L5,33.2031 L7.79688,33.2031 L7.79688,17.7031 L16.7031,15.9063 L16.7031,30 L19.5,30 L19.5,15.2969 L23.2969,14.5938 C23.9063,14.5 24.4063,13.7969 24.4063,13.2031 L24.4063,7.29688 C24.4063,6.5 23.7969,5.90625 23,5.90625 L22.7969,5.90625 L19.5,6.59375 L19.5,-9.90625 L23.2969,-10.5938 M7.79688,9.09375 L7.79688,-7.5 L16.7031,-9.29688 L16.7031,7.20313 L7.79688,9.09375 "
     id="path100" />
  <path
     class=""
     transform="matrix(0.992126,0,0,0.992126,153.04,220.624)"
     d="M23.2969,-10.5938 C23.9063,-10.7031 24.4063,-11.4063 24.4063,-12 L24.4063,-17.9063 C24.4063,-18.7031 23.7969,-19.2969 23,-19.2969 L22.7969,-19.2969 L19.5,-18.5938 L19.5,-33.5 L16.7031,-33.5 L16.7031,-18 L7.79688,-16.2031 L7.79688,-30.2969 L5,-30.2969 L5,-15.5938 L1.09375,-14.7969 C0.5,-14.7031 0,-14 0,-13.4063 L0,-13.2031 L0,-7.40625 L0,-7.59375 C0,-6.79688 0.59375,-6.20313 1.40625,-6.20313 L1.70313,-6.20313 L5,-6.90625 L5,9.59375 L1.09375,10.4063 C0.5,10.5 0,11.2031 0,11.7969 L0,17.5938 C0,18.4063 0.59375,19 1.40625,19 L1.70313,19 L5,18.2969 L5,33.2031 L7.79688,33.2031 L7.79688,17.7031 L16.7031,15.9063 L16.7031,30 L19.5,30 L19.5,15.2969 L23.2969,14.5938 C23.9063,14.5 24.4063,13.7969 24.4063,13.2031 L24.4063,7.29688 C24.4063,6.5 23.7969,5.90625 23,5.90625 L22.7969,5.90625 L19.5,6.59375 L19.5,-9.90625 L23.2969,-10.5938 M7.79688,9.09375 L7.79688,-7.5 L16.7031,-9.29688 L16.7031,7.20313 L7.79688,9.09375 "
     id="path102" />
  <path
     class=""
     transform="matrix(0.992126,0,0,0.992126,128.237,183.419)"
     d="M23.2969,-10.5938 C23.9063,-10.7031 24.4063,-11.4063 24.4063,-12 L24.4063,-17.9063 C24.4063,-18.7031 23.7969,-19.2969 23,-19.2969 L22.7969,-19.2969 L19.5,-18.5938 L19.5,-33.5 L16.7031,-33.5 L16.7031,-18 L7.79688,-16.2031 L7.79688,-30.2969 L5,-30.2969 L5,-15.5938 L1.09375,-14.7969 C0.5,-14.7031 0,-14 0,-13.4063 L0,-13.2031 L0,-7.40625 L0,-7.59375 C0,-6.79688 0.59375,-6.20313 1.40625,-6.20313 L1.70313,-6.20313 L5,-6.90625 L5,9.59375 L1.09375,10.4063 C0.5,10.5 0,11.2031 0,11.7969 L0,17.5938 C0,18.4063 0.59375,19 1.40625,19 L1.70313,19 L5,18.2969 L5,33.2031 L7.79688,33.2031 L7.79688,17.7031 L16.7031,15.9063 L16.7031,30 L19.5,30 L19.5,15.2969 L23.2969,14.5938 C23.9063,14.5 24.4063,13.7969 24.4063,13.2031 L24.4063,7.29688 C24.4063,6.5 23.7969,5.90625 23,5.90625 L22.7969,5.90625 L19.5,6.59375 L19.5,-9.90625 L23.2969,-10.5938 M7.79688,9.09375 L7.79688,-7.5 L16.7031,-9.29688 L16.7031,7.20313 L7.79688,9.09375 "
     id="path104" />
  <path
     class=""
     transform="matrix(0.992126,0,0,0.992126,225.488,208.354)"
     d="M3.59375,12.625 L20.7656,12.625 L20.7656,20.0781 L12.5469,20.0781 C11.7656,20.0781 11.125,20.7031 11.125,21.4844 L11.125,23.3906 C11.125,24.1719 11.7656,24.7969 12.5469,24.7969 L42.7969,24.7969 C43.5781,24.7969 44.2031,24.1719 44.2031,23.3906 L44.2031,21.4844 C44.2031,20.7031 43.5781,20.0781 42.7969,20.0781 L33.8594,20.0781 L33.8594,12.625 L42.7969,12.625 C43.5781,12.625 44.2031,12 44.2031,11.2188 L44.2031,9.3125 C44.2031,8.53125 43.5781,7.90625 42.7969,7.90625 L33.8594,7.90625 L33.8594,-8.0625 C33.8594,-8.59375 33.5469,-9.07813 33.0781,-9.3125 L31.8594,-9.92188 C31.3281,-10.1719 30.7031,-10.0781 30.2656,-9.6875 L21.2188,-1.375 C20.9375,-1.09375 20.7656,-0.734375 20.7656,-0.328125 L20.7656,7.90625 L9.25,7.90625 C9.25,7.90625 20.375,-4.125 32.2188,-19.8906 C33.0781,-21.0469 32.5781,-22.0938 32.3906,-22.2813 L30.2188,-24.4844 C29.9531,-24.75 29.5938,-24.9063 29.2188,-24.9063 C28.625,-24.9063 15.0625,-24.875 14.3438,-24.9063 C13.625,-24.9219 13.0938,-24.2969 13.0156,-23.6875 C13.0156,-23.6875 12.4844,-16.3281 9.875,-8.1875 C7.28125,-0.078125 4.34375,4.90625 1.6875,8.53125 C1.6875,8.53125 1.14063,9.51563 1.5,10.2656 C1.84375,11.0156 2.48438,12.0938 2.48438,12.0938 C2.48438,12.0938 2.73438,12.625 3.59375,12.625"
     id="path106" />
  <path
     class=""
     transform="matrix(0.992126,0,0,0.992126,225.488,257.697)"
     d="M3.59375,12.625 L20.7656,12.625 L20.7656,20.0781 L12.5469,20.0781 C11.7656,20.0781 11.125,20.7031 11.125,21.4844 L11.125,23.3906 C11.125,24.1719 11.7656,24.7969 12.5469,24.7969 L42.7969,24.7969 C43.5781,24.7969 44.2031,24.1719 44.2031,23.3906 L44.2031,21.4844 C44.2031,20.7031 43.5781,20.0781 42.7969,20.0781 L33.8594,20.0781 L33.8594,12.625 L42.7969,12.625 C43.5781,12.625 44.2031,12 44.2031,11.2188 L44.2031,9.3125 C44.2031,8.53125 43.5781,7.90625 42.7969,7.90625 L33.8594,7.90625 L33.8594,-8.0625 C33.8594,-8.59375 33.5469,-9.07813 33.0781,-9.3125 L31.8594,-9.92188 C31.3281,-10.1719 30.7031,-10.0781 30.2656,-9.6875 L21.2188,-1.375 C20.9375,-1.09375 20.7656,-0.734375 20.7656,-0.328125 L20.7656,7.90625 L9.25,7.90625 C9.25,7.90625 20.375,-4.125 32.2188,-19.8906 C33.0781,-21.0469 32.5781,-22.0938 32.3906,-22.2813 L30.2188,-24.4844 C29.9531,-24.75 29.5938,-24.9063 29.2188,-24.9063 C28.625,-24.9063 15.0625,-24.875 14.3438,-24.9063 C13.625,-24.9219 13.0938,-24.2969 13.0156,-23.6875 C13.0156,-23.6875 12.4844,-16.3281 9.875,-8.1875 C7.28125,-0.078125 4.34375,4.90625 1.6875,8.53125 C1.6875,8.53125 1.14063,9.51563 1.5,10.2656 C1.84375,11.0156 2.48438,12.0938 2.48438,12.0938 C2.48438,12.0938 2.73438,12.625 3.59375,12.625"
     id="path108" />
  <path
     class=""
     d="M305.048,398.782 L328.532,398.782 L328.532,396.641 L320.61,396.641 L326.72,379.86 L326.985,380.579 C326.985,380.579 328.095,383.001 331.61,383.876 C332.267,384.048 332.923,384.094 333.595,384.094 C339.314,384.094 345.189,378.157 347.329,369.751 C347.939,367.438 348.157,365.516 348.157,363.86 C348.157,356.876 343.814,355.063 342.22,354.673 C341.782,354.563 341.282,354.516 340.845,354.516 C337.61,354.516 334.298,357.204 332.548,358.969 L332.267,359.298 L332.11,358.907 C332.11,358.86 329.907,355.001 326.22,354.454 C325.829,354.407 325.454,354.344 325.064,354.344 C321.595,354.344 317.97,356.766 315.001,365.344 L316.876,366.282 C317.314,364.907 318.47,361.61 319.673,359.954 C320.282,359.016 321.439,358.141 322.423,357.985 C322.923,357.86 323.298,357.985 323.642,358.204 C324.017,358.469 324.189,359.016 324.189,359.798 C324.189,362.329 322.376,366.829 321.876,367.876 L311.485,396.641 L305.048,396.641 L305.048,398.782 M331.392,380.532 C331.173,380.532 330.845,380.469 330.626,380.407 C329.079,379.813 328.642,378.001 328.642,375.954 C328.642,372.719 329.845,368.923 329.907,368.641 C330.892,364.688 333.814,360.282 336.564,358.751 C337.267,358.313 337.985,358.141 338.595,358.141 C338.86,358.141 339.142,358.141 339.423,358.251 C339.86,358.36 340.189,358.751 340.407,359.188 C340.735,359.798 340.845,360.61 340.845,361.548 C340.845,364.36 339.751,368.157 339.142,370.016 C337.829,374.094 335.235,378.985 332.595,380.251 C332.267,380.407 331.72,380.532 331.392,380.532"
     id="path110" />
  <path
     class=""
     fill-rule="evenodd"
     d="M1946.86,267.75 L2260.46,267.75 L2260.46,285.112 L1946.86,285.112 L1946.86,267.75 "
     id="path112" />
  <path
     class=""
     fill-rule="evenodd"
     d="M2138.17,238.234 L2260.46,238.234 L2260.46,255.596 L2138.17,255.596 L2138.17,238.234 "
     id="path114" />
  <path
     class=""
     fill-rule="evenodd"
     d="M1271.92,298.754 L1427.61,298.754 L1427.61,316.116 L1271.92,316.116 L1271.92,298.754 "
     id="path116" />
  <path
     class=""
     fill-rule="evenodd"
     d="M883.748,292.553 L1196.24,292.553 L1196.24,309.915 L883.748,309.915 L883.748,292.553 "
     id="path118" />
  <path
     class=""
     fill-rule="evenodd"
     d="M1036.71,263.037 L1196.24,263.037 L1196.24,280.4 L1036.71,280.4 L1036.71,263.037 "
     id="path120" />
  <path
     class=""
     fill-rule="evenodd"
     d="M518.945,267.75 L780.556,267.75 L780.556,285.112 L518.945,285.112 L518.945,267.75 "
     id="path122" />
  <path
     class=""
     fill-rule="evenodd"
     d="M671.907,238.234 L780.556,238.234 L780.556,255.596 L671.907,255.596 L671.907,238.234 "
     id="path124" />
  <path
     class=""
     d="M1110.1,341.334 C1111.24,340.819 1111.82,339.475 1111.32,338.319 C1111.24,338.131 1111.18,337.944 1111.18,337.819 C1111.11,337.116 1112.33,335.569 1114.57,335.444 C1117.19,335.319 1118.53,335.506 1118.8,339.225 C1118.93,341.647 1115.08,342.616 1114.07,342.741 C1112.78,342.991 1112.02,344.147 1112.14,345.303 C1112.27,346.522 1113.49,347.287 1114.44,347.35 C1115.35,347.35 1120.46,347.537 1120.97,351.959 C1121.03,352.272 1121.1,352.6 1121.1,352.912 C1121.36,357.772 1119.24,359.381 1115.14,359.569 C1113.8,359.631 1112.58,359.256 1111.69,358.678 C1110.03,357.584 1109.46,356.053 1110.68,354.194 C1111.38,353.178 1111.05,351.694 1110.03,350.991 C1109,350.287 1107.6,350.616 1106.89,351.631 C1104.14,355.787 1105.74,360.272 1109.13,362.522 C1110.86,363.662 1113.1,364.303 1115.41,364.178 C1121.43,363.866 1126.03,360.022 1125.64,352.662 C1125.64,352.209 1125.64,351.834 1125.58,351.381 C1125.19,347.991 1123.35,345.819 1121.16,344.475 C1122.44,343.256 1123.47,341.334 1123.35,338.959 C1122.96,332.444 1118.35,330.584 1114.32,330.834 C1110.8,331.022 1106.25,333.584 1106.57,338.131 C1106.64,338.772 1106.83,339.537 1107.08,340.178 C1107.6,341.334 1108.94,341.85 1110.1,341.334"
     id="path126" />
  <polyline
     class=""
     fill="none"
     stroke="#000000"
     stroke-width="2.48"
     stroke-linecap="square"
     stroke-linejoin="bevel"
     points="1024.31,323.557 1024.31,348.36 1091.21,347.907"
     id="polyline128" />
  <polyline
     class=""
     fill="none"
     stroke="#000000"
     stroke-width="2.48"
     stroke-linecap="square"
     stroke-linejoin="bevel"
     points="1139.01,347.583 1225.75,346.996 1225.75,322.193"
     id="polyline130" />
  <path
     class=""
     d="M269.323,11.1471 L265.526,11.1471 L265.526,62.8815 C264.23,62.1002 262.636,61.6159 260.808,61.4284 C260.308,61.3659 259.792,61.3502 259.276,61.3502 C256.136,61.3502 252.776,62.2409 249.62,63.944 C245.948,65.9284 243.026,68.7565 241.37,71.9127 C239.714,75.0846 239.542,78.2096 240.886,80.694 C242.48,83.6471 245.933,85.194 250.026,85.194 C253.073,85.194 256.448,84.3346 259.698,82.6002 C265.605,79.3971 269.292,74.1315 269.323,69.5221 L269.323,11.1471 "
     id="path132" />
  <path
     class=""
     d="M331.23,54.8346 L293.136,54.8346 L293.136,48.2096 L331.23,48.2096 L331.23,54.8346 M331.23,71.6784 L293.136,71.6784 L293.136,65.0534 L331.23,65.0534 L331.23,71.6784 M381.183,60.0846 L385.526,60.0846 L385.526,67.7409 L381.183,67.7409 L381.183,77.6784 L371.167,77.6784 L371.167,67.7409 L354.058,67.7409 L354.058,59.944 C357.787,54.0586 363.631,45.9179 371.589,35.5221 L375.651,30.2096 L381.183,30.2096 L381.183,60.0846 M371.308,60.0846 L371.308,39.5846 L356.886,60.0846 L371.308,60.0846 M388.901,54.2252 C388.901,47.4544 390.396,41.7591 393.386,37.1393 C396.375,32.5195 400.079,30.2096 404.495,30.2096 C408.964,30.2096 412.68,32.5195 415.644,37.1393 C418.607,41.7591 420.089,47.5221 420.089,54.4284 C420.089,61.3763 418.618,67.1367 415.675,71.7096 C412.732,76.2825 409.032,78.569 404.573,78.569 C399.969,78.569 396.206,76.2929 393.284,71.7409 C390.362,67.1888 388.901,61.3502 388.901,54.2252 M404.573,76.6471 C406.084,76.6471 407.23,75.6106 408.011,73.5377 C408.792,71.4648 409.183,67.7409 409.183,62.3659 L409.183,46.5534 C409.183,41.4492 408.816,37.7695 408.081,35.5143 C407.347,33.2591 406.131,32.1315 404.433,32.1315 C402.776,32.1315 401.592,33.2356 400.878,35.444 C400.164,37.6523 399.808,41.3554 399.808,46.5534 L399.808,62.3659 C399.808,67.47 400.175,71.1263 400.909,73.3346 C401.644,75.5429 402.865,76.6471 404.573,76.6471"
     id="path134" />
  <path
     class=""
     d="M387.792,395.022 C385.949,398.209 383.589,400.819 382.589,400.819 C382.183,400.819 381.839,400.365 381.839,399.912 C381.839,399.569 382.246,397.959 382.886,395.819 L386.386,384.022 L392.089,384.022 L392.996,380.959 L387.292,380.959 L390.042,371.615 L382.183,371.615 L379.386,380.959 L375.042,380.959 L374.136,384.022 L378.496,384.022 L375.246,395.022 C374.042,399.069 373.996,399.319 373.996,400.662 C373.996,402.959 376.089,404.819 378.746,404.819 C381.339,404.819 383.792,403.522 386.246,400.959 C387.246,399.819 387.792,399.115 389.636,396.319 L387.792,395.022 M407.589,380.209 L395.089,380.959 L394.73,383.319 L395.933,383.319 C398.386,383.319 398.98,383.615 398.98,384.865 C398.98,385.412 398.792,386.272 398.23,388.162 L393.48,404.115 L401.339,404.115 L403.433,397.209 C404.839,392.412 407.339,387.772 409.746,385.412 C410.542,384.662 411.386,384.115 411.792,384.115 C412.136,384.115 412.292,384.319 412.292,384.772 C412.292,385.522 412.339,385.865 412.433,386.319 C412.792,387.772 414.183,388.772 415.792,388.772 C417.933,388.772 419.542,386.959 419.542,384.615 C419.542,381.912 417.746,380.209 414.886,380.209 C411.589,380.209 409.136,381.959 406.042,386.615 L407.589,380.209 M438.621,397.865 C435.714,400.772 433.574,401.912 431.011,401.912 C428.324,401.912 426.667,400.162 426.667,397.319 C426.667,396.662 426.714,396.162 426.824,395.069 C429.761,394.912 431.917,394.569 434.277,393.912 C439.964,392.209 442.777,389.709 442.777,386.272 C442.777,382.819 439.277,380.209 434.574,380.209 C426.167,380.209 418.761,387.412 418.761,395.615 C418.761,401.569 422.371,404.819 428.964,404.819 C433.527,404.819 437.214,403.115 440.371,399.569 L438.621,397.865 M427.261,392.772 C428.417,386.662 431.371,382.569 434.464,382.569 C435.824,382.569 436.667,383.459 436.667,384.912 C436.667,386.662 435.574,388.662 433.871,390.115 C432.121,391.615 430.371,392.272 427.261,392.772 M430.371,377.365 L433.074,377.365 L441.324,372.959 C442.277,372.459 442.777,371.709 442.777,370.756 C442.777,369.319 441.574,368.162 440.074,368.162 C438.871,368.162 438.277,368.506 436.574,370.412 L430.371,377.365 M457.761,380.209 C451.511,380.209 447.605,383.272 447.605,388.162 C447.605,390.819 448.699,392.662 451.199,394.209 C452.261,394.865 452.511,394.959 455.402,396.209 C457.511,397.069 458.308,397.912 458.308,399.272 C458.308,401.209 456.308,402.662 453.558,402.662 C451.699,402.662 450.402,402.115 450.402,401.412 C450.402,401.209 450.511,401.069 450.652,400.959 C451.699,400.069 451.949,399.615 451.949,398.615 C451.949,396.865 450.402,395.522 448.402,395.522 C446.308,395.522 444.902,396.912 444.902,399.069 C444.902,402.522 448.511,404.819 453.808,404.819 C460.355,404.819 464.761,401.569 464.761,396.662 C464.761,393.209 463.105,391.412 457.605,389.022 C454.652,387.772 453.699,386.912 453.699,385.569 C453.699,383.819 455.558,382.569 458.152,382.569 C459.652,382.569 460.964,383.069 460.964,383.615 C460.964,383.772 460.855,383.912 460.652,384.209 C459.902,385.162 459.761,385.459 459.761,386.272 C459.761,387.959 461.214,389.272 463.214,389.272 C465.261,389.272 466.652,387.865 466.652,385.772 C466.652,382.522 462.964,380.209 457.761,380.209 M516.355,367.319 L502.605,368.006 L502.246,370.365 L503.855,370.365 C506.355,370.365 506.902,370.662 506.902,371.912 C506.902,372.459 506.699,373.319 506.152,375.256 L503.746,383.319 C502.542,381.272 500.449,380.209 497.496,380.209 C490.089,380.209 483.199,387.709 483.199,395.772 C483.199,401.069 486.792,404.819 491.902,404.819 C495.152,404.819 497.246,403.709 499.996,400.569 C500.042,401.412 500.042,401.912 500.105,402.069 C500.542,403.709 502.246,404.819 504.292,404.819 C506.792,404.819 509.042,403.569 511.496,400.772 C512.855,399.209 513.996,397.709 514.792,396.272 L512.855,395.069 C510.949,398.022 508.496,400.615 507.605,400.615 C507.246,400.615 506.902,400.209 506.902,399.819 C506.902,399.459 506.902,399.412 507.402,397.569 L516.355,367.319 M499.105,382.959 C500.902,382.959 502.152,384.459 502.152,386.569 C502.152,389.115 501.042,393.272 499.605,396.459 C498.105,399.662 496.292,401.319 494.339,401.319 C492.496,401.319 491.339,399.819 491.339,397.365 C491.339,394.709 492.339,390.772 493.792,387.709 C495.292,384.522 497.042,382.959 499.105,382.959 M532.746,380.209 C524.246,380.209 517.042,386.912 517.042,394.772 C517.042,397.662 518.183,400.569 520.042,402.272 C521.792,403.959 524.386,404.819 527.542,404.819 C536.636,404.819 543.542,398.365 543.542,389.865 C543.542,386.912 542.542,384.459 540.746,382.912 C538.792,381.209 535.839,380.209 532.746,380.209 M532.542,382.569 C534.496,382.569 535.792,384.115 535.792,386.412 C535.792,389.069 534.699,393.912 533.292,397.459 C531.949,400.959 530.199,402.662 527.996,402.662 C525.933,402.662 524.792,401.209 524.792,398.709 C524.792,395.709 525.746,391.209 527.042,388.022 C528.542,384.412 530.386,382.569 532.542,382.569 M575.074,380.959 L567.183,380.959 L564.777,389.162 C563.98,391.819 562.886,394.115 561.386,396.162 C559.574,398.709 557.183,400.615 555.871,400.615 C555.23,400.615 554.621,400.022 554.621,399.365 C554.621,399.115 555.027,397.615 555.683,395.459 L560.183,380.272 L547.527,380.959 L547.183,383.319 L547.683,383.319 C550.121,383.319 550.73,383.615 550.73,384.865 C550.73,385.365 550.527,386.209 549.933,388.162 L548.183,394.209 C547.324,397.069 547.121,397.959 547.121,399.365 C547.121,402.615 549.324,404.819 552.621,404.819 C555.824,404.819 558.574,403.162 561.777,399.272 C561.73,399.772 561.73,400.162 561.73,400.569 C561.73,403.365 563.386,404.819 566.574,404.819 C570.386,404.819 573.23,402.569 577.183,396.522 L575.277,395.115 C573.136,398.459 571.183,400.569 570.324,400.569 C569.933,400.569 569.636,400.272 569.636,399.865 C569.636,399.365 569.636,399.365 570.433,396.522 L575.074,380.959 M590.464,397.412 L590.621,398.115 C591.214,400.865 591.667,402.022 592.464,402.959 C593.417,404.162 594.777,404.819 596.324,404.819 C598.667,404.819 600.621,403.615 602.417,401.022 C603.667,399.272 604.621,397.459 605.277,395.662 L603.324,394.662 C602.074,397.865 600.667,399.709 599.574,399.709 C598.527,399.709 598.121,398.709 597.167,394.115 L596.371,390.069 C599.527,385.412 600.824,383.912 601.777,383.912 C602.074,383.912 602.167,384.115 602.214,384.522 C602.214,386.209 603.324,387.209 605.167,387.209 C607.027,387.209 608.417,385.772 608.417,383.772 C608.417,381.662 606.824,380.209 604.417,380.209 C601.621,380.209 599.917,381.412 596.824,385.522 L595.714,386.959 L595.621,386.569 C594.714,382.162 593.074,380.209 590.214,380.209 C587.871,380.209 585.824,381.522 583.621,384.412 C582.464,385.865 581.621,387.209 580.871,388.819 L582.871,389.865 L583.371,388.959 C584.371,387.272 584.371,387.272 584.621,386.912 C585.574,385.569 586.011,385.209 586.667,385.209 C587.621,385.209 587.964,385.959 589.074,391.115 L589.761,394.319 L587.714,397.162 C585.917,399.709 584.917,400.709 584.167,400.709 C583.917,400.709 583.824,400.569 583.714,400.162 C583.324,398.569 582.261,397.662 580.761,397.662 C578.761,397.662 577.417,399.022 577.417,401.115 C577.417,403.319 579.074,404.865 581.464,404.865 C583.824,404.865 586.511,403.022 588.621,400.022 L590.464,397.412 M642.652,397.865 C639.746,400.772 637.605,401.912 635.042,401.912 C632.355,401.912 630.699,400.162 630.699,397.319 C630.699,396.662 630.746,396.162 630.855,395.069 C633.792,394.912 635.949,394.569 638.308,393.912 C643.996,392.209 646.808,389.709 646.808,386.272 C646.808,382.819 643.308,380.209 638.605,380.209 C630.199,380.209 622.792,387.412 622.792,395.615 C622.792,401.569 626.402,404.819 632.996,404.819 C637.558,404.819 641.246,403.115 644.402,399.569 L642.652,397.865 M631.292,392.772 C632.449,386.662 635.402,382.569 638.496,382.569 C639.855,382.569 640.699,383.459 640.699,384.912 C640.699,386.662 639.605,388.662 637.902,390.115 C636.152,391.615 634.402,392.272 631.292,392.772 M663.089,395.022 C661.246,398.209 658.886,400.819 657.886,400.819 C657.48,400.819 657.136,400.365 657.136,399.912 C657.136,399.569 657.542,397.959 658.183,395.819 L661.683,384.022 L667.386,384.022 L668.292,380.959 L662.589,380.959 L665.339,371.615 L657.48,371.615 L654.683,380.959 L650.339,380.959 L649.433,384.022 L653.792,384.022 L650.542,395.022 C649.339,399.069 649.292,399.319 649.292,400.662 C649.292,402.959 651.386,404.819 654.042,404.819 C656.636,404.819 659.089,403.522 661.542,400.959 C662.542,399.819 663.089,399.115 664.933,396.319 L663.089,395.022 M715.933,367.319 L702.183,368.006 L701.824,370.365 L703.433,370.365 C705.933,370.365 706.48,370.662 706.48,371.912 C706.48,372.459 706.277,373.319 705.73,375.256 L703.324,383.319 C702.121,381.272 700.027,380.209 697.074,380.209 C689.667,380.209 682.777,387.709 682.777,395.772 C682.777,401.069 686.371,404.819 691.48,404.819 C694.73,404.819 696.824,403.709 699.574,400.569 C699.621,401.412 699.621,401.912 699.683,402.069 C700.121,403.709 701.824,404.819 703.871,404.819 C706.371,404.819 708.621,403.569 711.074,400.772 C712.433,399.209 713.574,397.709 714.371,396.272 L712.433,395.069 C710.527,398.022 708.074,400.615 707.183,400.615 C706.824,400.615 706.48,400.209 706.48,399.819 C706.48,399.459 706.48,399.412 706.98,397.569 L715.933,367.319 M698.683,382.959 C700.48,382.959 701.73,384.459 701.73,386.569 C701.73,389.115 700.621,393.272 699.183,396.459 C697.683,399.662 695.871,401.319 693.917,401.319 C692.074,401.319 690.917,399.819 690.917,397.365 C690.917,394.709 691.917,390.772 693.371,387.709 C694.871,384.522 696.621,382.959 698.683,382.959 M735.871,397.865 C732.964,400.772 730.824,401.912 728.261,401.912 C725.574,401.912 723.917,400.162 723.917,397.319 C723.917,396.662 723.964,396.162 724.074,395.069 C727.011,394.912 729.167,394.569 731.527,393.912 C737.214,392.209 740.027,389.709 740.027,386.272 C740.027,382.819 736.527,380.209 731.824,380.209 C723.417,380.209 716.011,387.412 716.011,395.615 C716.011,401.569 719.621,404.819 726.214,404.819 C730.777,404.819 734.464,403.115 737.621,399.569 L735.871,397.865 M724.511,392.772 C725.667,386.662 728.621,382.569 731.714,382.569 C733.074,382.569 733.917,383.459 733.917,384.912 C733.917,386.662 732.824,388.662 731.121,390.115 C729.371,391.615 727.621,392.272 724.511,392.772 M727.621,377.365 L730.324,377.365 L738.574,372.959 C739.527,372.459 740.027,371.709 740.027,370.756 C740.027,369.319 738.824,368.162 737.324,368.162 C736.121,368.162 735.527,368.506 733.824,370.412 L727.621,377.365 M759.105,367.319 L745.746,368.006 L745.402,370.365 L746.605,370.365 C749.105,370.365 749.652,370.662 749.652,371.912 C749.652,372.459 749.449,373.319 748.902,375.209 L743.058,395.022 C742.152,397.959 741.902,399.115 741.902,400.272 C741.902,403.022 743.949,404.819 746.996,404.819 C749.355,404.819 751.199,404.022 753.246,402.022 C755.011,400.412 756.511,398.569 757.558,396.662 L755.605,395.319 C753.605,398.615 751.355,400.959 750.246,400.959 C749.855,400.959 749.496,400.615 749.496,400.115 C749.496,399.865 749.605,399.319 749.746,398.819 C749.746,398.819 749.949,398.272 749.996,398.022 L759.105,367.319 M775.136,380.209 L761.792,380.959 L761.433,383.319 L762.636,383.319 C765.136,383.319 765.683,383.615 765.683,384.865 C765.683,385.412 765.496,386.272 764.933,388.162 L762.386,396.662 C761.746,398.912 761.636,399.365 761.636,400.319 C761.636,402.959 763.792,404.819 766.839,404.819 C770.636,404.819 773.792,402.319 777.199,396.662 L775.246,395.319 C772.792,399.209 771.183,400.959 770.183,400.959 C769.746,400.959 769.386,400.615 769.386,400.162 C769.386,399.709 769.433,399.569 769.886,398.022 L775.136,380.209 M772.433,367.256 C770.089,367.256 768.183,369.162 768.183,371.506 C768.183,373.819 770.089,375.756 772.386,375.756 C774.792,375.756 776.699,373.865 776.699,371.506 C776.699,369.162 774.792,367.256 772.433,367.256 M799.777,396.819 C796.824,400.209 794.433,401.772 791.98,401.772 C789.574,401.772 787.871,399.819 787.871,397.069 C787.871,393.959 788.98,389.662 790.48,386.912 C792.027,384.022 793.886,382.569 796.027,382.569 C797.277,382.569 798.136,383.069 798.136,383.819 C798.136,384.162 797.98,384.365 797.527,384.615 C796.136,385.522 795.636,386.272 795.636,387.709 C795.636,389.865 797.23,391.319 799.527,391.319 C802.136,391.319 803.824,389.459 803.824,386.662 C803.824,382.772 800.48,380.209 795.277,380.209 C786.777,380.209 779.621,387.209 779.621,395.569 C779.621,401.209 783.683,404.819 789.98,404.819 C794.386,404.819 797.933,402.819 801.574,398.319 L799.777,396.819 M827.074,380.959 L826.371,383.319 C825.167,381.272 823.074,380.272 820.121,380.272 C812.714,380.272 805.824,387.772 805.824,395.819 C805.824,401.115 809.417,404.819 814.464,404.819 C817.917,404.819 820.277,403.569 822.621,400.459 C822.621,401.569 822.621,401.662 822.777,402.069 C823.23,403.709 824.871,404.819 826.871,404.819 C829.371,404.819 831.621,403.569 834.074,400.772 C835.417,399.272 836.527,397.709 837.371,396.272 L835.417,395.069 C833.574,397.912 831.074,400.615 830.23,400.615 C829.871,400.615 829.527,400.209 829.527,399.819 C829.527,399.459 829.527,399.412 830.027,397.569 L834.917,380.959 L827.074,380.959 M821.777,383.022 C823.574,383.022 824.824,384.459 824.824,386.615 C824.824,389.162 823.73,393.272 822.23,396.459 C820.777,399.662 818.98,401.319 817.027,401.319 C815.121,401.319 813.964,399.819 813.964,397.365 C813.964,394.709 814.964,390.772 816.417,387.772 C817.98,384.569 819.667,383.022 821.777,383.022 M853.121,395.022 C851.277,398.209 848.917,400.819 847.917,400.819 C847.511,400.819 847.167,400.365 847.167,399.912 C847.167,399.569 847.574,397.959 848.214,395.819 L851.714,384.022 L857.417,384.022 L858.324,380.959 L852.621,380.959 L855.371,371.615 L847.511,371.615 L844.714,380.959 L840.371,380.959 L839.464,384.022 L843.824,384.022 L840.574,395.022 C839.371,399.069 839.324,399.319 839.324,400.662 C839.324,402.959 841.417,404.819 844.074,404.819 C846.667,404.819 849.121,403.522 851.574,400.959 C852.574,399.819 853.121,399.115 854.964,396.319 L853.121,395.022 M877.558,397.865 C874.652,400.772 872.511,401.912 869.949,401.912 C867.261,401.912 865.605,400.162 865.605,397.319 C865.605,396.662 865.652,396.162 865.761,395.069 C868.699,394.912 870.855,394.569 873.214,393.912 C878.902,392.209 881.714,389.709 881.714,386.272 C881.714,382.819 878.214,380.209 873.511,380.209 C865.105,380.209 857.699,387.412 857.699,395.615 C857.699,401.569 861.308,404.819 867.902,404.819 C872.464,404.819 876.152,403.115 879.308,399.569 L877.558,397.865 M866.199,392.772 C867.355,386.662 870.308,382.569 873.402,382.569 C874.761,382.569 875.605,383.459 875.605,384.912 C875.605,386.662 874.511,388.662 872.808,390.115 C871.058,391.615 869.308,392.272 866.199,392.772 M898.199,380.209 L885.792,380.959 L885.449,383.319 L886.636,383.319 C889.089,383.319 889.699,383.615 889.699,384.865 C889.699,385.412 889.449,386.459 888.949,388.162 L884.199,404.115 L891.996,404.115 L894.042,397.162 C895.246,393.209 896.542,390.522 898.542,387.865 C900.246,385.615 901.746,384.412 902.746,384.412 C903.292,384.412 903.699,384.912 903.699,385.615 C903.699,386.662 903.199,388.912 902.152,392.365 L898.652,404.115 L906.542,404.115 L908.199,398.569 C909.949,392.569 911.292,389.662 913.199,387.319 C914.746,385.522 916.292,384.412 917.402,384.412 C918.246,384.412 918.699,384.865 918.699,385.615 C918.699,386.272 918.449,387.365 917.996,388.615 L915.589,395.615 C914.652,398.162 914.339,399.522 914.339,400.615 C914.339,402.912 916.496,404.819 919.199,404.819 C922.792,404.819 926.152,402.209 929.746,396.662 L927.839,395.272 C927.589,395.569 927.589,395.569 927.152,396.162 C925.199,398.709 925.199,398.709 924.902,399.115 C923.699,400.365 923.089,400.819 922.542,400.819 C922.089,400.819 921.699,400.522 921.699,400.162 C921.699,399.912 921.792,399.459 921.949,399.022 L924.949,390.709 C925.699,388.569 926.042,386.959 926.042,385.412 C926.042,382.319 923.902,380.209 920.589,380.209 C917.652,380.209 914.949,381.865 911.746,385.772 C911.699,384.272 911.699,384.272 911.496,383.662 C910.792,381.662 908.542,380.209 906.152,380.209 C902.996,380.209 899.839,382.272 896.746,386.319 L898.199,380.209 M950.683,397.865 C947.777,400.772 945.636,401.912 943.074,401.912 C940.386,401.912 938.73,400.162 938.73,397.319 C938.73,396.662 938.777,396.162 938.886,395.069 C941.824,394.912 943.98,394.569 946.339,393.912 C952.027,392.209 954.839,389.709 954.839,386.272 C954.839,382.819 951.339,380.209 946.636,380.209 C938.23,380.209 930.824,387.412 930.824,395.615 C930.824,401.569 934.433,404.819 941.027,404.819 C945.589,404.819 949.277,403.115 952.433,399.569 L950.683,397.865 M939.324,392.772 C940.48,386.662 943.433,382.569 946.527,382.569 C947.886,382.569 948.73,383.459 948.73,384.912 C948.73,386.662 947.636,388.662 945.933,390.115 C944.183,391.615 942.433,392.272 939.324,392.772 M971.121,380.209 L958.621,380.959 L958.261,383.319 L959.464,383.319 C961.917,383.319 962.511,383.615 962.511,384.865 C962.511,385.412 962.324,386.272 961.761,388.162 L957.011,404.115 L964.871,404.115 L966.761,397.772 C968.167,393.069 969.417,390.522 971.621,387.865 C973.464,385.615 975.121,384.412 976.324,384.412 C977.074,384.412 977.824,385.069 977.824,385.772 C977.824,386.209 977.667,386.819 977.417,387.569 L974.324,395.959 C973.464,398.365 973.324,399.022 973.324,400.319 C973.324,403.069 975.277,404.819 978.417,404.819 C982.074,404.819 985.214,402.365 988.964,396.569 L987.027,395.272 C985.527,397.272 984.777,398.272 984.777,398.319 C983.417,399.912 982.324,400.819 981.714,400.819 C981.371,400.819 981.027,400.412 981.027,400.022 C981.027,399.615 981.121,399.319 981.527,398.115 L983.871,391.772 C984.917,389.022 985.371,386.959 985.371,385.365 C985.371,382.365 983.074,380.209 979.777,380.209 C976.121,380.209 973.324,382.022 969.511,386.819 L971.121,380.209 M1006.1,395.022 C1004.26,398.209 1001.9,400.819 1000.9,400.819 C1000.5,400.819 1000.15,400.365 1000.15,399.912 C1000.15,399.569 1000.56,397.959 1001.2,395.819 L1004.7,384.022 L1010.4,384.022 L1011.31,380.959 L1005.6,380.959 L1008.35,371.615 L1000.5,371.615 L997.699,380.959 L993.355,380.959 L992.449,384.022 L996.808,384.022 L993.558,395.022 C992.355,399.069 992.308,399.319 992.308,400.662 C992.308,402.959 994.402,404.819 997.058,404.819 C999.652,404.819 1002.1,403.522 1004.56,400.959 C1005.56,399.819 1006.1,399.115 1007.95,396.319 L1006.1,395.022 M1045.54,397.865 C1042.64,400.772 1040.5,401.912 1037.93,401.912 C1035.25,401.912 1033.59,400.162 1033.59,397.319 C1033.59,396.662 1033.64,396.162 1033.75,395.069 C1036.68,394.912 1038.84,394.569 1041.2,393.912 C1046.89,392.209 1049.7,389.709 1049.7,386.272 C1049.7,382.819 1046.2,380.209 1041.5,380.209 C1033.09,380.209 1025.68,387.412 1025.68,395.615 C1025.68,401.569 1029.29,404.819 1035.89,404.819 C1040.45,404.819 1044.14,403.115 1047.29,399.569 L1045.54,397.865 M1034.18,392.772 C1035.34,386.662 1038.29,382.569 1041.39,382.569 C1042.75,382.569 1043.59,383.459 1043.59,384.912 C1043.59,386.662 1042.5,388.662 1040.79,390.115 C1039.04,391.615 1037.29,392.272 1034.18,392.772 M1062.32,397.412 L1062.48,398.115 C1063.07,400.865 1063.53,402.022 1064.32,402.959 C1065.28,404.162 1066.64,404.819 1068.18,404.819 C1070.53,404.819 1072.48,403.615 1074.28,401.022 C1075.53,399.272 1076.48,397.459 1077.14,395.662 L1075.18,394.662 C1073.93,397.865 1072.53,399.709 1071.43,399.709 C1070.39,399.709 1069.98,398.709 1069.03,394.115 L1068.23,390.069 C1071.39,385.412 1072.68,383.912 1073.64,383.912 C1073.93,383.912 1074.03,384.115 1074.07,384.522 C1074.07,386.209 1075.18,387.209 1077.03,387.209 C1078.89,387.209 1080.28,385.772 1080.28,383.772 C1080.28,381.662 1078.68,380.209 1076.28,380.209 C1073.48,380.209 1071.78,381.412 1068.68,385.522 L1067.57,386.959 L1067.48,386.569 C1066.57,382.162 1064.93,380.209 1062.07,380.209 C1059.73,380.209 1057.68,381.522 1055.48,384.412 C1054.32,385.865 1053.48,387.209 1052.73,388.819 L1054.73,389.865 L1055.23,388.959 C1056.23,387.272 1056.23,387.272 1056.48,386.912 C1057.43,385.569 1057.87,385.209 1058.53,385.209 C1059.48,385.209 1059.82,385.959 1060.93,391.115 L1061.62,394.319 L1059.57,397.162 C1057.78,399.709 1056.78,400.709 1056.03,400.709 C1055.78,400.709 1055.68,400.569 1055.57,400.162 C1055.18,398.569 1054.12,397.662 1052.62,397.662 C1050.62,397.662 1049.28,399.022 1049.28,401.115 C1049.28,403.319 1050.93,404.865 1053.32,404.865 C1055.68,404.865 1058.37,403.022 1060.48,400.022 L1062.32,397.412 M1094.07,380.209 L1082.21,380.959 L1081.87,383.319 L1083.06,383.319 C1085.56,383.319 1086.17,383.615 1086.17,384.865 C1086.17,385.412 1085.92,386.412 1085.42,388.069 L1079.67,407.365 L1079.31,408.615 C1079.12,409.319 1078.96,409.709 1078.92,409.865 C1078.67,410.615 1078.56,410.865 1078.21,411.162 C1077.87,411.569 1077.06,411.772 1075.06,411.865 L1074.87,411.865 L1074.51,414.209 L1090.01,414.209 L1090.37,411.865 L1089.62,411.865 C1087.62,411.865 1086.76,411.522 1086.76,410.569 C1086.76,410.115 1086.92,409.522 1087.56,407.365 L1089.26,401.615 C1090.67,403.865 1092.56,404.819 1095.57,404.819 C1103.07,404.819 1109.92,397.412 1109.92,389.209 C1109.92,383.709 1106.51,380.209 1101.17,380.209 C1098.01,380.209 1095.71,381.365 1093.26,384.162 L1094.07,380.209 M1098.71,383.709 C1100.67,383.709 1101.92,385.162 1101.92,387.365 C1101.92,390.162 1100.67,394.772 1099.01,398.022 C1097.62,400.662 1096.07,401.912 1094.17,401.912 C1092.21,401.912 1090.71,400.319 1090.71,398.209 C1090.71,395.615 1092.31,390.115 1093.92,387.412 C1095.37,384.865 1096.82,383.709 1098.71,383.709 M1127.06,380.209 L1114.56,380.959 L1114.2,383.319 L1115.4,383.319 C1117.85,383.319 1118.45,383.615 1118.45,384.865 C1118.45,385.412 1118.26,386.272 1117.7,388.162 L1112.95,404.115 L1120.81,404.115 L1122.9,397.209 C1124.31,392.412 1126.81,387.772 1129.21,385.412 C1130.01,384.662 1130.85,384.115 1131.26,384.115 C1131.6,384.115 1131.76,384.319 1131.76,384.772 C1131.76,385.522 1131.81,385.865 1131.9,386.319 C1132.26,387.772 1133.65,388.772 1135.26,388.772 C1137.4,388.772 1139.01,386.959 1139.01,384.615 C1139.01,381.912 1137.21,380.209 1134.35,380.209 C1131.06,380.209 1128.6,381.959 1125.51,386.615 L1127.06,380.209 M1158.09,397.865 C1155.18,400.772 1153.04,401.912 1150.48,401.912 C1147.79,401.912 1146.14,400.162 1146.14,397.319 C1146.14,396.662 1146.18,396.162 1146.29,395.069 C1149.23,394.912 1151.39,394.569 1153.75,393.912 C1159.43,392.209 1162.25,389.709 1162.25,386.272 C1162.25,382.819 1158.75,380.209 1154.04,380.209 C1145.64,380.209 1138.23,387.412 1138.23,395.615 C1138.23,401.569 1141.84,404.819 1148.43,404.819 C1153,404.819 1156.68,403.115 1159.84,399.569 L1158.09,397.865 M1146.73,392.772 C1147.89,386.662 1150.84,382.569 1153.93,382.569 C1155.29,382.569 1156.14,383.459 1156.14,384.912 C1156.14,386.662 1155.04,388.662 1153.34,390.115 C1151.59,391.615 1149.84,392.272 1146.73,392.772 M1176.23,380.209 C1169.98,380.209 1166.07,383.272 1166.07,388.162 C1166.07,390.819 1167.17,392.662 1169.67,394.209 C1170.73,394.865 1170.98,394.959 1173.87,396.209 C1175.98,397.069 1176.78,397.912 1176.78,399.272 C1176.78,401.209 1174.78,402.662 1172.03,402.662 C1170.17,402.662 1168.87,402.115 1168.87,401.412 C1168.87,401.209 1168.98,401.069 1169.12,400.959 C1170.17,400.069 1170.42,399.615 1170.42,398.615 C1170.42,396.865 1168.87,395.522 1166.87,395.522 C1164.78,395.522 1163.37,396.912 1163.37,399.069 C1163.37,402.522 1166.98,404.819 1172.28,404.819 C1178.82,404.819 1183.23,401.569 1183.23,396.662 C1183.23,393.209 1181.57,391.412 1176.07,389.022 C1173.12,387.772 1172.17,386.912 1172.17,385.569 C1172.17,383.819 1174.03,382.569 1176.62,382.569 C1178.12,382.569 1179.43,383.069 1179.43,383.615 C1179.43,383.772 1179.32,383.912 1179.12,384.209 C1178.37,385.162 1178.23,385.459 1178.23,386.272 C1178.23,387.959 1179.68,389.272 1181.68,389.272 C1183.73,389.272 1185.12,387.865 1185.12,385.772 C1185.12,382.522 1181.43,380.209 1176.23,380.209 M1199.68,380.209 C1193.43,380.209 1189.53,383.272 1189.53,388.162 C1189.53,390.819 1190.62,392.662 1193.12,394.209 C1194.18,394.865 1194.43,394.959 1197.32,396.209 C1199.43,397.069 1200.23,397.912 1200.23,399.272 C1200.23,401.209 1198.23,402.662 1195.48,402.662 C1193.62,402.662 1192.32,402.115 1192.32,401.412 C1192.32,401.209 1192.43,401.069 1192.57,400.959 C1193.62,400.069 1193.87,399.615 1193.87,398.615 C1193.87,396.865 1192.32,395.522 1190.32,395.522 C1188.23,395.522 1186.82,396.912 1186.82,399.069 C1186.82,402.522 1190.43,404.819 1195.73,404.819 C1202.28,404.819 1206.68,401.569 1206.68,396.662 C1206.68,393.209 1205.03,391.412 1199.53,389.022 C1196.57,387.772 1195.62,386.912 1195.62,385.569 C1195.62,383.819 1197.48,382.569 1200.07,382.569 C1201.57,382.569 1202.89,383.069 1202.89,383.615 C1202.89,383.772 1202.78,383.912 1202.57,384.209 C1201.82,385.162 1201.68,385.459 1201.68,386.272 C1201.68,387.959 1203.14,389.272 1205.14,389.272 C1207.18,389.272 1208.57,387.865 1208.57,385.772 C1208.57,382.522 1204.89,380.209 1199.68,380.209 M1225.87,380.209 L1212.53,380.959 L1212.17,383.319 L1213.37,383.319 C1215.87,383.319 1216.42,383.615 1216.42,384.865 C1216.42,385.412 1216.23,386.272 1215.67,388.162 L1213.12,396.662 C1212.48,398.912 1212.37,399.365 1212.37,400.319 C1212.37,402.959 1214.53,404.819 1217.57,404.819 C1221.37,404.819 1224.53,402.319 1227.93,396.662 L1225.98,395.319 C1223.53,399.209 1221.92,400.959 1220.92,400.959 C1220.48,400.959 1220.12,400.615 1220.12,400.162 C1220.12,399.709 1220.17,399.569 1220.62,398.022 L1225.87,380.209 M1223.17,367.256 C1220.82,367.256 1218.92,369.162 1218.92,371.506 C1218.92,373.819 1220.82,375.756 1223.12,375.756 C1225.53,375.756 1227.43,373.865 1227.43,371.506 C1227.43,369.162 1225.53,367.256 1223.17,367.256 M1251.31,380.959 L1244.96,380.959 L1245.46,378.912 C1247.26,371.569 1248.37,369.662 1250.81,369.662 C1251.42,369.662 1251.87,369.865 1251.87,370.162 C1251.87,370.256 1251.76,370.459 1251.67,370.615 C1250.67,371.912 1250.46,372.412 1250.46,373.412 C1250.46,375.365 1251.87,376.709 1253.87,376.709 C1256.12,376.709 1257.71,375.069 1257.71,372.756 C1257.71,369.569 1254.87,367.319 1250.87,367.319 C1247.51,367.319 1244.76,368.569 1242.26,371.256 C1240.26,373.459 1239.01,376.115 1237.67,380.959 L1232.76,380.959 L1231.92,384.022 L1236.85,384.022 L1233.67,397.522 C1231.26,406.209 1229.21,412.115 1227.81,414.365 L1236.85,413.069 C1238.6,408.272 1240.42,401.772 1241.92,394.709 L1244.26,384.022 L1250.51,384.022 L1251.31,380.959 "
     id="path136" />
</svg>
