<?xml version="1.0" encoding="UTF-8" standalone="no"?>
<svg width="2647px" height="472px" viewBox="0 0 2647 472"
 xmlns="http://www.w3.org/2000/svg" xmlns:xlink="http://www.w3.org/1999/xlink" version="1.2" baseProfile="tiny">
<title>Sin título</title>
<desc>Generated by MuseScore 3.6.2</desc>
<path class="" stroke="#000000" stroke-width="1.74" stroke-linecap="round" stroke-linejoin="round" fill-rule="evenodd" d="M1615.34,116.513 C1679.65,80.7962 1872.58,80.7962 1936.88,116.513 C1872.58,87.7411 1679.65,87.7411 1615.34,116.513"/>
<path class="" stroke="#000000" stroke-width="1.74" stroke-linecap="round" stroke-linejoin="round" fill-rule="evenodd" d="M333.188,116.513 C370.906,84.3748 484.059,84.3748 521.777,116.513 C484.059,91.3197 370.906,91.3197 333.188,116.513"/>
<polyline class="" stroke="#000000" stroke-width="4.46" stroke-linejoin="bevel" points="2613.92,146.153 2613.92,248.093"/>
<polyline class="" stroke="#000000" stroke-width="13.64" stroke-linejoin="bevel" points="2631.28,146.153 2631.28,248.093"/>
<polyline class="" stroke="#000000" stroke-width="4.46" stroke-linejoin="bevel" points="1562.39,146.153 1562.39,248.093"/>
<polyline class="" stroke="#000000" stroke-width="2.73" stroke-linejoin="bevel" points="1564.62,147.517 2638.1,147.517"/>
<polyline class="" stroke="#000000" stroke-width="2.73" stroke-linejoin="bevel" points="1564.62,172.32 2638.1,172.32"/>
<polyline class="" stroke="#000000" stroke-width="2.73" stroke-linejoin="bevel" points="1564.62,197.123 2638.1,197.123"/>
<polyline class="" stroke="#000000" stroke-width="2.73" stroke-linejoin="bevel" points="1564.62,221.926 2638.1,221.926"/>
<polyline class="" stroke="#000000" stroke-width="2.73" stroke-linejoin="bevel" points="1564.62,246.729 2638.1,246.729"/>
<polyline class="" stroke="#000000" stroke-width="2.73" stroke-linejoin="bevel" points="17.3713,147.517 1564.62,147.517"/>
<polyline class="" stroke="#000000" stroke-width="2.73" stroke-linejoin="bevel" points="17.3713,172.32 1564.62,172.32"/>
<polyline class="" stroke="#000000" stroke-width="2.73" stroke-linejoin="bevel" points="17.3713,197.123 1564.62,197.123"/>
<polyline class="" stroke="#000000" stroke-width="2.73" stroke-linejoin="bevel" points="17.3713,221.926 1564.62,221.926"/>
<polyline class="" stroke="#000000" stroke-width="2.73" stroke-linejoin="bevel" points="17.3713,246.729 1564.62,246.729"/>
<polyline class="" stroke="#000000" stroke-width="3.97" stroke-linejoin="bevel" points="1399.85,122.714 1449.45,122.714"/>
<polyline class="" stroke="#000000" stroke-width="2.73" stroke-linejoin="bevel" points="2116.23,150.85 2116.23,240.529"/>
<polyline class="" stroke="#000000" stroke-width="2.73" stroke-linejoin="bevel" points="2234.52,163.252 2234.52,240.529"/>
<polyline class="" stroke="#000000" stroke-width="2.73" stroke-linejoin="bevel" points="2352.81,175.653 2352.81,256.03"/>
<polyline class="" stroke="#000000" stroke-width="2.73" stroke-linejoin="bevel" points="1926.97,138.449 1926.97,240.529"/>
<polyline class="" stroke="#000000" stroke-width="2.73" stroke-linejoin="bevel" points="1258.27,200.457 1258.27,271.532"/>
<polyline class="" stroke="#000000" stroke-width="2.73" stroke-linejoin="bevel" points="1409.89,113.646 1409.89,271.532"/>
<polyline class="" stroke="#000000" stroke-width="2.73" stroke-linejoin="bevel" points="1595.75,138.449 1595.75,221.926"/>
<polyline class="" stroke="#000000" stroke-width="2.73" stroke-linejoin="bevel" points="873.48,175.653 873.48,265.332"/>
<polyline class="" stroke="#000000" stroke-width="2.73" stroke-linejoin="bevel" points="1025.11,163.252 1025.11,265.332"/>
<polyline class="" stroke="#000000" stroke-width="2.73" stroke-linejoin="bevel" points="1102.83,175.653 1102.83,265.332"/>
<polyline class="" stroke="#000000" stroke-width="2.73" stroke-linejoin="bevel" points="1180.55,188.055 1180.55,265.332"/>
<polyline class="" stroke="#000000" stroke-width="2.73" stroke-linejoin="bevel" points="511.858,138.449 511.858,240.529"/>
<polyline class="" stroke="#000000" stroke-width="2.73" stroke-linejoin="bevel" points="663.487,150.85 663.487,240.529"/>
<polyline class="" stroke="#000000" stroke-width="2.73" stroke-linejoin="bevel" points="768.484,163.252 768.484,240.529"/>
<polyline class="" stroke="#000000" stroke-width="2.73" stroke-linejoin="bevel" points="313.598,138.449 313.598,221.926"/>
<path class="" transform="matrix(0.992126,0,0,0.992126,2114.87,147.517)" d="M31.5,-8.09375 C29.7031,-11.4063 25.9063,-13.2031 21.2969,-13.2031 C17.9063,-13.2031 14.2031,-12.2031 10.5938,-10.2969 C4,-6.79688 0,-0.90625 0,4.20313 C0,5.59375 0.296875,7 1,8.29688 C2.79688,11.5938 6.59375,13.2969 11.2031,13.2969 C14.5938,13.2969 18.2969,12.4063 21.9063,10.5 C28.5,7 32.5,1.09375 32.5,-4 C32.5,-5.40625 32.2031,-6.79688 31.5,-8.09375"/>
<path class="" transform="matrix(0.992126,0,0,0.992126,2233.16,159.918)" d="M31.5,-8.09375 C29.7031,-11.4063 25.9063,-13.2031 21.2969,-13.2031 C17.9063,-13.2031 14.2031,-12.2031 10.5938,-10.2969 C4,-6.79688 0,-0.90625 0,4.20313 C0,5.59375 0.296875,7 1,8.29688 C2.79688,11.5938 6.59375,13.2969 11.2031,13.2969 C14.5938,13.2969 18.2969,12.4063 21.9063,10.5 C28.5,7 32.5,1.09375 32.5,-4 C32.5,-5.40625 32.2031,-6.79688 31.5,-8.09375"/>
<path class="" transform="matrix(0.992126,0,0,0.992126,2351.45,172.32)" d="M31.5,-8.09375 C29.7031,-11.4063 25.9063,-13.2031 21.2969,-13.2031 C17.9063,-13.2031 14.2031,-12.2031 10.5938,-10.2969 C4,-6.79688 0,-0.90625 0,4.20313 C0,5.59375 0.296875,7 1,8.29688 C2.79688,11.5938 6.59375,13.2969 11.2031,13.2969 C14.5938,13.2969 18.2969,12.4063 21.9063,10.5 C28.5,7 32.5,1.09375 32.5,-4 C32.5,-5.40625 32.2031,-6.79688 31.5,-8.09375"/>
<path class="" transform="matrix(0.992126,0,0,0.992126,1925.6,135.115)" d="M31.5,-8.09375 C29.7031,-11.4063 25.9063,-13.2031 21.2969,-13.2031 C17.9063,-13.2031 14.2031,-12.2031 10.5938,-10.2969 C4,-6.79688 0,-0.90625 0,4.20313 C0,5.59375 0.296875,7 1,8.29688 C2.79688,11.5938 6.59375,13.2969 11.2031,13.2969 C14.5938,13.2969 18.2969,12.4063 21.9063,10.5 C28.5,7 32.5,1.09375 32.5,-4 C32.5,-5.40625 32.2031,-6.79688 31.5,-8.09375"/>
<path class="" transform="matrix(0.992126,0,0,0.992126,1256.9,197.123)" d="M31.5,-8.09375 C29.7031,-11.4063 25.9063,-13.2031 21.2969,-13.2031 C17.9063,-13.2031 14.2031,-12.2031 10.5938,-10.2969 C4,-6.79688 0,-0.90625 0,4.20313 C0,5.59375 0.296875,7 1,8.29688 C2.79688,11.5938 6.59375,13.2969 11.2031,13.2969 C14.5938,13.2969 18.2969,12.4063 21.9063,10.5 C28.5,7 32.5,1.09375 32.5,-4 C32.5,-5.40625 32.2031,-6.79688 31.5,-8.09375"/>
<path class="" transform="matrix(0.992126,0,0,0.992126,1408.53,110.312)" d="M31.5,-8.09375 C29.7031,-11.4063 25.9063,-13.2031 21.2969,-13.2031 C17.9063,-13.2031 14.2031,-12.2031 10.5938,-10.2969 C4,-6.79688 0,-0.90625 0,4.20313 C0,5.59375 0.296875,7 1,8.29688 C2.79688,11.5938 6.59375,13.2969 11.2031,13.2969 C14.5938,13.2969 18.2969,12.4063 21.9063,10.5 C28.5,7 32.5,1.09375 32.5,-4 C32.5,-5.40625 32.2031,-6.79688 31.5,-8.09375"/>
<path class="" transform="matrix(0.992126,0,0,0.992126,1594.39,135.115)" d="M31.5,-8.14063 C29.7031,-11.4375 25.9063,-13.2344 21.2969,-13.2344 C17.9063,-13.2344 14.2031,-12.2344 10.5938,-10.3438 C4,-6.84375 0,-0.9375 0,4.15625 C0,5.5625 0.296875,6.96875 1,8.26563 C2.79688,11.5781 6.59375,13.2813 11.2031,13.2813 C14.5938,13.2813 18.2969,12.375 21.9063,10.4844 C28.5,6.96875 32.5,1.0625 32.5,-4.04688 C32.5,-5.4375 32.2031,-6.84375 31.5,-8.14063 M27.2031,-1.34375 C25.5,0.359375 22.0938,2.45313 18.5,4.46875 C14.9063,6.46875 11.2969,7.96875 8.90625,8.46875 C8.40625,8.57813 7.90625,8.67188 7.40625,8.67188 C5.79688,8.67188 4.59375,8.07813 3.90625,6.76563 C3.59375,6.26563 3.40625,5.67188 3.40625,5.0625 C3.40625,3.96875 4.09375,2.65625 5.20313,1.5625 C6.90625,-0.140625 10.2031,-2.23438 13.7969,-4.23438 C17.4063,-6.23438 21,-7.73438 23.4063,-8.23438 C23.9063,-8.34375 24.4063,-8.4375 24.9063,-8.4375 C26.5,-8.4375 27.7969,-7.84375 28.5,-6.54688 C28.7969,-6.04688 28.9063,-5.4375 28.9063,-4.84375 C28.9063,-3.73438 28.2969,-2.54688 27.2031,-1.34375"/>
<path class="" transform="matrix(0.992126,0,0,0.992126,872.116,172.32)" d="M31.5,-8.09375 C29.7031,-11.4063 25.9063,-13.2031 21.2969,-13.2031 C17.9063,-13.2031 14.2031,-12.2031 10.5938,-10.2969 C4,-6.79688 0,-0.90625 0,4.20313 C0,5.59375 0.296875,7 1,8.29688 C2.79688,11.5938 6.59375,13.2969 11.2031,13.2969 C14.5938,13.2969 18.2969,12.4063 21.9063,10.5 C28.5,7 32.5,1.09375 32.5,-4 C32.5,-5.40625 32.2031,-6.79688 31.5,-8.09375"/>
<path class="" transform="matrix(0.992126,0,0,0.992126,1023.74,159.918)" d="M31.5,-8.09375 C29.7031,-11.4063 25.9063,-13.2031 21.2969,-13.2031 C17.9063,-13.2031 14.2031,-12.2031 10.5938,-10.2969 C4,-6.79688 0,-0.90625 0,4.20313 C0,5.59375 0.296875,7 1,8.29688 C2.79688,11.5938 6.59375,13.2969 11.2031,13.2969 C14.5938,13.2969 18.2969,12.4063 21.9063,10.5 C28.5,7 32.5,1.09375 32.5,-4 C32.5,-5.40625 32.2031,-6.79688 31.5,-8.09375"/>
<path class="" transform="matrix(0.992126,0,0,0.992126,1101.46,172.32)" d="M31.5,-8.09375 C29.7031,-11.4063 25.9063,-13.2031 21.2969,-13.2031 C17.9063,-13.2031 14.2031,-12.2031 10.5938,-10.2969 C4,-6.79688 0,-0.90625 0,4.20313 C0,5.59375 0.296875,7 1,8.29688 C2.79688,11.5938 6.59375,13.2969 11.2031,13.2969 C14.5938,13.2969 18.2969,12.4063 21.9063,10.5 C28.5,7 32.5,1.09375 32.5,-4 C32.5,-5.40625 32.2031,-6.79688 31.5,-8.09375"/>
<path class="" transform="matrix(0.992126,0,0,0.992126,1179.18,184.721)" d="M31.5,-8.09375 C29.7031,-11.4063 25.9063,-13.2031 21.2969,-13.2031 C17.9063,-13.2031 14.2031,-12.2031 10.5938,-10.2969 C4,-6.79688 0,-0.90625 0,4.20313 C0,5.59375 0.296875,7 1,8.29688 C2.79688,11.5938 6.59375,13.2969 11.2031,13.2969 C14.5938,13.2969 18.2969,12.4063 21.9063,10.5 C28.5,7 32.5,1.09375 32.5,-4 C32.5,-5.40625 32.2031,-6.79688 31.5,-8.09375"/>
<path class="" transform="matrix(0.992126,0,0,0.992126,510.494,135.115)" d="M31.5,-8.09375 C29.7031,-11.4063 25.9063,-13.2031 21.2969,-13.2031 C17.9063,-13.2031 14.2031,-12.2031 10.5938,-10.2969 C4,-6.79688 0,-0.90625 0,4.20313 C0,5.59375 0.296875,7 1,8.29688 C2.79688,11.5938 6.59375,13.2969 11.2031,13.2969 C14.5938,13.2969 18.2969,12.4063 21.9063,10.5 C28.5,7 32.5,1.09375 32.5,-4 C32.5,-5.40625 32.2031,-6.79688 31.5,-8.09375"/>
<path class="" transform="matrix(0.992126,0,0,0.992126,662.123,147.517)" d="M31.5,-8.09375 C29.7031,-11.4063 25.9063,-13.2031 21.2969,-13.2031 C17.9063,-13.2031 14.2031,-12.2031 10.5938,-10.2969 C4,-6.79688 0,-0.90625 0,4.20313 C0,5.59375 0.296875,7 1,8.29688 C2.79688,11.5938 6.59375,13.2969 11.2031,13.2969 C14.5938,13.2969 18.2969,12.4063 21.9063,10.5 C28.5,7 32.5,1.09375 32.5,-4 C32.5,-5.40625 32.2031,-6.79688 31.5,-8.09375"/>
<path class="" transform="matrix(0.992126,0,0,0.992126,767.119,159.918)" d="M31.5,-8.09375 C29.7031,-11.4063 25.9063,-13.2031 21.2969,-13.2031 C17.9063,-13.2031 14.2031,-12.2031 10.5938,-10.2969 C4,-6.79688 0,-0.90625 0,4.20313 C0,5.59375 0.296875,7 1,8.29688 C2.79688,11.5938 6.59375,13.2969 11.2031,13.2969 C14.5938,13.2969 18.2969,12.4063 21.9063,10.5 C28.5,7 32.5,1.09375 32.5,-4 C32.5,-5.40625 32.2031,-6.79688 31.5,-8.09375"/>
<path class="" transform="matrix(0.992126,0,0,0.992126,312.234,135.115)" d="M31.5,-8.09375 C29.7031,-11.4063 25.9063,-13.2031 21.2969,-13.2031 C17.9063,-13.2031 14.2031,-12.2031 10.5938,-10.2969 C4,-6.79688 0,-0.90625 0,4.20313 C0,5.59375 0.296875,7 1,8.29688 C2.79688,11.5938 6.59375,13.2969 11.2031,13.2969 C14.5938,13.2969 18.2969,12.4063 21.9063,10.5 C28.5,7 32.5,1.09375 32.5,-4 C32.5,-5.40625 32.2031,-6.79688 31.5,-8.09375"/>
<path class="" transform="matrix(0.992126,0,0,0.992126,33.2454,221.926)" d="M63.3594,-5.92188 C62.125,-11.3438 59.4844,-15.1719 58.7031,-16.2031 C55.5156,-20.4844 51.5,-23.3281 46.8125,-24.6875 C43.7031,-25.5625 40.7031,-25.6875 38.2813,-25.5 C37.2344,-31.5156 36.2344,-37.3906 35.3281,-42.8438 C40.7813,-49.0156 44.4063,-54.8125 46.6875,-59.1094 C50.1563,-65.6875 51.2969,-70.2656 51.3594,-70.4688 C53.0781,-75.6875 53.4375,-83.3906 52.3281,-91.5938 C51.3281,-99.1406 49.2344,-105.859 46.875,-109.109 C45.8594,-110.531 44.7969,-111.266 43.7656,-111.266 C42.5469,-111.266 40.0313,-110.031 37.1406,-107.25 C34.8438,-105.063 31.5781,-101.172 29.0156,-95.1563 C26.0156,-88.0938 25.7969,-78.6094 26.1563,-71.8906 C26.5313,-64.6094 27.6406,-58.9219 27.6563,-58.875 C27.6719,-58.7813 27.9375,-57.2813 28.375,-54.7188 C28.1563,-54.4844 27.9063,-54.2656 27.6563,-54.0156 C26.625,-53.0156 25.4375,-51.8906 24.0469,-50.5 C23.1875,-49.6406 22.2344,-48.7344 21.2344,-47.7656 C12.7969,-39.625 0,-27.2969 0,-8.14063 C0,-3.4375 0.90625,0.984375 2.6875,5 C4.26563,8.59375 6.5625,11.875 9.5,14.75 C17.2344,22.3125 27.8281,25.5156 34.875,25.3594 C37.8281,25.2813 40.4688,25.0469 42.8594,24.5938 C44.6875,34.2031 45.8281,41.2344 45.8594,46.5781 C45.9063,53.0938 44.25,57.0781 40.3594,59.8438 C37.9219,61.5781 35.1094,62.5313 32.0156,62.6719 C29.4219,62.7969 27.1563,62.3281 25.7344,61.9219 L25.7188,61.9219 C25.7188,61.9219 25.4375,61.8281 25.4219,61.6406 C25.4063,61.4531 25.7656,61.4063 25.7656,61.4063 L25.7969,61.4063 C27.7188,60.9688 31.2813,59.7344 33.6406,56.4375 C35.4375,53.9063 36.3125,49.2813 34.4688,45.3438 C33.3594,42.9531 30.8594,40 25.2344,39.5469 C22.7344,39.3438 20.4688,39.8594 18.4688,41.0625 C16.6563,42.1406 15.1563,43.7813 14.1094,45.7813 C11.6563,50.4844 12.1094,56.2188 15.2344,60.0625 C18.2031,63.6875 22.8125,66 28.25,66.5781 C29.1094,66.6719 29.9531,66.7031 30.7969,66.7031 C35.2344,66.7031 39.625,65.5 43.2031,63.2969 C46.8594,60.7188 48.9844,56.7344 49.6563,51.1094 C50.2188,46.4688 49.8281,40.5469 48.4375,32.4688 C48.0781,30.375 47.5313,27.3438 46.875,23.5938 C52.625,21.6719 56.7813,18.0938 60.5469,12.2344 C63.8438,6.5 64.7813,0.390625 63.3594,-5.92188 M29.1406,20.2969 C24.5,19.0781 20.0625,16.5781 16.3125,13.0625 C15,11.8438 13.125,9.67188 11.6563,6.28125 C10.2969,3.10938 9.625,-0.328125 9.6875,-3.90625 C9.75,-8.60938 11.0625,-13.4375 13.5625,-18.2188 C16.4844,-23.7969 21.0469,-29.3281 27.1094,-34.6563 C28.5625,-35.9375 29.9375,-37.2188 31.2188,-38.5 C31.9844,-34.2344 32.8125,-29.5469 33.6875,-24.6719 C29.8438,-23.4063 25.0938,-20.25 21.9844,-14.5938 C18.4375,-8.03125 18.5781,-2.5 19.3125,0.984375 C20.25,5.4375 22.7813,9.20313 26.2344,11.2969 C27.1719,11.8594 31.2969,13.9844 33.1406,13.4063 C33.5156,13.2969 33.7813,13.0625 33.9219,12.7344 C34.4375,11.5625 33.4063,10.9219 31.8594,9.96875 C31.25,9.59375 30.5781,9.17188 29.8594,8.64063 C26.5313,6.15625 25.0781,1.70313 26.1563,-2.6875 C26.7344,-5.07813 28.0156,-7.25 29.8594,-8.95313 C31.5156,-10.5 33.5625,-11.5938 35.9375,-12.2344 C37.9844,-0.984375 40.0469,10.1719 41.6875,18.5313 C41.8125,19.2188 41.9531,19.8906 42.0781,20.5625 C37.7031,21.5 33.3594,21.4063 29.1406,20.2969 M40.4688,-12.9063 C50.8125,-13.375 55.0781,-5.9375 55.9688,-1.10938 C56.4375,1.4375 56.4375,5.875 54.8906,10.0938 C53.7188,13.2656 51.2656,17.3438 46.125,19.4063 C46.0625,18.9844 45.9844,18.5469 45.9063,18.125 C44.3594,9.34375 42.4219,-1.65625 40.4688,-12.9063 M33.1406,-83.8594 C34.9219,-89.5938 37.6563,-92.8438 39.6563,-94.5781 C41.4063,-96.0938 43.0469,-96.8125 43.9688,-96.8125 C44.1094,-96.8125 44.2344,-96.7813 44.3281,-96.75 C44.7969,-96.6094 45.3281,-96.0469 45.7969,-95.1719 C48.1094,-90.8906 47.3594,-84.1719 46.0156,-79.7344 C44.3906,-74.3281 41.4688,-68.7188 32.6719,-59.1094 C32.5,-60.2188 32.3438,-61.2656 32.1875,-62.25 C30.9375,-70.5313 31.2656,-77.8125 33.1406,-83.8594"/>
<path class="" transform="matrix(0.992126,0,0,0.992126,171.135,135.115)" d="M23.2969,-10.5938 C23.9063,-10.7031 24.4063,-11.4063 24.4063,-12 L24.4063,-17.9063 C24.4063,-18.7031 23.7969,-19.2969 23,-19.2969 L22.7969,-19.2969 L19.5,-18.5938 L19.5,-33.5 L16.7031,-33.5 L16.7031,-18 L7.79688,-16.2031 L7.79688,-30.2969 L5,-30.2969 L5,-15.5938 L1.09375,-14.7969 C0.5,-14.7031 0,-14 0,-13.4063 L0,-13.2031 L0,-7.40625 L0,-7.59375 C0,-6.79688 0.59375,-6.20313 1.40625,-6.20313 L1.70313,-6.20313 L5,-6.90625 L5,9.59375 L1.09375,10.4063 C0.5,10.5 0,11.2031 0,11.7969 L0,17.5938 C0,18.4063 0.59375,19 1.40625,19 L1.70313,19 L5,18.2969 L5,33.2031 L7.79688,33.2031 L7.79688,17.7031 L16.7031,15.9063 L16.7031,30 L19.5,30 L19.5,15.2969 L23.2969,14.5938 C23.9063,14.5 24.4063,13.7969 24.4063,13.2031 L24.4063,7.29688 C24.4063,6.5 23.7969,5.90625 23,5.90625 L22.7969,5.90625 L19.5,6.59375 L19.5,-9.90625 L23.2969,-10.5938 M7.79688,9.09375 L7.79688,-7.5 L16.7031,-9.29688 L16.7031,7.20313 L7.79688,9.09375 "/>
<path class="" transform="matrix(0.992126,0,0,0.992126,146.332,184.721)" d="M23.2969,-10.5938 C23.9063,-10.7031 24.4063,-11.4063 24.4063,-12 L24.4063,-17.9063 C24.4063,-18.7031 23.7969,-19.2969 23,-19.2969 L22.7969,-19.2969 L19.5,-18.5938 L19.5,-33.5 L16.7031,-33.5 L16.7031,-18 L7.79688,-16.2031 L7.79688,-30.2969 L5,-30.2969 L5,-15.5938 L1.09375,-14.7969 C0.5,-14.7031 0,-14 0,-13.4063 L0,-13.2031 L0,-7.40625 L0,-7.59375 C0,-6.79688 0.59375,-6.20313 1.40625,-6.20313 L1.70313,-6.20313 L5,-6.90625 L5,9.59375 L1.09375,10.4063 C0.5,10.5 0,11.2031 0,11.7969 L0,17.5938 C0,18.4063 0.59375,19 1.40625,19 L1.70313,19 L5,18.2969 L5,33.2031 L7.79688,33.2031 L7.79688,17.7031 L16.7031,15.9063 L16.7031,30 L19.5,30 L19.5,15.2969 L23.2969,14.5938 C23.9063,14.5 24.4063,13.7969 24.4063,13.2031 L24.4063,7.29688 C24.4063,6.5 23.7969,5.90625 23,5.90625 L22.7969,5.90625 L19.5,6.59375 L19.5,-9.90625 L23.2969,-10.5938 M7.79688,9.09375 L7.79688,-7.5 L16.7031,-9.29688 L16.7031,7.20313 L7.79688,9.09375 "/>
<path class="" transform="matrix(0.992126,0,0,0.992126,121.529,147.517)" d="M23.2969,-10.5938 C23.9063,-10.7031 24.4063,-11.4063 24.4063,-12 L24.4063,-17.9063 C24.4063,-18.7031 23.7969,-19.2969 23,-19.2969 L22.7969,-19.2969 L19.5,-18.5938 L19.5,-33.5 L16.7031,-33.5 L16.7031,-18 L7.79688,-16.2031 L7.79688,-30.2969 L5,-30.2969 L5,-15.5938 L1.09375,-14.7969 C0.5,-14.7031 0,-14 0,-13.4063 L0,-13.2031 L0,-7.40625 L0,-7.59375 C0,-6.79688 0.59375,-6.20313 1.40625,-6.20313 L1.70313,-6.20313 L5,-6.90625 L5,9.59375 L1.09375,10.4063 C0.5,10.5 0,11.2031 0,11.7969 L0,17.5938 C0,18.4063 0.59375,19 1.40625,19 L1.70313,19 L5,18.2969 L5,33.2031 L7.79688,33.2031 L7.79688,17.7031 L16.7031,15.9063 L16.7031,30 L19.5,30 L19.5,15.2969 L23.2969,14.5938 C23.9063,14.5 24.4063,13.7969 24.4063,13.2031 L24.4063,7.29688 C24.4063,6.5 23.7969,5.90625 23,5.90625 L22.7969,5.90625 L19.5,6.59375 L19.5,-9.90625 L23.2969,-10.5938 M7.79688,9.09375 L7.79688,-7.5 L16.7031,-9.29688 L16.7031,7.20313 L7.79688,9.09375 "/>
<path class="" transform="matrix(0.992126,0,0,0.992126,218.781,172.452)" d="M3.59375,12.625 L20.7656,12.625 L20.7656,20.0781 L12.5469,20.0781 C11.7656,20.0781 11.125,20.7031 11.125,21.4844 L11.125,23.3906 C11.125,24.1719 11.7656,24.7969 12.5469,24.7969 L42.7969,24.7969 C43.5781,24.7969 44.2031,24.1719 44.2031,23.3906 L44.2031,21.4844 C44.2031,20.7031 43.5781,20.0781 42.7969,20.0781 L33.8594,20.0781 L33.8594,12.625 L42.7969,12.625 C43.5781,12.625 44.2031,12 44.2031,11.2188 L44.2031,9.3125 C44.2031,8.53125 43.5781,7.90625 42.7969,7.90625 L33.8594,7.90625 L33.8594,-8.0625 C33.8594,-8.59375 33.5469,-9.07813 33.0781,-9.3125 L31.8594,-9.92188 C31.3281,-10.1719 30.7031,-10.0781 30.2656,-9.6875 L21.2188,-1.375 C20.9375,-1.09375 20.7656,-0.734375 20.7656,-0.328125 L20.7656,7.90625 L9.25,7.90625 C9.25,7.90625 20.375,-4.125 32.2188,-19.8906 C33.0781,-21.0469 32.5781,-22.0938 32.3906,-22.2813 L30.2188,-24.4844 C29.9531,-24.75 29.5938,-24.9063 29.2188,-24.9063 C28.625,-24.9063 15.0625,-24.875 14.3438,-24.9063 C13.625,-24.9219 13.0938,-24.2969 13.0156,-23.6875 C13.0156,-23.6875 12.4844,-16.3281 9.875,-8.1875 C7.28125,-0.078125 4.34375,4.90625 1.6875,8.53125 C1.6875,8.53125 1.14063,9.51563 1.5,10.2656 C1.84375,11.0156 2.48438,12.0938 2.48438,12.0938 C2.48438,12.0938 2.73438,12.625 3.59375,12.625"/>
<path class="" transform="matrix(0.992126,0,0,0.992126,218.781,221.794)" d="M3.59375,12.625 L20.7656,12.625 L20.7656,20.0781 L12.5469,20.0781 C11.7656,20.0781 11.125,20.7031 11.125,21.4844 L11.125,23.3906 C11.125,24.1719 11.7656,24.7969 12.5469,24.7969 L42.7969,24.7969 C43.5781,24.7969 44.2031,24.1719 44.2031,23.3906 L44.2031,21.4844 C44.2031,20.7031 43.5781,20.0781 42.7969,20.0781 L33.8594,20.0781 L33.8594,12.625 L42.7969,12.625 C43.5781,12.625 44.2031,12 44.2031,11.2188 L44.2031,9.3125 C44.2031,8.53125 43.5781,7.90625 42.7969,7.90625 L33.8594,7.90625 L33.8594,-8.0625 C33.8594,-8.59375 33.5469,-9.07813 33.0781,-9.3125 L31.8594,-9.92188 C31.3281,-10.1719 30.7031,-10.0781 30.2656,-9.6875 L21.2188,-1.375 C20.9375,-1.09375 20.7656,-0.734375 20.7656,-0.328125 L20.7656,7.90625 L9.25,7.90625 C9.25,7.90625 20.375,-4.125 32.2188,-19.8906 C33.0781,-21.0469 32.5781,-22.0938 32.3906,-22.2813 L30.2188,-24.4844 C29.9531,-24.75 29.5938,-24.9063 29.2188,-24.9063 C28.625,-24.9063 15.0625,-24.875 14.3438,-24.9063 C13.625,-24.9219 13.0938,-24.2969 13.0156,-23.6875 C13.0156,-23.6875 12.4844,-16.3281 9.875,-8.1875 C7.28125,-0.078125 4.34375,4.90625 1.6875,8.53125 C1.6875,8.53125 1.14063,9.51563 1.5,10.2656 C1.84375,11.0156 2.48438,12.0938 2.48438,12.0938 C2.48438,12.0938 2.73438,12.625 3.59375,12.625"/>
<path class="" d="M2337.55,390.465 L2361.04,390.465 L2361.04,388.324 L2353.12,388.324 L2359.23,371.543 L2359.49,372.262 C2359.49,372.262 2360.6,374.684 2364.12,375.559 C2364.77,375.731 2365.43,375.778 2366.1,375.778 C2371.82,375.778 2377.7,369.84 2379.84,361.434 C2380.45,359.121 2380.66,357.199 2380.66,355.543 C2380.66,348.559 2376.32,346.746 2374.73,346.356 C2374.29,346.246 2373.79,346.199 2373.35,346.199 C2370.12,346.199 2366.8,348.887 2365.05,350.653 L2364.77,350.981 L2364.62,350.59 C2364.62,350.543 2362.41,346.684 2358.73,346.137 C2358.34,346.09 2357.96,346.028 2357.57,346.028 C2354.1,346.028 2350.48,348.449 2347.51,357.028 L2349.38,357.965 C2349.82,356.59 2350.98,353.293 2352.18,351.637 C2352.79,350.699 2353.95,349.824 2354.93,349.668 C2355.43,349.543 2355.8,349.668 2356.15,349.887 C2356.52,350.153 2356.7,350.699 2356.7,351.481 C2356.7,354.012 2354.88,358.512 2354.38,359.559 L2343.99,388.324 L2337.55,388.324 L2337.55,390.465 M2363.9,372.215 C2363.68,372.215 2363.35,372.153 2363.13,372.09 C2361.59,371.496 2361.15,369.684 2361.15,367.637 C2361.15,364.403 2362.35,360.606 2362.41,360.324 C2363.4,356.371 2366.32,351.965 2369.07,350.434 C2369.77,349.996 2370.49,349.824 2371.1,349.824 C2371.37,349.824 2371.65,349.824 2371.93,349.934 C2372.37,350.043 2372.7,350.434 2372.91,350.871 C2373.24,351.481 2373.35,352.293 2373.35,353.231 C2373.35,356.043 2372.26,359.84 2371.65,361.699 C2370.34,365.778 2367.74,370.668 2365.1,371.934 C2364.77,372.09 2364.23,372.215 2363.9,372.215"/>
<path class="" d="M1583.04,380.231 C1580.23,380.231 1577.59,382.871 1577.59,385.684 C1577.59,391.184 1581.34,394.199 1586.12,394.199 C1589.48,394.199 1591.88,393.106 1594.52,390.465 C1599.1,385.903 1604.1,370.278 1606.68,361.371 C1607.62,358.074 1608.6,354.715 1609.32,352.293 L1609.38,352.074 L1616.91,352.074 C1617.52,352.074 1618.01,351.637 1618.01,351.043 L1618.01,348.778 C1618.01,348.168 1617.52,347.684 1616.91,347.684 L1610.65,347.684 L1610.76,347.293 C1613.66,336.512 1614.56,334.699 1616.09,333.496 C1616.91,332.84 1617.68,332.668 1618.18,332.668 C1618.4,332.668 1618.56,332.668 1618.66,332.731 C1619.16,332.84 1619.56,333.215 1619.71,333.606 C1619.77,333.824 1619.82,333.981 1619.82,334.215 C1619.82,334.699 1619.6,335.199 1619.23,335.418 C1618.18,336.246 1617.63,337.512 1617.63,338.887 C1617.63,339.371 1617.68,339.934 1617.85,340.481 C1618.12,341.465 1618.95,342.34 1620.04,342.84 C1620.49,343.059 1621.09,343.231 1621.87,343.231 C1622.63,343.231 1623.46,343.059 1624.45,342.512 C1625.71,341.856 1626.54,340.809 1626.91,339.481 C1627.09,338.934 1627.15,338.324 1627.15,337.731 C1627.15,336.403 1626.76,334.981 1626.1,333.762 C1625.21,332.231 1622.74,330.356 1619.38,329.809 C1618.84,329.699 1618.29,329.637 1617.63,329.637 C1615.1,329.637 1611.81,330.528 1608.38,333.653 C1605.7,336.137 1603.27,340.59 1600.96,347.465 L1600.91,347.684 L1592.99,347.684 C1592.38,347.684 1591.95,348.168 1591.95,348.778 L1591.95,351.043 C1591.95,351.637 1592.38,352.137 1592.99,352.137 L1599.54,352.137 L1599.43,352.465 C1598.38,356.653 1597.62,360.278 1596.84,363.746 C1595.96,367.59 1595.02,371.606 1593.82,376.449 L1593.54,377.653 C1591.34,386.231 1590.63,389.371 1588.1,391.012 C1587.6,391.34 1586.95,391.559 1586.34,391.559 C1585.79,391.559 1585.29,391.403 1584.9,391.074 C1584.63,390.856 1584.2,390.403 1584.31,389.856 C1584.35,389.418 1584.68,389.09 1585.18,388.871 C1587.21,388.043 1587.82,386.059 1587.82,384.418 C1587.82,382.934 1586.84,380.231 1583.04,380.231"/>
<path class="" d="M873.207,380.231 C870.394,380.231 867.753,382.871 867.753,385.684 C867.753,391.184 871.503,394.199 876.285,394.199 C879.628,394.199 882.05,393.106 884.691,390.465 C889.253,385.903 894.269,370.278 896.847,361.371 C897.785,358.074 898.769,354.715 899.488,352.293 L899.55,352.074 L907.082,352.074 C907.675,352.074 908.175,351.637 908.175,351.043 L908.175,348.778 C908.175,348.168 907.675,347.684 907.082,347.684 L900.8,347.684 L900.925,347.293 C903.832,336.512 904.707,334.699 906.253,333.496 C907.082,332.84 907.847,332.668 908.347,332.668 C908.566,332.668 908.722,332.668 908.832,332.731 C909.332,332.84 909.722,333.215 909.878,333.606 C909.941,333.824 909.988,333.981 909.988,334.215 C909.988,334.699 909.769,335.199 909.394,335.418 C908.347,336.246 907.785,337.512 907.785,338.887 C907.785,339.371 907.847,339.934 908.019,340.481 C908.285,341.465 909.113,342.34 910.207,342.84 C910.644,343.059 911.253,343.231 912.019,343.231 C912.8,343.231 913.628,343.059 914.613,342.512 C915.878,341.856 916.707,340.809 917.082,339.481 C917.253,338.934 917.3,338.324 917.3,337.731 C917.3,336.403 916.925,334.981 916.253,333.762 C915.378,332.231 912.91,330.356 909.55,329.809 C909.003,329.699 908.457,329.637 907.785,329.637 C905.269,329.637 901.957,330.528 898.55,333.653 C895.863,336.137 893.441,340.59 891.128,347.465 L891.082,347.684 L883.16,347.684 C882.55,347.684 882.113,348.168 882.113,348.778 L882.113,351.043 C882.113,351.637 882.55,352.137 883.16,352.137 L889.707,352.137 L889.582,352.465 C888.55,356.653 887.769,360.278 887.003,363.746 C886.128,367.59 885.191,371.606 883.972,376.449 L883.707,377.653 C881.503,386.231 880.785,389.371 878.253,391.012 C877.769,391.34 877.113,391.559 876.503,391.559 C875.957,391.559 875.457,391.403 875.066,391.074 C874.8,390.856 874.363,390.403 874.472,389.856 C874.519,389.418 874.847,389.09 875.347,388.871 C877.378,388.043 877.988,386.059 877.988,384.418 C877.988,382.934 877.003,380.231 873.207,380.231 M878.597,368.856 C878.097,369.684 877.597,369.949 877.113,369.949 C876.878,369.949 876.722,369.903 876.503,369.84 C875.894,369.621 875.675,369.231 875.675,368.637 C875.675,367.746 876.175,366.543 876.55,365.278 C876.769,364.621 877.332,362.59 877.488,362.028 C878.097,360.106 878.925,355.824 878.925,353.074 C878.925,352.528 878.863,352.028 878.816,351.637 C878.316,348.84 877.003,347.465 874.8,347.465 C872.097,347.465 869.238,349.387 867.863,351.199 L867.597,351.637 L867.378,351.153 C867.378,351.09 865.722,347.403 862.925,347.403 C860.003,347.403 857.863,348.559 856.097,350.981 L855.769,351.418 L855.597,350.871 C855.597,350.809 854.285,347.949 851.644,347.403 C851.097,347.293 850.597,347.246 850.16,347.246 C847.582,347.246 846.035,348.887 845.316,349.668 C844.722,350.324 843.175,352.856 842.457,355.106 L844.003,355.981 C844.003,355.981 845.816,350.371 848.128,350.371 C848.285,350.371 848.457,350.434 848.613,350.481 C849.222,350.699 849.503,351.199 849.503,352.028 C849.503,353.512 848.613,355.981 847.472,359.34 C847.41,359.449 843.566,371.059 843.285,371.934 C843.175,372.371 843.175,372.871 843.394,373.137 C843.566,373.418 843.894,373.528 844.269,373.528 L845.816,373.528 L849.832,373.528 C849.988,373.528 850.55,373.465 850.925,371.824 C851.425,369.512 851.925,367.699 852.363,366.262 C852.8,364.731 856.644,350.981 860.222,350.981 C860.441,350.981 860.722,351.153 860.832,351.309 C860.988,351.59 861.097,351.918 861.097,352.465 C861.097,354.278 860.113,357.574 858.847,361.809 C857.316,366.871 855.769,371.871 855.769,371.871 C855.707,372.09 855.597,372.809 855.941,373.199 C856.097,373.418 856.378,373.528 856.753,373.528 L862.472,373.528 C862.972,373.528 863.41,373.356 863.628,372.262 C863.628,372.153 863.691,371.934 863.738,371.606 C865.832,356.981 869.191,352.574 871.613,351.481 C871.722,351.418 871.832,351.418 871.941,351.418 C872.05,351.418 872.16,351.418 872.207,351.481 C872.488,351.59 872.707,351.965 872.707,352.465 C872.707,353.512 872.097,357.684 869.894,363.293 C869.238,364.949 868.972,366.434 868.972,367.856 C868.972,369.356 869.3,370.668 870.019,371.715 C870.832,372.918 872.707,373.59 874.128,373.59 C878.753,373.59 880.566,369.793 881.941,366.153 C882.003,365.996 882.113,365.778 882.16,365.606 L880.457,364.778 C880.457,364.778 879.3,367.637 878.597,368.856"/>
<path class="" d="M298.34,362.879 L321.825,362.879 L321.825,360.739 L313.903,360.739 L320.012,343.958 L320.278,344.676 C320.278,344.676 321.387,347.098 324.903,347.973 C325.559,348.145 326.215,348.192 326.887,348.192 C332.606,348.192 338.481,342.254 340.622,333.848 C341.231,331.536 341.45,329.614 341.45,327.958 C341.45,320.973 337.106,319.161 335.512,318.77 C335.075,318.661 334.575,318.614 334.137,318.614 C330.903,318.614 327.59,321.301 325.84,323.067 L325.559,323.395 L325.403,323.004 C325.403,322.958 323.2,319.098 319.512,318.551 C319.122,318.504 318.747,318.442 318.356,318.442 C314.887,318.442 311.262,320.864 308.293,329.442 L310.168,330.379 C310.606,329.004 311.762,325.708 312.965,324.051 C313.575,323.114 314.731,322.239 315.715,322.083 C316.215,321.958 316.59,322.083 316.934,322.301 C317.309,322.567 317.481,323.114 317.481,323.895 C317.481,326.426 315.668,330.926 315.168,331.973 L304.778,360.739 L298.34,360.739 L298.34,362.879 M324.684,344.629 C324.465,344.629 324.137,344.567 323.918,344.504 C322.372,343.911 321.934,342.098 321.934,340.051 C321.934,336.817 323.137,333.02 323.2,332.739 C324.184,328.786 327.106,324.379 329.856,322.848 C330.559,322.411 331.278,322.239 331.887,322.239 C332.153,322.239 332.434,322.239 332.715,322.348 C333.153,322.458 333.481,322.848 333.7,323.286 C334.028,323.895 334.137,324.708 334.137,325.645 C334.137,328.458 333.043,332.254 332.434,334.114 C331.122,338.192 328.528,343.083 325.887,344.348 C325.559,344.504 325.012,344.629 324.684,344.629"/>
<path class="" fill-rule="evenodd" d="M1925.6,231.847 L2235.89,231.847 L2235.89,249.21 L1925.6,249.21 L1925.6,231.847 "/>
<path class="" fill-rule="evenodd" d="M2114.87,202.332 L2235.89,202.332 L2235.89,219.694 L2114.87,219.694 L2114.87,202.332 "/>
<path class="" fill-rule="evenodd" d="M1256.9,262.851 L1411.26,262.851 L1411.26,280.214 L1256.9,280.214 L1256.9,262.851 "/>
<path class="" fill-rule="evenodd" d="M872.116,256.651 L1181.91,256.651 L1181.91,274.013 L872.116,274.013 L872.116,256.651 "/>
<path class="" fill-rule="evenodd" d="M1023.74,227.135 L1181.91,227.135 L1181.91,244.497 L1023.74,244.497 L1023.74,227.135 "/>
<path class="" fill-rule="evenodd" d="M510.494,231.847 L769.848,231.847 L769.848,249.21 L510.494,249.21 L510.494,231.847 "/>
<path class="" fill-rule="evenodd" d="M662.123,202.332 L769.848,202.332 L769.848,219.694 L662.123,219.694 L662.123,202.332 "/>
<path class="" d="M1096.45,305.432 C1097.59,304.916 1098.17,303.572 1097.67,302.416 C1097.59,302.229 1097.53,302.041 1097.53,301.916 C1097.46,301.213 1098.68,299.666 1100.92,299.541 C1103.54,299.416 1104.89,299.604 1105.15,303.322 C1105.28,305.744 1101.43,306.713 1100.42,306.838 C1099.14,307.088 1098.37,308.244 1098.49,309.401 C1098.62,310.619 1099.84,311.385 1100.79,311.447 C1101.7,311.447 1106.81,311.635 1107.32,316.057 C1107.39,316.369 1107.45,316.697 1107.45,317.01 C1107.71,321.869 1105.59,323.479 1101.49,323.666 C1100.15,323.729 1098.93,323.354 1098.04,322.776 C1096.39,321.682 1095.81,320.151 1097.03,318.291 C1097.73,317.276 1097.4,315.791 1096.39,315.088 C1095.35,314.385 1093.95,314.713 1093.24,315.729 C1090.49,319.885 1092.09,324.369 1095.48,326.619 C1097.21,327.76 1099.45,328.401 1101.76,328.276 C1107.78,327.963 1112.39,324.119 1111.99,316.76 C1111.99,316.307 1111.99,315.932 1111.93,315.479 C1111.54,312.088 1109.7,309.916 1107.51,308.572 C1108.79,307.354 1109.82,305.432 1109.7,303.057 C1109.31,296.541 1104.7,294.682 1100.67,294.932 C1097.15,295.119 1092.6,297.682 1092.92,302.229 C1092.99,302.869 1093.18,303.635 1093.43,304.276 C1093.95,305.432 1095.29,305.947 1096.45,305.432"/>
<polyline class="" fill="none" stroke="#000000" stroke-width="2.48" stroke-linecap="square" stroke-linejoin="bevel" points="1011.34,287.655 1011.34,312.458 1077.56,312.006"/>
<polyline class="" fill="none" stroke="#000000" stroke-width="2.48" stroke-linecap="square" stroke-linejoin="bevel" points="1125.37,311.68 1211.42,311.093 1211.42,286.29"/>
<path class="" d="M249.39,4.49652 L245.593,4.49652 L245.593,56.2309 C244.296,55.4496 242.703,54.9653 240.874,54.7778 C240.374,54.7153 239.859,54.6996 239.343,54.6996 C236.203,54.6996 232.843,55.5903 229.687,57.2934 C226.015,59.2778 223.093,62.1059 221.437,65.2621 C219.781,68.434 219.609,71.559 220.953,74.0434 C222.546,76.9965 225.999,78.5434 230.093,78.5434 C233.14,78.5434 236.515,77.684 239.765,75.9496 C245.671,72.7465 249.359,67.4809 249.39,62.8715 L249.39,4.49652 "/>
<path class="" d="M311.312,48.184 L273.218,48.184 L273.218,41.559 L311.312,41.559 L311.312,48.184 M311.312,65.0278 L273.218,65.0278 L273.218,58.4028 L311.312,58.4028 L311.312,65.0278 M361.265,53.434 L365.609,53.434 L365.609,61.0903 L361.265,61.0903 L361.265,71.0278 L351.249,71.0278 L351.249,61.0903 L334.14,61.0903 L334.14,53.2934 C337.869,47.408 343.713,39.2674 351.671,28.8715 L355.734,23.559 L361.265,23.559 L361.265,53.434 M351.39,53.434 L351.39,32.934 L336.968,53.434 L351.39,53.434 M368.984,47.5746 C368.984,40.8038 370.479,35.1085 373.468,30.4887 C376.458,25.8689 380.161,23.559 384.578,23.559 C389.046,23.559 392.762,25.8689 395.726,30.4887 C398.69,35.1085 400.171,40.8715 400.171,47.7778 C400.171,54.7257 398.7,60.4861 395.757,65.059 C392.815,69.6319 389.114,71.9184 384.656,71.9184 C380.052,71.9184 376.288,69.6424 373.367,65.0903 C370.445,60.5382 368.984,54.6996 368.984,47.5746 M384.656,69.9965 C386.166,69.9965 387.315,68.9601 388.101,66.8871 C388.887,64.8142 389.281,61.0903 389.281,55.7153 L389.281,39.9028 C389.281,34.7986 388.911,31.1189 388.171,28.8637 C387.432,26.6085 386.213,25.4809 384.515,25.4809 C382.859,25.4809 381.674,26.5851 380.96,28.7934 C380.247,31.0017 379.89,34.7049 379.89,39.9028 L379.89,55.7153 C379.89,60.8194 380.257,64.4757 380.992,66.684 C381.726,68.8924 382.947,69.9965 384.656,69.9965"/>
<path class="" d="M524.494,434.835 C522.65,438.023 520.291,440.632 519.291,440.632 C518.9,440.632 518.541,440.179 518.541,439.726 C518.541,439.382 518.947,437.773 519.588,435.632 L523.104,423.835 L528.791,423.835 L529.697,420.773 L523.994,420.773 L526.744,411.429 L518.9,411.429 L516.088,420.773 L511.744,420.773 L510.838,423.835 L515.197,423.835 L511.947,434.835 C510.744,438.882 510.697,439.132 510.697,440.476 C510.697,442.773 512.791,444.632 515.447,444.632 C518.041,444.632 520.494,443.335 522.947,440.773 C523.947,439.632 524.494,438.929 526.354,436.132 L524.494,434.835 M544.291,420.023 L531.791,420.773 L531.447,423.132 L532.635,423.132 C535.088,423.132 535.697,423.429 535.697,424.679 C535.697,425.226 535.494,426.085 534.947,427.976 L530.197,443.929 L538.041,443.929 L540.135,437.023 C541.541,432.226 544.041,427.585 546.447,425.226 C547.244,424.476 548.088,423.929 548.494,423.929 C548.838,423.929 548.994,424.132 548.994,424.585 C548.994,425.335 549.041,425.679 549.15,426.132 C549.494,427.585 550.9,428.585 552.494,428.585 C554.65,428.585 556.244,426.773 556.244,424.429 C556.244,421.726 554.447,420.023 551.588,420.023 C548.291,420.023 545.838,421.773 542.744,426.429 L544.291,420.023 M575.322,437.679 C572.432,440.585 570.275,441.726 567.729,441.726 C565.025,441.726 563.369,439.976 563.369,437.132 C563.369,436.476 563.416,435.976 563.525,434.882 C566.479,434.726 568.619,434.382 570.979,433.726 C576.682,432.023 579.479,429.523 579.479,426.085 C579.479,422.632 575.979,420.023 571.275,420.023 C562.869,420.023 555.479,427.226 555.479,435.429 C555.479,441.382 559.072,444.632 565.666,444.632 C570.229,444.632 573.932,442.929 577.072,439.382 L575.322,437.679 M563.979,432.585 C565.119,426.476 568.072,422.382 571.182,422.382 C572.525,422.382 573.369,423.273 573.369,424.726 C573.369,426.476 572.275,428.476 570.572,429.929 C568.822,431.429 567.072,432.085 563.979,432.585 M567.072,417.179 L569.775,417.179 L578.025,412.773 C578.979,412.273 579.479,411.523 579.479,410.57 C579.479,409.132 578.275,407.976 576.775,407.976 C575.572,407.976 574.979,408.32 573.275,410.226 L567.072,417.179 M594.463,420.023 C588.213,420.023 584.307,423.085 584.307,427.976 C584.307,430.632 585.416,432.476 587.916,434.023 C588.963,434.679 589.213,434.773 592.104,436.023 C594.213,436.882 595.01,437.726 595.01,439.085 C595.01,441.023 593.01,442.476 590.26,442.476 C588.416,442.476 587.104,441.929 587.104,441.226 C587.104,441.023 587.213,440.882 587.354,440.773 C588.416,439.882 588.666,439.429 588.666,438.429 C588.666,436.679 587.104,435.335 585.104,435.335 C583.01,435.335 581.604,436.726 581.604,438.882 C581.604,442.335 585.213,444.632 590.51,444.632 C597.057,444.632 601.463,441.382 601.463,436.476 C601.463,433.023 599.807,431.226 594.307,428.835 C591.354,427.585 590.416,426.726 590.416,425.382 C590.416,423.632 592.26,422.382 594.869,422.382 C596.369,422.382 597.666,422.882 597.666,423.429 C597.666,423.585 597.557,423.726 597.369,424.023 C596.619,424.976 596.463,425.273 596.463,426.085 C596.463,427.773 597.916,429.085 599.916,429.085 C601.963,429.085 603.369,427.679 603.369,425.585 C603.369,422.335 599.666,420.023 594.463,420.023 M653.057,407.132 L639.307,407.82 L638.947,410.179 L640.557,410.179 C643.057,410.179 643.604,410.476 643.604,411.726 C643.604,412.273 643.4,413.132 642.854,415.07 L640.447,423.132 C639.26,421.085 637.15,420.023 634.197,420.023 C626.807,420.023 619.9,427.523 619.9,435.585 C619.9,440.882 623.494,444.632 628.604,444.632 C631.854,444.632 633.947,443.523 636.697,440.382 C636.76,441.226 636.76,441.726 636.807,441.882 C637.26,443.523 638.947,444.632 641.01,444.632 C643.51,444.632 645.76,443.382 648.197,440.585 C649.557,439.023 650.697,437.523 651.51,436.085 L649.557,434.882 C647.65,437.835 645.197,440.429 644.307,440.429 C643.947,440.429 643.604,440.023 643.604,439.632 C643.604,439.273 643.604,439.226 644.104,437.382 L653.057,407.132 M635.807,422.773 C637.604,422.773 638.854,424.273 638.854,426.382 C638.854,428.929 637.76,433.085 636.307,436.273 C634.807,439.476 633.01,441.132 631.057,441.132 C629.197,441.132 628.057,439.632 628.057,437.179 C628.057,434.523 629.057,430.585 630.494,427.523 C631.994,424.335 633.76,422.773 635.807,422.773 M669.447,420.023 C660.947,420.023 653.744,426.726 653.744,434.585 C653.744,437.476 654.9,440.382 656.744,442.085 C658.494,443.773 661.088,444.632 664.244,444.632 C673.354,444.632 680.244,438.179 680.244,429.679 C680.244,426.726 679.244,424.273 677.447,422.726 C675.494,421.023 672.541,420.023 669.447,420.023 M669.244,422.382 C671.197,422.382 672.494,423.929 672.494,426.226 C672.494,428.882 671.4,433.726 669.994,437.273 C668.65,440.773 666.9,442.476 664.697,442.476 C662.65,442.476 661.494,441.023 661.494,438.523 C661.494,435.523 662.447,431.023 663.744,427.835 C665.244,424.226 667.104,422.382 669.244,422.382 M711.791,420.773 L703.885,420.773 L701.479,428.976 C700.682,431.632 699.588,433.929 698.088,435.976 C696.291,438.523 693.885,440.429 692.588,440.429 C691.932,440.429 691.338,439.835 691.338,439.179 C691.338,438.929 691.729,437.429 692.385,435.273 L696.885,420.085 L684.229,420.773 L683.885,423.132 L684.385,423.132 C686.838,423.132 687.432,423.429 687.432,424.679 C687.432,425.179 687.229,426.023 686.635,427.976 L684.885,434.023 C684.025,436.882 683.838,437.773 683.838,439.179 C683.838,442.429 686.025,444.632 689.338,444.632 C692.525,444.632 695.291,442.976 698.479,439.085 C698.432,439.585 698.432,439.976 698.432,440.382 C698.432,443.179 700.088,444.632 703.291,444.632 C707.088,444.632 709.932,442.382 713.885,436.335 L711.979,434.929 C709.838,438.273 707.885,440.382 707.041,440.382 C706.635,440.382 706.338,440.085 706.338,439.679 C706.338,439.179 706.338,439.179 707.135,436.335 L711.791,420.773 M727.166,437.226 L727.322,437.929 C727.916,440.679 728.369,441.835 729.166,442.773 C730.119,443.976 731.479,444.632 733.025,444.632 C735.369,444.632 737.322,443.429 739.119,440.835 C740.369,439.085 741.322,437.273 741.979,435.476 L740.025,434.476 C738.775,437.679 737.369,439.523 736.275,439.523 C735.229,439.523 734.822,438.523 733.869,433.929 L733.072,429.882 C736.229,425.226 737.525,423.726 738.479,423.726 C738.775,423.726 738.869,423.929 738.932,424.335 C738.932,426.023 740.025,427.023 741.869,427.023 C743.729,427.023 745.119,425.585 745.119,423.585 C745.119,421.476 743.525,420.023 741.119,420.023 C738.322,420.023 736.619,421.226 733.525,425.335 L732.432,426.773 L732.322,426.382 C731.432,421.976 729.775,420.023 726.916,420.023 C724.572,420.023 722.525,421.335 720.322,424.226 C719.166,425.679 718.322,427.023 717.572,428.632 L719.572,429.679 L720.072,428.773 C721.072,427.085 721.072,427.085 721.322,426.726 C722.275,425.382 722.729,425.023 723.369,425.023 C724.322,425.023 724.666,425.773 725.775,430.929 L726.479,434.132 L724.416,436.976 C722.619,439.523 721.619,440.523 720.869,440.523 C720.619,440.523 720.525,440.382 720.416,439.976 C720.025,438.382 718.979,437.476 717.479,437.476 C715.479,437.476 714.119,438.835 714.119,440.929 C714.119,443.132 715.775,444.679 718.166,444.679 C720.525,444.679 723.229,442.835 725.322,439.835 L727.166,437.226 M779.354,437.679 C776.463,440.585 774.307,441.726 771.76,441.726 C769.057,441.726 767.4,439.976 767.4,437.132 C767.4,436.476 767.447,435.976 767.557,434.882 C770.51,434.726 772.65,434.382 775.01,433.726 C780.713,432.023 783.51,429.523 783.51,426.085 C783.51,422.632 780.01,420.023 775.307,420.023 C766.9,420.023 759.51,427.226 759.51,435.429 C759.51,441.382 763.104,444.632 769.697,444.632 C774.26,444.632 777.963,442.929 781.104,439.382 L779.354,437.679 M768.01,432.585 C769.15,426.476 772.104,422.382 775.213,422.382 C776.557,422.382 777.4,423.273 777.4,424.726 C777.4,426.476 776.307,428.476 774.604,429.929 C772.854,431.429 771.104,432.085 768.01,432.585 M799.791,434.835 C797.947,438.023 795.588,440.632 794.588,440.632 C794.197,440.632 793.838,440.179 793.838,439.726 C793.838,439.382 794.244,437.773 794.885,435.632 L798.4,423.835 L804.088,423.835 L804.994,420.773 L799.291,420.773 L802.041,411.429 L794.197,411.429 L791.385,420.773 L787.041,420.773 L786.135,423.835 L790.494,423.835 L787.244,434.835 C786.041,438.882 785.994,439.132 785.994,440.476 C785.994,442.773 788.088,444.632 790.744,444.632 C793.338,444.632 795.791,443.335 798.244,440.773 C799.244,439.632 799.791,438.929 801.65,436.132 L799.791,434.835 M852.635,407.132 L838.885,407.82 L838.525,410.179 L840.135,410.179 C842.635,410.179 843.182,410.476 843.182,411.726 C843.182,412.273 842.979,413.132 842.432,415.07 L840.025,423.132 C838.838,421.085 836.729,420.023 833.775,420.023 C826.385,420.023 819.479,427.523 819.479,435.585 C819.479,440.882 823.072,444.632 828.182,444.632 C831.432,444.632 833.525,443.523 836.275,440.382 C836.338,441.226 836.338,441.726 836.385,441.882 C836.838,443.523 838.525,444.632 840.588,444.632 C843.088,444.632 845.338,443.382 847.775,440.585 C849.135,439.023 850.275,437.523 851.088,436.085 L849.135,434.882 C847.229,437.835 844.775,440.429 843.885,440.429 C843.525,440.429 843.182,440.023 843.182,439.632 C843.182,439.273 843.182,439.226 843.682,437.382 L852.635,407.132 M835.385,422.773 C837.182,422.773 838.432,424.273 838.432,426.382 C838.432,428.929 837.338,433.085 835.885,436.273 C834.385,439.476 832.588,441.132 830.635,441.132 C828.775,441.132 827.635,439.632 827.635,437.179 C827.635,434.523 828.635,430.585 830.072,427.523 C831.572,424.335 833.338,422.773 835.385,422.773 M872.572,437.679 C869.682,440.585 867.525,441.726 864.979,441.726 C862.275,441.726 860.619,439.976 860.619,437.132 C860.619,436.476 860.666,435.976 860.775,434.882 C863.729,434.726 865.869,434.382 868.229,433.726 C873.932,432.023 876.729,429.523 876.729,426.085 C876.729,422.632 873.229,420.023 868.525,420.023 C860.119,420.023 852.729,427.226 852.729,435.429 C852.729,441.382 856.322,444.632 862.916,444.632 C867.479,444.632 871.182,442.929 874.322,439.382 L872.572,437.679 M861.229,432.585 C862.369,426.476 865.322,422.382 868.432,422.382 C869.775,422.382 870.619,423.273 870.619,424.726 C870.619,426.476 869.525,428.476 867.822,429.929 C866.072,431.429 864.322,432.085 861.229,432.585 M864.322,417.179 L867.025,417.179 L875.275,412.773 C876.229,412.273 876.729,411.523 876.729,410.57 C876.729,409.132 875.525,407.976 874.025,407.976 C872.822,407.976 872.229,408.32 870.525,410.226 L864.322,417.179 M895.807,407.132 L882.463,407.82 L882.104,410.179 L883.307,410.179 C885.807,410.179 886.354,410.476 886.354,411.726 C886.354,412.273 886.15,413.132 885.604,415.023 L879.76,434.835 C878.854,437.773 878.604,438.929 878.604,440.085 C878.604,442.835 880.65,444.632 883.713,444.632 C886.057,444.632 887.9,443.835 889.963,441.835 C891.713,440.226 893.213,438.382 894.26,436.476 L892.307,435.132 C890.307,438.429 888.057,440.773 886.963,440.773 C886.557,440.773 886.213,440.429 886.213,439.929 C886.213,439.679 886.307,439.132 886.463,438.632 C886.463,438.632 886.65,438.085 886.713,437.835 L895.807,407.132 M911.854,420.023 L898.494,420.773 L898.15,423.132 L899.338,423.132 C901.838,423.132 902.4,423.429 902.4,424.679 C902.4,425.226 902.197,426.085 901.65,427.976 L899.088,436.476 C898.447,438.726 898.338,439.179 898.338,440.132 C898.338,442.773 900.494,444.632 903.541,444.632 C907.338,444.632 910.494,442.132 913.9,436.476 L911.947,435.132 C909.494,439.023 907.9,440.773 906.9,440.773 C906.447,440.773 906.088,440.429 906.088,439.976 C906.088,439.523 906.15,439.382 906.588,437.835 L911.854,420.023 M909.15,407.07 C906.791,407.07 904.9,408.976 904.9,411.32 C904.9,413.632 906.791,415.57 909.088,415.57 C911.494,415.57 913.4,413.679 913.4,411.32 C913.4,408.976 911.494,407.07 909.15,407.07 M936.479,436.632 C933.541,440.023 931.135,441.585 928.682,441.585 C926.275,441.585 924.588,439.632 924.588,436.882 C924.588,433.773 925.682,429.476 927.182,426.726 C928.729,423.835 930.588,422.382 932.729,422.382 C933.979,422.382 934.838,422.882 934.838,423.632 C934.838,423.976 934.682,424.179 934.229,424.429 C932.838,425.335 932.338,426.085 932.338,427.523 C932.338,429.679 933.932,431.132 936.229,431.132 C938.838,431.132 940.541,429.273 940.541,426.476 C940.541,422.585 937.182,420.023 931.979,420.023 C923.479,420.023 916.338,427.023 916.338,435.382 C916.338,441.023 920.385,444.632 926.682,444.632 C931.088,444.632 934.635,442.632 938.291,438.132 L936.479,436.632 M963.775,420.773 L963.072,423.132 C961.885,421.085 959.775,420.085 956.822,420.085 C949.432,420.085 942.525,427.585 942.525,435.632 C942.525,440.929 946.119,444.632 951.182,444.632 C954.635,444.632 956.979,443.382 959.322,440.273 C959.322,441.382 959.322,441.476 959.479,441.882 C959.932,443.523 961.572,444.632 963.572,444.632 C966.072,444.632 968.322,443.382 970.775,440.585 C972.135,439.085 973.229,437.523 974.072,436.085 L972.135,434.882 C970.275,437.726 967.775,440.429 966.932,440.429 C966.572,440.429 966.229,440.023 966.229,439.632 C966.229,439.273 966.229,439.226 966.729,437.382 L971.635,420.773 L963.775,420.773 M958.479,422.835 C960.275,422.835 961.525,424.273 961.525,426.429 C961.525,428.976 960.432,433.085 958.932,436.273 C957.479,439.476 955.682,441.132 953.729,441.132 C951.822,441.132 950.682,439.632 950.682,437.179 C950.682,434.523 951.682,430.585 953.119,427.585 C954.682,424.382 956.385,422.835 958.479,422.835 M989.822,434.835 C987.979,438.023 985.619,440.632 984.619,440.632 C984.229,440.632 983.869,440.179 983.869,439.726 C983.869,439.382 984.275,437.773 984.916,435.632 L988.432,423.835 L994.119,423.835 L995.025,420.773 L989.322,420.773 L992.072,411.429 L984.229,411.429 L981.416,420.773 L977.072,420.773 L976.166,423.835 L980.525,423.835 L977.275,434.835 C976.072,438.882 976.025,439.132 976.025,440.476 C976.025,442.773 978.119,444.632 980.775,444.632 C983.369,444.632 985.822,443.335 988.275,440.773 C989.275,439.632 989.822,438.929 991.682,436.132 L989.822,434.835 M1014.26,437.679 C1011.37,440.585 1009.21,441.726 1006.67,441.726 C1003.96,441.726 1002.31,439.976 1002.31,437.132 C1002.31,436.476 1002.35,435.976 1002.46,434.882 C1005.42,434.726 1007.56,434.382 1009.92,433.726 C1015.62,432.023 1018.42,429.523 1018.42,426.085 C1018.42,422.632 1014.92,420.023 1010.21,420.023 C1001.81,420.023 994.416,427.226 994.416,435.429 C994.416,441.382 998.01,444.632 1004.6,444.632 C1009.17,444.632 1012.87,442.929 1016.01,439.382 L1014.26,437.679 M1002.92,432.585 C1004.06,426.476 1007.01,422.382 1010.12,422.382 C1011.46,422.382 1012.31,423.273 1012.31,424.726 C1012.31,426.476 1011.21,428.476 1009.51,429.929 C1007.76,431.429 1006.01,432.085 1002.92,432.585 M1034.9,420.023 L1022.49,420.773 L1022.15,423.132 L1023.35,423.132 C1025.79,423.132 1026.4,423.429 1026.4,424.679 C1026.4,425.226 1026.15,426.273 1025.65,427.976 L1020.9,443.929 L1028.7,443.929 L1030.74,436.976 C1031.95,433.023 1033.24,430.335 1035.24,427.679 C1036.95,425.429 1038.45,424.226 1039.45,424.226 C1039.99,424.226 1040.4,424.726 1040.4,425.429 C1040.4,426.476 1039.9,428.726 1038.85,432.179 L1035.35,443.929 L1043.24,443.929 L1044.9,438.382 C1046.65,432.382 1047.99,429.476 1049.9,427.132 C1051.45,425.335 1052.99,424.226 1054.1,424.226 C1054.95,424.226 1055.4,424.679 1055.4,425.429 C1055.4,426.085 1055.15,427.179 1054.7,428.429 L1052.31,435.429 C1051.35,437.976 1051.06,439.335 1051.06,440.429 C1051.06,442.726 1053.2,444.632 1055.9,444.632 C1059.49,444.632 1062.85,442.023 1066.45,436.476 L1064.56,435.085 C1064.31,435.382 1064.31,435.382 1063.85,435.976 C1061.9,438.523 1061.9,438.523 1061.6,438.929 C1060.4,440.179 1059.81,440.632 1059.24,440.632 C1058.81,440.632 1058.4,440.335 1058.4,439.976 C1058.4,439.726 1058.49,439.273 1058.65,438.835 L1061.65,430.523 C1062.4,428.382 1062.74,426.773 1062.74,425.226 C1062.74,422.132 1060.6,420.023 1057.31,420.023 C1054.35,420.023 1051.65,421.679 1048.45,425.585 C1048.4,424.085 1048.4,424.085 1048.2,423.476 C1047.49,421.476 1045.24,420.023 1042.85,420.023 C1039.7,420.023 1036.56,422.085 1033.45,426.132 L1034.9,420.023 M1087.38,437.679 C1084.49,440.585 1082.34,441.726 1079.79,441.726 C1077.09,441.726 1075.43,439.976 1075.43,437.132 C1075.43,436.476 1075.48,435.976 1075.59,434.882 C1078.54,434.726 1080.68,434.382 1083.04,433.726 C1088.74,432.023 1091.54,429.523 1091.54,426.085 C1091.54,422.632 1088.04,420.023 1083.34,420.023 C1074.93,420.023 1067.54,427.226 1067.54,435.429 C1067.54,441.382 1071.13,444.632 1077.73,444.632 C1082.29,444.632 1085.99,442.929 1089.13,439.382 L1087.38,437.679 M1076.04,432.585 C1077.18,426.476 1080.13,422.382 1083.24,422.382 C1084.59,422.382 1085.43,423.273 1085.43,424.726 C1085.43,426.476 1084.34,428.476 1082.63,429.929 C1080.88,431.429 1079.13,432.085 1076.04,432.585 M1107.82,420.023 L1095.32,420.773 L1094.98,423.132 L1096.17,423.132 C1098.62,423.132 1099.23,423.429 1099.23,424.679 C1099.23,425.226 1099.03,426.085 1098.48,427.976 L1093.73,443.929 L1101.57,443.929 L1103.48,437.585 C1104.87,432.882 1106.12,430.335 1108.32,427.679 C1110.18,425.429 1111.82,424.226 1113.03,424.226 C1113.78,424.226 1114.53,424.882 1114.53,425.585 C1114.53,426.023 1114.37,426.632 1114.12,427.382 L1111.03,435.773 C1110.18,438.179 1110.03,438.835 1110.03,440.132 C1110.03,442.882 1111.98,444.632 1115.12,444.632 C1118.78,444.632 1121.93,442.179 1125.68,436.382 L1123.73,435.085 C1122.23,437.085 1121.48,438.085 1121.48,438.132 C1120.12,439.726 1119.03,440.632 1118.43,440.632 C1118.07,440.632 1117.73,440.226 1117.73,439.835 C1117.73,439.429 1117.82,439.132 1118.23,437.929 L1120.57,431.585 C1121.62,428.835 1122.07,426.773 1122.07,425.179 C1122.07,422.179 1119.78,420.023 1116.48,420.023 C1112.82,420.023 1110.03,421.835 1106.23,426.632 L1107.82,420.023 M1142.81,434.835 C1140.96,438.023 1138.6,440.632 1137.6,440.632 C1137.21,440.632 1136.85,440.179 1136.85,439.726 C1136.85,439.382 1137.26,437.773 1137.9,435.632 L1141.42,423.835 L1147.1,423.835 L1148.01,420.773 L1142.31,420.773 L1145.06,411.429 L1137.21,411.429 L1134.4,420.773 L1130.06,420.773 L1129.15,423.835 L1133.51,423.835 L1130.26,434.835 C1129.06,438.882 1129.01,439.132 1129.01,440.476 C1129.01,442.773 1131.1,444.632 1133.76,444.632 C1136.35,444.632 1138.81,443.335 1141.26,440.773 C1142.26,439.632 1142.81,438.929 1144.67,436.132 L1142.81,434.835 M1182.24,437.679 C1179.35,440.585 1177.2,441.726 1174.65,441.726 C1171.95,441.726 1170.29,439.976 1170.29,437.132 C1170.29,436.476 1170.34,435.976 1170.45,434.882 C1173.4,434.726 1175.54,434.382 1177.9,433.726 C1183.6,432.023 1186.4,429.523 1186.4,426.085 C1186.4,422.632 1182.9,420.023 1178.2,420.023 C1169.79,420.023 1162.4,427.226 1162.4,435.429 C1162.4,441.382 1165.99,444.632 1172.59,444.632 C1177.15,444.632 1180.85,442.929 1183.99,439.382 L1182.24,437.679 M1170.9,432.585 C1172.04,426.476 1174.99,422.382 1178.1,422.382 C1179.45,422.382 1180.29,423.273 1180.29,424.726 C1180.29,426.476 1179.2,428.476 1177.49,429.929 C1175.74,431.429 1173.99,432.085 1170.9,432.585 M1199.03,437.226 L1199.18,437.929 C1199.78,440.679 1200.23,441.835 1201.03,442.773 C1201.98,443.976 1203.34,444.632 1204.88,444.632 C1207.23,444.632 1209.18,443.429 1210.98,440.835 C1212.23,439.085 1213.18,437.273 1213.84,435.476 L1211.88,434.476 C1210.63,437.679 1209.23,439.523 1208.13,439.523 C1207.09,439.523 1206.68,438.523 1205.73,433.929 L1204.93,429.882 C1208.09,425.226 1209.38,423.726 1210.34,423.726 C1210.63,423.726 1210.73,423.929 1210.79,424.335 C1210.79,426.023 1211.88,427.023 1213.73,427.023 C1215.59,427.023 1216.98,425.585 1216.98,423.585 C1216.98,421.476 1215.38,420.023 1212.98,420.023 C1210.18,420.023 1208.48,421.226 1205.38,425.335 L1204.29,426.773 L1204.18,426.382 C1203.29,421.976 1201.63,420.023 1198.78,420.023 C1196.43,420.023 1194.38,421.335 1192.18,424.226 C1191.03,425.679 1190.18,427.023 1189.43,428.632 L1191.43,429.679 L1191.93,428.773 C1192.93,427.085 1192.93,427.085 1193.18,426.726 C1194.13,425.382 1194.59,425.023 1195.23,425.023 C1196.18,425.023 1196.53,425.773 1197.63,430.929 L1198.34,434.132 L1196.28,436.976 C1194.48,439.523 1193.48,440.523 1192.73,440.523 C1192.48,440.523 1192.38,440.382 1192.28,439.976 C1191.88,438.382 1190.84,437.476 1189.34,437.476 C1187.34,437.476 1185.98,438.835 1185.98,440.929 C1185.98,443.132 1187.63,444.679 1190.03,444.679 C1192.38,444.679 1195.09,442.835 1197.18,439.835 L1199.03,437.226 M1230.78,420.023 L1218.92,420.773 L1218.57,423.132 L1219.78,423.132 C1222.28,423.132 1222.87,423.429 1222.87,424.679 C1222.87,425.226 1222.62,426.226 1222.12,427.882 L1216.37,447.179 L1216.03,448.429 C1215.82,449.132 1215.67,449.523 1215.62,449.679 C1215.37,450.429 1215.28,450.679 1214.92,450.976 C1214.57,451.382 1213.78,451.585 1211.78,451.679 L1211.57,451.679 L1211.21,454.023 L1226.71,454.023 L1227.07,451.679 L1226.32,451.679 C1224.32,451.679 1223.46,451.335 1223.46,450.382 C1223.46,449.929 1223.62,449.335 1224.28,447.179 L1225.96,441.429 C1227.37,443.679 1229.28,444.632 1232.28,444.632 C1239.78,444.632 1246.62,437.226 1246.62,429.023 C1246.62,423.523 1243.23,420.023 1237.87,420.023 C1234.73,420.023 1232.42,421.179 1229.98,423.976 L1230.78,420.023 M1235.42,423.523 C1237.37,423.523 1238.62,424.976 1238.62,427.179 C1238.62,429.976 1237.37,434.585 1235.73,437.835 C1234.32,440.476 1232.78,441.726 1230.87,441.726 C1228.92,441.726 1227.42,440.132 1227.42,438.023 C1227.42,435.429 1229.03,429.929 1230.62,427.226 C1232.07,424.679 1233.53,423.523 1235.42,423.523 M1263.76,420.023 L1251.26,420.773 L1250.92,423.132 L1252.1,423.132 C1254.56,423.132 1255.17,423.429 1255.17,424.679 C1255.17,425.226 1254.96,426.085 1254.42,427.976 L1249.67,443.929 L1257.51,443.929 L1259.6,437.023 C1261.01,432.226 1263.51,427.585 1265.92,425.226 C1266.71,424.476 1267.56,423.929 1267.96,423.929 C1268.31,423.929 1268.46,424.132 1268.46,424.585 C1268.46,425.335 1268.51,425.679 1268.62,426.132 C1268.96,427.585 1270.37,428.585 1271.96,428.585 C1274.12,428.585 1275.71,426.773 1275.71,424.429 C1275.71,421.726 1273.92,420.023 1271.06,420.023 C1267.76,420.023 1265.31,421.773 1262.21,426.429 L1263.76,420.023 M1294.79,437.679 C1291.9,440.585 1289.74,441.726 1287.2,441.726 C1284.49,441.726 1282.84,439.976 1282.84,437.132 C1282.84,436.476 1282.88,435.976 1282.99,434.882 C1285.95,434.726 1288.09,434.382 1290.45,433.726 C1296.15,432.023 1298.95,429.523 1298.95,426.085 C1298.95,422.632 1295.45,420.023 1290.74,420.023 C1282.34,420.023 1274.95,427.226 1274.95,435.429 C1274.95,441.382 1278.54,444.632 1285.13,444.632 C1289.7,444.632 1293.4,442.929 1296.54,439.382 L1294.79,437.679 M1283.45,432.585 C1284.59,426.476 1287.54,422.382 1290.65,422.382 C1291.99,422.382 1292.84,423.273 1292.84,424.726 C1292.84,426.476 1291.74,428.476 1290.04,429.929 C1288.29,431.429 1286.54,432.085 1283.45,432.585 M1312.93,420.023 C1306.68,420.023 1302.78,423.085 1302.78,427.976 C1302.78,430.632 1303.88,432.476 1306.38,434.023 C1307.43,434.679 1307.68,434.773 1310.57,436.023 C1312.68,436.882 1313.48,437.726 1313.48,439.085 C1313.48,441.023 1311.48,442.476 1308.73,442.476 C1306.88,442.476 1305.57,441.929 1305.57,441.226 C1305.57,441.023 1305.68,440.882 1305.82,440.773 C1306.88,439.882 1307.13,439.429 1307.13,438.429 C1307.13,436.679 1305.57,435.335 1303.57,435.335 C1301.48,435.335 1300.07,436.726 1300.07,438.882 C1300.07,442.335 1303.68,444.632 1308.98,444.632 C1315.53,444.632 1319.93,441.382 1319.93,436.476 C1319.93,433.023 1318.28,431.226 1312.78,428.835 C1309.82,427.585 1308.88,426.726 1308.88,425.382 C1308.88,423.632 1310.73,422.382 1313.34,422.382 C1314.84,422.382 1316.13,422.882 1316.13,423.429 C1316.13,423.585 1316.03,423.726 1315.84,424.023 C1315.09,424.976 1314.93,425.273 1314.93,426.085 C1314.93,427.773 1316.38,429.085 1318.38,429.085 C1320.43,429.085 1321.84,427.679 1321.84,425.585 C1321.84,422.335 1318.13,420.023 1312.93,420.023 M1336.38,420.023 C1330.13,420.023 1326.23,423.085 1326.23,427.976 C1326.23,430.632 1327.34,432.476 1329.84,434.023 C1330.88,434.679 1331.13,434.773 1334.03,436.023 C1336.13,436.882 1336.93,437.726 1336.93,439.085 C1336.93,441.023 1334.93,442.476 1332.18,442.476 C1330.34,442.476 1329.03,441.929 1329.03,441.226 C1329.03,441.023 1329.13,440.882 1329.28,440.773 C1330.34,439.882 1330.59,439.429 1330.59,438.429 C1330.59,436.679 1329.03,435.335 1327.03,435.335 C1324.93,435.335 1323.53,436.726 1323.53,438.882 C1323.53,442.335 1327.13,444.632 1332.43,444.632 C1338.98,444.632 1343.38,441.382 1343.38,436.476 C1343.38,433.023 1341.73,431.226 1336.23,428.835 C1333.28,427.585 1332.34,426.726 1332.34,425.382 C1332.34,423.632 1334.18,422.382 1336.79,422.382 C1338.29,422.382 1339.59,422.882 1339.59,423.429 C1339.59,423.585 1339.48,423.726 1339.29,424.023 C1338.54,424.976 1338.38,425.273 1338.38,426.085 C1338.38,427.773 1339.84,429.085 1341.84,429.085 C1343.88,429.085 1345.29,427.679 1345.29,425.585 C1345.29,422.335 1341.59,420.023 1336.38,420.023 M1362.59,420.023 L1349.23,420.773 L1348.88,423.132 L1350.07,423.132 C1352.57,423.132 1353.13,423.429 1353.13,424.679 C1353.13,425.226 1352.93,426.085 1352.38,427.976 L1349.82,436.476 C1349.18,438.726 1349.07,439.179 1349.07,440.132 C1349.07,442.773 1351.23,444.632 1354.28,444.632 C1358.07,444.632 1361.23,442.132 1364.63,436.476 L1362.68,435.132 C1360.23,439.023 1358.63,440.773 1357.63,440.773 C1357.18,440.773 1356.82,440.429 1356.82,439.976 C1356.82,439.523 1356.88,439.382 1357.32,437.835 L1362.59,420.023 M1359.88,407.07 C1357.53,407.07 1355.63,408.976 1355.63,411.32 C1355.63,413.632 1357.53,415.57 1359.82,415.57 C1362.23,415.57 1364.13,413.679 1364.13,411.32 C1364.13,408.976 1362.23,407.07 1359.88,407.07 M1388.03,420.773 L1381.67,420.773 L1382.17,418.726 C1383.96,411.382 1385.07,409.476 1387.53,409.476 C1388.12,409.476 1388.57,409.679 1388.57,409.976 C1388.57,410.07 1388.46,410.273 1388.37,410.429 C1387.37,411.726 1387.17,412.226 1387.17,413.226 C1387.17,415.179 1388.57,416.523 1390.57,416.523 C1392.82,416.523 1394.42,414.882 1394.42,412.57 C1394.42,409.382 1391.57,407.132 1387.57,407.132 C1384.21,407.132 1381.46,408.382 1378.96,411.07 C1376.96,413.273 1375.71,415.929 1374.37,420.773 L1369.46,420.773 L1368.62,423.835 L1373.57,423.835 L1370.37,437.335 C1367.96,446.023 1365.92,451.929 1364.51,454.179 L1373.57,452.882 C1375.32,448.085 1377.12,441.585 1378.62,434.523 L1380.96,423.835 L1387.21,423.835 L1388.03,420.773 "/>
<polyline class="" fill="none" stroke="#000000" stroke-width="2.98" stroke-linecap="square" stroke-linejoin="bevel" points="1640.35,375.126 2324.35,361.126"/>
<polyline class="" fill="none" stroke="#000000" stroke-width="2.98" stroke-linecap="square" stroke-linejoin="bevel" points="1640.35,347.126 2324.35,361.126"/>
<polyline class="" fill="none" stroke="#000000" stroke-width="2.98" stroke-linecap="square" stroke-linejoin="bevel" points="1023.74,361.126 1534.74,375.126"/>
<polyline class="" fill="none" stroke="#000000" stroke-width="2.98" stroke-linecap="square" stroke-linejoin="bevel" points="1023.74,361.126 1534.74,347.126"/>
<polyline class="" fill="none" stroke="#000000" stroke-width="2.98" stroke-linecap="square" stroke-linejoin="bevel" points="354.695,333.54 829.695,347.54"/>
<polyline class="" fill="none" stroke="#000000" stroke-width="2.98" stroke-linecap="square" stroke-linejoin="bevel" points="354.695,333.54 829.695,319.54"/>
</svg>
