<?xml version="1.0" encoding="UTF-8" standalone="no"?>
<svg width="2547px" height="778px" viewBox="0 0 2547 778"
 xmlns="http://www.w3.org/2000/svg" xmlns:xlink="http://www.w3.org/1999/xlink" version="1.2" baseProfile="tiny">
<title>paso4</title>
<desc>Generated by MuseScore 3.6.2</desc>
<path class="" stroke="#000000" stroke-width="1.74" stroke-linecap="round" stroke-linejoin="round" fill-rule="evenodd" d="M2034.61,574.902 C2078.39,540.674 2209.72,540.674 2253.5,574.902 C2209.72,544.642 2078.39,544.642 2034.61,574.902"/>
<path class="" stroke="#000000" stroke-width="1.74" stroke-linecap="round" stroke-linejoin="round" fill-rule="evenodd" d="M1455.34,574.902 C1471.46,560.666 1519.82,560.666 1535.94,574.902 C1519.82,564.634 1471.46,564.634 1455.34,574.902"/>
<path class="" stroke="#000000" stroke-width="1.74" stroke-linecap="round" stroke-linejoin="round" fill-rule="evenodd" d="M872.684,574.902 C925.99,540.674 1085.91,540.674 1139.22,574.902 C1085.91,544.642 925.99,544.642 872.684,574.902"/>
<path class="" stroke="#000000" stroke-width="1.74" stroke-linecap="round" stroke-linejoin="round" fill-rule="evenodd" d="M265.298,574.902 C282.517,559.831 334.175,559.831 351.395,574.902 C334.175,563.799 282.517,563.799 265.298,574.902"/>
<path class="" stroke="#000000" stroke-width="1.74" stroke-linecap="round" stroke-linejoin="round" fill-rule="evenodd" d="M1455.61,179.006 C1569.45,144.777 1910.97,144.777 2024.82,179.006 C1910.97,148.746 1569.45,148.746 1455.61,179.006"/>
<path class="" stroke="#000000" stroke-width="1.74" stroke-linecap="round" stroke-linejoin="round" fill-rule="evenodd" d="M265.298,179.006 C317.499,144.777 474.102,144.777 526.303,179.006 C474.102,148.746 317.499,148.746 265.298,179.006"/>
<polyline class="" stroke="#000000" stroke-width="3.97" stroke-linejoin="bevel" points="2499.34,542.906 2499.34,644.103"/>
<polyline class="" stroke="#000000" stroke-width="12.40" stroke-linejoin="bevel" points="2517.45,542.906 2517.45,644.103"/>
<polyline class="" stroke="#000000" stroke-width="3.97" stroke-linejoin="bevel" points="1400.57,542.906 1400.57,644.103"/>
<polyline class="" stroke="#000000" stroke-width="3.97" stroke-linejoin="bevel" points="66.3418,542.906 66.3418,644.103"/>
<polyline class="" stroke="#000000" stroke-width="3.97" stroke-linejoin="bevel" points="2499.34,147.01 2499.34,593.504"/>
<polyline class="" stroke="#000000" stroke-width="12.40" stroke-linejoin="bevel" points="2517.45,147.01 2517.45,593.504"/>
<polyline class="" stroke="#000000" stroke-width="3.97" stroke-linejoin="bevel" points="1400.57,147.01 1400.57,593.504"/>
<polyline class="" stroke="#000000" stroke-width="3.97" stroke-linejoin="bevel" points="66.3418,147.01 66.3418,593.504"/>
<polyline class="" stroke="#000000" stroke-width="1.98" stroke-linejoin="bevel" points="1402.56,593.504 2523.65,593.504"/>
<polyline class="" stroke="#000000" stroke-width="1.98" stroke-linejoin="bevel" points="64.3575,593.504 1402.56,593.504"/>
<polyline class="" stroke="#000000" stroke-width="1.98" stroke-linejoin="bevel" points="1402.56,197.608 2523.65,197.608"/>
<polyline class="" stroke="#000000" stroke-width="1.98" stroke-linejoin="bevel" points="64.3575,197.608 1402.56,197.608"/>
<polyline class="" stroke="#000000" stroke-width="3.22" stroke-linejoin="bevel" points="2312.82,598.163 2312.82,686.516"/>
<polyline class="" stroke="#000000" stroke-width="3.22" stroke-linejoin="bevel" points="2360.69,598.163 2360.69,686.516"/>
<polyline class="" stroke="#000000" stroke-width="3.22" stroke-linejoin="bevel" points="2408.57,598.163 2408.57,686.516"/>
<polyline class="" stroke="#000000" stroke-width="3.22" stroke-linejoin="bevel" points="2243.68,598.163 2243.68,686.516"/>
<polyline class="" stroke="#000000" stroke-width="3.22" stroke-linejoin="bevel" points="1945.86,598.163 1945.86,686.516"/>
<polyline class="" stroke="#000000" stroke-width="3.22" stroke-linejoin="bevel" points="2015,598.163 2015,667.914"/>
<polyline class="" stroke="#000000" stroke-width="3.22" stroke-linejoin="bevel" points="1760.16,598.163 1760.16,686.516"/>
<polyline class="" stroke="#000000" stroke-width="3.22" stroke-linejoin="bevel" points="1799.01,598.163 1799.01,686.516"/>
<polyline class="" stroke="#000000" stroke-width="3.22" stroke-linejoin="bevel" points="1837.87,598.163 1837.87,686.516"/>
<polyline class="" stroke="#000000" stroke-width="3.22" stroke-linejoin="bevel" points="1876.72,598.163 1876.72,686.516"/>
<polyline class="" stroke="#000000" stroke-width="3.22" stroke-linejoin="bevel" points="1526.13,598.163 1526.13,686.516"/>
<polyline class="" stroke="#000000" stroke-width="3.22" stroke-linejoin="bevel" points="1595.26,598.163 1595.26,686.516"/>
<polyline class="" stroke="#000000" stroke-width="3.22" stroke-linejoin="bevel" points="1643.14,598.163 1643.14,686.516"/>
<polyline class="" stroke="#000000" stroke-width="3.22" stroke-linejoin="bevel" points="1691.02,598.163 1691.02,686.516"/>
<polyline class="" stroke="#000000" stroke-width="3.22" stroke-linejoin="bevel" points="1435.72,598.163 1435.72,686.516"/>
<polyline class="" stroke="#000000" stroke-width="3.22" stroke-linejoin="bevel" points="1202.74,598.163 1202.74,686.516"/>
<polyline class="" stroke="#000000" stroke-width="3.22" stroke-linejoin="bevel" points="1253.52,598.163 1253.52,686.516"/>
<polyline class="" stroke="#000000" stroke-width="3.22" stroke-linejoin="bevel" points="1304.31,598.163 1304.31,686.516"/>
<polyline class="" stroke="#000000" stroke-width="3.22" stroke-linejoin="bevel" points="1129.4,598.163 1129.4,686.516"/>
<polyline class="" stroke="#000000" stroke-width="3.22" stroke-linejoin="bevel" points="779.731,598.163 779.731,686.516"/>
<polyline class="" stroke="#000000" stroke-width="3.22" stroke-linejoin="bevel" points="853.07,598.163 853.07,667.914"/>
<polyline class="" stroke="#000000" stroke-width="3.22" stroke-linejoin="bevel" points="589.825,598.163 589.825,686.516"/>
<polyline class="" stroke="#000000" stroke-width="3.22" stroke-linejoin="bevel" points="628.681,598.163 628.681,686.516"/>
<polyline class="" stroke="#000000" stroke-width="3.22" stroke-linejoin="bevel" points="667.536,598.163 667.536,686.516"/>
<polyline class="" stroke="#000000" stroke-width="3.22" stroke-linejoin="bevel" points="706.392,598.163 706.392,686.516"/>
<polyline class="" stroke="#000000" stroke-width="3.22" stroke-linejoin="bevel" points="414.917,598.163 414.917,686.516"/>
<polyline class="" stroke="#000000" stroke-width="3.22" stroke-linejoin="bevel" points="465.701,598.163 465.701,686.516"/>
<polyline class="" stroke="#000000" stroke-width="3.22" stroke-linejoin="bevel" points="516.486,598.163 516.486,686.516"/>
<polyline class="" stroke="#000000" stroke-width="3.22" stroke-linejoin="bevel" points="245.684,598.163 245.684,686.516"/>
<polyline class="" stroke="#000000" stroke-width="3.22" stroke-linejoin="bevel" points="341.578,598.163 341.578,686.516"/>
<polyline class="" stroke="#000000" stroke-width="3.22" stroke-linejoin="bevel" points="2105.4,202.267 2105.4,272.018"/>
<polyline class="" stroke="#000000" stroke-width="3.22" stroke-linejoin="bevel" points="2174.54,202.267 2174.54,272.018"/>
<polyline class="" stroke="#000000" stroke-width="3.22" stroke-linejoin="bevel" points="2243.68,202.267 2243.68,272.018"/>
<polyline class="" stroke="#000000" stroke-width="3.22" stroke-linejoin="bevel" points="2015,202.267 2015,272.018"/>
<polyline class="" stroke="#000000" stroke-width="3.22" stroke-linejoin="bevel" points="1434.83,201.497 1434.83,272.018"/>
<polyline class="" stroke="#000000" stroke-width="3.22" stroke-linejoin="bevel" points="1304.31,202.267 1304.31,272.018"/>
<polyline class="" stroke="#000000" stroke-width="3.22" stroke-linejoin="bevel" points="948.964,202.267 948.964,272.018"/>
<polyline class="" stroke="#000000" stroke-width="3.22" stroke-linejoin="bevel" points="1009.11,202.267 1009.11,272.018"/>
<polyline class="" stroke="#000000" stroke-width="3.22" stroke-linejoin="bevel" points="1069.25,202.267 1069.25,272.018"/>
<polyline class="" stroke="#000000" stroke-width="3.22" stroke-linejoin="bevel" points="1129.4,202.267 1129.4,272.018"/>
<polyline class="" stroke="#000000" stroke-width="3.22" stroke-linejoin="bevel" points="779.731,202.267 779.731,272.018"/>
<polyline class="" stroke="#000000" stroke-width="3.22" stroke-linejoin="bevel" points="853.07,202.267 853.07,272.018"/>
<polyline class="" stroke="#000000" stroke-width="3.22" stroke-linejoin="bevel" points="706.392,202.267 706.392,272.018"/>
<polyline class="" stroke="#000000" stroke-width="3.22" stroke-linejoin="bevel" points="516.486,202.267 516.486,272.018"/>
<polyline class="" stroke="#000000" stroke-width="3.22" stroke-linejoin="bevel" points="245.684,202.267 245.684,272.018"/>
<path class="" transform="matrix(0.992126,0,0,0.992126,2311.2,593.504)" d="M21.9688,-13.7656 C25.0938,-13.7656 27.6979,-12.9844 29.7813,-11.4219 C31.8646,-9.85938 32.9063,-7.61458 32.9063,-4.6875 C32.9063,-0.197917 30.5807,4 25.9297,7.90625 C21.2786,11.8125 16.2813,13.7656 10.9375,13.7656 C7.8125,13.7656 5.17708,12.9531 3.03125,11.3281 C1.01042,9.56771 0,7.35417 0,4.6875 C0,0.322917 2.3125,-3.84375 6.9375,-7.8125 C11.5625,-11.7813 16.5729,-13.7656 21.9688,-13.7656"/>
<path class="" transform="matrix(0.992126,0,0,0.992126,2359.08,593.504)" d="M21.9688,-13.7656 C25.0938,-13.7656 27.6979,-12.9844 29.7813,-11.4219 C31.8646,-9.85938 32.9063,-7.61458 32.9063,-4.6875 C32.9063,-0.197917 30.5807,4 25.9297,7.90625 C21.2786,11.8125 16.2813,13.7656 10.9375,13.7656 C7.8125,13.7656 5.17708,12.9531 3.03125,11.3281 C1.01042,9.56771 0,7.35417 0,4.6875 C0,0.322917 2.3125,-3.84375 6.9375,-7.8125 C11.5625,-11.7813 16.5729,-13.7656 21.9688,-13.7656"/>
<path class="" transform="matrix(0.992126,0,0,0.992126,2406.96,593.504)" d="M21.9688,-13.7656 C25.0938,-13.7656 27.6979,-12.9844 29.7813,-11.4219 C31.8646,-9.85938 32.9063,-7.61458 32.9063,-4.6875 C32.9063,-0.197917 30.5807,4 25.9297,7.90625 C21.2786,11.8125 16.2813,13.7656 10.9375,13.7656 C7.8125,13.7656 5.17708,12.9531 3.03125,11.3281 C1.01042,9.56771 0,7.35417 0,4.6875 C0,0.322917 2.3125,-3.84375 6.9375,-7.8125 C11.5625,-11.7813 16.5729,-13.7656 21.9688,-13.7656"/>
<path class="" transform="matrix(0.992126,0,0,0.992126,2242.07,593.504)" d="M21.9688,-13.7656 C25.0938,-13.7656 27.6979,-12.9844 29.7813,-11.4219 C31.8646,-9.85938 32.9063,-7.61458 32.9063,-4.6875 C32.9063,-0.197917 30.5807,4 25.9297,7.90625 C21.2786,11.8125 16.2813,13.7656 10.9375,13.7656 C7.8125,13.7656 5.17708,12.9531 3.03125,11.3281 C1.01042,9.56771 0,7.35417 0,4.6875 C0,0.322917 2.3125,-3.84375 6.9375,-7.8125 C11.5625,-11.7813 16.5729,-13.7656 21.9688,-13.7656"/>
<path class="" transform="matrix(0.992126,0,0,0.992126,1944.25,593.504)" d="M21.9688,-13.7656 C25.0938,-13.7656 27.6979,-12.9844 29.7813,-11.4219 C31.8646,-9.85938 32.9063,-7.61458 32.9063,-4.6875 C32.9063,-0.197917 30.5807,4 25.9297,7.90625 C21.2786,11.8125 16.2813,13.7656 10.9375,13.7656 C7.8125,13.7656 5.17708,12.9531 3.03125,11.3281 C1.01042,9.56771 0,7.35417 0,4.6875 C0,0.322917 2.3125,-3.84375 6.9375,-7.8125 C11.5625,-11.7813 16.5729,-13.7656 21.9688,-13.7656"/>
<path class="" transform="matrix(0.992126,0,0,0.992126,2013.39,593.504)" d="M21.9688,-13.7656 C25.0938,-13.7656 27.6979,-12.9844 29.7813,-11.4219 C31.8646,-9.85938 32.9063,-7.61458 32.9063,-4.6875 C32.9063,-0.197917 30.5807,4 25.9297,7.90625 C21.2786,11.8125 16.2813,13.7656 10.9375,13.7656 C7.8125,13.7656 5.17708,12.9531 3.03125,11.3281 C1.01042,9.56771 0,7.35417 0,4.6875 C0,0.322917 2.3125,-3.84375 6.9375,-7.8125 C11.5625,-11.7813 16.5729,-13.7656 21.9688,-13.7656"/>
<path class="" transform="matrix(0.992126,0,0,0.992126,1758.54,593.504)" d="M21.9688,-13.7656 C25.0938,-13.7656 27.6979,-12.9844 29.7813,-11.4219 C31.8646,-9.85938 32.9063,-7.61458 32.9063,-4.6875 C32.9063,-0.197917 30.5807,4 25.9297,7.90625 C21.2786,11.8125 16.2813,13.7656 10.9375,13.7656 C7.8125,13.7656 5.17708,12.9531 3.03125,11.3281 C1.01042,9.56771 0,7.35417 0,4.6875 C0,0.322917 2.3125,-3.84375 6.9375,-7.8125 C11.5625,-11.7813 16.5729,-13.7656 21.9688,-13.7656"/>
<path class="" transform="matrix(0.992126,0,0,0.992126,1797.4,593.504)" d="M21.9688,-13.7656 C25.0938,-13.7656 27.6979,-12.9844 29.7813,-11.4219 C31.8646,-9.85938 32.9063,-7.61458 32.9063,-4.6875 C32.9063,-0.197917 30.5807,4 25.9297,7.90625 C21.2786,11.8125 16.2813,13.7656 10.9375,13.7656 C7.8125,13.7656 5.17708,12.9531 3.03125,11.3281 C1.01042,9.56771 0,7.35417 0,4.6875 C0,0.322917 2.3125,-3.84375 6.9375,-7.8125 C11.5625,-11.7813 16.5729,-13.7656 21.9688,-13.7656"/>
<path class="" transform="matrix(0.992126,0,0,0.992126,1836.25,593.504)" d="M21.9688,-13.7656 C25.0938,-13.7656 27.6979,-12.9844 29.7813,-11.4219 C31.8646,-9.85938 32.9063,-7.61458 32.9063,-4.6875 C32.9063,-0.197917 30.5807,4 25.9297,7.90625 C21.2786,11.8125 16.2813,13.7656 10.9375,13.7656 C7.8125,13.7656 5.17708,12.9531 3.03125,11.3281 C1.01042,9.56771 0,7.35417 0,4.6875 C0,0.322917 2.3125,-3.84375 6.9375,-7.8125 C11.5625,-11.7813 16.5729,-13.7656 21.9688,-13.7656"/>
<path class="" transform="matrix(0.992126,0,0,0.992126,1875.11,593.504)" d="M21.9688,-13.7656 C25.0938,-13.7656 27.6979,-12.9844 29.7813,-11.4219 C31.8646,-9.85938 32.9063,-7.61458 32.9063,-4.6875 C32.9063,-0.197917 30.5807,4 25.9297,7.90625 C21.2786,11.8125 16.2813,13.7656 10.9375,13.7656 C7.8125,13.7656 5.17708,12.9531 3.03125,11.3281 C1.01042,9.56771 0,7.35417 0,4.6875 C0,0.322917 2.3125,-3.84375 6.9375,-7.8125 C11.5625,-11.7813 16.5729,-13.7656 21.9688,-13.7656"/>
<path class="" transform="matrix(0.992126,0,0,0.992126,1524.51,593.504)" d="M21.9688,-13.7656 C25.0938,-13.7656 27.6979,-12.9844 29.7813,-11.4219 C31.8646,-9.85938 32.9063,-7.61458 32.9063,-4.6875 C32.9063,-0.197917 30.5807,4 25.9297,7.90625 C21.2786,11.8125 16.2813,13.7656 10.9375,13.7656 C7.8125,13.7656 5.17708,12.9531 3.03125,11.3281 C1.01042,9.56771 0,7.35417 0,4.6875 C0,0.322917 2.3125,-3.84375 6.9375,-7.8125 C11.5625,-11.7813 16.5729,-13.7656 21.9688,-13.7656"/>
<path class="" transform="matrix(0.992126,0,0,0.992126,1593.65,593.504)" d="M21.9688,-13.7656 C25.0938,-13.7656 27.6979,-12.9844 29.7813,-11.4219 C31.8646,-9.85938 32.9063,-7.61458 32.9063,-4.6875 C32.9063,-0.197917 30.5807,4 25.9297,7.90625 C21.2786,11.8125 16.2813,13.7656 10.9375,13.7656 C7.8125,13.7656 5.17708,12.9531 3.03125,11.3281 C1.01042,9.56771 0,7.35417 0,4.6875 C0,0.322917 2.3125,-3.84375 6.9375,-7.8125 C11.5625,-11.7813 16.5729,-13.7656 21.9688,-13.7656"/>
<path class="" transform="matrix(0.992126,0,0,0.992126,1641.53,593.504)" d="M21.9688,-13.7656 C25.0938,-13.7656 27.6979,-12.9844 29.7813,-11.4219 C31.8646,-9.85938 32.9063,-7.61458 32.9063,-4.6875 C32.9063,-0.197917 30.5807,4 25.9297,7.90625 C21.2786,11.8125 16.2813,13.7656 10.9375,13.7656 C7.8125,13.7656 5.17708,12.9531 3.03125,11.3281 C1.01042,9.56771 0,7.35417 0,4.6875 C0,0.322917 2.3125,-3.84375 6.9375,-7.8125 C11.5625,-11.7813 16.5729,-13.7656 21.9688,-13.7656"/>
<path class="" transform="matrix(0.992126,0,0,0.992126,1689.4,593.504)" d="M21.9688,-13.7656 C25.0938,-13.7656 27.6979,-12.9844 29.7813,-11.4219 C31.8646,-9.85938 32.9063,-7.61458 32.9063,-4.6875 C32.9063,-0.197917 30.5807,4 25.9297,7.90625 C21.2786,11.8125 16.2813,13.7656 10.9375,13.7656 C7.8125,13.7656 5.17708,12.9531 3.03125,11.3281 C1.01042,9.56771 0,7.35417 0,4.6875 C0,0.322917 2.3125,-3.84375 6.9375,-7.8125 C11.5625,-11.7813 16.5729,-13.7656 21.9688,-13.7656"/>
<path class="" transform="matrix(0.992126,0,0,0.992126,1434.11,593.504)" d="M21.9688,-13.7656 C25.0938,-13.7656 27.6979,-12.9844 29.7813,-11.4219 C31.8646,-9.85938 32.9063,-7.61458 32.9063,-4.6875 C32.9063,-0.197917 30.5807,4 25.9297,7.90625 C21.2786,11.8125 16.2813,13.7656 10.9375,13.7656 C7.8125,13.7656 5.17708,12.9531 3.03125,11.3281 C1.01042,9.56771 0,7.35417 0,4.6875 C0,0.322917 2.3125,-3.84375 6.9375,-7.8125 C11.5625,-11.7813 16.5729,-13.7656 21.9688,-13.7656"/>
<path class="" transform="matrix(0.992126,0,0,0.992126,1201.13,593.504)" d="M21.9688,-13.7656 C25.0938,-13.7656 27.6979,-12.9844 29.7813,-11.4219 C31.8646,-9.85938 32.9063,-7.61458 32.9063,-4.6875 C32.9063,-0.197917 30.5807,4 25.9297,7.90625 C21.2786,11.8125 16.2813,13.7656 10.9375,13.7656 C7.8125,13.7656 5.17708,12.9531 3.03125,11.3281 C1.01042,9.56771 0,7.35417 0,4.6875 C0,0.322917 2.3125,-3.84375 6.9375,-7.8125 C11.5625,-11.7813 16.5729,-13.7656 21.9688,-13.7656"/>
<path class="" transform="matrix(0.992126,0,0,0.992126,1251.91,593.504)" d="M21.9688,-13.7656 C25.0938,-13.7656 27.6979,-12.9844 29.7813,-11.4219 C31.8646,-9.85938 32.9063,-7.61458 32.9063,-4.6875 C32.9063,-0.197917 30.5807,4 25.9297,7.90625 C21.2786,11.8125 16.2813,13.7656 10.9375,13.7656 C7.8125,13.7656 5.17708,12.9531 3.03125,11.3281 C1.01042,9.56771 0,7.35417 0,4.6875 C0,0.322917 2.3125,-3.84375 6.9375,-7.8125 C11.5625,-11.7813 16.5729,-13.7656 21.9688,-13.7656"/>
<path class="" transform="matrix(0.992126,0,0,0.992126,1302.7,593.504)" d="M21.9688,-13.7656 C25.0938,-13.7656 27.6979,-12.9844 29.7813,-11.4219 C31.8646,-9.85938 32.9063,-7.61458 32.9063,-4.6875 C32.9063,-0.197917 30.5807,4 25.9297,7.90625 C21.2786,11.8125 16.2813,13.7656 10.9375,13.7656 C7.8125,13.7656 5.17708,12.9531 3.03125,11.3281 C1.01042,9.56771 0,7.35417 0,4.6875 C0,0.322917 2.3125,-3.84375 6.9375,-7.8125 C11.5625,-11.7813 16.5729,-13.7656 21.9688,-13.7656"/>
<path class="" transform="matrix(0.992126,0,0,0.992126,1127.79,593.504)" d="M21.9688,-13.7656 C25.0938,-13.7656 27.6979,-12.9844 29.7813,-11.4219 C31.8646,-9.85938 32.9063,-7.61458 32.9063,-4.6875 C32.9063,-0.197917 30.5807,4 25.9297,7.90625 C21.2786,11.8125 16.2813,13.7656 10.9375,13.7656 C7.8125,13.7656 5.17708,12.9531 3.03125,11.3281 C1.01042,9.56771 0,7.35417 0,4.6875 C0,0.322917 2.3125,-3.84375 6.9375,-7.8125 C11.5625,-11.7813 16.5729,-13.7656 21.9688,-13.7656"/>
<path class="" transform="matrix(0.992126,0,0,0.992126,778.119,593.504)" d="M21.9688,-13.7656 C25.0938,-13.7656 27.6979,-12.9844 29.7813,-11.4219 C31.8646,-9.85938 32.9063,-7.61458 32.9063,-4.6875 C32.9063,-0.197917 30.5807,4 25.9297,7.90625 C21.2786,11.8125 16.2813,13.7656 10.9375,13.7656 C7.8125,13.7656 5.17708,12.9531 3.03125,11.3281 C1.01042,9.56771 0,7.35417 0,4.6875 C0,0.322917 2.3125,-3.84375 6.9375,-7.8125 C11.5625,-11.7813 16.5729,-13.7656 21.9688,-13.7656"/>
<path class="" transform="matrix(0.992126,0,0,0.992126,851.458,593.504)" d="M21.9688,-13.7656 C25.0938,-13.7656 27.6979,-12.9844 29.7813,-11.4219 C31.8646,-9.85938 32.9063,-7.61458 32.9063,-4.6875 C32.9063,-0.197917 30.5807,4 25.9297,7.90625 C21.2786,11.8125 16.2813,13.7656 10.9375,13.7656 C7.8125,13.7656 5.17708,12.9531 3.03125,11.3281 C1.01042,9.56771 0,7.35417 0,4.6875 C0,0.322917 2.3125,-3.84375 6.9375,-7.8125 C11.5625,-11.7813 16.5729,-13.7656 21.9688,-13.7656"/>
<path class="" transform="matrix(0.992126,0,0,0.992126,588.213,593.504)" d="M21.9688,-13.7656 C25.0938,-13.7656 27.6979,-12.9844 29.7813,-11.4219 C31.8646,-9.85938 32.9063,-7.61458 32.9063,-4.6875 C32.9063,-0.197917 30.5807,4 25.9297,7.90625 C21.2786,11.8125 16.2813,13.7656 10.9375,13.7656 C7.8125,13.7656 5.17708,12.9531 3.03125,11.3281 C1.01042,9.56771 0,7.35417 0,4.6875 C0,0.322917 2.3125,-3.84375 6.9375,-7.8125 C11.5625,-11.7813 16.5729,-13.7656 21.9688,-13.7656"/>
<path class="" transform="matrix(0.992126,0,0,0.992126,627.068,593.504)" d="M21.9688,-13.7656 C25.0938,-13.7656 27.6979,-12.9844 29.7813,-11.4219 C31.8646,-9.85938 32.9063,-7.61458 32.9063,-4.6875 C32.9063,-0.197917 30.5807,4 25.9297,7.90625 C21.2786,11.8125 16.2813,13.7656 10.9375,13.7656 C7.8125,13.7656 5.17708,12.9531 3.03125,11.3281 C1.01042,9.56771 0,7.35417 0,4.6875 C0,0.322917 2.3125,-3.84375 6.9375,-7.8125 C11.5625,-11.7813 16.5729,-13.7656 21.9688,-13.7656"/>
<path class="" transform="matrix(0.992126,0,0,0.992126,665.924,593.504)" d="M21.9688,-13.7656 C25.0938,-13.7656 27.6979,-12.9844 29.7813,-11.4219 C31.8646,-9.85938 32.9063,-7.61458 32.9063,-4.6875 C32.9063,-0.197917 30.5807,4 25.9297,7.90625 C21.2786,11.8125 16.2813,13.7656 10.9375,13.7656 C7.8125,13.7656 5.17708,12.9531 3.03125,11.3281 C1.01042,9.56771 0,7.35417 0,4.6875 C0,0.322917 2.3125,-3.84375 6.9375,-7.8125 C11.5625,-11.7813 16.5729,-13.7656 21.9688,-13.7656"/>
<path class="" transform="matrix(0.992126,0,0,0.992126,704.78,593.504)" d="M21.9688,-13.7656 C25.0938,-13.7656 27.6979,-12.9844 29.7813,-11.4219 C31.8646,-9.85938 32.9063,-7.61458 32.9063,-4.6875 C32.9063,-0.197917 30.5807,4 25.9297,7.90625 C21.2786,11.8125 16.2813,13.7656 10.9375,13.7656 C7.8125,13.7656 5.17708,12.9531 3.03125,11.3281 C1.01042,9.56771 0,7.35417 0,4.6875 C0,0.322917 2.3125,-3.84375 6.9375,-7.8125 C11.5625,-11.7813 16.5729,-13.7656 21.9688,-13.7656"/>
<path class="" transform="matrix(0.992126,0,0,0.992126,413.305,593.504)" d="M21.9688,-13.7656 C25.0938,-13.7656 27.6979,-12.9844 29.7813,-11.4219 C31.8646,-9.85938 32.9063,-7.61458 32.9063,-4.6875 C32.9063,-0.197917 30.5807,4 25.9297,7.90625 C21.2786,11.8125 16.2813,13.7656 10.9375,13.7656 C7.8125,13.7656 5.17708,12.9531 3.03125,11.3281 C1.01042,9.56771 0,7.35417 0,4.6875 C0,0.322917 2.3125,-3.84375 6.9375,-7.8125 C11.5625,-11.7813 16.5729,-13.7656 21.9688,-13.7656"/>
<path class="" transform="matrix(0.992126,0,0,0.992126,464.089,593.504)" d="M21.9688,-13.7656 C25.0938,-13.7656 27.6979,-12.9844 29.7813,-11.4219 C31.8646,-9.85938 32.9063,-7.61458 32.9063,-4.6875 C32.9063,-0.197917 30.5807,4 25.9297,7.90625 C21.2786,11.8125 16.2813,13.7656 10.9375,13.7656 C7.8125,13.7656 5.17708,12.9531 3.03125,11.3281 C1.01042,9.56771 0,7.35417 0,4.6875 C0,0.322917 2.3125,-3.84375 6.9375,-7.8125 C11.5625,-11.7813 16.5729,-13.7656 21.9688,-13.7656"/>
<path class="" transform="matrix(0.992126,0,0,0.992126,514.874,593.504)" d="M21.9688,-13.7656 C25.0938,-13.7656 27.6979,-12.9844 29.7813,-11.4219 C31.8646,-9.85938 32.9063,-7.61458 32.9063,-4.6875 C32.9063,-0.197917 30.5807,4 25.9297,7.90625 C21.2786,11.8125 16.2813,13.7656 10.9375,13.7656 C7.8125,13.7656 5.17708,12.9531 3.03125,11.3281 C1.01042,9.56771 0,7.35417 0,4.6875 C0,0.322917 2.3125,-3.84375 6.9375,-7.8125 C11.5625,-11.7813 16.5729,-13.7656 21.9688,-13.7656"/>
<path class="" transform="matrix(0.992126,0,0,0.992126,244.072,593.504)" d="M21.9688,-13.7656 C25.0938,-13.7656 27.6979,-12.9844 29.7813,-11.4219 C31.8646,-9.85938 32.9063,-7.61458 32.9063,-4.6875 C32.9063,-0.197917 30.5807,4 25.9297,7.90625 C21.2786,11.8125 16.2813,13.7656 10.9375,13.7656 C7.8125,13.7656 5.17708,12.9531 3.03125,11.3281 C1.01042,9.56771 0,7.35417 0,4.6875 C0,0.322917 2.3125,-3.84375 6.9375,-7.8125 C11.5625,-11.7813 16.5729,-13.7656 21.9688,-13.7656"/>
<path class="" transform="matrix(0.992126,0,0,0.992126,339.966,593.504)" d="M21.9688,-13.7656 C25.0938,-13.7656 27.6979,-12.9844 29.7813,-11.4219 C31.8646,-9.85938 32.9063,-7.61458 32.9063,-4.6875 C32.9063,-0.197917 30.5807,4 25.9297,7.90625 C21.2786,11.8125 16.2813,13.7656 10.9375,13.7656 C7.8125,13.7656 5.17708,12.9531 3.03125,11.3281 C1.01042,9.56771 0,7.35417 0,4.6875 C0,0.322917 2.3125,-3.84375 6.9375,-7.8125 C11.5625,-11.7813 16.5729,-13.7656 21.9688,-13.7656"/>
<path class="" transform="matrix(0.992126,0,0,0.992126,2103.79,197.608)" d="M21.9688,-13.7656 C25.0938,-13.7656 27.6979,-12.9844 29.7813,-11.4219 C31.8646,-9.85938 32.9063,-7.61458 32.9063,-4.6875 C32.9063,-0.197917 30.5807,4 25.9297,7.90625 C21.2786,11.8125 16.2813,13.7656 10.9375,13.7656 C7.8125,13.7656 5.17708,12.9531 3.03125,11.3281 C1.01042,9.56771 0,7.35417 0,4.6875 C0,0.322917 2.3125,-3.84375 6.9375,-7.8125 C11.5625,-11.7813 16.5729,-13.7656 21.9688,-13.7656"/>
<path class="" transform="matrix(0.992126,0,0,0.992126,2172.93,197.608)" d="M21.9688,-13.7656 C25.0938,-13.7656 27.6979,-12.9844 29.7813,-11.4219 C31.8646,-9.85938 32.9063,-7.61458 32.9063,-4.6875 C32.9063,-0.197917 30.5807,4 25.9297,7.90625 C21.2786,11.8125 16.2813,13.7656 10.9375,13.7656 C7.8125,13.7656 5.17708,12.9531 3.03125,11.3281 C1.01042,9.56771 0,7.35417 0,4.6875 C0,0.322917 2.3125,-3.84375 6.9375,-7.8125 C11.5625,-11.7813 16.5729,-13.7656 21.9688,-13.7656"/>
<path class="" transform="matrix(0.992126,0,0,0.992126,2242.07,197.608)" d="M21.9688,-13.7656 C25.0938,-13.7656 27.6979,-12.9844 29.7813,-11.4219 C31.8646,-9.85938 32.9063,-7.61458 32.9063,-4.6875 C32.9063,-0.197917 30.5807,4 25.9297,7.90625 C21.2786,11.8125 16.2813,13.7656 10.9375,13.7656 C7.8125,13.7656 5.17708,12.9531 3.03125,11.3281 C1.01042,9.56771 0,7.35417 0,4.6875 C0,0.322917 2.3125,-3.84375 6.9375,-7.8125 C11.5625,-11.7813 16.5729,-13.7656 21.9688,-13.7656"/>
<path class="" transform="matrix(0.992126,0,0,0.992126,2013.39,197.608)" d="M21.9688,-13.7656 C25.0938,-13.7656 27.6979,-12.9844 29.7813,-11.4219 C31.8646,-9.85938 32.9063,-7.61458 32.9063,-4.6875 C32.9063,-0.197917 30.5807,4 25.9297,7.90625 C21.2786,11.8125 16.2813,13.7656 10.9375,13.7656 C7.8125,13.7656 5.17708,12.9531 3.03125,11.3281 C1.01042,9.56771 0,7.35417 0,4.6875 C0,0.322917 2.3125,-3.84375 6.9375,-7.8125 C11.5625,-11.7813 16.5729,-13.7656 21.9688,-13.7656"/>
<path class="" transform="matrix(0.992126,0,0,0.992126,1433.22,197.608)" d="M7.42188,10.6406 C9.30729,10.6406 13.263,8.6875 19.2891,4.78125 C25.3151,0.875 28.8646,-1.74479 29.9375,-3.07813 C31.0104,-4.41146 31.5469,-5.59896 31.5469,-6.64063 C31.5469,-7.68229 31.1224,-8.60938 30.2734,-9.42188 C29.4245,-10.2344 28.4479,-10.6406 27.3438,-10.6406 C25.3958,-10.6406 21.4089,-8.67188 15.3828,-4.73438 C9.35677,-0.796875 5.82292,1.82292 4.78125,3.125 C3.73958,4.42708 3.21875,5.59896 3.21875,6.64063 C3.21875,7.68229 3.6276,8.60938 4.44531,9.42188 C5.26302,10.2344 6.25521,10.6406 7.42188,10.6406 M26.375,-13.7656 C31.9688,-13.7656 34.7656,-11.3594 34.7656,-6.54688 C34.7656,-4.20313 34.0833,-1.48438 32.7188,1.60938 C31.3542,4.70313 29.5313,7.0625 27.25,8.6875 C22.2396,12.0729 15.9583,13.7656 8.40625,13.7656 C2.80208,13.7656 0,11.3594 0,6.54688 C0,4.40104 0.666667,1.73177 2,-1.46094 C3.33333,-4.65365 5.17188,-7.0625 7.51563,-8.6875 C12.5365,-12.0729 18.8229,-13.7656 26.375,-13.7656"/>
<path class="" transform="matrix(0.992126,0,0,0.992126,1302.7,197.608)" d="M21.9688,-13.7656 C25.0938,-13.7656 27.6979,-12.9844 29.7813,-11.4219 C31.8646,-9.85938 32.9063,-7.61458 32.9063,-4.6875 C32.9063,-0.197917 30.5807,4 25.9297,7.90625 C21.2786,11.8125 16.2813,13.7656 10.9375,13.7656 C7.8125,13.7656 5.17708,12.9531 3.03125,11.3281 C1.01042,9.56771 0,7.35417 0,4.6875 C0,0.322917 2.3125,-3.84375 6.9375,-7.8125 C11.5625,-11.7813 16.5729,-13.7656 21.9688,-13.7656"/>
<path class="" transform="matrix(0.992126,0,0,0.992126,947.352,197.608)" d="M21.9688,-13.7656 C25.0938,-13.7656 27.6979,-12.9844 29.7813,-11.4219 C31.8646,-9.85938 32.9063,-7.61458 32.9063,-4.6875 C32.9063,-0.197917 30.5807,4 25.9297,7.90625 C21.2786,11.8125 16.2813,13.7656 10.9375,13.7656 C7.8125,13.7656 5.17708,12.9531 3.03125,11.3281 C1.01042,9.56771 0,7.35417 0,4.6875 C0,0.322917 2.3125,-3.84375 6.9375,-7.8125 C11.5625,-11.7813 16.5729,-13.7656 21.9688,-13.7656"/>
<path class="" transform="matrix(0.992126,0,0,0.992126,1007.5,197.608)" d="M21.9688,-13.7656 C25.0938,-13.7656 27.6979,-12.9844 29.7813,-11.4219 C31.8646,-9.85938 32.9063,-7.61458 32.9063,-4.6875 C32.9063,-0.197917 30.5807,4 25.9297,7.90625 C21.2786,11.8125 16.2813,13.7656 10.9375,13.7656 C7.8125,13.7656 5.17708,12.9531 3.03125,11.3281 C1.01042,9.56771 0,7.35417 0,4.6875 C0,0.322917 2.3125,-3.84375 6.9375,-7.8125 C11.5625,-11.7813 16.5729,-13.7656 21.9688,-13.7656"/>
<path class="" transform="matrix(0.992126,0,0,0.992126,1067.64,197.608)" d="M21.9688,-13.7656 C25.0938,-13.7656 27.6979,-12.9844 29.7813,-11.4219 C31.8646,-9.85938 32.9063,-7.61458 32.9063,-4.6875 C32.9063,-0.197917 30.5807,4 25.9297,7.90625 C21.2786,11.8125 16.2813,13.7656 10.9375,13.7656 C7.8125,13.7656 5.17708,12.9531 3.03125,11.3281 C1.01042,9.56771 0,7.35417 0,4.6875 C0,0.322917 2.3125,-3.84375 6.9375,-7.8125 C11.5625,-11.7813 16.5729,-13.7656 21.9688,-13.7656"/>
<path class="" transform="matrix(0.992126,0,0,0.992126,1127.79,197.608)" d="M21.9688,-13.7656 C25.0938,-13.7656 27.6979,-12.9844 29.7813,-11.4219 C31.8646,-9.85938 32.9063,-7.61458 32.9063,-4.6875 C32.9063,-0.197917 30.5807,4 25.9297,7.90625 C21.2786,11.8125 16.2813,13.7656 10.9375,13.7656 C7.8125,13.7656 5.17708,12.9531 3.03125,11.3281 C1.01042,9.56771 0,7.35417 0,4.6875 C0,0.322917 2.3125,-3.84375 6.9375,-7.8125 C11.5625,-11.7813 16.5729,-13.7656 21.9688,-13.7656"/>
<path class="" transform="matrix(0.992126,0,0,0.992126,778.119,197.608)" d="M21.9688,-13.7656 C25.0938,-13.7656 27.6979,-12.9844 29.7813,-11.4219 C31.8646,-9.85938 32.9063,-7.61458 32.9063,-4.6875 C32.9063,-0.197917 30.5807,4 25.9297,7.90625 C21.2786,11.8125 16.2813,13.7656 10.9375,13.7656 C7.8125,13.7656 5.17708,12.9531 3.03125,11.3281 C1.01042,9.56771 0,7.35417 0,4.6875 C0,0.322917 2.3125,-3.84375 6.9375,-7.8125 C11.5625,-11.7813 16.5729,-13.7656 21.9688,-13.7656"/>
<path class="" transform="matrix(0.992126,0,0,0.992126,851.458,197.608)" d="M21.9688,-13.7656 C25.0938,-13.7656 27.6979,-12.9844 29.7813,-11.4219 C31.8646,-9.85938 32.9063,-7.61458 32.9063,-4.6875 C32.9063,-0.197917 30.5807,4 25.9297,7.90625 C21.2786,11.8125 16.2813,13.7656 10.9375,13.7656 C7.8125,13.7656 5.17708,12.9531 3.03125,11.3281 C1.01042,9.56771 0,7.35417 0,4.6875 C0,0.322917 2.3125,-3.84375 6.9375,-7.8125 C11.5625,-11.7813 16.5729,-13.7656 21.9688,-13.7656"/>
<path class="" transform="matrix(0.992126,0,0,0.992126,704.78,197.608)" d="M21.9688,-13.7656 C25.0938,-13.7656 27.6979,-12.9844 29.7813,-11.4219 C31.8646,-9.85938 32.9063,-7.61458 32.9063,-4.6875 C32.9063,-0.197917 30.5807,4 25.9297,7.90625 C21.2786,11.8125 16.2813,13.7656 10.9375,13.7656 C7.8125,13.7656 5.17708,12.9531 3.03125,11.3281 C1.01042,9.56771 0,7.35417 0,4.6875 C0,0.322917 2.3125,-3.84375 6.9375,-7.8125 C11.5625,-11.7813 16.5729,-13.7656 21.9688,-13.7656"/>
<path class="" transform="matrix(0.992126,0,0,0.992126,514.874,197.608)" d="M21.9688,-13.7656 C25.0938,-13.7656 27.6979,-12.9844 29.7813,-11.4219 C31.8646,-9.85938 32.9063,-7.61458 32.9063,-4.6875 C32.9063,-0.197917 30.5807,4 25.9297,7.90625 C21.2786,11.8125 16.2813,13.7656 10.9375,13.7656 C7.8125,13.7656 5.17708,12.9531 3.03125,11.3281 C1.01042,9.56771 0,7.35417 0,4.6875 C0,0.322917 2.3125,-3.84375 6.9375,-7.8125 C11.5625,-11.7813 16.5729,-13.7656 21.9688,-13.7656"/>
<path class="" transform="matrix(0.992126,0,0,0.992126,244.072,197.608)" d="M21.9688,-13.7656 C25.0938,-13.7656 27.6979,-12.9844 29.7813,-11.4219 C31.8646,-9.85938 32.9063,-7.61458 32.9063,-4.6875 C32.9063,-0.197917 30.5807,4 25.9297,7.90625 C21.2786,11.8125 16.2813,13.7656 10.9375,13.7656 C7.8125,13.7656 5.17708,12.9531 3.03125,11.3281 C1.01042,9.56771 0,7.35417 0,4.6875 C0,0.322917 2.3125,-3.84375 6.9375,-7.8125 C11.5625,-11.7813 16.5729,-13.7656 21.9688,-13.7656"/>
<path class="" transform="matrix(0.992126,0,0,0.992126,80.2316,593.504)" d="M49.0313,25 L39.8438,25 C39.125,25 38.7656,24.6771 38.7656,24.0313 L38.7656,-24.0313 C38.7656,-24.6771 39.125,-25 39.8438,-25 L49.0313,-25 C49.6771,-25 50,-24.6771 50,-24.0313 L50,24.0313 C50,24.6771 49.6771,25 49.0313,25 M26.9531,25 L17.6719,25 C17.026,25 16.7031,24.6771 16.7031,24.0313 L16.7031,-24.0313 C16.7031,-24.6771 17.026,-25 17.6719,-25 L26.9531,-25 C27.6719,-25 28.0313,-24.6771 28.0313,-24.0313 L28.0313,24.0313 C28.0313,24.6771 27.6719,25 26.9531,25"/>
<path class="" transform="matrix(0.992126,0,0,0.992126,80.2316,197.608)" d="M49.0313,25 L39.8438,25 C39.125,25 38.7656,24.6771 38.7656,24.0313 L38.7656,-24.0313 C38.7656,-24.6771 39.125,-25 39.8438,-25 L49.0313,-25 C49.6771,-25 50,-24.6771 50,-24.0313 L50,24.0313 C50,24.6771 49.6771,25 49.0313,25 M26.9531,25 L17.6719,25 C17.026,25 16.7031,24.6771 16.7031,24.0313 L16.7031,-24.0313 C16.7031,-24.6771 17.026,-25 17.6719,-25 L26.9531,-25 C27.6719,-25 28.0313,-24.6771 28.0313,-24.0313 L28.0313,24.0313 C28.0313,24.6771 27.6719,25 26.9531,25"/>
<path class="" transform="matrix(0.992126,0,0,0.992126,154.781,568.616)" d="M23.1484,-23.7344 C24.6432,-23.7344 26.0755,-23.9609 27.4453,-24.4141 C28.8151,-24.8672 29.7917,-25.0938 30.375,-25.0938 C30.9583,-25.0938 31.349,-24.7396 31.5469,-24.0313 C31.5469,-23.9583 31.4792,-23.7604 31.3438,-23.4375 L2.9375,9.57813 L19.625,9.57813 L19.625,-3.51563 C19.625,-5.14063 20.5729,-6.3125 22.4688,-7.03125 C24.4167,-7.75 26.6302,-10.6458 29.1094,-15.7188 C29.2969,-16.1146 29.5885,-16.3125 29.9844,-16.3125 C30.7656,-16.3125 31.2188,-15.8542 31.3438,-14.9375 L31.3438,9.57813 L38.4844,9.57813 C39.3906,9.57813 39.8776,10.0651 39.9453,11.0391 C40.013,12.013 39.526,12.5 38.4844,12.5 L31.3438,12.5 L31.3438,13.2813 C31.3438,15.8854 31.9948,18.099 33.2969,19.9219 C34.7969,21.7448 36.5573,22.6563 38.5781,22.6563 C39.3594,22.6563 39.75,23.0469 39.75,23.8281 C39.75,24.6094 39.2135,25 38.1406,25 C37.0677,25 35.0651,24.7891 32.1328,24.3672 C29.2005,23.9453 26.9375,23.7344 25.3438,23.7344 C23.75,23.7344 21.5365,23.9453 18.7031,24.3672 C15.8698,24.7891 13.7396,25 12.3125,25 C11.5313,25 11.1406,24.6094 11.1406,23.8281 C11.1406,23.0469 11.5313,22.6563 12.3125,22.6563 C14.3229,22.6563 16.0781,21.7448 17.5781,19.9219 C18.9427,18.0365 19.625,15.8229 19.625,13.2813 L19.625,12.5 L2.9375,12.5 C2.08333,12.5 1.34635,12.2734 0.726563,11.8203 C0.106771,11.3672 -0.203125,10.9453 -0.203125,10.5547 C-0.203125,10.1641 0.611979,8.99219 2.24219,7.03906 C3.8724,5.08594 6.20052,1.32552 9.22656,-4.24219 C12.2526,-9.8099 13.7656,-16.2083 13.7656,-23.4375 C13.7656,-24.4792 14.224,-25 15.1406,-25 C15.3385,-25 15.6484,-24.9349 16.0703,-24.8047 C16.4922,-24.6745 17.4036,-24.4635 18.8047,-24.1719 C20.2057,-23.8802 21.6536,-23.7344 23.1484,-23.7344"/>
<path class="" transform="matrix(0.992126,0,0,0.992126,154.781,618.393)" d="M23.1484,-23.7344 C24.6432,-23.7344 26.0755,-23.9609 27.4453,-24.4141 C28.8151,-24.8672 29.7917,-25.0938 30.375,-25.0938 C30.9583,-25.0938 31.349,-24.7396 31.5469,-24.0313 C31.5469,-23.9583 31.4792,-23.7604 31.3438,-23.4375 L2.9375,9.57813 L19.625,9.57813 L19.625,-3.51563 C19.625,-5.14063 20.5729,-6.3125 22.4688,-7.03125 C24.4167,-7.75 26.6302,-10.6458 29.1094,-15.7188 C29.2969,-16.1146 29.5885,-16.3125 29.9844,-16.3125 C30.7656,-16.3125 31.2188,-15.8542 31.3438,-14.9375 L31.3438,9.57813 L38.4844,9.57813 C39.3906,9.57813 39.8776,10.0651 39.9453,11.0391 C40.013,12.013 39.526,12.5 38.4844,12.5 L31.3438,12.5 L31.3438,13.2813 C31.3438,15.8854 31.9948,18.099 33.2969,19.9219 C34.7969,21.7448 36.5573,22.6563 38.5781,22.6563 C39.3594,22.6563 39.75,23.0469 39.75,23.8281 C39.75,24.6094 39.2135,25 38.1406,25 C37.0677,25 35.0651,24.7891 32.1328,24.3672 C29.2005,23.9453 26.9375,23.7344 25.3438,23.7344 C23.75,23.7344 21.5365,23.9453 18.7031,24.3672 C15.8698,24.7891 13.7396,25 12.3125,25 C11.5313,25 11.1406,24.6094 11.1406,23.8281 C11.1406,23.0469 11.5313,22.6563 12.3125,22.6563 C14.3229,22.6563 16.0781,21.7448 17.5781,19.9219 C18.9427,18.0365 19.625,15.8229 19.625,13.2813 L19.625,12.5 L2.9375,12.5 C2.08333,12.5 1.34635,12.2734 0.726563,11.8203 C0.106771,11.3672 -0.203125,10.9453 -0.203125,10.5547 C-0.203125,10.1641 0.611979,8.99219 2.24219,7.03906 C3.8724,5.08594 6.20052,1.32552 9.22656,-4.24219 C12.2526,-9.8099 13.7656,-16.2083 13.7656,-23.4375 C13.7656,-24.4792 14.224,-25 15.1406,-25 C15.3385,-25 15.6484,-24.9349 16.0703,-24.8047 C16.4922,-24.6745 17.4036,-24.4635 18.8047,-24.1719 C20.2057,-23.8802 21.6536,-23.7344 23.1484,-23.7344"/>
<path class="" transform="matrix(0.992126,0,0,0.992126,154.781,172.72)" d="M23.1484,-23.7344 C24.6432,-23.7344 26.0755,-23.9609 27.4453,-24.4141 C28.8151,-24.8672 29.7917,-25.0938 30.375,-25.0938 C30.9583,-25.0938 31.349,-24.7396 31.5469,-24.0313 C31.5469,-23.9583 31.4792,-23.7604 31.3438,-23.4375 L2.9375,9.57813 L19.625,9.57813 L19.625,-3.51563 C19.625,-5.14063 20.5729,-6.3125 22.4688,-7.03125 C24.4167,-7.75 26.6302,-10.6458 29.1094,-15.7188 C29.2969,-16.1146 29.5885,-16.3125 29.9844,-16.3125 C30.7656,-16.3125 31.2188,-15.8542 31.3438,-14.9375 L31.3438,9.57813 L38.4844,9.57813 C39.3906,9.57813 39.8776,10.0651 39.9453,11.0391 C40.013,12.013 39.526,12.5 38.4844,12.5 L31.3438,12.5 L31.3438,13.2813 C31.3438,15.8854 31.9948,18.099 33.2969,19.9219 C34.7969,21.7448 36.5573,22.6563 38.5781,22.6563 C39.3594,22.6563 39.75,23.0469 39.75,23.8281 C39.75,24.6094 39.2135,25 38.1406,25 C37.0677,25 35.0651,24.7891 32.1328,24.3672 C29.2005,23.9453 26.9375,23.7344 25.3438,23.7344 C23.75,23.7344 21.5365,23.9453 18.7031,24.3672 C15.8698,24.7891 13.7396,25 12.3125,25 C11.5313,25 11.1406,24.6094 11.1406,23.8281 C11.1406,23.0469 11.5313,22.6563 12.3125,22.6563 C14.3229,22.6563 16.0781,21.7448 17.5781,19.9219 C18.9427,18.0365 19.625,15.8229 19.625,13.2813 L19.625,12.5 L2.9375,12.5 C2.08333,12.5 1.34635,12.2734 0.726563,11.8203 C0.106771,11.3672 -0.203125,10.9453 -0.203125,10.5547 C-0.203125,10.1641 0.611979,8.99219 2.24219,7.03906 C3.8724,5.08594 6.20052,1.32552 9.22656,-4.24219 C12.2526,-9.8099 13.7656,-16.2083 13.7656,-23.4375 C13.7656,-24.4792 14.224,-25 15.1406,-25 C15.3385,-25 15.6484,-24.9349 16.0703,-24.8047 C16.4922,-24.6745 17.4036,-24.4635 18.8047,-24.1719 C20.2057,-23.8802 21.6536,-23.7344 23.1484,-23.7344"/>
<path class="" transform="matrix(0.992126,0,0,0.992126,154.781,222.497)" d="M23.1484,-23.7344 C24.6432,-23.7344 26.0755,-23.9609 27.4453,-24.4141 C28.8151,-24.8672 29.7917,-25.0938 30.375,-25.0938 C30.9583,-25.0938 31.349,-24.7396 31.5469,-24.0313 C31.5469,-23.9583 31.4792,-23.7604 31.3438,-23.4375 L2.9375,9.57813 L19.625,9.57813 L19.625,-3.51563 C19.625,-5.14063 20.5729,-6.3125 22.4688,-7.03125 C24.4167,-7.75 26.6302,-10.6458 29.1094,-15.7188 C29.2969,-16.1146 29.5885,-16.3125 29.9844,-16.3125 C30.7656,-16.3125 31.2188,-15.8542 31.3438,-14.9375 L31.3438,9.57813 L38.4844,9.57813 C39.3906,9.57813 39.8776,10.0651 39.9453,11.0391 C40.013,12.013 39.526,12.5 38.4844,12.5 L31.3438,12.5 L31.3438,13.2813 C31.3438,15.8854 31.9948,18.099 33.2969,19.9219 C34.7969,21.7448 36.5573,22.6563 38.5781,22.6563 C39.3594,22.6563 39.75,23.0469 39.75,23.8281 C39.75,24.6094 39.2135,25 38.1406,25 C37.0677,25 35.0651,24.7891 32.1328,24.3672 C29.2005,23.9453 26.9375,23.7344 25.3438,23.7344 C23.75,23.7344 21.5365,23.9453 18.7031,24.3672 C15.8698,24.7891 13.7396,25 12.3125,25 C11.5313,25 11.1406,24.6094 11.1406,23.8281 C11.1406,23.0469 11.5313,22.6563 12.3125,22.6563 C14.3229,22.6563 16.0781,21.7448 17.5781,19.9219 C18.9427,18.0365 19.625,15.8229 19.625,13.2813 L19.625,12.5 L2.9375,12.5 C2.08333,12.5 1.34635,12.2734 0.726563,11.8203 C0.106771,11.3672 -0.203125,10.9453 -0.203125,10.5547 C-0.203125,10.1641 0.611979,8.99219 2.24219,7.03906 C3.8724,5.08594 6.20052,1.32552 9.22656,-4.24219 C12.2526,-9.8099 13.7656,-16.2083 13.7656,-23.4375 C13.7656,-24.4792 14.224,-25 15.1406,-25 C15.3385,-25 15.6484,-24.9349 16.0703,-24.8047 C16.4922,-24.6745 17.4036,-24.4635 18.8047,-24.1719 C20.2057,-23.8802 21.6536,-23.7344 23.1484,-23.7344"/>
<path class="" fill-rule="evenodd" d="M2242.07,677.835 L2410.18,677.835 L2410.18,695.197 L2242.07,695.197 L2242.07,677.835 "/>
<path class="" fill-rule="evenodd" d="M2242.07,648.319 L2362.31,648.319 L2362.31,665.681 L2242.07,665.681 L2242.07,648.319 "/>
<path class="" fill-rule="evenodd" d="M2311.2,618.804 L2362.31,618.804 L2362.31,636.166 L2311.2,636.166 L2311.2,618.804 "/>
<path class="" fill-rule="evenodd" d="M1689.4,677.835 L1947.47,677.835 L1947.47,695.197 L1689.4,695.197 L1689.4,677.835 "/>
<path class="" fill-rule="evenodd" d="M1689.4,648.319 L1947.47,648.319 L1947.47,665.681 L1689.4,665.681 L1689.4,648.319 "/>
<path class="" fill-rule="evenodd" d="M1758.54,618.804 L1839.48,618.804 L1839.48,636.166 L1758.54,636.166 L1758.54,618.804 "/>
<path class="" fill-rule="evenodd" d="M1434.11,677.835 L1644.75,677.835 L1644.75,695.197 L1434.11,695.197 L1434.11,677.835 "/>
<path class="" fill-rule="evenodd" d="M1524.51,648.319 L1644.75,648.319 L1644.75,665.681 L1524.51,665.681 L1524.51,648.319 "/>
<path class="" fill-rule="evenodd" d="M1593.65,618.804 L1644.75,618.804 L1644.75,636.166 L1593.65,636.166 L1593.65,618.804 "/>
<path class="" fill-rule="evenodd" d="M1127.79,677.835 L1305.92,677.835 L1305.92,695.197 L1127.79,695.197 L1127.79,677.835 "/>
<path class="" fill-rule="evenodd" d="M1127.79,648.319 L1255.14,648.319 L1255.14,665.681 L1127.79,665.681 L1127.79,648.319 "/>
<path class="" fill-rule="evenodd" d="M1201.13,618.804 L1255.14,618.804 L1255.14,636.166 L1201.13,636.166 L1201.13,618.804 "/>
<path class="" fill-rule="evenodd" d="M514.874,677.835 L781.343,677.835 L781.343,695.197 L514.874,695.197 L514.874,677.835 "/>
<path class="" fill-rule="evenodd" d="M514.874,648.319 L781.343,648.319 L781.343,665.681 L514.874,665.681 L514.874,648.319 "/>
<path class="" fill-rule="evenodd" d="M588.213,618.804 L669.148,618.804 L669.148,636.166 L588.213,636.166 L588.213,618.804 "/>
<path class="" fill-rule="evenodd" d="M244.072,677.835 L467.314,677.835 L467.314,695.197 L244.072,695.197 L244.072,677.835 "/>
<path class="" fill-rule="evenodd" d="M339.966,648.319 L467.314,648.319 L467.314,665.681 L339.966,665.681 L339.966,648.319 "/>
<path class="" fill-rule="evenodd" d="M413.305,618.804 L467.314,618.804 L467.314,636.166 L413.305,636.166 L413.305,618.804 "/>
<path class="" fill-rule="evenodd" d="M2013.39,263.337 L2176.15,263.337 L2176.15,280.699 L2013.39,280.699 L2013.39,263.337 "/>
<path class="" fill-rule="evenodd" d="M2103.79,233.821 L2176.15,233.821 L2176.15,251.183 L2103.79,251.183 L2103.79,233.821 "/>
<path class="" fill-rule="evenodd" d="M1127.79,263.337 L1305.92,263.337 L1305.92,280.699 L1127.79,280.699 L1127.79,263.337 "/>
<path class="" fill-rule="evenodd" d="M851.458,263.337 L1070.87,263.337 L1070.87,280.699 L851.458,280.699 L851.458,263.337 "/>
<path class="" fill-rule="evenodd" d="M947.352,233.821 L1070.87,233.821 L1070.87,251.183 L947.352,251.183 L947.352,233.821 "/>
<path class="" fill-rule="evenodd" d="M514.874,263.337 L781.343,263.337 L781.343,280.699 L514.874,280.699 L514.874,263.337 "/>
<path class="" fill-rule="evenodd" d="M704.78,233.821 L781.343,233.821 L781.343,251.183 L704.78,251.183 L704.78,233.821 "/>
<path class="" d="M1792.38,728.104 C1793.52,727.589 1794.1,726.245 1793.6,725.089 C1793.52,724.901 1793.46,724.714 1793.46,724.589 C1793.4,723.886 1794.62,722.339 1796.85,722.214 C1799.48,722.089 1800.82,722.276 1801.09,725.995 C1801.21,728.417 1797.37,729.386 1796.35,729.511 C1795.07,729.761 1794.31,730.917 1794.43,732.073 C1794.56,733.292 1795.77,734.058 1796.73,734.12 C1797.63,734.12 1802.74,734.308 1803.26,738.729 C1803.32,739.042 1803.38,739.37 1803.38,739.683 C1803.65,744.542 1801.52,746.151 1797.43,746.339 C1796.09,746.401 1794.87,746.026 1793.98,745.448 C1792.32,744.354 1791.74,742.823 1792.96,740.964 C1793.66,739.948 1793.34,738.464 1792.32,737.761 C1791.29,737.058 1789.88,737.386 1789.18,738.401 C1786.43,742.558 1788.02,747.042 1791.41,749.292 C1793.15,750.433 1795.38,751.073 1797.7,750.948 C1803.71,750.636 1808.32,746.792 1807.93,739.433 C1807.93,738.979 1807.93,738.604 1807.87,738.151 C1807.48,734.761 1805.63,732.589 1803.45,731.245 C1804.73,730.026 1805.76,728.104 1805.63,725.729 C1805.24,719.214 1800.63,717.354 1796.6,717.604 C1793.09,717.792 1788.54,720.354 1788.85,724.901 C1788.93,725.542 1789.12,726.308 1789.37,726.948 C1789.88,728.104 1791.23,728.62 1792.38,728.104"/>
<polyline class="" fill="none" stroke="#000000" stroke-width="2.48" stroke-linecap="square" stroke-linejoin="bevel" points="1746.14,710.451 1746.14,735.254 1773.5,734.895"/>
<polyline class="" fill="none" stroke="#000000" stroke-width="2.48" stroke-linecap="square" stroke-linejoin="bevel" points="1821.3,734.267 1868.91,733.642 1868.91,708.839"/>
<path class="" d="M618.078,720.155 C619.219,719.64 619.797,718.296 619.297,717.14 C619.219,716.952 619.156,716.765 619.156,716.64 C619.094,715.937 620.313,714.39 622.547,714.265 C625.172,714.14 626.516,714.327 626.781,718.046 C626.906,720.468 623.063,721.437 622.047,721.562 C620.766,721.812 620,722.968 620.125,724.124 C620.25,725.343 621.469,726.108 622.422,726.171 C623.328,726.171 628.438,726.358 628.953,730.78 C629.016,731.093 629.078,731.421 629.078,731.733 C629.344,736.593 627.219,738.202 623.125,738.39 C621.781,738.452 620.563,738.077 619.672,737.499 C618.016,736.405 617.438,734.874 618.656,733.015 C619.359,731.999 619.031,730.515 618.016,729.812 C616.984,729.108 615.578,729.437 614.875,730.452 C612.125,734.608 613.719,739.093 617.109,741.343 C618.844,742.483 621.078,743.124 623.391,742.999 C629.406,742.687 634.016,738.843 633.625,731.483 C633.625,731.03 633.625,730.655 633.563,730.202 C633.172,726.812 631.328,724.64 629.141,723.296 C630.422,722.077 631.453,720.155 631.328,717.78 C630.938,711.265 626.328,709.405 622.297,709.655 C618.781,709.843 614.234,712.405 614.547,716.952 C614.625,717.593 614.813,718.358 615.063,718.999 C615.578,720.155 616.922,720.671 618.078,720.155"/>
<polyline class="" fill="none" stroke="#000000" stroke-width="2.48" stroke-linecap="square" stroke-linejoin="bevel" points="571.837,702.502 571.837,727.305 599.192,726.946"/>
<polyline class="" fill="none" stroke="#000000" stroke-width="2.48" stroke-linecap="square" stroke-linejoin="bevel" points="646.995,726.318 694.604,725.693 694.604,700.89"/>
<path class="" d="M996.861,297.942 C998.001,297.426 998.579,296.082 998.079,294.926 C998.001,294.738 997.939,294.551 997.939,294.426 C997.876,293.723 999.095,292.176 1001.33,292.051 C1003.95,291.926 1005.3,292.113 1005.56,295.832 C1005.69,298.254 1001.84,299.223 1000.83,299.348 C999.548,299.598 998.782,300.754 998.907,301.91 C999.032,303.129 1000.25,303.895 1001.2,303.957 C1002.11,303.957 1007.22,304.145 1007.74,308.567 C1007.8,308.879 1007.86,309.207 1007.86,309.52 C1008.13,314.379 1006,315.988 1001.91,316.176 C1000.56,316.238 999.345,315.863 998.454,315.285 C996.798,314.192 996.22,312.66 997.439,310.801 C998.142,309.785 997.814,308.301 996.798,307.598 C995.767,306.895 994.361,307.223 993.657,308.238 C990.907,312.395 992.501,316.879 995.892,319.129 C997.626,320.27 999.861,320.91 1002.17,320.785 C1008.19,320.473 1012.8,316.629 1012.41,309.27 C1012.41,308.817 1012.41,308.442 1012.34,307.988 C1011.95,304.598 1010.11,302.426 1007.92,301.082 C1009.2,299.863 1010.24,297.942 1010.11,295.567 C1009.72,289.051 1005.11,287.192 1001.08,287.442 C997.564,287.629 993.017,290.192 993.329,294.738 C993.407,295.379 993.595,296.145 993.845,296.785 C994.361,297.942 995.704,298.457 996.861,297.942"/>
<polyline class="" fill="none" stroke="#000000" stroke-width="2.48" stroke-linecap="square" stroke-linejoin="bevel" points="929.329,280.288 929.329,305.091 977.975,304.617"/>
<polyline class="" fill="none" stroke="#000000" stroke-width="2.48" stroke-linecap="square" stroke-linejoin="bevel" points="1025.78,304.151 1094.68,303.479 1094.68,278.676"/>
<path class="" d="M71.69,5.90485 L67.8932,5.90485 L67.8932,57.6392 C66.5963,56.858 65.0025,56.3736 63.1744,56.1861 C62.6744,56.1236 62.1588,56.108 61.6432,56.108 C58.5025,56.108 55.1432,56.9986 51.9869,58.7017 C48.315,60.6861 45.3932,63.5142 43.7369,66.6705 C42.0807,69.8423 41.9088,72.9673 43.2525,75.4517 C44.8463,78.4048 48.2994,79.9517 52.3932,79.9517 C55.44,79.9517 58.815,79.0923 62.065,77.358 C67.9713,74.1548 71.6588,68.8892 71.69,64.2798 L71.69,5.90485 "/>
<path class="" d="M133.565,49.5923 L95.4869,49.5923 L95.4869,42.9673 L133.565,42.9673 L133.565,49.5923 M133.565,66.4361 L95.4869,66.4361 L95.4869,59.8111 L133.565,59.8111 L133.565,66.4361 M183.518,54.8423 L187.878,54.8423 L187.878,62.4986 L183.518,62.4986 L183.518,72.4361 L173.518,72.4361 L173.518,62.4986 L156.409,62.4986 L156.409,54.7017 C160.138,48.8163 165.982,40.6757 173.94,30.2798 L178.003,24.9673 L183.518,24.9673 L183.518,54.8423 M173.659,54.8423 L173.659,34.3423 L159.237,54.8423 L173.659,54.8423 M191.253,48.983 C191.253,42.2121 192.747,36.5168 195.737,31.897 C198.726,27.2772 202.43,24.9673 206.846,24.9673 C211.305,24.9673 215.018,27.2772 217.987,31.897 C220.956,36.5168 222.44,42.2798 222.44,49.1861 C222.44,56.134 220.969,61.8944 218.026,66.4673 C215.083,71.0403 211.378,73.3267 206.909,73.3267 C202.315,73.3267 198.557,71.0507 195.635,66.4986 C192.713,61.9465 191.253,56.108 191.253,48.983 M206.909,71.4048 C208.43,71.4048 209.581,70.3684 210.362,68.2955 C211.143,66.2226 211.534,62.4986 211.534,57.1236 L211.534,41.3111 C211.534,36.2069 211.167,32.5272 210.432,30.272 C209.698,28.0168 208.482,26.8892 206.784,26.8892 C205.128,26.8892 203.943,27.9934 203.229,30.2017 C202.516,32.4101 202.159,36.1132 202.159,41.3111 L202.159,57.1236 C202.159,62.2278 202.526,65.884 203.26,68.0923 C203.995,70.3007 205.211,71.4048 206.909,71.4048"/>
<path class="" fill="#3465a4" stroke="#729fcf" stroke-width="4.96" stroke-linecap="square" stroke-linejoin="miter" stroke-miterlimit="2" fill-rule="evenodd" d="M1432.91,466.159 C1432.91,459.532 1438.5,454.159 1445.41,454.159 L1669.17,454.159 C1676.07,454.159 1681.67,459.532 1681.67,466.159 L1681.67,517.923 C1681.67,524.55 1676.07,529.923 1669.17,529.923 L1445.41,529.923 C1438.5,529.923 1432.91,524.55 1432.91,517.923 L1432.91,466.159 "/>
<path class="" fill="#ffffff" d="M1470.74,503.494 C1470.74,503.338 1470.7,503.135 1470.59,502.994 L1462.45,489.338 L1462.38,489.244 C1466.34,487.885 1469.38,484.494 1469.38,479.697 C1469.38,477.041 1468.7,474.838 1467.34,473.181 C1465.13,470.494 1461.29,469.588 1456.79,469.588 L1449.59,469.588 C1448.84,469.588 1448.59,469.885 1448.59,470.681 L1448.59,502.994 C1448.59,503.697 1448.88,504.041 1449.54,504.041 L1452.29,504.041 C1452.95,504.041 1453.24,503.635 1453.24,502.994 L1453.24,490.041 L1458.04,490.041 L1465.54,503.135 C1465.88,503.791 1466.34,504.041 1467.09,504.041 L1470.09,504.041 C1470.54,504.041 1470.74,503.791 1470.74,503.494 M1464.7,479.744 C1464.7,484.197 1461.49,486.541 1457.09,486.541 L1453.24,486.541 L1453.24,473.135 L1456.45,473.135 C1461.59,473.135 1464.7,474.838 1464.7,479.744 M1494.07,491.197 L1494.07,490.338 C1494.07,487.088 1493.23,484.135 1491.23,482.088 C1489.57,480.385 1487.27,479.338 1484.43,479.338 C1477.23,479.338 1472.77,484.791 1472.77,491.947 C1472.77,499.494 1476.87,504.541 1484.57,504.541 C1486.87,504.541 1490.07,504.088 1492.23,503.088 C1492.62,502.885 1492.82,502.744 1492.82,502.447 C1492.82,502.385 1492.82,502.291 1492.77,502.197 L1492.23,500.338 C1492.12,499.994 1491.87,499.885 1491.62,499.885 C1491.48,499.885 1491.32,499.947 1491.12,499.994 C1489.48,500.635 1487.18,501.041 1485.12,501.041 C1480.07,501.041 1477.37,497.338 1477.23,492.588 L1492.57,492.588 C1493.87,492.588 1494.07,492.338 1494.07,491.197 M1489.87,489.697 L1477.32,489.697 C1477.73,485.994 1480.07,482.635 1484.23,482.635 C1488.02,482.635 1489.87,485.588 1489.87,488.994 L1489.87,489.697 M1520.71,491.744 C1520.71,485.291 1517.56,479.338 1510.46,479.338 C1507.62,479.338 1504.62,480.635 1503.01,482.541 L1503.01,480.791 C1503.01,480.088 1502.62,479.885 1501.87,479.885 L1499.96,479.885 C1499.31,479.885 1499.01,480.088 1499.01,480.791 L1499.01,513.744 C1499.01,514.447 1499.31,514.791 1499.96,514.791 L1502.16,514.791 C1502.81,514.791 1503.26,514.588 1503.26,513.838 L1503.26,501.744 C1504.76,503.588 1507.41,504.541 1509.87,504.541 C1517.12,504.541 1520.71,498.385 1520.71,491.744 M1516.26,491.838 C1516.26,496.291 1514.46,501.197 1509.31,501.197 C1506.87,501.197 1504.31,499.635 1503.26,497.697 L1503.26,485.947 C1504.51,484.135 1507.26,482.744 1509.62,482.744 C1514.81,482.744 1516.26,487.494 1516.26,491.838 M1545.95,491.197 L1545.95,490.338 C1545.95,487.088 1545.1,484.135 1543.1,482.088 C1541.45,480.385 1539.15,479.338 1536.31,479.338 C1529.1,479.338 1524.65,484.791 1524.65,491.947 C1524.65,499.494 1528.74,504.541 1536.45,504.541 C1538.74,504.541 1541.95,504.088 1544.1,503.088 C1544.49,502.885 1544.7,502.744 1544.7,502.447 C1544.7,502.385 1544.7,502.291 1544.65,502.197 L1544.1,500.338 C1543.99,499.994 1543.74,499.885 1543.49,499.885 C1543.35,499.885 1543.2,499.947 1542.99,499.994 C1541.35,500.635 1539.06,501.041 1536.99,501.041 C1531.95,501.041 1529.24,497.338 1529.1,492.588 L1544.45,492.588 C1545.74,492.588 1545.95,492.338 1545.95,491.197 M1541.74,489.697 L1529.2,489.697 C1529.6,485.994 1531.95,482.635 1536.1,482.635 C1539.9,482.635 1541.74,485.588 1541.74,488.994 L1541.74,489.697 M1564.34,502.838 C1564.34,502.791 1564.29,502.744 1564.29,502.635 L1563.88,501.041 C1563.79,500.697 1563.54,500.541 1563.29,500.541 C1563.18,500.541 1563.09,500.541 1562.99,500.588 C1562.18,500.838 1560.99,501.197 1559.84,501.197 C1558.54,501.197 1557.63,500.791 1557.09,500.197 C1556.34,499.338 1556.24,498.041 1556.24,496.385 L1556.24,482.885 L1562.09,482.885 C1562.59,482.885 1562.84,482.744 1562.84,482.244 L1562.84,480.541 C1562.84,479.994 1562.59,479.885 1562.13,479.885 L1556.24,479.885 L1556.24,473.744 C1556.24,473.181 1555.99,472.838 1555.49,472.838 C1555.43,472.838 1555.34,472.838 1555.29,472.838 L1552.84,473.181 C1552.18,473.291 1551.99,473.494 1551.99,474.181 L1551.99,479.885 L1549.13,479.885 C1548.68,479.885 1548.49,480.088 1548.49,480.588 L1548.49,482.135 C1548.49,482.791 1548.59,482.885 1549.24,482.885 L1551.99,482.885 L1551.99,495.994 C1551.99,499.088 1552.09,501.088 1553.54,502.697 C1554.68,503.947 1556.84,504.541 1558.99,504.541 C1560.68,504.541 1562.49,504.135 1563.63,503.635 C1564.04,503.494 1564.34,503.244 1564.34,502.838 M1573.52,473.994 C1573.52,472.541 1572.27,471.588 1570.93,471.588 C1569.57,471.588 1568.37,472.541 1568.37,473.994 C1568.37,475.431 1569.57,476.385 1570.93,476.385 C1572.23,476.385 1573.52,475.431 1573.52,473.994 M1573.07,502.994 L1573.07,480.885 C1573.07,480.197 1572.77,479.885 1572.12,479.885 L1569.82,479.885 C1569.18,479.885 1568.82,480.197 1568.82,480.885 L1568.82,502.994 C1568.82,503.697 1569.18,504.041 1569.82,504.041 L1572.12,504.041 C1572.77,504.041 1573.07,503.697 1573.07,502.994 M1597.77,502.447 C1597.77,502.291 1597.71,502.088 1597.66,501.885 L1597.21,500.494 C1597.12,500.135 1596.96,499.994 1596.71,499.994 C1596.62,499.994 1596.46,500.041 1596.32,500.088 C1594.71,500.791 1592.87,501.291 1590.71,501.291 C1585.37,501.291 1583.16,496.885 1583.16,491.791 C1583.16,486.197 1586.16,482.635 1590.91,482.635 C1592.87,482.635 1594.57,483.197 1596.12,483.885 C1596.27,483.994 1596.46,484.041 1596.57,484.041 C1596.87,484.041 1597.02,483.791 1597.12,483.447 L1597.52,481.838 C1597.57,481.697 1597.62,481.588 1597.62,481.447 C1597.62,481.135 1597.46,480.947 1597.12,480.791 C1595.37,479.885 1592.87,479.338 1590.71,479.338 C1583.21,479.338 1578.77,484.635 1578.77,491.994 C1578.77,499.447 1582.57,504.541 1590.41,504.541 C1592.71,504.541 1595.02,504.088 1597.16,503.088 C1597.62,502.885 1597.77,502.744 1597.77,502.447 M1607.01,473.994 C1607.01,472.541 1605.76,471.588 1604.41,471.588 C1603.06,471.588 1601.85,472.541 1601.85,473.994 C1601.85,475.431 1603.06,476.385 1604.41,476.385 C1605.71,476.385 1607.01,475.431 1607.01,473.994 M1606.56,502.994 L1606.56,480.885 C1606.56,480.197 1606.26,479.885 1605.6,479.885 L1603.31,479.885 C1602.66,479.885 1602.31,480.197 1602.31,480.885 L1602.31,502.994 C1602.31,503.697 1602.66,504.041 1603.31,504.041 L1605.6,504.041 C1606.26,504.041 1606.56,503.697 1606.56,502.994 M1628.31,471.588 C1628.31,471.431 1628.26,471.181 1628.1,470.994 L1627.15,469.494 C1626.9,469.135 1626.65,468.994 1626.4,468.994 C1626.2,468.994 1626.01,469.088 1625.7,469.291 L1618.7,473.791 C1618.35,473.994 1618.26,474.244 1618.26,474.431 C1618.26,474.588 1618.31,474.744 1618.45,474.931 L1618.95,475.681 C1619.15,475.994 1619.4,476.135 1619.65,476.135 C1619.81,476.135 1620.01,476.088 1620.26,475.994 L1627.81,472.244 C1628.15,472.088 1628.31,471.838 1628.31,471.588 M1635.1,491.947 C1635.1,484.697 1631.6,479.338 1623.85,479.338 C1616.4,479.338 1612.35,484.838 1612.35,491.885 C1612.35,499.041 1615.81,504.541 1623.56,504.541 C1631.01,504.541 1635.1,498.994 1635.1,491.947 M1630.7,491.994 C1630.7,496.635 1628.85,501.244 1623.6,501.244 C1618.31,501.244 1616.76,496.385 1616.76,491.791 C1616.76,487.385 1618.4,482.635 1623.81,482.635 C1629.01,482.635 1630.7,487.338 1630.7,491.994 M1660.7,502.994 L1660.7,488.291 C1660.7,482.838 1658.49,479.338 1652.74,479.338 C1649.84,479.338 1646.84,480.385 1644.54,482.338 L1644.49,480.791 C1644.49,480.135 1644.13,479.885 1643.54,479.885 L1641.34,479.885 C1640.63,479.885 1640.38,480.197 1640.38,480.885 L1640.38,503.041 C1640.38,503.697 1640.74,504.041 1641.34,504.041 L1643.7,504.041 C1644.34,504.041 1644.63,503.697 1644.63,502.994 L1644.63,485.791 C1646.38,484.197 1649.24,482.885 1651.54,482.885 C1655.54,482.885 1656.45,485.447 1656.45,488.994 L1656.45,502.994 C1656.45,503.697 1656.74,504.041 1657.38,504.041 L1659.74,504.041 C1660.45,504.041 1660.7,503.697 1660.7,502.994"/>
<path class="" fill="#3465a4" stroke="#729fcf" stroke-width="4.96" stroke-linecap="square" stroke-linejoin="miter" stroke-miterlimit="2" fill-rule="evenodd" d="M222.247,455.775 C222.247,449.147 227.844,443.775 234.748,443.775 L844.509,443.775 C851.413,443.775 857.01,449.147 857.01,455.775 L857.01,498.538 C857.01,505.166 851.413,510.538 844.509,510.538 L234.748,510.538 C227.844,510.538 222.247,505.166 222.247,498.538 L222.247,455.775 "/>
<path class="" fill="#ffffff" d="M260.082,494.11 C260.082,493.953 260.035,493.75 259.925,493.61 L251.785,479.953 L251.722,479.86 C255.675,478.5 258.722,475.11 258.722,470.313 C258.722,467.657 258.035,465.453 256.675,463.797 C254.472,461.11 250.628,460.203 246.128,460.203 L238.925,460.203 C238.175,460.203 237.925,460.5 237.925,461.297 L237.925,493.61 C237.925,494.313 238.222,494.657 238.878,494.657 L241.628,494.657 C242.285,494.657 242.582,494.25 242.582,493.61 L242.582,480.657 L247.378,480.657 L254.878,493.75 C255.222,494.407 255.675,494.657 256.425,494.657 L259.425,494.657 C259.878,494.657 260.082,494.407 260.082,494.11 M254.035,470.36 C254.035,474.813 250.832,477.157 246.425,477.157 L242.582,477.157 L242.582,463.75 L245.785,463.75 C250.925,463.75 254.035,465.453 254.035,470.36 M270.363,464.61 C270.363,463.157 269.113,462.203 267.769,462.203 C266.41,462.203 265.207,463.157 265.207,464.61 C265.207,466.047 266.41,467 267.769,467 C269.066,467 270.363,466.047 270.363,464.61 M269.91,493.61 L269.91,471.5 C269.91,470.813 269.613,470.5 268.957,470.5 L266.66,470.5 C266.019,470.5 265.66,470.813 265.66,471.5 L265.66,493.61 C265.66,494.313 266.019,494.657 266.66,494.657 L268.957,494.657 C269.613,494.657 269.91,494.313 269.91,493.61 M290.457,493.453 C290.457,493.407 290.41,493.36 290.41,493.25 L290.003,491.657 C289.91,491.313 289.66,491.157 289.41,491.157 C289.3,491.157 289.207,491.157 289.113,491.203 C288.3,491.453 287.113,491.813 285.957,491.813 C284.66,491.813 283.753,491.407 283.207,490.813 C282.457,489.953 282.363,488.657 282.363,487 L282.363,473.5 L288.207,473.5 C288.707,473.5 288.957,473.36 288.957,472.86 L288.957,471.157 C288.957,470.61 288.707,470.5 288.253,470.5 L282.363,470.5 L282.363,464.36 C282.363,463.797 282.113,463.453 281.613,463.453 C281.55,463.453 281.457,463.453 281.41,463.453 L278.957,463.797 C278.3,463.907 278.113,464.11 278.113,464.797 L278.113,470.5 L275.253,470.5 C274.8,470.5 274.613,470.703 274.613,471.203 L274.613,472.75 C274.613,473.407 274.707,473.5 275.363,473.5 L278.113,473.5 L278.113,486.61 C278.113,489.703 278.207,491.703 279.66,493.313 C280.8,494.563 282.957,495.157 285.113,495.157 C286.8,495.157 288.613,494.75 289.753,494.25 C290.16,494.11 290.457,493.86 290.457,493.453 M329.253,493.61 L329.253,479.703 C329.253,476.907 328.8,474.703 327.753,473.063 C326.55,471.203 324.441,469.953 321.097,469.953 C318.191,469.953 315.05,471 312.738,473.063 C311.441,470.953 308.988,469.953 306.238,469.953 C303.55,469.953 300.738,471.063 298.644,472.953 L298.597,471.407 C298.597,470.75 298.191,470.5 297.597,470.5 L295.441,470.5 C294.847,470.5 294.488,470.86 294.488,471.5 L294.488,493.61 C294.488,494.313 294.8,494.657 295.441,494.657 L297.8,494.657 C298.441,494.657 298.738,494.313 298.738,493.61 L298.738,476.407 C300.55,474.75 302.941,473.453 305.238,473.453 C309.191,473.453 309.941,476.11 309.941,479.563 L309.941,493.61 C309.941,494.313 310.3,494.657 310.941,494.657 L313.238,494.657 C313.894,494.657 314.191,494.313 314.191,493.61 L314.191,481.313 C314.191,479.75 314.097,476.75 313.8,475.813 C315.55,474.453 318.003,473.453 320.05,473.453 C324.097,473.453 325.003,475.953 325.003,479.563 L325.003,493.61 C325.003,494.313 325.347,494.657 326.003,494.657 L328.3,494.657 C328.941,494.657 329.253,494.313 329.253,493.61 M357.332,482.563 C357.332,475.313 353.832,469.953 346.082,469.953 C338.628,469.953 334.582,475.453 334.582,482.5 C334.582,489.657 338.035,495.157 345.785,495.157 C353.238,495.157 357.332,489.61 357.332,482.563 M352.925,482.61 C352.925,487.25 351.082,491.86 345.832,491.86 C340.535,491.86 338.988,487 338.988,482.407 C338.988,478 340.628,473.25 346.035,473.25 C351.238,473.25 352.925,477.953 352.925,482.61 M396.316,494 L396.316,492.313 C396.316,491.75 396.066,491.657 395.613,491.657 L395.269,491.657 C394.863,491.657 394.613,491.563 394.41,491.203 C394.207,490.907 394.16,490.11 394.16,488.953 L394.16,471.453 C394.16,470.813 393.863,470.5 393.269,470.5 L391.019,470.5 C390.457,470.5 390.066,470.75 390.066,471.36 L390.019,473 C388.519,471 385.816,469.953 383.316,469.953 C377.613,469.953 372.66,474.657 372.66,483 C372.66,489.313 375.707,495.157 382.613,495.157 C385.66,495.157 388.957,493.157 390.113,490.953 L390.207,490.953 C390.207,492.953 391.269,494.657 393.457,494.657 L395.566,494.657 C396.066,494.657 396.316,494.5 396.316,494 M389.91,486.563 C389.019,489.063 386.457,491.61 383.269,491.61 C379.66,491.61 377.113,488.203 377.113,482.703 C377.113,476.75 380.019,473.36 383.863,473.36 C386.269,473.36 388.707,474.703 389.91,476.953 L389.91,486.563 M416.941,493.61 L416.941,459.953 C416.941,459.297 416.644,459.11 416.191,459.11 C416.097,459.11 416.05,459.11 415.941,459.11 L413.441,459.453 C412.847,459.547 412.691,459.75 412.691,460.453 L412.691,493.657 C412.691,494.36 413.003,494.657 413.597,494.657 L416.05,494.657 C416.644,494.657 416.941,494.313 416.941,493.61 M445.738,494 L445.738,492.313 C445.738,491.75 445.488,491.657 445.035,491.657 L444.691,491.657 C444.285,491.657 444.035,491.563 443.832,491.203 C443.628,490.907 443.582,490.11 443.582,488.953 L443.582,471.453 C443.582,470.813 443.285,470.5 442.691,470.5 L440.441,470.5 C439.878,470.5 439.488,470.75 439.488,471.36 L439.441,473 C437.941,471 435.238,469.953 432.738,469.953 C427.035,469.953 422.082,474.657 422.082,483 C422.082,489.313 425.128,495.157 432.035,495.157 C435.082,495.157 438.378,493.157 439.535,490.953 L439.628,490.953 C439.628,492.953 440.691,494.657 442.878,494.657 L444.988,494.657 C445.488,494.657 445.738,494.5 445.738,494 M439.332,486.563 C438.441,489.063 435.878,491.61 432.691,491.61 C429.082,491.61 426.535,488.203 426.535,482.703 C426.535,476.75 429.441,473.36 433.285,473.36 C435.691,473.36 438.128,474.703 439.332,476.953 L439.332,486.563 M496.878,493.61 L496.878,479.703 C496.878,476.907 496.425,474.703 495.378,473.063 C494.175,471.203 492.066,469.953 488.722,469.953 C485.816,469.953 482.675,471 480.363,473.063 C479.066,470.953 476.613,469.953 473.863,469.953 C471.175,469.953 468.363,471.063 466.269,472.953 L466.222,471.407 C466.222,470.75 465.816,470.5 465.222,470.5 L463.066,470.5 C462.472,470.5 462.113,470.86 462.113,471.5 L462.113,493.61 C462.113,494.313 462.425,494.657 463.066,494.657 L465.425,494.657 C466.066,494.657 466.363,494.313 466.363,493.61 L466.363,476.407 C468.175,474.75 470.566,473.453 472.863,473.453 C476.816,473.453 477.566,476.11 477.566,479.563 L477.566,493.61 C477.566,494.313 477.925,494.657 478.566,494.657 L480.863,494.657 C481.519,494.657 481.816,494.313 481.816,493.61 L481.816,481.313 C481.816,479.75 481.722,476.75 481.425,475.813 C483.175,474.453 485.628,473.453 487.675,473.453 C491.722,473.453 492.628,475.953 492.628,479.563 L492.628,493.61 C492.628,494.313 492.972,494.657 493.628,494.657 L495.925,494.657 C496.566,494.657 496.878,494.313 496.878,493.61 M508.707,464.61 C508.707,463.157 507.457,462.203 506.113,462.203 C504.753,462.203 503.55,463.157 503.55,464.61 C503.55,466.047 504.753,467 506.113,467 C507.41,467 508.707,466.047 508.707,464.61 M508.253,493.61 L508.253,471.5 C508.253,470.813 507.957,470.5 507.3,470.5 L505.003,470.5 C504.363,470.5 504.003,470.813 504.003,471.5 L504.003,493.61 C504.003,494.313 504.363,494.657 505.003,494.657 L507.3,494.657 C507.957,494.657 508.253,494.313 508.253,493.61 M528.8,493.453 C528.8,493.407 528.753,493.36 528.753,493.25 L528.347,491.657 C528.253,491.313 528.003,491.157 527.753,491.157 C527.644,491.157 527.55,491.157 527.457,491.203 C526.644,491.453 525.457,491.813 524.3,491.813 C523.003,491.813 522.097,491.407 521.55,490.813 C520.8,489.953 520.707,488.657 520.707,487 L520.707,473.5 L526.55,473.5 C527.05,473.5 527.3,473.36 527.3,472.86 L527.3,471.157 C527.3,470.61 527.05,470.5 526.597,470.5 L520.707,470.5 L520.707,464.36 C520.707,463.797 520.457,463.453 519.957,463.453 C519.894,463.453 519.8,463.453 519.753,463.453 L517.3,463.797 C516.644,463.907 516.457,464.11 516.457,464.797 L516.457,470.5 L513.597,470.5 C513.144,470.5 512.957,470.703 512.957,471.203 L512.957,472.75 C512.957,473.407 513.05,473.5 513.707,473.5 L516.457,473.5 L516.457,486.61 C516.457,489.703 516.55,491.703 518.003,493.313 C519.144,494.563 521.3,495.157 523.457,495.157 C525.144,495.157 526.957,494.75 528.097,494.25 C528.503,494.11 528.8,493.86 528.8,493.453 M554.035,494 L554.035,492.313 C554.035,491.75 553.785,491.657 553.332,491.657 L552.988,491.657 C552.582,491.657 552.332,491.563 552.128,491.203 C551.925,490.907 551.878,490.11 551.878,488.953 L551.878,471.453 C551.878,470.813 551.582,470.5 550.988,470.5 L548.738,470.5 C548.175,470.5 547.785,470.75 547.785,471.36 L547.738,473 C546.238,471 543.535,469.953 541.035,469.953 C535.332,469.953 530.378,474.657 530.378,483 C530.378,489.313 533.425,495.157 540.332,495.157 C543.378,495.157 546.675,493.157 547.832,490.953 L547.925,490.953 C547.925,492.953 548.988,494.657 551.175,494.657 L553.285,494.657 C553.785,494.657 554.035,494.5 554.035,494 M547.628,486.563 C546.738,489.063 544.175,491.61 540.988,491.61 C537.378,491.61 534.832,488.203 534.832,482.703 C534.832,476.75 537.738,473.36 541.582,473.36 C543.988,473.36 546.425,474.703 547.628,476.953 L547.628,486.563 M579.128,493.61 L579.128,459.953 C579.128,459.36 578.878,459.11 578.378,459.11 C578.269,459.11 578.222,459.11 578.128,459.11 L575.675,459.453 C575.019,459.547 574.878,459.86 574.878,460.5 L574.878,472.703 C573.425,470.953 570.675,469.907 568.378,469.907 C561.769,469.907 557.472,475.36 557.472,482.703 C557.472,489.25 560.566,495.157 567.769,495.157 C570.628,495.157 573.519,493.813 575.128,491.907 L575.175,493.703 C575.175,494.36 575.472,494.657 576.222,494.657 L578.378,494.657 C578.816,494.657 579.128,494.25 579.128,493.61 M574.878,488.453 C573.628,490.25 570.925,491.75 568.566,491.75 C564.222,491.75 561.878,487.813 561.878,482.5 C561.878,477 564.472,473.313 568.972,473.313 C571.425,473.313 573.816,474.907 574.878,476.813 L574.878,488.453 M617.66,493.61 L617.66,459.953 C617.66,459.36 617.41,459.11 616.91,459.11 C616.8,459.11 616.753,459.11 616.66,459.11 L614.207,459.453 C613.55,459.547 613.41,459.86 613.41,460.5 L613.41,472.703 C611.957,470.953 609.207,469.907 606.91,469.907 C600.3,469.907 596.003,475.36 596.003,482.703 C596.003,489.25 599.097,495.157 606.3,495.157 C609.16,495.157 612.05,493.813 613.66,491.907 L613.707,493.703 C613.707,494.36 614.003,494.657 614.753,494.657 L616.91,494.657 C617.347,494.657 617.66,494.25 617.66,493.61 M613.41,488.453 C612.16,490.25 609.457,491.75 607.097,491.75 C602.753,491.75 600.41,487.813 600.41,482.5 C600.41,477 603.003,473.313 607.503,473.313 C609.957,473.313 612.347,474.907 613.41,476.813 L613.41,488.453 M644.238,481.813 L644.238,480.953 C644.238,477.703 643.394,474.75 641.394,472.703 C639.738,471 637.441,469.953 634.597,469.953 C627.394,469.953 622.941,475.407 622.941,482.563 C622.941,490.11 627.035,495.157 634.738,495.157 C637.035,495.157 640.238,494.703 642.394,493.703 C642.785,493.5 642.988,493.36 642.988,493.063 C642.988,493 642.988,492.907 642.941,492.813 L642.394,490.953 C642.285,490.61 642.035,490.5 641.785,490.5 C641.644,490.5 641.488,490.563 641.285,490.61 C639.644,491.25 637.347,491.657 635.285,491.657 C630.238,491.657 627.535,487.953 627.394,483.203 L642.738,483.203 C644.035,483.203 644.238,482.953 644.238,481.813 M640.035,480.313 L627.488,480.313 C627.894,476.61 630.238,473.25 634.394,473.25 C638.191,473.25 640.035,476.203 640.035,479.61 L640.035,480.313 M681.128,493.61 L681.128,459.953 C681.128,459.36 680.878,459.11 680.378,459.11 C680.269,459.11 680.222,459.11 680.128,459.11 L677.675,459.453 C677.019,459.547 676.878,459.86 676.878,460.5 L676.878,472.703 C675.425,470.953 672.675,469.907 670.378,469.907 C663.769,469.907 659.472,475.36 659.472,482.703 C659.472,489.25 662.566,495.157 669.769,495.157 C672.628,495.157 675.519,493.813 677.128,491.907 L677.175,493.703 C677.175,494.36 677.472,494.657 678.222,494.657 L680.378,494.657 C680.816,494.657 681.128,494.25 681.128,493.61 M676.878,488.453 C675.628,490.25 672.925,491.75 670.566,491.75 C666.222,491.75 663.878,487.813 663.878,482.5 C663.878,477 666.472,473.313 670.972,473.313 C673.425,473.313 675.816,474.907 676.878,476.813 L676.878,488.453 M707.66,493.563 L707.66,471.5 C707.66,470.813 707.363,470.5 706.707,470.5 L704.363,470.5 C703.707,470.5 703.41,470.813 703.41,471.5 L703.41,488.563 C701.816,490.063 699.003,491.5 696.816,491.5 C692.816,491.5 692.003,489 692.003,485.453 L692.003,471.5 C692.003,470.813 691.66,470.5 691.003,470.5 L688.753,470.5 C688.113,470.5 687.753,470.813 687.753,471.5 L687.753,486.11 C687.753,491.453 689.863,495.157 695.613,495.157 C698.503,495.157 701.207,494.11 703.503,492.157 L703.566,493.703 C703.566,494.313 703.91,494.657 704.503,494.657 L706.66,494.657 C707.363,494.657 707.66,494.313 707.66,493.563 M726.05,470.953 C726.05,470.86 726.05,470.813 726.05,470.703 C726.05,470.407 725.957,470.157 725.66,470.11 C725.16,470 724.55,469.953 724.207,469.953 C721.55,469.953 719.66,471.453 718.457,473.11 L718.41,471.407 C718.41,470.75 718.05,470.5 717.41,470.5 L715.253,470.5 C714.66,470.5 714.3,470.75 714.3,471.5 L714.3,493.61 C714.3,494.313 714.613,494.657 715.253,494.657 L717.613,494.657 C718.253,494.657 718.55,494.25 718.55,493.61 L718.55,476.563 C719.863,474.703 721.8,473.563 723.55,473.563 C724.05,473.563 724.55,473.61 725.003,473.703 C725.05,473.703 725.113,473.703 725.16,473.703 C725.457,473.703 725.66,473.563 725.707,473.203 L726.05,470.953 M750.8,494 L750.8,492.313 C750.8,491.75 750.55,491.657 750.097,491.657 L749.753,491.657 C749.347,491.657 749.097,491.563 748.894,491.203 C748.691,490.907 748.644,490.11 748.644,488.953 L748.644,471.453 C748.644,470.813 748.347,470.5 747.753,470.5 L745.503,470.5 C744.941,470.5 744.55,470.75 744.55,471.36 L744.503,473 C743.003,471 740.3,469.953 737.8,469.953 C732.097,469.953 727.144,474.657 727.144,483 C727.144,489.313 730.191,495.157 737.097,495.157 C740.144,495.157 743.441,493.157 744.597,490.953 L744.691,490.953 C744.691,492.953 745.753,494.657 747.941,494.657 L750.05,494.657 C750.55,494.657 750.8,494.5 750.8,494 M744.394,486.563 C743.503,489.063 740.941,491.61 737.753,491.61 C734.144,491.61 731.597,488.203 731.597,482.703 C731.597,476.75 734.503,473.36 738.347,473.36 C740.753,473.36 743.191,474.703 744.394,476.953 L744.394,486.563 M773.144,493.063 C773.144,492.907 773.082,492.703 773.035,492.5 L772.582,491.11 C772.488,490.75 772.332,490.61 772.082,490.61 C771.988,490.61 771.832,490.657 771.691,490.703 C770.082,491.407 768.238,491.907 766.082,491.907 C760.738,491.907 758.535,487.5 758.535,482.407 C758.535,476.813 761.535,473.25 766.285,473.25 C768.238,473.25 769.941,473.813 771.488,474.5 C771.644,474.61 771.832,474.657 771.941,474.657 C772.238,474.657 772.394,474.407 772.488,474.063 L772.894,472.453 C772.941,472.313 772.988,472.203 772.988,472.063 C772.988,471.75 772.832,471.563 772.488,471.407 C770.738,470.5 768.238,469.953 766.082,469.953 C758.582,469.953 754.144,475.25 754.144,482.61 C754.144,490.063 757.941,495.157 765.785,495.157 C768.082,495.157 770.394,494.703 772.535,493.703 C772.988,493.5 773.144,493.36 773.144,493.063 M782.378,464.61 C782.378,463.157 781.128,462.203 779.785,462.203 C778.425,462.203 777.222,463.157 777.222,464.61 C777.222,466.047 778.425,467 779.785,467 C781.082,467 782.378,466.047 782.378,464.61 M781.925,493.61 L781.925,471.5 C781.925,470.813 781.628,470.5 780.972,470.5 L778.675,470.5 C778.035,470.5 777.675,470.813 777.675,471.5 L777.675,493.61 C777.675,494.313 778.035,494.657 778.675,494.657 L780.972,494.657 C781.628,494.657 781.925,494.313 781.925,493.61 M803.675,462.203 C803.675,462.047 803.628,461.797 803.472,461.61 L802.519,460.11 C802.269,459.75 802.019,459.61 801.769,459.61 C801.566,459.61 801.378,459.703 801.066,459.907 L794.066,464.407 C793.722,464.61 793.628,464.86 793.628,465.047 C793.628,465.203 793.675,465.36 793.816,465.547 L794.316,466.297 C794.519,466.61 794.769,466.75 795.019,466.75 C795.175,466.75 795.378,466.703 795.628,466.61 L803.175,462.86 C803.519,462.703 803.675,462.453 803.675,462.203 M810.472,482.563 C810.472,475.313 806.972,469.953 799.222,469.953 C791.769,469.953 787.722,475.453 787.722,482.5 C787.722,489.657 791.175,495.157 798.925,495.157 C806.378,495.157 810.472,489.61 810.472,482.563 M806.066,482.61 C806.066,487.25 804.222,491.86 798.972,491.86 C793.675,491.86 792.128,487 792.128,482.407 C792.128,478 793.769,473.25 799.175,473.25 C804.378,473.25 806.066,477.953 806.066,482.61 M836.066,493.61 L836.066,478.907 C836.066,473.453 833.863,469.953 828.113,469.953 C825.207,469.953 822.207,471 819.91,472.953 L819.863,471.407 C819.863,470.75 819.503,470.5 818.91,470.5 L816.707,470.5 C816.003,470.5 815.753,470.813 815.753,471.5 L815.753,493.657 C815.753,494.313 816.113,494.657 816.707,494.657 L819.066,494.657 C819.707,494.657 820.003,494.313 820.003,493.61 L820.003,476.407 C821.753,474.813 824.613,473.5 826.91,473.5 C830.91,473.5 831.816,476.063 831.816,479.61 L831.816,493.61 C831.816,494.313 832.113,494.657 832.753,494.657 L835.113,494.657 C835.816,494.657 836.066,494.313 836.066,493.61"/>
<path class="" fill="none" stroke="#3465a4" stroke-width="4.96" stroke-linecap="square" stroke-linejoin="miter" stroke-miterlimit="2" fill-rule="evenodd" d="M218.707,545.379 C218.707,538.752 224.305,533.379 231.209,533.379 L1348.97,533.379 C1355.87,533.379 1361.47,538.752 1361.47,545.379 L1361.47,740.143 C1361.47,746.771 1355.87,752.143 1348.97,752.143 L231.209,752.143 C224.305,752.143 218.707,746.771 218.707,740.143 L218.707,545.379 "/>
<path class="" fill="#ffffff" d="M1308.56,708.058 C1308.56,706.355 1307.17,705.308 1305.62,705.308 C1304.01,705.308 1302.62,706.355 1302.62,708.105 C1302.62,709.808 1304.12,710.918 1305.62,710.918 C1307.12,710.918 1308.56,709.715 1308.56,708.058"/>
<path class="" fill="#3465a4" stroke="#729fcf" stroke-width="4.96" stroke-linecap="square" stroke-linejoin="miter" stroke-miterlimit="2" fill-rule="evenodd" d="M242.252,24.6913 C242.252,18.0639 247.849,12.6913 254.753,12.6913 L549.514,12.6913 C556.418,12.6913 562.016,18.0639 562.016,24.6913 L562.016,77.4551 C562.016,84.0825 556.418,89.4551 549.514,89.4551 L254.753,89.4551 C247.849,89.4551 242.252,84.0825 242.252,77.4551 L242.252,24.6913 "/>
<path class="" fill="#ffffff" d="M280.087,63.0263 C280.087,62.8701 280.04,62.667 279.931,62.5263 L271.79,48.8701 L271.727,48.7763 C275.681,47.417 278.727,44.0263 278.727,39.2295 C278.727,36.5732 278.04,34.3701 276.681,32.7138 C274.477,30.0263 270.634,29.1201 266.134,29.1201 L258.931,29.1201 C258.181,29.1201 257.931,29.417 257.931,30.2138 L257.931,62.5263 C257.931,63.2295 258.227,63.5732 258.884,63.5732 L261.634,63.5732 C262.29,63.5732 262.587,63.167 262.587,62.5263 L262.587,49.5732 L267.384,49.5732 L274.884,62.667 C275.227,63.3232 275.681,63.5732 276.431,63.5732 L279.431,63.5732 C279.884,63.5732 280.087,63.3232 280.087,63.0263 M274.04,39.2763 C274.04,43.7295 270.837,46.0732 266.431,46.0732 L262.587,46.0732 L262.587,32.667 L265.79,32.667 C270.931,32.667 274.04,34.3701 274.04,39.2763 M290.368,33.5263 C290.368,32.0732 289.118,31.1201 287.774,31.1201 C286.415,31.1201 285.212,32.0732 285.212,33.5263 C285.212,34.9638 286.415,35.917 287.774,35.917 C289.071,35.917 290.368,34.9638 290.368,33.5263 M289.915,62.5263 L289.915,40.417 C289.915,39.7295 289.618,39.417 288.962,39.417 L286.665,39.417 C286.024,39.417 285.665,39.7295 285.665,40.417 L285.665,62.5263 C285.665,63.2295 286.024,63.5732 286.665,63.5732 L288.962,63.5732 C289.618,63.5732 289.915,63.2295 289.915,62.5263 M310.462,62.3701 C310.462,62.3232 310.415,62.2763 310.415,62.167 L310.009,60.5732 C309.915,60.2295 309.665,60.0732 309.415,60.0732 C309.306,60.0732 309.212,60.0732 309.118,60.1201 C308.306,60.3701 307.118,60.7295 305.962,60.7295 C304.665,60.7295 303.759,60.3232 303.212,59.7295 C302.462,58.8701 302.368,57.5732 302.368,55.917 L302.368,42.417 L308.212,42.417 C308.712,42.417 308.962,42.2763 308.962,41.7763 L308.962,40.0732 C308.962,39.5263 308.712,39.417 308.259,39.417 L302.368,39.417 L302.368,33.2763 C302.368,32.7138 302.118,32.3701 301.618,32.3701 C301.556,32.3701 301.462,32.3701 301.415,32.3701 L298.962,32.7138 C298.306,32.8232 298.118,33.0263 298.118,33.7138 L298.118,39.417 L295.259,39.417 C294.806,39.417 294.618,39.6201 294.618,40.1201 L294.618,41.667 C294.618,42.3232 294.712,42.417 295.368,42.417 L298.118,42.417 L298.118,55.5263 C298.118,58.6201 298.212,60.6201 299.665,62.2295 C300.806,63.4795 302.962,64.0732 305.118,64.0732 C306.806,64.0732 308.618,63.667 309.759,63.167 C310.165,63.0263 310.462,62.7763 310.462,62.3701 M349.259,62.5263 L349.259,48.6201 C349.259,45.8232 348.806,43.6201 347.759,41.9795 C346.556,40.1201 344.446,38.8701 341.102,38.8701 C338.196,38.8701 335.056,39.917 332.743,41.9795 C331.446,39.8701 328.993,38.8701 326.243,38.8701 C323.556,38.8701 320.743,39.9795 318.649,41.8701 L318.602,40.3232 C318.602,39.667 318.196,39.417 317.602,39.417 L315.446,39.417 C314.852,39.417 314.493,39.7763 314.493,40.417 L314.493,62.5263 C314.493,63.2295 314.806,63.5732 315.446,63.5732 L317.806,63.5732 C318.446,63.5732 318.743,63.2295 318.743,62.5263 L318.743,45.3232 C320.556,43.667 322.946,42.3701 325.243,42.3701 C329.196,42.3701 329.946,45.0263 329.946,48.4795 L329.946,62.5263 C329.946,63.2295 330.306,63.5732 330.946,63.5732 L333.243,63.5732 C333.899,63.5732 334.196,63.2295 334.196,62.5263 L334.196,50.2295 C334.196,48.667 334.102,45.667 333.806,44.7295 C335.556,43.3701 338.009,42.3701 340.056,42.3701 C344.102,42.3701 345.009,44.8701 345.009,48.4795 L345.009,62.5263 C345.009,63.2295 345.352,63.5732 346.009,63.5732 L348.306,63.5732 C348.946,63.5732 349.259,63.2295 349.259,62.5263 M377.337,51.4795 C377.337,44.2295 373.837,38.8701 366.087,38.8701 C358.634,38.8701 354.587,44.3701 354.587,51.417 C354.587,58.5732 358.04,64.0732 365.79,64.0732 C373.243,64.0732 377.337,58.5263 377.337,51.4795 M372.931,51.5263 C372.931,56.167 371.087,60.7763 365.837,60.7763 C360.54,60.7763 358.993,55.917 358.993,51.3232 C358.993,46.917 360.634,42.167 366.04,42.167 C371.243,42.167 372.931,46.8701 372.931,51.5263 M415.618,51.4795 C415.618,44.2295 412.118,38.8701 404.368,38.8701 C396.915,38.8701 392.868,44.3701 392.868,51.417 C392.868,58.5732 396.321,64.0732 404.071,64.0732 C411.524,64.0732 415.618,58.5263 415.618,51.4795 M411.212,51.5263 C411.212,56.167 409.368,60.7763 404.118,60.7763 C398.821,60.7763 397.274,55.917 397.274,51.3232 C397.274,46.917 398.915,42.167 404.321,42.167 C409.524,42.167 411.212,46.8701 411.212,51.5263 M432.649,39.8701 C432.649,39.7763 432.649,39.7295 432.649,39.6201 C432.649,39.3232 432.556,39.0732 432.259,39.0263 C431.759,38.917 431.149,38.8701 430.806,38.8701 C428.149,38.8701 426.259,40.3701 425.056,42.0263 L425.009,40.3232 C425.009,39.667 424.649,39.417 424.009,39.417 L421.852,39.417 C421.259,39.417 420.899,39.667 420.899,40.417 L420.899,62.5263 C420.899,63.2295 421.212,63.5732 421.852,63.5732 L424.212,63.5732 C424.852,63.5732 425.149,63.167 425.149,62.5263 L425.149,45.4795 C426.462,43.6201 428.399,42.4795 430.149,42.4795 C430.649,42.4795 431.149,42.5263 431.602,42.6201 C431.649,42.6201 431.712,42.6201 431.759,42.6201 C432.056,42.6201 432.259,42.4795 432.306,42.1201 L432.649,39.8701 M441.743,33.5263 C441.743,32.0732 440.493,31.1201 439.149,31.1201 C437.79,31.1201 436.587,32.0732 436.587,33.5263 C436.587,34.9638 437.79,35.917 439.149,35.917 C440.446,35.917 441.743,34.9638 441.743,33.5263 M441.29,62.5263 L441.29,40.417 C441.29,39.7295 440.993,39.417 440.337,39.417 L438.04,39.417 C437.399,39.417 437.04,39.7295 437.04,40.417 L437.04,62.5263 C437.04,63.2295 437.399,63.5732 438.04,63.5732 L440.337,63.5732 C440.993,63.5732 441.29,63.2295 441.29,62.5263 M468.79,62.2763 L468.79,57.167 L468.79,40.417 C468.79,39.7295 468.54,39.417 467.884,39.417 L465.681,39.417 C465.087,39.417 464.681,39.6201 464.681,40.2763 L464.634,41.8232 C463.181,39.917 460.384,38.8701 458.04,38.8701 C450.884,38.8701 447.087,44.8232 447.087,51.5263 C447.087,58.0732 450.29,63.5732 457.384,63.5732 C459.884,63.5732 462.931,62.417 464.54,60.6201 L464.54,62.917 C464.54,68.1201 462.993,71.0732 457.431,71.0732 C455.681,71.0732 453.493,70.3701 451.681,69.5732 C451.493,69.4795 451.337,69.417 451.181,69.417 C450.884,69.417 450.634,69.667 450.493,70.1201 L449.931,71.6201 C449.884,71.7763 449.837,71.917 449.837,72.0732 C449.837,72.417 450.04,72.667 450.431,72.8701 C452.587,73.8701 455.243,74.5732 457.54,74.5732 C465.587,74.5732 468.79,70.0263 468.79,62.2763 M464.54,56.9795 C463.29,58.7763 460.493,60.1201 458.087,60.1201 C453.181,60.1201 451.54,55.5263 451.54,51.2763 C451.54,46.7295 453.431,42.2763 458.54,42.2763 C460.993,42.2763 463.431,43.7763 464.54,45.7295 L464.54,56.9795 M480.571,33.5263 C480.571,32.0732 479.321,31.1201 477.977,31.1201 C476.618,31.1201 475.415,32.0732 475.415,33.5263 C475.415,34.9638 476.618,35.917 477.977,35.917 C479.274,35.917 480.571,34.9638 480.571,33.5263 M480.118,62.5263 L480.118,40.417 C480.118,39.7295 479.821,39.417 479.165,39.417 L476.868,39.417 C476.227,39.417 475.868,39.7295 475.868,40.417 L475.868,62.5263 C475.868,63.2295 476.227,63.5732 476.868,63.5732 L479.165,63.5732 C479.821,63.5732 480.118,63.2295 480.118,62.5263 M507.571,62.5263 L507.571,47.8232 C507.571,42.3701 505.368,38.8701 499.618,38.8701 C496.712,38.8701 493.712,39.917 491.415,41.8701 L491.368,40.3232 C491.368,39.667 491.009,39.417 490.415,39.417 L488.212,39.417 C487.509,39.417 487.259,39.7295 487.259,40.417 L487.259,62.5732 C487.259,63.2295 487.618,63.5732 488.212,63.5732 L490.571,63.5732 C491.212,63.5732 491.509,63.2295 491.509,62.5263 L491.509,45.3232 C493.259,43.7295 496.118,42.417 498.415,42.417 C502.415,42.417 503.321,44.9795 503.321,48.5263 L503.321,62.5263 C503.321,63.2295 503.618,63.5732 504.259,63.5732 L506.618,63.5732 C507.321,63.5732 507.571,63.2295 507.571,62.5263 M536.306,62.917 L536.306,61.2295 C536.306,60.667 536.056,60.5732 535.602,60.5732 L535.259,60.5732 C534.852,60.5732 534.602,60.4795 534.399,60.1201 C534.196,59.8232 534.149,59.0263 534.149,57.8701 L534.149,40.3701 C534.149,39.7295 533.852,39.417 533.259,39.417 L531.009,39.417 C530.446,39.417 530.056,39.667 530.056,40.2763 L530.009,41.917 C528.509,39.917 525.806,38.8701 523.306,38.8701 C517.602,38.8701 512.649,43.5732 512.649,51.917 C512.649,58.2295 515.696,64.0732 522.602,64.0732 C525.649,64.0732 528.946,62.0732 530.102,59.8701 L530.196,59.8701 C530.196,61.8701 531.259,63.5732 533.446,63.5732 L535.556,63.5732 C536.056,63.5732 536.306,63.417 536.306,62.917 M529.899,55.4795 C529.009,57.9795 526.446,60.5263 523.259,60.5263 C519.649,60.5263 517.102,57.1201 517.102,51.6201 C517.102,45.667 520.009,42.2763 523.852,42.2763 C526.259,42.2763 528.696,43.6201 529.899,45.8701 L529.899,55.4795 M545.337,62.5263 L545.337,28.8701 C545.337,28.2138 545.04,28.0263 544.587,28.0263 C544.493,28.0263 544.446,28.0263 544.337,28.0263 L541.837,28.3701 C541.243,28.4638 541.087,28.667 541.087,29.3701 L541.087,62.5732 C541.087,63.2763 541.399,63.5732 541.993,63.5732 L544.446,63.5732 C545.04,63.5732 545.337,63.2295 545.337,62.5263"/>
<path class="" fill="none" stroke="#3465a4" stroke-width="4.96" stroke-linecap="square" stroke-linejoin="miter" stroke-miterlimit="2" fill-rule="evenodd" d="M215.119,109.798 C215.119,103.171 220.716,97.7983 227.621,97.7983 L2461.38,97.7983 C2468.29,97.7983 2473.88,103.171 2473.88,109.798 L2473.88,332.562 C2473.88,339.19 2468.29,344.562 2461.38,344.562 L227.621,344.562 C220.716,344.562 215.119,339.19 215.119,332.562 L215.119,109.798 "/>
<path class="" fill="#ffffff" d="M2383.19,326.477 C2383.19,324.774 2381.8,323.727 2380.25,323.727 C2378.64,323.727 2377.25,324.774 2377.25,326.524 C2377.25,328.227 2378.75,329.336 2380.25,329.336 C2381.75,329.336 2383.19,328.133 2383.19,326.477"/>
<polyline class="" fill="none" stroke="#3465a4" stroke-width="3.72" stroke-linecap="round" stroke-linejoin="bevel" transform="matrix(0.0391278,0.999234,-0.999234,0.0391278,880.85,353.296)" points="0,0 180.887,0"/>
<path class="" fill-rule="evenodd" d="M53.9827,324.149 C53.9827,284.261 34.0268,245.489 34.0268,207.275 C34.0268,188.029 39.4694,169.34 56.2505,152.604 C56.4772,152.395 56.5906,152.046 56.5906,151.837 C56.5906,151.21 55.3434,150.652 54.4363,150.652 C53.9827,150.652 53.189,150.721 52.6221,151.21 C30.852,172.688 23.5953,197.513 23.5953,222.617 C23.5953,263.062 44.9119,302.113 44.9119,340.885 C44.9119,360.132 39.4694,378.262 22.6882,394.998 L22.6882,395.556 L22.6882,396.114 C39.4694,412.85 44.9119,430.981 44.9119,450.227 C44.9119,488.999 23.5953,528.05 23.5953,568.496 C23.5953,593.6 30.852,618.425 52.6221,639.903 C53.189,640.391 53.9827,640.461 54.4363,640.461 C55.3434,640.461 56.5906,639.903 56.5906,639.275 C56.5906,639.066 56.4772,638.717 56.2505,638.508 C39.4694,621.772 34.0268,603.084 34.0268,583.837 C34.0268,545.623 53.9827,506.851 53.9827,466.963 C53.9827,441.58 46.726,417.313 25.4095,395.556 C46.726,373.799 53.9827,349.532 53.9827,324.149"/>
</svg>
