<?xml version="1.0" encoding="UTF-8" standalone="no"?>
<svg width="2654px" height="733px" viewBox="0 0 2654 733"
 xmlns="http://www.w3.org/2000/svg" xmlns:xlink="http://www.w3.org/1999/xlink" version="1.2" baseProfile="tiny">
<title>Sin título</title>
<desc>Generated by MuseScore 3.6.2</desc>
<path class="" stroke="#000000" stroke-width="1.74" stroke-linecap="round" stroke-linejoin="round" fill-rule="evenodd" d="M2091.69,401.713 C2139.08,365.997 2281.24,365.997 2328.63,401.713 C2281.24,372.942 2139.08,372.942 2091.69,401.713"/>
<path class="" stroke="#000000" stroke-width="1.74" stroke-linecap="round" stroke-linejoin="round" fill-rule="evenodd" d="M1450.85,454.79 C1468.79,437.678 1522.63,437.678 1540.58,454.79 C1522.63,444.623 1468.79,444.623 1450.85,454.79"/>
<path class="" stroke="#000000" stroke-width="1.74" stroke-linecap="round" stroke-linejoin="round" fill-rule="evenodd" d="M949.734,479.593 C982.08,500.703 1079.12,500.703 1111.46,479.593 C1079.12,507.648 982.08,507.648 949.734,479.593"/>
<path class="" stroke="#000000" stroke-width="1.74" stroke-linecap="round" stroke-linejoin="round" fill-rule="evenodd" d="M337.086,467.191 C354.585,477.018 407.083,477.018 424.582,467.191 C407.083,483.963 354.585,483.963 337.086,467.191"/>
<polyline class="" stroke="#000000" stroke-width="4.46" stroke-linejoin="bevel" points="2606.74,323.209 2606.74,425.15"/>
<polyline class="" stroke="#000000" stroke-width="13.64" stroke-linejoin="bevel" points="2624.11,323.209 2624.11,425.15"/>
<polyline class="" stroke="#000000" stroke-width="4.46" stroke-linejoin="bevel" points="1376.81,323.209 1376.81,425.15"/>
<polyline class="" stroke="#000000" stroke-width="2.73" stroke-linejoin="bevel" points="1379.04,324.573 2630.93,324.573"/>
<polyline class="" stroke="#000000" stroke-width="2.73" stroke-linejoin="bevel" points="1379.04,349.376 2630.93,349.376"/>
<polyline class="" stroke="#000000" stroke-width="2.73" stroke-linejoin="bevel" points="1379.04,374.18 2630.93,374.18"/>
<polyline class="" stroke="#000000" stroke-width="2.73" stroke-linejoin="bevel" points="1379.04,398.983 2630.93,398.983"/>
<polyline class="" stroke="#000000" stroke-width="2.73" stroke-linejoin="bevel" points="1379.04,423.786 2630.93,423.786"/>
<polyline class="" stroke="#000000" stroke-width="2.73" stroke-linejoin="bevel" points="10.1931,324.573 1379.04,324.573"/>
<polyline class="" stroke="#000000" stroke-width="2.73" stroke-linejoin="bevel" points="10.1931,349.376 1379.04,349.376"/>
<polyline class="" stroke="#000000" stroke-width="2.73" stroke-linejoin="bevel" points="10.1931,374.18 1379.04,374.18"/>
<polyline class="" stroke="#000000" stroke-width="2.73" stroke-linejoin="bevel" points="10.1931,398.983 1379.04,398.983"/>
<polyline class="" stroke="#000000" stroke-width="2.73" stroke-linejoin="bevel" points="10.1931,423.786 1379.04,423.786"/>
<polyline class="" stroke="#000000" stroke-width="3.97" stroke-linejoin="bevel" points="1970.88,448.589 2020.48,448.589"/>
<polyline class="" stroke="#000000" stroke-width="3.97" stroke-linejoin="bevel" points="1421.21,473.392 1470.81,473.392"/>
<polyline class="" stroke="#000000" stroke-width="3.97" stroke-linejoin="bevel" points="1421.21,448.589 1470.81,448.589"/>
<polyline class="" stroke="#000000" stroke-width="3.97" stroke-linejoin="bevel" points="1520.62,473.392 1570.22,473.392"/>
<polyline class="" stroke="#000000" stroke-width="3.97" stroke-linejoin="bevel" points="1520.62,448.589 1570.22,448.589"/>
<polyline class="" stroke="#000000" stroke-width="3.97" stroke-linejoin="bevel" points="1596.64,299.77 1646.24,299.77"/>
<polyline class="" stroke="#000000" stroke-width="3.97" stroke-linejoin="bevel" points="1596.64,274.967 1646.24,274.967"/>
<polyline class="" stroke="#000000" stroke-width="3.97" stroke-linejoin="bevel" points="920.099,448.589 969.698,448.589"/>
<polyline class="" stroke="#000000" stroke-width="3.97" stroke-linejoin="bevel" points="1091.5,448.589 1141.1,448.589"/>
<polyline class="" stroke="#000000" stroke-width="3.97" stroke-linejoin="bevel" points="694.599,299.77 744.198,299.77"/>
<polyline class="" stroke="#000000" stroke-width="3.97" stroke-linejoin="bevel" points="307.451,448.589 357.05,448.589"/>
<polyline class="" stroke="#000000" stroke-width="3.97" stroke-linejoin="bevel" points="404.618,448.589 454.217,448.589"/>
<polyline class="" stroke="#000000" stroke-width="2.73" stroke-linejoin="bevel" points="2401.18,389.915 2401.18,504.396"/>
<polyline class="" stroke="#000000" stroke-width="2.73" stroke-linejoin="bevel" points="2325.16,414.718 2325.16,504.396"/>
<polyline class="" stroke="#000000" stroke-width="2.73" stroke-linejoin="bevel" points="2453.83,352.71 2453.83,504.396"/>
<polyline class="" stroke="#000000" stroke-width="2.73" stroke-linejoin="bevel" points="2506.47,327.907 2506.47,504.396"/>
<polyline class="" stroke="#000000" stroke-width="2.73" stroke-linejoin="bevel" points="2010.43,457.816 2010.43,219.16"/>
<polyline class="" stroke="#000000" stroke-width="2.73" stroke-linejoin="bevel" points="2086.46,408.209 2086.46,324.573"/>
<polyline class="" stroke="#000000" stroke-width="2.73" stroke-linejoin="bevel" points="1431.26,476.726 1431.26,566.404"/>
<polyline class="" stroke="#000000" stroke-width="2.73" stroke-linejoin="bevel" points="1530.66,476.726 1530.66,566.404"/>
<polyline class="" stroke="#000000" stroke-width="2.73" stroke-linejoin="bevel" points="1659.33,340.308 1659.33,566.404"/>
<polyline class="" stroke="#000000" stroke-width="2.73" stroke-linejoin="bevel" points="1741.48,308.997 1741.48,219.16"/>
<polyline class="" stroke="#000000" stroke-width="2.73" stroke-linejoin="bevel" points="1817.51,371.005 1817.51,219.16"/>
<polyline class="" stroke="#000000" stroke-width="2.73" stroke-linejoin="bevel" points="1856.47,333.8 1856.47,219.16"/>
<polyline class="" stroke="#000000" stroke-width="2.73" stroke-linejoin="bevel" points="1895.44,395.808 1895.44,219.16"/>
<polyline class="" stroke="#000000" stroke-width="2.73" stroke-linejoin="bevel" points="1934.41,420.611 1934.41,219.16"/>
<polyline class="" stroke="#000000" stroke-width="2.73" stroke-linejoin="bevel" points="1256.83,346.202 1256.83,219.16"/>
<polyline class="" stroke="#000000" stroke-width="2.73" stroke-linejoin="bevel" points="1308.28,308.997 1308.28,219.16"/>
<polyline class="" stroke="#000000" stroke-width="2.73" stroke-linejoin="bevel" points="1606.69,278.301 1606.69,566.404"/>
<polyline class="" stroke="#000000" stroke-width="2.73" stroke-linejoin="bevel" points="959.653,457.816 959.653,374.18"/>
<polyline class="" stroke="#000000" stroke-width="2.73" stroke-linejoin="bevel" points="591.894,365.112 591.894,516.798"/>
<polyline class="" stroke="#000000" stroke-width="2.73" stroke-linejoin="bevel" points="743.082,365.112 743.082,516.798"/>
<polyline class="" stroke="#000000" stroke-width="2.73" stroke-linejoin="bevel" points="781.519,389.915 781.519,516.798"/>
<polyline class="" stroke="#000000" stroke-width="2.73" stroke-linejoin="bevel" points="855.832,427.119 855.832,516.798"/>
<polyline class="" stroke="#000000" stroke-width="2.73" stroke-linejoin="bevel" points="1131.05,457.816 1131.05,219.16"/>
<polyline class="" stroke="#000000" stroke-width="2.73" stroke-linejoin="bevel" points="1205.37,371.005 1205.37,219.16"/>
<polyline class="" stroke="#000000" stroke-width="2.73" stroke-linejoin="bevel" points="518.484,333.8 518.484,231.561"/>
<polyline class="" stroke="#000000" stroke-width="2.73" stroke-linejoin="bevel" points="569.943,395.808 569.943,231.561"/>
<polyline class="" stroke="#000000" stroke-width="2.73" stroke-linejoin="bevel" points="666.207,340.308 666.207,516.798"/>
<polyline class="" stroke="#000000" stroke-width="2.73" stroke-linejoin="bevel" points="704.644,303.104 704.644,516.798"/>
<polyline class="" stroke="#000000" stroke-width="2.73" stroke-linejoin="bevel" points="347.004,445.414 347.004,231.561"/>
<polyline class="" stroke="#000000" stroke-width="2.73" stroke-linejoin="bevel" points="444.171,445.414 444.171,231.561"/>
<path class="" transform="matrix(0.992126,0,0,0.992126,2399.82,386.581)" d="M31.5,-8.09375 C29.7031,-11.4063 25.9063,-13.2031 21.2969,-13.2031 C17.9063,-13.2031 14.2031,-12.2031 10.5938,-10.2969 C4,-6.79688 0,-0.90625 0,4.20313 C0,5.59375 0.296875,7 1,8.29688 C2.79688,11.5938 6.59375,13.2969 11.2031,13.2969 C14.5938,13.2969 18.2969,12.4063 21.9063,10.5 C28.5,7 32.5,1.09375 32.5,-4 C32.5,-5.40625 32.2031,-6.79688 31.5,-8.09375"/>
<path class="" transform="matrix(0.992126,0,0,0.992126,2055.58,411.384)" d="M31.5,-8.09375 C29.7031,-11.4063 25.9063,-13.2031 21.2969,-13.2031 C17.9063,-13.2031 14.2031,-12.2031 10.5938,-10.2969 C4,-6.79688 0,-0.90625 0,4.20313 C0,5.59375 0.296875,7 1,8.29688 C2.79688,11.5938 6.59375,13.2969 11.2031,13.2969 C14.5938,13.2969 18.2969,12.4063 21.9063,10.5 C28.5,7 32.5,1.09375 32.5,-4 C32.5,-5.40625 32.2031,-6.79688 31.5,-8.09375"/>
<path class="" transform="matrix(0.992126,0,0,0.992126,2323.79,411.384)" d="M31.5,-8.09375 C29.7031,-11.4063 25.9063,-13.2031 21.2969,-13.2031 C17.9063,-13.2031 14.2031,-12.2031 10.5938,-10.2969 C4,-6.79688 0,-0.90625 0,4.20313 C0,5.59375 0.296875,7 1,8.29688 C2.79688,11.5938 6.59375,13.2969 11.2031,13.2969 C14.5938,13.2969 18.2969,12.4063 21.9063,10.5 C28.5,7 32.5,1.09375 32.5,-4 C32.5,-5.40625 32.2031,-6.79688 31.5,-8.09375"/>
<path class="" transform="matrix(0.992126,0,0,0.992126,2452.46,349.376)" d="M31.5,-8.09375 C29.7031,-11.4063 25.9063,-13.2031 21.2969,-13.2031 C17.9063,-13.2031 14.2031,-12.2031 10.5938,-10.2969 C4,-6.79688 0,-0.90625 0,4.20313 C0,5.59375 0.296875,7 1,8.29688 C2.79688,11.5938 6.59375,13.2969 11.2031,13.2969 C14.5938,13.2969 18.2969,12.4063 21.9063,10.5 C28.5,7 32.5,1.09375 32.5,-4 C32.5,-5.40625 32.2031,-6.79688 31.5,-8.09375"/>
<path class="" transform="matrix(0.992126,0,0,0.992126,2505.11,324.573)" d="M31.5,-8.09375 C29.7031,-11.4063 25.9063,-13.2031 21.2969,-13.2031 C17.9063,-13.2031 14.2031,-12.2031 10.5938,-10.2969 C4,-6.79688 0,-0.90625 0,4.20313 C0,5.59375 0.296875,7 1,8.29688 C2.79688,11.5938 6.59375,13.2969 11.2031,13.2969 C14.5938,13.2969 18.2969,12.4063 21.9063,10.5 C28.5,7 32.5,1.09375 32.5,-4 C32.5,-5.40625 32.2031,-6.79688 31.5,-8.09375"/>
<path class="" transform="matrix(0.992126,0,0,0.992126,1864.57,398.983)" d="M31.5,-8.09375 C29.7031,-11.4063 25.9063,-13.2031 21.2969,-13.2031 C17.9063,-13.2031 14.2031,-12.2031 10.5938,-10.2969 C4,-6.79688 0,-0.90625 0,4.20313 C0,5.59375 0.296875,7 1,8.29688 C2.79688,11.5938 6.59375,13.2969 11.2031,13.2969 C14.5938,13.2969 18.2969,12.4063 21.9063,10.5 C28.5,7 32.5,1.09375 32.5,-4 C32.5,-5.40625 32.2031,-6.79688 31.5,-8.09375"/>
<path class="" transform="matrix(0.992126,0,0,0.992126,1903.54,423.786)" d="M31.5,-8.09375 C29.7031,-11.4063 25.9063,-13.2031 21.2969,-13.2031 C17.9063,-13.2031 14.2031,-12.2031 10.5938,-10.2969 C4,-6.79688 0,-0.90625 0,4.20313 C0,5.59375 0.296875,7 1,8.29688 C2.79688,11.5938 6.59375,13.2969 11.2031,13.2969 C14.5938,13.2969 18.2969,12.4063 21.9063,10.5 C28.5,7 32.5,1.09375 32.5,-4 C32.5,-5.40625 32.2031,-6.79688 31.5,-8.09375"/>
<path class="" transform="matrix(0.992126,0,0,0.992126,1979.56,460.991)" d="M31.5,-8.09375 C29.7031,-11.4063 25.9063,-13.2031 21.2969,-13.2031 C17.9063,-13.2031 14.2031,-12.2031 10.5938,-10.2969 C4,-6.79688 0,-0.90625 0,4.20313 C0,5.59375 0.296875,7 1,8.29688 C2.79688,11.5938 6.59375,13.2969 11.2031,13.2969 C14.5938,13.2969 18.2969,12.4063 21.9063,10.5 C28.5,7 32.5,1.09375 32.5,-4 C32.5,-5.40625 32.2031,-6.79688 31.5,-8.09375"/>
<path class="" transform="matrix(0.992126,0,0,0.992126,1429.89,473.392)" d="M31.5,-8.09375 C29.7031,-11.4063 25.9063,-13.2031 21.2969,-13.2031 C17.9063,-13.2031 14.2031,-12.2031 10.5938,-10.2969 C4,-6.79688 0,-0.90625 0,4.20313 C0,5.59375 0.296875,7 1,8.29688 C2.79688,11.5938 6.59375,13.2969 11.2031,13.2969 C14.5938,13.2969 18.2969,12.4063 21.9063,10.5 C28.5,7 32.5,1.09375 32.5,-4 C32.5,-5.40625 32.2031,-6.79688 31.5,-8.09375"/>
<path class="" transform="matrix(0.992126,0,0,0.992126,1529.3,473.392)" d="M31.5,-8.09375 C29.7031,-11.4063 25.9063,-13.2031 21.2969,-13.2031 C17.9063,-13.2031 14.2031,-12.2031 10.5938,-10.2969 C4,-6.79688 0,-0.90625 0,4.20313 C0,5.59375 0.296875,7 1,8.29688 C2.79688,11.5938 6.59375,13.2969 11.2031,13.2969 C14.5938,13.2969 18.2969,12.4063 21.9063,10.5 C28.5,7 32.5,1.09375 32.5,-4 C32.5,-5.40625 32.2031,-6.79688 31.5,-8.09375"/>
<path class="" transform="matrix(0.992126,0,0,0.992126,1657.97,336.975)" d="M31.5,-8.09375 C29.7031,-11.4063 25.9063,-13.2031 21.2969,-13.2031 C17.9063,-13.2031 14.2031,-12.2031 10.5938,-10.2969 C4,-6.79688 0,-0.90625 0,4.20313 C0,5.59375 0.296875,7 1,8.29688 C2.79688,11.5938 6.59375,13.2969 11.2031,13.2969 C14.5938,13.2969 18.2969,12.4063 21.9063,10.5 C28.5,7 32.5,1.09375 32.5,-4 C32.5,-5.40625 32.2031,-6.79688 31.5,-8.09375"/>
<path class="" transform="matrix(0.992126,0,0,0.992126,1710.61,312.172)" d="M31.5,-8.09375 C29.7031,-11.4063 25.9063,-13.2031 21.2969,-13.2031 C17.9063,-13.2031 14.2031,-12.2031 10.5938,-10.2969 C4,-6.79688 0,-0.90625 0,4.20313 C0,5.59375 0.296875,7 1,8.29688 C2.79688,11.5938 6.59375,13.2969 11.2031,13.2969 C14.5938,13.2969 18.2969,12.4063 21.9063,10.5 C28.5,7 32.5,1.09375 32.5,-4 C32.5,-5.40625 32.2031,-6.79688 31.5,-8.09375"/>
<path class="" transform="matrix(0.992126,0,0,0.992126,1786.63,374.18)" d="M31.5,-8.09375 C29.7031,-11.4063 25.9063,-13.2031 21.2969,-13.2031 C17.9063,-13.2031 14.2031,-12.2031 10.5938,-10.2969 C4,-6.79688 0,-0.90625 0,4.20313 C0,5.59375 0.296875,7 1,8.29688 C2.79688,11.5938 6.59375,13.2969 11.2031,13.2969 C14.5938,13.2969 18.2969,12.4063 21.9063,10.5 C28.5,7 32.5,1.09375 32.5,-4 C32.5,-5.40625 32.2031,-6.79688 31.5,-8.09375"/>
<path class="" transform="matrix(0.992126,0,0,0.992126,1825.6,336.975)" d="M31.5,-8.09375 C29.7031,-11.4063 25.9063,-13.2031 21.2969,-13.2031 C17.9063,-13.2031 14.2031,-12.2031 10.5938,-10.2969 C4,-6.79688 0,-0.90625 0,4.20313 C0,5.59375 0.296875,7 1,8.29688 C2.79688,11.5938 6.59375,13.2969 11.2031,13.2969 C14.5938,13.2969 18.2969,12.4063 21.9063,10.5 C28.5,7 32.5,1.09375 32.5,-4 C32.5,-5.40625 32.2031,-6.79688 31.5,-8.09375"/>
<path class="" transform="matrix(0.992126,0,0,0.992126,1277.41,312.172)" d="M31.5,-8.09375 C29.7031,-11.4063 25.9063,-13.2031 21.2969,-13.2031 C17.9063,-13.2031 14.2031,-12.2031 10.5938,-10.2969 C4,-6.79688 0,-0.90625 0,4.20313 C0,5.59375 0.296875,7 1,8.29688 C2.79688,11.5938 6.59375,13.2969 11.2031,13.2969 C14.5938,13.2969 18.2969,12.4063 21.9063,10.5 C28.5,7 32.5,1.09375 32.5,-4 C32.5,-5.40625 32.2031,-6.79688 31.5,-8.09375"/>
<path class="" transform="matrix(0.992126,0,0,0.992126,1605.32,274.967)" d="M31.5,-8.09375 C29.7031,-11.4063 25.9063,-13.2031 21.2969,-13.2031 C17.9063,-13.2031 14.2031,-12.2031 10.5938,-10.2969 C4,-6.79688 0,-0.90625 0,4.20313 C0,5.59375 0.296875,7 1,8.29688 C2.79688,11.5938 6.59375,13.2969 11.2031,13.2969 C14.5938,13.2969 18.2969,12.4063 21.9063,10.5 C28.5,7 32.5,1.09375 32.5,-4 C32.5,-5.40625 32.2031,-6.79688 31.5,-8.09375"/>
<path class="" transform="matrix(0.992126,0,0,0.992126,928.78,460.991)" d="M31.5,-8.09375 C29.7031,-11.4063 25.9063,-13.2031 21.2969,-13.2031 C17.9063,-13.2031 14.2031,-12.2031 10.5938,-10.2969 C4,-6.79688 0,-0.90625 0,4.20313 C0,5.59375 0.296875,7 1,8.29688 C2.79688,11.5938 6.59375,13.2969 11.2031,13.2969 C14.5938,13.2969 18.2969,12.4063 21.9063,10.5 C28.5,7 32.5,1.09375 32.5,-4 C32.5,-5.40625 32.2031,-6.79688 31.5,-8.09375"/>
<path class="" transform="matrix(0.992126,0,0,0.992126,1100.18,460.991)" d="M31.5,-8.09375 C29.7031,-11.4063 25.9063,-13.2031 21.2969,-13.2031 C17.9063,-13.2031 14.2031,-12.2031 10.5938,-10.2969 C4,-6.79688 0,-0.90625 0,4.20313 C0,5.59375 0.296875,7 1,8.29688 C2.79688,11.5938 6.59375,13.2969 11.2031,13.2969 C14.5938,13.2969 18.2969,12.4063 21.9063,10.5 C28.5,7 32.5,1.09375 32.5,-4 C32.5,-5.40625 32.2031,-6.79688 31.5,-8.09375"/>
<path class="" transform="matrix(0.992126,0,0,0.992126,539.071,398.983)" d="M31.5,-8.09375 C29.7031,-11.4063 25.9063,-13.2031 21.2969,-13.2031 C17.9063,-13.2031 14.2031,-12.2031 10.5938,-10.2969 C4,-6.79688 0,-0.90625 0,4.20313 C0,5.59375 0.296875,7 1,8.29688 C2.79688,11.5938 6.59375,13.2969 11.2031,13.2969 C14.5938,13.2969 18.2969,12.4063 21.9063,10.5 C28.5,7 32.5,1.09375 32.5,-4 C32.5,-5.40625 32.2031,-6.79688 31.5,-8.09375"/>
<path class="" transform="matrix(0.992126,0,0,0.992126,780.154,386.581)" d="M31.5,-8.09375 C29.7031,-11.4063 25.9063,-13.2031 21.2969,-13.2031 C17.9063,-13.2031 14.2031,-12.2031 10.5938,-10.2969 C4,-6.79688 0,-0.90625 0,4.20313 C0,5.59375 0.296875,7 1,8.29688 C2.79688,11.5938 6.59375,13.2969 11.2031,13.2969 C14.5938,13.2969 18.2969,12.4063 21.9063,10.5 C28.5,7 32.5,1.09375 32.5,-4 C32.5,-5.40625 32.2031,-6.79688 31.5,-8.09375"/>
<path class="" transform="matrix(0.992126,0,0,0.992126,854.467,423.786)" d="M31.5,-8.09375 C29.7031,-11.4063 25.9063,-13.2031 21.2969,-13.2031 C17.9063,-13.2031 14.2031,-12.2031 10.5938,-10.2969 C4,-6.79688 0,-0.90625 0,4.20313 C0,5.59375 0.296875,7 1,8.29688 C2.79688,11.5938 6.59375,13.2969 11.2031,13.2969 C14.5938,13.2969 18.2969,12.4063 21.9063,10.5 C28.5,7 32.5,1.09375 32.5,-4 C32.5,-5.40625 32.2031,-6.79688 31.5,-8.09375"/>
<path class="" transform="matrix(0.992126,0,0,0.992126,1174.49,374.18)" d="M31.5,-8.09375 C29.7031,-11.4063 25.9063,-13.2031 21.2969,-13.2031 C17.9063,-13.2031 14.2031,-12.2031 10.5938,-10.2969 C4,-6.79688 0,-0.90625 0,4.20313 C0,5.59375 0.296875,7 1,8.29688 C2.79688,11.5938 6.59375,13.2969 11.2031,13.2969 C14.5938,13.2969 18.2969,12.4063 21.9063,10.5 C28.5,7 32.5,1.09375 32.5,-4 C32.5,-5.40625 32.2031,-6.79688 31.5,-8.09375"/>
<path class="" transform="matrix(0.992126,0,0,0.992126,1225.95,349.376)" d="M31.5,-8.09375 C29.7031,-11.4063 25.9063,-13.2031 21.2969,-13.2031 C17.9063,-13.2031 14.2031,-12.2031 10.5938,-10.2969 C4,-6.79688 0,-0.90625 0,4.20313 C0,5.59375 0.296875,7 1,8.29688 C2.79688,11.5938 6.59375,13.2969 11.2031,13.2969 C14.5938,13.2969 18.2969,12.4063 21.9063,10.5 C28.5,7 32.5,1.09375 32.5,-4 C32.5,-5.40625 32.2031,-6.79688 31.5,-8.09375"/>
<path class="" transform="matrix(0.992126,0,0,0.992126,487.612,336.975)" d="M31.5,-8.09375 C29.7031,-11.4063 25.9063,-13.2031 21.2969,-13.2031 C17.9063,-13.2031 14.2031,-12.2031 10.5938,-10.2969 C4,-6.79688 0,-0.90625 0,4.20313 C0,5.59375 0.296875,7 1,8.29688 C2.79688,11.5938 6.59375,13.2969 11.2031,13.2969 C14.5938,13.2969 18.2969,12.4063 21.9063,10.5 C28.5,7 32.5,1.09375 32.5,-4 C32.5,-5.40625 32.2031,-6.79688 31.5,-8.09375"/>
<path class="" transform="matrix(0.992126,0,0,0.992126,590.53,361.778)" d="M31.5,-8.09375 C29.7031,-11.4063 25.9063,-13.2031 21.2969,-13.2031 C17.9063,-13.2031 14.2031,-12.2031 10.5938,-10.2969 C4,-6.79688 0,-0.90625 0,4.20313 C0,5.59375 0.296875,7 1,8.29688 C2.79688,11.5938 6.59375,13.2969 11.2031,13.2969 C14.5938,13.2969 18.2969,12.4063 21.9063,10.5 C28.5,7 32.5,1.09375 32.5,-4 C32.5,-5.40625 32.2031,-6.79688 31.5,-8.09375"/>
<path class="" transform="matrix(0.992126,0,0,0.992126,664.843,336.975)" d="M31.5,-8.09375 C29.7031,-11.4063 25.9063,-13.2031 21.2969,-13.2031 C17.9063,-13.2031 14.2031,-12.2031 10.5938,-10.2969 C4,-6.79688 0,-0.90625 0,4.20313 C0,5.59375 0.296875,7 1,8.29688 C2.79688,11.5938 6.59375,13.2969 11.2031,13.2969 C14.5938,13.2969 18.2969,12.4063 21.9063,10.5 C28.5,7 32.5,1.09375 32.5,-4 C32.5,-5.40625 32.2031,-6.79688 31.5,-8.09375"/>
<path class="" transform="matrix(0.992126,0,0,0.992126,703.28,299.77)" d="M31.5,-8.09375 C29.7031,-11.4063 25.9063,-13.2031 21.2969,-13.2031 C17.9063,-13.2031 14.2031,-12.2031 10.5938,-10.2969 C4,-6.79688 0,-0.90625 0,4.20313 C0,5.59375 0.296875,7 1,8.29688 C2.79688,11.5938 6.59375,13.2969 11.2031,13.2969 C14.5938,13.2969 18.2969,12.4063 21.9063,10.5 C28.5,7 32.5,1.09375 32.5,-4 C32.5,-5.40625 32.2031,-6.79688 31.5,-8.09375"/>
<path class="" transform="matrix(0.992126,0,0,0.992126,741.717,361.778)" d="M31.5,-8.09375 C29.7031,-11.4063 25.9063,-13.2031 21.2969,-13.2031 C17.9063,-13.2031 14.2031,-12.2031 10.5938,-10.2969 C4,-6.79688 0,-0.90625 0,4.20313 C0,5.59375 0.296875,7 1,8.29688 C2.79688,11.5938 6.59375,13.2969 11.2031,13.2969 C14.5938,13.2969 18.2969,12.4063 21.9063,10.5 C28.5,7 32.5,1.09375 32.5,-4 C32.5,-5.40625 32.2031,-6.79688 31.5,-8.09375"/>
<path class="" transform="matrix(0.992126,0,0,0.992126,316.132,448.589)" d="M31.5,-8.09375 C29.7031,-11.4063 25.9063,-13.2031 21.2969,-13.2031 C17.9063,-13.2031 14.2031,-12.2031 10.5938,-10.2969 C4,-6.79688 0,-0.90625 0,4.20313 C0,5.59375 0.296875,7 1,8.29688 C2.79688,11.5938 6.59375,13.2969 11.2031,13.2969 C14.5938,13.2969 18.2969,12.4063 21.9063,10.5 C28.5,7 32.5,1.09375 32.5,-4 C32.5,-5.40625 32.2031,-6.79688 31.5,-8.09375"/>
<path class="" transform="matrix(0.992126,0,0,0.992126,413.299,448.589)" d="M31.5,-8.09375 C29.7031,-11.4063 25.9063,-13.2031 21.2969,-13.2031 C17.9063,-13.2031 14.2031,-12.2031 10.5938,-10.2969 C4,-6.79688 0,-0.90625 0,4.20313 C0,5.59375 0.296875,7 1,8.29688 C2.79688,11.5938 6.59375,13.2969 11.2031,13.2969 C14.5938,13.2969 18.2969,12.4063 21.9063,10.5 C28.5,7 32.5,1.09375 32.5,-4 C32.5,-5.40625 32.2031,-6.79688 31.5,-8.09375"/>
<path class="" transform="matrix(0.992126,0,0,0.992126,26.0671,349.376)" d="M25.4063,-25.0938 C17.7969,-25.0938 11.7031,-20.7031 11.5938,-20.7031 C5.79688,-16.4063 3.5,-11.2969 2.59375,-7.79688 C2.09375,-6 1.90625,-4.20313 1.90625,-2.5 C1.90625,-0.09375 2.29688,2.09375 3.20313,4 C4.40625,6.70313 6.70313,8.59375 9.70313,9.59375 C10.9063,10 12.2031,10.2031 13.5,10.2031 C15.7031,10.2031 18,9.59375 19.9063,8.5 C23,6.79688 24.9063,3.20313 24.9063,-0.703125 C24.9063,-4.20313 23.0938,-7.40625 20.0938,-9.29688 C18,-10.7031 16,-11.0938 14.2969,-11.0938 C13.0938,-11.0938 12,-10.9063 11.0938,-10.5938 C10.0938,-10.2031 8.40625,-9.20313 7.59375,-8.5 C7.90625,-10.4063 9.09375,-13.2969 10.2031,-14.9063 C11.2969,-16.5 13.5,-18.5 15.2031,-19.4063 C17.7031,-20.7969 20.9063,-21.4063 24.4063,-21.4063 C34.6094,-21.4063 39.6094,-13.2031 39.6094,3.59375 C39.6094,12.9063 36.1094,21.7969 33.1094,27.7031 C29.7969,34.2969 25.4063,40.6094 21.5,44.1094 C11.0938,53.6094 1.29688,58.1094 1.20313,58.1094 C1.20313,58.1094 -0.296875,59 0.09375,60.5 C0.40625,61.5 1.29688,61.7031 1.90625,61.7031 C2,61.7031 2.29688,61.6094 2.40625,61.6094 C2.5,61.6094 13.9063,56.9063 23,49.7969 C28.1094,46.1094 32.7031,42.1094 36.7031,37.7969 C40.2969,33.9063 43.4063,29.7031 45.9063,25.5 C50.2969,18 52.7969,10.2031 52.7969,3.5 C52.7969,-4.79688 50.6094,-11.7031 46.5,-16.5938 C41.7969,-22.2031 34.7031,-25.0938 25.4063,-25.0938 M56.7969,-12.4063 C56.7969,-9.59375 59,-7.40625 61.6094,-7.40625 C64.2031,-7.40625 66.4063,-9.59375 66.4063,-12.4063 C66.4063,-15.2031 64.2031,-17.5 61.6094,-17.5 C59,-17.5 56.7969,-15.2031 56.7969,-12.4063 M56.7969,12.2969 C56.7969,15.0938 59,17.4063 61.6094,17.4063 C64.2031,17.4063 66.4063,15.0938 66.4063,12.2969 C66.4063,9.5 64.2031,7.20313 61.6094,7.20313 C59,7.20313 56.7969,9.5 56.7969,12.2969"/>
<path class="" transform="matrix(0.992126,0,0,0.992126,166.352,336.975)" d="M23.2969,-10.5938 C23.9063,-10.7031 24.4063,-11.4063 24.4063,-12 L24.4063,-17.9063 C24.4063,-18.7031 23.7969,-19.2969 23,-19.2969 L22.7969,-19.2969 L19.5,-18.5938 L19.5,-33.5 L16.7031,-33.5 L16.7031,-18 L7.79688,-16.2031 L7.79688,-30.2969 L5,-30.2969 L5,-15.5938 L1.09375,-14.7969 C0.5,-14.7031 0,-14 0,-13.4063 L0,-13.2031 L0,-7.40625 L0,-7.59375 C0,-6.79688 0.59375,-6.20313 1.40625,-6.20313 L1.70313,-6.20313 L5,-6.90625 L5,9.59375 L1.09375,10.4063 C0.5,10.5 0,11.2031 0,11.7969 L0,17.5938 C0,18.4063 0.59375,19 1.40625,19 L1.70313,19 L5,18.2969 L5,33.2031 L7.79688,33.2031 L7.79688,17.7031 L16.7031,15.9063 L16.7031,30 L19.5,30 L19.5,15.2969 L23.2969,14.5938 C23.9063,14.5 24.4063,13.7969 24.4063,13.2031 L24.4063,7.29688 C24.4063,6.5 23.7969,5.90625 23,5.90625 L22.7969,5.90625 L19.5,6.59375 L19.5,-9.90625 L23.2969,-10.5938 M7.79688,9.09375 L7.79688,-7.5 L16.7031,-9.29688 L16.7031,7.20313 L7.79688,9.09375 "/>
<path class="" transform="matrix(0.992126,0,0,0.992126,141.549,386.581)" d="M23.2969,-10.5938 C23.9063,-10.7031 24.4063,-11.4063 24.4063,-12 L24.4063,-17.9063 C24.4063,-18.7031 23.7969,-19.2969 23,-19.2969 L22.7969,-19.2969 L19.5,-18.5938 L19.5,-33.5 L16.7031,-33.5 L16.7031,-18 L7.79688,-16.2031 L7.79688,-30.2969 L5,-30.2969 L5,-15.5938 L1.09375,-14.7969 C0.5,-14.7031 0,-14 0,-13.4063 L0,-13.2031 L0,-7.40625 L0,-7.59375 C0,-6.79688 0.59375,-6.20313 1.40625,-6.20313 L1.70313,-6.20313 L5,-6.90625 L5,9.59375 L1.09375,10.4063 C0.5,10.5 0,11.2031 0,11.7969 L0,17.5938 C0,18.4063 0.59375,19 1.40625,19 L1.70313,19 L5,18.2969 L5,33.2031 L7.79688,33.2031 L7.79688,17.7031 L16.7031,15.9063 L16.7031,30 L19.5,30 L19.5,15.2969 L23.2969,14.5938 C23.9063,14.5 24.4063,13.7969 24.4063,13.2031 L24.4063,7.29688 C24.4063,6.5 23.7969,5.90625 23,5.90625 L22.7969,5.90625 L19.5,6.59375 L19.5,-9.90625 L23.2969,-10.5938 M7.79688,9.09375 L7.79688,-7.5 L16.7031,-9.29688 L16.7031,7.20313 L7.79688,9.09375 "/>
<path class="" transform="matrix(0.992126,0,0,0.992126,116.746,349.376)" d="M23.2969,-10.5938 C23.9063,-10.7031 24.4063,-11.4063 24.4063,-12 L24.4063,-17.9063 C24.4063,-18.7031 23.7969,-19.2969 23,-19.2969 L22.7969,-19.2969 L19.5,-18.5938 L19.5,-33.5 L16.7031,-33.5 L16.7031,-18 L7.79688,-16.2031 L7.79688,-30.2969 L5,-30.2969 L5,-15.5938 L1.09375,-14.7969 C0.5,-14.7031 0,-14 0,-13.4063 L0,-13.2031 L0,-7.40625 L0,-7.59375 C0,-6.79688 0.59375,-6.20313 1.40625,-6.20313 L1.70313,-6.20313 L5,-6.90625 L5,9.59375 L1.09375,10.4063 C0.5,10.5 0,11.2031 0,11.7969 L0,17.5938 C0,18.4063 0.59375,19 1.40625,19 L1.70313,19 L5,18.2969 L5,33.2031 L7.79688,33.2031 L7.79688,17.7031 L16.7031,15.9063 L16.7031,30 L19.5,30 L19.5,15.2969 L23.2969,14.5938 C23.9063,14.5 24.4063,13.7969 24.4063,13.2031 L24.4063,7.29688 C24.4063,6.5 23.7969,5.90625 23,5.90625 L22.7969,5.90625 L19.5,6.59375 L19.5,-9.90625 L23.2969,-10.5938 M7.79688,9.09375 L7.79688,-7.5 L16.7031,-9.29688 L16.7031,7.20313 L7.79688,9.09375 "/>
<path class="" transform="matrix(0.992126,0,0,0.992126,213.998,349.508)" d="M3.59375,12.625 L20.7656,12.625 L20.7656,20.0781 L12.5469,20.0781 C11.7656,20.0781 11.125,20.7031 11.125,21.4844 L11.125,23.3906 C11.125,24.1719 11.7656,24.7969 12.5469,24.7969 L42.7969,24.7969 C43.5781,24.7969 44.2031,24.1719 44.2031,23.3906 L44.2031,21.4844 C44.2031,20.7031 43.5781,20.0781 42.7969,20.0781 L33.8594,20.0781 L33.8594,12.625 L42.7969,12.625 C43.5781,12.625 44.2031,12 44.2031,11.2188 L44.2031,9.3125 C44.2031,8.53125 43.5781,7.90625 42.7969,7.90625 L33.8594,7.90625 L33.8594,-8.0625 C33.8594,-8.59375 33.5469,-9.07813 33.0781,-9.3125 L31.8594,-9.92188 C31.3281,-10.1719 30.7031,-10.0781 30.2656,-9.6875 L21.2188,-1.375 C20.9375,-1.09375 20.7656,-0.734375 20.7656,-0.328125 L20.7656,7.90625 L9.25,7.90625 C9.25,7.90625 20.375,-4.125 32.2188,-19.8906 C33.0781,-21.0469 32.5781,-22.0938 32.3906,-22.2813 L30.2188,-24.4844 C29.9531,-24.75 29.5938,-24.9063 29.2188,-24.9063 C28.625,-24.9063 15.0625,-24.875 14.3438,-24.9063 C13.625,-24.9219 13.0938,-24.2969 13.0156,-23.6875 C13.0156,-23.6875 12.4844,-16.3281 9.875,-8.1875 C7.28125,-0.078125 4.34375,4.90625 1.6875,8.53125 C1.6875,8.53125 1.14063,9.51563 1.5,10.2656 C1.84375,11.0156 2.48438,12.0938 2.48438,12.0938 C2.48438,12.0938 2.73438,12.625 3.59375,12.625"/>
<path class="" transform="matrix(0.992126,0,0,0.992126,213.998,398.851)" d="M3.59375,12.625 L20.7656,12.625 L20.7656,20.0781 L12.5469,20.0781 C11.7656,20.0781 11.125,20.7031 11.125,21.4844 L11.125,23.3906 C11.125,24.1719 11.7656,24.7969 12.5469,24.7969 L42.7969,24.7969 C43.5781,24.7969 44.2031,24.1719 44.2031,23.3906 L44.2031,21.4844 C44.2031,20.7031 43.5781,20.0781 42.7969,20.0781 L33.8594,20.0781 L33.8594,12.625 L42.7969,12.625 C43.5781,12.625 44.2031,12 44.2031,11.2188 L44.2031,9.3125 C44.2031,8.53125 43.5781,7.90625 42.7969,7.90625 L33.8594,7.90625 L33.8594,-8.0625 C33.8594,-8.59375 33.5469,-9.07813 33.0781,-9.3125 L31.8594,-9.92188 C31.3281,-10.1719 30.7031,-10.0781 30.2656,-9.6875 L21.2188,-1.375 C20.9375,-1.09375 20.7656,-0.734375 20.7656,-0.328125 L20.7656,7.90625 L9.25,7.90625 C9.25,7.90625 20.375,-4.125 32.2188,-19.8906 C33.0781,-21.0469 32.5781,-22.0938 32.3906,-22.2813 L30.2188,-24.4844 C29.9531,-24.75 29.5938,-24.9063 29.2188,-24.9063 C28.625,-24.9063 15.0625,-24.875 14.3438,-24.9063 C13.625,-24.9219 13.0938,-24.2969 13.0156,-23.6875 C13.0156,-23.6875 12.4844,-16.3281 9.875,-8.1875 C7.28125,-0.078125 4.34375,4.90625 1.6875,8.53125 C1.6875,8.53125 1.14063,9.51563 1.5,10.2656 C1.84375,11.0156 2.48438,12.0938 2.48438,12.0938 C2.48438,12.0938 2.73438,12.625 3.59375,12.625"/>
<path class="" d="M2309.9,714.552 L2333.38,714.552 L2333.38,712.412 L2325.46,712.412 L2331.57,695.63 L2331.84,696.349 C2331.84,696.349 2332.95,698.771 2336.46,699.646 C2337.12,699.818 2337.77,699.865 2338.45,699.865 C2344.17,699.865 2350.04,693.927 2352.18,685.521 C2352.79,683.209 2353.01,681.287 2353.01,679.63 C2353.01,672.646 2348.67,670.834 2347.07,670.443 C2346.63,670.334 2346.13,670.287 2345.7,670.287 C2342.46,670.287 2339.15,672.974 2337.4,674.74 L2337.12,675.068 L2336.96,674.677 C2336.96,674.63 2334.76,670.771 2331.07,670.224 C2330.68,670.177 2330.31,670.115 2329.92,670.115 C2326.45,670.115 2322.82,672.537 2319.85,681.115 L2321.73,682.052 C2322.17,680.677 2323.32,677.38 2324.52,675.724 C2325.13,674.787 2326.29,673.912 2327.27,673.755 C2327.77,673.63 2328.15,673.755 2328.49,673.974 C2328.87,674.24 2329.04,674.787 2329.04,675.568 C2329.04,678.099 2327.23,682.599 2326.73,683.646 L2316.34,712.412 L2309.9,712.412 L2309.9,714.552 M2336.24,696.302 C2336.02,696.302 2335.7,696.24 2335.48,696.177 C2333.93,695.584 2333.49,693.771 2333.49,691.724 C2333.49,688.49 2334.7,684.693 2334.76,684.412 C2335.74,680.459 2338.67,676.052 2341.42,674.521 C2342.12,674.084 2342.84,673.912 2343.45,673.912 C2343.71,673.912 2343.99,673.912 2344.27,674.021 C2344.71,674.13 2345.04,674.521 2345.26,674.959 C2345.59,675.568 2345.7,676.38 2345.7,677.318 C2345.7,680.13 2344.6,683.927 2343.99,685.787 C2342.68,689.865 2340.09,694.755 2337.45,696.021 C2337.12,696.177 2336.57,696.302 2336.24,696.302"/>
<path class="" d="M1418.55,704.318 C1415.73,704.318 1413.09,706.959 1413.09,709.771 C1413.09,715.271 1416.84,718.287 1421.62,718.287 C1424.98,718.287 1427.39,717.193 1430.03,714.552 C1434.61,709.99 1439.61,694.365 1442.19,685.459 C1443.12,682.162 1444.11,678.802 1444.83,676.38 L1444.89,676.162 L1452.42,676.162 C1453.03,676.162 1453.51,675.724 1453.51,675.13 L1453.51,672.865 C1453.51,672.255 1453.03,671.771 1452.42,671.771 L1446.16,671.771 L1446.26,671.38 C1449.17,660.599 1450.06,658.787 1451.59,657.584 C1452.42,656.927 1453.19,656.755 1453.69,656.755 C1453.91,656.755 1454.06,656.755 1454.17,656.818 C1454.67,656.927 1455.06,657.302 1455.22,657.693 C1455.28,657.912 1455.33,658.068 1455.33,658.302 C1455.33,658.787 1455.11,659.287 1454.73,659.505 C1453.69,660.334 1453.14,661.599 1453.14,662.974 C1453.14,663.459 1453.19,664.021 1453.36,664.568 C1453.62,665.552 1454.45,666.427 1455.55,666.927 C1456,667.146 1456.59,667.318 1457.37,667.318 C1458.14,667.318 1458.97,667.146 1459.95,666.599 C1461.22,665.943 1462.05,664.896 1462.42,663.568 C1462.59,663.021 1462.66,662.412 1462.66,661.818 C1462.66,660.49 1462.26,659.068 1461.61,657.849 C1460.72,656.318 1458.25,654.443 1454.89,653.896 C1454.34,653.787 1453.8,653.724 1453.14,653.724 C1450.61,653.724 1447.31,654.615 1443.89,657.74 C1441.2,660.224 1438.78,664.677 1436.47,671.552 L1436.42,671.771 L1428.5,671.771 C1427.89,671.771 1427.45,672.255 1427.45,672.865 L1427.45,675.13 C1427.45,675.724 1427.89,676.224 1428.5,676.224 L1435.05,676.224 L1434.94,676.552 C1433.89,680.74 1433.12,684.365 1432.34,687.834 C1431.47,691.677 1430.53,695.693 1429.33,700.537 L1429.05,701.74 C1426.84,710.318 1426.14,713.459 1423.61,715.099 C1423.11,715.427 1422.45,715.646 1421.84,715.646 C1421.3,715.646 1420.8,715.49 1420.41,715.162 C1420.14,714.943 1419.7,714.49 1419.81,713.943 C1419.86,713.505 1420.19,713.177 1420.69,712.959 C1422.72,712.13 1423.33,710.146 1423.33,708.505 C1423.33,707.021 1422.34,704.318 1418.55,704.318"/>
<path class="" d="M937.93,704.318 C935.117,704.318 932.477,706.959 932.477,709.771 C932.477,715.271 936.227,718.287 941.008,718.287 C944.352,718.287 946.774,717.193 949.414,714.552 C953.977,709.99 958.992,694.365 961.571,685.459 C962.508,682.162 963.492,678.802 964.211,676.38 L964.274,676.162 L971.805,676.162 C972.399,676.162 972.899,675.724 972.899,675.13 L972.899,672.865 C972.899,672.255 972.399,671.771 971.805,671.771 L965.524,671.771 L965.649,671.38 C968.555,660.599 969.43,658.787 970.977,657.584 C971.805,656.927 972.571,656.755 973.071,656.755 C973.289,656.755 973.446,656.755 973.555,656.818 C974.055,656.927 974.446,657.302 974.602,657.693 C974.664,657.912 974.711,658.068 974.711,658.302 C974.711,658.787 974.492,659.287 974.117,659.505 C973.071,660.334 972.508,661.599 972.508,662.974 C972.508,663.459 972.571,664.021 972.742,664.568 C973.008,665.552 973.836,666.427 974.93,666.927 C975.367,667.146 975.977,667.318 976.742,667.318 C977.524,667.318 978.352,667.146 979.336,666.599 C980.602,665.943 981.43,664.896 981.805,663.568 C981.977,663.021 982.024,662.412 982.024,661.818 C982.024,660.49 981.649,659.068 980.977,657.849 C980.102,656.318 977.633,654.443 974.274,653.896 C973.727,653.787 973.18,653.724 972.508,653.724 C969.992,653.724 966.68,654.615 963.274,657.74 C960.586,660.224 958.164,664.677 955.852,671.552 L955.805,671.771 L947.883,671.771 C947.274,671.771 946.836,672.255 946.836,672.865 L946.836,675.13 C946.836,675.724 947.274,676.224 947.883,676.224 L954.43,676.224 L954.305,676.552 C953.274,680.74 952.492,684.365 951.727,687.834 C950.852,691.677 949.914,695.693 948.696,700.537 L948.43,701.74 C946.227,710.318 945.508,713.459 942.977,715.099 C942.492,715.427 941.836,715.646 941.227,715.646 C940.68,715.646 940.18,715.49 939.789,715.162 C939.524,714.943 939.086,714.49 939.196,713.943 C939.242,713.505 939.571,713.177 940.071,712.959 C942.102,712.13 942.711,710.146 942.711,708.505 C942.711,707.021 941.727,704.318 937.93,704.318 M943.321,692.943 C942.821,693.771 942.321,694.037 941.836,694.037 C941.602,694.037 941.446,693.99 941.227,693.927 C940.617,693.709 940.399,693.318 940.399,692.724 C940.399,691.834 940.899,690.63 941.274,689.365 C941.492,688.709 942.055,686.677 942.211,686.115 C942.821,684.193 943.649,679.912 943.649,677.162 C943.649,676.615 943.586,676.115 943.539,675.724 C943.039,672.927 941.727,671.552 939.524,671.552 C936.821,671.552 933.961,673.474 932.586,675.287 L932.321,675.724 L932.102,675.24 C932.102,675.177 930.446,671.49 927.649,671.49 C924.727,671.49 922.586,672.646 920.821,675.068 L920.492,675.505 L920.321,674.959 C920.321,674.896 919.008,672.037 916.367,671.49 C915.821,671.38 915.321,671.334 914.883,671.334 C912.305,671.334 910.758,672.974 910.039,673.755 C909.446,674.412 907.899,676.943 907.18,679.193 L908.727,680.068 C908.727,680.068 910.539,674.459 912.852,674.459 C913.008,674.459 913.18,674.521 913.336,674.568 C913.946,674.787 914.227,675.287 914.227,676.115 C914.227,677.599 913.336,680.068 912.196,683.427 C912.133,683.537 908.289,695.146 908.008,696.021 C907.899,696.459 907.899,696.959 908.117,697.224 C908.289,697.505 908.617,697.615 908.992,697.615 L910.539,697.615 L914.555,697.615 C914.711,697.615 915.274,697.552 915.649,695.912 C916.149,693.599 916.649,691.787 917.086,690.349 C917.524,688.818 921.367,675.068 924.946,675.068 C925.164,675.068 925.446,675.24 925.555,675.396 C925.711,675.677 925.821,676.005 925.821,676.552 C925.821,678.365 924.836,681.662 923.571,685.896 C922.039,690.959 920.492,695.959 920.492,695.959 C920.43,696.177 920.321,696.896 920.664,697.287 C920.821,697.505 921.102,697.615 921.477,697.615 L927.196,697.615 C927.696,697.615 928.133,697.443 928.352,696.349 C928.352,696.24 928.414,696.021 928.461,695.693 C930.555,681.068 933.914,676.662 936.336,675.568 C936.446,675.505 936.555,675.505 936.664,675.505 C936.774,675.505 936.883,675.505 936.93,675.568 C937.211,675.677 937.43,676.052 937.43,676.552 C937.43,677.599 936.821,681.771 934.617,687.38 C933.961,689.037 933.696,690.521 933.696,691.943 C933.696,693.443 934.024,694.755 934.742,695.802 C935.555,697.005 937.43,697.677 938.852,697.677 C943.477,697.677 945.289,693.88 946.664,690.24 C946.727,690.084 946.836,689.865 946.883,689.693 L945.18,688.865 C945.18,688.865 944.024,691.724 943.321,692.943"/>
<path class="" d="M310.297,709.423 L333.782,709.423 L333.782,707.283 L325.86,707.283 L331.969,690.502 L332.235,691.22 C332.235,691.22 333.344,693.642 336.86,694.517 C337.516,694.689 338.172,694.736 338.844,694.736 C344.563,694.736 350.438,688.798 352.579,680.392 C353.188,678.08 353.407,676.158 353.407,674.502 C353.407,667.517 349.063,665.705 347.469,665.314 C347.032,665.205 346.532,665.158 346.094,665.158 C342.86,665.158 339.547,667.845 337.797,669.611 L337.516,669.939 L337.36,669.548 C337.36,669.502 335.157,665.642 331.469,665.095 C331.079,665.048 330.704,664.986 330.313,664.986 C326.844,664.986 323.219,667.408 320.25,675.986 L322.125,676.923 C322.563,675.548 323.719,672.252 324.922,670.595 C325.532,669.658 326.688,668.783 327.672,668.627 C328.172,668.502 328.547,668.627 328.891,668.845 C329.266,669.111 329.438,669.658 329.438,670.439 C329.438,672.97 327.625,677.47 327.125,678.517 L316.735,707.283 L310.297,707.283 L310.297,709.423 M336.641,691.173 C336.422,691.173 336.094,691.111 335.875,691.048 C334.329,690.455 333.891,688.642 333.891,686.595 C333.891,683.361 335.094,679.564 335.157,679.283 C336.141,675.33 339.063,670.923 341.813,669.392 C342.516,668.955 343.235,668.783 343.844,668.783 C344.11,668.783 344.391,668.783 344.672,668.892 C345.11,669.002 345.438,669.392 345.657,669.83 C345.985,670.439 346.094,671.252 346.094,672.189 C346.094,675.002 345,678.798 344.391,680.658 C343.079,684.736 340.485,689.627 337.844,690.892 C337.516,691.048 336.969,691.173 336.641,691.173"/>
<path class="" fill-rule="evenodd" d="M2323.79,495.715 L2507.83,495.715 L2507.83,513.077 L2323.79,513.077 L2323.79,495.715 "/>
<path class="" fill-rule="evenodd" d="M2323.79,466.199 L2455.19,466.199 L2455.19,483.561 L2323.79,483.561 L2323.79,466.199 "/>
<path class="" fill-rule="evenodd" d="M2399.82,436.684 L2455.19,436.684 L2455.19,454.046 L2399.82,454.046 L2399.82,436.684 "/>
<path class="" fill-rule="evenodd" d="M1429.89,557.723 L1660.69,557.723 L1660.69,575.085 L1429.89,575.085 L1429.89,557.723 "/>
<path class="" fill-rule="evenodd" d="M1529.3,528.207 L1660.69,528.207 L1660.69,545.569 L1529.3,545.569 L1529.3,528.207 "/>
<path class="" fill-rule="evenodd" d="M1605.32,498.691 L1660.69,498.691 L1660.69,516.054 L1605.32,516.054 L1605.32,498.691 "/>
<path class="" fill-rule="evenodd" d="M1740.12,210.479 L2011.8,210.479 L2011.8,227.841 L1740.12,227.841 L1740.12,210.479 "/>
<path class="" fill-rule="evenodd" d="M1740.12,239.995 L2011.8,239.995 L2011.8,257.357 L1740.12,257.357 L1740.12,239.995 "/>
<path class="" fill-rule="evenodd" d="M1816.14,269.51 L1896.81,269.51 L1896.81,286.872 L1816.14,286.872 L1816.14,269.51 "/>
<path class="" fill-rule="evenodd" d="M590.53,508.117 L857.196,508.117 L857.196,525.479 L590.53,525.479 L590.53,508.117 "/>
<path class="" fill-rule="evenodd" d="M590.53,478.601 L857.196,478.601 L857.196,495.963 L590.53,495.963 L590.53,478.601 "/>
<path class="" fill-rule="evenodd" d="M664.843,449.085 L744.446,449.085 L744.446,466.447 L664.843,466.447 L664.843,449.085 "/>
<path class="" fill-rule="evenodd" d="M1129.69,210.479 L1309.65,210.479 L1309.65,227.841 L1129.69,227.841 L1129.69,210.479 "/>
<path class="" fill-rule="evenodd" d="M1129.69,239.995 L1258.19,239.995 L1258.19,257.357 L1129.69,257.357 L1129.69,239.995 "/>
<path class="" fill-rule="evenodd" d="M1204,269.51 L1258.19,269.51 L1258.19,286.872 L1204,286.872 L1204,269.51 "/>
<path class="" fill-rule="evenodd" d="M345.64,222.88 L571.308,222.88 L571.308,240.243 L345.64,240.243 L345.64,222.88 "/>
<path class="" fill-rule="evenodd" d="M442.807,252.396 L571.308,252.396 L571.308,269.758 L442.807,269.758 L442.807,252.396 "/>
<path class="" fill-rule="evenodd" d="M517.12,281.912 L571.308,281.912 L571.308,299.274 L517.12,299.274 L517.12,281.912 "/>
<path class="" d="M1850.09,165.69 C1851.23,165.175 1851.81,163.831 1851.31,162.675 C1851.23,162.487 1851.17,162.3 1851.17,162.175 C1851.11,161.471 1852.33,159.925 1854.56,159.8 C1857.19,159.675 1858.53,159.862 1858.8,163.581 C1858.92,166.003 1855.08,166.971 1854.06,167.096 C1852.78,167.346 1852.02,168.503 1852.14,169.659 C1852.27,170.878 1853.48,171.643 1854.44,171.706 C1855.34,171.706 1860.45,171.893 1860.97,176.315 C1861.03,176.628 1861.09,176.956 1861.09,177.268 C1861.36,182.128 1859.23,183.737 1855.14,183.925 C1853.8,183.987 1852.58,183.612 1851.69,183.034 C1850.03,181.94 1849.45,180.409 1850.67,178.55 C1851.38,177.534 1851.05,176.05 1850.03,175.346 C1849,174.643 1847.59,174.971 1846.89,175.987 C1844.14,180.143 1845.73,184.628 1849.13,186.878 C1850.86,188.018 1853.09,188.659 1855.41,188.534 C1861.42,188.221 1866.03,184.378 1865.64,177.018 C1865.64,176.565 1865.64,176.19 1865.58,175.737 C1865.19,172.346 1863.34,170.175 1861.16,168.831 C1862.44,167.612 1863.47,165.69 1863.34,163.315 C1862.95,156.8 1858.34,154.94 1854.31,155.19 C1850.8,155.378 1846.25,157.94 1846.56,162.487 C1846.64,163.128 1846.83,163.893 1847.08,164.534 C1847.59,165.69 1848.94,166.206 1850.09,165.69"/>
<polyline class="" fill="none" stroke="#000000" stroke-width="2.48" stroke-linecap="square" stroke-linejoin="bevel" points="1786.63,196.837 1786.63,172.034 1831.21,172.034"/>
<polyline class="" fill="none" stroke="#000000" stroke-width="2.48" stroke-linecap="square" stroke-linejoin="bevel" points="1879.01,172.034 1909.21,172.034 1909.21,196.837"/>
<path class="" d="M698.265,558.262 C699.405,557.746 699.983,556.403 699.483,555.246 C699.405,555.059 699.343,554.871 699.343,554.746 C699.28,554.043 700.499,552.496 702.733,552.371 C705.358,552.246 706.702,552.434 706.968,556.153 C707.093,558.575 703.249,559.543 702.233,559.668 C700.952,559.918 700.186,561.075 700.311,562.231 C700.436,563.45 701.655,564.215 702.608,564.278 C703.515,564.278 708.624,564.465 709.14,568.887 C709.202,569.2 709.265,569.528 709.265,569.84 C709.53,574.7 707.405,576.309 703.311,576.496 C701.968,576.559 700.749,576.184 699.858,575.606 C698.202,574.512 697.624,572.981 698.843,571.121 C699.546,570.106 699.218,568.621 698.202,567.918 C697.171,567.215 695.765,567.543 695.061,568.559 C692.311,572.715 693.905,577.2 697.296,579.45 C699.03,580.59 701.265,581.231 703.577,581.106 C709.593,580.793 714.202,576.95 713.811,569.59 C713.811,569.137 713.811,568.762 713.749,568.309 C713.358,564.918 711.515,562.746 709.327,561.403 C710.608,560.184 711.64,558.262 711.515,555.887 C711.124,549.371 706.515,547.512 702.483,547.762 C698.968,547.95 694.421,550.512 694.733,555.059 C694.811,555.7 694.999,556.465 695.249,557.106 C695.765,558.262 697.108,558.778 698.265,558.262"/>
<polyline class="" fill="none" stroke="#000000" stroke-width="2.48" stroke-linecap="square" stroke-linejoin="bevel" points="652.442,540.485 652.442,565.288 679.379,564.985"/>
<polyline class="" fill="none" stroke="#000000" stroke-width="2.48" stroke-linecap="square" stroke-linejoin="bevel" points="727.182,564.449 773.954,563.924 773.954,539.121"/>
<path class="" d="M244.607,10.523 L240.81,10.523 L240.81,62.2574 C239.513,61.4761 237.919,60.9918 236.091,60.8043 C235.591,60.7418 235.076,60.7261 234.56,60.7261 C231.419,60.7261 228.06,61.6168 224.904,63.3199 C221.232,65.3043 218.31,68.1324 216.654,71.2886 C214.998,74.4605 214.826,77.5855 216.169,80.0699 C217.763,83.023 221.216,84.5699 225.31,84.5699 C228.357,84.5699 231.732,83.7105 234.982,81.9761 C240.888,78.773 244.576,73.5074 244.607,68.898 L244.607,10.523 "/>
<path class="" d="M306.544,54.2105 L268.451,54.2105 L268.451,47.5855 L306.544,47.5855 L306.544,54.2105 M306.544,71.0543 L268.451,71.0543 L268.451,64.4293 L306.544,64.4293 L306.544,71.0543 M356.498,59.4605 L360.841,59.4605 L360.841,67.1168 L356.498,67.1168 L356.498,77.0543 L346.482,77.0543 L346.482,67.1168 L329.373,67.1168 L329.373,59.3199 C333.102,53.4345 338.945,45.2938 346.904,34.898 L350.966,29.5855 L356.498,29.5855 L356.498,59.4605 M346.623,59.4605 L346.623,38.9605 L332.201,59.4605 L346.623,59.4605 M364.216,53.6011 C364.216,46.8303 365.711,41.135 368.701,36.5152 C371.69,31.8954 375.393,29.5855 379.81,29.5855 C384.279,29.5855 387.995,31.8954 390.958,36.5152 C393.922,41.135 395.404,46.898 395.404,53.8043 C395.404,60.7522 393.932,66.5126 390.99,71.0855 C388.047,75.6584 384.346,77.9449 379.888,77.9449 C375.284,77.9449 371.521,75.6688 368.599,71.1168 C365.677,66.5647 364.216,60.7261 364.216,53.6011 M379.888,76.023 C381.409,76.023 382.56,74.9865 383.341,72.9136 C384.123,70.8407 384.513,67.1168 384.513,61.7418 L384.513,45.9293 C384.513,40.8251 384.143,37.1454 383.404,34.8902 C382.664,32.635 381.445,31.5074 379.748,31.5074 C378.091,31.5074 376.906,32.6115 376.193,34.8199 C375.479,37.0282 375.123,40.7313 375.123,45.9293 L375.123,61.7418 C375.123,66.8459 375.49,70.5022 376.224,72.7105 C376.958,74.9188 378.18,76.023 379.888,76.023"/>
<path class="" d="M2121.78,103.408 L2119.67,103.408 L2108.17,132.549 C2106.83,136.455 2105.53,137.658 2102.67,137.861 L2102.47,137.861 L2102.47,140.205 L2115.72,140.205 L2115.72,137.861 L2114.72,137.861 C2112.03,137.861 2110.67,136.908 2110.67,135.002 C2110.67,134.361 2110.83,133.752 2111.12,132.908 L2112.78,128.502 L2126.03,128.502 L2128.73,135.205 C2129.03,136.002 2129.12,136.299 2129.12,136.549 C2129.12,137.361 2127.87,137.861 2126.03,137.861 L2123.92,137.861 L2123.92,140.205 L2139.42,140.205 L2139.42,137.861 L2138.73,137.861 C2136.12,137.799 2135.67,137.502 2134.53,134.658 L2121.78,103.408 M2119.33,111.595 L2124.97,125.799 L2113.78,125.799 L2119.33,111.595 "/>
<path class="" d="M2151.47,116.908 L2142.58,117.455 L2142.58,119.611 L2144.62,119.611 C2146.51,119.658 2146.76,119.955 2146.76,122.111 L2146.76,134.049 L2146.76,136.002 L2146.76,136.408 C2146.72,137.158 2146.67,137.455 2146.47,137.705 C2146.12,138.158 2145.17,138.361 2143.01,138.408 L2142.83,138.408 L2142.83,140.205 L2155.42,140.205 L2155.42,138.408 L2155.22,138.408 C2151.92,138.299 2151.47,138.049 2151.47,136.205 L2151.47,134.049 L2151.47,126.955 C2151.47,122.502 2153.92,119.205 2157.17,119.205 C2160.01,119.205 2161.47,121.252 2161.47,125.299 L2161.47,134.049 L2161.47,136.455 C2161.42,137.111 2161.37,137.455 2161.12,137.705 C2160.83,138.158 2159.83,138.361 2157.67,138.408 L2157.47,138.408 L2157.47,140.205 L2170.12,140.205 L2170.12,138.408 L2169.92,138.408 C2166.62,138.299 2166.17,138.049 2166.17,136.252 L2166.17,134.049 L2166.17,127.408 C2166.17,122.408 2168.42,119.205 2171.92,119.205 C2174.78,119.205 2176.17,121.361 2176.17,125.861 L2176.17,134.049 L2176.17,136.408 C2176.12,137.111 2176.08,137.455 2175.83,137.705 C2175.53,138.158 2174.53,138.361 2172.37,138.408 L2172.17,138.408 L2172.17,140.205 L2184.83,140.205 L2184.83,138.408 L2184.62,138.408 C2181.33,138.299 2180.87,138.049 2180.87,136.205 L2180.87,134.049 L2180.87,124.861 C2180.87,121.752 2180.58,120.705 2179.28,119.002 C2177.83,117.158 2175.78,116.158 2173.37,116.158 C2170.12,116.158 2167.72,117.705 2165.58,121.158 C2164.72,118.158 2162.01,116.158 2158.67,116.158 C2155.62,116.158 2153.42,117.611 2151.47,120.752 L2151.47,116.908 M2208.45,124.111 C2208.45,120.955 2207.91,119.361 2206.45,118.158 C2204.81,116.799 2202.36,116.158 2199.16,116.158 C2193.51,116.158 2189.41,118.799 2189.41,122.455 C2189.41,124.299 2190.56,125.502 2192.31,125.502 C2193.91,125.502 2195.01,124.455 2195.01,122.955 C2195.01,122.299 2194.76,121.611 2194.26,120.908 C2193.95,120.549 2193.91,120.455 2193.91,120.205 C2193.91,119.205 2195.91,118.299 2198.31,118.299 C2199.91,118.299 2201.66,118.799 2202.45,119.549 C2203.41,120.361 2203.76,121.549 2203.76,123.799 L2203.76,125.752 C2198.56,126.658 2196.91,127.049 2194.45,128.002 C2190.11,129.611 2188.06,131.908 2188.06,135.111 C2188.06,138.705 2190.86,140.955 2195.31,140.955 C2198.76,140.955 2201.86,139.549 2204.01,137.002 C2204.81,139.549 2206.06,140.549 2208.41,140.549 C2210.66,140.549 2213.01,139.111 2213.01,137.658 C2213.01,137.299 2212.81,137.049 2212.51,137.049 C2212.31,137.049 2212.11,137.111 2211.76,137.252 C2211.06,137.549 2210.76,137.611 2210.36,137.611 C2208.95,137.611 2208.45,136.705 2208.45,134.158 L2208.45,124.111 M2203.76,130.205 C2203.76,133.205 2203.61,133.908 2202.76,135.205 C2201.51,137.049 2199.26,138.299 2197.06,138.299 C2194.76,138.299 2193.11,136.658 2193.11,134.408 C2193.11,132.299 2194.16,130.799 2196.36,129.752 C2197.91,129.049 2199.86,128.549 2203.76,127.908 L2203.76,130.205 M2222.55,116.908 L2212.8,117.455 L2212.8,119.611 L2215.7,119.611 C2217.61,119.658 2217.86,119.955 2217.86,122.111 L2217.86,139.049 C2217.86,143.111 2217.61,145.002 2216.91,146.455 C2216.41,147.455 2215.25,148.205 2214.16,148.205 C2213.45,148.205 2212.91,147.908 2212.91,147.549 C2212.91,147.361 2212.95,147.252 2213.16,146.752 C2213.41,146.252 2213.5,145.908 2213.5,145.549 C2213.5,144.299 2212.3,143.205 2210.91,143.205 C2209.3,143.205 2208.11,144.455 2208.11,146.205 C2208.11,148.658 2210.36,150.299 2213.7,150.299 C2216.5,150.299 2219.05,149.111 2220.5,147.049 C2222.05,144.861 2222.55,142.299 2222.55,136.658 L2222.55,116.908 M2220.2,104.455 C2218.61,104.455 2217.3,105.752 2217.3,107.345 C2217.3,108.955 2218.61,110.252 2220.16,110.252 C2221.8,110.252 2223.11,108.955 2223.11,107.345 C2223.11,105.752 2221.8,104.455 2220.2,104.455"/>
<path class="" d="M2229.95,117.111 L2232.16,117.455 L2233.05,113.502 C2233.8,110.205 2234.16,109.705 2235.59,109.705 C2235.84,109.705 2236.25,109.705 2236.7,109.752 C2242.84,110.049 2242.84,110.049 2245.16,110.049 C2245.8,110.049 2246.95,110.049 2248.34,110.002 L2244.95,116.861 C2241.25,124.205 2240.8,125.111 2239.55,128.205 C2238,131.955 2237.2,135.111 2237.2,137.205 C2237.2,139.502 2238.41,140.908 2240.34,140.908 C2242.75,140.908 2243.7,139.299 2243.66,134.955 C2243.41,127.752 2244.3,124.252 2249.66,112.549 C2250.41,110.955 2251.16,109.408 2251.91,107.845 C2251.95,107.752 2252.09,107.299 2252.41,106.658 L2252.41,105.205 C2249.41,105.455 2247.8,105.549 2244.7,105.549 C2240.34,105.549 2236.91,105.408 2231.5,105.002 L2229.95,117.111 "/>
<path class="" d="M2301.81,107.333 L2272.06,107.333 L2272.06,109.692 L2272.95,109.692 C2275.81,109.739 2276.77,109.895 2277.16,110.395 C2277.45,110.833 2277.45,110.942 2277.45,113.489 L2277.45,137.286 C2277.45,139.849 2277.45,139.942 2277.16,140.395 C2276.77,140.895 2275.81,141.099 2272.95,141.099 L2272.06,141.099 L2272.06,143.442 L2289.2,143.442 L2289.2,141.099 L2287.56,141.099 C2284.7,141.099 2283.77,140.895 2283.36,140.395 C2283.06,139.942 2283.06,139.786 2283.06,137.286 L2283.06,125.942 L2284.06,125.942 C2289.2,125.739 2291.06,127.599 2291.27,133.145 L2293.61,133.145 L2293.61,116.739 L2291.27,116.739 C2290.95,121.645 2289.02,123.536 2284.27,123.599 L2283.06,123.599 L2283.06,112.192 C2283.02,110.083 2283.52,109.739 2286.2,109.692 L2288.52,109.692 C2296.72,109.645 2298.77,111.489 2300.31,120.099 L2302.52,120.099 L2301.81,107.333 "/>
<path class="" d="M2322.72,118.38 C2323.12,118.302 2323.45,117.895 2323.45,117.489 L2323.45,117.474 L2323.45,113.583 C2323.45,113.333 2323.3,113.02 2323.11,112.864 C2322.97,112.755 2322.72,112.661 2322.55,112.661 C2322.48,112.661 2322.41,112.677 2322.36,112.692 L2320.2,113.13 L2320.2,103.286 L2318.37,103.286 L2318.37,113.505 L2312.45,114.739 L2312.45,105.364 L2310.62,105.364 L2310.62,115.114 L2308.03,115.645 C2307.62,115.739 2307.3,116.145 2307.3,116.552 L2307.3,120.38 C2307.3,120.614 2307.45,120.942 2307.64,121.099 C2307.78,121.208 2308.03,121.302 2308.22,121.302 C2308.27,121.302 2308.36,121.286 2308.41,121.286 L2310.62,120.833 L2310.62,131.755 L2308.03,132.286 C2307.62,132.38 2307.3,132.77 2307.3,133.192 L2307.3,137.02 C2307.3,137.255 2307.45,137.583 2307.64,137.739 C2307.78,137.849 2308.03,137.942 2308.22,137.942 C2308.22,137.942 2308.22,137.942 2308.23,137.942 C2308.28,137.942 2308.36,137.927 2308.41,137.911 L2310.62,137.474 L2310.62,147.286 L2312.45,147.286 L2312.45,137.099 L2318.37,135.895 L2318.37,145.208 L2320.2,145.208 L2320.2,135.52 L2322.72,135.02 C2323.12,134.942 2323.45,134.536 2323.45,134.13 L2323.45,130.224 C2323.45,129.974 2323.3,129.661 2323.11,129.505 C2322.98,129.395 2322.72,129.302 2322.55,129.302 C2322.5,129.302 2322.41,129.317 2322.36,129.333 L2320.2,129.77 L2320.2,118.895 L2322.72,118.38 M2312.45,131.38 L2312.45,120.458 L2318.37,119.255 L2318.37,130.145 L2312.45,131.38 "/>
<path class="" d="M2339.34,120.145 L2330.45,120.692 L2330.45,122.849 L2332.5,122.849 C2334.39,122.895 2334.64,123.192 2334.64,125.349 L2334.64,137.286 L2334.64,139.239 L2334.64,139.645 C2334.59,140.395 2334.55,140.692 2334.34,140.942 C2334,141.395 2333.05,141.599 2330.89,141.645 L2330.7,141.645 L2330.7,143.442 L2343.3,143.442 L2343.3,141.645 L2343.09,141.645 C2339.8,141.536 2339.34,141.286 2339.34,139.442 L2339.34,137.286 L2339.34,130.192 C2339.34,125.739 2341.8,122.442 2345.05,122.442 C2347.89,122.442 2349.34,124.489 2349.34,128.536 L2349.34,137.286 L2349.34,139.692 C2349.3,140.349 2349.25,140.692 2349,140.942 C2348.7,141.395 2347.7,141.599 2345.55,141.645 L2345.34,141.645 L2345.34,143.442 L2358,143.442 L2358,141.645 L2357.8,141.645 C2354.5,141.536 2354.05,141.286 2354.05,139.489 L2354.05,137.286 L2354.05,130.645 C2354.05,125.645 2356.3,122.442 2359.8,122.442 C2362.66,122.442 2364.05,124.599 2364.05,129.099 L2364.05,137.286 L2364.05,139.645 C2364,140.349 2363.95,140.692 2363.7,140.942 C2363.41,141.395 2362.41,141.599 2360.25,141.645 L2360.05,141.645 L2360.05,143.442 L2372.7,143.442 L2372.7,141.645 L2372.5,141.645 C2369.2,141.536 2368.75,141.286 2368.75,139.442 L2368.75,137.286 L2368.75,128.099 C2368.75,124.989 2368.45,123.942 2367.16,122.239 C2365.7,120.395 2363.66,119.395 2361.25,119.395 C2358,119.395 2355.59,120.942 2353.45,124.395 C2352.59,121.395 2349.89,119.395 2346.55,119.395 C2343.5,119.395 2341.3,120.849 2339.34,123.989 L2339.34,120.145 M2384.03,120.145 L2374.64,120.692 L2374.64,122.849 L2377.19,122.849 C2379.08,122.895 2379.33,123.192 2379.33,125.349 L2379.33,137.286 L2379.33,139.645 C2379.28,140.395 2379.23,140.692 2379.03,140.942 C2378.69,141.395 2377.73,141.599 2375.58,141.645 L2375.23,141.645 L2375.23,143.442 L2388.19,143.442 L2388.19,141.645 L2387.83,141.645 C2384.48,141.536 2384.03,141.286 2384.03,139.489 L2384.03,137.286 L2384.03,120.145 M2381.69,107.692 C2380.08,107.692 2378.78,108.989 2378.78,110.583 C2378.78,112.192 2380.08,113.489 2381.64,113.489 C2383.28,113.489 2384.58,112.192 2384.58,110.583 C2384.58,108.989 2383.28,107.692 2381.69,107.692 M2399.47,120.145 L2390.81,120.692 L2390.81,122.849 L2392.62,122.849 C2394.52,122.895 2394.77,123.192 2394.77,125.349 L2394.77,137.286 L2394.77,138.489 L2394.77,139.645 C2394.72,140.395 2394.67,140.692 2394.47,140.942 C2394.12,141.395 2393.17,141.599 2391.02,141.645 L2390.81,141.645 L2390.81,143.442 L2403.47,143.442 L2403.47,141.645 L2403.27,141.645 C2399.92,141.536 2399.47,141.286 2399.47,139.489 L2399.47,137.286 L2399.47,132.099 C2399.47,129.645 2399.81,127.395 2400.37,126.239 C2401.42,123.989 2403.67,122.442 2405.81,122.442 C2407.12,122.442 2408.62,123.145 2409.37,124.192 C2410.12,125.286 2410.47,126.786 2410.47,129.192 L2410.47,137.286 L2410.47,139.645 C2410.42,140.395 2410.37,140.692 2410.17,140.942 C2409.81,141.395 2408.81,141.599 2406.67,141.645 L2406.47,141.645 L2406.47,143.442 L2419.12,143.442 L2419.12,141.645 L2418.92,141.645 C2415.62,141.536 2415.17,141.286 2415.17,139.489 L2415.17,137.286 L2415.17,129.442 C2415.17,125.849 2415.02,124.942 2414.12,123.239 C2412.87,120.849 2410.37,119.395 2407.37,119.395 C2404.12,119.395 2401.67,120.895 2399.47,124.192 L2399.47,120.145 "/>
<path class="" d="M2438.92,106.645 L2436.81,106.645 L2425.31,135.786 C2423.97,139.692 2422.67,140.895 2419.81,141.099 L2419.61,141.099 L2419.61,143.442 L2432.86,143.442 L2432.86,141.099 L2431.86,141.099 C2429.17,141.099 2427.81,140.145 2427.81,138.239 C2427.81,137.599 2427.97,136.989 2428.27,136.145 L2429.92,131.739 L2443.17,131.739 L2445.87,138.442 C2446.17,139.239 2446.27,139.536 2446.27,139.786 C2446.27,140.599 2445.02,141.099 2443.17,141.099 L2441.06,141.099 L2441.06,143.442 L2456.56,143.442 L2456.56,141.099 L2455.87,141.099 C2453.27,141.036 2452.81,140.739 2451.67,137.895 L2438.92,106.645 M2436.47,114.833 L2442.11,129.036 L2430.92,129.036 L2436.47,114.833 M2474.91,143.786 L2483.61,143.442 L2483.61,141.286 L2482.7,141.286 C2479.86,141.145 2479.61,140.849 2479.61,137.645 L2479.61,106.583 L2469.81,107.145 L2469.81,109.286 L2472.75,109.286 C2474.66,109.333 2474.91,109.645 2474.91,111.786 L2474.91,123.099 C2473.06,120.536 2470.91,119.395 2468,119.395 C2462.36,119.395 2458.06,124.849 2458.06,132.036 C2458.06,139.145 2462.2,144.192 2468,144.192 C2471.16,144.192 2473.31,142.849 2474.91,139.849 L2474.91,143.786 M2469,122.099 C2471.06,122.099 2473,123.599 2473.91,125.895 C2474.56,127.395 2474.86,129.442 2474.86,131.895 C2474.86,137.739 2472.56,141.489 2468.95,141.489 C2465.41,141.489 2463.31,138.192 2463.31,132.645 C2463.31,129.645 2463.61,127.395 2464.25,125.739 C2465.11,123.489 2466.95,122.099 2469,122.099 M2503.59,143.786 L2512.3,143.442 L2512.3,141.286 L2511.39,141.286 C2508.55,141.145 2508.3,140.849 2508.3,137.645 L2508.3,106.583 L2498.5,107.145 L2498.5,109.286 L2501.44,109.286 C2503.34,109.333 2503.59,109.645 2503.59,111.786 L2503.59,123.099 C2501.75,120.536 2499.59,119.395 2496.69,119.395 C2491.05,119.395 2486.75,124.849 2486.75,132.036 C2486.75,139.145 2490.89,144.192 2496.69,144.192 C2499.84,144.192 2502,142.849 2503.59,139.849 L2503.59,143.786 M2497.69,122.099 C2499.75,122.099 2501.69,123.599 2502.59,125.895 C2503.25,127.395 2503.55,129.442 2503.55,131.895 C2503.55,137.739 2501.25,141.489 2497.64,141.489 C2494.09,141.489 2492,138.192 2492,132.645 C2492,129.645 2492.3,127.395 2492.94,125.739 C2493.8,123.489 2495.64,122.099 2497.69,122.099"/>
<path class="" d="M2520.94,126.442 C2521.44,120.192 2521.69,118.536 2522.78,115.989 C2524.23,112.442 2526.87,110.395 2530.03,110.395 C2531.78,110.395 2532.83,110.942 2532.83,111.833 C2532.83,112.036 2532.78,112.192 2532.58,112.536 C2532.08,113.489 2531.83,114.239 2531.83,114.942 C2531.83,116.583 2533.12,117.833 2534.87,117.833 C2536.83,117.833 2538.19,116.333 2538.19,114.239 C2538.19,110.786 2534.73,108.239 2529.98,108.239 C2525.87,108.239 2522.03,110.192 2519.62,113.536 C2516.87,117.395 2515.37,122.599 2515.37,128.036 C2515.37,137.849 2520.19,144.192 2527.58,144.192 C2530.83,144.192 2533.53,143.099 2535.62,140.895 C2537.78,138.692 2539.08,135.442 2539.08,132.239 C2539.08,126.349 2534.87,121.942 2529.19,121.942 C2525.78,121.942 2523.28,123.286 2520.94,126.442 M2527.78,124.989 C2531.44,124.989 2533.62,127.849 2533.62,132.599 C2533.62,138.395 2531.33,142.036 2527.69,142.036 C2525.37,142.036 2523.62,140.849 2522.44,138.395 C2521.62,136.849 2521.23,135.145 2521.23,133.286 C2521.23,128.145 2523.73,124.989 2527.78,124.989"/>
<path class="" d="M1746.06,102.679 L1744.17,102.679 L1742.22,105.679 C1738.97,103.132 1736.76,102.273 1733.11,102.273 C1729.16,102.273 1726.06,103.382 1722.91,105.929 C1717.97,109.929 1715.66,114.976 1715.66,121.726 C1715.66,126.835 1717.11,131.085 1720.06,134.335 C1723.16,137.835 1727.76,139.882 1732.56,139.882 C1736.76,139.882 1739.72,138.585 1742.97,135.335 L1744.81,139.835 L1746.92,139.835 L1746.92,128.835 C1746.92,126.289 1746.92,126.179 1747.22,125.726 C1747.67,125.179 1748.56,125.039 1751.42,125.039 L1752.17,125.039 L1752.17,122.679 L1736.26,122.679 L1736.26,125.039 L1737.22,125.039 C1741.42,125.039 1741.76,125.289 1741.76,128.085 C1741.76,130.226 1741.42,132.179 1740.76,133.382 C1739.51,135.835 1736.31,137.539 1733.06,137.539 C1729.81,137.539 1726.61,135.882 1724.91,133.382 C1723.06,130.585 1722.26,127.085 1722.26,121.726 C1722.26,110.585 1725.97,104.632 1732.91,104.632 C1738.61,104.632 1742.56,108.726 1744.61,116.726 L1746.76,116.726 L1746.06,102.679 "/>
<path class="" d="M1771.22,114.07 C1771.62,113.992 1771.95,113.585 1771.95,113.179 L1771.95,113.164 L1771.95,109.273 C1771.95,109.023 1771.8,108.71 1771.61,108.554 C1771.47,108.445 1771.22,108.351 1771.05,108.351 C1770.98,108.351 1770.91,108.367 1770.86,108.382 L1768.7,108.82 L1768.7,98.9761 L1766.87,98.9761 L1766.87,109.195 L1760.95,110.429 L1760.95,101.054 L1759.12,101.054 L1759.12,110.804 L1756.53,111.335 C1756.12,111.429 1755.8,111.835 1755.8,112.242 L1755.8,116.07 C1755.8,116.304 1755.95,116.632 1756.14,116.789 C1756.28,116.898 1756.53,116.992 1756.72,116.992 C1756.76,116.992 1756.86,116.976 1756.91,116.976 L1759.12,116.523 L1759.12,127.445 L1756.53,127.976 C1756.12,128.07 1755.8,128.46 1755.8,128.882 L1755.8,132.71 C1755.8,132.945 1755.95,133.273 1756.14,133.429 C1756.28,133.539 1756.53,133.632 1756.72,133.632 C1756.72,133.632 1756.72,133.632 1756.73,133.632 C1756.78,133.632 1756.86,133.617 1756.91,133.601 L1759.12,133.164 L1759.12,142.976 L1760.95,142.976 L1760.95,132.789 L1766.87,131.585 L1766.87,140.898 L1768.7,140.898 L1768.7,131.21 L1771.22,130.71 C1771.62,130.632 1771.95,130.226 1771.95,129.82 L1771.95,125.914 C1771.95,125.664 1771.8,125.351 1771.61,125.195 C1771.48,125.085 1771.22,124.992 1771.05,124.992 C1771,124.992 1770.91,125.007 1770.86,125.023 L1768.7,125.46 L1768.7,114.585 L1771.22,114.07 M1760.95,127.07 L1760.95,116.148 L1766.87,114.945 L1766.87,125.835 L1760.95,127.07 "/>
<path class="" d="M1787.84,115.835 L1778.95,116.382 L1778.95,118.539 L1781,118.539 C1782.89,118.585 1783.14,118.882 1783.14,121.039 L1783.14,132.976 L1783.14,134.929 L1783.14,135.335 C1783.09,136.085 1783.05,136.382 1782.84,136.632 C1782.5,137.085 1781.55,137.289 1779.39,137.335 L1779.2,137.335 L1779.2,139.132 L1791.8,139.132 L1791.8,137.335 L1791.59,137.335 C1788.3,137.226 1787.84,136.976 1787.84,135.132 L1787.84,132.976 L1787.84,125.882 C1787.84,121.429 1790.3,118.132 1793.55,118.132 C1796.39,118.132 1797.84,120.179 1797.84,124.226 L1797.84,132.976 L1797.84,135.382 C1797.8,136.039 1797.75,136.382 1797.5,136.632 C1797.2,137.085 1796.2,137.289 1794.05,137.335 L1793.84,137.335 L1793.84,139.132 L1806.5,139.132 L1806.5,137.335 L1806.3,137.335 C1803,137.226 1802.55,136.976 1802.55,135.179 L1802.55,132.976 L1802.55,126.335 C1802.55,121.335 1804.8,118.132 1808.3,118.132 C1811.16,118.132 1812.55,120.289 1812.55,124.789 L1812.55,132.976 L1812.55,135.335 C1812.5,136.039 1812.45,136.382 1812.2,136.632 C1811.91,137.085 1810.91,137.289 1808.75,137.335 L1808.55,137.335 L1808.55,139.132 L1821.2,139.132 L1821.2,137.335 L1821,137.335 C1817.7,137.226 1817.25,136.976 1817.25,135.132 L1817.25,132.976 L1817.25,123.789 C1817.25,120.679 1816.95,119.632 1815.66,117.929 C1814.2,116.085 1812.16,115.085 1809.75,115.085 C1806.5,115.085 1804.09,116.632 1801.95,120.085 C1801.09,117.085 1798.39,115.085 1795.05,115.085 C1792,115.085 1789.8,116.539 1787.84,119.679 L1787.84,115.835 M1832.53,115.835 L1823.14,116.382 L1823.14,118.539 L1825.69,118.539 C1827.58,118.585 1827.83,118.882 1827.83,121.039 L1827.83,132.976 L1827.83,135.335 C1827.78,136.085 1827.73,136.382 1827.53,136.632 C1827.19,137.085 1826.23,137.289 1824.08,137.335 L1823.73,137.335 L1823.73,139.132 L1836.69,139.132 L1836.69,137.335 L1836.33,137.335 C1832.98,137.226 1832.53,136.976 1832.53,135.179 L1832.53,132.976 L1832.53,115.835 M1830.19,103.382 C1828.58,103.382 1827.28,104.679 1827.28,106.273 C1827.28,107.882 1828.58,109.179 1830.14,109.179 C1831.78,109.179 1833.08,107.882 1833.08,106.273 C1833.08,104.679 1831.78,103.382 1830.19,103.382 M1847.97,115.835 L1839.31,116.382 L1839.31,118.539 L1841.12,118.539 C1843.01,118.585 1843.26,118.882 1843.26,121.039 L1843.26,132.976 L1843.26,134.179 L1843.26,135.335 C1843.22,136.085 1843.17,136.382 1842.97,136.632 C1842.62,137.085 1841.67,137.289 1839.51,137.335 L1839.31,137.335 L1839.31,139.132 L1851.97,139.132 L1851.97,137.335 L1851.76,137.335 C1848.42,137.226 1847.97,136.976 1847.97,135.179 L1847.97,132.976 L1847.97,127.789 C1847.97,125.335 1848.31,123.085 1848.87,121.929 C1849.92,119.679 1852.17,118.132 1854.31,118.132 C1855.62,118.132 1857.12,118.835 1857.87,119.882 C1858.62,120.976 1858.97,122.476 1858.97,124.882 L1858.97,132.976 L1858.97,135.335 C1858.92,136.085 1858.87,136.382 1858.67,136.632 C1858.31,137.085 1857.31,137.289 1855.17,137.335 L1854.97,137.335 L1854.97,139.132 L1867.62,139.132 L1867.62,137.335 L1867.42,137.335 C1864.12,137.226 1863.67,136.976 1863.67,135.179 L1863.67,132.976 L1863.67,125.132 C1863.67,121.539 1863.51,120.632 1862.62,118.929 C1861.37,116.539 1858.87,115.085 1855.87,115.085 C1852.62,115.085 1850.17,116.585 1847.97,119.882 L1847.97,115.835 "/>
<path class="" d="M1444.96,103.382 L1443.06,103.382 L1441.06,106.335 C1437.41,103.679 1435.56,102.976 1432.1,102.976 C1427.35,102.976 1423.31,104.976 1419.96,108.976 C1416.76,112.788 1415.26,116.991 1415.26,122.132 C1415.26,132.929 1422.31,140.585 1432.16,140.585 C1440.16,140.585 1445.26,135.882 1446.41,127.491 L1444.06,127.085 C1442.71,134.538 1438.91,138.241 1432.76,138.241 C1425.35,138.241 1421.85,133.132 1421.85,122.335 C1421.85,116.632 1422.6,112.882 1424.31,109.882 C1425.85,107.085 1428.91,105.335 1432.16,105.335 C1435.66,105.335 1438.76,107.179 1440.66,110.382 C1441.62,112.038 1442.31,113.882 1443.51,117.835 L1445.71,117.835 L1444.96,103.382 "/>
<path class="" d="M1467.87,114.772 C1468.27,114.694 1468.6,114.288 1468.6,113.882 L1468.6,113.866 L1468.6,109.976 C1468.6,109.726 1468.45,109.413 1468.26,109.257 C1468.12,109.147 1467.87,109.054 1467.7,109.054 C1467.63,109.054 1467.56,109.069 1467.51,109.085 L1465.35,109.522 L1465.35,99.6787 L1463.52,99.6787 L1463.52,109.897 L1457.6,111.132 L1457.6,101.757 L1455.77,101.757 L1455.77,111.507 L1453.18,112.038 C1452.77,112.132 1452.45,112.538 1452.45,112.944 L1452.45,116.772 C1452.45,117.007 1452.6,117.335 1452.79,117.491 C1452.93,117.601 1453.18,117.694 1453.37,117.694 C1453.41,117.694 1453.51,117.679 1453.56,117.679 L1455.77,117.226 L1455.77,128.147 L1453.18,128.679 C1452.77,128.772 1452.45,129.163 1452.45,129.585 L1452.45,133.413 C1452.45,133.647 1452.6,133.976 1452.79,134.132 C1452.93,134.241 1453.18,134.335 1453.37,134.335 C1453.37,134.335 1453.37,134.335 1453.38,134.335 C1453.43,134.335 1453.51,134.319 1453.56,134.304 L1455.77,133.866 L1455.77,143.679 L1457.6,143.679 L1457.6,133.491 L1463.52,132.288 L1463.52,141.601 L1465.35,141.601 L1465.35,131.913 L1467.87,131.413 C1468.27,131.335 1468.6,130.929 1468.6,130.522 L1468.6,126.616 C1468.6,126.366 1468.45,126.054 1468.26,125.897 C1468.13,125.788 1467.87,125.694 1467.7,125.694 C1467.65,125.694 1467.56,125.71 1467.51,125.726 L1465.35,126.163 L1465.35,115.288 L1467.87,114.772 M1457.6,127.772 L1457.6,116.851 L1463.52,115.647 L1463.52,126.538 L1457.6,127.772 "/>
<path class="" d="M1484.49,116.538 L1475.6,117.085 L1475.6,119.241 L1477.65,119.241 C1479.54,119.288 1479.79,119.585 1479.79,121.741 L1479.79,133.679 L1479.79,135.632 L1479.79,136.038 C1479.74,136.788 1479.7,137.085 1479.49,137.335 C1479.15,137.788 1478.2,137.991 1476.04,138.038 L1475.85,138.038 L1475.85,139.835 L1488.45,139.835 L1488.45,138.038 L1488.24,138.038 C1484.95,137.929 1484.49,137.679 1484.49,135.835 L1484.49,133.679 L1484.49,126.585 C1484.49,122.132 1486.95,118.835 1490.2,118.835 C1493.04,118.835 1494.49,120.882 1494.49,124.929 L1494.49,133.679 L1494.49,136.085 C1494.45,136.741 1494.4,137.085 1494.15,137.335 C1493.85,137.788 1492.85,137.991 1490.7,138.038 L1490.49,138.038 L1490.49,139.835 L1503.15,139.835 L1503.15,138.038 L1502.95,138.038 C1499.65,137.929 1499.2,137.679 1499.2,135.882 L1499.2,133.679 L1499.2,127.038 C1499.2,122.038 1501.45,118.835 1504.95,118.835 C1507.81,118.835 1509.2,120.991 1509.2,125.491 L1509.2,133.679 L1509.2,136.038 C1509.15,136.741 1509.1,137.085 1508.85,137.335 C1508.56,137.788 1507.56,137.991 1505.4,138.038 L1505.2,138.038 L1505.2,139.835 L1517.85,139.835 L1517.85,138.038 L1517.65,138.038 C1514.35,137.929 1513.9,137.679 1513.9,135.835 L1513.9,133.679 L1513.9,124.491 C1513.9,121.382 1513.6,120.335 1512.31,118.632 C1510.85,116.788 1508.81,115.788 1506.4,115.788 C1503.15,115.788 1500.74,117.335 1498.6,120.788 C1497.74,117.788 1495.04,115.788 1491.7,115.788 C1488.65,115.788 1486.45,117.241 1484.49,120.382 L1484.49,116.538 M1529.18,116.538 L1519.79,117.085 L1519.79,119.241 L1522.34,119.241 C1524.23,119.288 1524.48,119.585 1524.48,121.741 L1524.48,133.679 L1524.48,136.038 C1524.43,136.788 1524.38,137.085 1524.18,137.335 C1523.84,137.788 1522.88,137.991 1520.73,138.038 L1520.38,138.038 L1520.38,139.835 L1533.34,139.835 L1533.34,138.038 L1532.98,138.038 C1529.63,137.929 1529.18,137.679 1529.18,135.882 L1529.18,133.679 L1529.18,116.538 M1526.84,104.085 C1525.23,104.085 1523.93,105.382 1523.93,106.976 C1523.93,108.585 1525.23,109.882 1526.79,109.882 C1528.43,109.882 1529.73,108.585 1529.73,106.976 C1529.73,105.382 1528.43,104.085 1526.84,104.085 M1544.62,116.538 L1535.96,117.085 L1535.96,119.241 L1537.77,119.241 C1539.66,119.288 1539.91,119.585 1539.91,121.741 L1539.91,133.679 L1539.91,134.882 L1539.91,136.038 C1539.87,136.788 1539.82,137.085 1539.62,137.335 C1539.27,137.788 1538.32,137.991 1536.16,138.038 L1535.96,138.038 L1535.96,139.835 L1548.62,139.835 L1548.62,138.038 L1548.41,138.038 C1545.07,137.929 1544.62,137.679 1544.62,135.882 L1544.62,133.679 L1544.62,128.491 C1544.62,126.038 1544.96,123.788 1545.52,122.632 C1546.57,120.382 1548.82,118.835 1550.96,118.835 C1552.27,118.835 1553.77,119.538 1554.52,120.585 C1555.27,121.679 1555.62,123.179 1555.62,125.585 L1555.62,133.679 L1555.62,136.038 C1555.57,136.788 1555.52,137.085 1555.32,137.335 C1554.96,137.788 1553.96,137.991 1551.82,138.038 L1551.62,138.038 L1551.62,139.835 L1564.27,139.835 L1564.27,138.038 L1564.07,138.038 C1560.77,137.929 1560.32,137.679 1560.32,135.882 L1560.32,133.679 L1560.32,125.835 C1560.32,122.241 1560.16,121.335 1559.27,119.632 C1558.02,117.241 1555.52,115.788 1552.52,115.788 C1549.27,115.788 1546.82,117.288 1544.62,120.585 L1544.62,116.538 "/>
<path class="" d="M966.431,139.378 L983.228,139.378 C987.681,139.378 991.087,138.675 993.728,137.175 C998.775,134.331 1001.59,128.628 1001.59,121.128 C1001.59,114.222 999.087,108.831 994.478,105.831 C991.728,104.081 988.025,103.268 982.322,103.268 L966.431,103.268 L966.431,105.628 L967.384,105.628 C970.181,105.675 971.134,105.831 971.525,106.331 C971.822,106.768 971.822,106.878 971.822,109.425 L971.822,133.222 C971.822,135.784 971.822,135.878 971.525,136.331 C971.134,136.831 970.181,136.972 967.384,137.034 L966.431,137.034 L966.431,139.378 M980.275,137.034 C977.728,137.034 977.431,136.722 977.431,134.284 L977.431,108.425 C977.431,105.972 977.775,105.628 980.275,105.628 L982.884,105.628 C991.431,105.628 994.978,110.268 994.978,121.331 C994.978,132.534 991.775,137.034 983.681,137.034 L980.275,137.034 "/>
<path class="" d="M1020.67,103.268 L1007.77,103.268 L1007.77,105.628 L1008.73,105.628 C1011.57,105.675 1012.52,105.831 1012.87,106.331 C1013.23,106.768 1013.23,106.831 1013.23,109.425 L1013.23,128.581 C1013.23,135.378 1012.27,136.784 1007.42,137.034 L1007.42,139.378 L1021.67,139.378 L1021.67,137.034 C1016.87,136.784 1015.92,135.378 1015.92,128.581 L1015.92,106.472 L1027.82,139.378 L1029.82,139.378 L1040.98,106.472 L1040.98,133.222 C1040.98,135.784 1040.98,135.878 1040.68,136.378 C1040.27,136.878 1039.32,137.034 1036.48,137.034 L1035.57,137.034 L1035.57,139.378 L1051.98,139.378 L1051.98,137.034 L1051.07,137.034 C1048.23,137.034 1047.27,136.878 1046.87,136.378 C1046.57,135.878 1046.57,135.831 1046.57,133.222 L1046.57,109.425 C1046.57,106.878 1046.57,106.768 1046.87,106.331 C1047.27,105.831 1048.23,105.675 1051.07,105.628 L1051.98,105.628 L1051.98,103.268 L1039.43,103.268 L1030.27,129.925 L1020.67,103.268 M1076.1,123.284 C1076.1,120.128 1075.56,118.534 1074.1,117.331 C1072.46,115.972 1070.01,115.331 1066.81,115.331 C1061.17,115.331 1057.06,117.972 1057.06,121.628 C1057.06,123.472 1058.21,124.675 1059.96,124.675 C1061.56,124.675 1062.67,123.628 1062.67,122.128 C1062.67,121.472 1062.42,120.784 1061.92,120.081 C1061.6,119.722 1061.56,119.628 1061.56,119.378 C1061.56,118.378 1063.56,117.472 1065.96,117.472 C1067.56,117.472 1069.31,117.972 1070.1,118.722 C1071.06,119.534 1071.42,120.722 1071.42,122.972 L1071.42,124.925 C1066.21,125.831 1064.56,126.222 1062.1,127.175 C1057.76,128.784 1055.71,131.081 1055.71,134.284 C1055.71,137.878 1058.51,140.128 1062.96,140.128 C1066.42,140.128 1069.51,138.722 1071.67,136.175 C1072.46,138.722 1073.71,139.722 1076.06,139.722 C1078.31,139.722 1080.67,138.284 1080.67,136.831 C1080.67,136.472 1080.46,136.222 1080.17,136.222 C1079.96,136.222 1079.76,136.284 1079.42,136.425 C1078.71,136.722 1078.42,136.784 1078.01,136.784 C1076.6,136.784 1076.1,135.878 1076.1,133.331 L1076.1,123.284 M1071.42,129.378 C1071.42,132.378 1071.26,133.081 1070.42,134.378 C1069.17,136.222 1066.92,137.472 1064.71,137.472 C1062.42,137.472 1060.76,135.831 1060.76,133.581 C1060.76,131.472 1061.81,129.972 1064.01,128.925 C1065.56,128.222 1067.51,127.722 1071.42,127.081 L1071.42,129.378 M1090.2,116.081 L1080.45,116.628 L1080.45,118.784 L1083.35,118.784 C1085.26,118.831 1085.51,119.128 1085.51,121.284 L1085.51,138.222 C1085.51,142.284 1085.26,144.175 1084.56,145.628 C1084.06,146.628 1082.9,147.378 1081.81,147.378 C1081.1,147.378 1080.56,147.081 1080.56,146.722 C1080.56,146.534 1080.6,146.425 1080.81,145.925 C1081.06,145.425 1081.15,145.081 1081.15,144.722 C1081.15,143.472 1079.95,142.378 1078.56,142.378 C1076.95,142.378 1075.76,143.628 1075.76,145.378 C1075.76,147.831 1078.01,149.472 1081.35,149.472 C1084.15,149.472 1086.7,148.284 1088.15,146.222 C1089.7,144.034 1090.2,141.472 1090.2,135.831 L1090.2,116.081 M1087.85,103.628 C1086.26,103.628 1084.95,104.925 1084.95,106.518 C1084.95,108.128 1086.26,109.425 1087.81,109.425 C1089.45,109.425 1090.76,108.128 1090.76,106.518 C1090.76,104.925 1089.45,103.628 1087.85,103.628"/>
<path class="" d="M1111.43,105.754 L1111.43,108.113 L1112.34,108.113 C1115.18,108.16 1116.13,108.316 1116.53,108.816 C1116.84,109.254 1116.84,109.363 1116.84,111.91 L1116.84,135.707 C1116.84,138.269 1116.84,138.363 1116.53,138.816 C1116.13,139.316 1115.18,139.519 1112.34,139.519 L1111.43,139.519 L1111.43,141.863 L1129.59,141.863 C1138.23,141.863 1143.43,138.207 1143.43,132.066 C1143.43,127.066 1140.29,124.207 1133.43,123.019 C1135.84,122.519 1136.93,122.066 1138.23,121.113 C1140.29,119.566 1141.54,117.113 1141.54,114.613 C1141.54,111.363 1139.54,108.207 1136.63,106.957 C1134.84,106.16 1132.34,105.754 1129.38,105.754 L1111.43,105.754 M1122.43,122.019 L1122.43,110.613 C1122.43,108.66 1123.09,108.16 1125.73,108.113 L1127.73,108.113 C1130.03,108.113 1131.93,108.504 1132.98,109.16 C1134.78,110.254 1135.73,112.363 1135.73,115.16 C1135.73,120.113 1133.34,122.019 1126.88,122.019 L1122.43,122.019 M1122.43,124.363 L1126.84,124.363 C1134.48,124.363 1137.29,126.41 1137.29,131.91 C1137.29,135.113 1136.18,137.41 1134.23,138.363 C1132.68,139.16 1130.59,139.519 1127.43,139.519 L1125.34,139.519 C1122.84,139.519 1122.34,139.019 1122.43,136.363 L1122.43,124.363 "/>
<path class="" d="M1158.53,118.566 L1149.63,119.113 L1149.63,121.269 L1151.68,121.269 C1153.57,121.316 1153.82,121.613 1153.82,123.769 L1153.82,135.707 L1153.82,137.66 L1153.82,138.066 C1153.78,138.816 1153.73,139.113 1153.53,139.363 C1153.18,139.816 1152.23,140.019 1150.07,140.066 L1149.88,140.066 L1149.88,141.863 L1162.48,141.863 L1162.48,140.066 L1162.28,140.066 C1158.98,139.957 1158.53,139.707 1158.53,137.863 L1158.53,135.707 L1158.53,128.613 C1158.53,124.16 1160.98,120.863 1164.23,120.863 C1167.07,120.863 1168.53,122.91 1168.53,126.957 L1168.53,135.707 L1168.53,138.113 C1168.48,138.769 1168.43,139.113 1168.18,139.363 C1167.88,139.816 1166.88,140.019 1164.73,140.066 L1164.53,140.066 L1164.53,141.863 L1177.18,141.863 L1177.18,140.066 L1176.98,140.066 C1173.68,139.957 1173.23,139.707 1173.23,137.91 L1173.23,135.707 L1173.23,129.066 C1173.23,124.066 1175.48,120.863 1178.98,120.863 C1181.84,120.863 1183.23,123.019 1183.23,127.519 L1183.23,135.707 L1183.23,138.066 C1183.18,138.769 1183.13,139.113 1182.88,139.363 C1182.59,139.816 1181.59,140.019 1179.43,140.066 L1179.23,140.066 L1179.23,141.863 L1191.88,141.863 L1191.88,140.066 L1191.68,140.066 C1188.38,139.957 1187.93,139.707 1187.93,137.863 L1187.93,135.707 L1187.93,126.519 C1187.93,123.41 1187.63,122.363 1186.34,120.66 C1184.88,118.816 1182.84,117.816 1180.43,117.816 C1177.18,117.816 1174.78,119.363 1172.63,122.816 C1171.78,119.816 1169.07,117.816 1165.73,117.816 C1162.68,117.816 1160.48,119.269 1158.53,122.41 L1158.53,118.566 "/>
<path class="" d="M635.318,94.9427 L633.412,94.9427 L631.412,97.8959 C627.771,95.2396 625.912,94.5365 622.459,94.5365 C617.709,94.5365 613.662,96.5365 610.318,100.536 C607.115,104.349 605.615,108.552 605.615,113.693 C605.615,124.49 612.662,132.146 622.521,132.146 C630.521,132.146 635.615,127.443 636.771,119.052 L634.412,118.646 C633.068,126.099 629.271,129.802 623.115,129.802 C615.709,129.802 612.209,124.693 612.209,113.896 C612.209,108.193 612.959,104.443 614.662,101.443 C616.209,98.6459 619.271,96.8959 622.521,96.8959 C626.021,96.8959 629.115,98.7396 631.021,101.943 C631.974,103.599 632.662,105.443 633.865,109.396 L636.068,109.396 L635.318,94.9427 "/>
<path class="" d="M658.224,106.333 C658.631,106.255 658.959,105.849 658.959,105.443 L658.959,105.427 L658.959,101.536 C658.959,101.286 658.803,100.974 658.615,100.818 C658.474,100.708 658.224,100.615 658.053,100.615 C657.99,100.615 657.912,100.63 657.865,100.646 L655.709,101.083 L655.709,91.2396 L653.881,91.2396 L653.881,101.458 L647.959,102.693 L647.959,93.3177 L646.131,93.3177 L646.131,103.068 L643.537,103.599 C643.131,103.693 642.803,104.099 642.803,104.505 L642.803,108.333 C642.803,108.568 642.959,108.896 643.146,109.052 C643.287,109.161 643.537,109.255 643.724,109.255 C643.771,109.255 643.865,109.24 643.912,109.24 L646.131,108.786 L646.131,119.708 L643.537,120.24 C643.131,120.333 642.803,120.724 642.803,121.146 L642.803,124.974 C642.803,125.208 642.959,125.536 643.146,125.693 C643.287,125.802 643.537,125.896 643.724,125.896 C643.724,125.896 643.724,125.896 643.74,125.896 C643.787,125.896 643.865,125.88 643.912,125.865 L646.131,125.427 L646.131,135.24 L647.959,135.24 L647.959,125.052 L653.881,123.849 L653.881,133.161 L655.709,133.161 L655.709,123.474 L658.224,122.974 C658.631,122.896 658.959,122.49 658.959,122.083 L658.959,118.177 C658.959,117.927 658.803,117.615 658.615,117.458 C658.49,117.349 658.224,117.255 658.053,117.255 C658.006,117.255 657.912,117.271 657.865,117.286 L655.709,117.724 L655.709,106.849 L658.224,106.333 M647.959,119.333 L647.959,108.411 L653.881,107.208 L653.881,118.099 L647.959,119.333 "/>
<path class="" d="M674.849,108.099 L665.959,108.646 L665.959,110.802 L668.006,110.802 C669.896,110.849 670.146,111.146 670.146,113.302 L670.146,125.24 L670.146,127.193 L670.146,127.599 C670.099,128.349 670.053,128.646 669.849,128.896 C669.506,129.349 668.553,129.552 666.396,129.599 L666.209,129.599 L666.209,131.396 L678.803,131.396 L678.803,129.599 L678.599,129.599 C675.303,129.49 674.849,129.24 674.849,127.396 L674.849,125.24 L674.849,118.146 C674.849,113.693 677.303,110.396 680.553,110.396 C683.396,110.396 684.849,112.443 684.849,116.49 L684.849,125.24 L684.849,127.646 C684.803,128.302 684.756,128.646 684.506,128.896 C684.209,129.349 683.209,129.552 681.053,129.599 L680.849,129.599 L680.849,131.396 L693.506,131.396 L693.506,129.599 L693.303,129.599 C690.006,129.49 689.553,129.24 689.553,127.443 L689.553,125.24 L689.553,118.599 C689.553,113.599 691.803,110.396 695.303,110.396 C698.162,110.396 699.553,112.552 699.553,117.052 L699.553,125.24 L699.553,127.599 C699.506,128.302 699.459,128.646 699.209,128.896 C698.912,129.349 697.912,129.552 695.756,129.599 L695.553,129.599 L695.553,131.396 L708.209,131.396 L708.209,129.599 L708.006,129.599 C704.709,129.49 704.256,129.24 704.256,127.396 L704.256,125.24 L704.256,116.052 C704.256,112.943 703.959,111.896 702.662,110.193 C701.209,108.349 699.162,107.349 696.756,107.349 C693.506,107.349 691.099,108.896 688.959,112.349 C688.099,109.349 685.396,107.349 682.053,107.349 C679.006,107.349 676.803,108.802 674.849,111.943 L674.849,108.099 M719.537,108.099 L710.146,108.646 L710.146,110.802 L712.693,110.802 C714.584,110.849 714.834,111.146 714.834,113.302 L714.834,125.24 L714.834,127.599 C714.787,128.349 714.74,128.646 714.537,128.896 C714.193,129.349 713.24,129.552 711.084,129.599 L710.74,129.599 L710.74,131.396 L723.693,131.396 L723.693,129.599 L723.334,129.599 C719.99,129.49 719.537,129.24 719.537,127.443 L719.537,125.24 L719.537,108.099 M717.193,95.6459 C715.584,95.6459 714.287,96.9427 714.287,98.5365 C714.287,100.146 715.584,101.443 717.146,101.443 C718.787,101.443 720.084,100.146 720.084,98.5365 C720.084,96.9427 718.787,95.6459 717.193,95.6459 M734.974,108.099 L726.318,108.646 L726.318,110.802 L728.131,110.802 C730.021,110.849 730.271,111.146 730.271,113.302 L730.271,125.24 L730.271,126.443 L730.271,127.599 C730.224,128.349 730.178,128.646 729.974,128.896 C729.631,129.349 728.678,129.552 726.521,129.599 L726.318,129.599 L726.318,131.396 L738.974,131.396 L738.974,129.599 L738.771,129.599 C735.428,129.49 734.974,129.24 734.974,127.443 L734.974,125.24 L734.974,120.052 C734.974,117.599 735.318,115.349 735.881,114.193 C736.928,111.943 739.178,110.396 741.318,110.396 C742.631,110.396 744.131,111.099 744.881,112.146 C745.631,113.24 745.974,114.74 745.974,117.146 L745.974,125.24 L745.974,127.599 C745.928,128.349 745.881,128.646 745.678,128.896 C745.318,129.349 744.318,129.552 742.178,129.599 L741.974,129.599 L741.974,131.396 L754.631,131.396 L754.631,129.599 L754.428,129.599 C751.131,129.49 750.678,129.24 750.678,127.443 L750.678,125.24 L750.678,117.396 C750.678,113.802 750.521,112.896 749.631,111.193 C748.381,108.802 745.881,107.349 742.881,107.349 C739.631,107.349 737.178,108.849 734.974,112.146 L734.974,108.099 "/>
<path class="" d="M381.519,97.3465 L351.472,97.3465 L351.472,99.7058 L352.363,99.7058 C355.222,99.7527 356.175,99.909 356.566,100.409 C356.863,100.846 356.863,100.956 356.863,103.503 L356.863,127.3 C356.863,129.862 356.863,129.956 356.566,130.409 C356.175,130.909 355.222,131.112 352.363,131.112 L351.472,131.112 L351.472,133.456 L382.175,133.456 L383.175,120.112 L380.972,120.112 C379.066,129.003 377.019,130.909 369.363,131.112 L366.066,131.112 C363.066,131.003 362.316,130.503 362.472,128.706 L362.472,115.956 L363.472,115.956 C368.613,115.753 370.472,117.612 370.675,123.159 L373.019,123.159 L373.019,106.753 L370.675,106.753 C370.363,111.659 368.425,113.612 363.675,113.612 L362.472,113.612 L362.472,102.206 C362.425,100.096 362.925,99.7527 365.613,99.7058 L368.222,99.7058 C376.425,99.659 378.472,101.456 380.066,110.112 L382.222,110.112 L381.519,97.3465 "/>
<path class="" d="M402.909,97.3465 L390.019,97.3465 L390.019,99.7058 L390.972,99.7058 C393.816,99.7527 394.769,99.909 395.113,100.409 C395.472,100.846 395.472,100.909 395.472,103.503 L395.472,122.659 C395.472,129.456 394.519,130.862 389.659,131.112 L389.659,133.456 L403.909,133.456 L403.909,131.112 C399.113,130.862 398.159,129.456 398.159,122.659 L398.159,100.55 L410.066,133.456 L412.066,133.456 L423.222,100.55 L423.222,127.3 C423.222,129.862 423.222,129.956 422.925,130.456 C422.519,130.956 421.566,131.112 418.722,131.112 L417.816,131.112 L417.816,133.456 L434.222,133.456 L434.222,131.112 L433.316,131.112 C430.472,131.112 429.519,130.956 429.113,130.456 C428.816,129.956 428.816,129.909 428.816,127.3 L428.816,103.503 C428.816,100.956 428.816,100.846 429.113,100.409 C429.519,99.909 430.472,99.7527 433.316,99.7058 L434.222,99.7058 L434.222,97.3465 L421.675,97.3465 L412.519,124.003 L402.909,97.3465 M458.347,117.362 C458.347,114.206 457.8,112.612 456.347,111.409 C454.706,110.05 452.253,109.409 449.05,109.409 C443.409,109.409 439.3,112.05 439.3,115.706 C439.3,117.55 440.456,118.753 442.206,118.753 C443.8,118.753 444.909,117.706 444.909,116.206 C444.909,115.55 444.659,114.862 444.159,114.159 C443.847,113.8 443.8,113.706 443.8,113.456 C443.8,112.456 445.8,111.55 448.206,111.55 C449.8,111.55 451.55,112.05 452.347,112.8 C453.3,113.612 453.659,114.8 453.659,117.05 L453.659,119.003 C448.456,119.909 446.8,120.3 444.347,121.253 C440.003,122.862 437.956,125.159 437.956,128.362 C437.956,131.956 440.753,134.206 445.206,134.206 C448.659,134.206 451.753,132.8 453.909,130.253 C454.706,132.8 455.956,133.8 458.3,133.8 C460.55,133.8 462.909,132.362 462.909,130.909 C462.909,130.55 462.706,130.3 462.409,130.3 C462.206,130.3 462.003,130.362 461.659,130.503 C460.956,130.8 460.659,130.862 460.253,130.862 C458.847,130.862 458.347,129.956 458.347,127.409 L458.347,117.362 M453.659,123.456 C453.659,126.456 453.503,127.159 452.659,128.456 C451.409,130.3 449.159,131.55 446.956,131.55 C444.659,131.55 443.003,129.909 443.003,127.659 C443.003,125.55 444.05,124.05 446.253,123.003 C447.8,122.3 449.753,121.8 453.659,121.159 L453.659,123.456 M472.441,110.159 L462.691,110.706 L462.691,112.862 L465.597,112.862 C467.503,112.909 467.753,113.206 467.753,115.362 L467.753,132.3 C467.753,136.362 467.503,138.253 466.8,139.706 C466.3,140.706 465.144,141.456 464.05,141.456 C463.347,141.456 462.8,141.159 462.8,140.8 C462.8,140.612 462.847,140.503 463.05,140.003 C463.3,139.503 463.394,139.159 463.394,138.8 C463.394,137.55 462.191,136.456 460.8,136.456 C459.191,136.456 458.003,137.706 458.003,139.456 C458.003,141.909 460.253,143.55 463.597,143.55 C466.394,143.55 468.941,142.362 470.394,140.3 C471.941,138.112 472.441,135.55 472.441,129.909 L472.441,110.159 M470.097,97.7058 C468.503,97.7058 467.191,99.0027 467.191,100.596 C467.191,102.206 468.503,103.503 470.05,103.503 C471.691,103.503 473.003,102.206 473.003,100.596 C473.003,99.0027 471.691,97.7058 470.097,97.7058"/>
<polyline class="" fill="none" stroke="#000000" stroke-width="2.98" stroke-linecap="square" stroke-linejoin="bevel" points="1475.85,699.213 2296.85,685.213"/>
<polyline class="" fill="none" stroke="#000000" stroke-width="2.98" stroke-linecap="square" stroke-linejoin="bevel" points="1475.85,671.213 2296.85,685.213"/>
<polyline class="" fill="none" stroke="#000000" stroke-width="2.98" stroke-linecap="square" stroke-linejoin="bevel" points="1100.18,685.213 1349.18,699.213"/>
<polyline class="" fill="none" stroke="#000000" stroke-width="2.98" stroke-linecap="square" stroke-linejoin="bevel" points="1100.18,685.213 1349.18,671.213"/>
<polyline class="" fill="none" stroke="#000000" stroke-width="2.98" stroke-linecap="square" stroke-linejoin="bevel" points="366.652,680.084 893.652,694.084"/>
<polyline class="" fill="none" stroke="#000000" stroke-width="2.98" stroke-linecap="square" stroke-linejoin="bevel" points="366.652,680.084 893.652,666.084"/>
<path class="" d="M2080.24,590.201 C2081.58,592.17 2084.47,595.529 2085.68,597.185 C2086.86,598.842 2086.88,600.576 2084.46,602.638 C2081.82,604.92 2079.16,606.342 2077.94,607.107 C2076.96,607.732 2070.88,610.31 2072.8,614.029 C2074.39,617.138 2078.1,614.295 2079.82,612.467 C2080.71,611.513 2081.89,609.373 2083.49,609.373 C2084.86,609.373 2085.69,611.357 2086.55,612.545 C2088.07,614.607 2089.08,615.232 2091.38,615.232 C2094.05,615.232 2095.77,612.295 2099.19,609.404 C2099.19,609.404 2101.57,615.201 2105.57,615.201 C2110.27,615.201 2115.77,609.513 2115.77,609.513 C2117.22,613.201 2121.94,616.185 2126.18,615.045 C2131.68,613.545 2134.57,607.482 2133.86,601.295 C2132.03,585.185 2114.61,579.638 2109.61,578.732 C2108.3,578.498 2106.74,578.076 2106.57,579.31 C2106.38,580.529 2108.05,581.232 2108.05,581.232 C2108.66,581.435 2109.25,581.654 2109.82,581.857 C2120.02,585.748 2123.52,591.154 2123.52,591.154 C2114.24,594.342 2114.5,603.935 2114.78,606.998 C2114.14,607.826 2111.22,610.451 2108.1,610.451 C2104.8,610.451 2103.83,606.498 2103.83,606.498 C2103.83,606.498 2105.68,604.857 2108.8,602.17 C2115.32,596.529 2111.53,589.935 2106.53,589.935 C2098.72,589.935 2096.91,601.201 2098.47,607.013 C2098.47,607.013 2097.68,608.013 2096,609.045 C2094.35,610.076 2091.8,608.638 2090.41,607.138 C2087.88,604.435 2087.05,604.717 2087.05,604.717 C2087.05,604.717 2090.05,602.435 2091.27,599.576 C2092.5,596.701 2089.82,592.451 2089.82,592.451 C2089.82,592.451 2086.22,587.467 2085.08,585.795 C2083.96,584.138 2085.35,581.592 2086.39,579.404 C2087.46,577.217 2088.74,576.092 2088.74,576.092 C2095.24,577.763 2096.6,582.795 2095.21,583.888 C2093.35,585.357 2091.13,583.232 2090.41,582.638 C2089.69,582.029 2088.72,580.982 2087.68,581.779 C2086.63,582.576 2087.16,583.779 2087.61,584.779 C2090.28,590.045 2095.22,590.967 2098.39,588.748 C2102.46,585.904 2101.88,574.951 2088.72,572.576 C2074.19,569.92 2065.5,581.388 2065.5,587.232 C2065.5,591.357 2068.46,594.888 2072.21,594.888 C2072.21,594.888 2078.3,595.092 2078.8,587.701 C2078.94,585.701 2078.07,585.279 2077.47,585.185 C2076.88,585.092 2075.88,585.467 2075.55,587.076 C2075.14,589.013 2074.08,589.732 2072.74,589.529 C2070.99,589.263 2069.93,585.857 2073.1,581.451 C2077.39,575.513 2084.78,575.638 2084.78,575.638 C2084.78,575.638 2081.64,581.279 2080.46,584.357 C2080.46,584.357 2078.64,587.873 2080.24,590.201 M2106.19,593.373 C2108.66,593.373 2109.43,596.748 2107.24,599.217 C2105.44,601.217 2102.99,603.67 2102.99,603.67 C2102.22,597.107 2103.71,593.373 2106.19,593.373 M2124.63,609.904 C2122,610.435 2119.85,607.529 2119.85,603.67 C2119.85,595.17 2125.47,594.326 2125.47,594.326 C2126.64,596.513 2127.69,599.138 2127.69,603.342 C2127.69,608.342 2126.71,609.482 2124.63,609.904 M2138.77,614.092 C2140.55,614.092 2142,612.467 2142,610.467 C2142,608.467 2140.55,606.842 2138.77,606.842 C2137,606.842 2135.55,608.467 2135.55,610.467 C2135.55,612.467 2137,614.092 2138.77,614.092"/>
<polyline class="" fill="none" stroke="#000000" stroke-width="2.73" stroke-linecap="square" stroke-linejoin="bevel" points="2154.91,610.387 2582.19,610.387"/>
<polyline class="" fill="none" stroke="#000000" stroke-width="2.73" stroke-linecap="square" stroke-linejoin="bevel" points="2582.19,610.387 2582.19,580.623"/>
<path class="" d="M1434.71,608.282 C1436.05,610.251 1438.94,613.611 1440.15,615.267 C1441.33,616.923 1441.35,618.657 1438.93,620.72 C1436.29,623.001 1433.63,624.423 1432.41,625.189 C1431.43,625.814 1425.35,628.392 1427.27,632.111 C1428.86,635.22 1432.57,632.376 1434.29,630.548 C1435.18,629.595 1436.36,627.454 1437.96,627.454 C1439.33,627.454 1440.16,629.439 1441.02,630.626 C1442.54,632.689 1443.55,633.314 1445.85,633.314 C1448.52,633.314 1450.24,630.376 1453.66,627.486 C1453.66,627.486 1456.04,633.282 1460.04,633.282 C1464.74,633.282 1470.24,627.595 1470.24,627.595 C1471.69,631.282 1476.41,634.267 1480.65,633.126 C1486.15,631.626 1489.04,625.564 1488.33,619.376 C1486.51,603.267 1469.08,597.72 1464.08,596.814 C1462.77,596.579 1461.21,596.157 1461.04,597.392 C1460.85,598.611 1462.52,599.314 1462.52,599.314 C1463.13,599.517 1463.72,599.736 1464.29,599.939 C1474.49,603.829 1477.99,609.236 1477.99,609.236 C1468.71,612.423 1468.97,622.017 1469.26,625.079 C1468.61,625.907 1465.69,628.532 1462.57,628.532 C1459.27,628.532 1458.3,624.579 1458.3,624.579 C1458.3,624.579 1460.15,622.939 1463.27,620.251 C1469.79,614.611 1466.01,608.017 1461.01,608.017 C1453.19,608.017 1451.38,619.282 1452.94,625.095 C1452.94,625.095 1452.15,626.095 1450.47,627.126 C1448.82,628.157 1446.27,626.72 1444.88,625.22 C1442.35,622.517 1441.52,622.798 1441.52,622.798 C1441.52,622.798 1444.52,620.517 1445.74,617.657 C1446.97,614.782 1444.29,610.532 1444.29,610.532 C1444.29,610.532 1440.69,605.548 1439.55,603.876 C1438.43,602.22 1439.82,599.673 1440.86,597.486 C1441.93,595.298 1443.21,594.173 1443.21,594.173 C1449.71,595.845 1451.07,600.876 1449.68,601.97 C1447.82,603.439 1445.6,601.314 1444.88,600.72 C1444.16,600.111 1443.19,599.064 1442.15,599.861 C1441.1,600.657 1441.63,601.861 1442.08,602.861 C1444.76,608.126 1449.69,609.048 1452.86,606.829 C1456.93,603.986 1456.35,593.032 1443.19,590.657 C1428.66,588.001 1419.97,599.47 1419.97,605.314 C1419.97,609.439 1422.93,612.97 1426.68,612.97 C1426.68,612.97 1432.77,613.173 1433.27,605.782 C1433.41,603.782 1432.54,603.361 1431.94,603.267 C1431.35,603.173 1430.35,603.548 1430.02,605.157 C1429.61,607.095 1428.55,607.814 1427.21,607.611 C1425.46,607.345 1424.4,603.939 1427.57,599.532 C1431.86,593.595 1439.26,593.72 1439.26,593.72 C1439.26,593.72 1436.11,599.361 1434.93,602.439 C1434.93,602.439 1433.11,605.954 1434.71,608.282 M1460.66,611.454 C1463.13,611.454 1463.9,614.829 1461.71,617.298 C1459.91,619.298 1457.46,621.751 1457.46,621.751 C1456.69,615.189 1458.18,611.454 1460.66,611.454 M1479.1,627.986 C1476.47,628.517 1474.32,625.611 1474.32,621.751 C1474.32,613.251 1479.94,612.407 1479.94,612.407 C1481.11,614.595 1482.16,617.22 1482.16,621.423 C1482.16,626.423 1481.18,627.564 1479.1,627.986 M1493.24,632.173 C1495.02,632.173 1496.47,630.548 1496.47,628.548 C1496.47,626.548 1495.02,624.923 1493.24,624.923 C1491.47,624.923 1490.02,626.548 1490.02,628.548 C1490.02,630.548 1491.47,632.173 1493.24,632.173"/>
<polyline class="" fill="none" stroke="#000000" stroke-width="2.73" stroke-linecap="square" stroke-linejoin="bevel" points="1509.38,628.468 2013.43,628.468"/>
<polyline class="" fill="none" stroke="#000000" stroke-width="2.73" stroke-linecap="square" stroke-linejoin="bevel" points="2013.43,628.468 2013.43,598.704"/>
<path class="" d="M953.434,558.686 C954.778,560.655 957.668,564.014 958.872,565.671 C960.059,567.327 960.075,569.061 957.653,571.124 C955.012,573.405 952.356,574.827 951.137,575.592 C950.153,576.217 944.075,578.796 945.997,582.514 C947.59,585.624 951.293,582.78 953.012,580.952 C953.903,579.999 955.09,577.858 956.684,577.858 C958.059,577.858 958.887,579.842 959.747,581.03 C961.262,583.092 962.278,583.717 964.575,583.717 C967.247,583.717 968.965,580.78 972.387,577.889 C972.387,577.889 974.762,583.686 978.762,583.686 C983.465,583.686 988.965,577.999 988.965,577.999 C990.418,581.686 995.137,584.671 999.372,583.53 C1004.87,582.03 1007.76,575.967 1007.06,569.78 C1005.23,553.671 987.809,548.124 982.809,547.217 C981.497,546.983 979.934,546.561 979.762,547.796 C979.575,549.014 981.247,549.717 981.247,549.717 C981.856,549.921 982.45,550.139 983.012,550.342 C993.215,554.233 996.715,559.639 996.715,559.639 C987.434,562.827 987.7,572.421 987.981,575.483 C987.34,576.311 984.418,578.936 981.293,578.936 C977.997,578.936 977.028,574.983 977.028,574.983 C977.028,574.983 978.872,573.342 981.997,570.655 C988.512,565.014 984.731,558.421 979.731,558.421 C971.918,558.421 970.106,569.686 971.668,575.499 C971.668,575.499 970.872,576.499 969.2,577.53 C967.543,578.561 964.997,577.124 963.606,575.624 C961.075,572.921 960.247,573.202 960.247,573.202 C960.247,573.202 963.247,570.921 964.465,568.061 C965.7,565.186 963.012,560.936 963.012,560.936 C963.012,560.936 959.418,555.952 958.278,554.28 C957.153,552.624 958.543,550.077 959.59,547.889 C960.653,545.702 961.934,544.577 961.934,544.577 C968.434,546.249 969.793,551.28 968.403,552.374 C966.543,553.842 964.325,551.717 963.606,551.124 C962.887,550.514 961.918,549.467 960.872,550.264 C959.825,551.061 960.356,552.264 960.809,553.264 C963.481,558.53 968.418,559.452 971.59,557.233 C975.653,554.389 975.075,543.436 961.918,541.061 C947.387,538.405 938.7,549.874 938.7,555.717 C938.7,559.842 941.653,563.374 945.403,563.374 C945.403,563.374 951.497,563.577 951.997,556.186 C952.137,554.186 951.262,553.764 950.668,553.671 C950.075,553.577 949.075,553.952 948.747,555.561 C948.34,557.499 947.278,558.217 945.934,558.014 C944.184,557.749 943.122,554.342 946.293,549.936 C950.59,543.999 957.981,544.124 957.981,544.124 C957.981,544.124 954.84,549.764 953.653,552.842 C953.653,552.842 951.84,556.358 953.434,558.686 M979.387,561.858 C981.856,561.858 982.622,565.233 980.434,567.702 C978.637,569.702 976.184,572.155 976.184,572.155 C975.418,565.592 976.903,561.858 979.387,561.858 M997.825,578.389 C995.2,578.921 993.043,576.014 993.043,572.155 C993.043,563.655 998.668,562.811 998.668,562.811 C999.84,564.999 1000.89,567.624 1000.89,571.827 C1000.89,576.827 999.903,577.967 997.825,578.389 M1011.97,582.577 C1013.75,582.577 1015.2,580.952 1015.2,578.952 C1015.2,576.952 1013.75,575.327 1011.97,575.327 C1010.2,575.327 1008.75,576.952 1008.75,578.952 C1008.75,580.952 1010.2,582.577 1011.97,582.577"/>
<polyline class="" fill="none" stroke="#000000" stroke-width="2.73" stroke-linecap="square" stroke-linejoin="bevel" points="1028.1,578.872 1352.26,578.872"/>
<polyline class="" fill="none" stroke="#000000" stroke-width="2.73" stroke-linecap="square" stroke-linejoin="bevel" points="1352.26,578.872 1352.26,549.108"/>
<path class="" d="M337.479,578.525 C338.823,580.493 341.714,583.853 342.917,585.509 C344.104,587.165 344.12,588.9 341.698,590.962 C339.058,593.243 336.401,594.665 335.183,595.431 C334.198,596.056 328.12,598.634 330.042,602.353 C331.636,605.462 335.339,602.618 337.058,600.79 C337.948,599.837 339.136,597.697 340.729,597.697 C342.104,597.697 342.933,599.681 343.792,600.868 C345.308,602.931 346.323,603.556 348.62,603.556 C351.292,603.556 353.011,600.618 356.433,597.728 C356.433,597.728 358.808,603.525 362.808,603.525 C367.511,603.525 373.011,597.837 373.011,597.837 C374.464,601.525 379.183,604.509 383.417,603.368 C388.917,601.868 391.808,595.806 391.104,589.618 C389.276,573.509 371.854,567.962 366.854,567.056 C365.542,566.822 363.979,566.4 363.808,567.634 C363.62,568.853 365.292,569.556 365.292,569.556 C365.901,569.759 366.495,569.978 367.058,570.181 C377.261,574.072 380.761,579.478 380.761,579.478 C371.479,582.665 371.745,592.259 372.026,595.322 C371.386,596.15 368.464,598.775 365.339,598.775 C362.042,598.775 361.073,594.822 361.073,594.822 C361.073,594.822 362.917,593.181 366.042,590.493 C372.558,584.853 368.776,578.259 363.776,578.259 C355.964,578.259 354.151,589.525 355.714,595.337 C355.714,595.337 354.917,596.337 353.245,597.368 C351.589,598.4 349.042,596.962 347.651,595.462 C345.12,592.759 344.292,593.04 344.292,593.04 C344.292,593.04 347.292,590.759 348.511,587.9 C349.745,585.025 347.058,580.775 347.058,580.775 C347.058,580.775 343.464,575.79 342.323,574.118 C341.198,572.462 342.589,569.915 343.636,567.728 C344.698,565.54 345.979,564.415 345.979,564.415 C352.479,566.087 353.839,571.118 352.448,572.212 C350.589,573.681 348.37,571.556 347.651,570.962 C346.933,570.353 345.964,569.306 344.917,570.103 C343.87,570.9 344.401,572.103 344.854,573.103 C347.526,578.368 352.464,579.29 355.636,577.072 C359.698,574.228 359.12,563.275 345.964,560.9 C331.433,558.243 322.745,569.712 322.745,575.556 C322.745,579.681 325.698,583.212 329.448,583.212 C329.448,583.212 335.542,583.415 336.042,576.025 C336.183,574.025 335.308,573.603 334.714,573.509 C334.12,573.415 333.12,573.79 332.792,575.4 C332.386,577.337 331.323,578.056 329.979,577.853 C328.229,577.587 327.167,574.181 330.339,569.775 C334.636,563.837 342.026,563.962 342.026,563.962 C342.026,563.962 338.886,569.603 337.698,572.681 C337.698,572.681 335.886,576.197 337.479,578.525 M363.433,581.697 C365.901,581.697 366.667,585.072 364.479,587.54 C362.683,589.54 360.229,591.993 360.229,591.993 C359.464,585.431 360.948,581.697 363.433,581.697 M381.87,598.228 C379.245,598.759 377.089,595.853 377.089,591.993 C377.089,583.493 382.714,582.65 382.714,582.65 C383.886,584.837 384.933,587.462 384.933,591.665 C384.933,596.665 383.948,597.806 381.87,598.228 M396.011,602.415 C397.792,602.415 399.245,600.79 399.245,598.79 C399.245,596.79 397.792,595.165 396.011,595.165 C394.245,595.165 392.792,596.79 392.792,598.79 C392.792,600.79 394.245,602.415 396.011,602.415"/>
<polyline class="" fill="none" stroke="#000000" stroke-width="2.73" stroke-linecap="square" stroke-linejoin="bevel" points="412.147,598.71 903.157,598.71"/>
<polyline class="" fill="none" stroke="#000000" stroke-width="2.73" stroke-linecap="square" stroke-linejoin="bevel" points="903.157,598.71 903.157,568.947"/>
</svg>
