<?xml version="1.0" encoding="UTF-8" standalone="no"?>
<svg width="2677px" height="594px" viewBox="0 0 2677 594"
 xmlns="http://www.w3.org/2000/svg" xmlns:xlink="http://www.w3.org/1999/xlink" version="1.2" baseProfile="tiny">
<title>Sin título-2</title>
<desc>Generated by MuseScore 3.6.2</desc>
<path class="" stroke="#000000" stroke-width="1.74" stroke-linecap="round" stroke-linejoin="round" fill-rule="evenodd" d="M2147.21,125.865 C2179.44,97.8943 2276.14,97.8943 2308.38,125.865 C2276.14,104.839 2179.44,104.839 2147.21,125.865"/>
<path class="" stroke="#000000" stroke-width="1.74" stroke-linecap="round" stroke-linejoin="round" fill-rule="evenodd" d="M1447.31,150.668 C1467.61,131.764 1528.52,131.764 1548.83,150.668 C1528.52,138.709 1467.61,138.709 1447.31,150.668"/>
<path class="" stroke="#000000" stroke-width="1.74" stroke-linecap="round" stroke-linejoin="round" fill-rule="evenodd" d="M971.569,163.07 C998.866,138.852 1080.76,138.852 1108.05,163.07 C1080.76,145.796 998.866,145.796 971.569,163.07"/>
<path class="" stroke="#000000" stroke-width="1.74" stroke-linecap="round" stroke-linejoin="round" fill-rule="evenodd" d="M332.606,175.471 C350.974,158.039 406.08,158.039 424.448,175.471 C406.08,164.984 350.974,164.984 332.606,175.471"/>
<polyline class="" stroke="#000000" stroke-width="4.46" stroke-linejoin="bevel" points="2613.34,242.316 2613.34,344.257"/>
<polyline class="" stroke="#000000" stroke-width="13.64" stroke-linejoin="bevel" points="2630.7,242.316 2630.7,344.257"/>
<polyline class="" stroke="#000000" stroke-width="4.46" stroke-linejoin="bevel" points="1385.68,242.316 1385.68,344.257"/>
<polyline class="" stroke="#000000" stroke-width="2.73" stroke-linejoin="bevel" points="1387.91,243.68 2637.52,243.68"/>
<polyline class="" stroke="#000000" stroke-width="2.73" stroke-linejoin="bevel" points="1387.91,268.483 2637.52,268.483"/>
<polyline class="" stroke="#000000" stroke-width="2.73" stroke-linejoin="bevel" points="1387.91,293.286 2637.52,293.286"/>
<polyline class="" stroke="#000000" stroke-width="2.73" stroke-linejoin="bevel" points="1387.91,318.09 2637.52,318.09"/>
<polyline class="" stroke="#000000" stroke-width="2.73" stroke-linejoin="bevel" points="1387.91,342.893 2637.52,342.893"/>
<polyline class="" stroke="#000000" stroke-width="2.73" stroke-linejoin="bevel" points="16.7893,243.68 1387.91,243.68"/>
<polyline class="" stroke="#000000" stroke-width="2.73" stroke-linejoin="bevel" points="16.7893,268.483 1387.91,268.483"/>
<polyline class="" stroke="#000000" stroke-width="2.73" stroke-linejoin="bevel" points="16.7893,293.286 1387.91,293.286"/>
<polyline class="" stroke="#000000" stroke-width="2.73" stroke-linejoin="bevel" points="16.7893,318.09 1387.91,318.09"/>
<polyline class="" stroke="#000000" stroke-width="2.73" stroke-linejoin="bevel" points="16.7893,342.893 1387.91,342.893"/>
<polyline class="" stroke="#000000" stroke-width="3.97" stroke-linejoin="bevel" points="2432.34,218.877 2481.94,218.877"/>
<polyline class="" stroke="#000000" stroke-width="3.97" stroke-linejoin="bevel" points="2032.53,218.877 2082.13,218.877"/>
<polyline class="" stroke="#000000" stroke-width="3.97" stroke-linejoin="bevel" points="2032.53,194.074 2082.13,194.074"/>
<polyline class="" stroke="#000000" stroke-width="3.97" stroke-linejoin="bevel" points="2117.57,218.877 2167.17,218.877"/>
<polyline class="" stroke="#000000" stroke-width="3.97" stroke-linejoin="bevel" points="2117.57,194.074 2167.17,194.074"/>
<polyline class="" stroke="#000000" stroke-width="3.97" stroke-linejoin="bevel" points="2117.57,169.271 2167.17,169.271"/>
<polyline class="" stroke="#000000" stroke-width="3.97" stroke-linejoin="bevel" points="2117.57,144.468 2167.17,144.468"/>
<polyline class="" stroke="#000000" stroke-width="3.97" stroke-linejoin="bevel" points="2288.42,218.877 2338.01,218.877"/>
<polyline class="" stroke="#000000" stroke-width="3.97" stroke-linejoin="bevel" points="2288.42,194.074 2338.01,194.074"/>
<polyline class="" stroke="#000000" stroke-width="3.97" stroke-linejoin="bevel" points="2288.42,169.271 2338.01,169.271"/>
<polyline class="" stroke="#000000" stroke-width="3.97" stroke-linejoin="bevel" points="2288.42,144.468 2338.01,144.468"/>
<polyline class="" stroke="#000000" stroke-width="3.97" stroke-linejoin="bevel" points="2373.46,218.877 2423.05,218.877"/>
<polyline class="" stroke="#000000" stroke-width="3.97" stroke-linejoin="bevel" points="2373.46,194.074 2423.05,194.074"/>
<polyline class="" stroke="#000000" stroke-width="3.97" stroke-linejoin="bevel" points="2373.46,169.271 2423.05,169.271"/>
<polyline class="" stroke="#000000" stroke-width="3.97" stroke-linejoin="bevel" points="1947.49,218.877 1997.09,218.877"/>
<polyline class="" stroke="#000000" stroke-width="3.97" stroke-linejoin="bevel" points="1417.67,218.877 1467.27,218.877"/>
<polyline class="" stroke="#000000" stroke-width="3.97" stroke-linejoin="bevel" points="1417.67,194.074 1467.27,194.074"/>
<polyline class="" stroke="#000000" stroke-width="3.97" stroke-linejoin="bevel" points="1417.67,169.271 1467.27,169.271"/>
<polyline class="" stroke="#000000" stroke-width="3.97" stroke-linejoin="bevel" points="1528.87,218.877 1578.46,218.877"/>
<polyline class="" stroke="#000000" stroke-width="3.97" stroke-linejoin="bevel" points="1528.87,194.074 1578.46,194.074"/>
<polyline class="" stroke="#000000" stroke-width="3.97" stroke-linejoin="bevel" points="1528.87,169.271 1578.46,169.271"/>
<polyline class="" stroke="#000000" stroke-width="3.97" stroke-linejoin="bevel" points="1613.91,367.696 1663.51,367.696"/>
<polyline class="" stroke="#000000" stroke-width="3.97" stroke-linejoin="bevel" points="941.934,218.877 991.533,218.877"/>
<polyline class="" stroke="#000000" stroke-width="3.97" stroke-linejoin="bevel" points="941.934,194.074 991.533,194.074"/>
<polyline class="" stroke="#000000" stroke-width="3.97" stroke-linejoin="bevel" points="1088.09,218.877 1137.69,218.877"/>
<polyline class="" stroke="#000000" stroke-width="3.97" stroke-linejoin="bevel" points="1088.09,194.074 1137.69,194.074"/>
<polyline class="" stroke="#000000" stroke-width="3.97" stroke-linejoin="bevel" points="864.297,218.877 913.896,218.877"/>
<polyline class="" stroke="#000000" stroke-width="3.97" stroke-linejoin="bevel" points="302.971,218.877 352.57,218.877"/>
<polyline class="" stroke="#000000" stroke-width="3.97" stroke-linejoin="bevel" points="302.971,194.074 352.57,194.074"/>
<polyline class="" stroke="#000000" stroke-width="3.97" stroke-linejoin="bevel" points="404.484,218.877 454.083,218.877"/>
<polyline class="" stroke="#000000" stroke-width="3.97" stroke-linejoin="bevel" points="404.484,194.074 454.083,194.074"/>
<polyline class="" stroke="#000000" stroke-width="2.73" stroke-linejoin="bevel" points="2442.39,209.809 2442.39,336.692"/>
<polyline class="" stroke="#000000" stroke-width="2.73" stroke-linejoin="bevel" points="2501.28,234.612 2501.28,336.692"/>
<polyline class="" stroke="#000000" stroke-width="2.73" stroke-linejoin="bevel" points="2042.58,185.006 2042.58,423.503"/>
<polyline class="" stroke="#000000" stroke-width="2.73" stroke-linejoin="bevel" points="2127.62,147.801 2127.62,293.286"/>
<polyline class="" stroke="#000000" stroke-width="2.73" stroke-linejoin="bevel" points="2298.46,147.801 2298.46,336.692"/>
<polyline class="" stroke="#000000" stroke-width="2.73" stroke-linejoin="bevel" points="2383.5,172.604 2383.5,336.692"/>
<polyline class="" stroke="#000000" stroke-width="2.73" stroke-linejoin="bevel" points="1623.95,371.029 1623.95,460.708"/>
<polyline class="" stroke="#000000" stroke-width="2.73" stroke-linejoin="bevel" points="1682.84,309.022 1682.84,460.708"/>
<polyline class="" stroke="#000000" stroke-width="2.73" stroke-linejoin="bevel" points="1741.73,333.825 1741.73,423.503"/>
<polyline class="" stroke="#000000" stroke-width="2.73" stroke-linejoin="bevel" points="1826.77,271.817 1826.77,423.503"/>
<polyline class="" stroke="#000000" stroke-width="2.73" stroke-linejoin="bevel" points="1870.36,309.022 1870.36,423.503"/>
<polyline class="" stroke="#000000" stroke-width="2.73" stroke-linejoin="bevel" points="1913.95,247.014 1913.95,423.503"/>
<polyline class="" stroke="#000000" stroke-width="2.73" stroke-linejoin="bevel" points="1957.53,222.21 1957.53,423.503"/>
<polyline class="" stroke="#000000" stroke-width="2.73" stroke-linejoin="bevel" points="1283.29,247.014 1283.29,460.708"/>
<polyline class="" stroke="#000000" stroke-width="2.73" stroke-linejoin="bevel" points="1427.72,172.604 1427.72,460.708"/>
<polyline class="" stroke="#000000" stroke-width="2.73" stroke-linejoin="bevel" points="1538.91,172.604 1538.91,460.708"/>
<polyline class="" stroke="#000000" stroke-width="2.73" stroke-linejoin="bevel" points="874.342,222.21 874.342,435.905"/>
<polyline class="" stroke="#000000" stroke-width="2.73" stroke-linejoin="bevel" points="951.979,185.006 951.979,293.286"/>
<polyline class="" stroke="#000000" stroke-width="2.73" stroke-linejoin="bevel" points="1098.14,185.006 1098.14,460.708"/>
<polyline class="" stroke="#000000" stroke-width="2.73" stroke-linejoin="bevel" points="1175.77,358.628 1175.77,460.708"/>
<polyline class="" stroke="#000000" stroke-width="2.73" stroke-linejoin="bevel" points="1229.53,296.62 1229.53,460.708"/>
<polyline class="" stroke="#000000" stroke-width="2.73" stroke-linejoin="bevel" points="492.166,309.022 492.166,411.101"/>
<polyline class="" stroke="#000000" stroke-width="2.73" stroke-linejoin="bevel" points="545.927,247.014 545.927,411.101"/>
<polyline class="" stroke="#000000" stroke-width="2.73" stroke-linejoin="bevel" points="599.687,284.218 599.687,435.905"/>
<polyline class="" stroke="#000000" stroke-width="2.73" stroke-linejoin="bevel" points="677.324,309.022 677.324,435.905"/>
<polyline class="" stroke="#000000" stroke-width="2.73" stroke-linejoin="bevel" points="717.118,346.226 717.118,435.905"/>
<polyline class="" stroke="#000000" stroke-width="2.73" stroke-linejoin="bevel" points="756.912,284.218 756.912,435.905"/>
<polyline class="" stroke="#000000" stroke-width="2.73" stroke-linejoin="bevel" points="796.706,259.415 796.706,435.905"/>
<polyline class="" stroke="#000000" stroke-width="2.73" stroke-linejoin="bevel" points="313.016,197.407 313.016,411.101"/>
<polyline class="" stroke="#000000" stroke-width="2.73" stroke-linejoin="bevel" points="414.529,197.407 414.529,411.101"/>
<path class="" transform="matrix(0.992126,0,0,0.992126,2441.02,206.475)" d="M31.5,-8.09375 C29.7031,-11.4063 25.9063,-13.2031 21.2969,-13.2031 C17.9063,-13.2031 14.2031,-12.2031 10.5938,-10.2969 C4,-6.79688 0,-0.90625 0,4.20313 C0,5.59375 0.296875,7 1,8.29688 C2.79688,11.5938 6.59375,13.2969 11.2031,13.2969 C14.5938,13.2969 18.2969,12.4063 21.9063,10.5 C28.5,7 32.5,1.09375 32.5,-4 C32.5,-5.40625 32.2031,-6.79688 31.5,-8.09375"/>
<path class="" transform="matrix(0.992126,0,0,0.992126,2499.91,231.279)" d="M31.5,-8.09375 C29.7031,-11.4063 25.9063,-13.2031 21.2969,-13.2031 C17.9063,-13.2031 14.2031,-12.2031 10.5938,-10.2969 C4,-6.79688 0,-0.90625 0,4.20313 C0,5.59375 0.296875,7 1,8.29688 C2.79688,11.5938 6.59375,13.2969 11.2031,13.2969 C14.5938,13.2969 18.2969,12.4063 21.9063,10.5 C28.5,7 32.5,1.09375 32.5,-4 C32.5,-5.40625 32.2031,-6.79688 31.5,-8.09375"/>
<path class="" transform="matrix(0.992126,0,0,0.992126,2041.21,181.672)" d="M31.5,-8.09375 C29.7031,-11.4063 25.9063,-13.2031 21.2969,-13.2031 C17.9063,-13.2031 14.2031,-12.2031 10.5938,-10.2969 C4,-6.79688 0,-0.90625 0,4.20313 C0,5.59375 0.296875,7 1,8.29688 C2.79688,11.5938 6.59375,13.2969 11.2031,13.2969 C14.5938,13.2969 18.2969,12.4063 21.9063,10.5 C28.5,7 32.5,1.09375 32.5,-4 C32.5,-5.40625 32.2031,-6.79688 31.5,-8.09375"/>
<path class="" transform="matrix(0.992126,0,0,0.992126,2126.25,144.468)" d="M31.5,-8.09375 C29.7031,-11.4063 25.9063,-13.2031 21.2969,-13.2031 C17.9063,-13.2031 14.2031,-12.2031 10.5938,-10.2969 C4,-6.79688 0,-0.90625 0,4.20313 C0,5.59375 0.296875,7 1,8.29688 C2.79688,11.5938 6.59375,13.2969 11.2031,13.2969 C14.5938,13.2969 18.2969,12.4063 21.9063,10.5 C28.5,7 32.5,1.09375 32.5,-4 C32.5,-5.40625 32.2031,-6.79688 31.5,-8.09375"/>
<path class="" transform="matrix(0.992126,0,0,0.992126,2297.1,144.468)" d="M31.5,-8.09375 C29.7031,-11.4063 25.9063,-13.2031 21.2969,-13.2031 C17.9063,-13.2031 14.2031,-12.2031 10.5938,-10.2969 C4,-6.79688 0,-0.90625 0,4.20313 C0,5.59375 0.296875,7 1,8.29688 C2.79688,11.5938 6.59375,13.2969 11.2031,13.2969 C14.5938,13.2969 18.2969,12.4063 21.9063,10.5 C28.5,7 32.5,1.09375 32.5,-4 C32.5,-5.40625 32.2031,-6.79688 31.5,-8.09375"/>
<path class="" transform="matrix(0.992126,0,0,0.992126,2382.14,169.271)" d="M31.5,-8.09375 C29.7031,-11.4063 25.9063,-13.2031 21.2969,-13.2031 C17.9063,-13.2031 14.2031,-12.2031 10.5938,-10.2969 C4,-6.79688 0,-0.90625 0,4.20313 C0,5.59375 0.296875,7 1,8.29688 C2.79688,11.5938 6.59375,13.2969 11.2031,13.2969 C14.5938,13.2969 18.2969,12.4063 21.9063,10.5 C28.5,7 32.5,1.09375 32.5,-4 C32.5,-5.40625 32.2031,-6.79688 31.5,-8.09375"/>
<path class="" transform="matrix(0.992126,0,0,0.992126,1681.48,305.688)" d="M31.5,-8.09375 C29.7031,-11.4063 25.9063,-13.2031 21.2969,-13.2031 C17.9063,-13.2031 14.2031,-12.2031 10.5938,-10.2969 C4,-6.79688 0,-0.90625 0,4.20313 C0,5.59375 0.296875,7 1,8.29688 C2.79688,11.5938 6.59375,13.2969 11.2031,13.2969 C14.5938,13.2969 18.2969,12.4063 21.9063,10.5 C28.5,7 32.5,1.09375 32.5,-4 C32.5,-5.40625 32.2031,-6.79688 31.5,-8.09375"/>
<path class="" transform="matrix(0.992126,0,0,0.992126,1740.36,330.491)" d="M31.5,-8.09375 C29.7031,-11.4063 25.9063,-13.2031 21.2969,-13.2031 C17.9063,-13.2031 14.2031,-12.2031 10.5938,-10.2969 C4,-6.79688 0,-0.90625 0,4.20313 C0,5.59375 0.296875,7 1,8.29688 C2.79688,11.5938 6.59375,13.2969 11.2031,13.2969 C14.5938,13.2969 18.2969,12.4063 21.9063,10.5 C28.5,7 32.5,1.09375 32.5,-4 C32.5,-5.40625 32.2031,-6.79688 31.5,-8.09375"/>
<path class="" transform="matrix(0.992126,0,0,0.992126,1825.4,268.483)" d="M31.5,-8.09375 C29.7031,-11.4063 25.9063,-13.2031 21.2969,-13.2031 C17.9063,-13.2031 14.2031,-12.2031 10.5938,-10.2969 C4,-6.79688 0,-0.90625 0,4.20313 C0,5.59375 0.296875,7 1,8.29688 C2.79688,11.5938 6.59375,13.2969 11.2031,13.2969 C14.5938,13.2969 18.2969,12.4063 21.9063,10.5 C28.5,7 32.5,1.09375 32.5,-4 C32.5,-5.40625 32.2031,-6.79688 31.5,-8.09375"/>
<path class="" transform="matrix(0.992126,0,0,0.992126,1868.99,305.688)" d="M31.5,-8.09375 C29.7031,-11.4063 25.9063,-13.2031 21.2969,-13.2031 C17.9063,-13.2031 14.2031,-12.2031 10.5938,-10.2969 C4,-6.79688 0,-0.90625 0,4.20313 C0,5.59375 0.296875,7 1,8.29688 C2.79688,11.5938 6.59375,13.2969 11.2031,13.2969 C14.5938,13.2969 18.2969,12.4063 21.9063,10.5 C28.5,7 32.5,1.09375 32.5,-4 C32.5,-5.40625 32.2031,-6.79688 31.5,-8.09375"/>
<path class="" transform="matrix(0.992126,0,0,0.992126,1912.58,243.68)" d="M31.5,-8.09375 C29.7031,-11.4063 25.9063,-13.2031 21.2969,-13.2031 C17.9063,-13.2031 14.2031,-12.2031 10.5938,-10.2969 C4,-6.79688 0,-0.90625 0,4.20313 C0,5.59375 0.296875,7 1,8.29688 C2.79688,11.5938 6.59375,13.2969 11.2031,13.2969 C14.5938,13.2969 18.2969,12.4063 21.9063,10.5 C28.5,7 32.5,1.09375 32.5,-4 C32.5,-5.40625 32.2031,-6.79688 31.5,-8.09375"/>
<path class="" transform="matrix(0.992126,0,0,0.992126,1956.17,218.877)" d="M31.5,-8.09375 C29.7031,-11.4063 25.9063,-13.2031 21.2969,-13.2031 C17.9063,-13.2031 14.2031,-12.2031 10.5938,-10.2969 C4,-6.79688 0,-0.90625 0,4.20313 C0,5.59375 0.296875,7 1,8.29688 C2.79688,11.5938 6.59375,13.2969 11.2031,13.2969 C14.5938,13.2969 18.2969,12.4063 21.9063,10.5 C28.5,7 32.5,1.09375 32.5,-4 C32.5,-5.40625 32.2031,-6.79688 31.5,-8.09375"/>
<path class="" transform="matrix(0.992126,0,0,0.992126,1281.93,243.68)" d="M31.5,-8.09375 C29.7031,-11.4063 25.9063,-13.2031 21.2969,-13.2031 C17.9063,-13.2031 14.2031,-12.2031 10.5938,-10.2969 C4,-6.79688 0,-0.90625 0,4.20313 C0,5.59375 0.296875,7 1,8.29688 C2.79688,11.5938 6.59375,13.2969 11.2031,13.2969 C14.5938,13.2969 18.2969,12.4063 21.9063,10.5 C28.5,7 32.5,1.09375 32.5,-4 C32.5,-5.40625 32.2031,-6.79688 31.5,-8.09375"/>
<path class="" transform="matrix(0.992126,0,0,0.992126,1426.35,169.271)" d="M31.5,-8.09375 C29.7031,-11.4063 25.9063,-13.2031 21.2969,-13.2031 C17.9063,-13.2031 14.2031,-12.2031 10.5938,-10.2969 C4,-6.79688 0,-0.90625 0,4.20313 C0,5.59375 0.296875,7 1,8.29688 C2.79688,11.5938 6.59375,13.2969 11.2031,13.2969 C14.5938,13.2969 18.2969,12.4063 21.9063,10.5 C28.5,7 32.5,1.09375 32.5,-4 C32.5,-5.40625 32.2031,-6.79688 31.5,-8.09375"/>
<path class="" transform="matrix(0.992126,0,0,0.992126,1537.55,169.271)" d="M31.5,-8.09375 C29.7031,-11.4063 25.9063,-13.2031 21.2969,-13.2031 C17.9063,-13.2031 14.2031,-12.2031 10.5938,-10.2969 C4,-6.79688 0,-0.90625 0,4.20313 C0,5.59375 0.296875,7 1,8.29688 C2.79688,11.5938 6.59375,13.2969 11.2031,13.2969 C14.5938,13.2969 18.2969,12.4063 21.9063,10.5 C28.5,7 32.5,1.09375 32.5,-4 C32.5,-5.40625 32.2031,-6.79688 31.5,-8.09375"/>
<path class="" transform="matrix(0.992126,0,0,0.992126,1622.59,367.696)" d="M31.5,-8.09375 C29.7031,-11.4063 25.9063,-13.2031 21.2969,-13.2031 C17.9063,-13.2031 14.2031,-12.2031 10.5938,-10.2969 C4,-6.79688 0,-0.90625 0,4.20313 C0,5.59375 0.296875,7 1,8.29688 C2.79688,11.5938 6.59375,13.2969 11.2031,13.2969 C14.5938,13.2969 18.2969,12.4063 21.9063,10.5 C28.5,7 32.5,1.09375 32.5,-4 C32.5,-5.40625 32.2031,-6.79688 31.5,-8.09375"/>
<path class="" transform="matrix(0.992126,0,0,0.992126,872.978,218.877)" d="M31.5,-8.09375 C29.7031,-11.4063 25.9063,-13.2031 21.2969,-13.2031 C17.9063,-13.2031 14.2031,-12.2031 10.5938,-10.2969 C4,-6.79688 0,-0.90625 0,4.20313 C0,5.59375 0.296875,7 1,8.29688 C2.79688,11.5938 6.59375,13.2969 11.2031,13.2969 C14.5938,13.2969 18.2969,12.4063 21.9063,10.5 C28.5,7 32.5,1.09375 32.5,-4 C32.5,-5.40625 32.2031,-6.79688 31.5,-8.09375"/>
<path class="" transform="matrix(0.992126,0,0,0.992126,950.615,181.672)" d="M31.5,-8.09375 C29.7031,-11.4063 25.9063,-13.2031 21.2969,-13.2031 C17.9063,-13.2031 14.2031,-12.2031 10.5938,-10.2969 C4,-6.79688 0,-0.90625 0,4.20313 C0,5.59375 0.296875,7 1,8.29688 C2.79688,11.5938 6.59375,13.2969 11.2031,13.2969 C14.5938,13.2969 18.2969,12.4063 21.9063,10.5 C28.5,7 32.5,1.09375 32.5,-4 C32.5,-5.40625 32.2031,-6.79688 31.5,-8.09375"/>
<path class="" transform="matrix(0.992126,0,0,0.992126,1096.77,181.672)" d="M31.5,-8.09375 C29.7031,-11.4063 25.9063,-13.2031 21.2969,-13.2031 C17.9063,-13.2031 14.2031,-12.2031 10.5938,-10.2969 C4,-6.79688 0,-0.90625 0,4.20313 C0,5.59375 0.296875,7 1,8.29688 C2.79688,11.5938 6.59375,13.2969 11.2031,13.2969 C14.5938,13.2969 18.2969,12.4063 21.9063,10.5 C28.5,7 32.5,1.09375 32.5,-4 C32.5,-5.40625 32.2031,-6.79688 31.5,-8.09375"/>
<path class="" transform="matrix(0.992126,0,0,0.992126,1174.41,355.294)" d="M31.5,-8.09375 C29.7031,-11.4063 25.9063,-13.2031 21.2969,-13.2031 C17.9063,-13.2031 14.2031,-12.2031 10.5938,-10.2969 C4,-6.79688 0,-0.90625 0,4.20313 C0,5.59375 0.296875,7 1,8.29688 C2.79688,11.5938 6.59375,13.2969 11.2031,13.2969 C14.5938,13.2969 18.2969,12.4063 21.9063,10.5 C28.5,7 32.5,1.09375 32.5,-4 C32.5,-5.40625 32.2031,-6.79688 31.5,-8.09375"/>
<path class="" transform="matrix(0.992126,0,0,0.992126,1228.17,293.286)" d="M31.5,-8.09375 C29.7031,-11.4063 25.9063,-13.2031 21.2969,-13.2031 C17.9063,-13.2031 14.2031,-12.2031 10.5938,-10.2969 C4,-6.79688 0,-0.90625 0,4.20313 C0,5.59375 0.296875,7 1,8.29688 C2.79688,11.5938 6.59375,13.2969 11.2031,13.2969 C14.5938,13.2969 18.2969,12.4063 21.9063,10.5 C28.5,7 32.5,1.09375 32.5,-4 C32.5,-5.40625 32.2031,-6.79688 31.5,-8.09375"/>
<path class="" transform="matrix(0.992126,0,0,0.992126,490.802,305.688)" d="M31.5,-8.09375 C29.7031,-11.4063 25.9063,-13.2031 21.2969,-13.2031 C17.9063,-13.2031 14.2031,-12.2031 10.5938,-10.2969 C4,-6.79688 0,-0.90625 0,4.20313 C0,5.59375 0.296875,7 1,8.29688 C2.79688,11.5938 6.59375,13.2969 11.2031,13.2969 C14.5938,13.2969 18.2969,12.4063 21.9063,10.5 C28.5,7 32.5,1.09375 32.5,-4 C32.5,-5.40625 32.2031,-6.79688 31.5,-8.09375"/>
<path class="" transform="matrix(0.992126,0,0,0.992126,544.563,243.68)" d="M31.5,-8.09375 C29.7031,-11.4063 25.9063,-13.2031 21.2969,-13.2031 C17.9063,-13.2031 14.2031,-12.2031 10.5938,-10.2969 C4,-6.79688 0,-0.90625 0,4.20313 C0,5.59375 0.296875,7 1,8.29688 C2.79688,11.5938 6.59375,13.2969 11.2031,13.2969 C14.5938,13.2969 18.2969,12.4063 21.9063,10.5 C28.5,7 32.5,1.09375 32.5,-4 C32.5,-5.40625 32.2031,-6.79688 31.5,-8.09375"/>
<path class="" transform="matrix(0.992126,0,0,0.992126,598.323,280.885)" d="M31.5,-8.09375 C29.7031,-11.4063 25.9063,-13.2031 21.2969,-13.2031 C17.9063,-13.2031 14.2031,-12.2031 10.5938,-10.2969 C4,-6.79688 0,-0.90625 0,4.20313 C0,5.59375 0.296875,7 1,8.29688 C2.79688,11.5938 6.59375,13.2969 11.2031,13.2969 C14.5938,13.2969 18.2969,12.4063 21.9063,10.5 C28.5,7 32.5,1.09375 32.5,-4 C32.5,-5.40625 32.2031,-6.79688 31.5,-8.09375"/>
<path class="" transform="matrix(0.992126,0,0,0.992126,675.96,305.688)" d="M31.5,-8.09375 C29.7031,-11.4063 25.9063,-13.2031 21.2969,-13.2031 C17.9063,-13.2031 14.2031,-12.2031 10.5938,-10.2969 C4,-6.79688 0,-0.90625 0,4.20313 C0,5.59375 0.296875,7 1,8.29688 C2.79688,11.5938 6.59375,13.2969 11.2031,13.2969 C14.5938,13.2969 18.2969,12.4063 21.9063,10.5 C28.5,7 32.5,1.09375 32.5,-4 C32.5,-5.40625 32.2031,-6.79688 31.5,-8.09375"/>
<path class="" transform="matrix(0.992126,0,0,0.992126,715.754,342.893)" d="M31.5,-8.09375 C29.7031,-11.4063 25.9063,-13.2031 21.2969,-13.2031 C17.9063,-13.2031 14.2031,-12.2031 10.5938,-10.2969 C4,-6.79688 0,-0.90625 0,4.20313 C0,5.59375 0.296875,7 1,8.29688 C2.79688,11.5938 6.59375,13.2969 11.2031,13.2969 C14.5938,13.2969 18.2969,12.4063 21.9063,10.5 C28.5,7 32.5,1.09375 32.5,-4 C32.5,-5.40625 32.2031,-6.79688 31.5,-8.09375"/>
<path class="" transform="matrix(0.992126,0,0,0.992126,755.548,280.885)" d="M31.5,-8.09375 C29.7031,-11.4063 25.9063,-13.2031 21.2969,-13.2031 C17.9063,-13.2031 14.2031,-12.2031 10.5938,-10.2969 C4,-6.79688 0,-0.90625 0,4.20313 C0,5.59375 0.296875,7 1,8.29688 C2.79688,11.5938 6.59375,13.2969 11.2031,13.2969 C14.5938,13.2969 18.2969,12.4063 21.9063,10.5 C28.5,7 32.5,1.09375 32.5,-4 C32.5,-5.40625 32.2031,-6.79688 31.5,-8.09375"/>
<path class="" transform="matrix(0.992126,0,0,0.992126,795.341,256.082)" d="M31.5,-8.09375 C29.7031,-11.4063 25.9063,-13.2031 21.2969,-13.2031 C17.9063,-13.2031 14.2031,-12.2031 10.5938,-10.2969 C4,-6.79688 0,-0.90625 0,4.20313 C0,5.59375 0.296875,7 1,8.29688 C2.79688,11.5938 6.59375,13.2969 11.2031,13.2969 C14.5938,13.2969 18.2969,12.4063 21.9063,10.5 C28.5,7 32.5,1.09375 32.5,-4 C32.5,-5.40625 32.2031,-6.79688 31.5,-8.09375"/>
<path class="" transform="matrix(0.992126,0,0,0.992126,311.652,194.074)" d="M31.5,-8.09375 C29.7031,-11.4063 25.9063,-13.2031 21.2969,-13.2031 C17.9063,-13.2031 14.2031,-12.2031 10.5938,-10.2969 C4,-6.79688 0,-0.90625 0,4.20313 C0,5.59375 0.296875,7 1,8.29688 C2.79688,11.5938 6.59375,13.2969 11.2031,13.2969 C14.5938,13.2969 18.2969,12.4063 21.9063,10.5 C28.5,7 32.5,1.09375 32.5,-4 C32.5,-5.40625 32.2031,-6.79688 31.5,-8.09375"/>
<path class="" transform="matrix(0.992126,0,0,0.992126,413.165,194.074)" d="M31.5,-8.09375 C29.7031,-11.4063 25.9063,-13.2031 21.2969,-13.2031 C17.9063,-13.2031 14.2031,-12.2031 10.5938,-10.2969 C4,-6.79688 0,-0.90625 0,4.20313 C0,5.59375 0.296875,7 1,8.29688 C2.79688,11.5938 6.59375,13.2969 11.2031,13.2969 C14.5938,13.2969 18.2969,12.4063 21.9063,10.5 C28.5,7 32.5,1.09375 32.5,-4 C32.5,-5.40625 32.2031,-6.79688 31.5,-8.09375"/>
<path class="" transform="matrix(0.992126,0,0,0.992126,32.6633,318.09)" d="M63.3594,-5.92188 C62.125,-11.3438 59.4844,-15.1719 58.7031,-16.2031 C55.5156,-20.4844 51.5,-23.3281 46.8125,-24.6875 C43.7031,-25.5625 40.7031,-25.6875 38.2813,-25.5 C37.2344,-31.5156 36.2344,-37.3906 35.3281,-42.8438 C40.7813,-49.0156 44.4063,-54.8125 46.6875,-59.1094 C50.1563,-65.6875 51.2969,-70.2656 51.3594,-70.4688 C53.0781,-75.6875 53.4375,-83.3906 52.3281,-91.5938 C51.3281,-99.1406 49.2344,-105.859 46.875,-109.109 C45.8594,-110.531 44.7969,-111.266 43.7656,-111.266 C42.5469,-111.266 40.0313,-110.031 37.1406,-107.25 C34.8438,-105.063 31.5781,-101.172 29.0156,-95.1563 C26.0156,-88.0938 25.7969,-78.6094 26.1563,-71.8906 C26.5313,-64.6094 27.6406,-58.9219 27.6563,-58.875 C27.6719,-58.7813 27.9375,-57.2813 28.375,-54.7188 C28.1563,-54.4844 27.9063,-54.2656 27.6563,-54.0156 C26.625,-53.0156 25.4375,-51.8906 24.0469,-50.5 C23.1875,-49.6406 22.2344,-48.7344 21.2344,-47.7656 C12.7969,-39.625 0,-27.2969 0,-8.14063 C0,-3.4375 0.90625,0.984375 2.6875,5 C4.26563,8.59375 6.5625,11.875 9.5,14.75 C17.2344,22.3125 27.8281,25.5156 34.875,25.3594 C37.8281,25.2813 40.4688,25.0469 42.8594,24.5938 C44.6875,34.2031 45.8281,41.2344 45.8594,46.5781 C45.9063,53.0938 44.25,57.0781 40.3594,59.8438 C37.9219,61.5781 35.1094,62.5313 32.0156,62.6719 C29.4219,62.7969 27.1563,62.3281 25.7344,61.9219 L25.7188,61.9219 C25.7188,61.9219 25.4375,61.8281 25.4219,61.6406 C25.4063,61.4531 25.7656,61.4063 25.7656,61.4063 L25.7969,61.4063 C27.7188,60.9688 31.2813,59.7344 33.6406,56.4375 C35.4375,53.9063 36.3125,49.2813 34.4688,45.3438 C33.3594,42.9531 30.8594,40 25.2344,39.5469 C22.7344,39.3438 20.4688,39.8594 18.4688,41.0625 C16.6563,42.1406 15.1563,43.7813 14.1094,45.7813 C11.6563,50.4844 12.1094,56.2188 15.2344,60.0625 C18.2031,63.6875 22.8125,66 28.25,66.5781 C29.1094,66.6719 29.9531,66.7031 30.7969,66.7031 C35.2344,66.7031 39.625,65.5 43.2031,63.2969 C46.8594,60.7188 48.9844,56.7344 49.6563,51.1094 C50.2188,46.4688 49.8281,40.5469 48.4375,32.4688 C48.0781,30.375 47.5313,27.3438 46.875,23.5938 C52.625,21.6719 56.7813,18.0938 60.5469,12.2344 C63.8438,6.5 64.7813,0.390625 63.3594,-5.92188 M29.1406,20.2969 C24.5,19.0781 20.0625,16.5781 16.3125,13.0625 C15,11.8438 13.125,9.67188 11.6563,6.28125 C10.2969,3.10938 9.625,-0.328125 9.6875,-3.90625 C9.75,-8.60938 11.0625,-13.4375 13.5625,-18.2188 C16.4844,-23.7969 21.0469,-29.3281 27.1094,-34.6563 C28.5625,-35.9375 29.9375,-37.2188 31.2188,-38.5 C31.9844,-34.2344 32.8125,-29.5469 33.6875,-24.6719 C29.8438,-23.4063 25.0938,-20.25 21.9844,-14.5938 C18.4375,-8.03125 18.5781,-2.5 19.3125,0.984375 C20.25,5.4375 22.7813,9.20313 26.2344,11.2969 C27.1719,11.8594 31.2969,13.9844 33.1406,13.4063 C33.5156,13.2969 33.7813,13.0625 33.9219,12.7344 C34.4375,11.5625 33.4063,10.9219 31.8594,9.96875 C31.25,9.59375 30.5781,9.17188 29.8594,8.64063 C26.5313,6.15625 25.0781,1.70313 26.1563,-2.6875 C26.7344,-5.07813 28.0156,-7.25 29.8594,-8.95313 C31.5156,-10.5 33.5625,-11.5938 35.9375,-12.2344 C37.9844,-0.984375 40.0469,10.1719 41.6875,18.5313 C41.8125,19.2188 41.9531,19.8906 42.0781,20.5625 C37.7031,21.5 33.3594,21.4063 29.1406,20.2969 M40.4688,-12.9063 C50.8125,-13.375 55.0781,-5.9375 55.9688,-1.10938 C56.4375,1.4375 56.4375,5.875 54.8906,10.0938 C53.7188,13.2656 51.2656,17.3438 46.125,19.4063 C46.0625,18.9844 45.9844,18.5469 45.9063,18.125 C44.3594,9.34375 42.4219,-1.65625 40.4688,-12.9063 M33.1406,-83.8594 C34.9219,-89.5938 37.6563,-92.8438 39.6563,-94.5781 C41.4063,-96.0938 43.0469,-96.8125 43.9688,-96.8125 C44.1094,-96.8125 44.2344,-96.7813 44.3281,-96.75 C44.7969,-96.6094 45.3281,-96.0469 45.7969,-95.1719 C48.1094,-90.8906 47.3594,-84.1719 46.0156,-79.7344 C44.3906,-74.3281 41.4688,-68.7188 32.6719,-59.1094 C32.5,-60.2188 32.3438,-61.2656 32.1875,-62.25 C30.9375,-70.5313 31.2656,-77.8125 33.1406,-83.8594"/>
<path class="" transform="matrix(0.992126,0,0,0.992126,170.553,231.279)" d="M23.2969,-10.5938 C23.9063,-10.7031 24.4063,-11.4063 24.4063,-12 L24.4063,-17.9063 C24.4063,-18.7031 23.7969,-19.2969 23,-19.2969 L22.7969,-19.2969 L19.5,-18.5938 L19.5,-33.5 L16.7031,-33.5 L16.7031,-18 L7.79688,-16.2031 L7.79688,-30.2969 L5,-30.2969 L5,-15.5938 L1.09375,-14.7969 C0.5,-14.7031 0,-14 0,-13.4063 L0,-13.2031 L0,-7.40625 L0,-7.59375 C0,-6.79688 0.59375,-6.20313 1.40625,-6.20313 L1.70313,-6.20313 L5,-6.90625 L5,9.59375 L1.09375,10.4063 C0.5,10.5 0,11.2031 0,11.7969 L0,17.5938 C0,18.4063 0.59375,19 1.40625,19 L1.70313,19 L5,18.2969 L5,33.2031 L7.79688,33.2031 L7.79688,17.7031 L16.7031,15.9063 L16.7031,30 L19.5,30 L19.5,15.2969 L23.2969,14.5938 C23.9063,14.5 24.4063,13.7969 24.4063,13.2031 L24.4063,7.29688 C24.4063,6.5 23.7969,5.90625 23,5.90625 L22.7969,5.90625 L19.5,6.59375 L19.5,-9.90625 L23.2969,-10.5938 M7.79688,9.09375 L7.79688,-7.5 L16.7031,-9.29688 L16.7031,7.20313 L7.79688,9.09375 "/>
<path class="" transform="matrix(0.992126,0,0,0.992126,145.75,280.885)" d="M23.2969,-10.5938 C23.9063,-10.7031 24.4063,-11.4063 24.4063,-12 L24.4063,-17.9063 C24.4063,-18.7031 23.7969,-19.2969 23,-19.2969 L22.7969,-19.2969 L19.5,-18.5938 L19.5,-33.5 L16.7031,-33.5 L16.7031,-18 L7.79688,-16.2031 L7.79688,-30.2969 L5,-30.2969 L5,-15.5938 L1.09375,-14.7969 C0.5,-14.7031 0,-14 0,-13.4063 L0,-13.2031 L0,-7.40625 L0,-7.59375 C0,-6.79688 0.59375,-6.20313 1.40625,-6.20313 L1.70313,-6.20313 L5,-6.90625 L5,9.59375 L1.09375,10.4063 C0.5,10.5 0,11.2031 0,11.7969 L0,17.5938 C0,18.4063 0.59375,19 1.40625,19 L1.70313,19 L5,18.2969 L5,33.2031 L7.79688,33.2031 L7.79688,17.7031 L16.7031,15.9063 L16.7031,30 L19.5,30 L19.5,15.2969 L23.2969,14.5938 C23.9063,14.5 24.4063,13.7969 24.4063,13.2031 L24.4063,7.29688 C24.4063,6.5 23.7969,5.90625 23,5.90625 L22.7969,5.90625 L19.5,6.59375 L19.5,-9.90625 L23.2969,-10.5938 M7.79688,9.09375 L7.79688,-7.5 L16.7031,-9.29688 L16.7031,7.20313 L7.79688,9.09375 "/>
<path class="" transform="matrix(0.992126,0,0,0.992126,120.947,243.68)" d="M23.2969,-10.5938 C23.9063,-10.7031 24.4063,-11.4063 24.4063,-12 L24.4063,-17.9063 C24.4063,-18.7031 23.7969,-19.2969 23,-19.2969 L22.7969,-19.2969 L19.5,-18.5938 L19.5,-33.5 L16.7031,-33.5 L16.7031,-18 L7.79688,-16.2031 L7.79688,-30.2969 L5,-30.2969 L5,-15.5938 L1.09375,-14.7969 C0.5,-14.7031 0,-14 0,-13.4063 L0,-13.2031 L0,-7.40625 L0,-7.59375 C0,-6.79688 0.59375,-6.20313 1.40625,-6.20313 L1.70313,-6.20313 L5,-6.90625 L5,9.59375 L1.09375,10.4063 C0.5,10.5 0,11.2031 0,11.7969 L0,17.5938 C0,18.4063 0.59375,19 1.40625,19 L1.70313,19 L5,18.2969 L5,33.2031 L7.79688,33.2031 L7.79688,17.7031 L16.7031,15.9063 L16.7031,30 L19.5,30 L19.5,15.2969 L23.2969,14.5938 C23.9063,14.5 24.4063,13.7969 24.4063,13.2031 L24.4063,7.29688 C24.4063,6.5 23.7969,5.90625 23,5.90625 L22.7969,5.90625 L19.5,6.59375 L19.5,-9.90625 L23.2969,-10.5938 M7.79688,9.09375 L7.79688,-7.5 L16.7031,-9.29688 L16.7031,7.20313 L7.79688,9.09375 "/>
<path class="" transform="matrix(0.992126,0,0,0.992126,218.199,268.615)" d="M3.59375,12.625 L20.7656,12.625 L20.7656,20.0781 L12.5469,20.0781 C11.7656,20.0781 11.125,20.7031 11.125,21.4844 L11.125,23.3906 C11.125,24.1719 11.7656,24.7969 12.5469,24.7969 L42.7969,24.7969 C43.5781,24.7969 44.2031,24.1719 44.2031,23.3906 L44.2031,21.4844 C44.2031,20.7031 43.5781,20.0781 42.7969,20.0781 L33.8594,20.0781 L33.8594,12.625 L42.7969,12.625 C43.5781,12.625 44.2031,12 44.2031,11.2188 L44.2031,9.3125 C44.2031,8.53125 43.5781,7.90625 42.7969,7.90625 L33.8594,7.90625 L33.8594,-8.0625 C33.8594,-8.59375 33.5469,-9.07813 33.0781,-9.3125 L31.8594,-9.92188 C31.3281,-10.1719 30.7031,-10.0781 30.2656,-9.6875 L21.2188,-1.375 C20.9375,-1.09375 20.7656,-0.734375 20.7656,-0.328125 L20.7656,7.90625 L9.25,7.90625 C9.25,7.90625 20.375,-4.125 32.2188,-19.8906 C33.0781,-21.0469 32.5781,-22.0938 32.3906,-22.2813 L30.2188,-24.4844 C29.9531,-24.75 29.5938,-24.9063 29.2188,-24.9063 C28.625,-24.9063 15.0625,-24.875 14.3438,-24.9063 C13.625,-24.9219 13.0938,-24.2969 13.0156,-23.6875 C13.0156,-23.6875 12.4844,-16.3281 9.875,-8.1875 C7.28125,-0.078125 4.34375,4.90625 1.6875,8.53125 C1.6875,8.53125 1.14063,9.51563 1.5,10.2656 C1.84375,11.0156 2.48438,12.0938 2.48438,12.0938 C2.48438,12.0938 2.73438,12.625 3.59375,12.625"/>
<path class="" transform="matrix(0.992126,0,0,0.992126,218.199,317.958)" d="M3.59375,12.625 L20.7656,12.625 L20.7656,20.0781 L12.5469,20.0781 C11.7656,20.0781 11.125,20.7031 11.125,21.4844 L11.125,23.3906 C11.125,24.1719 11.7656,24.7969 12.5469,24.7969 L42.7969,24.7969 C43.5781,24.7969 44.2031,24.1719 44.2031,23.3906 L44.2031,21.4844 C44.2031,20.7031 43.5781,20.0781 42.7969,20.0781 L33.8594,20.0781 L33.8594,12.625 L42.7969,12.625 C43.5781,12.625 44.2031,12 44.2031,11.2188 L44.2031,9.3125 C44.2031,8.53125 43.5781,7.90625 42.7969,7.90625 L33.8594,7.90625 L33.8594,-8.0625 C33.8594,-8.59375 33.5469,-9.07813 33.0781,-9.3125 L31.8594,-9.92188 C31.3281,-10.1719 30.7031,-10.0781 30.2656,-9.6875 L21.2188,-1.375 C20.9375,-1.09375 20.7656,-0.734375 20.7656,-0.328125 L20.7656,7.90625 L9.25,7.90625 C9.25,7.90625 20.375,-4.125 32.2188,-19.8906 C33.0781,-21.0469 32.5781,-22.0938 32.3906,-22.2813 L30.2188,-24.4844 C29.9531,-24.75 29.5938,-24.9063 29.2188,-24.9063 C28.625,-24.9063 15.0625,-24.875 14.3438,-24.9063 C13.625,-24.9219 13.0938,-24.2969 13.0156,-23.6875 C13.0156,-23.6875 12.4844,-16.3281 9.875,-8.1875 C7.28125,-0.078125 4.34375,4.90625 1.6875,8.53125 C1.6875,8.53125 1.14063,9.51563 1.5,10.2656 C1.84375,11.0156 2.48438,12.0938 2.48438,12.0938 C2.48438,12.0938 2.73438,12.625 3.59375,12.625"/>
<path class="" d="M2283.2,572.432 L2306.69,572.432 L2306.69,570.292 L2298.76,570.292 L2304.87,553.511 L2305.14,554.229 C2305.14,554.229 2306.25,556.651 2309.76,557.526 C2310.42,557.698 2311.08,557.745 2311.75,557.745 C2317.47,557.745 2323.34,551.807 2325.48,543.401 C2326.09,541.089 2326.31,539.167 2326.31,537.511 C2326.31,530.526 2321.97,528.714 2320.37,528.323 C2319.94,528.214 2319.44,528.167 2319,528.167 C2315.76,528.167 2312.45,530.854 2310.7,532.62 L2310.42,532.948 L2310.26,532.557 C2310.26,532.511 2308.06,528.651 2304.37,528.104 C2303.98,528.057 2303.61,527.995 2303.22,527.995 C2299.75,527.995 2296.12,530.417 2293.16,538.995 L2295.03,539.932 C2295.47,538.557 2296.62,535.261 2297.83,533.604 C2298.44,532.667 2299.59,531.792 2300.58,531.636 C2301.08,531.511 2301.45,531.636 2301.8,531.854 C2302.17,532.12 2302.34,532.667 2302.34,533.448 C2302.34,535.979 2300.53,540.479 2300.03,541.526 L2289.64,570.292 L2283.2,570.292 L2283.2,572.432 M2309.55,554.182 C2309.33,554.182 2309,554.12 2308.78,554.057 C2307.23,553.464 2306.8,551.651 2306.8,549.604 C2306.8,546.37 2308,542.573 2308.06,542.292 C2309.05,538.339 2311.97,533.932 2314.72,532.401 C2315.42,531.964 2316.14,531.792 2316.75,531.792 C2317.01,531.792 2317.3,531.792 2317.58,531.901 C2318.01,532.011 2318.34,532.401 2318.56,532.839 C2318.89,533.448 2319,534.261 2319,535.198 C2319,538.011 2317.91,541.807 2317.3,543.667 C2315.98,547.745 2313.39,552.636 2310.75,553.901 C2310.42,554.057 2309.87,554.182 2309.55,554.182"/>
<path class="" d="M1415.01,562.198 C1412.19,562.198 1409.55,564.839 1409.55,567.651 C1409.55,573.151 1413.3,576.167 1418.08,576.167 C1421.44,576.167 1423.85,575.073 1426.49,572.432 C1431.07,567.87 1436.07,552.245 1438.65,543.339 C1439.58,540.042 1440.57,536.682 1441.29,534.261 L1441.35,534.042 L1448.88,534.042 C1449.49,534.042 1449.97,533.604 1449.97,533.011 L1449.97,530.745 C1449.97,530.136 1449.49,529.651 1448.88,529.651 L1442.61,529.651 L1442.72,529.261 C1445.63,518.479 1446.52,516.667 1448.05,515.464 C1448.88,514.807 1449.65,514.636 1450.15,514.636 C1450.36,514.636 1450.52,514.636 1450.63,514.698 C1451.13,514.807 1451.52,515.182 1451.68,515.573 C1451.74,515.792 1451.79,515.948 1451.79,516.182 C1451.79,516.667 1451.57,517.167 1451.19,517.386 C1450.15,518.214 1449.6,519.479 1449.6,520.854 C1449.6,521.339 1449.65,521.901 1449.82,522.448 C1450.08,523.432 1450.91,524.307 1452.01,524.807 C1452.46,525.026 1453.05,525.198 1453.83,525.198 C1454.6,525.198 1455.43,525.026 1456.41,524.479 C1457.68,523.823 1458.51,522.776 1458.88,521.448 C1459.05,520.901 1459.11,520.292 1459.11,519.698 C1459.11,518.37 1458.72,516.948 1458.07,515.729 C1457.18,514.198 1454.71,512.323 1451.35,511.776 C1450.8,511.667 1450.26,511.604 1449.6,511.604 C1447.07,511.604 1443.77,512.495 1440.35,515.62 C1437.66,518.104 1435.24,522.557 1432.93,529.432 L1432.88,529.651 L1424.96,529.651 C1424.35,529.651 1423.91,530.136 1423.91,530.745 L1423.91,533.011 C1423.91,533.604 1424.35,534.104 1424.96,534.104 L1431.51,534.104 L1431.4,534.432 C1430.35,538.62 1429.58,542.245 1428.8,545.714 C1427.93,549.557 1426.99,553.573 1425.79,558.417 L1425.51,559.62 C1423.3,568.198 1422.6,571.339 1420.07,572.979 C1419.57,573.307 1418.91,573.526 1418.3,573.526 C1417.76,573.526 1417.26,573.37 1416.86,573.042 C1416.6,572.823 1416.16,572.37 1416.27,571.823 C1416.32,571.386 1416.65,571.057 1417.15,570.839 C1419.18,570.011 1419.79,568.026 1419.79,566.386 C1419.79,564.901 1418.8,562.198 1415.01,562.198"/>
<path class="" d="M951.705,552.168 C948.893,552.168 946.252,554.808 946.252,557.621 C946.252,563.121 950.002,566.136 954.784,566.136 C958.127,566.136 960.549,565.043 963.19,562.402 C967.752,557.84 972.768,542.215 975.346,533.308 C976.284,530.011 977.268,526.652 977.987,524.23 L978.049,524.011 L985.58,524.011 C986.174,524.011 986.674,523.574 986.674,522.98 L986.674,520.715 C986.674,520.105 986.174,519.621 985.58,519.621 L979.299,519.621 L979.424,519.23 C982.33,508.449 983.205,506.636 984.752,505.433 C985.58,504.777 986.346,504.605 986.846,504.605 C987.065,504.605 987.221,504.605 987.33,504.668 C987.83,504.777 988.221,505.152 988.377,505.543 C988.44,505.761 988.487,505.918 988.487,506.152 C988.487,506.636 988.268,507.136 987.893,507.355 C986.846,508.183 986.284,509.449 986.284,510.824 C986.284,511.308 986.346,511.871 986.518,512.418 C986.784,513.402 987.612,514.277 988.705,514.777 C989.143,514.996 989.752,515.168 990.518,515.168 C991.299,515.168 992.127,514.996 993.112,514.449 C994.377,513.793 995.205,512.746 995.58,511.418 C995.752,510.871 995.799,510.261 995.799,509.668 C995.799,508.34 995.424,506.918 994.752,505.699 C993.877,504.168 991.409,502.293 988.049,501.746 C987.502,501.636 986.955,501.574 986.284,501.574 C983.768,501.574 980.455,502.465 977.049,505.59 C974.362,508.074 971.94,512.527 969.627,519.402 L969.58,519.621 L961.659,519.621 C961.049,519.621 960.612,520.105 960.612,520.715 L960.612,522.98 C960.612,523.574 961.049,524.074 961.659,524.074 L968.205,524.074 L968.08,524.402 C967.049,528.59 966.268,532.215 965.502,535.683 C964.627,539.527 963.69,543.543 962.471,548.386 L962.205,549.59 C960.002,558.168 959.284,561.308 956.752,562.949 C956.268,563.277 955.612,563.496 955.002,563.496 C954.455,563.496 953.955,563.34 953.565,563.011 C953.299,562.793 952.862,562.34 952.971,561.793 C953.018,561.355 953.346,561.027 953.846,560.808 C955.877,559.98 956.487,557.996 956.487,556.355 C956.487,554.871 955.502,552.168 951.705,552.168 M957.096,540.793 C956.596,541.621 956.096,541.886 955.612,541.886 C955.377,541.886 955.221,541.84 955.002,541.777 C954.393,541.558 954.174,541.168 954.174,540.574 C954.174,539.683 954.674,538.48 955.049,537.215 C955.268,536.558 955.83,534.527 955.987,533.965 C956.596,532.043 957.424,527.761 957.424,525.011 C957.424,524.465 957.362,523.965 957.315,523.574 C956.815,520.777 955.502,519.402 953.299,519.402 C950.596,519.402 947.737,521.324 946.362,523.136 L946.096,523.574 L945.877,523.09 C945.877,523.027 944.221,519.34 941.424,519.34 C938.502,519.34 936.362,520.496 934.596,522.918 L934.268,523.355 L934.096,522.808 C934.096,522.746 932.784,519.886 930.143,519.34 C929.596,519.23 929.096,519.183 928.659,519.183 C926.08,519.183 924.534,520.824 923.815,521.605 C923.221,522.261 921.674,524.793 920.955,527.043 L922.502,527.918 C922.502,527.918 924.315,522.308 926.627,522.308 C926.784,522.308 926.955,522.371 927.112,522.418 C927.721,522.636 928.002,523.136 928.002,523.965 C928.002,525.449 927.112,527.918 925.971,531.277 C925.909,531.386 922.065,542.996 921.784,543.871 C921.674,544.308 921.674,544.808 921.893,545.074 C922.065,545.355 922.393,545.465 922.768,545.465 L924.315,545.465 L928.33,545.465 C928.487,545.465 929.049,545.402 929.424,543.761 C929.924,541.449 930.424,539.636 930.862,538.199 C931.299,536.668 935.143,522.918 938.721,522.918 C938.94,522.918 939.221,523.09 939.33,523.246 C939.487,523.527 939.596,523.855 939.596,524.402 C939.596,526.215 938.612,529.511 937.346,533.746 C935.815,538.808 934.268,543.808 934.268,543.808 C934.205,544.027 934.096,544.746 934.44,545.136 C934.596,545.355 934.877,545.465 935.252,545.465 L940.971,545.465 C941.471,545.465 941.909,545.293 942.127,544.199 C942.127,544.09 942.19,543.871 942.237,543.543 C944.33,528.918 947.69,524.511 950.112,523.418 C950.221,523.355 950.33,523.355 950.44,523.355 C950.549,523.355 950.659,523.355 950.705,523.418 C950.987,523.527 951.205,523.902 951.205,524.402 C951.205,525.449 950.596,529.621 948.393,535.23 C947.737,536.886 947.471,538.371 947.471,539.793 C947.471,541.293 947.799,542.605 948.518,543.652 C949.33,544.855 951.205,545.527 952.627,545.527 C957.252,545.527 959.065,541.73 960.44,538.09 C960.502,537.933 960.612,537.715 960.659,537.543 L958.955,536.715 C958.955,536.715 957.799,539.574 957.096,540.793"/>
<path class="" d="M297.758,562.402 L321.243,562.402 L321.243,560.261 L313.321,560.261 L319.43,543.48 L319.696,544.199 C319.696,544.199 320.805,546.621 324.321,547.496 C324.977,547.668 325.633,547.715 326.305,547.715 C332.024,547.715 337.899,541.777 340.039,533.371 C340.649,531.058 340.868,529.136 340.868,527.48 C340.868,520.496 336.524,518.683 334.93,518.293 C334.493,518.183 333.993,518.136 333.555,518.136 C330.321,518.136 327.008,520.824 325.258,522.59 L324.977,522.918 L324.821,522.527 C324.821,522.48 322.618,518.621 318.93,518.074 C318.539,518.027 318.164,517.965 317.774,517.965 C314.305,517.965 310.68,520.386 307.711,528.965 L309.586,529.902 C310.024,528.527 311.18,525.23 312.383,523.574 C312.993,522.636 314.149,521.761 315.133,521.605 C315.633,521.48 316.008,521.605 316.352,521.824 C316.727,522.09 316.899,522.636 316.899,523.418 C316.899,525.949 315.086,530.449 314.586,531.496 L304.196,560.261 L297.758,560.261 L297.758,562.402 M324.102,544.152 C323.883,544.152 323.555,544.09 323.336,544.027 C321.789,543.433 321.352,541.621 321.352,539.574 C321.352,536.34 322.555,532.543 322.618,532.261 C323.602,528.308 326.524,523.902 329.274,522.371 C329.977,521.933 330.696,521.761 331.305,521.761 C331.571,521.761 331.852,521.761 332.133,521.871 C332.571,521.98 332.899,522.371 333.118,522.808 C333.446,523.418 333.555,524.23 333.555,525.168 C333.555,527.98 332.461,531.777 331.852,533.636 C330.539,537.715 327.946,542.605 325.305,543.871 C324.977,544.027 324.43,544.152 324.102,544.152"/>
<path class="" fill-rule="evenodd" d="M2297.1,328.011 L2502.64,328.011 L2502.64,345.373 L2297.1,345.373 L2297.1,328.011 "/>
<path class="" fill-rule="evenodd" d="M2297.1,298.495 L2443.75,298.495 L2443.75,315.857 L2297.1,315.857 L2297.1,298.495 "/>
<path class="" fill-rule="evenodd" d="M2382.14,268.979 L2443.75,268.979 L2443.75,286.342 L2382.14,286.342 L2382.14,268.979 "/>
<path class="" fill-rule="evenodd" d="M1426.35,452.027 L1684.2,452.027 L1684.2,469.389 L1426.35,469.389 L1426.35,452.027 "/>
<path class="" fill-rule="evenodd" d="M1537.55,422.511 L1684.2,422.511 L1684.2,439.873 L1537.55,439.873 L1537.55,422.511 "/>
<path class="" fill-rule="evenodd" d="M1622.59,392.995 L1684.2,392.995 L1684.2,410.357 L1622.59,410.357 L1622.59,392.995 "/>
<path class="" fill-rule="evenodd" d="M1740.36,414.822 L2043.94,414.822 L2043.94,432.184 L1740.36,432.184 L1740.36,414.822 "/>
<path class="" fill-rule="evenodd" d="M1740.36,385.306 L2043.94,385.306 L2043.94,402.668 L1740.36,402.668 L1740.36,385.306 "/>
<path class="" fill-rule="evenodd" d="M1825.4,355.79 L1915.31,355.79 L1915.31,373.153 L1825.4,373.153 L1825.4,355.79 "/>
<path class="" fill-rule="evenodd" d="M1096.77,452.027 L1284.66,452.027 L1284.66,469.389 L1096.77,469.389 L1096.77,452.027 "/>
<path class="" fill-rule="evenodd" d="M1096.77,422.511 L1230.9,422.511 L1230.9,439.873 L1096.77,439.873 L1096.77,422.511 "/>
<path class="" fill-rule="evenodd" d="M1174.41,392.995 L1230.9,392.995 L1230.9,410.357 L1174.41,410.357 L1174.41,392.995 "/>
<path class="" fill-rule="evenodd" d="M598.323,427.223 L875.707,427.223 L875.707,444.586 L598.323,444.586 L598.323,427.223 "/>
<path class="" fill-rule="evenodd" d="M598.323,397.708 L875.707,397.708 L875.707,415.07 L598.323,415.07 L598.323,397.708 "/>
<path class="" fill-rule="evenodd" d="M675.96,368.192 L758.276,368.192 L758.276,385.554 L675.96,385.554 L675.96,368.192 "/>
<path class="" fill-rule="evenodd" d="M311.652,402.42 L547.291,402.42 L547.291,419.782 L311.652,419.782 L311.652,402.42 "/>
<path class="" fill-rule="evenodd" d="M413.165,372.905 L547.291,372.905 L547.291,390.267 L413.165,390.267 L413.165,372.905 "/>
<path class="" fill-rule="evenodd" d="M490.802,343.389 L547.291,343.389 L547.291,360.751 L490.802,360.751 L490.802,343.389 "/>
<path class="" d="M1863.98,464.967 C1865.12,464.452 1865.7,463.108 1865.2,461.952 C1865.12,461.764 1865.06,461.577 1865.06,461.452 C1864.99,460.749 1866.21,459.202 1868.45,459.077 C1871.07,458.952 1872.41,459.139 1872.68,462.858 C1872.81,465.28 1868.96,466.249 1867.95,466.374 C1866.66,466.624 1865.9,467.78 1866.02,468.936 C1866.15,470.155 1867.37,470.92 1868.32,470.983 C1869.23,470.983 1874.34,471.17 1874.85,475.592 C1874.91,475.905 1874.98,476.233 1874.98,476.545 C1875.24,481.405 1873.12,483.014 1869.02,483.202 C1867.68,483.264 1866.46,482.889 1865.57,482.311 C1863.91,481.217 1863.34,479.686 1864.56,477.827 C1865.26,476.811 1864.93,475.327 1863.91,474.624 C1862.88,473.92 1861.48,474.249 1860.77,475.264 C1858.02,479.42 1859.62,483.905 1863.01,486.155 C1864.74,487.295 1866.98,487.936 1869.29,487.811 C1875.31,487.499 1879.91,483.655 1879.52,476.295 C1879.52,475.842 1879.52,475.467 1879.46,475.014 C1879.07,471.624 1877.23,469.452 1875.04,468.108 C1876.32,466.889 1877.35,464.967 1877.23,462.592 C1876.84,456.077 1872.23,454.217 1868.2,454.467 C1864.68,454.655 1860.13,457.217 1860.45,461.764 C1860.52,462.405 1860.71,463.17 1860.96,463.811 C1861.48,464.967 1862.82,465.483 1863.98,464.967"/>
<polyline class="" fill="none" stroke="#000000" stroke-width="2.48" stroke-linecap="square" stroke-linejoin="bevel" points="1813,447.19 1813,471.993 1845.09,471.661"/>
<polyline class="" fill="none" stroke="#000000" stroke-width="2.48" stroke-linecap="square" stroke-linejoin="bevel" points="1892.89,471.166 1944.82,470.629 1944.82,445.826"/>
<path class="" d="M710.738,477.369 C711.879,476.853 712.457,475.509 711.957,474.353 C711.879,474.166 711.816,473.978 711.816,473.853 C711.754,473.15 712.973,471.603 715.207,471.478 C717.832,471.353 719.176,471.541 719.441,475.259 C719.566,477.681 715.723,478.65 714.707,478.775 C713.426,479.025 712.66,480.181 712.785,481.338 C712.91,482.556 714.129,483.322 715.082,483.384 C715.988,483.384 721.098,483.572 721.613,487.994 C721.676,488.306 721.738,488.634 721.738,488.947 C722.004,493.806 719.879,495.416 715.785,495.603 C714.441,495.666 713.223,495.291 712.332,494.713 C710.676,493.619 710.098,492.088 711.316,490.228 C712.019,489.213 711.691,487.728 710.676,487.025 C709.644,486.322 708.238,486.65 707.535,487.666 C704.785,491.822 706.379,496.306 709.769,498.556 C711.504,499.697 713.738,500.338 716.051,500.213 C722.066,499.9 726.676,496.056 726.285,488.697 C726.285,488.244 726.285,487.869 726.223,487.416 C725.832,484.025 723.988,481.853 721.801,480.509 C723.082,479.291 724.113,477.369 723.988,474.994 C723.598,468.478 718.988,466.619 714.957,466.869 C711.441,467.056 706.894,469.619 707.207,474.166 C707.285,474.806 707.473,475.572 707.723,476.213 C708.238,477.369 709.582,477.884 710.738,477.369"/>
<polyline class="" fill="none" stroke="#000000" stroke-width="2.48" stroke-linecap="square" stroke-linejoin="bevel" points="663.558,459.592 663.558,484.395 691.852,484.084"/>
<polyline class="" fill="none" stroke="#000000" stroke-width="2.48" stroke-linecap="square" stroke-linejoin="bevel" points="739.655,483.559 787.784,483.03 787.784,458.227"/>
<path class="" d="M248.808,15.5049 L245.011,15.5049 L245.011,67.2393 C243.714,66.458 242.12,65.9737 240.292,65.7862 C239.792,65.7237 239.277,65.708 238.761,65.708 C235.62,65.708 232.261,66.5987 229.105,68.3018 C225.433,70.2862 222.511,73.1143 220.855,76.2705 C219.199,79.4424 219.027,82.5674 220.37,85.0518 C221.964,88.0049 225.417,89.5518 229.511,89.5518 C232.558,89.5518 235.933,88.6924 239.183,86.958 C245.089,83.7549 248.777,78.4893 248.808,73.8799 L248.808,15.5049 "/>
<path class="" d="M310.73,59.1924 L272.636,59.1924 L272.636,52.5674 L310.73,52.5674 L310.73,59.1924 M310.73,76.0362 L272.636,76.0362 L272.636,69.4112 L310.73,69.4112 L310.73,76.0362 M360.683,64.4424 L365.027,64.4424 L365.027,72.0987 L360.683,72.0987 L360.683,82.0362 L350.667,82.0362 L350.667,72.0987 L333.558,72.0987 L333.558,64.3018 C337.287,58.4164 343.131,50.2757 351.089,39.8799 L355.152,34.5674 L360.683,34.5674 L360.683,64.4424 M350.808,64.4424 L350.808,43.9424 L336.386,64.4424 L350.808,64.4424 M368.402,58.583 C368.402,51.8122 369.897,46.1169 372.886,41.4971 C375.876,36.8773 379.579,34.5674 383.995,34.5674 C388.464,34.5674 392.18,36.8773 395.144,41.4971 C398.107,46.1169 399.589,51.8799 399.589,58.7862 C399.589,65.7341 398.118,71.4945 395.175,76.0674 C392.232,80.6403 388.532,82.9268 384.074,82.9268 C379.469,82.9268 375.706,80.6507 372.785,76.0987 C369.863,71.5466 368.402,65.708 368.402,58.583 M384.074,81.0049 C385.584,81.0049 386.732,79.9684 387.519,77.8955 C388.305,75.8226 388.699,72.0987 388.699,66.7237 L388.699,50.9112 C388.699,45.807 388.329,42.1273 387.589,39.8721 C386.85,37.6169 385.631,36.4893 383.933,36.4893 C382.277,36.4893 381.092,37.5934 380.378,39.8018 C379.665,42.0101 379.308,45.7132 379.308,50.9112 L379.308,66.7237 C379.308,71.8278 379.675,75.4841 380.41,77.6924 C381.144,79.9007 382.365,81.0049 384.074,81.0049"/>
<path class="" d="M2156.75,49.5097 L2154.86,49.5097 L2152.91,52.5097 C2149.66,49.9628 2147.46,49.1034 2143.8,49.1034 C2139.85,49.1034 2136.75,50.2128 2133.6,52.7597 C2128.66,56.7597 2126.35,61.8065 2126.35,68.5565 C2126.35,73.6659 2127.8,77.9159 2130.75,81.1659 C2133.85,84.6659 2138.46,86.7128 2143.25,86.7128 C2147.46,86.7128 2150.41,85.4159 2153.66,82.1659 L2155.5,86.6659 L2157.61,86.6659 L2157.61,75.6659 C2157.61,73.119 2157.61,73.0097 2157.91,72.5565 C2158.36,72.0097 2159.25,71.869 2162.11,71.869 L2162.86,71.869 L2162.86,69.5097 L2146.96,69.5097 L2146.96,71.869 L2147.91,71.869 C2152.11,71.869 2152.46,72.119 2152.46,74.9159 C2152.46,77.0565 2152.11,79.0097 2151.46,80.2128 C2150.21,82.6659 2147,84.369 2143.75,84.369 C2140.5,84.369 2137.3,82.7128 2135.6,80.2128 C2133.75,77.4159 2132.96,73.9159 2132.96,68.5565 C2132.96,57.4159 2136.66,51.4628 2143.6,51.4628 C2149.3,51.4628 2153.25,55.5565 2155.3,63.5565 L2157.46,63.5565 L2156.75,49.5097 "/>
<path class="" d="M2181.91,60.9003 C2182.31,60.8222 2182.64,60.4159 2182.64,60.0097 L2182.64,59.994 L2182.64,56.1034 C2182.64,55.8534 2182.49,55.5409 2182.3,55.3847 C2182.16,55.2753 2181.91,55.1815 2181.74,55.1815 C2181.67,55.1815 2181.6,55.1972 2181.55,55.2128 L2179.39,55.6503 L2179.39,45.8065 L2177.56,45.8065 L2177.56,56.0253 L2171.64,57.2597 L2171.64,47.8847 L2169.81,47.8847 L2169.81,57.6347 L2167.22,58.1659 C2166.81,58.2597 2166.49,58.6659 2166.49,59.0722 L2166.49,62.9003 C2166.49,63.1347 2166.64,63.4628 2166.83,63.619 C2166.97,63.7284 2167.22,63.8222 2167.41,63.8222 C2167.46,63.8222 2167.55,63.8065 2167.6,63.8065 L2169.81,63.3534 L2169.81,74.2753 L2167.22,74.8065 C2166.81,74.9003 2166.49,75.2909 2166.49,75.7128 L2166.49,79.5409 C2166.49,79.7753 2166.64,80.1034 2166.83,80.2597 C2166.97,80.369 2167.22,80.4628 2167.41,80.4628 C2167.41,80.4628 2167.41,80.4628 2167.42,80.4628 C2167.47,80.4628 2167.55,80.4472 2167.6,80.4315 L2169.81,79.994 L2169.81,89.8065 L2171.64,89.8065 L2171.64,79.619 L2177.56,78.4159 L2177.56,87.7284 L2179.39,87.7284 L2179.39,78.0409 L2181.91,77.5409 C2182.31,77.4628 2182.64,77.0565 2182.64,76.6503 L2182.64,72.744 C2182.64,72.494 2182.49,72.1815 2182.3,72.0253 C2182.17,71.9159 2181.91,71.8222 2181.74,71.8222 C2181.69,71.8222 2181.6,71.8378 2181.55,71.8534 L2179.39,72.2909 L2179.39,61.4159 L2181.91,60.9003 M2171.64,73.9003 L2171.64,62.9784 L2177.56,61.7753 L2177.56,72.6659 L2171.64,73.9003 "/>
<path class="" d="M2198.53,62.6659 L2189.64,63.2128 L2189.64,65.369 L2191.69,65.369 C2193.58,65.4159 2193.83,65.7128 2193.83,67.869 L2193.83,79.8065 L2193.83,81.7597 L2193.83,82.1659 C2193.78,82.9159 2193.74,83.2128 2193.53,83.4628 C2193.19,83.9159 2192.24,84.119 2190.08,84.1659 L2189.89,84.1659 L2189.89,85.9628 L2202.49,85.9628 L2202.49,84.1659 L2202.28,84.1659 C2198.99,84.0565 2198.53,83.8065 2198.53,81.9628 L2198.53,79.8065 L2198.53,72.7128 C2198.53,68.2597 2200.99,64.9628 2204.24,64.9628 C2207.08,64.9628 2208.53,67.0097 2208.53,71.0565 L2208.53,79.8065 L2208.53,82.2128 C2208.49,82.869 2208.44,83.2128 2208.19,83.4628 C2207.89,83.9159 2206.89,84.119 2204.74,84.1659 L2204.53,84.1659 L2204.53,85.9628 L2217.19,85.9628 L2217.19,84.1659 L2216.99,84.1659 C2213.69,84.0565 2213.24,83.8065 2213.24,82.0097 L2213.24,79.8065 L2213.24,73.1659 C2213.24,68.1659 2215.49,64.9628 2218.99,64.9628 C2221.85,64.9628 2223.24,67.119 2223.24,71.619 L2223.24,79.8065 L2223.24,82.1659 C2223.19,82.869 2223.14,83.2128 2222.89,83.4628 C2222.6,83.9159 2221.6,84.119 2219.44,84.1659 L2219.24,84.1659 L2219.24,85.9628 L2231.89,85.9628 L2231.89,84.1659 L2231.69,84.1659 C2228.39,84.0565 2227.94,83.8065 2227.94,81.9628 L2227.94,79.8065 L2227.94,70.619 C2227.94,67.5097 2227.64,66.4628 2226.35,64.7597 C2224.89,62.9159 2222.85,61.9159 2220.44,61.9159 C2217.19,61.9159 2214.78,63.4628 2212.64,66.9159 C2211.78,63.9159 2209.08,61.9159 2205.74,61.9159 C2202.69,61.9159 2200.49,63.369 2198.53,66.5097 L2198.53,62.6659 M2243.22,62.6659 L2233.83,63.2128 L2233.83,65.369 L2236.38,65.369 C2238.27,65.4159 2238.52,65.7128 2238.52,67.869 L2238.52,79.8065 L2238.52,82.1659 C2238.47,82.9159 2238.42,83.2128 2238.22,83.4628 C2237.88,83.9159 2236.92,84.119 2234.77,84.1659 L2234.42,84.1659 L2234.42,85.9628 L2247.38,85.9628 L2247.38,84.1659 L2247.02,84.1659 C2243.67,84.0565 2243.22,83.8065 2243.22,82.0097 L2243.22,79.8065 L2243.22,62.6659 M2240.88,50.2128 C2239.27,50.2128 2237.97,51.5097 2237.97,53.1034 C2237.97,54.7128 2239.27,56.0097 2240.83,56.0097 C2242.47,56.0097 2243.77,54.7128 2243.77,53.1034 C2243.77,51.5097 2242.47,50.2128 2240.88,50.2128 M2258.66,62.6659 L2250,63.2128 L2250,65.369 L2251.81,65.369 C2253.71,65.4159 2253.96,65.7128 2253.96,67.869 L2253.96,79.8065 L2253.96,81.0097 L2253.96,82.1659 C2253.91,82.9159 2253.86,83.2128 2253.66,83.4628 C2253.31,83.9159 2252.36,84.119 2250.21,84.1659 L2250,84.1659 L2250,85.9628 L2262.66,85.9628 L2262.66,84.1659 L2262.46,84.1659 C2259.11,84.0565 2258.66,83.8065 2258.66,82.0097 L2258.66,79.8065 L2258.66,74.619 C2258.66,72.1659 2259,69.9159 2259.56,68.7597 C2260.61,66.5097 2262.86,64.9628 2265,64.9628 C2266.31,64.9628 2267.81,65.6659 2268.56,66.7128 C2269.31,67.8065 2269.66,69.3065 2269.66,71.7128 L2269.66,79.8065 L2269.66,82.1659 C2269.61,82.9159 2269.56,83.2128 2269.36,83.4628 C2269,83.9159 2268,84.119 2265.86,84.1659 L2265.66,84.1659 L2265.66,85.9628 L2278.31,85.9628 L2278.31,84.1659 L2278.11,84.1659 C2274.81,84.0565 2274.36,83.8065 2274.36,82.0097 L2274.36,79.8065 L2274.36,71.9628 C2274.36,68.369 2274.21,67.4628 2273.31,65.7597 C2272.06,63.369 2269.56,61.9159 2266.56,61.9159 C2263.31,61.9159 2260.86,63.4159 2258.66,66.7128 L2258.66,62.6659 "/>
<path class="" d="M2327.6,55.6126 L2297.55,55.6126 L2297.55,57.972 L2298.44,57.972 C2301.3,58.0189 2302.25,58.1751 2302.64,58.6751 C2302.94,59.1126 2302.94,59.222 2302.94,61.7689 L2302.94,85.5658 C2302.94,88.1283 2302.94,88.222 2302.64,88.6751 C2302.25,89.1751 2301.3,89.3783 2298.44,89.3783 L2297.55,89.3783 L2297.55,91.722 L2328.25,91.722 L2329.25,78.3783 L2327.05,78.3783 C2325.14,87.2689 2323.1,89.1751 2315.44,89.3783 L2312.14,89.3783 C2309.14,89.2689 2308.39,88.7689 2308.55,86.972 L2308.55,74.222 L2309.55,74.222 C2314.69,74.0189 2316.55,75.8783 2316.75,81.4251 L2319.1,81.4251 L2319.1,65.0189 L2316.75,65.0189 C2316.44,69.9251 2314.5,71.8783 2309.75,71.8783 L2308.55,71.8783 L2308.55,60.472 C2308.5,58.3626 2309,58.0189 2311.69,57.972 L2314.3,57.972 C2322.5,57.9251 2324.55,59.722 2326.14,68.3783 L2328.3,68.3783 L2327.6,55.6126 "/>
<path class="" d="M2344.69,68.4251 L2335.8,68.972 L2335.8,71.1283 L2337.85,71.1283 C2339.74,71.1751 2339.99,71.472 2339.99,73.6283 L2339.99,85.5658 L2339.99,87.5189 L2339.99,87.9251 C2339.94,88.6751 2339.89,88.972 2339.69,89.222 C2339.35,89.6751 2338.39,89.8783 2336.24,89.9251 L2336.05,89.9251 L2336.05,91.722 L2348.64,91.722 L2348.64,89.9251 L2348.44,89.9251 C2345.14,89.8158 2344.69,89.5658 2344.69,87.722 L2344.69,85.5658 L2344.69,78.472 C2344.69,74.0189 2347.14,70.722 2350.39,70.722 C2353.24,70.722 2354.69,72.7689 2354.69,76.8158 L2354.69,85.5658 L2354.69,87.972 C2354.64,88.6283 2354.6,88.972 2354.35,89.222 C2354.05,89.6751 2353.05,89.8783 2350.89,89.9251 L2350.69,89.9251 L2350.69,91.722 L2363.35,91.722 L2363.35,89.9251 L2363.14,89.9251 C2359.85,89.8158 2359.39,89.5658 2359.39,87.7689 L2359.39,85.5658 L2359.39,78.9251 C2359.39,73.9251 2361.64,70.722 2365.14,70.722 C2368,70.722 2369.39,72.8783 2369.39,77.3783 L2369.39,85.5658 L2369.39,87.9251 C2369.35,88.6283 2369.3,88.972 2369.05,89.222 C2368.75,89.6751 2367.75,89.8783 2365.6,89.9251 L2365.39,89.9251 L2365.39,91.722 L2378.05,91.722 L2378.05,89.9251 L2377.85,89.9251 C2374.55,89.8158 2374.1,89.5658 2374.1,87.722 L2374.1,85.5658 L2374.1,76.3783 C2374.1,73.2689 2373.8,72.222 2372.5,70.5189 C2371.05,68.6751 2369,67.6751 2366.6,67.6751 C2363.35,67.6751 2360.94,69.222 2358.8,72.6751 C2357.94,69.6751 2355.24,67.6751 2351.89,67.6751 C2348.85,67.6751 2346.64,69.1283 2344.69,72.2689 L2344.69,68.4251 M2401.67,75.6283 C2401.67,72.472 2401.13,70.8783 2399.67,69.6751 C2398.03,68.3158 2395.58,67.6751 2392.38,67.6751 C2386.74,67.6751 2382.63,70.3158 2382.63,73.972 C2382.63,75.8158 2383.78,77.0189 2385.53,77.0189 C2387.13,77.0189 2388.24,75.972 2388.24,74.472 C2388.24,73.8158 2387.99,73.1283 2387.49,72.4251 C2387.17,72.0658 2387.13,71.972 2387.13,71.722 C2387.13,70.722 2389.13,69.8158 2391.53,69.8158 C2393.13,69.8158 2394.88,70.3158 2395.67,71.0658 C2396.63,71.8783 2396.99,73.0658 2396.99,75.3158 L2396.99,77.2689 C2391.78,78.1751 2390.13,78.5658 2387.67,79.5189 C2383.33,81.1283 2381.28,83.4251 2381.28,86.6283 C2381.28,90.222 2384.08,92.472 2388.53,92.472 C2391.99,92.472 2395.08,91.0658 2397.24,88.5189 C2398.03,91.0658 2399.28,92.0658 2401.63,92.0658 C2403.88,92.0658 2406.24,90.6283 2406.24,89.1751 C2406.24,88.8158 2406.03,88.5658 2405.74,88.5658 C2405.53,88.5658 2405.33,88.6283 2404.99,88.7689 C2404.28,89.0658 2403.99,89.1283 2403.58,89.1283 C2402.17,89.1283 2401.67,88.222 2401.67,85.6751 L2401.67,75.6283 M2396.99,81.722 C2396.99,84.722 2396.83,85.4251 2395.99,86.722 C2394.74,88.5658 2392.49,89.8158 2390.28,89.8158 C2387.99,89.8158 2386.33,88.1751 2386.33,85.9251 C2386.33,83.8158 2387.38,82.3158 2389.58,81.2689 C2391.13,80.5658 2393.08,80.0658 2396.99,79.4251 L2396.99,81.722 M2415.77,68.4251 L2406.02,68.972 L2406.02,71.1283 L2408.92,71.1283 C2410.83,71.1751 2411.08,71.472 2411.08,73.6283 L2411.08,90.5658 C2411.08,94.6283 2410.83,96.5189 2410.13,97.972 C2409.63,98.972 2408.47,99.722 2407.38,99.722 C2406.67,99.722 2406.13,99.4251 2406.13,99.0658 C2406.13,98.8783 2406.17,98.7689 2406.38,98.2689 C2406.63,97.7689 2406.72,97.4251 2406.72,97.0658 C2406.72,95.8158 2405.52,94.722 2404.13,94.722 C2402.52,94.722 2401.33,95.972 2401.33,97.722 C2401.33,100.175 2403.58,101.816 2406.92,101.816 C2409.72,101.816 2412.27,100.628 2413.72,98.5658 C2415.27,96.3783 2415.77,93.8158 2415.77,88.1751 L2415.77,68.4251 M2413.42,55.972 C2411.83,55.972 2410.52,57.2689 2410.52,58.8626 C2410.52,60.472 2411.83,61.7689 2413.38,61.7689 C2415.02,61.7689 2416.33,60.472 2416.33,58.8626 C2416.33,57.2689 2415.02,55.972 2413.42,55.972"/>
<path class="" d="M2423.17,68.6283 L2425.38,68.972 L2426.27,65.0189 C2427.02,61.722 2427.38,61.222 2428.82,61.222 C2429.07,61.222 2429.47,61.222 2429.92,61.2689 C2436.07,61.5658 2436.07,61.5658 2438.38,61.5658 C2439.02,61.5658 2440.17,61.5658 2441.57,61.5189 L2438.17,68.3783 C2434.47,75.722 2434.02,76.6283 2432.77,79.722 C2431.22,83.472 2430.42,86.6283 2430.42,88.722 C2430.42,91.0189 2431.63,92.4251 2433.57,92.4251 C2435.97,92.4251 2436.92,90.8158 2436.88,86.472 C2436.63,79.2689 2437.52,75.7689 2442.88,64.0658 C2443.63,62.472 2444.38,60.9251 2445.13,59.3626 C2445.17,59.2689 2445.32,58.8158 2445.63,58.1751 L2445.63,56.722 C2442.63,56.972 2441.02,57.0658 2437.92,57.0658 C2433.57,57.0658 2430.13,56.9251 2424.72,56.5189 L2423.17,68.6283 "/>
<path class="" d="M1740.82,181.672 L1757.61,181.672 C1762.07,181.672 1765.47,180.969 1768.11,179.469 C1773.16,176.625 1775.97,170.922 1775.97,163.422 C1775.97,156.516 1773.47,151.125 1768.86,148.125 C1766.11,146.375 1762.41,145.563 1756.71,145.563 L1740.82,145.563 L1740.82,147.922 L1741.77,147.922 C1744.57,147.969 1745.52,148.125 1745.91,148.625 C1746.21,149.063 1746.21,149.172 1746.21,151.719 L1746.21,175.516 C1746.21,178.078 1746.21,178.172 1745.91,178.625 C1745.52,179.125 1744.57,179.266 1741.77,179.328 L1740.82,179.328 L1740.82,181.672 M1754.66,179.328 C1752.11,179.328 1751.82,179.016 1751.82,176.578 L1751.82,150.719 C1751.82,148.266 1752.16,147.922 1754.66,147.922 L1757.27,147.922 C1765.82,147.922 1769.36,152.563 1769.36,163.625 C1769.36,174.828 1766.16,179.328 1758.07,179.328 L1754.66,179.328 "/>
<path class="" d="M1790.75,158.375 L1781.86,158.922 L1781.86,161.078 L1783.91,161.078 C1785.8,161.125 1786.05,161.422 1786.05,163.578 L1786.05,175.516 L1786.05,177.469 L1786.05,177.875 C1786,178.625 1785.96,178.922 1785.75,179.172 C1785.41,179.625 1784.46,179.828 1782.3,179.875 L1782.11,179.875 L1782.11,181.672 L1794.71,181.672 L1794.71,179.875 L1794.5,179.875 C1791.21,179.766 1790.75,179.516 1790.75,177.672 L1790.75,175.516 L1790.75,168.422 C1790.75,163.969 1793.21,160.672 1796.46,160.672 C1799.3,160.672 1800.75,162.719 1800.75,166.766 L1800.75,175.516 L1800.75,177.922 C1800.71,178.578 1800.66,178.922 1800.41,179.172 C1800.11,179.625 1799.11,179.828 1796.96,179.875 L1796.75,179.875 L1796.75,181.672 L1809.41,181.672 L1809.41,179.875 L1809.21,179.875 C1805.91,179.766 1805.46,179.516 1805.46,177.719 L1805.46,175.516 L1805.46,168.875 C1805.46,163.875 1807.71,160.672 1811.21,160.672 C1814.07,160.672 1815.46,162.828 1815.46,167.328 L1815.46,175.516 L1815.46,177.875 C1815.41,178.578 1815.36,178.922 1815.11,179.172 C1814.82,179.625 1813.82,179.828 1811.66,179.875 L1811.46,179.875 L1811.46,181.672 L1824.11,181.672 L1824.11,179.875 L1823.91,179.875 C1820.61,179.766 1820.16,179.516 1820.16,177.672 L1820.16,175.516 L1820.16,166.328 C1820.16,163.219 1819.86,162.172 1818.57,160.469 C1817.11,158.625 1815.07,157.625 1812.66,157.625 C1809.41,157.625 1807,159.172 1804.86,162.625 C1804,159.625 1801.3,157.625 1797.96,157.625 C1794.91,157.625 1792.71,159.078 1790.75,162.219 L1790.75,158.375 M1847.74,165.578 C1847.74,162.422 1847.19,160.828 1845.74,159.625 C1844.1,158.266 1841.64,157.625 1838.44,157.625 C1832.8,157.625 1828.69,160.266 1828.69,163.922 C1828.69,165.766 1829.85,166.969 1831.6,166.969 C1833.19,166.969 1834.3,165.922 1834.3,164.422 C1834.3,163.766 1834.05,163.078 1833.55,162.375 C1833.24,162.016 1833.19,161.922 1833.19,161.672 C1833.19,160.672 1835.19,159.766 1837.6,159.766 C1839.19,159.766 1840.94,160.266 1841.74,161.016 C1842.69,161.828 1843.05,163.016 1843.05,165.266 L1843.05,167.219 C1837.85,168.125 1836.19,168.516 1833.74,169.469 C1829.39,171.078 1827.35,173.375 1827.35,176.578 C1827.35,180.172 1830.14,182.422 1834.6,182.422 C1838.05,182.422 1841.14,181.016 1843.3,178.469 C1844.1,181.016 1845.35,182.016 1847.69,182.016 C1849.94,182.016 1852.3,180.578 1852.3,179.125 C1852.3,178.766 1852.1,178.516 1851.8,178.516 C1851.6,178.516 1851.39,178.578 1851.05,178.719 C1850.35,179.016 1850.05,179.078 1849.64,179.078 C1848.24,179.078 1847.74,178.172 1847.74,175.625 L1847.74,165.578 M1843.05,171.672 C1843.05,174.672 1842.89,175.375 1842.05,176.672 C1840.8,178.516 1838.55,179.766 1836.35,179.766 C1834.05,179.766 1832.39,178.125 1832.39,175.875 C1832.39,173.766 1833.44,172.266 1835.64,171.219 C1837.19,170.516 1839.14,170.016 1843.05,169.375 L1843.05,171.672 M1861.83,158.375 L1852.08,158.922 L1852.08,161.078 L1854.99,161.078 C1856.89,161.125 1857.14,161.422 1857.14,163.578 L1857.14,180.516 C1857.14,184.578 1856.89,186.469 1856.19,187.922 C1855.69,188.922 1854.53,189.672 1853.44,189.672 C1852.74,189.672 1852.19,189.375 1852.19,189.016 C1852.19,188.828 1852.24,188.719 1852.44,188.219 C1852.69,187.719 1852.78,187.375 1852.78,187.016 C1852.78,185.766 1851.58,184.672 1850.19,184.672 C1848.58,184.672 1847.39,185.922 1847.39,187.672 C1847.39,190.125 1849.64,191.766 1852.99,191.766 C1855.78,191.766 1858.33,190.578 1859.78,188.516 C1861.33,186.328 1861.83,183.766 1861.83,178.125 L1861.83,158.375 M1859.49,145.922 C1857.89,145.922 1856.58,147.219 1856.58,148.813 C1856.58,150.422 1857.89,151.719 1859.44,151.719 C1861.08,151.719 1862.39,150.422 1862.39,148.813 C1862.39,147.219 1861.08,145.922 1859.49,145.922"/>
<path class="" d="M1446.26,74.739 L1444.15,74.739 L1432.65,103.88 C1431.31,107.786 1430.01,108.989 1427.15,109.192 L1426.95,109.192 L1426.95,111.536 L1440.2,111.536 L1440.2,109.192 L1439.2,109.192 C1436.51,109.192 1435.15,108.239 1435.15,106.333 C1435.15,105.692 1435.31,105.083 1435.6,104.239 L1437.26,99.8327 L1450.51,99.8327 L1453.21,106.536 C1453.51,107.333 1453.6,107.63 1453.6,107.88 C1453.6,108.692 1452.35,109.192 1450.51,109.192 L1448.4,109.192 L1448.4,111.536 L1463.9,111.536 L1463.9,109.192 L1463.21,109.192 C1460.6,109.13 1460.15,108.833 1459.01,105.989 L1446.26,74.739 M1443.81,82.9265 L1449.45,97.1296 L1438.26,97.1296 L1443.81,82.9265 "/>
<path class="" d="M1475.95,88.239 L1467.06,88.7858 L1467.06,90.9421 L1469.1,90.9421 C1470.99,90.989 1471.24,91.2858 1471.24,93.4421 L1471.24,105.38 L1471.24,107.333 L1471.24,107.739 C1471.2,108.489 1471.15,108.786 1470.95,109.036 C1470.6,109.489 1469.65,109.692 1467.49,109.739 L1467.31,109.739 L1467.31,111.536 L1479.9,111.536 L1479.9,109.739 L1479.7,109.739 C1476.4,109.63 1475.95,109.38 1475.95,107.536 L1475.95,105.38 L1475.95,98.2858 C1475.95,93.8327 1478.4,90.5358 1481.65,90.5358 C1484.49,90.5358 1485.95,92.5827 1485.95,96.6296 L1485.95,105.38 L1485.95,107.786 C1485.9,108.442 1485.85,108.786 1485.6,109.036 C1485.31,109.489 1484.31,109.692 1482.15,109.739 L1481.95,109.739 L1481.95,111.536 L1494.6,111.536 L1494.6,109.739 L1494.4,109.739 C1491.1,109.63 1490.65,109.38 1490.65,107.583 L1490.65,105.38 L1490.65,98.739 C1490.65,93.739 1492.9,90.5358 1496.4,90.5358 C1499.26,90.5358 1500.65,92.6921 1500.65,97.1921 L1500.65,105.38 L1500.65,107.739 C1500.6,108.442 1500.56,108.786 1500.31,109.036 C1500.01,109.489 1499.01,109.692 1496.85,109.739 L1496.65,109.739 L1496.65,111.536 L1509.31,111.536 L1509.31,109.739 L1509.1,109.739 C1505.81,109.63 1505.35,109.38 1505.35,107.536 L1505.35,105.38 L1505.35,96.1921 C1505.35,93.0827 1505.06,92.0358 1503.76,90.3327 C1502.31,88.489 1500.26,87.489 1497.85,87.489 C1494.6,87.489 1492.2,89.0358 1490.06,92.489 C1489.2,89.489 1486.49,87.489 1483.15,87.489 C1480.1,87.489 1477.9,88.9421 1475.95,92.0827 L1475.95,88.239 M1532.93,95.4421 C1532.93,92.2858 1532.38,90.6921 1530.93,89.489 C1529.29,88.1296 1526.84,87.489 1523.63,87.489 C1517.99,87.489 1513.88,90.1296 1513.88,93.7858 C1513.88,95.6296 1515.04,96.8327 1516.79,96.8327 C1518.38,96.8327 1519.49,95.7858 1519.49,94.2858 C1519.49,93.6296 1519.24,92.9421 1518.74,92.239 C1518.43,91.8796 1518.38,91.7858 1518.38,91.5358 C1518.38,90.5358 1520.38,89.6296 1522.79,89.6296 C1524.38,89.6296 1526.13,90.1296 1526.93,90.8796 C1527.88,91.6921 1528.24,92.8796 1528.24,95.1296 L1528.24,97.0827 C1523.04,97.989 1521.38,98.3796 1518.93,99.3327 C1514.59,100.942 1512.54,103.239 1512.54,106.442 C1512.54,110.036 1515.34,112.286 1519.79,112.286 C1523.24,112.286 1526.34,110.88 1528.49,108.333 C1529.29,110.88 1530.54,111.88 1532.88,111.88 C1535.13,111.88 1537.49,110.442 1537.49,108.989 C1537.49,108.63 1537.29,108.38 1536.99,108.38 C1536.79,108.38 1536.59,108.442 1536.24,108.583 C1535.54,108.88 1535.24,108.942 1534.84,108.942 C1533.43,108.942 1532.93,108.036 1532.93,105.489 L1532.93,95.4421 M1528.24,101.536 C1528.24,104.536 1528.09,105.239 1527.24,106.536 C1525.99,108.38 1523.74,109.63 1521.54,109.63 C1519.24,109.63 1517.59,107.989 1517.59,105.739 C1517.59,103.63 1518.63,102.13 1520.84,101.083 C1522.38,100.38 1524.34,99.8796 1528.24,99.239 L1528.24,101.536 M1547.02,88.239 L1537.27,88.7858 L1537.27,90.9421 L1540.18,90.9421 C1542.09,90.989 1542.34,91.2858 1542.34,93.4421 L1542.34,110.38 C1542.34,114.442 1542.09,116.333 1541.38,117.786 C1540.88,118.786 1539.73,119.536 1538.63,119.536 C1537.93,119.536 1537.38,119.239 1537.38,118.88 C1537.38,118.692 1537.43,118.583 1537.63,118.083 C1537.88,117.583 1537.98,117.239 1537.98,116.88 C1537.98,115.63 1536.77,114.536 1535.38,114.536 C1533.77,114.536 1532.59,115.786 1532.59,117.536 C1532.59,119.989 1534.84,121.63 1538.18,121.63 C1540.98,121.63 1543.52,120.442 1544.98,118.38 C1546.52,116.192 1547.02,113.63 1547.02,107.989 L1547.02,88.239 M1544.68,75.7858 C1543.09,75.7858 1541.77,77.0827 1541.77,78.6765 C1541.77,80.2858 1543.09,81.5827 1544.63,81.5827 C1546.27,81.5827 1547.59,80.2858 1547.59,78.6765 C1547.59,77.0827 1546.27,75.7858 1544.68,75.7858"/>
<path class="" d="M951.115,93.86 L951.115,96.2194 L952.021,96.2194 C954.865,96.2663 955.818,96.4225 956.209,96.9225 C956.521,97.36 956.521,97.4694 956.521,100.016 L956.521,123.813 C956.521,126.376 956.521,126.469 956.209,126.923 C955.818,127.423 954.865,127.626 952.021,127.626 L951.115,127.626 L951.115,129.969 L969.271,129.969 C977.912,129.969 983.115,126.313 983.115,120.173 C983.115,115.173 979.974,112.313 973.115,111.126 C975.521,110.626 976.615,110.173 977.912,109.219 C979.974,107.673 981.224,105.219 981.224,102.719 C981.224,99.4694 979.224,96.3131 976.318,95.0631 C974.521,94.2663 972.021,93.86 969.068,93.86 L951.115,93.86 M962.115,110.126 L962.115,98.7194 C962.115,96.7663 962.771,96.2663 965.412,96.2194 L967.412,96.2194 C969.709,96.2194 971.615,96.61 972.662,97.2663 C974.459,98.36 975.412,100.469 975.412,103.266 C975.412,108.219 973.021,110.126 966.568,110.126 L962.115,110.126 M962.115,112.469 L966.521,112.469 C974.162,112.469 976.974,114.516 976.974,120.016 C976.974,123.219 975.865,125.516 973.912,126.469 C972.365,127.266 970.271,127.626 967.115,127.626 L965.021,127.626 C962.521,127.626 962.021,127.126 962.115,124.469 L962.115,112.469 "/>
<path class="" d="M998.209,106.673 L989.318,107.219 L989.318,109.376 L991.365,109.376 C993.256,109.423 993.506,109.719 993.506,111.876 L993.506,123.813 L993.506,125.766 L993.506,126.173 C993.459,126.923 993.412,127.219 993.209,127.469 C992.865,127.923 991.912,128.126 989.756,128.173 L989.568,128.173 L989.568,129.969 L1002.16,129.969 L1002.16,128.173 L1001.96,128.173 C998.662,128.063 998.209,127.813 998.209,125.969 L998.209,123.813 L998.209,116.719 C998.209,112.266 1000.66,108.969 1003.91,108.969 C1006.76,108.969 1008.21,111.016 1008.21,115.063 L1008.21,123.813 L1008.21,126.219 C1008.16,126.876 1008.12,127.219 1007.87,127.469 C1007.57,127.923 1006.57,128.126 1004.41,128.173 L1004.21,128.173 L1004.21,129.969 L1016.87,129.969 L1016.87,128.173 L1016.66,128.173 C1013.37,128.063 1012.91,127.813 1012.91,126.016 L1012.91,123.813 L1012.91,117.173 C1012.91,112.173 1015.16,108.969 1018.66,108.969 C1021.52,108.969 1022.91,111.126 1022.91,115.626 L1022.91,123.813 L1022.91,126.173 C1022.87,126.876 1022.82,127.219 1022.57,127.469 C1022.27,127.923 1021.27,128.126 1019.12,128.173 L1018.91,128.173 L1018.91,129.969 L1031.57,129.969 L1031.57,128.173 L1031.37,128.173 C1028.07,128.063 1027.62,127.813 1027.62,125.969 L1027.62,123.813 L1027.62,114.626 C1027.62,111.516 1027.32,110.469 1026.02,108.766 C1024.57,106.923 1022.52,105.923 1020.12,105.923 C1016.87,105.923 1014.46,107.469 1012.32,110.923 C1011.46,107.923 1008.76,105.923 1005.41,105.923 C1002.37,105.923 1000.16,107.376 998.209,110.516 L998.209,106.673 M1042.9,106.673 L1033.51,107.219 L1033.51,109.376 L1036.05,109.376 C1037.94,109.423 1038.19,109.719 1038.19,111.876 L1038.19,123.813 L1038.19,126.173 C1038.15,126.923 1038.1,127.219 1037.9,127.469 C1037.55,127.923 1036.6,128.126 1034.44,128.173 L1034.1,128.173 L1034.1,129.969 L1047.05,129.969 L1047.05,128.173 L1046.69,128.173 C1043.35,128.063 1042.9,127.813 1042.9,126.016 L1042.9,123.813 L1042.9,106.673 M1040.55,94.2194 C1038.94,94.2194 1037.65,95.5163 1037.65,97.11 C1037.65,98.7194 1038.94,100.016 1040.51,100.016 C1042.15,100.016 1043.44,98.7194 1043.44,97.11 C1043.44,95.5163 1042.15,94.2194 1040.55,94.2194 M1058.33,106.673 L1049.68,107.219 L1049.68,109.376 L1051.49,109.376 C1053.38,109.423 1053.63,109.719 1053.63,111.876 L1053.63,123.813 L1053.63,125.016 L1053.63,126.173 C1053.58,126.923 1053.54,127.219 1053.33,127.469 C1052.99,127.923 1052.04,128.126 1049.88,128.173 L1049.68,128.173 L1049.68,129.969 L1062.33,129.969 L1062.33,128.173 L1062.13,128.173 C1058.79,128.063 1058.33,127.813 1058.33,126.016 L1058.33,123.813 L1058.33,118.626 C1058.33,116.173 1058.68,113.923 1059.24,112.766 C1060.29,110.516 1062.54,108.969 1064.68,108.969 C1065.99,108.969 1067.49,109.673 1068.24,110.719 C1068.99,111.813 1069.33,113.313 1069.33,115.719 L1069.33,123.813 L1069.33,126.173 C1069.29,126.923 1069.24,127.219 1069.04,127.469 C1068.68,127.923 1067.68,128.126 1065.54,128.173 L1065.33,128.173 L1065.33,129.969 L1077.99,129.969 L1077.99,128.173 L1077.79,128.173 C1074.49,128.063 1074.04,127.813 1074.04,126.016 L1074.04,123.813 L1074.04,115.969 C1074.04,112.376 1073.88,111.469 1072.99,109.766 C1071.74,107.376 1069.24,105.923 1066.24,105.923 C1062.99,105.923 1060.54,107.423 1058.33,110.719 L1058.33,106.673 "/>
<path class="" d="M1097.27,103.818 L1097.27,106.177 L1098.18,106.177 C1101.02,106.224 1101.98,106.381 1102.37,106.881 C1102.68,107.318 1102.68,107.427 1102.68,109.974 L1102.68,133.771 C1102.68,136.334 1102.68,136.427 1102.37,136.881 C1101.98,137.381 1101.02,137.584 1098.18,137.584 L1097.27,137.584 L1097.27,139.927 L1115.43,139.927 C1124.07,139.927 1129.27,136.271 1129.27,130.131 C1129.27,125.131 1126.13,122.271 1119.27,121.084 C1121.68,120.584 1122.77,120.131 1124.07,119.177 C1126.13,117.631 1127.38,115.177 1127.38,112.677 C1127.38,109.427 1125.38,106.271 1122.48,105.021 C1120.68,104.224 1118.18,103.818 1115.23,103.818 L1097.27,103.818 M1108.27,120.084 L1108.27,108.677 C1108.27,106.724 1108.93,106.224 1111.57,106.177 L1113.57,106.177 C1115.87,106.177 1117.77,106.568 1118.82,107.224 C1120.62,108.318 1121.57,110.427 1121.57,113.224 C1121.57,118.177 1119.18,120.084 1112.73,120.084 L1108.27,120.084 M1108.27,122.427 L1112.68,122.427 C1120.32,122.427 1123.13,124.474 1123.13,129.974 C1123.13,133.177 1122.02,135.474 1120.07,136.427 C1118.52,137.224 1116.43,137.584 1113.27,137.584 L1111.18,137.584 C1108.68,137.584 1108.18,137.084 1108.27,134.427 L1108.27,122.427 "/>
<path class="" d="M1144.37,116.631 L1135.48,117.177 L1135.48,119.334 L1137.52,119.334 C1139.41,119.381 1139.66,119.677 1139.66,121.834 L1139.66,133.771 L1139.66,135.724 L1139.66,136.131 C1139.62,136.881 1139.57,137.177 1139.37,137.427 C1139.02,137.881 1138.07,138.084 1135.91,138.131 L1135.73,138.131 L1135.73,139.927 L1148.32,139.927 L1148.32,138.131 L1148.12,138.131 C1144.82,138.021 1144.37,137.771 1144.37,135.927 L1144.37,133.771 L1144.37,126.677 C1144.37,122.224 1146.82,118.927 1150.07,118.927 C1152.91,118.927 1154.37,120.974 1154.37,125.021 L1154.37,133.771 L1154.37,136.177 C1154.32,136.834 1154.27,137.177 1154.02,137.427 C1153.73,137.881 1152.73,138.084 1150.57,138.131 L1150.37,138.131 L1150.37,139.927 L1163.02,139.927 L1163.02,138.131 L1162.82,138.131 C1159.52,138.021 1159.07,137.771 1159.07,135.974 L1159.07,133.771 L1159.07,127.131 C1159.07,122.131 1161.32,118.927 1164.82,118.927 C1167.68,118.927 1169.07,121.084 1169.07,125.584 L1169.07,133.771 L1169.07,136.131 C1169.02,136.834 1168.98,137.177 1168.73,137.427 C1168.43,137.881 1167.43,138.084 1165.27,138.131 L1165.07,138.131 L1165.07,139.927 L1177.73,139.927 L1177.73,138.131 L1177.52,138.131 C1174.23,138.021 1173.77,137.771 1173.77,135.927 L1173.77,133.771 L1173.77,124.584 C1173.77,121.474 1173.48,120.427 1172.18,118.724 C1170.73,116.881 1168.68,115.881 1166.27,115.881 C1163.02,115.881 1160.62,117.427 1158.48,120.881 C1157.62,117.881 1154.91,115.881 1151.57,115.881 C1148.52,115.881 1146.32,117.334 1144.37,120.474 L1144.37,116.631 M1189.05,116.631 L1179.66,117.177 L1179.66,119.334 L1182.21,119.334 C1184.1,119.381 1184.35,119.677 1184.35,121.834 L1184.35,133.771 L1184.35,136.131 C1184.3,136.881 1184.26,137.177 1184.05,137.427 C1183.71,137.881 1182.76,138.084 1180.6,138.131 L1180.26,138.131 L1180.26,139.927 L1193.21,139.927 L1193.21,138.131 L1192.85,138.131 C1189.51,138.021 1189.05,137.771 1189.05,135.974 L1189.05,133.771 L1189.05,116.631 M1186.71,104.177 C1185.1,104.177 1183.8,105.474 1183.8,107.068 C1183.8,108.677 1185.1,109.974 1186.66,109.974 C1188.3,109.974 1189.6,108.677 1189.6,107.068 C1189.6,105.474 1188.3,104.177 1186.71,104.177 M1204.49,116.631 L1195.83,117.177 L1195.83,119.334 L1197.65,119.334 C1199.54,119.381 1199.79,119.677 1199.79,121.834 L1199.79,133.771 L1199.79,134.974 L1199.79,136.131 C1199.74,136.881 1199.69,137.177 1199.49,137.427 C1199.15,137.881 1198.19,138.084 1196.04,138.131 L1195.83,138.131 L1195.83,139.927 L1208.49,139.927 L1208.49,138.131 L1208.29,138.131 C1204.94,138.021 1204.49,137.771 1204.49,135.974 L1204.49,133.771 L1204.49,128.584 C1204.49,126.131 1204.83,123.881 1205.4,122.724 C1206.44,120.474 1208.69,118.927 1210.83,118.927 C1212.15,118.927 1213.65,119.631 1214.4,120.677 C1215.15,121.771 1215.49,123.271 1215.49,125.677 L1215.49,133.771 L1215.49,136.131 C1215.44,136.881 1215.4,137.177 1215.19,137.427 C1214.83,137.881 1213.83,138.084 1211.69,138.131 L1211.49,138.131 L1211.49,139.927 L1224.15,139.927 L1224.15,138.131 L1223.94,138.131 C1220.65,138.021 1220.19,137.771 1220.19,135.974 L1220.19,133.771 L1220.19,125.927 C1220.19,122.334 1220.04,121.427 1219.15,119.724 C1217.9,117.334 1215.4,115.881 1212.4,115.881 C1209.15,115.881 1206.69,117.381 1204.49,120.677 L1204.49,116.631 "/>
<path class="" d="M618.229,144.875 L616.12,144.875 L604.62,174.016 C603.276,177.922 601.979,179.125 599.12,179.328 L598.917,179.328 L598.917,181.672 L612.167,181.672 L612.167,179.328 L611.167,179.328 C608.479,179.328 607.12,178.375 607.12,176.469 C607.12,175.828 607.276,175.219 607.573,174.375 L609.229,169.969 L622.479,169.969 L625.183,176.672 C625.479,177.469 625.573,177.766 625.573,178.016 C625.573,178.828 624.323,179.328 622.479,179.328 L620.37,179.328 L620.37,181.672 L635.87,181.672 L635.87,179.328 L635.183,179.328 C632.573,179.266 632.12,178.969 630.979,176.125 L618.229,144.875 M615.776,153.063 L621.417,167.266 L610.229,167.266 L615.776,153.063 "/>
<path class="" d="M647.917,158.375 L639.026,158.922 L639.026,161.078 L641.073,161.078 C642.964,161.125 643.214,161.422 643.214,163.578 L643.214,175.516 L643.214,177.469 L643.214,177.875 C643.167,178.625 643.12,178.922 642.917,179.172 C642.573,179.625 641.62,179.828 639.464,179.875 L639.276,179.875 L639.276,181.672 L651.87,181.672 L651.87,179.875 L651.667,179.875 C648.37,179.766 647.917,179.516 647.917,177.672 L647.917,175.516 L647.917,168.422 C647.917,163.969 650.37,160.672 653.62,160.672 C656.464,160.672 657.917,162.719 657.917,166.766 L657.917,175.516 L657.917,177.922 C657.87,178.578 657.823,178.922 657.573,179.172 C657.276,179.625 656.276,179.828 654.12,179.875 L653.917,179.875 L653.917,181.672 L666.573,181.672 L666.573,179.875 L666.37,179.875 C663.073,179.766 662.62,179.516 662.62,177.719 L662.62,175.516 L662.62,168.875 C662.62,163.875 664.87,160.672 668.37,160.672 C671.229,160.672 672.62,162.828 672.62,167.328 L672.62,175.516 L672.62,177.875 C672.573,178.578 672.526,178.922 672.276,179.172 C671.979,179.625 670.979,179.828 668.823,179.875 L668.62,179.875 L668.62,181.672 L681.276,181.672 L681.276,179.875 L681.073,179.875 C677.776,179.766 677.323,179.516 677.323,177.672 L677.323,175.516 L677.323,166.328 C677.323,163.219 677.026,162.172 675.729,160.469 C674.276,158.625 672.229,157.625 669.823,157.625 C666.573,157.625 664.167,159.172 662.026,162.625 C661.167,159.625 658.464,157.625 655.12,157.625 C652.073,157.625 649.87,159.078 647.917,162.219 L647.917,158.375 M704.901,165.578 C704.901,162.422 704.354,160.828 702.901,159.625 C701.261,158.266 698.808,157.625 695.604,157.625 C689.964,157.625 685.854,160.266 685.854,163.922 C685.854,165.766 687.011,166.969 688.761,166.969 C690.354,166.969 691.464,165.922 691.464,164.422 C691.464,163.766 691.214,163.078 690.714,162.375 C690.401,162.016 690.354,161.922 690.354,161.672 C690.354,160.672 692.354,159.766 694.761,159.766 C696.354,159.766 698.104,160.266 698.901,161.016 C699.854,161.828 700.214,163.016 700.214,165.266 L700.214,167.219 C695.011,168.125 693.354,168.516 690.901,169.469 C686.558,171.078 684.511,173.375 684.511,176.578 C684.511,180.172 687.308,182.422 691.761,182.422 C695.214,182.422 698.308,181.016 700.464,178.469 C701.261,181.016 702.511,182.016 704.854,182.016 C707.104,182.016 709.464,180.578 709.464,179.125 C709.464,178.766 709.261,178.516 708.964,178.516 C708.761,178.516 708.558,178.578 708.214,178.719 C707.511,179.016 707.214,179.078 706.808,179.078 C705.401,179.078 704.901,178.172 704.901,175.625 L704.901,165.578 M700.214,171.672 C700.214,174.672 700.058,175.375 699.214,176.672 C697.964,178.516 695.714,179.766 693.511,179.766 C691.214,179.766 689.558,178.125 689.558,175.875 C689.558,173.766 690.604,172.266 692.808,171.219 C694.354,170.516 696.308,170.016 700.214,169.375 L700.214,171.672 M718.995,158.375 L709.245,158.922 L709.245,161.078 L712.151,161.078 C714.058,161.125 714.308,161.422 714.308,163.578 L714.308,180.516 C714.308,184.578 714.058,186.469 713.354,187.922 C712.854,188.922 711.698,189.672 710.604,189.672 C709.901,189.672 709.354,189.375 709.354,189.016 C709.354,188.828 709.401,188.719 709.604,188.219 C709.854,187.719 709.948,187.375 709.948,187.016 C709.948,185.766 708.745,184.672 707.354,184.672 C705.745,184.672 704.558,185.922 704.558,187.672 C704.558,190.125 706.808,191.766 710.151,191.766 C712.948,191.766 715.495,190.578 716.948,188.516 C718.495,186.328 718.995,183.766 718.995,178.125 L718.995,158.375 M716.651,145.922 C715.058,145.922 713.745,147.219 713.745,148.813 C713.745,150.422 715.058,151.719 716.604,151.719 C718.245,151.719 719.558,150.422 719.558,148.813 C719.558,147.219 718.245,145.922 716.651,145.922"/>
<path class="" d="M341.855,107.328 L312.105,107.328 L312.105,109.688 L312.996,109.688 C315.855,109.735 316.808,109.891 317.199,110.391 C317.496,110.828 317.496,110.938 317.496,113.485 L317.496,137.281 C317.496,139.844 317.496,139.938 317.199,140.391 C316.808,140.891 315.855,141.094 312.996,141.094 L312.105,141.094 L312.105,143.438 L329.246,143.438 L329.246,141.094 L327.605,141.094 C324.746,141.094 323.808,140.891 323.402,140.391 C323.105,139.938 323.105,139.781 323.105,137.281 L323.105,125.938 L324.105,125.938 C329.246,125.735 331.105,127.594 331.308,133.141 L333.652,133.141 L333.652,116.735 L331.308,116.735 C330.996,121.641 329.058,123.531 324.308,123.594 L323.105,123.594 L323.105,112.188 C323.058,110.078 323.558,109.735 326.246,109.688 L328.558,109.688 C336.762,109.641 338.808,111.485 340.355,120.094 L342.558,120.094 L341.855,107.328 "/>
<path class="" d="M362.762,118.375 C363.168,118.297 363.496,117.891 363.496,117.485 L363.496,117.469 L363.496,113.578 C363.496,113.328 363.34,113.016 363.152,112.86 C363.012,112.75 362.762,112.656 362.59,112.656 C362.527,112.656 362.449,112.672 362.402,112.688 L360.246,113.125 L360.246,103.281 L358.418,103.281 L358.418,113.5 L352.496,114.735 L352.496,105.36 L350.668,105.36 L350.668,115.11 L348.074,115.641 C347.668,115.735 347.34,116.141 347.34,116.547 L347.34,120.375 C347.34,120.61 347.496,120.938 347.683,121.094 C347.824,121.203 348.074,121.297 348.262,121.297 C348.308,121.297 348.402,121.281 348.449,121.281 L350.668,120.828 L350.668,131.75 L348.074,132.281 C347.668,132.375 347.34,132.766 347.34,133.188 L347.34,137.016 C347.34,137.25 347.496,137.578 347.683,137.735 C347.824,137.844 348.074,137.938 348.262,137.938 C348.262,137.938 348.262,137.938 348.277,137.938 C348.324,137.938 348.402,137.922 348.449,137.906 L350.668,137.469 L350.668,147.281 L352.496,147.281 L352.496,137.094 L358.418,135.891 L358.418,145.203 L360.246,145.203 L360.246,135.516 L362.762,135.016 C363.168,134.938 363.496,134.531 363.496,134.125 L363.496,130.219 C363.496,129.969 363.34,129.656 363.152,129.5 C363.027,129.391 362.762,129.297 362.59,129.297 C362.543,129.297 362.449,129.313 362.402,129.328 L360.246,129.766 L360.246,118.891 L362.762,118.375 M352.496,131.375 L352.496,120.453 L358.418,119.25 L358.418,130.141 L352.496,131.375 "/>
<path class="" d="M379.387,120.141 L370.496,120.688 L370.496,122.844 L372.543,122.844 C374.433,122.891 374.683,123.188 374.683,125.344 L374.683,137.281 L374.683,139.235 L374.683,139.641 C374.637,140.391 374.59,140.688 374.387,140.938 C374.043,141.391 373.09,141.594 370.933,141.641 L370.746,141.641 L370.746,143.438 L383.34,143.438 L383.34,141.641 L383.137,141.641 C379.84,141.531 379.387,141.281 379.387,139.438 L379.387,137.281 L379.387,130.188 C379.387,125.735 381.84,122.438 385.09,122.438 C387.933,122.438 389.387,124.485 389.387,128.531 L389.387,137.281 L389.387,139.688 C389.34,140.344 389.293,140.688 389.043,140.938 C388.746,141.391 387.746,141.594 385.59,141.641 L385.387,141.641 L385.387,143.438 L398.043,143.438 L398.043,141.641 L397.84,141.641 C394.543,141.531 394.09,141.281 394.09,139.485 L394.09,137.281 L394.09,130.641 C394.09,125.641 396.34,122.438 399.84,122.438 C402.699,122.438 404.09,124.594 404.09,129.094 L404.09,137.281 L404.09,139.641 C404.043,140.344 403.996,140.688 403.746,140.938 C403.449,141.391 402.449,141.594 400.293,141.641 L400.09,141.641 L400.09,143.438 L412.746,143.438 L412.746,141.641 L412.543,141.641 C409.246,141.531 408.793,141.281 408.793,139.438 L408.793,137.281 L408.793,128.094 C408.793,124.985 408.496,123.938 407.199,122.235 C405.746,120.391 403.699,119.391 401.293,119.391 C398.043,119.391 395.637,120.938 393.496,124.391 C392.637,121.391 389.933,119.391 386.59,119.391 C383.543,119.391 381.34,120.844 379.387,123.985 L379.387,120.141 M424.074,120.141 L414.683,120.688 L414.683,122.844 L417.23,122.844 C419.121,122.891 419.371,123.188 419.371,125.344 L419.371,137.281 L419.371,139.641 C419.324,140.391 419.277,140.688 419.074,140.938 C418.73,141.391 417.777,141.594 415.621,141.641 L415.277,141.641 L415.277,143.438 L428.23,143.438 L428.23,141.641 L427.871,141.641 C424.527,141.531 424.074,141.281 424.074,139.485 L424.074,137.281 L424.074,120.141 M421.73,107.688 C420.121,107.688 418.824,108.985 418.824,110.578 C418.824,112.188 420.121,113.485 421.683,113.485 C423.324,113.485 424.621,112.188 424.621,110.578 C424.621,108.985 423.324,107.688 421.73,107.688 M439.512,120.141 L430.855,120.688 L430.855,122.844 L432.668,122.844 C434.558,122.891 434.808,123.188 434.808,125.344 L434.808,137.281 L434.808,138.485 L434.808,139.641 C434.762,140.391 434.715,140.688 434.512,140.938 C434.168,141.391 433.215,141.594 431.058,141.641 L430.855,141.641 L430.855,143.438 L443.512,143.438 L443.512,141.641 L443.308,141.641 C439.965,141.531 439.512,141.281 439.512,139.485 L439.512,137.281 L439.512,132.094 C439.512,129.641 439.855,127.391 440.418,126.235 C441.465,123.985 443.715,122.438 445.855,122.438 C447.168,122.438 448.668,123.141 449.418,124.188 C450.168,125.281 450.512,126.781 450.512,129.188 L450.512,137.281 L450.512,139.641 C450.465,140.391 450.418,140.688 450.215,140.938 C449.855,141.391 448.855,141.594 446.715,141.641 L446.512,141.641 L446.512,143.438 L459.168,143.438 L459.168,141.641 L458.965,141.641 C455.668,141.531 455.215,141.281 455.215,139.485 L455.215,137.281 L455.215,129.438 C455.215,125.844 455.058,124.938 454.168,123.235 C452.918,120.844 450.418,119.391 447.418,119.391 C444.168,119.391 441.715,120.891 439.512,124.188 L439.512,120.141 "/>
<polyline class="" fill="none" stroke="#000000" stroke-width="2.98" stroke-linecap="square" stroke-linejoin="bevel" points="1514.35,557.093 2270.35,543.093"/>
<polyline class="" fill="none" stroke="#000000" stroke-width="2.98" stroke-linecap="square" stroke-linejoin="bevel" points="1514.35,529.093 2270.35,543.093"/>
<polyline class="" fill="none" stroke="#000000" stroke-width="2.98" stroke-linecap="square" stroke-linejoin="bevel" points="1009.08,533.063 1358.08,547.063"/>
<polyline class="" fill="none" stroke="#000000" stroke-width="2.98" stroke-linecap="square" stroke-linejoin="bevel" points="1009.08,533.063 1358.08,519.063"/>
<polyline class="" fill="none" stroke="#000000" stroke-width="2.98" stroke-linecap="square" stroke-linejoin="bevel" points="354.113,533.063 908.113,547.063"/>
<polyline class="" fill="none" stroke="#000000" stroke-width="2.98" stroke-linecap="square" stroke-linejoin="bevel" points="354.113,533.063 908.113,519.063"/>
</svg>
