<?xml version="1.0" encoding="UTF-8" standalone="no"?>
<svg width="2544px" height="768px" viewBox="0 0 2544 768"
 xmlns="http://www.w3.org/2000/svg" xmlns:xlink="http://www.w3.org/1999/xlink" version="1.2" baseProfile="tiny">
<title>paso7</title>
<desc>Generated by MuseScore 3.6.2</desc>
<path class="" stroke="#000000" stroke-width="1.74" stroke-linecap="round" stroke-linejoin="round" fill-rule="evenodd" d="M1506.94,482.538 C1542.69,453.379 1649.96,453.379 1685.71,482.538 C1649.96,457.348 1542.69,457.348 1506.94,482.538"/>
<path class="" stroke="#000000" stroke-width="1.74" stroke-linecap="round" stroke-linejoin="round" fill-rule="evenodd" d="M247.946,482.538 C280.32,455.949 377.443,455.949 409.818,482.538 C377.443,459.917 280.32,459.917 247.946,482.538"/>
<path class="" stroke="#000000" stroke-width="1.74" stroke-linecap="round" stroke-linejoin="round" fill-rule="evenodd" d="M1507.21,193.735 C1604.62,159.507 1896.87,159.507 1994.29,193.735 C1896.87,163.476 1604.62,163.476 1507.21,193.735"/>
<path class="" stroke="#000000" stroke-width="1.74" stroke-linecap="round" stroke-linejoin="round" fill-rule="evenodd" d="M247.946,193.735 C280.32,167.147 377.443,167.147 409.818,193.735 C377.443,171.115 280.32,171.115 247.946,193.735"/>
<polyline class="" stroke="#000000" stroke-width="3.97" stroke-linejoin="bevel" points="2481.99,450.541 2481.99,551.738"/>
<polyline class="" stroke="#000000" stroke-width="12.40" stroke-linejoin="bevel" points="2500.1,450.541 2500.1,551.738"/>
<polyline class="" stroke="#000000" stroke-width="3.97" stroke-linejoin="bevel" points="1452.17,450.541 1452.17,551.738"/>
<polyline class="" stroke="#000000" stroke-width="3.97" stroke-linejoin="bevel" points="48.9905,450.541 48.9905,551.738"/>
<polyline class="" stroke="#000000" stroke-width="3.97" stroke-linejoin="bevel" points="2481.99,161.739 2481.99,501.14"/>
<polyline class="" stroke="#000000" stroke-width="12.40" stroke-linejoin="bevel" points="2500.1,161.739 2500.1,501.14"/>
<polyline class="" stroke="#000000" stroke-width="3.97" stroke-linejoin="bevel" points="1452.17,161.739 1452.17,501.14"/>
<polyline class="" stroke="#000000" stroke-width="3.97" stroke-linejoin="bevel" points="48.9905,161.739 48.9905,501.14"/>
<polyline class="" stroke="#000000" stroke-width="1.98" stroke-linejoin="bevel" points="1454.16,501.14 2506.3,501.14"/>
<polyline class="" stroke="#000000" stroke-width="1.98" stroke-linejoin="bevel" points="47.0062,501.14 1454.16,501.14"/>
<polyline class="" stroke="#000000" stroke-width="1.98" stroke-linejoin="bevel" points="1454.16,212.338 2506.3,212.338"/>
<polyline class="" stroke="#000000" stroke-width="1.98" stroke-linejoin="bevel" points="47.0062,212.338 1454.16,212.338"/>
<polyline class="" stroke="#000000" stroke-width="3.22" stroke-linejoin="bevel" points="2293.05,505.798 2293.05,575.549"/>
<polyline class="" stroke="#000000" stroke-width="3.22" stroke-linejoin="bevel" points="1898.76,505.798 1898.76,575.549"/>
<polyline class="" stroke="#000000" stroke-width="3.22" stroke-linejoin="bevel" points="1984.47,505.798 1984.47,575.549"/>
<polyline class="" stroke="#000000" stroke-width="3.22" stroke-linejoin="bevel" points="2121.62,505.798 2121.62,575.549"/>
<polyline class="" stroke="#000000" stroke-width="3.22" stroke-linejoin="bevel" points="2207.33,505.798 2207.33,575.549"/>
<polyline class="" stroke="#000000" stroke-width="3.22" stroke-linejoin="bevel" points="1675.9,505.798 1675.9,575.549"/>
<polyline class="" stroke="#000000" stroke-width="3.22" stroke-linejoin="bevel" points="1813.04,505.798 1813.04,575.549"/>
<polyline class="" stroke="#000000" stroke-width="3.22" stroke-linejoin="bevel" points="1173.84,505.798 1173.84,575.549"/>
<polyline class="" stroke="#000000" stroke-width="3.22" stroke-linejoin="bevel" points="1487.32,505.798 1487.32,575.549"/>
<polyline class="" stroke="#000000" stroke-width="3.22" stroke-linejoin="bevel" points="751.562,505.798 751.562,575.549"/>
<polyline class="" stroke="#000000" stroke-width="3.22" stroke-linejoin="bevel" points="890.541,505.798 890.541,575.549"/>
<polyline class="" stroke="#000000" stroke-width="3.22" stroke-linejoin="bevel" points="1032.19,505.798 1032.19,575.549"/>
<polyline class="" stroke="#000000" stroke-width="3.22" stroke-linejoin="bevel" points="400.001,505.798 400.001,572.008"/>
<polyline class="" stroke="#000000" stroke-width="3.22" stroke-linejoin="bevel" points="538.98,505.798 538.98,572.008"/>
<polyline class="" stroke="#000000" stroke-width="3.22" stroke-linejoin="bevel" points="645.271,505.798 645.271,572.008"/>
<polyline class="" stroke="#000000" stroke-width="3.22" stroke-linejoin="bevel" points="228.333,505.798 228.333,575.549"/>
<polyline class="" stroke="#000000" stroke-width="3.22" stroke-linejoin="bevel" points="2293.05,216.996 2293.05,286.747"/>
<polyline class="" stroke="#000000" stroke-width="3.22" stroke-linejoin="bevel" points="1984.47,216.996 1984.47,286.747"/>
<polyline class="" stroke="#000000" stroke-width="3.22" stroke-linejoin="bevel" points="2121.62,216.996 2121.62,286.747"/>
<polyline class="" stroke="#000000" stroke-width="3.22" stroke-linejoin="bevel" points="2207.33,216.996 2207.33,286.747"/>
<polyline class="" stroke="#000000" stroke-width="3.22" stroke-linejoin="bevel" points="1173.84,216.996 1173.84,286.747"/>
<polyline class="" stroke="#000000" stroke-width="3.22" stroke-linejoin="bevel" points="1312.82,216.996 1312.82,286.747"/>
<polyline class="" stroke="#000000" stroke-width="3.22" stroke-linejoin="bevel" points="1486.43,216.227 1486.43,286.747"/>
<polyline class="" stroke="#000000" stroke-width="3.22" stroke-linejoin="bevel" points="751.562,216.996 751.562,286.747"/>
<polyline class="" stroke="#000000" stroke-width="3.22" stroke-linejoin="bevel" points="890.541,216.996 890.541,286.747"/>
<polyline class="" stroke="#000000" stroke-width="3.22" stroke-linejoin="bevel" points="977.711,216.996 977.711,286.747"/>
<polyline class="" stroke="#000000" stroke-width="3.22" stroke-linejoin="bevel" points="1086.67,216.996 1086.67,286.747"/>
<polyline class="" stroke="#000000" stroke-width="3.22" stroke-linejoin="bevel" points="400.001,216.996 400.001,286.747"/>
<polyline class="" stroke="#000000" stroke-width="3.22" stroke-linejoin="bevel" points="538.98,216.996 538.98,286.747"/>
<polyline class="" stroke="#000000" stroke-width="3.22" stroke-linejoin="bevel" points="645.271,216.996 645.271,286.747"/>
<polyline class="" stroke="#000000" stroke-width="3.22" stroke-linejoin="bevel" points="228.333,216.996 228.333,286.747"/>
<path class="" transform="matrix(0.992126,0,0,0.992126,2291.43,501.14)" d="M21.9688,-13.7656 C25.0938,-13.7656 27.6979,-12.9844 29.7813,-11.4219 C31.8646,-9.85938 32.9063,-7.61458 32.9063,-4.6875 C32.9063,-0.197917 30.5807,4 25.9297,7.90625 C21.2786,11.8125 16.2813,13.7656 10.9375,13.7656 C7.8125,13.7656 5.17708,12.9531 3.03125,11.3281 C1.01042,9.56771 0,7.35417 0,4.6875 C0,0.322917 2.3125,-3.84375 6.9375,-7.8125 C11.5625,-11.7813 16.5729,-13.7656 21.9688,-13.7656"/>
<path class="" transform="matrix(0.992126,0,0,0.992126,1897.14,501.14)" d="M21.9688,-13.7656 C25.0938,-13.7656 27.6979,-12.9844 29.7813,-11.4219 C31.8646,-9.85938 32.9063,-7.61458 32.9063,-4.6875 C32.9063,-0.197917 30.5807,4 25.9297,7.90625 C21.2786,11.8125 16.2813,13.7656 10.9375,13.7656 C7.8125,13.7656 5.17708,12.9531 3.03125,11.3281 C1.01042,9.56771 0,7.35417 0,4.6875 C0,0.322917 2.3125,-3.84375 6.9375,-7.8125 C11.5625,-11.7813 16.5729,-13.7656 21.9688,-13.7656"/>
<path class="" transform="matrix(0.992126,0,0,0.992126,1982.86,501.14)" d="M21.9688,-13.7656 C25.0938,-13.7656 27.6979,-12.9844 29.7813,-11.4219 C31.8646,-9.85938 32.9063,-7.61458 32.9063,-4.6875 C32.9063,-0.197917 30.5807,4 25.9297,7.90625 C21.2786,11.8125 16.2813,13.7656 10.9375,13.7656 C7.8125,13.7656 5.17708,12.9531 3.03125,11.3281 C1.01042,9.56771 0,7.35417 0,4.6875 C0,0.322917 2.3125,-3.84375 6.9375,-7.8125 C11.5625,-11.7813 16.5729,-13.7656 21.9688,-13.7656"/>
<path class="" transform="matrix(0.992126,0,0,0.992126,2120,501.14)" d="M21.9688,-13.7656 C25.0938,-13.7656 27.6979,-12.9844 29.7813,-11.4219 C31.8646,-9.85938 32.9063,-7.61458 32.9063,-4.6875 C32.9063,-0.197917 30.5807,4 25.9297,7.90625 C21.2786,11.8125 16.2813,13.7656 10.9375,13.7656 C7.8125,13.7656 5.17708,12.9531 3.03125,11.3281 C1.01042,9.56771 0,7.35417 0,4.6875 C0,0.322917 2.3125,-3.84375 6.9375,-7.8125 C11.5625,-11.7813 16.5729,-13.7656 21.9688,-13.7656"/>
<path class="" transform="matrix(0.992126,0,0,0.992126,2205.72,501.14)" d="M21.9688,-13.7656 C25.0938,-13.7656 27.6979,-12.9844 29.7813,-11.4219 C31.8646,-9.85938 32.9063,-7.61458 32.9063,-4.6875 C32.9063,-0.197917 30.5807,4 25.9297,7.90625 C21.2786,11.8125 16.2813,13.7656 10.9375,13.7656 C7.8125,13.7656 5.17708,12.9531 3.03125,11.3281 C1.01042,9.56771 0,7.35417 0,4.6875 C0,0.322917 2.3125,-3.84375 6.9375,-7.8125 C11.5625,-11.7813 16.5729,-13.7656 21.9688,-13.7656"/>
<path class="" transform="matrix(0.992126,0,0,0.992126,1674.28,501.14)" d="M21.9688,-13.7656 C25.0938,-13.7656 27.6979,-12.9844 29.7813,-11.4219 C31.8646,-9.85938 32.9063,-7.61458 32.9063,-4.6875 C32.9063,-0.197917 30.5807,4 25.9297,7.90625 C21.2786,11.8125 16.2813,13.7656 10.9375,13.7656 C7.8125,13.7656 5.17708,12.9531 3.03125,11.3281 C1.01042,9.56771 0,7.35417 0,4.6875 C0,0.322917 2.3125,-3.84375 6.9375,-7.8125 C11.5625,-11.7813 16.5729,-13.7656 21.9688,-13.7656"/>
<path class="" transform="matrix(0.992126,0,0,0.992126,1811.43,501.14)" d="M21.9688,-13.7656 C25.0938,-13.7656 27.6979,-12.9844 29.7813,-11.4219 C31.8646,-9.85938 32.9063,-7.61458 32.9063,-4.6875 C32.9063,-0.197917 30.5807,4 25.9297,7.90625 C21.2786,11.8125 16.2813,13.7656 10.9375,13.7656 C7.8125,13.7656 5.17708,12.9531 3.03125,11.3281 C1.01042,9.56771 0,7.35417 0,4.6875 C0,0.322917 2.3125,-3.84375 6.9375,-7.8125 C11.5625,-11.7813 16.5729,-13.7656 21.9688,-13.7656"/>
<path class="" transform="matrix(0.992126,0,0,0.992126,1172.23,501.14)" d="M21.9688,-13.7656 C25.0938,-13.7656 27.6979,-12.9844 29.7813,-11.4219 C31.8646,-9.85938 32.9063,-7.61458 32.9063,-4.6875 C32.9063,-0.197917 30.5807,4 25.9297,7.90625 C21.2786,11.8125 16.2813,13.7656 10.9375,13.7656 C7.8125,13.7656 5.17708,12.9531 3.03125,11.3281 C1.01042,9.56771 0,7.35417 0,4.6875 C0,0.322917 2.3125,-3.84375 6.9375,-7.8125 C11.5625,-11.7813 16.5729,-13.7656 21.9688,-13.7656"/>
<path class="" transform="matrix(0.992126,0,0,0.992126,1485.71,501.14)" d="M21.9688,-13.7656 C25.0938,-13.7656 27.6979,-12.9844 29.7813,-11.4219 C31.8646,-9.85938 32.9063,-7.61458 32.9063,-4.6875 C32.9063,-0.197917 30.5807,4 25.9297,7.90625 C21.2786,11.8125 16.2813,13.7656 10.9375,13.7656 C7.8125,13.7656 5.17708,12.9531 3.03125,11.3281 C1.01042,9.56771 0,7.35417 0,4.6875 C0,0.322917 2.3125,-3.84375 6.9375,-7.8125 C11.5625,-11.7813 16.5729,-13.7656 21.9688,-13.7656"/>
<path class="" transform="matrix(0.992126,0,0,0.992126,749.95,501.14)" d="M21.9688,-13.7656 C25.0938,-13.7656 27.6979,-12.9844 29.7813,-11.4219 C31.8646,-9.85938 32.9063,-7.61458 32.9063,-4.6875 C32.9063,-0.197917 30.5807,4 25.9297,7.90625 C21.2786,11.8125 16.2813,13.7656 10.9375,13.7656 C7.8125,13.7656 5.17708,12.9531 3.03125,11.3281 C1.01042,9.56771 0,7.35417 0,4.6875 C0,0.322917 2.3125,-3.84375 6.9375,-7.8125 C11.5625,-11.7813 16.5729,-13.7656 21.9688,-13.7656"/>
<path class="" transform="matrix(0.992126,0,0,0.992126,888.929,501.14)" d="M21.9688,-13.7656 C25.0938,-13.7656 27.6979,-12.9844 29.7813,-11.4219 C31.8646,-9.85938 32.9063,-7.61458 32.9063,-4.6875 C32.9063,-0.197917 30.5807,4 25.9297,7.90625 C21.2786,11.8125 16.2813,13.7656 10.9375,13.7656 C7.8125,13.7656 5.17708,12.9531 3.03125,11.3281 C1.01042,9.56771 0,7.35417 0,4.6875 C0,0.322917 2.3125,-3.84375 6.9375,-7.8125 C11.5625,-11.7813 16.5729,-13.7656 21.9688,-13.7656"/>
<path class="" transform="matrix(0.992126,0,0,0.992126,1030.58,501.14)" d="M21.9688,-13.7656 C25.0938,-13.7656 27.6979,-12.9844 29.7813,-11.4219 C31.8646,-9.85938 32.9063,-7.61458 32.9063,-4.6875 C32.9063,-0.197917 30.5807,4 25.9297,7.90625 C21.2786,11.8125 16.2813,13.7656 10.9375,13.7656 C7.8125,13.7656 5.17708,12.9531 3.03125,11.3281 C1.01042,9.56771 0,7.35417 0,4.6875 C0,0.322917 2.3125,-3.84375 6.9375,-7.8125 C11.5625,-11.7813 16.5729,-13.7656 21.9688,-13.7656"/>
<path class="" transform="matrix(0.992126,0,0,0.992126,398.388,501.14)" d="M21.9688,-13.7656 C25.0938,-13.7656 27.6979,-12.9844 29.7813,-11.4219 C31.8646,-9.85938 32.9063,-7.61458 32.9063,-4.6875 C32.9063,-0.197917 30.5807,4 25.9297,7.90625 C21.2786,11.8125 16.2813,13.7656 10.9375,13.7656 C7.8125,13.7656 5.17708,12.9531 3.03125,11.3281 C1.01042,9.56771 0,7.35417 0,4.6875 C0,0.322917 2.3125,-3.84375 6.9375,-7.8125 C11.5625,-11.7813 16.5729,-13.7656 21.9688,-13.7656"/>
<path class="" transform="matrix(0.992126,0,0,0.992126,537.368,501.14)" d="M21.9688,-13.7656 C25.0938,-13.7656 27.6979,-12.9844 29.7813,-11.4219 C31.8646,-9.85938 32.9063,-7.61458 32.9063,-4.6875 C32.9063,-0.197917 30.5807,4 25.9297,7.90625 C21.2786,11.8125 16.2813,13.7656 10.9375,13.7656 C7.8125,13.7656 5.17708,12.9531 3.03125,11.3281 C1.01042,9.56771 0,7.35417 0,4.6875 C0,0.322917 2.3125,-3.84375 6.9375,-7.8125 C11.5625,-11.7813 16.5729,-13.7656 21.9688,-13.7656"/>
<path class="" transform="matrix(0.992126,0,0,0.992126,643.659,501.14)" d="M21.9688,-13.7656 C25.0938,-13.7656 27.6979,-12.9844 29.7813,-11.4219 C31.8646,-9.85938 32.9063,-7.61458 32.9063,-4.6875 C32.9063,-0.197917 30.5807,4 25.9297,7.90625 C21.2786,11.8125 16.2813,13.7656 10.9375,13.7656 C7.8125,13.7656 5.17708,12.9531 3.03125,11.3281 C1.01042,9.56771 0,7.35417 0,4.6875 C0,0.322917 2.3125,-3.84375 6.9375,-7.8125 C11.5625,-11.7813 16.5729,-13.7656 21.9688,-13.7656"/>
<path class="" transform="matrix(0.992126,0,0,0.992126,226.721,501.14)" d="M21.9688,-13.7656 C25.0938,-13.7656 27.6979,-12.9844 29.7813,-11.4219 C31.8646,-9.85938 32.9063,-7.61458 32.9063,-4.6875 C32.9063,-0.197917 30.5807,4 25.9297,7.90625 C21.2786,11.8125 16.2813,13.7656 10.9375,13.7656 C7.8125,13.7656 5.17708,12.9531 3.03125,11.3281 C1.01042,9.56771 0,7.35417 0,4.6875 C0,0.322917 2.3125,-3.84375 6.9375,-7.8125 C11.5625,-11.7813 16.5729,-13.7656 21.9688,-13.7656"/>
<path class="" transform="matrix(0.992126,0,0,0.992126,2291.43,212.338)" d="M21.9688,-13.7656 C25.0938,-13.7656 27.6979,-12.9844 29.7813,-11.4219 C31.8646,-9.85938 32.9063,-7.61458 32.9063,-4.6875 C32.9063,-0.197917 30.5807,4 25.9297,7.90625 C21.2786,11.8125 16.2813,13.7656 10.9375,13.7656 C7.8125,13.7656 5.17708,12.9531 3.03125,11.3281 C1.01042,9.56771 0,7.35417 0,4.6875 C0,0.322917 2.3125,-3.84375 6.9375,-7.8125 C11.5625,-11.7813 16.5729,-13.7656 21.9688,-13.7656"/>
<path class="" transform="matrix(0.992126,0,0,0.992126,1982.86,212.338)" d="M21.9688,-13.7656 C25.0938,-13.7656 27.6979,-12.9844 29.7813,-11.4219 C31.8646,-9.85938 32.9063,-7.61458 32.9063,-4.6875 C32.9063,-0.197917 30.5807,4 25.9297,7.90625 C21.2786,11.8125 16.2813,13.7656 10.9375,13.7656 C7.8125,13.7656 5.17708,12.9531 3.03125,11.3281 C1.01042,9.56771 0,7.35417 0,4.6875 C0,0.322917 2.3125,-3.84375 6.9375,-7.8125 C11.5625,-11.7813 16.5729,-13.7656 21.9688,-13.7656"/>
<path class="" transform="matrix(0.992126,0,0,0.992126,2120,212.338)" d="M21.9688,-13.7656 C25.0938,-13.7656 27.6979,-12.9844 29.7813,-11.4219 C31.8646,-9.85938 32.9063,-7.61458 32.9063,-4.6875 C32.9063,-0.197917 30.5807,4 25.9297,7.90625 C21.2786,11.8125 16.2813,13.7656 10.9375,13.7656 C7.8125,13.7656 5.17708,12.9531 3.03125,11.3281 C1.01042,9.56771 0,7.35417 0,4.6875 C0,0.322917 2.3125,-3.84375 6.9375,-7.8125 C11.5625,-11.7813 16.5729,-13.7656 21.9688,-13.7656"/>
<path class="" transform="matrix(0.992126,0,0,0.992126,2205.72,212.338)" d="M21.9688,-13.7656 C25.0938,-13.7656 27.6979,-12.9844 29.7813,-11.4219 C31.8646,-9.85938 32.9063,-7.61458 32.9063,-4.6875 C32.9063,-0.197917 30.5807,4 25.9297,7.90625 C21.2786,11.8125 16.2813,13.7656 10.9375,13.7656 C7.8125,13.7656 5.17708,12.9531 3.03125,11.3281 C1.01042,9.56771 0,7.35417 0,4.6875 C0,0.322917 2.3125,-3.84375 6.9375,-7.8125 C11.5625,-11.7813 16.5729,-13.7656 21.9688,-13.7656"/>
<path class="" transform="matrix(0.992126,0,0,0.992126,1172.23,212.338)" d="M21.9688,-13.7656 C25.0938,-13.7656 27.6979,-12.9844 29.7813,-11.4219 C31.8646,-9.85938 32.9063,-7.61458 32.9063,-4.6875 C32.9063,-0.197917 30.5807,4 25.9297,7.90625 C21.2786,11.8125 16.2813,13.7656 10.9375,13.7656 C7.8125,13.7656 5.17708,12.9531 3.03125,11.3281 C1.01042,9.56771 0,7.35417 0,4.6875 C0,0.322917 2.3125,-3.84375 6.9375,-7.8125 C11.5625,-11.7813 16.5729,-13.7656 21.9688,-13.7656"/>
<path class="" transform="matrix(0.992126,0,0,0.992126,1311.21,212.338)" d="M21.9688,-13.7656 C25.0938,-13.7656 27.6979,-12.9844 29.7813,-11.4219 C31.8646,-9.85938 32.9063,-7.61458 32.9063,-4.6875 C32.9063,-0.197917 30.5807,4 25.9297,7.90625 C21.2786,11.8125 16.2813,13.7656 10.9375,13.7656 C7.8125,13.7656 5.17708,12.9531 3.03125,11.3281 C1.01042,9.56771 0,7.35417 0,4.6875 C0,0.322917 2.3125,-3.84375 6.9375,-7.8125 C11.5625,-11.7813 16.5729,-13.7656 21.9688,-13.7656"/>
<path class="" transform="matrix(0.992126,0,0,0.992126,1484.82,212.338)" d="M7.42188,10.6406 C9.30729,10.6406 13.263,8.6875 19.2891,4.78125 C25.3151,0.875 28.8646,-1.74479 29.9375,-3.07813 C31.0104,-4.41146 31.5469,-5.59896 31.5469,-6.64063 C31.5469,-7.68229 31.1224,-8.60938 30.2734,-9.42188 C29.4245,-10.2344 28.4479,-10.6406 27.3438,-10.6406 C25.3958,-10.6406 21.4089,-8.67188 15.3828,-4.73438 C9.35677,-0.796875 5.82292,1.82292 4.78125,3.125 C3.73958,4.42708 3.21875,5.59896 3.21875,6.64063 C3.21875,7.68229 3.6276,8.60938 4.44531,9.42188 C5.26302,10.2344 6.25521,10.6406 7.42188,10.6406 M26.375,-13.7656 C31.9688,-13.7656 34.7656,-11.3594 34.7656,-6.54688 C34.7656,-4.20313 34.0833,-1.48438 32.7188,1.60938 C31.3542,4.70313 29.5313,7.0625 27.25,8.6875 C22.2396,12.0729 15.9583,13.7656 8.40625,13.7656 C2.80208,13.7656 0,11.3594 0,6.54688 C0,4.40104 0.666667,1.73177 2,-1.46094 C3.33333,-4.65365 5.17188,-7.0625 7.51563,-8.6875 C12.5365,-12.0729 18.8229,-13.7656 26.375,-13.7656"/>
<path class="" transform="matrix(0.992126,0,0,0.992126,749.95,212.338)" d="M21.9688,-13.7656 C25.0938,-13.7656 27.6979,-12.9844 29.7813,-11.4219 C31.8646,-9.85938 32.9063,-7.61458 32.9063,-4.6875 C32.9063,-0.197917 30.5807,4 25.9297,7.90625 C21.2786,11.8125 16.2813,13.7656 10.9375,13.7656 C7.8125,13.7656 5.17708,12.9531 3.03125,11.3281 C1.01042,9.56771 0,7.35417 0,4.6875 C0,0.322917 2.3125,-3.84375 6.9375,-7.8125 C11.5625,-11.7813 16.5729,-13.7656 21.9688,-13.7656"/>
<path class="" transform="matrix(0.992126,0,0,0.992126,888.929,212.338)" d="M21.9688,-13.7656 C25.0938,-13.7656 27.6979,-12.9844 29.7813,-11.4219 C31.8646,-9.85938 32.9063,-7.61458 32.9063,-4.6875 C32.9063,-0.197917 30.5807,4 25.9297,7.90625 C21.2786,11.8125 16.2813,13.7656 10.9375,13.7656 C7.8125,13.7656 5.17708,12.9531 3.03125,11.3281 C1.01042,9.56771 0,7.35417 0,4.6875 C0,0.322917 2.3125,-3.84375 6.9375,-7.8125 C11.5625,-11.7813 16.5729,-13.7656 21.9688,-13.7656"/>
<path class="" transform="matrix(0.992126,0,0,0.992126,976.098,212.338)" d="M21.9688,-13.7656 C25.0938,-13.7656 27.6979,-12.9844 29.7813,-11.4219 C31.8646,-9.85938 32.9063,-7.61458 32.9063,-4.6875 C32.9063,-0.197917 30.5807,4 25.9297,7.90625 C21.2786,11.8125 16.2813,13.7656 10.9375,13.7656 C7.8125,13.7656 5.17708,12.9531 3.03125,11.3281 C1.01042,9.56771 0,7.35417 0,4.6875 C0,0.322917 2.3125,-3.84375 6.9375,-7.8125 C11.5625,-11.7813 16.5729,-13.7656 21.9688,-13.7656"/>
<path class="" transform="matrix(0.992126,0,0,0.992126,1085.06,212.338)" d="M21.9688,-13.7656 C25.0938,-13.7656 27.6979,-12.9844 29.7813,-11.4219 C31.8646,-9.85938 32.9063,-7.61458 32.9063,-4.6875 C32.9063,-0.197917 30.5807,4 25.9297,7.90625 C21.2786,11.8125 16.2813,13.7656 10.9375,13.7656 C7.8125,13.7656 5.17708,12.9531 3.03125,11.3281 C1.01042,9.56771 0,7.35417 0,4.6875 C0,0.322917 2.3125,-3.84375 6.9375,-7.8125 C11.5625,-11.7813 16.5729,-13.7656 21.9688,-13.7656"/>
<path class="" transform="matrix(0.992126,0,0,0.992126,398.388,212.338)" d="M21.9688,-13.7656 C25.0938,-13.7656 27.6979,-12.9844 29.7813,-11.4219 C31.8646,-9.85938 32.9063,-7.61458 32.9063,-4.6875 C32.9063,-0.197917 30.5807,4 25.9297,7.90625 C21.2786,11.8125 16.2813,13.7656 10.9375,13.7656 C7.8125,13.7656 5.17708,12.9531 3.03125,11.3281 C1.01042,9.56771 0,7.35417 0,4.6875 C0,0.322917 2.3125,-3.84375 6.9375,-7.8125 C11.5625,-11.7813 16.5729,-13.7656 21.9688,-13.7656"/>
<path class="" transform="matrix(0.992126,0,0,0.992126,537.368,212.338)" d="M21.9688,-13.7656 C25.0938,-13.7656 27.6979,-12.9844 29.7813,-11.4219 C31.8646,-9.85938 32.9063,-7.61458 32.9063,-4.6875 C32.9063,-0.197917 30.5807,4 25.9297,7.90625 C21.2786,11.8125 16.2813,13.7656 10.9375,13.7656 C7.8125,13.7656 5.17708,12.9531 3.03125,11.3281 C1.01042,9.56771 0,7.35417 0,4.6875 C0,0.322917 2.3125,-3.84375 6.9375,-7.8125 C11.5625,-11.7813 16.5729,-13.7656 21.9688,-13.7656"/>
<path class="" transform="matrix(0.992126,0,0,0.992126,643.659,212.338)" d="M21.9688,-13.7656 C25.0938,-13.7656 27.6979,-12.9844 29.7813,-11.4219 C31.8646,-9.85938 32.9063,-7.61458 32.9063,-4.6875 C32.9063,-0.197917 30.5807,4 25.9297,7.90625 C21.2786,11.8125 16.2813,13.7656 10.9375,13.7656 C7.8125,13.7656 5.17708,12.9531 3.03125,11.3281 C1.01042,9.56771 0,7.35417 0,4.6875 C0,0.322917 2.3125,-3.84375 6.9375,-7.8125 C11.5625,-11.7813 16.5729,-13.7656 21.9688,-13.7656"/>
<path class="" transform="matrix(0.992126,0,0,0.992126,226.721,212.338)" d="M21.9688,-13.7656 C25.0938,-13.7656 27.6979,-12.9844 29.7813,-11.4219 C31.8646,-9.85938 32.9063,-7.61458 32.9063,-4.6875 C32.9063,-0.197917 30.5807,4 25.9297,7.90625 C21.2786,11.8125 16.2813,13.7656 10.9375,13.7656 C7.8125,13.7656 5.17708,12.9531 3.03125,11.3281 C1.01042,9.56771 0,7.35417 0,4.6875 C0,0.322917 2.3125,-3.84375 6.9375,-7.8125 C11.5625,-11.7813 16.5729,-13.7656 21.9688,-13.7656"/>
<path class="" transform="matrix(0.992126,0,0,0.992126,62.8802,501.14)" d="M49.0313,25 L39.8438,25 C39.125,25 38.7656,24.6771 38.7656,24.0313 L38.7656,-24.0313 C38.7656,-24.6771 39.125,-25 39.8438,-25 L49.0313,-25 C49.6771,-25 50,-24.6771 50,-24.0313 L50,24.0313 C50,24.6771 49.6771,25 49.0313,25 M26.9531,25 L17.6719,25 C17.026,25 16.7031,24.6771 16.7031,24.0313 L16.7031,-24.0313 C16.7031,-24.6771 17.026,-25 17.6719,-25 L26.9531,-25 C27.6719,-25 28.0313,-24.6771 28.0313,-24.0313 L28.0313,24.0313 C28.0313,24.6771 27.6719,25 26.9531,25"/>
<path class="" transform="matrix(0.992126,0,0,0.992126,62.8802,212.338)" d="M49.0313,25 L39.8438,25 C39.125,25 38.7656,24.6771 38.7656,24.0313 L38.7656,-24.0313 C38.7656,-24.6771 39.125,-25 39.8438,-25 L49.0313,-25 C49.6771,-25 50,-24.6771 50,-24.0313 L50,24.0313 C50,24.6771 49.6771,25 49.0313,25 M26.9531,25 L17.6719,25 C17.026,25 16.7031,24.6771 16.7031,24.0313 L16.7031,-24.0313 C16.7031,-24.6771 17.026,-25 17.6719,-25 L26.9531,-25 C27.6719,-25 28.0313,-24.6771 28.0313,-24.0313 L28.0313,24.0313 C28.0313,24.6771 27.6719,25 26.9531,25"/>
<path class="" transform="matrix(0.992126,0,0,0.992126,137.429,476.251)" d="M23.1484,-23.7344 C24.6432,-23.7344 26.0755,-23.9609 27.4453,-24.4141 C28.8151,-24.8672 29.7917,-25.0938 30.375,-25.0938 C30.9583,-25.0938 31.349,-24.7396 31.5469,-24.0313 C31.5469,-23.9583 31.4792,-23.7604 31.3438,-23.4375 L2.9375,9.57813 L19.625,9.57813 L19.625,-3.51563 C19.625,-5.14063 20.5729,-6.3125 22.4688,-7.03125 C24.4167,-7.75 26.6302,-10.6458 29.1094,-15.7188 C29.2969,-16.1146 29.5885,-16.3125 29.9844,-16.3125 C30.7656,-16.3125 31.2188,-15.8542 31.3438,-14.9375 L31.3438,9.57813 L38.4844,9.57813 C39.3906,9.57813 39.8776,10.0651 39.9453,11.0391 C40.013,12.013 39.526,12.5 38.4844,12.5 L31.3438,12.5 L31.3438,13.2813 C31.3438,15.8854 31.9948,18.099 33.2969,19.9219 C34.7969,21.7448 36.5573,22.6563 38.5781,22.6563 C39.3594,22.6563 39.75,23.0469 39.75,23.8281 C39.75,24.6094 39.2135,25 38.1406,25 C37.0677,25 35.0651,24.7891 32.1328,24.3672 C29.2005,23.9453 26.9375,23.7344 25.3438,23.7344 C23.75,23.7344 21.5365,23.9453 18.7031,24.3672 C15.8698,24.7891 13.7396,25 12.3125,25 C11.5313,25 11.1406,24.6094 11.1406,23.8281 C11.1406,23.0469 11.5313,22.6563 12.3125,22.6563 C14.3229,22.6563 16.0781,21.7448 17.5781,19.9219 C18.9427,18.0365 19.625,15.8229 19.625,13.2813 L19.625,12.5 L2.9375,12.5 C2.08333,12.5 1.34635,12.2734 0.726563,11.8203 C0.106771,11.3672 -0.203125,10.9453 -0.203125,10.5547 C-0.203125,10.1641 0.611979,8.99219 2.24219,7.03906 C3.8724,5.08594 6.20052,1.32552 9.22656,-4.24219 C12.2526,-9.8099 13.7656,-16.2083 13.7656,-23.4375 C13.7656,-24.4792 14.224,-25 15.1406,-25 C15.3385,-25 15.6484,-24.9349 16.0703,-24.8047 C16.4922,-24.6745 17.4036,-24.4635 18.8047,-24.1719 C20.2057,-23.8802 21.6536,-23.7344 23.1484,-23.7344"/>
<path class="" transform="matrix(0.992126,0,0,0.992126,137.429,526.028)" d="M23.1484,-23.7344 C24.6432,-23.7344 26.0755,-23.9609 27.4453,-24.4141 C28.8151,-24.8672 29.7917,-25.0938 30.375,-25.0938 C30.9583,-25.0938 31.349,-24.7396 31.5469,-24.0313 C31.5469,-23.9583 31.4792,-23.7604 31.3438,-23.4375 L2.9375,9.57813 L19.625,9.57813 L19.625,-3.51563 C19.625,-5.14063 20.5729,-6.3125 22.4688,-7.03125 C24.4167,-7.75 26.6302,-10.6458 29.1094,-15.7188 C29.2969,-16.1146 29.5885,-16.3125 29.9844,-16.3125 C30.7656,-16.3125 31.2188,-15.8542 31.3438,-14.9375 L31.3438,9.57813 L38.4844,9.57813 C39.3906,9.57813 39.8776,10.0651 39.9453,11.0391 C40.013,12.013 39.526,12.5 38.4844,12.5 L31.3438,12.5 L31.3438,13.2813 C31.3438,15.8854 31.9948,18.099 33.2969,19.9219 C34.7969,21.7448 36.5573,22.6563 38.5781,22.6563 C39.3594,22.6563 39.75,23.0469 39.75,23.8281 C39.75,24.6094 39.2135,25 38.1406,25 C37.0677,25 35.0651,24.7891 32.1328,24.3672 C29.2005,23.9453 26.9375,23.7344 25.3438,23.7344 C23.75,23.7344 21.5365,23.9453 18.7031,24.3672 C15.8698,24.7891 13.7396,25 12.3125,25 C11.5313,25 11.1406,24.6094 11.1406,23.8281 C11.1406,23.0469 11.5313,22.6563 12.3125,22.6563 C14.3229,22.6563 16.0781,21.7448 17.5781,19.9219 C18.9427,18.0365 19.625,15.8229 19.625,13.2813 L19.625,12.5 L2.9375,12.5 C2.08333,12.5 1.34635,12.2734 0.726563,11.8203 C0.106771,11.3672 -0.203125,10.9453 -0.203125,10.5547 C-0.203125,10.1641 0.611979,8.99219 2.24219,7.03906 C3.8724,5.08594 6.20052,1.32552 9.22656,-4.24219 C12.2526,-9.8099 13.7656,-16.2083 13.7656,-23.4375 C13.7656,-24.4792 14.224,-25 15.1406,-25 C15.3385,-25 15.6484,-24.9349 16.0703,-24.8047 C16.4922,-24.6745 17.4036,-24.4635 18.8047,-24.1719 C20.2057,-23.8802 21.6536,-23.7344 23.1484,-23.7344"/>
<path class="" transform="matrix(0.992126,0,0,0.992126,137.429,187.449)" d="M23.1484,-23.7344 C24.6432,-23.7344 26.0755,-23.9609 27.4453,-24.4141 C28.8151,-24.8672 29.7917,-25.0938 30.375,-25.0938 C30.9583,-25.0938 31.349,-24.7396 31.5469,-24.0313 C31.5469,-23.9583 31.4792,-23.7604 31.3438,-23.4375 L2.9375,9.57813 L19.625,9.57813 L19.625,-3.51563 C19.625,-5.14063 20.5729,-6.3125 22.4688,-7.03125 C24.4167,-7.75 26.6302,-10.6458 29.1094,-15.7188 C29.2969,-16.1146 29.5885,-16.3125 29.9844,-16.3125 C30.7656,-16.3125 31.2188,-15.8542 31.3438,-14.9375 L31.3438,9.57813 L38.4844,9.57813 C39.3906,9.57813 39.8776,10.0651 39.9453,11.0391 C40.013,12.013 39.526,12.5 38.4844,12.5 L31.3438,12.5 L31.3438,13.2813 C31.3438,15.8854 31.9948,18.099 33.2969,19.9219 C34.7969,21.7448 36.5573,22.6563 38.5781,22.6563 C39.3594,22.6563 39.75,23.0469 39.75,23.8281 C39.75,24.6094 39.2135,25 38.1406,25 C37.0677,25 35.0651,24.7891 32.1328,24.3672 C29.2005,23.9453 26.9375,23.7344 25.3438,23.7344 C23.75,23.7344 21.5365,23.9453 18.7031,24.3672 C15.8698,24.7891 13.7396,25 12.3125,25 C11.5313,25 11.1406,24.6094 11.1406,23.8281 C11.1406,23.0469 11.5313,22.6563 12.3125,22.6563 C14.3229,22.6563 16.0781,21.7448 17.5781,19.9219 C18.9427,18.0365 19.625,15.8229 19.625,13.2813 L19.625,12.5 L2.9375,12.5 C2.08333,12.5 1.34635,12.2734 0.726563,11.8203 C0.106771,11.3672 -0.203125,10.9453 -0.203125,10.5547 C-0.203125,10.1641 0.611979,8.99219 2.24219,7.03906 C3.8724,5.08594 6.20052,1.32552 9.22656,-4.24219 C12.2526,-9.8099 13.7656,-16.2083 13.7656,-23.4375 C13.7656,-24.4792 14.224,-25 15.1406,-25 C15.3385,-25 15.6484,-24.9349 16.0703,-24.8047 C16.4922,-24.6745 17.4036,-24.4635 18.8047,-24.1719 C20.2057,-23.8802 21.6536,-23.7344 23.1484,-23.7344"/>
<path class="" transform="matrix(0.992126,0,0,0.992126,137.429,237.226)" d="M23.1484,-23.7344 C24.6432,-23.7344 26.0755,-23.9609 27.4453,-24.4141 C28.8151,-24.8672 29.7917,-25.0938 30.375,-25.0938 C30.9583,-25.0938 31.349,-24.7396 31.5469,-24.0313 C31.5469,-23.9583 31.4792,-23.7604 31.3438,-23.4375 L2.9375,9.57813 L19.625,9.57813 L19.625,-3.51563 C19.625,-5.14063 20.5729,-6.3125 22.4688,-7.03125 C24.4167,-7.75 26.6302,-10.6458 29.1094,-15.7188 C29.2969,-16.1146 29.5885,-16.3125 29.9844,-16.3125 C30.7656,-16.3125 31.2188,-15.8542 31.3438,-14.9375 L31.3438,9.57813 L38.4844,9.57813 C39.3906,9.57813 39.8776,10.0651 39.9453,11.0391 C40.013,12.013 39.526,12.5 38.4844,12.5 L31.3438,12.5 L31.3438,13.2813 C31.3438,15.8854 31.9948,18.099 33.2969,19.9219 C34.7969,21.7448 36.5573,22.6563 38.5781,22.6563 C39.3594,22.6563 39.75,23.0469 39.75,23.8281 C39.75,24.6094 39.2135,25 38.1406,25 C37.0677,25 35.0651,24.7891 32.1328,24.3672 C29.2005,23.9453 26.9375,23.7344 25.3438,23.7344 C23.75,23.7344 21.5365,23.9453 18.7031,24.3672 C15.8698,24.7891 13.7396,25 12.3125,25 C11.5313,25 11.1406,24.6094 11.1406,23.8281 C11.1406,23.0469 11.5313,22.6563 12.3125,22.6563 C14.3229,22.6563 16.0781,21.7448 17.5781,19.9219 C18.9427,18.0365 19.625,15.8229 19.625,13.2813 L19.625,12.5 L2.9375,12.5 C2.08333,12.5 1.34635,12.2734 0.726563,11.8203 C0.106771,11.3672 -0.203125,10.9453 -0.203125,10.5547 C-0.203125,10.1641 0.611979,8.99219 2.24219,7.03906 C3.8724,5.08594 6.20052,1.32552 9.22656,-4.24219 C12.2526,-9.8099 13.7656,-16.2083 13.7656,-23.4375 C13.7656,-24.4792 14.224,-25 15.1406,-25 C15.3385,-25 15.6484,-24.9349 16.0703,-24.8047 C16.4922,-24.6745 17.4036,-24.4635 18.8047,-24.1719 C20.2057,-23.8802 21.6536,-23.7344 23.1484,-23.7344"/>
<path class="" fill-rule="evenodd" d="M1982.86,566.868 L2208.94,566.868 L2208.94,584.23 L1982.86,584.23 L1982.86,566.868 "/>
<path class="" fill-rule="evenodd" d="M2120,537.352 L2208.94,537.352 L2208.94,554.715 L2120,554.715 L2120,537.352 "/>
<path class="" fill-rule="evenodd" d="M1674.28,566.868 L1900.37,566.868 L1900.37,584.23 L1674.28,584.23 L1674.28,566.868 "/>
<path class="" fill-rule="evenodd" d="M1811.43,537.352 L1900.37,537.352 L1900.37,554.715 L1811.43,554.715 L1811.43,537.352 "/>
<path class="" fill-rule="evenodd" d="M749.95,566.868 L1033.8,566.868 L1033.8,584.23 L749.95,584.23 L749.95,566.868 "/>
<path class="" fill-rule="evenodd" d="M888.929,537.352 L1033.8,537.352 L1033.8,554.715 L888.929,554.715 L888.929,537.352 "/>
<path class="" fill-rule="evenodd" d="M398.388,563.327 L646.883,563.327 L646.883,580.689 L398.388,580.689 L398.388,563.327 "/>
<path class="" fill-rule="evenodd" d="M537.368,533.812 L646.883,533.812 L646.883,551.174 L537.368,551.174 L537.368,533.812 "/>
<path class="" fill-rule="evenodd" d="M1982.86,278.066 L2208.94,278.066 L2208.94,295.428 L1982.86,295.428 L1982.86,278.066 "/>
<path class="" fill-rule="evenodd" d="M2120,248.55 L2208.94,248.55 L2208.94,265.913 L2120,265.913 L2120,248.55 "/>
<path class="" fill-rule="evenodd" d="M1172.23,278.066 L1314.43,278.066 L1314.43,295.428 L1172.23,295.428 L1172.23,278.066 "/>
<path class="" fill-rule="evenodd" d="M749.95,278.066 L1088.28,278.066 L1088.28,295.428 L749.95,295.428 L749.95,278.066 "/>
<path class="" fill-rule="evenodd" d="M888.929,248.55 L1088.28,248.55 L1088.28,265.913 L888.929,265.913 L888.929,248.55 "/>
<path class="" fill-rule="evenodd" d="M398.388,278.066 L646.883,278.066 L646.883,295.428 L398.388,295.428 L398.388,278.066 "/>
<path class="" fill-rule="evenodd" d="M537.368,248.55 L646.883,248.55 L646.883,265.913 L537.368,265.913 L537.368,248.55 "/>
<path class="" d="M981.979,326.723 C983.12,326.208 983.698,324.864 983.198,323.708 C983.12,323.52 983.057,323.333 983.057,323.208 C982.995,322.505 984.213,320.958 986.448,320.833 C989.073,320.708 990.416,320.895 990.682,324.614 C990.807,327.036 986.963,328.005 985.948,328.13 C984.666,328.38 983.901,329.536 984.026,330.692 C984.151,331.911 985.37,332.676 986.323,332.739 C987.229,332.739 992.338,332.926 992.854,337.348 C992.916,337.661 992.979,337.989 992.979,338.301 C993.245,343.161 991.12,344.77 987.026,344.958 C985.682,345.02 984.463,344.645 983.573,344.067 C981.916,342.973 981.338,341.442 982.557,339.583 C983.26,338.567 982.932,337.083 981.916,336.38 C980.885,335.676 979.479,336.005 978.776,337.02 C976.026,341.176 977.62,345.661 981.01,347.911 C982.745,349.051 984.979,349.692 987.291,349.567 C993.307,349.255 997.916,345.411 997.526,338.051 C997.526,337.598 997.526,337.223 997.463,336.77 C997.073,333.38 995.229,331.208 993.041,329.864 C994.323,328.645 995.354,326.723 995.229,324.348 C994.838,317.833 990.229,315.973 986.198,316.223 C982.682,316.411 978.135,318.973 978.448,323.52 C978.526,324.161 978.713,324.926 978.963,325.567 C979.479,326.723 980.823,327.239 981.979,326.723"/>
<polyline class="" fill="none" stroke="#000000" stroke-width="2.48" stroke-linecap="square" stroke-linejoin="bevel" points="876.527,309.07 876.527,333.873 963.093,333.295"/>
<polyline class="" fill="none" stroke="#000000" stroke-width="2.48" stroke-linecap="square" stroke-linejoin="bevel" points="1010.9,332.975 1117.71,332.261 1117.71,307.458"/>
<path class="" d="M60.9515,11.054 L57.1546,11.054 L57.1546,62.7883 C55.8577,62.0071 54.264,61.5227 52.4358,61.3352 C51.9358,61.2727 51.4202,61.2571 50.9046,61.2571 C47.764,61.2571 44.4046,62.1477 41.2483,63.8508 C37.5765,65.8352 34.6546,68.6633 32.9983,71.8196 C31.3421,74.9915 31.1702,78.1165 32.514,80.6008 C34.1077,83.554 37.5608,85.1008 41.6546,85.1008 C44.7015,85.1008 48.0765,84.2415 51.3265,82.5071 C57.2327,79.304 60.9202,74.0383 60.9515,69.429 L60.9515,11.054 "/>
<path class="" d="M122.826,54.7415 L84.7483,54.7415 L84.7483,48.1165 L122.826,48.1165 L122.826,54.7415 M122.826,71.5852 L84.7483,71.5852 L84.7483,64.9602 L122.826,64.9602 L122.826,71.5852 M172.78,59.9915 L177.139,59.9915 L177.139,67.6477 L172.78,67.6477 L172.78,77.5852 L162.78,77.5852 L162.78,67.6477 L145.67,67.6477 L145.67,59.8508 C149.399,53.9654 155.243,45.8248 163.201,35.429 L167.264,30.1165 L172.78,30.1165 L172.78,59.9915 M162.92,59.9915 L162.92,39.4915 L148.498,59.9915 L162.92,59.9915 M180.514,54.1321 C180.514,47.3613 182.009,41.6659 184.998,37.0461 C187.988,32.4264 191.691,30.1165 196.108,30.1165 C200.566,30.1165 204.28,32.4264 207.248,37.0461 C210.217,41.6659 211.701,47.429 211.701,54.3352 C211.701,61.2831 210.23,67.0435 207.287,71.6165 C204.345,76.1894 200.639,78.4758 196.17,78.4758 C191.576,78.4758 187.819,76.1998 184.897,71.6477 C181.975,67.0956 180.514,61.2571 180.514,54.1321 M196.17,76.554 C197.691,76.554 198.842,75.5175 199.623,73.4446 C200.405,71.3717 200.795,67.6477 200.795,62.2727 L200.795,46.4602 C200.795,41.356 200.428,37.6764 199.694,35.4211 C198.959,33.1659 197.743,32.0383 196.045,32.0383 C194.389,32.0383 193.204,33.1425 192.491,35.3508 C191.777,37.5592 191.42,41.2623 191.42,46.4602 L191.42,62.2727 C191.42,67.3769 191.787,71.0331 192.522,73.2415 C193.256,75.4498 194.472,76.554 196.17,76.554"/>
<path class="" fill="#3465a4" stroke="#729fcf" stroke-width="4.96" stroke-linecap="square" stroke-linejoin="miter" stroke-miterlimit="2" fill-rule="evenodd" d="M1473.26,631.305 C1473.26,624.678 1478.86,619.305 1485.77,619.305 L1709.53,619.305 C1716.43,619.305 1722.03,624.678 1722.03,631.305 L1722.03,683.069 C1722.03,689.696 1716.43,695.069 1709.53,695.069 L1485.77,695.069 C1478.86,695.069 1473.26,689.696 1473.26,683.069 L1473.26,631.305 "/>
<path class="" fill="#ffffff" d="M1511.1,668.64 C1511.1,668.484 1511.05,668.281 1510.94,668.14 L1502.8,654.484 L1502.74,654.39 C1506.69,653.031 1509.74,649.64 1509.74,644.843 C1509.74,642.187 1509.05,639.984 1507.69,638.328 C1505.49,635.64 1501.65,634.734 1497.15,634.734 L1489.94,634.734 C1489.19,634.734 1488.94,635.031 1488.94,635.828 L1488.94,668.14 C1488.94,668.843 1489.24,669.187 1489.9,669.187 L1492.65,669.187 C1493.3,669.187 1493.6,668.781 1493.6,668.14 L1493.6,655.187 L1498.4,655.187 L1505.9,668.281 C1506.24,668.937 1506.69,669.187 1507.44,669.187 L1510.44,669.187 C1510.9,669.187 1511.1,668.937 1511.1,668.64 M1505.05,644.89 C1505.05,649.343 1501.85,651.687 1497.44,651.687 L1493.6,651.687 L1493.6,638.281 L1496.8,638.281 C1501.94,638.281 1505.05,639.984 1505.05,644.89 M1534.43,656.343 L1534.43,655.484 C1534.43,652.234 1533.58,649.281 1531.58,647.234 C1529.93,645.531 1527.63,644.484 1524.79,644.484 C1517.58,644.484 1513.13,649.937 1513.13,657.093 C1513.13,664.64 1517.22,669.687 1524.93,669.687 C1527.22,669.687 1530.43,669.234 1532.58,668.234 C1532.97,668.031 1533.18,667.89 1533.18,667.593 C1533.18,667.531 1533.18,667.437 1533.13,667.343 L1532.58,665.484 C1532.47,665.14 1532.22,665.031 1531.97,665.031 C1531.83,665.031 1531.68,665.093 1531.47,665.14 C1529.83,665.781 1527.54,666.187 1525.47,666.187 C1520.43,666.187 1517.72,662.484 1517.58,657.734 L1532.93,657.734 C1534.22,657.734 1534.43,657.484 1534.43,656.343 M1530.22,654.843 L1517.68,654.843 C1518.08,651.14 1520.43,647.781 1524.58,647.781 C1528.38,647.781 1530.22,650.734 1530.22,654.14 L1530.22,654.843 M1561.07,656.89 C1561.07,650.437 1557.91,644.484 1550.82,644.484 C1547.97,644.484 1544.97,645.781 1543.36,647.687 L1543.36,645.937 C1543.36,645.234 1542.97,645.031 1542.22,645.031 L1540.32,645.031 C1539.66,645.031 1539.36,645.234 1539.36,645.937 L1539.36,678.89 C1539.36,679.593 1539.66,679.937 1540.32,679.937 L1542.52,679.937 C1543.16,679.937 1543.61,679.734 1543.61,678.984 L1543.61,666.89 C1545.11,668.734 1547.77,669.687 1550.22,669.687 C1557.47,669.687 1561.07,663.531 1561.07,656.89 M1556.61,656.984 C1556.61,661.437 1554.82,666.343 1549.66,666.343 C1547.22,666.343 1544.66,664.781 1543.61,662.843 L1543.61,651.093 C1544.86,649.281 1547.61,647.89 1549.97,647.89 C1555.16,647.89 1556.61,652.64 1556.61,656.984 M1586.3,656.343 L1586.3,655.484 C1586.3,652.234 1585.46,649.281 1583.46,647.234 C1581.8,645.531 1579.51,644.484 1576.66,644.484 C1569.46,644.484 1565.01,649.937 1565.01,657.093 C1565.01,664.64 1569.1,669.687 1576.8,669.687 C1579.1,669.687 1582.3,669.234 1584.46,668.234 C1584.85,668.031 1585.05,667.89 1585.05,667.593 C1585.05,667.531 1585.05,667.437 1585.01,667.343 L1584.46,665.484 C1584.35,665.14 1584.1,665.031 1583.85,665.031 C1583.71,665.031 1583.55,665.093 1583.35,665.14 C1581.71,665.781 1579.41,666.187 1577.35,666.187 C1572.3,666.187 1569.6,662.484 1569.46,657.734 L1584.8,657.734 C1586.1,657.734 1586.3,657.484 1586.3,656.343 M1582.1,654.843 L1569.55,654.843 C1569.96,651.14 1572.3,647.781 1576.46,647.781 C1580.26,647.781 1582.1,650.734 1582.1,654.14 L1582.1,654.843 M1604.69,667.984 C1604.69,667.937 1604.65,667.89 1604.65,667.781 L1604.24,666.187 C1604.15,665.843 1603.9,665.687 1603.65,665.687 C1603.54,665.687 1603.44,665.687 1603.35,665.734 C1602.54,665.984 1601.35,666.343 1600.19,666.343 C1598.9,666.343 1597.99,665.937 1597.44,665.343 C1596.69,664.484 1596.6,663.187 1596.6,661.531 L1596.6,648.031 L1602.44,648.031 C1602.94,648.031 1603.19,647.89 1603.19,647.39 L1603.19,645.687 C1603.19,645.14 1602.94,645.031 1602.49,645.031 L1596.6,645.031 L1596.6,638.89 C1596.6,638.328 1596.35,637.984 1595.85,637.984 C1595.79,637.984 1595.69,637.984 1595.65,637.984 L1593.19,638.328 C1592.54,638.437 1592.35,638.64 1592.35,639.328 L1592.35,645.031 L1589.49,645.031 C1589.04,645.031 1588.85,645.234 1588.85,645.734 L1588.85,647.281 C1588.85,647.937 1588.94,648.031 1589.6,648.031 L1592.35,648.031 L1592.35,661.14 C1592.35,664.234 1592.44,666.234 1593.9,667.843 C1595.04,669.093 1597.19,669.687 1599.35,669.687 C1601.04,669.687 1602.85,669.281 1603.99,668.781 C1604.4,668.64 1604.69,668.39 1604.69,667.984 M1613.88,639.14 C1613.88,637.687 1612.63,636.734 1611.29,636.734 C1609.93,636.734 1608.72,637.687 1608.72,639.14 C1608.72,640.578 1609.93,641.531 1611.29,641.531 C1612.58,641.531 1613.88,640.578 1613.88,639.14 M1613.43,668.14 L1613.43,646.031 C1613.43,645.343 1613.13,645.031 1612.47,645.031 L1610.18,645.031 C1609.54,645.031 1609.18,645.343 1609.18,646.031 L1609.18,668.14 C1609.18,668.843 1609.54,669.187 1610.18,669.187 L1612.47,669.187 C1613.13,669.187 1613.43,668.843 1613.43,668.14 M1638.13,667.593 C1638.13,667.437 1638.07,667.234 1638.02,667.031 L1637.57,665.64 C1637.47,665.281 1637.32,665.14 1637.07,665.14 C1636.97,665.14 1636.82,665.187 1636.68,665.234 C1635.07,665.937 1633.22,666.437 1631.07,666.437 C1625.72,666.437 1623.52,662.031 1623.52,656.937 C1623.52,651.343 1626.52,647.781 1631.27,647.781 C1633.22,647.781 1634.93,648.343 1636.47,649.031 C1636.63,649.14 1636.82,649.187 1636.93,649.187 C1637.22,649.187 1637.38,648.937 1637.47,648.593 L1637.88,646.984 C1637.93,646.843 1637.97,646.734 1637.97,646.593 C1637.97,646.281 1637.82,646.093 1637.47,645.937 C1635.72,645.031 1633.22,644.484 1631.07,644.484 C1623.57,644.484 1619.13,649.781 1619.13,657.14 C1619.13,664.593 1622.93,669.687 1630.77,669.687 C1633.07,669.687 1635.38,669.234 1637.52,668.234 C1637.97,668.031 1638.13,667.89 1638.13,667.593 M1647.36,639.14 C1647.36,637.687 1646.11,636.734 1644.77,636.734 C1643.41,636.734 1642.21,637.687 1642.21,639.14 C1642.21,640.578 1643.41,641.531 1644.77,641.531 C1646.07,641.531 1647.36,640.578 1647.36,639.14 M1646.91,668.14 L1646.91,646.031 C1646.91,645.343 1646.61,645.031 1645.96,645.031 L1643.66,645.031 C1643.02,645.031 1642.66,645.343 1642.66,646.031 L1642.66,668.14 C1642.66,668.843 1643.02,669.187 1643.66,669.187 L1645.96,669.187 C1646.61,669.187 1646.91,668.843 1646.91,668.14 M1668.66,636.734 C1668.66,636.578 1668.61,636.328 1668.46,636.14 L1667.51,634.64 C1667.26,634.281 1667.01,634.14 1666.76,634.14 C1666.55,634.14 1666.36,634.234 1666.05,634.437 L1659.05,638.937 C1658.71,639.14 1658.61,639.39 1658.61,639.578 C1658.61,639.734 1658.66,639.89 1658.8,640.078 L1659.3,640.828 C1659.51,641.14 1659.76,641.281 1660.01,641.281 C1660.16,641.281 1660.36,641.234 1660.61,641.14 L1668.16,637.39 C1668.51,637.234 1668.66,636.984 1668.66,636.734 M1675.46,657.093 C1675.46,649.843 1671.96,644.484 1664.21,644.484 C1656.76,644.484 1652.71,649.984 1652.71,657.031 C1652.71,664.187 1656.16,669.687 1663.91,669.687 C1671.36,669.687 1675.46,664.14 1675.46,657.093 M1671.05,657.14 C1671.05,661.781 1669.21,666.39 1663.96,666.39 C1658.66,666.39 1657.11,661.531 1657.11,656.937 C1657.11,652.531 1658.76,647.781 1664.16,647.781 C1669.36,647.781 1671.05,652.484 1671.05,657.14 M1701.05,668.14 L1701.05,653.437 C1701.05,647.984 1698.85,644.484 1693.1,644.484 C1690.19,644.484 1687.19,645.531 1684.9,647.484 L1684.85,645.937 C1684.85,645.281 1684.49,645.031 1683.9,645.031 L1681.69,645.031 C1680.99,645.031 1680.74,645.343 1680.74,646.031 L1680.74,668.187 C1680.74,668.843 1681.1,669.187 1681.69,669.187 L1684.05,669.187 C1684.69,669.187 1684.99,668.843 1684.99,668.14 L1684.99,650.937 C1686.74,649.343 1689.6,648.031 1691.9,648.031 C1695.9,648.031 1696.8,650.593 1696.8,654.14 L1696.8,668.14 C1696.8,668.843 1697.1,669.187 1697.74,669.187 L1700.1,669.187 C1700.8,669.187 1701.05,668.843 1701.05,668.14"/>
<path class="" fill="#3465a4" stroke="#729fcf" stroke-width="4.96" stroke-linecap="square" stroke-linejoin="miter" stroke-miterlimit="2" fill-rule="evenodd" d="M779.749,634.061 C779.749,627.434 785.347,622.061 792.251,622.061 L1147.01,622.061 C1153.92,622.061 1159.51,627.434 1159.51,634.061 L1159.51,740.825 C1159.51,747.452 1153.92,752.825 1147.01,752.825 L792.251,752.825 C785.347,752.825 779.749,747.452 779.749,740.825 L779.749,634.061 "/>
<path class="" fill="#ffffff" d="M815.835,662.896 C815.835,658.599 812.881,655.146 808.881,654.193 C812.085,653.193 814.538,649.99 814.538,646.443 C814.538,640.943 809.631,637.896 804.538,637.896 C801.428,637.896 798.631,638.646 796.131,640.146 C795.835,640.334 795.678,640.49 795.678,640.74 C795.678,640.834 795.725,640.943 795.788,641.084 L796.585,642.896 C796.725,643.24 796.881,643.396 797.085,643.396 C797.225,643.396 797.381,643.334 797.631,643.193 C799.538,642.146 801.835,641.49 803.725,641.49 C807.225,641.49 809.788,643.24 809.788,646.74 C809.788,650.849 806.975,652.693 802.835,652.693 L801.381,652.693 C800.725,652.693 800.585,652.99 800.585,653.537 L800.585,655.24 C800.585,655.787 800.788,656.146 801.428,656.146 L802.881,656.146 C807.288,656.146 811.085,658.193 811.085,662.896 C811.085,667.099 808.131,669.74 803.835,669.74 C801.428,669.74 799.131,669.193 797.038,668.24 C796.881,668.193 796.725,668.146 796.585,668.146 C796.335,668.146 796.085,668.24 795.975,668.537 L795.178,670.646 C795.131,670.787 795.085,670.896 795.085,670.99 C795.085,671.24 795.288,671.49 795.678,671.693 C798.131,672.99 801.131,673.443 804.178,673.443 C810.428,673.443 815.835,669.287 815.835,662.896 M842.413,660.099 L842.413,659.24 C842.413,655.99 841.569,653.037 839.569,650.99 C837.913,649.287 835.616,648.24 832.772,648.24 C825.569,648.24 821.116,653.693 821.116,660.849 C821.116,668.396 825.21,673.443 832.913,673.443 C835.21,673.443 838.413,672.99 840.569,671.99 C840.96,671.787 841.163,671.646 841.163,671.349 C841.163,671.287 841.163,671.193 841.116,671.099 L840.569,669.24 C840.46,668.896 840.21,668.787 839.96,668.787 C839.819,668.787 839.663,668.849 839.46,668.896 C837.819,669.537 835.522,669.943 833.46,669.943 C828.413,669.943 825.71,666.24 825.569,661.49 L840.913,661.49 C842.21,661.49 842.413,661.24 842.413,660.099 M838.21,658.599 L825.663,658.599 C826.069,654.896 828.413,651.537 832.569,651.537 C836.366,651.537 838.21,654.49 838.21,657.896 L838.21,658.599 M859.147,649.24 C859.147,649.146 859.147,649.099 859.147,648.99 C859.147,648.693 859.053,648.443 858.756,648.396 C858.256,648.287 857.647,648.24 857.303,648.24 C854.647,648.24 852.756,649.74 851.553,651.396 L851.506,649.693 C851.506,649.037 851.147,648.787 850.506,648.787 L848.35,648.787 C847.756,648.787 847.397,649.037 847.397,649.787 L847.397,671.896 C847.397,672.599 847.71,672.943 848.35,672.943 L850.71,672.943 C851.35,672.943 851.647,672.537 851.647,671.896 L851.647,654.849 C852.96,652.99 854.897,651.849 856.647,651.849 C857.147,651.849 857.647,651.896 858.1,651.99 C858.147,651.99 858.21,651.99 858.256,651.99 C858.553,651.99 858.756,651.849 858.803,651.49 L859.147,649.24 M894.991,649.287 C894.991,648.99 894.788,648.787 894.335,648.787 L891.585,648.787 C890.991,648.787 890.741,648.99 890.538,649.537 L884.241,668.146 L877.741,649.443 C877.585,648.99 877.288,648.787 876.788,648.787 L873.491,648.787 C873.085,648.787 872.928,648.99 872.928,649.287 C872.928,649.396 872.928,649.537 872.991,649.646 L881.928,673.349 L880.631,676.537 C879.585,679.146 877.928,680.24 875.178,680.24 C874.678,680.24 873.991,680.146 873.428,680.099 C873.335,680.099 873.288,680.099 873.241,680.099 C872.788,680.099 872.538,680.287 872.491,680.787 L872.241,682.693 C872.241,682.787 872.241,682.849 872.241,682.943 C872.241,683.287 872.335,683.599 872.788,683.693 C873.538,683.849 874.288,683.896 875.038,683.896 C880.428,683.896 882.928,681.787 885.131,675.896 L894.881,649.74 C894.928,649.599 894.991,649.443 894.991,649.287 M931.163,671.99 L931.163,653.099 C931.163,652.349 930.866,652.146 930.163,652.146 L927.71,652.146 C927.069,652.146 926.663,652.287 926.663,653.099 L926.663,661.099 L914.366,661.099 L923.913,639.74 C924.069,639.443 924.116,639.146 924.116,638.943 C924.116,638.646 923.96,638.49 923.569,638.49 L920.71,638.49 C920.006,638.49 919.71,638.943 919.46,639.49 L909.913,660.443 C909.46,661.443 909.366,661.849 909.366,662.537 L909.366,663.74 C909.366,664.49 909.569,664.943 910.46,664.943 L926.663,664.943 L926.663,671.943 C926.663,672.693 927.006,672.943 927.663,672.943 L930.256,672.943 C930.866,672.943 931.163,672.693 931.163,671.99 M959.397,660.849 C959.397,653.599 955.897,648.24 948.147,648.24 C940.694,648.24 936.647,653.74 936.647,660.787 C936.647,667.943 940.1,673.443 947.85,673.443 C955.303,673.443 959.397,667.896 959.397,660.849 M954.991,660.896 C954.991,665.537 953.147,670.146 947.897,670.146 C942.6,670.146 941.053,665.287 941.053,660.693 C941.053,656.287 942.694,651.537 948.1,651.537 C953.303,651.537 954.991,656.24 954.991,660.896 M989.678,671.74 C989.678,671.693 989.631,671.646 989.631,671.537 L989.225,669.943 C989.131,669.599 988.881,669.443 988.631,669.443 C988.522,669.443 988.428,669.443 988.335,669.49 C987.522,669.74 986.335,670.099 985.178,670.099 C983.881,670.099 982.975,669.693 982.428,669.099 C981.678,668.24 981.585,666.943 981.585,665.287 L981.585,651.787 L987.428,651.787 C987.928,651.787 988.178,651.646 988.178,651.146 L988.178,649.443 C988.178,648.896 987.928,648.787 987.475,648.787 L981.585,648.787 L981.585,642.646 C981.585,642.084 981.335,641.74 980.835,641.74 C980.772,641.74 980.678,641.74 980.631,641.74 L978.178,642.084 C977.522,642.193 977.335,642.396 977.335,643.084 L977.335,648.787 L974.475,648.787 C974.022,648.787 973.835,648.99 973.835,649.49 L973.835,651.037 C973.835,651.693 973.928,651.787 974.585,651.787 L977.335,651.787 L977.335,664.896 C977.335,667.99 977.428,669.99 978.881,671.599 C980.022,672.849 982.178,673.443 984.335,673.443 C986.022,673.443 987.835,673.037 988.975,672.537 C989.381,672.396 989.678,672.146 989.678,671.74 M998.866,642.896 C998.866,641.443 997.616,640.49 996.272,640.49 C994.913,640.49 993.71,641.443 993.71,642.896 C993.71,644.334 994.913,645.287 996.272,645.287 C997.569,645.287 998.866,644.334 998.866,642.896 M998.413,671.896 L998.413,649.787 C998.413,649.099 998.116,648.787 997.46,648.787 L995.163,648.787 C994.522,648.787 994.163,649.099 994.163,649.787 L994.163,671.896 C994.163,672.599 994.522,672.943 995.163,672.943 L997.46,672.943 C998.116,672.943 998.413,672.599 998.413,671.896 M1025.51,660.099 L1025.51,659.24 C1025.51,655.99 1024.66,653.037 1022.66,650.99 C1021.01,649.287 1018.71,648.24 1015.87,648.24 C1008.66,648.24 1004.21,653.693 1004.21,660.849 C1004.21,668.396 1008.3,673.443 1016.01,673.443 C1018.3,673.443 1021.51,672.99 1023.66,671.99 C1024.05,671.787 1024.26,671.646 1024.26,671.349 C1024.26,671.287 1024.26,671.193 1024.21,671.099 L1023.66,669.24 C1023.55,668.896 1023.3,668.787 1023.05,668.787 C1022.91,668.787 1022.76,668.849 1022.55,668.896 C1020.91,669.537 1018.62,669.943 1016.55,669.943 C1011.51,669.943 1008.8,666.24 1008.66,661.49 L1024.01,661.49 C1025.3,661.49 1025.51,661.24 1025.51,660.099 M1021.3,658.599 L1008.76,658.599 C1009.16,654.896 1011.51,651.537 1015.66,651.537 C1019.46,651.537 1021.3,654.49 1021.3,657.896 L1021.3,658.599 M1065.26,671.896 L1065.26,657.99 C1065.26,655.193 1064.8,652.99 1063.76,651.349 C1062.55,649.49 1060.44,648.24 1057.1,648.24 C1054.19,648.24 1051.05,649.287 1048.74,651.349 C1047.44,649.24 1044.99,648.24 1042.24,648.24 C1039.55,648.24 1036.74,649.349 1034.65,651.24 L1034.6,649.693 C1034.6,649.037 1034.19,648.787 1033.6,648.787 L1031.44,648.787 C1030.85,648.787 1030.49,649.146 1030.49,649.787 L1030.49,671.896 C1030.49,672.599 1030.8,672.943 1031.44,672.943 L1033.8,672.943 C1034.44,672.943 1034.74,672.599 1034.74,671.896 L1034.74,654.693 C1036.55,653.037 1038.94,651.74 1041.24,651.74 C1045.19,651.74 1045.94,654.396 1045.94,657.849 L1045.94,671.896 C1045.94,672.599 1046.3,672.943 1046.94,672.943 L1049.24,672.943 C1049.9,672.943 1050.19,672.599 1050.19,671.896 L1050.19,659.599 C1050.19,658.037 1050.1,655.037 1049.8,654.099 C1051.55,652.74 1054.01,651.74 1056.05,651.74 C1060.1,651.74 1061.01,654.24 1061.01,657.849 L1061.01,671.896 C1061.01,672.599 1061.35,672.943 1062.01,672.943 L1064.3,672.943 C1064.94,672.943 1065.26,672.599 1065.26,671.896 M1093.58,660.646 C1093.58,654.193 1090.43,648.24 1083.33,648.24 C1080.49,648.24 1077.49,649.537 1075.88,651.443 L1075.88,649.693 C1075.88,648.99 1075.49,648.787 1074.74,648.787 L1072.83,648.787 C1072.18,648.787 1071.88,648.99 1071.88,649.693 L1071.88,682.646 C1071.88,683.349 1072.18,683.693 1072.83,683.693 L1075.04,683.693 C1075.68,683.693 1076.13,683.49 1076.13,682.74 L1076.13,670.646 C1077.63,672.49 1080.29,673.443 1082.74,673.443 C1089.99,673.443 1093.58,667.287 1093.58,660.646 M1089.13,660.74 C1089.13,665.193 1087.33,670.099 1082.18,670.099 C1079.74,670.099 1077.18,668.537 1076.13,666.599 L1076.13,654.849 C1077.38,653.037 1080.13,651.646 1082.49,651.646 C1087.68,651.646 1089.13,656.396 1089.13,660.74 M1120.27,660.849 C1120.27,653.599 1116.77,648.24 1109.02,648.24 C1101.57,648.24 1097.52,653.74 1097.52,660.787 C1097.52,667.943 1100.98,673.443 1108.73,673.443 C1116.18,673.443 1120.27,667.896 1120.27,660.849 M1115.87,660.896 C1115.87,665.537 1114.02,670.146 1108.77,670.146 C1103.48,670.146 1101.93,665.287 1101.93,660.693 C1101.93,656.287 1103.57,651.537 1108.98,651.537 C1114.18,651.537 1115.87,656.24 1115.87,660.896 M1140.3,665.99 C1140.3,662.787 1138.05,660.787 1135.3,659.646 L1131.41,657.99 C1129.3,657.099 1128.3,656.287 1128.3,654.599 C1128.3,652.896 1129.76,651.49 1132.41,651.49 C1134.01,651.49 1136.37,652.099 1137.66,652.693 C1137.8,652.74 1137.96,652.787 1138.05,652.787 C1138.3,652.787 1138.51,652.646 1138.62,652.287 L1139.16,650.537 C1139.21,650.396 1139.26,650.24 1139.26,650.146 C1139.26,649.943 1139.12,649.787 1138.8,649.646 C1136.55,648.599 1134.46,648.24 1132.3,648.24 C1127.91,648.24 1123.91,650.49 1123.91,654.896 C1123.91,658.037 1126.12,660.037 1129.05,661.193 L1132.41,662.49 C1134.71,663.396 1136.16,664.443 1136.16,666.396 C1136.16,668.74 1134.21,670.146 1131.3,670.146 C1129.62,670.146 1127.21,669.443 1125.37,668.646 C1125.26,668.599 1125.16,668.599 1125.05,668.599 C1124.8,668.599 1124.62,668.787 1124.51,669.099 L1123.87,670.896 C1123.8,670.99 1123.8,671.099 1123.8,671.193 C1123.8,671.443 1123.96,671.693 1124.3,671.849 C1125.96,672.599 1128.62,673.443 1131.16,673.443 C1136.46,673.443 1140.3,670.599 1140.3,665.99"/>
<path class="" fill="#ffffff" d="M816.288,725.896 L816.288,692.24 C816.288,691.646 816.038,691.396 815.538,691.396 C815.428,691.396 815.381,691.396 815.288,691.396 L812.835,691.74 C812.178,691.834 812.038,692.146 812.038,692.787 L812.038,704.99 C810.585,703.24 807.835,702.193 805.538,702.193 C798.928,702.193 794.631,707.646 794.631,714.99 C794.631,721.537 797.725,727.443 804.928,727.443 C807.788,727.443 810.678,726.099 812.288,724.193 L812.335,725.99 C812.335,726.646 812.631,726.943 813.381,726.943 L815.538,726.943 C815.975,726.943 816.288,726.537 816.288,725.896 M812.038,720.74 C810.788,722.537 808.085,724.037 805.725,724.037 C801.381,724.037 799.038,720.099 799.038,714.787 C799.038,709.287 801.631,705.599 806.131,705.599 C808.585,705.599 810.975,707.193 812.038,709.099 L812.038,720.74 M842.866,714.099 L842.866,713.24 C842.866,709.99 842.022,707.037 840.022,704.99 C838.366,703.287 836.069,702.24 833.225,702.24 C826.022,702.24 821.569,707.693 821.569,714.849 C821.569,722.396 825.663,727.443 833.366,727.443 C835.663,727.443 838.866,726.99 841.022,725.99 C841.413,725.787 841.616,725.646 841.616,725.349 C841.616,725.287 841.616,725.193 841.569,725.099 L841.022,723.24 C840.913,722.896 840.663,722.787 840.413,722.787 C840.272,722.787 840.116,722.849 839.913,722.896 C838.272,723.537 835.975,723.943 833.913,723.943 C828.866,723.943 826.163,720.24 826.022,715.49 L841.366,715.49 C842.663,715.49 842.866,715.24 842.866,714.099 M838.663,712.599 L826.116,712.599 C826.522,708.896 828.866,705.537 833.022,705.537 C836.819,705.537 838.663,708.49 838.663,711.896 L838.663,712.599 M852.1,725.896 L852.1,692.24 C852.1,691.584 851.803,691.396 851.35,691.396 C851.256,691.396 851.21,691.396 851.1,691.396 L848.6,691.74 C848.006,691.834 847.85,692.037 847.85,692.74 L847.85,725.943 C847.85,726.646 848.163,726.943 848.756,726.943 L851.21,726.943 C851.803,726.943 852.1,726.599 852.1,725.896 M887.944,725.349 C887.944,725.193 887.881,724.99 887.835,724.787 L887.381,723.396 C887.288,723.037 887.131,722.896 886.881,722.896 C886.788,722.896 886.631,722.943 886.491,722.99 C884.881,723.693 883.038,724.193 880.881,724.193 C875.538,724.193 873.335,719.787 873.335,714.693 C873.335,709.099 876.335,705.537 881.085,705.537 C883.038,705.537 884.741,706.099 886.288,706.787 C886.444,706.896 886.631,706.943 886.741,706.943 C887.038,706.943 887.194,706.693 887.288,706.349 L887.694,704.74 C887.741,704.599 887.788,704.49 887.788,704.349 C887.788,704.037 887.631,703.849 887.288,703.693 C885.538,702.787 883.038,702.24 880.881,702.24 C873.381,702.24 868.944,707.537 868.944,714.896 C868.944,722.349 872.741,727.443 880.585,727.443 C882.881,727.443 885.194,726.99 887.335,725.99 C887.788,725.787 887.944,725.646 887.944,725.349 M913.428,714.849 C913.428,707.599 909.928,702.24 902.178,702.24 C894.725,702.24 890.678,707.74 890.678,714.787 C890.678,721.943 894.131,727.443 901.881,727.443 C909.335,727.443 913.428,721.896 913.428,714.849 M909.022,714.896 C909.022,719.537 907.178,724.146 901.928,724.146 C896.631,724.146 895.085,719.287 895.085,714.693 C895.085,710.287 896.725,705.537 902.131,705.537 C907.335,705.537 909.022,710.24 909.022,714.896 M953.475,725.896 L953.475,711.99 C953.475,709.193 953.022,706.99 951.975,705.349 C950.772,703.49 948.663,702.24 945.319,702.24 C942.413,702.24 939.272,703.287 936.96,705.349 C935.663,703.24 933.21,702.24 930.46,702.24 C927.772,702.24 924.96,703.349 922.866,705.24 L922.819,703.693 C922.819,703.037 922.413,702.787 921.819,702.787 L919.663,702.787 C919.069,702.787 918.71,703.146 918.71,703.787 L918.71,725.896 C918.71,726.599 919.022,726.943 919.663,726.943 L922.022,726.943 C922.663,726.943 922.96,726.599 922.96,725.896 L922.96,708.693 C924.772,707.037 927.163,705.74 929.46,705.74 C933.413,705.74 934.163,708.396 934.163,711.849 L934.163,725.896 C934.163,726.599 934.522,726.943 935.163,726.943 L937.46,726.943 C938.116,726.943 938.413,726.599 938.413,725.896 L938.413,713.599 C938.413,712.037 938.319,709.037 938.022,708.099 C939.772,706.74 942.225,705.74 944.272,705.74 C948.319,705.74 949.225,708.24 949.225,711.849 L949.225,725.896 C949.225,726.599 949.569,726.943 950.225,726.943 L952.522,726.943 C953.163,726.943 953.475,726.599 953.475,725.896 M981.803,714.646 C981.803,708.193 978.647,702.24 971.553,702.24 C968.71,702.24 965.71,703.537 964.1,705.443 L964.1,703.693 C964.1,702.99 963.71,702.787 962.96,702.787 L961.053,702.787 C960.397,702.787 960.1,702.99 960.1,703.693 L960.1,736.646 C960.1,737.349 960.397,737.693 961.053,737.693 L963.256,737.693 C963.897,737.693 964.35,737.49 964.35,736.74 L964.35,724.646 C965.85,726.49 968.506,727.443 970.96,727.443 C978.21,727.443 981.803,721.287 981.803,714.646 M977.35,714.74 C977.35,719.193 975.553,724.099 970.397,724.099 C967.96,724.099 965.397,722.537 964.35,720.599 L964.35,708.849 C965.6,707.037 968.35,705.646 970.71,705.646 C975.897,705.646 977.35,710.396 977.35,714.74 M1002.83,694.49 C1002.83,694.334 1002.79,694.084 1002.65,693.896 L1001.69,692.396 C1001.44,692.037 1001.19,691.896 1000.94,691.896 C1000.74,691.896 1000.54,691.99 1000.24,692.193 L993.241,696.693 C992.897,696.896 992.788,697.146 992.788,697.334 C992.788,697.49 992.835,697.646 992.991,697.834 L993.491,698.584 C993.694,698.896 993.944,699.037 994.194,699.037 C994.335,699.037 994.538,698.99 994.788,698.896 L1002.33,695.146 C1002.69,694.99 1002.83,694.74 1002.83,694.49 M1009.19,726.287 L1009.19,724.599 C1009.19,724.037 1008.94,723.943 1008.49,723.943 L1008.15,723.943 C1007.74,723.943 1007.49,723.849 1007.29,723.49 C1007.08,723.193 1007.04,722.396 1007.04,721.24 L1007.04,703.74 C1007.04,703.099 1006.74,702.787 1006.15,702.787 L1003.9,702.787 C1003.33,702.787 1002.94,703.037 1002.94,703.646 L1002.9,705.287 C1001.4,703.287 998.694,702.24 996.194,702.24 C990.491,702.24 985.538,706.943 985.538,715.287 C985.538,721.599 988.585,727.443 995.491,727.443 C998.538,727.443 1001.83,725.443 1002.99,723.24 L1003.08,723.24 C1003.08,725.24 1004.15,726.943 1006.33,726.943 L1008.44,726.943 C1008.94,726.943 1009.19,726.787 1009.19,726.287 M1002.79,718.849 C1001.9,721.349 999.335,723.896 996.147,723.896 C992.538,723.896 989.991,720.49 989.991,714.99 C989.991,709.037 992.897,705.646 996.741,705.646 C999.147,705.646 1001.58,706.99 1002.79,709.24 L1002.79,718.849 M1028.73,719.99 C1028.73,716.787 1026.48,714.787 1023.73,713.646 L1019.83,711.99 C1017.73,711.099 1016.73,710.287 1016.73,708.599 C1016.73,706.896 1018.18,705.49 1020.83,705.49 C1022.43,705.49 1024.79,706.099 1026.08,706.693 C1026.23,706.74 1026.38,706.787 1026.48,706.787 C1026.73,706.787 1026.93,706.646 1027.04,706.287 L1027.58,704.537 C1027.63,704.396 1027.68,704.24 1027.68,704.146 C1027.68,703.943 1027.54,703.787 1027.23,703.646 C1024.98,702.599 1022.88,702.24 1020.73,702.24 C1016.33,702.24 1012.33,704.49 1012.33,708.896 C1012.33,712.037 1014.54,714.037 1017.48,715.193 L1020.83,716.49 C1023.13,717.396 1024.58,718.443 1024.58,720.396 C1024.58,722.74 1022.63,724.146 1019.73,724.146 C1018.04,724.146 1015.63,723.443 1013.79,722.646 C1013.68,722.599 1013.58,722.599 1013.48,722.599 C1013.23,722.599 1013.04,722.787 1012.93,723.099 L1012.29,724.896 C1012.23,724.99 1012.23,725.099 1012.23,725.193 C1012.23,725.443 1012.38,725.693 1012.73,725.849 C1014.38,726.599 1017.04,727.443 1019.58,727.443 C1024.88,727.443 1028.73,724.599 1028.73,719.99 M1066.27,725.849 L1066.27,724.099 C1066.27,723.349 1065.93,723.099 1065.07,723.099 L1050.93,723.099 C1052.87,721.146 1054.98,719.099 1056.98,716.99 C1063.12,710.599 1066.27,706.24 1066.27,701.037 C1066.27,695.084 1061.68,691.896 1056.12,691.896 C1052.82,691.896 1049.48,692.834 1046.77,694.537 C1046.43,694.787 1046.23,695.037 1046.23,695.334 C1046.23,695.49 1046.27,695.693 1046.37,695.896 L1047.12,697.49 C1047.32,697.896 1047.52,698.084 1047.82,698.084 C1047.98,698.084 1048.12,698.037 1048.32,697.943 C1050.57,696.646 1053.07,695.834 1055.48,695.834 C1058.98,695.834 1061.48,697.943 1061.48,701.49 C1061.48,705.287 1058.68,709.287 1053.93,714.396 C1051.37,717.146 1048.37,719.896 1045.73,722.693 C1045.23,723.193 1045.12,723.49 1045.12,724.193 L1045.12,725.849 C1045.12,726.646 1045.37,726.943 1046.23,726.943 L1065.07,726.943 C1065.98,726.943 1066.27,726.537 1066.27,725.849"/>
<path class="" fill="#3465a4" stroke="#729fcf" stroke-width="4.96" stroke-linecap="square" stroke-linejoin="miter" stroke-miterlimit="2" fill-rule="evenodd" d="M272.363,633.106 C272.363,626.479 277.96,621.106 284.864,621.106 L639.625,621.106 C646.529,621.106 652.127,626.479 652.127,633.106 L652.127,739.87 C652.127,746.497 646.529,751.87 639.625,751.87 L284.864,751.87 C277.96,751.87 272.363,746.497 272.363,739.87 L272.363,633.106 "/>
<path class="" fill="#ffffff" d="M301.948,670.785 L301.948,638.691 C301.948,637.941 301.651,637.535 300.948,637.535 L299.339,637.535 C298.495,637.535 298.089,637.582 297.495,637.988 L288.292,643.738 C287.839,643.988 287.651,644.285 287.651,644.582 C287.651,644.738 287.745,644.941 287.839,645.129 L288.839,646.785 C288.995,647.082 289.245,647.191 289.495,647.191 C289.698,647.191 289.948,647.082 290.198,646.941 L297.448,642.488 L297.448,670.785 C297.448,671.644 297.745,671.988 298.651,671.988 L300.839,671.988 C301.651,671.988 301.948,671.644 301.948,670.785 M335.026,659.144 L335.026,658.285 C335.026,655.035 334.182,652.082 332.182,650.035 C330.526,648.332 328.229,647.285 325.385,647.285 C318.182,647.285 313.729,652.738 313.729,659.894 C313.729,667.441 317.823,672.488 325.526,672.488 C327.823,672.488 331.026,672.035 333.182,671.035 C333.573,670.832 333.776,670.691 333.776,670.394 C333.776,670.332 333.776,670.238 333.729,670.144 L333.182,668.285 C333.073,667.941 332.823,667.832 332.573,667.832 C332.432,667.832 332.276,667.894 332.073,667.941 C330.432,668.582 328.135,668.988 326.073,668.988 C321.026,668.988 318.323,665.285 318.182,660.535 L333.526,660.535 C334.823,660.535 335.026,660.285 335.026,659.144 M330.823,657.644 L318.276,657.644 C318.682,653.941 321.026,650.582 325.182,650.582 C328.979,650.582 330.823,653.535 330.823,656.941 L330.823,657.644 M351.76,648.285 C351.76,648.191 351.76,648.144 351.76,648.035 C351.76,647.738 351.667,647.488 351.37,647.441 C350.87,647.332 350.26,647.285 349.917,647.285 C347.26,647.285 345.37,648.785 344.167,650.441 L344.12,648.738 C344.12,648.082 343.76,647.832 343.12,647.832 L340.964,647.832 C340.37,647.832 340.01,648.082 340.01,648.832 L340.01,670.941 C340.01,671.644 340.323,671.988 340.964,671.988 L343.323,671.988 C343.964,671.988 344.26,671.582 344.26,670.941 L344.26,653.894 C345.573,652.035 347.51,650.894 349.26,650.894 C349.76,650.894 350.26,650.941 350.714,651.035 C350.76,651.035 350.823,651.035 350.87,651.035 C351.167,651.035 351.37,650.894 351.417,650.535 L351.76,648.285 M387.604,648.332 C387.604,648.035 387.401,647.832 386.948,647.832 L384.198,647.832 C383.604,647.832 383.354,648.035 383.151,648.582 L376.854,667.191 L370.354,648.488 C370.198,648.035 369.901,647.832 369.401,647.832 L366.104,647.832 C365.698,647.832 365.542,648.035 365.542,648.332 C365.542,648.441 365.542,648.582 365.604,648.691 L374.542,672.394 L373.245,675.582 C372.198,678.191 370.542,679.285 367.792,679.285 C367.292,679.285 366.604,679.191 366.042,679.144 C365.948,679.144 365.901,679.144 365.854,679.144 C365.401,679.144 365.151,679.332 365.104,679.832 L364.854,681.738 C364.854,681.832 364.854,681.894 364.854,681.988 C364.854,682.332 364.948,682.644 365.401,682.738 C366.151,682.894 366.901,682.941 367.651,682.941 C373.042,682.941 375.542,680.832 377.745,674.941 L387.495,648.785 C387.542,648.644 387.604,648.488 387.604,648.332 M424.276,670.894 L424.276,669.144 C424.276,668.394 423.932,668.144 423.073,668.144 L408.932,668.144 C410.87,666.191 412.979,664.144 414.979,662.035 C421.12,655.644 424.276,651.285 424.276,646.082 C424.276,640.129 419.682,636.941 414.12,636.941 C410.823,636.941 407.479,637.879 404.776,639.582 C404.432,639.832 404.229,640.082 404.229,640.379 C404.229,640.535 404.276,640.738 404.37,640.941 L405.12,642.535 C405.323,642.941 405.526,643.129 405.823,643.129 C405.979,643.129 406.12,643.082 406.323,642.988 C408.573,641.691 411.073,640.879 413.479,640.879 C416.979,640.879 419.479,642.988 419.479,646.535 C419.479,650.332 416.682,654.332 411.932,659.441 C409.37,662.191 406.37,664.941 403.729,667.738 C403.229,668.238 403.12,668.535 403.12,669.238 L403.12,670.894 C403.12,671.691 403.37,671.988 404.229,671.988 L423.073,671.988 C423.979,671.988 424.276,671.582 424.276,670.894 M452.01,659.894 C452.01,652.644 448.51,647.285 440.76,647.285 C433.307,647.285 429.26,652.785 429.26,659.832 C429.26,666.988 432.714,672.488 440.464,672.488 C447.917,672.488 452.01,666.941 452.01,659.894 M447.604,659.941 C447.604,664.582 445.76,669.191 440.51,669.191 C435.214,669.191 433.667,664.332 433.667,659.738 C433.667,655.332 435.307,650.582 440.714,650.582 C445.917,650.582 447.604,655.285 447.604,659.941 M482.292,670.785 C482.292,670.738 482.245,670.691 482.245,670.582 L481.839,668.988 C481.745,668.644 481.495,668.488 481.245,668.488 C481.135,668.488 481.042,668.488 480.948,668.535 C480.135,668.785 478.948,669.144 477.792,669.144 C476.495,669.144 475.589,668.738 475.042,668.144 C474.292,667.285 474.198,665.988 474.198,664.332 L474.198,650.832 L480.042,650.832 C480.542,650.832 480.792,650.691 480.792,650.191 L480.792,648.488 C480.792,647.941 480.542,647.832 480.089,647.832 L474.198,647.832 L474.198,641.691 C474.198,641.129 473.948,640.785 473.448,640.785 C473.385,640.785 473.292,640.785 473.245,640.785 L470.792,641.129 C470.135,641.238 469.948,641.441 469.948,642.129 L469.948,647.832 L467.089,647.832 C466.635,647.832 466.448,648.035 466.448,648.535 L466.448,650.082 C466.448,650.738 466.542,650.832 467.198,650.832 L469.948,650.832 L469.948,663.941 C469.948,667.035 470.042,669.035 471.495,670.644 C472.635,671.894 474.792,672.488 476.948,672.488 C478.635,672.488 480.448,672.082 481.589,671.582 C481.995,671.441 482.292,671.191 482.292,670.785 M491.479,641.941 C491.479,640.488 490.229,639.535 488.885,639.535 C487.526,639.535 486.323,640.488 486.323,641.941 C486.323,643.379 487.526,644.332 488.885,644.332 C490.182,644.332 491.479,643.379 491.479,641.941 M491.026,670.941 L491.026,648.832 C491.026,648.144 490.729,647.832 490.073,647.832 L487.776,647.832 C487.135,647.832 486.776,648.144 486.776,648.832 L486.776,670.941 C486.776,671.644 487.135,671.988 487.776,671.988 L490.073,671.988 C490.729,671.988 491.026,671.644 491.026,670.941 M518.12,659.144 L518.12,658.285 C518.12,655.035 517.276,652.082 515.276,650.035 C513.62,648.332 511.323,647.285 508.479,647.285 C501.276,647.285 496.823,652.738 496.823,659.894 C496.823,667.441 500.917,672.488 508.62,672.488 C510.917,672.488 514.12,672.035 516.276,671.035 C516.667,670.832 516.87,670.691 516.87,670.394 C516.87,670.332 516.87,670.238 516.823,670.144 L516.276,668.285 C516.167,667.941 515.917,667.832 515.667,667.832 C515.526,667.832 515.37,667.894 515.167,667.941 C513.526,668.582 511.229,668.988 509.167,668.988 C504.12,668.988 501.417,665.285 501.276,660.535 L516.62,660.535 C517.917,660.535 518.12,660.285 518.12,659.144 M513.917,657.644 L501.37,657.644 C501.776,653.941 504.12,650.582 508.276,650.582 C512.073,650.582 513.917,653.535 513.917,656.941 L513.917,657.644 M557.87,670.941 L557.87,657.035 C557.87,654.238 557.417,652.035 556.37,650.394 C555.167,648.535 553.057,647.285 549.714,647.285 C546.807,647.285 543.667,648.332 541.354,650.394 C540.057,648.285 537.604,647.285 534.854,647.285 C532.167,647.285 529.354,648.394 527.26,650.285 L527.214,648.738 C527.214,648.082 526.807,647.832 526.214,647.832 L524.057,647.832 C523.464,647.832 523.104,648.191 523.104,648.832 L523.104,670.941 C523.104,671.644 523.417,671.988 524.057,671.988 L526.417,671.988 C527.057,671.988 527.354,671.644 527.354,670.941 L527.354,653.738 C529.167,652.082 531.557,650.785 533.854,650.785 C537.807,650.785 538.557,653.441 538.557,656.894 L538.557,670.941 C538.557,671.644 538.917,671.988 539.557,671.988 L541.854,671.988 C542.51,671.988 542.807,671.644 542.807,670.941 L542.807,658.644 C542.807,657.082 542.714,654.082 542.417,653.144 C544.167,651.785 546.62,650.785 548.667,650.785 C552.714,650.785 553.62,653.285 553.62,656.894 L553.62,670.941 C553.62,671.644 553.964,671.988 554.62,671.988 L556.917,671.988 C557.557,671.988 557.87,671.644 557.87,670.941 M586.198,659.691 C586.198,653.238 583.042,647.285 575.948,647.285 C573.104,647.285 570.104,648.582 568.495,650.488 L568.495,648.738 C568.495,648.035 568.104,647.832 567.354,647.832 L565.448,647.832 C564.792,647.832 564.495,648.035 564.495,648.738 L564.495,681.691 C564.495,682.394 564.792,682.738 565.448,682.738 L567.651,682.738 C568.292,682.738 568.745,682.535 568.745,681.785 L568.745,669.691 C570.245,671.535 572.901,672.488 575.354,672.488 C582.604,672.488 586.198,666.332 586.198,659.691 M581.745,659.785 C581.745,664.238 579.948,669.144 574.792,669.144 C572.354,669.144 569.792,667.582 568.745,665.644 L568.745,653.894 C569.995,652.082 572.745,650.691 575.104,650.691 C580.292,650.691 581.745,655.441 581.745,659.785 M612.885,659.894 C612.885,652.644 609.385,647.285 601.635,647.285 C594.182,647.285 590.135,652.785 590.135,659.832 C590.135,666.988 593.589,672.488 601.339,672.488 C608.792,672.488 612.885,666.941 612.885,659.894 M608.479,659.941 C608.479,664.582 606.635,669.191 601.385,669.191 C596.089,669.191 594.542,664.332 594.542,659.738 C594.542,655.332 596.182,650.582 601.589,650.582 C606.792,650.582 608.479,655.285 608.479,659.941 M632.917,665.035 C632.917,661.832 630.667,659.832 627.917,658.691 L624.026,657.035 C621.917,656.144 620.917,655.332 620.917,653.644 C620.917,651.941 622.37,650.535 625.026,650.535 C626.62,650.535 628.979,651.144 630.276,651.738 C630.417,651.785 630.573,651.832 630.667,651.832 C630.917,651.832 631.12,651.691 631.229,651.332 L631.776,649.582 C631.823,649.441 631.87,649.285 631.87,649.191 C631.87,648.988 631.729,648.832 631.417,648.691 C629.167,647.644 627.073,647.285 624.917,647.285 C620.526,647.285 616.526,649.535 616.526,653.941 C616.526,657.082 618.729,659.082 621.667,660.238 L625.026,661.535 C627.323,662.441 628.776,663.488 628.776,665.441 C628.776,667.785 626.823,669.191 623.917,669.191 C622.229,669.191 619.823,668.488 617.979,667.691 C617.87,667.644 617.776,667.644 617.667,667.644 C617.417,667.644 617.229,667.832 617.12,668.144 L616.479,669.941 C616.417,670.035 616.417,670.144 616.417,670.238 C616.417,670.488 616.573,670.738 616.917,670.894 C618.573,671.644 621.229,672.488 623.776,672.488 C629.073,672.488 632.917,669.644 632.917,665.035"/>
<path class="" fill="#ffffff" d="M308.901,724.941 L308.901,691.285 C308.901,690.691 308.651,690.441 308.151,690.441 C308.042,690.441 307.995,690.441 307.901,690.441 L305.448,690.785 C304.792,690.879 304.651,691.191 304.651,691.832 L304.651,704.035 C303.198,702.285 300.448,701.238 298.151,701.238 C291.542,701.238 287.245,706.691 287.245,714.035 C287.245,720.582 290.339,726.488 297.542,726.488 C300.401,726.488 303.292,725.144 304.901,723.238 L304.948,725.035 C304.948,725.691 305.245,725.988 305.995,725.988 L308.151,725.988 C308.589,725.988 308.901,725.582 308.901,724.941 M304.651,719.785 C303.401,721.582 300.698,723.082 298.339,723.082 C293.995,723.082 291.651,719.144 291.651,713.832 C291.651,708.332 294.245,704.644 298.745,704.644 C301.198,704.644 303.589,706.238 304.651,708.144 L304.651,719.785 M335.479,713.144 L335.479,712.285 C335.479,709.035 334.635,706.082 332.635,704.035 C330.979,702.332 328.682,701.285 325.839,701.285 C318.635,701.285 314.182,706.738 314.182,713.894 C314.182,721.441 318.276,726.488 325.979,726.488 C328.276,726.488 331.479,726.035 333.635,725.035 C334.026,724.832 334.229,724.691 334.229,724.394 C334.229,724.332 334.229,724.238 334.182,724.144 L333.635,722.285 C333.526,721.941 333.276,721.832 333.026,721.832 C332.885,721.832 332.729,721.894 332.526,721.941 C330.885,722.582 328.589,722.988 326.526,722.988 C321.479,722.988 318.776,719.285 318.635,714.535 L333.979,714.535 C335.276,714.535 335.479,714.285 335.479,713.144 M331.276,711.644 L318.729,711.644 C319.135,707.941 321.479,704.582 325.635,704.582 C329.432,704.582 331.276,707.535 331.276,710.941 L331.276,711.644 M344.714,724.941 L344.714,691.285 C344.714,690.629 344.417,690.441 343.964,690.441 C343.87,690.441 343.823,690.441 343.714,690.441 L341.214,690.785 C340.62,690.879 340.464,691.082 340.464,691.785 L340.464,724.988 C340.464,725.691 340.776,725.988 341.37,725.988 L343.823,725.988 C344.417,725.988 344.714,725.644 344.714,724.941 M380.557,724.394 C380.557,724.238 380.495,724.035 380.448,723.832 L379.995,722.441 C379.901,722.082 379.745,721.941 379.495,721.941 C379.401,721.941 379.245,721.988 379.104,722.035 C377.495,722.738 375.651,723.238 373.495,723.238 C368.151,723.238 365.948,718.832 365.948,713.738 C365.948,708.144 368.948,704.582 373.698,704.582 C375.651,704.582 377.354,705.144 378.901,705.832 C379.057,705.941 379.245,705.988 379.354,705.988 C379.651,705.988 379.807,705.738 379.901,705.394 L380.307,703.785 C380.354,703.644 380.401,703.535 380.401,703.394 C380.401,703.082 380.245,702.894 379.901,702.738 C378.151,701.832 375.651,701.285 373.495,701.285 C365.995,701.285 361.557,706.582 361.557,713.941 C361.557,721.394 365.354,726.488 373.198,726.488 C375.495,726.488 377.807,726.035 379.948,725.035 C380.401,724.832 380.557,724.691 380.557,724.394 M406.042,713.894 C406.042,706.644 402.542,701.285 394.792,701.285 C387.339,701.285 383.292,706.785 383.292,713.832 C383.292,720.988 386.745,726.488 394.495,726.488 C401.948,726.488 406.042,720.941 406.042,713.894 M401.635,713.941 C401.635,718.582 399.792,723.191 394.542,723.191 C389.245,723.191 387.698,718.332 387.698,713.738 C387.698,709.332 389.339,704.582 394.745,704.582 C399.948,704.582 401.635,709.285 401.635,713.941 M446.089,724.941 L446.089,711.035 C446.089,708.238 445.635,706.035 444.589,704.394 C443.385,702.535 441.276,701.285 437.932,701.285 C435.026,701.285 431.885,702.332 429.573,704.394 C428.276,702.285 425.823,701.285 423.073,701.285 C420.385,701.285 417.573,702.394 415.479,704.285 L415.432,702.738 C415.432,702.082 415.026,701.832 414.432,701.832 L412.276,701.832 C411.682,701.832 411.323,702.191 411.323,702.832 L411.323,724.941 C411.323,725.644 411.635,725.988 412.276,725.988 L414.635,725.988 C415.276,725.988 415.573,725.644 415.573,724.941 L415.573,707.738 C417.385,706.082 419.776,704.785 422.073,704.785 C426.026,704.785 426.776,707.441 426.776,710.894 L426.776,724.941 C426.776,725.644 427.135,725.988 427.776,725.988 L430.073,725.988 C430.729,725.988 431.026,725.644 431.026,724.941 L431.026,712.644 C431.026,711.082 430.932,708.082 430.635,707.144 C432.385,705.785 434.839,704.785 436.885,704.785 C440.932,704.785 441.839,707.285 441.839,710.894 L441.839,724.941 C441.839,725.644 442.182,725.988 442.839,725.988 L445.135,725.988 C445.776,725.988 446.089,725.644 446.089,724.941 M474.417,713.691 C474.417,707.238 471.26,701.285 464.167,701.285 C461.323,701.285 458.323,702.582 456.714,704.488 L456.714,702.738 C456.714,702.035 456.323,701.832 455.573,701.832 L453.667,701.832 C453.01,701.832 452.714,702.035 452.714,702.738 L452.714,735.691 C452.714,736.394 453.01,736.738 453.667,736.738 L455.87,736.738 C456.51,736.738 456.964,736.535 456.964,735.785 L456.964,723.691 C458.464,725.535 461.12,726.488 463.573,726.488 C470.823,726.488 474.417,720.332 474.417,713.691 M469.964,713.785 C469.964,718.238 468.167,723.144 463.01,723.144 C460.573,723.144 458.01,721.582 456.964,719.644 L456.964,707.894 C458.214,706.082 460.964,704.691 463.323,704.691 C468.51,704.691 469.964,709.441 469.964,713.785 M495.448,693.535 C495.448,693.379 495.401,693.129 495.26,692.941 L494.307,691.441 C494.057,691.082 493.807,690.941 493.557,690.941 C493.354,690.941 493.151,691.035 492.854,691.238 L485.854,695.738 C485.51,695.941 485.401,696.191 485.401,696.379 C485.401,696.535 485.448,696.691 485.604,696.879 L486.104,697.629 C486.307,697.941 486.557,698.082 486.807,698.082 C486.948,698.082 487.151,698.035 487.401,697.941 L494.948,694.191 C495.307,694.035 495.448,693.785 495.448,693.535 M501.807,725.332 L501.807,723.644 C501.807,723.082 501.557,722.988 501.104,722.988 L500.76,722.988 C500.354,722.988 500.104,722.894 499.901,722.535 C499.698,722.238 499.651,721.441 499.651,720.285 L499.651,702.785 C499.651,702.144 499.354,701.832 498.76,701.832 L496.51,701.832 C495.948,701.832 495.557,702.082 495.557,702.691 L495.51,704.332 C494.01,702.332 491.307,701.285 488.807,701.285 C483.104,701.285 478.151,705.988 478.151,714.332 C478.151,720.644 481.198,726.488 488.104,726.488 C491.151,726.488 494.448,724.488 495.604,722.285 L495.698,722.285 C495.698,724.285 496.76,725.988 498.948,725.988 L501.057,725.988 C501.557,725.988 501.807,725.832 501.807,725.332 M495.401,717.894 C494.51,720.394 491.948,722.941 488.76,722.941 C485.151,722.941 482.604,719.535 482.604,714.035 C482.604,708.082 485.51,704.691 489.354,704.691 C491.76,704.691 494.198,706.035 495.401,708.285 L495.401,717.894 M521.339,719.035 C521.339,715.832 519.089,713.832 516.339,712.691 L512.448,711.035 C510.339,710.144 509.339,709.332 509.339,707.644 C509.339,705.941 510.792,704.535 513.448,704.535 C515.042,704.535 517.401,705.144 518.698,705.738 C518.839,705.785 518.995,705.832 519.089,705.832 C519.339,705.832 519.542,705.691 519.651,705.332 L520.198,703.582 C520.245,703.441 520.292,703.285 520.292,703.191 C520.292,702.988 520.151,702.832 519.839,702.691 C517.589,701.644 515.495,701.285 513.339,701.285 C508.948,701.285 504.948,703.535 504.948,707.941 C504.948,711.082 507.151,713.082 510.089,714.238 L513.448,715.535 C515.745,716.441 517.198,717.488 517.198,719.441 C517.198,721.785 515.245,723.191 512.339,723.191 C510.651,723.191 508.245,722.488 506.401,721.691 C506.292,721.644 506.198,721.644 506.089,721.644 C505.839,721.644 505.651,721.832 505.542,722.144 L504.901,723.941 C504.839,724.035 504.839,724.144 504.839,724.238 C504.839,724.488 504.995,724.738 505.339,724.894 C506.995,725.644 509.651,726.488 512.198,726.488 C517.495,726.488 521.339,723.644 521.339,719.035 M552.089,724.785 L552.089,692.691 C552.089,691.941 551.792,691.535 551.089,691.535 L549.479,691.535 C548.635,691.535 548.229,691.582 547.635,691.988 L538.432,697.738 C537.979,697.988 537.792,698.285 537.792,698.582 C537.792,698.738 537.885,698.941 537.979,699.129 L538.979,700.785 C539.135,701.082 539.385,701.191 539.635,701.191 C539.839,701.191 540.089,701.082 540.339,700.941 L547.589,696.488 L547.589,724.785 C547.589,725.644 547.885,725.988 548.792,725.988 L550.979,725.988 C551.792,725.988 552.089,725.644 552.089,724.785"/>
<path class="" fill="none" stroke="#3465a4" stroke-width="4.96" stroke-linecap="square" stroke-linejoin="miter" stroke-miterlimit="2" fill-rule="evenodd" d="M730.543,455.819 C730.543,449.192 736.14,443.819 743.044,443.819 L1227.8,443.819 C1234.71,443.819 1240.31,449.192 1240.31,455.819 L1240.31,596.583 C1240.31,603.21 1234.71,608.583 1227.8,608.583 L743.044,608.583 C736.14,608.583 730.543,603.21 730.543,596.583 L730.543,455.819 "/>
<path class="" fill="none" stroke="#3465a4" stroke-width="4.96" stroke-linecap="square" stroke-linejoin="miter" stroke-miterlimit="2" fill-rule="evenodd" d="M207.314,455.819 C207.314,449.192 212.911,443.819 219.815,443.819 L704.576,443.819 C711.48,443.819 717.077,449.192 717.077,455.819 L717.077,596.583 C717.077,603.21 711.48,608.583 704.576,608.583 L219.815,608.583 C212.911,608.583 207.314,603.21 207.314,596.583 L207.314,455.819 "/>
<path class="" fill="none" stroke="#3465a4" stroke-width="4.96" stroke-linecap="square" stroke-linejoin="miter" stroke-miterlimit="2" fill-rule="evenodd" d="M1917.42,170.558 C1917.42,163.93 1923.02,158.558 1929.92,158.558 L2414.68,158.558 C2421.59,158.558 2427.18,163.93 2427.18,170.558 L2427.18,311.322 C2427.18,317.949 2421.59,323.322 2414.68,323.322 L1929.92,323.322 C1923.02,323.322 1917.42,317.949 1917.42,311.322 L1917.42,170.558 "/>
<path class="" fill="none" stroke="#3465a4" stroke-width="4.96" stroke-linecap="square" stroke-linejoin="miter" stroke-miterlimit="2" fill-rule="evenodd" d="M207.314,167.017 C207.314,160.39 212.911,155.017 219.815,155.017 L704.576,155.017 C711.48,155.017 717.077,160.39 717.077,167.017 L717.077,307.781 C717.077,314.408 711.48,319.781 704.576,319.781 L219.815,319.781 C212.911,319.781 207.314,314.408 207.314,307.781 L207.314,167.017 "/>
<path class="" fill="#3465a4" stroke="#729fcf" stroke-width="4.96" stroke-linecap="square" stroke-linejoin="miter" stroke-miterlimit="2" fill-rule="evenodd" d="M228.438,69.8503 C228.438,63.2229 234.035,57.8503 240.939,57.8503 L535.7,57.8503 C542.604,57.8503 548.201,63.2229 548.201,69.8503 L548.201,122.614 C548.201,129.241 542.604,134.614 535.7,134.614 L240.939,134.614 C234.035,134.614 228.438,129.241 228.438,122.614 L228.438,69.8503 "/>
<path class="" fill="#ffffff" d="M266.273,108.185 C266.273,108.029 266.226,107.826 266.116,107.685 L257.976,94.029 L257.913,93.9353 C261.866,92.5759 264.913,89.1853 264.913,84.3884 C264.913,81.7322 264.226,79.529 262.866,77.8728 C260.663,75.1853 256.82,74.279 252.32,74.279 L245.116,74.279 C244.366,74.279 244.116,74.5759 244.116,75.3728 L244.116,107.685 C244.116,108.388 244.413,108.732 245.07,108.732 L247.82,108.732 C248.476,108.732 248.773,108.326 248.773,107.685 L248.773,94.7322 L253.57,94.7322 L261.07,107.826 C261.413,108.482 261.866,108.732 262.616,108.732 L265.616,108.732 C266.07,108.732 266.273,108.482 266.273,108.185 M260.226,84.4353 C260.226,88.8884 257.023,91.2322 252.616,91.2322 L248.773,91.2322 L248.773,77.8259 L251.976,77.8259 C257.116,77.8259 260.226,79.529 260.226,84.4353 M276.554,78.6853 C276.554,77.2322 275.304,76.279 273.96,76.279 C272.601,76.279 271.398,77.2322 271.398,78.6853 C271.398,80.1228 272.601,81.0759 273.96,81.0759 C275.257,81.0759 276.554,80.1228 276.554,78.6853 M276.101,107.685 L276.101,85.5759 C276.101,84.8884 275.804,84.5759 275.148,84.5759 L272.851,84.5759 C272.21,84.5759 271.851,84.8884 271.851,85.5759 L271.851,107.685 C271.851,108.388 272.21,108.732 272.851,108.732 L275.148,108.732 C275.804,108.732 276.101,108.388 276.101,107.685 M296.648,107.529 C296.648,107.482 296.601,107.435 296.601,107.326 L296.195,105.732 C296.101,105.388 295.851,105.232 295.601,105.232 C295.491,105.232 295.398,105.232 295.304,105.279 C294.491,105.529 293.304,105.888 292.148,105.888 C290.851,105.888 289.945,105.482 289.398,104.888 C288.648,104.029 288.554,102.732 288.554,101.076 L288.554,87.5759 L294.398,87.5759 C294.898,87.5759 295.148,87.4353 295.148,86.9353 L295.148,85.2322 C295.148,84.6853 294.898,84.5759 294.445,84.5759 L288.554,84.5759 L288.554,78.4353 C288.554,77.8728 288.304,77.529 287.804,77.529 C287.741,77.529 287.648,77.529 287.601,77.529 L285.148,77.8728 C284.491,77.9822 284.304,78.1853 284.304,78.8728 L284.304,84.5759 L281.445,84.5759 C280.991,84.5759 280.804,84.779 280.804,85.279 L280.804,86.8259 C280.804,87.4822 280.898,87.5759 281.554,87.5759 L284.304,87.5759 L284.304,100.685 C284.304,103.779 284.398,105.779 285.851,107.388 C286.991,108.638 289.148,109.232 291.304,109.232 C292.991,109.232 294.804,108.826 295.945,108.326 C296.351,108.185 296.648,107.935 296.648,107.529 M335.445,107.685 L335.445,93.779 C335.445,90.9822 334.991,88.779 333.945,87.1384 C332.741,85.279 330.632,84.029 327.288,84.029 C324.382,84.029 321.241,85.0759 318.929,87.1384 C317.632,85.029 315.179,84.029 312.429,84.029 C309.741,84.029 306.929,85.1384 304.835,87.029 L304.788,85.4822 C304.788,84.8259 304.382,84.5759 303.788,84.5759 L301.632,84.5759 C301.038,84.5759 300.679,84.9353 300.679,85.5759 L300.679,107.685 C300.679,108.388 300.991,108.732 301.632,108.732 L303.991,108.732 C304.632,108.732 304.929,108.388 304.929,107.685 L304.929,90.4822 C306.741,88.8259 309.132,87.529 311.429,87.529 C315.382,87.529 316.132,90.1853 316.132,93.6384 L316.132,107.685 C316.132,108.388 316.491,108.732 317.132,108.732 L319.429,108.732 C320.085,108.732 320.382,108.388 320.382,107.685 L320.382,95.3884 C320.382,93.8259 320.288,90.8259 319.991,89.8884 C321.741,88.529 324.195,87.529 326.241,87.529 C330.288,87.529 331.195,90.029 331.195,93.6384 L331.195,107.685 C331.195,108.388 331.538,108.732 332.195,108.732 L334.491,108.732 C335.132,108.732 335.445,108.388 335.445,107.685 M363.523,96.6384 C363.523,89.3884 360.023,84.029 352.273,84.029 C344.82,84.029 340.773,89.529 340.773,96.5759 C340.773,103.732 344.226,109.232 351.976,109.232 C359.429,109.232 363.523,103.685 363.523,96.6384 M359.116,96.6853 C359.116,101.326 357.273,105.935 352.023,105.935 C346.726,105.935 345.179,101.076 345.179,96.4822 C345.179,92.0759 346.82,87.3259 352.226,87.3259 C357.429,87.3259 359.116,92.029 359.116,96.6853 M401.804,96.6384 C401.804,89.3884 398.304,84.029 390.554,84.029 C383.101,84.029 379.054,89.529 379.054,96.5759 C379.054,103.732 382.507,109.232 390.257,109.232 C397.71,109.232 401.804,103.685 401.804,96.6384 M397.398,96.6853 C397.398,101.326 395.554,105.935 390.304,105.935 C385.007,105.935 383.46,101.076 383.46,96.4822 C383.46,92.0759 385.101,87.3259 390.507,87.3259 C395.71,87.3259 397.398,92.029 397.398,96.6853 M418.835,85.029 C418.835,84.9353 418.835,84.8884 418.835,84.779 C418.835,84.4822 418.741,84.2322 418.445,84.1853 C417.945,84.0759 417.335,84.029 416.991,84.029 C414.335,84.029 412.445,85.529 411.241,87.1853 L411.195,85.4822 C411.195,84.8259 410.835,84.5759 410.195,84.5759 L408.038,84.5759 C407.445,84.5759 407.085,84.8259 407.085,85.5759 L407.085,107.685 C407.085,108.388 407.398,108.732 408.038,108.732 L410.398,108.732 C411.038,108.732 411.335,108.326 411.335,107.685 L411.335,90.6384 C412.648,88.779 414.585,87.6384 416.335,87.6384 C416.835,87.6384 417.335,87.6853 417.788,87.779 C417.835,87.779 417.898,87.779 417.945,87.779 C418.241,87.779 418.445,87.6384 418.491,87.279 L418.835,85.029 M427.929,78.6853 C427.929,77.2322 426.679,76.279 425.335,76.279 C423.976,76.279 422.773,77.2322 422.773,78.6853 C422.773,80.1228 423.976,81.0759 425.335,81.0759 C426.632,81.0759 427.929,80.1228 427.929,78.6853 M427.476,107.685 L427.476,85.5759 C427.476,84.8884 427.179,84.5759 426.523,84.5759 L424.226,84.5759 C423.585,84.5759 423.226,84.8884 423.226,85.5759 L423.226,107.685 C423.226,108.388 423.585,108.732 424.226,108.732 L426.523,108.732 C427.179,108.732 427.476,108.388 427.476,107.685 M454.976,107.435 L454.976,102.326 L454.976,85.5759 C454.976,84.8884 454.726,84.5759 454.07,84.5759 L451.866,84.5759 C451.273,84.5759 450.866,84.779 450.866,85.4353 L450.82,86.9822 C449.366,85.0759 446.57,84.029 444.226,84.029 C437.07,84.029 433.273,89.9822 433.273,96.6853 C433.273,103.232 436.476,108.732 443.57,108.732 C446.07,108.732 449.116,107.576 450.726,105.779 L450.726,108.076 C450.726,113.279 449.179,116.232 443.616,116.232 C441.866,116.232 439.679,115.529 437.866,114.732 C437.679,114.638 437.523,114.576 437.366,114.576 C437.07,114.576 436.82,114.826 436.679,115.279 L436.116,116.779 C436.07,116.935 436.023,117.076 436.023,117.232 C436.023,117.576 436.226,117.826 436.616,118.029 C438.773,119.029 441.429,119.732 443.726,119.732 C451.773,119.732 454.976,115.185 454.976,107.435 M450.726,102.138 C449.476,103.935 446.679,105.279 444.273,105.279 C439.366,105.279 437.726,100.685 437.726,96.4353 C437.726,91.8884 439.616,87.4353 444.726,87.4353 C447.179,87.4353 449.616,88.9353 450.726,90.8884 L450.726,102.138 M466.757,78.6853 C466.757,77.2322 465.507,76.279 464.163,76.279 C462.804,76.279 461.601,77.2322 461.601,78.6853 C461.601,80.1228 462.804,81.0759 464.163,81.0759 C465.46,81.0759 466.757,80.1228 466.757,78.6853 M466.304,107.685 L466.304,85.5759 C466.304,84.8884 466.007,84.5759 465.351,84.5759 L463.054,84.5759 C462.413,84.5759 462.054,84.8884 462.054,85.5759 L462.054,107.685 C462.054,108.388 462.413,108.732 463.054,108.732 L465.351,108.732 C466.007,108.732 466.304,108.388 466.304,107.685 M493.757,107.685 L493.757,92.9822 C493.757,87.529 491.554,84.029 485.804,84.029 C482.898,84.029 479.898,85.0759 477.601,87.029 L477.554,85.4822 C477.554,84.8259 477.195,84.5759 476.601,84.5759 L474.398,84.5759 C473.695,84.5759 473.445,84.8884 473.445,85.5759 L473.445,107.732 C473.445,108.388 473.804,108.732 474.398,108.732 L476.757,108.732 C477.398,108.732 477.695,108.388 477.695,107.685 L477.695,90.4822 C479.445,88.8884 482.304,87.5759 484.601,87.5759 C488.601,87.5759 489.507,90.1384 489.507,93.6853 L489.507,107.685 C489.507,108.388 489.804,108.732 490.445,108.732 L492.804,108.732 C493.507,108.732 493.757,108.388 493.757,107.685 M522.491,108.076 L522.491,106.388 C522.491,105.826 522.241,105.732 521.788,105.732 L521.445,105.732 C521.038,105.732 520.788,105.638 520.585,105.279 C520.382,104.982 520.335,104.185 520.335,103.029 L520.335,85.529 C520.335,84.8884 520.038,84.5759 519.445,84.5759 L517.195,84.5759 C516.632,84.5759 516.241,84.8259 516.241,85.4353 L516.195,87.0759 C514.695,85.0759 511.991,84.029 509.491,84.029 C503.788,84.029 498.835,88.7322 498.835,97.0759 C498.835,103.388 501.882,109.232 508.788,109.232 C511.835,109.232 515.132,107.232 516.288,105.029 L516.382,105.029 C516.382,107.029 517.445,108.732 519.632,108.732 L521.741,108.732 C522.241,108.732 522.491,108.576 522.491,108.076 M516.085,100.638 C515.195,103.138 512.632,105.685 509.445,105.685 C505.835,105.685 503.288,102.279 503.288,96.779 C503.288,90.8259 506.195,87.4353 510.038,87.4353 C512.445,87.4353 514.882,88.779 516.085,91.029 L516.085,100.638 M531.523,107.685 L531.523,74.029 C531.523,73.3728 531.226,73.1853 530.773,73.1853 C530.679,73.1853 530.632,73.1853 530.523,73.1853 L528.023,73.529 C527.429,73.6228 527.273,73.8259 527.273,74.529 L527.273,107.732 C527.273,108.435 527.585,108.732 528.179,108.732 L530.632,108.732 C531.226,108.732 531.523,108.388 531.523,107.685"/>
<polyline class="" fill="none" stroke="#3465a4" stroke-width="3.72" stroke-linecap="round" stroke-linejoin="bevel" transform="matrix(0.978546,-0.206031,0.206031,0.978546,974.668,445.869)" points="0,0 956.914,0"/>
<polyline class="" fill="none" stroke="#3465a4" stroke-width="3.72" stroke-linecap="round" stroke-linejoin="bevel" transform="matrix(0.0520785,0.998643,-0.998643,0.0520785,423.124,328.062)" points="0,0 108.43,0"/>
<path class="" fill-rule="evenodd" d="M36.6314,300.777 C36.6314,269.517 16.6755,239.132 16.6755,209.184 C16.6755,194.101 22.118,179.454 38.8991,166.338 C39.1259,166.174 39.2393,165.901 39.2393,165.737 C39.2393,165.245 37.992,164.808 37.0849,164.808 C36.6314,164.808 35.8377,164.863 35.2708,165.245 C13.5007,182.078 6.244,201.533 6.244,221.207 C6.244,252.904 27.5605,283.508 27.5605,313.893 C27.5605,328.977 22.118,343.186 5.33691,356.302 L5.33691,356.739 L5.33691,357.176 C22.118,370.292 27.5605,384.501 27.5605,399.584 C27.5605,429.97 6.244,460.574 6.244,492.271 C6.244,511.945 13.5007,531.4 35.2708,548.232 C35.8377,548.615 36.6314,548.669 37.0849,548.669 C37.992,548.669 39.2393,548.232 39.2393,547.74 C39.2393,547.576 39.1259,547.303 38.8991,547.139 C22.118,534.023 16.6755,519.377 16.6755,504.294 C16.6755,474.346 36.6314,443.96 36.6314,412.7 C36.6314,392.808 29.3747,373.79 8.05817,356.739 C29.3747,339.688 36.6314,320.67 36.6314,300.777"/>
</svg>
