<?xml version="1.0" encoding="UTF-8" standalone="no"?>
<svg width="2689px" height="403px" viewBox="0 0 2689 403"
 xmlns="http://www.w3.org/2000/svg" xmlns:xlink="http://www.w3.org/1999/xlink" version="1.2" baseProfile="tiny">
<title>TCC</title>
<desc>Generated by MuseScore 3.6.2</desc>
<polyline class="" fill="none" stroke="#000000" stroke-width="4.46" stroke-linejoin="bevel" points="2667.82,175.979 2667.82,277.92"/>
<polyline class="" fill="none" stroke="#000000" stroke-width="4.46" stroke-linejoin="bevel" points="1985.05,175.979 1985.05,277.92"/>
<polyline class="" fill="none" stroke="#000000" stroke-width="4.46" stroke-linejoin="bevel" points="1360.68,175.979 1360.68,277.92"/>
<polyline class="" fill="none" stroke="#000000" stroke-width="4.46" stroke-linejoin="bevel" points="736.315,175.979 736.315,277.92"/>
<polyline class="" fill="none" stroke="#000000" stroke-width="2.73" stroke-linejoin="bevel" points="1987.29,177.343 2670.05,177.343"/>
<polyline class="" fill="none" stroke="#000000" stroke-width="2.73" stroke-linejoin="bevel" points="1987.29,202.146 2670.05,202.146"/>
<polyline class="" fill="none" stroke="#000000" stroke-width="2.73" stroke-linejoin="bevel" points="1987.29,226.949 2670.05,226.949"/>
<polyline class="" fill="none" stroke="#000000" stroke-width="2.73" stroke-linejoin="bevel" points="1987.29,251.753 2670.05,251.753"/>
<polyline class="" fill="none" stroke="#000000" stroke-width="2.73" stroke-linejoin="bevel" points="1987.29,276.556 2670.05,276.556"/>
<polyline class="" fill="none" stroke="#000000" stroke-width="2.73" stroke-linejoin="bevel" points="1362.92,177.343 1987.29,177.343"/>
<polyline class="" fill="none" stroke="#000000" stroke-width="2.73" stroke-linejoin="bevel" points="1362.92,202.146 1987.29,202.146"/>
<polyline class="" fill="none" stroke="#000000" stroke-width="2.73" stroke-linejoin="bevel" points="1362.92,226.949 1987.29,226.949"/>
<polyline class="" fill="none" stroke="#000000" stroke-width="2.73" stroke-linejoin="bevel" points="1362.92,251.753 1987.29,251.753"/>
<polyline class="" fill="none" stroke="#000000" stroke-width="2.73" stroke-linejoin="bevel" points="1362.92,276.556 1987.29,276.556"/>
<polyline class="" fill="none" stroke="#000000" stroke-width="2.73" stroke-linejoin="bevel" points="738.548,177.343 1362.92,177.343"/>
<polyline class="" fill="none" stroke="#000000" stroke-width="2.73" stroke-linejoin="bevel" points="738.548,202.146 1362.92,202.146"/>
<polyline class="" fill="none" stroke="#000000" stroke-width="2.73" stroke-linejoin="bevel" points="738.548,226.949 1362.92,226.949"/>
<polyline class="" fill="none" stroke="#000000" stroke-width="2.73" stroke-linejoin="bevel" points="738.548,251.753 1362.92,251.753"/>
<polyline class="" fill="none" stroke="#000000" stroke-width="2.73" stroke-linejoin="bevel" points="738.548,276.556 1362.92,276.556"/>
<polyline class="" fill="none" stroke="#000000" stroke-width="2.73" stroke-linejoin="bevel" points="4.31566,177.343 738.548,177.343"/>
<polyline class="" fill="none" stroke="#000000" stroke-width="2.73" stroke-linejoin="bevel" points="4.31566,202.146 738.548,202.146"/>
<polyline class="" fill="none" stroke="#000000" stroke-width="2.73" stroke-linejoin="bevel" points="4.31566,226.949 738.548,226.949"/>
<polyline class="" fill="none" stroke="#000000" stroke-width="2.73" stroke-linejoin="bevel" points="4.31566,251.753 738.548,251.753"/>
<polyline class="" fill="none" stroke="#000000" stroke-width="2.73" stroke-linejoin="bevel" points="4.31566,276.556 738.548,276.556"/>
<polyline class="" fill="none" stroke="#000000" stroke-width="3.97" stroke-linejoin="bevel" points="2120.19,301.359 2169.78,301.359"/>
<polyline class="" fill="none" stroke="#000000" stroke-width="3.97" stroke-linejoin="bevel" points="1587.5,301.359 1637.1,301.359"/>
<polyline class="" fill="none" stroke="#000000" stroke-width="3.97" stroke-linejoin="bevel" points="1125.92,301.359 1175.52,301.359"/>
<polyline class="" fill="none" stroke="#000000" stroke-width="3.97" stroke-linejoin="bevel" points="145.678,301.359 195.277,301.359"/>
<polyline class="" fill="none" stroke="#000000" stroke-width="2.73" stroke-linejoin="bevel" points="2584.64,260.979 2584.64,177.343"/>
<polyline class="" fill="none" stroke="#000000" stroke-width="2.73" stroke-linejoin="bevel" points="2405.73,248.578 2405.73,168.042"/>
<polyline class="" fill="none" stroke="#000000" stroke-width="2.73" stroke-linejoin="bevel" points="2159.74,298.184 2159.74,214.548"/>
<polyline class="" fill="none" stroke="#000000" stroke-width="2.73" stroke-linejoin="bevel" points="2047.92,285.783 2047.92,202.146"/>
<polyline class="" fill="none" stroke="#000000" stroke-width="2.73" stroke-linejoin="bevel" points="1850.9,248.578 1850.9,168.042"/>
<polyline class="" fill="none" stroke="#000000" stroke-width="2.73" stroke-linejoin="bevel" points="1525.3,285.783 1525.3,208.347"/>
<polyline class="" fill="none" stroke="#000000" stroke-width="2.73" stroke-linejoin="bevel" points="1627.05,298.184 1627.05,214.548"/>
<polyline class="" fill="none" stroke="#000000" stroke-width="2.73" stroke-linejoin="bevel" points="1423.55,260.979 1423.55,195.946"/>
<polyline class="" fill="none" stroke="#000000" stroke-width="2.73" stroke-linejoin="bevel" points="1165.48,298.184 1165.48,214.548"/>
<polyline class="" fill="none" stroke="#000000" stroke-width="2.73" stroke-linejoin="bevel" points="961.981,260.979 961.981,195.946"/>
<polyline class="" fill="none" stroke="#000000" stroke-width="2.73" stroke-linejoin="bevel" points="1063.73,285.783 1063.73,208.347"/>
<polyline class="" fill="none" stroke="#000000" stroke-width="2.73" stroke-linejoin="bevel" points="799.183,248.578 799.183,168.042"/>
<polyline class="" fill="none" stroke="#000000" stroke-width="2.73" stroke-linejoin="bevel" points="565.05,260.979 565.05,195.946"/>
<polyline class="" fill="none" stroke="#000000" stroke-width="2.73" stroke-linejoin="bevel" points="665.003,285.783 665.003,208.347"/>
<polyline class="" fill="none" stroke="#000000" stroke-width="2.73" stroke-linejoin="bevel" points="405.127,248.578 405.127,168.042"/>
<polyline class="" fill="none" stroke="#000000" stroke-width="2.73" stroke-linejoin="bevel" points="185.231,298.184 185.231,214.548"/>
<path class="" transform="matrix(0.992126,0,0,0.992126,2553.77,264.154)" d="M31.5,-8.09375 C29.7031,-11.4063 25.9063,-13.2031 21.2969,-13.2031 C17.9063,-13.2031 14.2031,-12.2031 10.5938,-10.2969 C4,-6.79688 0,-0.90625 0,4.20313 C0,5.59375 0.296875,7 1,8.29688 C2.79688,11.5938 6.59375,13.2969 11.2031,13.2969 C14.5938,13.2969 18.2969,12.4063 21.9063,10.5 C28.5,7 32.5,1.09375 32.5,-4 C32.5,-5.40625 32.2031,-6.79688 31.5,-8.09375"/>
<path class="" transform="matrix(0.992126,0,0,0.992126,2128.87,301.359)" d="M31.5,-8.14063 C29.7031,-11.4375 25.9063,-13.2344 21.2969,-13.2344 C17.9063,-13.2344 14.2031,-12.2344 10.5938,-10.3438 C4,-6.84375 0,-0.9375 0,4.15625 C0,5.5625 0.296875,6.96875 1,8.26563 C2.79688,11.5781 6.59375,13.2813 11.2031,13.2813 C14.5938,13.2813 18.2969,12.375 21.9063,10.4844 C28.5,6.96875 32.5,1.0625 32.5,-4.04688 C32.5,-5.4375 32.2031,-6.84375 31.5,-8.14063 M27.2031,-1.34375 C25.5,0.359375 22.0938,2.45313 18.5,4.46875 C14.9063,6.46875 11.2969,7.96875 8.90625,8.46875 C8.40625,8.57813 7.90625,8.67188 7.40625,8.67188 C5.79688,8.67188 4.59375,8.07813 3.90625,6.76563 C3.59375,6.26563 3.40625,5.67188 3.40625,5.0625 C3.40625,3.96875 4.09375,2.65625 5.20313,1.5625 C6.90625,-0.140625 10.2031,-2.23438 13.7969,-4.23438 C17.4063,-6.23438 21,-7.73438 23.4063,-8.23438 C23.9063,-8.34375 24.4063,-8.4375 24.9063,-8.4375 C26.5,-8.4375 27.7969,-7.84375 28.5,-6.54688 C28.7969,-6.04688 28.9063,-5.4375 28.9063,-4.84375 C28.9063,-3.73438 28.2969,-2.54688 27.2031,-1.34375"/>
<path class="" transform="matrix(0.992126,0,0,0.992126,2017.05,288.957)" d="M31.5,-8.09375 C29.7031,-11.4063 25.9063,-13.2031 21.2969,-13.2031 C17.9063,-13.2031 14.2031,-12.2031 10.5938,-10.2969 C4,-6.79688 0,-0.90625 0,4.20313 C0,5.59375 0.296875,7 1,8.29688 C2.79688,11.5938 6.59375,13.2969 11.2031,13.2969 C14.5938,13.2969 18.2969,12.4063 21.9063,10.5 C28.5,7 32.5,1.09375 32.5,-4 C32.5,-5.40625 32.2031,-6.79688 31.5,-8.09375"/>
<path class="" transform="matrix(0.992126,0,0,0.992126,1494.43,288.957)" d="M31.5,-8.09375 C29.7031,-11.4063 25.9063,-13.2031 21.2969,-13.2031 C17.9063,-13.2031 14.2031,-12.2031 10.5938,-10.2969 C4,-6.79688 0,-0.90625 0,4.20313 C0,5.59375 0.296875,7 1,8.29688 C2.79688,11.5938 6.59375,13.2969 11.2031,13.2969 C14.5938,13.2969 18.2969,12.4063 21.9063,10.5 C28.5,7 32.5,1.09375 32.5,-4 C32.5,-5.40625 32.2031,-6.79688 31.5,-8.09375"/>
<path class="" transform="matrix(0.992126,0,0,0.992126,1596.18,301.359)" d="M31.5,-8.14063 C29.7031,-11.4375 25.9063,-13.2344 21.2969,-13.2344 C17.9063,-13.2344 14.2031,-12.2344 10.5938,-10.3438 C4,-6.84375 0,-0.9375 0,4.15625 C0,5.5625 0.296875,6.96875 1,8.26563 C2.79688,11.5781 6.59375,13.2813 11.2031,13.2813 C14.5938,13.2813 18.2969,12.375 21.9063,10.4844 C28.5,6.96875 32.5,1.0625 32.5,-4.04688 C32.5,-5.4375 32.2031,-6.84375 31.5,-8.14063 M27.2031,-1.34375 C25.5,0.359375 22.0938,2.45313 18.5,4.46875 C14.9063,6.46875 11.2969,7.96875 8.90625,8.46875 C8.40625,8.57813 7.90625,8.67188 7.40625,8.67188 C5.79688,8.67188 4.59375,8.07813 3.90625,6.76563 C3.59375,6.26563 3.40625,5.67188 3.40625,5.0625 C3.40625,3.96875 4.09375,2.65625 5.20313,1.5625 C6.90625,-0.140625 10.2031,-2.23438 13.7969,-4.23438 C17.4063,-6.23438 21,-7.73438 23.4063,-8.23438 C23.9063,-8.34375 24.4063,-8.4375 24.9063,-8.4375 C26.5,-8.4375 27.7969,-7.84375 28.5,-6.54688 C28.7969,-6.04688 28.9063,-5.4375 28.9063,-4.84375 C28.9063,-3.73438 28.2969,-2.54688 27.2031,-1.34375"/>
<path class="" transform="matrix(0.992126,0,0,0.992126,1392.68,264.154)" d="M31.5,-8.09375 C29.7031,-11.4063 25.9063,-13.2031 21.2969,-13.2031 C17.9063,-13.2031 14.2031,-12.2031 10.5938,-10.2969 C4,-6.79688 0,-0.90625 0,4.20313 C0,5.59375 0.296875,7 1,8.29688 C2.79688,11.5938 6.59375,13.2969 11.2031,13.2969 C14.5938,13.2969 18.2969,12.4063 21.9063,10.5 C28.5,7 32.5,1.09375 32.5,-4 C32.5,-5.40625 32.2031,-6.79688 31.5,-8.09375"/>
<path class="" transform="matrix(0.992126,0,0,0.992126,2374.86,251.753)" d="M31.5,-8.09375 C29.7031,-11.4063 25.9063,-13.2031 21.2969,-13.2031 C17.9063,-13.2031 14.2031,-12.2031 10.5938,-10.2969 C4,-6.79688 0,-0.90625 0,4.20313 C0,5.59375 0.296875,7 1,8.29688 C2.79688,11.5938 6.59375,13.2969 11.2031,13.2969 C14.5938,13.2969 18.2969,12.4063 21.9063,10.5 C28.5,7 32.5,1.09375 32.5,-4 C32.5,-5.40625 32.2031,-6.79688 31.5,-8.09375"/>
<path class="" transform="matrix(0.992126,0,0,0.992126,1820.02,251.753)" d="M31.5,-8.09375 C29.7031,-11.4063 25.9063,-13.2031 21.2969,-13.2031 C17.9063,-13.2031 14.2031,-12.2031 10.5938,-10.2969 C4,-6.79688 0,-0.90625 0,4.20313 C0,5.59375 0.296875,7 1,8.29688 C2.79688,11.5938 6.59375,13.2969 11.2031,13.2969 C14.5938,13.2969 18.2969,12.4063 21.9063,10.5 C28.5,7 32.5,1.09375 32.5,-4 C32.5,-5.40625 32.2031,-6.79688 31.5,-8.09375"/>
<path class="" transform="matrix(0.992126,0,0,0.992126,1134.61,301.359)" d="M31.5,-8.14063 C29.7031,-11.4375 25.9063,-13.2344 21.2969,-13.2344 C17.9063,-13.2344 14.2031,-12.2344 10.5938,-10.3438 C4,-6.84375 0,-0.9375 0,4.15625 C0,5.5625 0.296875,6.96875 1,8.26563 C2.79688,11.5781 6.59375,13.2813 11.2031,13.2813 C14.5938,13.2813 18.2969,12.375 21.9063,10.4844 C28.5,6.96875 32.5,1.0625 32.5,-4.04688 C32.5,-5.4375 32.2031,-6.84375 31.5,-8.14063 M27.2031,-1.34375 C25.5,0.359375 22.0938,2.45313 18.5,4.46875 C14.9063,6.46875 11.2969,7.96875 8.90625,8.46875 C8.40625,8.57813 7.90625,8.67188 7.40625,8.67188 C5.79688,8.67188 4.59375,8.07813 3.90625,6.76563 C3.59375,6.26563 3.40625,5.67188 3.40625,5.0625 C3.40625,3.96875 4.09375,2.65625 5.20313,1.5625 C6.90625,-0.140625 10.2031,-2.23438 13.7969,-4.23438 C17.4063,-6.23438 21,-7.73438 23.4063,-8.23438 C23.9063,-8.34375 24.4063,-8.4375 24.9063,-8.4375 C26.5,-8.4375 27.7969,-7.84375 28.5,-6.54688 C28.7969,-6.04688 28.9063,-5.4375 28.9063,-4.84375 C28.9063,-3.73438 28.2969,-2.54688 27.2031,-1.34375"/>
<path class="" transform="matrix(0.992126,0,0,0.992126,931.109,264.154)" d="M31.5,-8.09375 C29.7031,-11.4063 25.9063,-13.2031 21.2969,-13.2031 C17.9063,-13.2031 14.2031,-12.2031 10.5938,-10.2969 C4,-6.79688 0,-0.90625 0,4.20313 C0,5.59375 0.296875,7 1,8.29688 C2.79688,11.5938 6.59375,13.2969 11.2031,13.2969 C14.5938,13.2969 18.2969,12.4063 21.9063,10.5 C28.5,7 32.5,1.09375 32.5,-4 C32.5,-5.40625 32.2031,-6.79688 31.5,-8.09375"/>
<path class="" transform="matrix(0.992126,0,0,0.992126,1032.86,288.957)" d="M31.5,-8.09375 C29.7031,-11.4063 25.9063,-13.2031 21.2969,-13.2031 C17.9063,-13.2031 14.2031,-12.2031 10.5938,-10.2969 C4,-6.79688 0,-0.90625 0,4.20313 C0,5.59375 0.296875,7 1,8.29688 C2.79688,11.5938 6.59375,13.2969 11.2031,13.2969 C14.5938,13.2969 18.2969,12.4063 21.9063,10.5 C28.5,7 32.5,1.09375 32.5,-4 C32.5,-5.40625 32.2031,-6.79688 31.5,-8.09375"/>
<path class="" transform="matrix(0.992126,0,0,0.992126,534.178,264.154)" d="M31.5,-8.09375 C29.7031,-11.4063 25.9063,-13.2031 21.2969,-13.2031 C17.9063,-13.2031 14.2031,-12.2031 10.5938,-10.2969 C4,-6.79688 0,-0.90625 0,4.20313 C0,5.59375 0.296875,7 1,8.29688 C2.79688,11.5938 6.59375,13.2969 11.2031,13.2969 C14.5938,13.2969 18.2969,12.4063 21.9063,10.5 C28.5,7 32.5,1.09375 32.5,-4 C32.5,-5.40625 32.2031,-6.79688 31.5,-8.09375"/>
<path class="" transform="matrix(0.992126,0,0,0.992126,634.131,288.957)" d="M31.5,-8.09375 C29.7031,-11.4063 25.9063,-13.2031 21.2969,-13.2031 C17.9063,-13.2031 14.2031,-12.2031 10.5938,-10.2969 C4,-6.79688 0,-0.90625 0,4.20313 C0,5.59375 0.296875,7 1,8.29688 C2.79688,11.5938 6.59375,13.2969 11.2031,13.2969 C14.5938,13.2969 18.2969,12.4063 21.9063,10.5 C28.5,7 32.5,1.09375 32.5,-4 C32.5,-5.40625 32.2031,-6.79688 31.5,-8.09375"/>
<path class="" transform="matrix(0.992126,0,0,0.992126,154.359,301.359)" d="M31.5,-8.14063 C29.7031,-11.4375 25.9063,-13.2344 21.2969,-13.2344 C17.9063,-13.2344 14.2031,-12.2344 10.5938,-10.3438 C4,-6.84375 0,-0.9375 0,4.15625 C0,5.5625 0.296875,6.96875 1,8.26563 C2.79688,11.5781 6.59375,13.2813 11.2031,13.2813 C14.5938,13.2813 18.2969,12.375 21.9063,10.4844 C28.5,6.96875 32.5,1.0625 32.5,-4.04688 C32.5,-5.4375 32.2031,-6.84375 31.5,-8.14063 M27.2031,-1.34375 C25.5,0.359375 22.0938,2.45313 18.5,4.46875 C14.9063,6.46875 11.2969,7.96875 8.90625,8.46875 C8.40625,8.57813 7.90625,8.67188 7.40625,8.67188 C5.79688,8.67188 4.59375,8.07813 3.90625,6.76563 C3.59375,6.26563 3.40625,5.67188 3.40625,5.0625 C3.40625,3.96875 4.09375,2.65625 5.20313,1.5625 C6.90625,-0.140625 10.2031,-2.23438 13.7969,-4.23438 C17.4063,-6.23438 21,-7.73438 23.4063,-8.23438 C23.9063,-8.34375 24.4063,-8.4375 24.9063,-8.4375 C26.5,-8.4375 27.7969,-7.84375 28.5,-6.54688 C28.7969,-6.04688 28.9063,-5.4375 28.9063,-4.84375 C28.9063,-3.73438 28.2969,-2.54688 27.2031,-1.34375"/>
<path class="" transform="matrix(0.992126,0,0,0.992126,768.311,251.753)" d="M31.5,-8.09375 C29.7031,-11.4063 25.9063,-13.2031 21.2969,-13.2031 C17.9063,-13.2031 14.2031,-12.2031 10.5938,-10.2969 C4,-6.79688 0,-0.90625 0,4.20313 C0,5.59375 0.296875,7 1,8.29688 C2.79688,11.5938 6.59375,13.2969 11.2031,13.2969 C14.5938,13.2969 18.2969,12.4063 21.9063,10.5 C28.5,7 32.5,1.09375 32.5,-4 C32.5,-5.40625 32.2031,-6.79688 31.5,-8.09375"/>
<path class="" transform="matrix(0.992126,0,0,0.992126,374.254,251.753)" d="M31.5,-8.09375 C29.7031,-11.4063 25.9063,-13.2031 21.2969,-13.2031 C17.9063,-13.2031 14.2031,-12.2031 10.5938,-10.2969 C4,-6.79688 0,-0.90625 0,4.20313 C0,5.59375 0.296875,7 1,8.29688 C2.79688,11.5938 6.59375,13.2969 11.2031,13.2969 C14.5938,13.2969 18.2969,12.4063 21.9063,10.5 C28.5,7 32.5,1.09375 32.5,-4 C32.5,-5.40625 32.2031,-6.79688 31.5,-8.09375"/>
<path class="" transform="matrix(0.992126,0,0,0.992126,20.1897,251.753)" d="M63.3594,-5.92188 C62.125,-11.3438 59.4844,-15.1719 58.7031,-16.2031 C55.5156,-20.4844 51.5,-23.3281 46.8125,-24.6875 C43.7031,-25.5625 40.7031,-25.6875 38.2813,-25.5 C37.2344,-31.5156 36.2344,-37.3906 35.3281,-42.8438 C40.7813,-49.0156 44.4063,-54.8125 46.6875,-59.1094 C50.1563,-65.6875 51.2969,-70.2656 51.3594,-70.4688 C53.0781,-75.6875 53.4375,-83.3906 52.3281,-91.5938 C51.3281,-99.1406 49.2344,-105.859 46.875,-109.109 C45.8594,-110.531 44.7969,-111.266 43.7656,-111.266 C42.5469,-111.266 40.0313,-110.031 37.1406,-107.25 C34.8438,-105.063 31.5781,-101.172 29.0156,-95.1563 C26.0156,-88.0938 25.7969,-78.6094 26.1563,-71.8906 C26.5313,-64.6094 27.6406,-58.9219 27.6563,-58.875 C27.6719,-58.7813 27.9375,-57.2813 28.375,-54.7188 C28.1563,-54.4844 27.9063,-54.2656 27.6563,-54.0156 C26.625,-53.0156 25.4375,-51.8906 24.0469,-50.5 C23.1875,-49.6406 22.2344,-48.7344 21.2344,-47.7656 C12.7969,-39.625 0,-27.2969 0,-8.14063 C0,-3.4375 0.90625,0.984375 2.6875,5 C4.26563,8.59375 6.5625,11.875 9.5,14.75 C17.2344,22.3125 27.8281,25.5156 34.875,25.3594 C37.8281,25.2813 40.4688,25.0469 42.8594,24.5938 C44.6875,34.2031 45.8281,41.2344 45.8594,46.5781 C45.9063,53.0938 44.25,57.0781 40.3594,59.8438 C37.9219,61.5781 35.1094,62.5313 32.0156,62.6719 C29.4219,62.7969 27.1563,62.3281 25.7344,61.9219 L25.7188,61.9219 C25.7188,61.9219 25.4375,61.8281 25.4219,61.6406 C25.4063,61.4531 25.7656,61.4063 25.7656,61.4063 L25.7969,61.4063 C27.7188,60.9688 31.2813,59.7344 33.6406,56.4375 C35.4375,53.9063 36.3125,49.2813 34.4688,45.3438 C33.3594,42.9531 30.8594,40 25.2344,39.5469 C22.7344,39.3438 20.4688,39.8594 18.4688,41.0625 C16.6563,42.1406 15.1563,43.7813 14.1094,45.7813 C11.6563,50.4844 12.1094,56.2188 15.2344,60.0625 C18.2031,63.6875 22.8125,66 28.25,66.5781 C29.1094,66.6719 29.9531,66.7031 30.7969,66.7031 C35.2344,66.7031 39.625,65.5 43.2031,63.2969 C46.8594,60.7188 48.9844,56.7344 49.6563,51.1094 C50.2188,46.4688 49.8281,40.5469 48.4375,32.4688 C48.0781,30.375 47.5313,27.3438 46.875,23.5938 C52.625,21.6719 56.7813,18.0938 60.5469,12.2344 C63.8438,6.5 64.7813,0.390625 63.3594,-5.92188 M29.1406,20.2969 C24.5,19.0781 20.0625,16.5781 16.3125,13.0625 C15,11.8438 13.125,9.67188 11.6563,6.28125 C10.2969,3.10938 9.625,-0.328125 9.6875,-3.90625 C9.75,-8.60938 11.0625,-13.4375 13.5625,-18.2188 C16.4844,-23.7969 21.0469,-29.3281 27.1094,-34.6563 C28.5625,-35.9375 29.9375,-37.2188 31.2188,-38.5 C31.9844,-34.2344 32.8125,-29.5469 33.6875,-24.6719 C29.8438,-23.4063 25.0938,-20.25 21.9844,-14.5938 C18.4375,-8.03125 18.5781,-2.5 19.3125,0.984375 C20.25,5.4375 22.7813,9.20313 26.2344,11.2969 C27.1719,11.8594 31.2969,13.9844 33.1406,13.4063 C33.5156,13.2969 33.7813,13.0625 33.9219,12.7344 C34.4375,11.5625 33.4063,10.9219 31.8594,9.96875 C31.25,9.59375 30.5781,9.17188 29.8594,8.64063 C26.5313,6.15625 25.0781,1.70313 26.1563,-2.6875 C26.7344,-5.07813 28.0156,-7.25 29.8594,-8.95313 C31.5156,-10.5 33.5625,-11.5938 35.9375,-12.2344 C37.9844,-0.984375 40.0469,10.1719 41.6875,18.5313 C41.8125,19.2188 41.9531,19.8906 42.0781,20.5625 C37.7031,21.5 33.3594,21.4063 29.1406,20.2969 M40.4688,-12.9063 C50.8125,-13.375 55.0781,-5.9375 55.9688,-1.10938 C56.4375,1.4375 56.4375,5.875 54.8906,10.0938 C53.7188,13.2656 51.2656,17.3438 46.125,19.4063 C46.0625,18.9844 45.9844,18.5469 45.9063,18.125 C44.3594,9.34375 42.4219,-1.65625 40.4688,-12.9063 M33.1406,-83.8594 C34.9219,-89.5938 37.6563,-92.8438 39.6563,-94.5781 C41.4063,-96.0938 43.0469,-96.8125 43.9688,-96.8125 C44.1094,-96.8125 44.2344,-96.7813 44.3281,-96.75 C44.7969,-96.6094 45.3281,-96.0469 45.7969,-95.1719 C48.1094,-90.8906 47.3594,-84.1719 46.0156,-79.7344 C44.3906,-74.3281 41.4688,-68.7188 32.6719,-59.1094 C32.5,-60.2188 32.3438,-61.2656 32.1875,-62.25 C30.9375,-70.5313 31.2656,-77.8125 33.1406,-83.8594"/>
<path class="" fill-rule="evenodd" d="M1422.19,186.868 L1526.67,199.602 L1526.67,217.092 L1422.19,204.358 L1422.19,186.868 "/>
<path class="" fill-rule="evenodd" d="M960.617,186.868 L1065.09,199.602 L1065.09,217.092 L960.617,204.358 L960.617,186.868 "/>
<path class="" fill-rule="evenodd" d="M563.686,186.859 L666.367,199.599 L666.367,217.095 L563.686,204.355 L563.686,186.859 "/>
<path class="" transform="matrix(0.992126,0,0,0.992126,2583.28,177.343)" d="M3.5,3.5 C3.40625,3.20313 2.5,-0.296875 2.5,-0.5 C2.40625,-0.90625 1.79688,-1.20313 1.29688,-1.20313 C0.59375,-1.20313 0,-0.59375 0,0.09375 L0,16.5 L0,22.7031 C0,23.2031 0.40625,23.5938 0.796875,23.7969 C5,25.0938 13.7031,30.6094 20.2031,41.7031 C22,44.7969 24.9063,49 24.9063,57.4063 C24.9063,64.6094 23.7969,72.2031 22,79.2031 C21.7031,80.3125 21.4063,81.3125 22.5,81.7031 C23.5938,82.1094 24,81.3125 24.4063,80.3125 C28,71.5 28.9063,62.2969 28.9063,56.1094 L28.9063,54.2031 C28.4063,41.2969 21,31.7969 21,31.7969 C21.2969,31.7969 11.7969,19.5 9.09375,15.2969 C5.40625,9.59375 3.59375,3.90625 3.5,3.5"/>
<path class="" transform="matrix(0.992126,0,0,0.992126,2046.56,202.146)" d="M3.5,3.5 C3.40625,3.20313 2.5,-0.296875 2.5,-0.5 C2.40625,-0.90625 1.79688,-1.20313 1.29688,-1.20313 C0.59375,-1.20313 0,-0.59375 0,0.09375 L0,16.5 L0,22.7031 C0,23.2031 0.40625,23.5938 0.796875,23.7969 C5,25.0938 13.7031,30.6094 20.2031,41.7031 C22,44.7969 24.9063,49 24.9063,57.4063 C24.9063,64.6094 23.7969,72.2031 22,79.2031 C21.7031,80.3125 21.4063,81.3125 22.5,81.7031 C23.5938,82.1094 24,81.3125 24.4063,80.3125 C28,71.5 28.9063,62.2969 28.9063,56.1094 L28.9063,54.2031 C28.4063,41.2969 21,31.7969 21,31.7969 C21.2969,31.7969 11.7969,19.5 9.09375,15.2969 C5.40625,9.59375 3.59375,3.90625 3.5,3.5"/>
<path class="" d="M2573.68,355.917 C2578.23,354.276 2580.34,351.729 2580.34,347.714 C2580.34,342.464 2576.34,339.12 2570.14,339.12 C2564.29,339.12 2559.84,342.573 2559.84,347.12 C2559.84,349.167 2561.18,350.62 2563.14,350.62 C2564.89,350.62 2566.09,349.417 2566.09,347.62 C2566.09,346.526 2565.68,345.87 2564.54,345.073 C2564.04,344.714 2563.89,344.526 2563.89,344.167 C2563.89,342.776 2566.79,341.276 2569.64,341.276 C2573.23,341.276 2575.14,343.526 2575.14,347.776 C2575.14,352.417 2573.23,354.87 2569.68,354.87 C2569.23,354.87 2568.39,354.823 2567.64,354.776 C2567.23,354.729 2566.84,354.729 2566.54,354.729 C2565.48,354.729 2564.93,355.167 2564.93,356.073 C2564.93,356.917 2565.43,357.323 2566.54,357.323 C2566.84,357.323 2567.23,357.323 2567.68,357.276 C2568.68,357.229 2569.48,357.229 2570.04,357.229 C2573.73,357.229 2575.73,359.87 2575.73,364.823 C2575.73,370.026 2573.23,372.917 2568.73,372.917 C2565.59,372.917 2562.18,371.229 2562.18,369.667 C2562.18,369.229 2562.29,369.12 2563.23,368.573 C2564.64,367.729 2565.18,366.87 2565.18,365.62 C2565.18,363.823 2563.84,362.479 2562.04,362.479 C2559.89,362.479 2558.48,364.229 2558.48,366.87 C2558.48,371.729 2562.93,375.073 2569.34,375.073 C2576.59,375.073 2581.29,371.073 2581.29,364.917 C2581.29,360.229 2578.89,357.37 2573.68,355.917"/>
<path class="" d="M2402.73,363.526 L2400.53,363.526 L2400.03,366.073 C2399.39,369.323 2398.98,369.62 2395.89,369.62 L2384.68,369.62 C2388.14,366.026 2389.28,364.979 2392.48,362.479 C2397.03,358.979 2398.98,357.229 2400.14,355.729 C2401.73,353.526 2402.53,351.323 2402.53,348.87 C2402.53,343.167 2397.82,339.12 2391.28,339.12 C2384.93,339.12 2380.07,343.167 2380.07,348.526 C2380.07,351.667 2381.68,353.823 2384.03,353.823 C2385.89,353.823 2387.14,352.573 2387.14,350.776 C2387.14,349.526 2386.43,348.37 2385.39,347.917 C2383.53,347.167 2383.43,347.073 2383.43,346.417 C2383.43,345.667 2383.93,344.526 2384.64,343.667 C2385.89,342.12 2387.93,341.276 2390.28,341.276 C2394.43,341.276 2396.89,343.823 2396.89,348.026 C2396.89,351.729 2395.14,355.073 2390.98,359.479 C2387.28,363.37 2384.98,365.823 2384.14,366.776 C2382.32,368.87 2381.43,370.026 2379.23,372.917 L2379.23,374.323 L2401.78,374.323 L2402.73,363.526 "/>
<path class="" d="M2146.08,339.12 C2144.39,341.167 2139.78,342.714 2135.19,342.823 L2135.19,344.964 L2139.58,344.964 C2142.48,345.026 2142.78,345.323 2142.69,348.12 L2142.69,368.167 C2142.69,370.729 2142.69,370.823 2142.39,371.276 C2141.98,371.776 2141.03,371.979 2138.23,371.979 L2134.98,371.979 L2134.98,374.323 L2154.78,374.323 L2154.78,371.979 L2152.03,371.979 C2149.23,371.979 2148.28,371.776 2147.89,371.276 C2147.53,370.823 2147.53,370.776 2147.53,368.167 L2147.53,347.526 C2147.53,344.714 2147.64,342.37 2147.89,339.12 L2146.08,339.12 "/>
<path class="" d="M2037.57,339.12 L2020.57,362.776 L2020.57,365.573 L2034.62,365.573 L2034.62,368.167 C2034.62,370.729 2034.62,370.823 2034.32,371.276 C2033.92,371.823 2032.97,371.979 2030.12,371.979 L2029.57,371.979 L2029.57,374.323 L2044.17,374.323 L2044.17,371.979 L2043.97,371.979 C2041.12,371.979 2040.17,371.823 2039.76,371.276 C2039.47,370.823 2039.47,370.776 2039.47,368.167 L2039.47,365.573 L2045.53,365.573 L2045.53,362.776 L2039.47,362.776 L2039.47,349.12 C2039.47,342.87 2039.47,342.714 2039.72,339.12 L2037.57,339.12 M2034.62,362.776 L2023.62,362.776 L2034.62,347.62 L2034.62,362.776 "/>
<path class="" d="M1847.89,363.526 L1845.69,363.526 L1845.19,366.073 C1844.55,369.323 1844.14,369.62 1841.05,369.62 L1829.85,369.62 C1833.3,366.026 1834.44,364.979 1837.64,362.479 C1842.19,358.979 1844.14,357.229 1845.3,355.729 C1846.89,353.526 1847.69,351.323 1847.69,348.87 C1847.69,343.167 1842.99,339.12 1836.44,339.12 C1830.1,339.12 1825.24,343.167 1825.24,348.526 C1825.24,351.667 1826.85,353.823 1829.19,353.823 C1831.05,353.823 1832.3,352.573 1832.3,350.776 C1832.3,349.526 1831.6,348.37 1830.55,347.917 C1828.69,347.167 1828.6,347.073 1828.6,346.417 C1828.6,345.667 1829.1,344.526 1829.8,343.667 C1831.05,342.12 1833.1,341.276 1835.44,341.276 C1839.6,341.276 1842.05,343.823 1842.05,348.026 C1842.05,351.729 1840.3,355.073 1836.14,359.479 C1832.44,363.37 1830.14,365.823 1829.3,366.776 C1827.49,368.87 1826.6,370.026 1824.39,372.917 L1824.39,374.323 L1846.94,374.323 L1847.89,363.526 "/>
<path class="" d="M1514.95,339.12 L1497.95,362.776 L1497.95,365.573 L1512,365.573 L1512,368.167 C1512,370.729 1512,370.823 1511.7,371.276 C1511.3,371.823 1510.34,371.979 1507.5,371.979 L1506.95,371.979 L1506.95,374.323 L1521.55,374.323 L1521.55,371.979 L1521.34,371.979 C1518.5,371.979 1517.55,371.823 1517.14,371.276 C1516.84,370.823 1516.84,370.776 1516.84,368.167 L1516.84,365.573 L1522.91,365.573 L1522.91,362.776 L1516.84,362.776 L1516.84,349.12 C1516.84,342.87 1516.84,342.714 1517.09,339.12 L1514.95,339.12 M1512,362.776 L1501,362.776 L1512,347.62 L1512,362.776 "/>
<path class="" d="M1613.39,339.12 C1611.7,341.167 1607.09,342.714 1602.5,342.823 L1602.5,344.964 L1606.89,344.964 C1609.8,345.026 1610.09,345.323 1610,348.12 L1610,368.167 C1610,370.729 1610,370.823 1609.7,371.276 C1609.3,371.776 1608.34,371.979 1605.55,371.979 L1602.3,371.979 L1602.3,374.323 L1622.09,374.323 L1622.09,371.979 L1619.34,371.979 C1616.55,371.979 1615.59,371.776 1615.2,371.276 C1614.84,370.823 1614.84,370.776 1614.84,368.167 L1614.84,347.526 C1614.84,344.714 1614.95,342.37 1615.2,339.12 L1613.39,339.12 "/>
<path class="" d="M1412.6,355.917 C1417.14,354.276 1419.25,351.729 1419.25,347.714 C1419.25,342.464 1415.25,339.12 1409.05,339.12 C1403.21,339.12 1398.75,342.573 1398.75,347.12 C1398.75,349.167 1400.1,350.62 1402.05,350.62 C1403.8,350.62 1405,349.417 1405,347.62 C1405,346.526 1404.6,345.87 1403.46,345.073 C1402.96,344.714 1402.8,344.526 1402.8,344.167 C1402.8,342.776 1405.71,341.276 1408.55,341.276 C1412.14,341.276 1414.05,343.526 1414.05,347.776 C1414.05,352.417 1412.14,354.87 1408.6,354.87 C1408.14,354.87 1407.3,354.823 1406.55,354.776 C1406.14,354.729 1405.75,354.729 1405.46,354.729 C1404.39,354.729 1403.85,355.167 1403.85,356.073 C1403.85,356.917 1404.35,357.323 1405.46,357.323 C1405.75,357.323 1406.14,357.323 1406.6,357.276 C1407.6,357.229 1408.39,357.229 1408.96,357.229 C1412.64,357.229 1414.64,359.87 1414.64,364.823 C1414.64,370.026 1412.14,372.917 1407.64,372.917 C1404.5,372.917 1401.1,371.229 1401.1,369.667 C1401.1,369.229 1401.21,369.12 1402.14,368.573 C1403.55,367.729 1404.1,366.87 1404.1,365.62 C1404.1,363.823 1402.75,362.479 1400.96,362.479 C1398.8,362.479 1397.39,364.229 1397.39,366.87 C1397.39,371.729 1401.85,375.073 1408.25,375.073 C1415.5,375.073 1420.21,371.073 1420.21,364.917 C1420.21,360.229 1417.8,357.37 1412.6,355.917"/>
<path class="" d="M1151.82,339.12 C1150.13,341.167 1145.52,342.714 1140.93,342.823 L1140.93,344.964 L1145.32,344.964 C1148.22,345.026 1148.52,345.323 1148.43,348.12 L1148.43,368.167 C1148.43,370.729 1148.43,370.823 1148.13,371.276 C1147.72,371.776 1146.77,371.979 1143.97,371.979 L1140.72,371.979 L1140.72,374.323 L1160.52,374.323 L1160.52,371.979 L1157.77,371.979 C1154.97,371.979 1154.02,371.776 1153.63,371.276 C1153.27,370.823 1153.27,370.776 1153.27,368.167 L1153.27,347.526 C1153.27,344.714 1153.38,342.37 1153.63,339.12 L1151.82,339.12 "/>
<path class="" d="M951.024,355.917 C955.571,354.276 957.68,351.729 957.68,347.714 C957.68,342.464 953.68,339.12 947.477,339.12 C941.633,339.12 937.18,342.573 937.18,347.12 C937.18,349.167 938.524,350.62 940.477,350.62 C942.227,350.62 943.43,349.417 943.43,347.62 C943.43,346.526 943.024,345.87 941.883,345.073 C941.383,344.714 941.227,344.526 941.227,344.167 C941.227,342.776 944.133,341.276 946.977,341.276 C950.571,341.276 952.477,343.526 952.477,347.776 C952.477,352.417 950.571,354.87 947.024,354.87 C946.571,354.87 945.727,354.823 944.977,354.776 C944.571,354.729 944.18,354.729 943.883,354.729 C942.821,354.729 942.274,355.167 942.274,356.073 C942.274,356.917 942.774,357.323 943.883,357.323 C944.18,357.323 944.571,357.323 945.024,357.276 C946.024,357.229 946.821,357.229 947.383,357.229 C951.071,357.229 953.071,359.87 953.071,364.823 C953.071,370.026 950.571,372.917 946.071,372.917 C942.93,372.917 939.524,371.229 939.524,369.667 C939.524,369.229 939.633,369.12 940.571,368.573 C941.977,367.729 942.524,366.87 942.524,365.62 C942.524,363.823 941.18,362.479 939.383,362.479 C937.227,362.479 935.821,364.229 935.821,366.87 C935.821,371.729 940.274,375.073 946.68,375.073 C953.93,375.073 958.633,371.073 958.633,364.917 C958.633,360.229 956.227,357.37 951.024,355.917"/>
<path class="" d="M1053.38,339.12 L1036.38,362.776 L1036.38,365.573 L1050.43,365.573 L1050.43,368.167 C1050.43,370.729 1050.43,370.823 1050.13,371.276 C1049.73,371.823 1048.77,371.979 1045.93,371.979 L1045.38,371.979 L1045.38,374.323 L1059.98,374.323 L1059.98,371.979 L1059.77,371.979 C1056.93,371.979 1055.98,371.823 1055.57,371.276 C1055.27,370.823 1055.27,370.776 1055.27,368.167 L1055.27,365.573 L1061.33,365.573 L1061.33,362.776 L1055.27,362.776 L1055.27,349.12 C1055.27,342.87 1055.27,342.714 1055.52,339.12 L1053.38,339.12 M1050.43,362.776 L1039.43,362.776 L1050.43,347.62 L1050.43,362.776 "/>
<path class="" d="M796.179,363.526 L793.976,363.526 L793.476,366.073 C792.836,369.323 792.429,369.62 789.336,369.62 L778.133,369.62 C781.586,366.026 782.726,364.979 785.929,362.479 C790.476,358.979 792.429,357.229 793.586,355.729 C795.179,353.526 795.976,351.323 795.976,348.87 C795.976,343.167 791.273,339.12 784.726,339.12 C778.383,339.12 773.523,343.167 773.523,348.526 C773.523,351.667 775.133,353.823 777.476,353.823 C779.336,353.823 780.586,352.573 780.586,350.776 C780.586,349.526 779.883,348.37 778.836,347.917 C776.976,347.167 776.883,347.073 776.883,346.417 C776.883,345.667 777.383,344.526 778.086,343.667 C779.336,342.12 781.383,341.276 783.726,341.276 C787.883,341.276 790.336,343.823 790.336,348.026 C790.336,351.729 788.586,355.073 784.429,359.479 C780.726,363.37 778.429,365.823 777.586,366.776 C775.773,368.87 774.883,370.026 772.679,372.917 L772.679,374.323 L795.226,374.323 L796.179,363.526 "/>
<path class="" d="M554.093,355.917 C558.64,354.276 560.749,351.729 560.749,347.714 C560.749,342.464 556.749,339.12 550.546,339.12 C544.703,339.12 540.249,342.573 540.249,347.12 C540.249,349.167 541.593,350.62 543.546,350.62 C545.296,350.62 546.499,349.417 546.499,347.62 C546.499,346.526 546.093,345.87 544.953,345.073 C544.453,344.714 544.296,344.526 544.296,344.167 C544.296,342.776 547.203,341.276 550.046,341.276 C553.64,341.276 555.546,343.526 555.546,347.776 C555.546,352.417 553.64,354.87 550.093,354.87 C549.64,354.87 548.796,354.823 548.046,354.776 C547.64,354.729 547.249,354.729 546.953,354.729 C545.89,354.729 545.343,355.167 545.343,356.073 C545.343,356.917 545.843,357.323 546.953,357.323 C547.249,357.323 547.64,357.323 548.093,357.276 C549.093,357.229 549.89,357.229 550.453,357.229 C554.14,357.229 556.14,359.87 556.14,364.823 C556.14,370.026 553.64,372.917 549.14,372.917 C545.999,372.917 542.593,371.229 542.593,369.667 C542.593,369.229 542.703,369.12 543.64,368.573 C545.046,367.729 545.593,366.87 545.593,365.62 C545.593,363.823 544.249,362.479 542.453,362.479 C540.296,362.479 538.89,364.229 538.89,366.87 C538.89,371.729 543.343,375.073 549.749,375.073 C556.999,375.073 561.703,371.073 561.703,364.917 C561.703,360.229 559.296,357.37 554.093,355.917"/>
<path class="" d="M654.655,339.12 L637.655,362.776 L637.655,365.573 L651.702,365.573 L651.702,368.167 C651.702,370.729 651.702,370.823 651.405,371.276 C650.999,371.823 650.046,371.979 647.202,371.979 L646.655,371.979 L646.655,374.323 L661.249,374.323 L661.249,371.979 L661.046,371.979 C658.202,371.979 657.249,371.823 656.842,371.276 C656.546,370.823 656.546,370.776 656.546,368.167 L656.546,365.573 L662.608,365.573 L662.608,362.776 L656.546,362.776 L656.546,349.12 C656.546,342.87 656.546,342.714 656.796,339.12 L654.655,339.12 M651.702,362.776 L640.702,362.776 L651.702,347.62 L651.702,362.776 "/>
<path class="" d="M402.123,363.526 L399.919,363.526 L399.419,366.073 C398.779,369.323 398.373,369.62 395.279,369.62 L384.076,369.62 C387.529,366.026 388.669,364.979 391.873,362.479 C396.419,358.979 398.373,357.229 399.529,355.729 C401.123,353.526 401.919,351.323 401.919,348.87 C401.919,343.167 397.216,339.12 390.669,339.12 C384.326,339.12 379.466,343.167 379.466,348.526 C379.466,351.667 381.076,353.823 383.419,353.823 C385.279,353.823 386.529,352.573 386.529,350.776 C386.529,349.526 385.826,348.37 384.779,347.917 C382.919,347.167 382.826,347.073 382.826,346.417 C382.826,345.667 383.326,344.526 384.029,343.667 C385.279,342.12 387.326,341.276 389.669,341.276 C393.826,341.276 396.279,343.823 396.279,348.026 C396.279,351.729 394.529,355.073 390.373,359.479 C386.669,363.37 384.373,365.823 383.529,366.776 C381.716,368.87 380.826,370.026 378.623,372.917 L378.623,374.323 L401.169,374.323 L402.123,363.526 "/>
<path class="" d="M171.571,339.12 C169.884,341.167 165.274,342.714 160.681,342.823 L160.681,344.964 L165.071,344.964 C167.977,345.026 168.274,345.323 168.181,348.12 L168.181,368.167 C168.181,370.729 168.181,370.823 167.884,371.276 C167.477,371.776 166.524,371.979 163.727,371.979 L160.477,371.979 L160.477,374.323 L180.274,374.323 L180.274,371.979 L177.524,371.979 C174.727,371.979 173.774,371.776 173.384,371.276 C173.024,370.823 173.024,370.776 173.024,368.167 L173.024,347.526 C173.024,344.714 173.134,342.37 173.384,339.12 L171.571,339.12 "/>
<path class="" d="M2039.05,101.834 C2039.05,95.3806 2035.89,89.4274 2028.8,89.4274 C2025.96,89.4274 2022.96,90.7243 2021.35,92.6306 L2021.35,90.8806 C2021.35,90.1774 2020.96,89.9743 2020.21,89.9743 L2018.3,89.9743 C2017.64,89.9743 2017.35,90.1774 2017.35,90.8806 L2017.35,123.834 C2017.35,124.537 2017.64,124.881 2018.3,124.881 L2020.5,124.881 C2021.14,124.881 2021.6,124.677 2021.6,123.927 L2021.6,111.834 C2023.1,113.677 2025.75,114.631 2028.21,114.631 C2035.46,114.631 2039.05,108.474 2039.05,101.834 M2034.6,101.927 C2034.6,106.381 2032.8,111.287 2027.64,111.287 C2025.21,111.287 2022.64,109.724 2021.6,107.787 L2021.6,96.0368 C2022.85,94.2243 2025.6,92.8337 2027.96,92.8337 C2033.14,92.8337 2034.6,97.5837 2034.6,101.927 M2065.19,104.084 C2065.19,99.7868 2062.24,96.3337 2058.24,95.3806 C2061.44,94.3806 2063.89,91.1774 2063.89,87.6306 C2063.89,82.1306 2058.99,79.0837 2053.89,79.0837 C2050.78,79.0837 2047.99,79.8337 2045.49,81.3337 C2045.19,81.5212 2045.03,81.6774 2045.03,81.9274 C2045.03,82.0212 2045.08,82.1306 2045.14,82.2712 L2045.94,84.0837 C2046.08,84.4274 2046.24,84.5837 2046.44,84.5837 C2046.58,84.5837 2046.74,84.5212 2046.99,84.3806 C2048.89,83.3337 2051.19,82.6774 2053.08,82.6774 C2056.58,82.6774 2059.14,84.4274 2059.14,87.9274 C2059.14,92.0368 2056.33,93.8806 2052.19,93.8806 L2050.74,93.8806 C2050.08,93.8806 2049.94,94.1774 2049.94,94.7243 L2049.94,96.4274 C2049.94,96.9743 2050.14,97.3337 2050.78,97.3337 L2052.24,97.3337 C2056.64,97.3337 2060.44,99.3806 2060.44,104.084 C2060.44,108.287 2057.49,110.927 2053.19,110.927 C2050.78,110.927 2048.49,110.381 2046.39,109.427 C2046.24,109.381 2046.08,109.334 2045.94,109.334 C2045.69,109.334 2045.44,109.427 2045.33,109.724 L2044.53,111.834 C2044.49,111.974 2044.44,112.084 2044.44,112.177 C2044.44,112.427 2044.64,112.677 2045.03,112.881 C2047.49,114.177 2050.49,114.631 2053.53,114.631 C2059.78,114.631 2065.19,110.474 2065.19,104.084 M2101.11,96.7868 L2101.11,95.2868 C2101.11,94.4743 2100.91,94.2868 2100.02,94.2868 L2085.47,94.2868 C2084.72,94.2868 2084.52,94.5368 2084.52,95.2243 L2084.52,96.9274 C2084.52,97.5837 2084.66,97.8806 2085.57,97.8806 L2100.11,97.8806 C2100.91,97.8806 2101.11,97.5837 2101.11,96.7868 M2101.11,105.474 L2101.11,103.974 C2101.11,103.177 2100.91,102.974 2100.02,102.974 L2085.47,102.974 C2084.72,102.974 2084.52,103.224 2084.52,103.927 L2084.52,105.631 C2084.52,106.287 2084.66,106.584 2085.57,106.584 L2100.11,106.584 C2100.91,106.584 2101.11,106.287 2101.11,105.474 M2132.99,79.1774 C2132.99,78.8337 2132.74,78.7712 2132.3,78.7712 L2129.1,78.7712 C2125.3,78.7712 2122.19,81.2712 2122.1,85.8806 L2121.94,93.5837 C2121.89,96.2243 2121.35,98.2868 2119.24,98.4743 C2118.6,98.5368 2118.44,98.7243 2118.44,99.3337 L2118.44,100.427 C2118.44,100.927 2118.49,101.084 2119.35,101.177 C2121.35,101.427 2121.89,103.287 2121.94,106.427 L2122.1,113.787 C2122.19,118.381 2125.05,120.881 2129.1,120.881 L2131.99,120.881 C2132.6,120.881 2132.94,120.677 2132.94,120.287 C2132.94,120.224 2132.89,120.131 2132.89,120.084 L2132.55,118.631 C2132.44,118.224 2132.14,118.084 2131.69,118.084 L2129.49,118.084 C2126.69,118.084 2126.1,115.037 2126.05,113.631 L2125.89,107.287 C2125.74,101.927 2124.35,99.9743 2122.24,99.8337 L2122.24,99.7868 C2124.35,99.6306 2125.8,97.2243 2125.89,92.7243 L2126.05,86.0837 C2126.1,84.6774 2126.69,81.5837 2129.49,81.5837 L2131.89,81.5837 C2132.3,81.5837 2132.49,81.4274 2132.6,80.9274 L2132.94,79.4743 C2132.99,79.3806 2132.99,79.2712 2132.99,79.1774 M2157.94,113.177 L2157.94,94.2868 C2157.94,93.5368 2157.64,93.3337 2156.94,93.3337 L2154.49,93.3337 C2153.85,93.3337 2153.44,93.4743 2153.44,94.2868 L2153.44,102.287 L2141.14,102.287 L2150.69,80.9274 C2150.85,80.6306 2150.89,80.3337 2150.89,80.1306 C2150.89,79.8337 2150.74,79.6774 2150.35,79.6774 L2147.49,79.6774 C2146.78,79.6774 2146.49,80.1306 2146.24,80.6774 L2136.69,101.631 C2136.24,102.631 2136.14,103.037 2136.14,103.724 L2136.14,104.927 C2136.14,105.677 2136.35,106.131 2137.24,106.131 L2153.44,106.131 L2153.44,113.131 C2153.44,113.881 2153.78,114.131 2154.44,114.131 L2157.03,114.131 C2157.64,114.131 2157.94,113.881 2157.94,113.177 M2169.63,112.584 C2169.63,110.927 2168.47,109.177 2166.72,109.177 C2165.18,109.177 2164.02,110.287 2164.02,111.834 C2164.02,113.334 2165.72,114.131 2165.72,115.474 C2165.72,116.677 2164.93,117.834 2163.97,118.787 C2163.77,118.974 2163.68,119.084 2163.68,119.224 C2163.68,119.381 2163.77,119.537 2163.88,119.677 L2164.22,120.084 C2164.43,120.334 2164.63,120.474 2164.83,120.474 C2165.02,120.474 2165.22,120.381 2165.52,120.177 C2167.83,118.584 2169.63,115.537 2169.63,112.584 M2200.77,112.927 L2200.77,80.8337 C2200.77,80.0837 2200.47,79.6774 2199.77,79.6774 L2198.16,79.6774 C2197.32,79.6774 2196.91,79.7243 2196.32,80.1306 L2187.11,85.8806 C2186.66,86.1306 2186.47,86.4274 2186.47,86.7243 C2186.47,86.8806 2186.57,87.0837 2186.66,87.2712 L2187.66,88.9274 C2187.82,89.2243 2188.07,89.3337 2188.32,89.3337 C2188.52,89.3337 2188.77,89.2243 2189.02,89.0837 L2196.27,84.6306 L2196.27,112.927 C2196.27,113.787 2196.57,114.131 2197.47,114.131 L2199.66,114.131 C2200.47,114.131 2200.77,113.787 2200.77,112.927 M2218.75,112.584 C2218.75,110.927 2217.6,109.177 2215.85,109.177 C2214.3,109.177 2213.14,110.287 2213.14,111.834 C2213.14,113.334 2214.85,114.131 2214.85,115.474 C2214.85,116.677 2214.05,117.834 2213.1,118.787 C2212.89,118.974 2212.8,119.084 2212.8,119.224 C2212.8,119.381 2212.89,119.537 2213,119.677 L2213.35,120.084 C2213.55,120.334 2213.75,120.474 2213.96,120.474 C2214.14,120.474 2214.35,120.381 2214.64,120.177 C2216.96,118.584 2218.75,115.537 2218.75,112.584 M2256.69,113.037 L2256.69,111.287 C2256.69,110.537 2256.35,110.287 2255.49,110.287 L2241.35,110.287 C2243.28,108.334 2245.39,106.287 2247.39,104.177 C2253.53,97.7868 2256.69,93.4274 2256.69,88.2243 C2256.69,82.2712 2252.1,79.0837 2246.53,79.0837 C2243.24,79.0837 2239.89,80.0212 2237.19,81.7243 C2236.85,81.9743 2236.64,82.2243 2236.64,82.5212 C2236.64,82.6774 2236.69,82.8806 2236.78,83.0837 L2237.53,84.6774 C2237.74,85.0837 2237.94,85.2712 2238.24,85.2712 C2238.39,85.2712 2238.53,85.2243 2238.74,85.1306 C2240.99,83.8337 2243.49,83.0212 2245.89,83.0212 C2249.39,83.0212 2251.89,85.1306 2251.89,88.6774 C2251.89,92.4743 2249.1,96.4743 2244.35,101.584 C2241.78,104.334 2238.78,107.084 2236.14,109.881 C2235.64,110.381 2235.53,110.677 2235.53,111.381 L2235.53,113.037 C2235.53,113.834 2235.78,114.131 2236.64,114.131 L2255.49,114.131 C2256.39,114.131 2256.69,113.724 2256.69,113.037 M2267.88,112.584 C2267.88,110.927 2266.72,109.177 2264.97,109.177 C2263.43,109.177 2262.27,110.287 2262.27,111.834 C2262.27,113.334 2263.97,114.131 2263.97,115.474 C2263.97,116.677 2263.18,117.834 2262.22,118.787 C2262.02,118.974 2261.93,119.084 2261.93,119.224 C2261.93,119.381 2262.02,119.537 2262.13,119.677 L2262.47,120.084 C2262.68,120.334 2262.88,120.474 2263.08,120.474 C2263.27,120.474 2263.47,120.381 2263.77,120.177 C2266.08,118.584 2267.88,115.537 2267.88,112.584 M2305.52,104.084 C2305.52,99.7868 2302.57,96.3337 2298.57,95.3806 C2301.77,94.3806 2304.22,91.1774 2304.22,87.6306 C2304.22,82.1306 2299.32,79.0837 2294.22,79.0837 C2291.11,79.0837 2288.32,79.8337 2285.82,81.3337 C2285.52,81.5212 2285.36,81.6774 2285.36,81.9274 C2285.36,82.0212 2285.41,82.1306 2285.47,82.2712 L2286.27,84.0837 C2286.41,84.4274 2286.57,84.5837 2286.77,84.5837 C2286.91,84.5837 2287.07,84.5212 2287.32,84.3806 C2289.22,83.3337 2291.52,82.6774 2293.41,82.6774 C2296.91,82.6774 2299.47,84.4274 2299.47,87.9274 C2299.47,92.0368 2296.66,93.8806 2292.52,93.8806 L2291.07,93.8806 C2290.41,93.8806 2290.27,94.1774 2290.27,94.7243 L2290.27,96.4274 C2290.27,96.9743 2290.47,97.3337 2291.11,97.3337 L2292.57,97.3337 C2296.97,97.3337 2300.77,99.3806 2300.77,104.084 C2300.77,108.287 2297.82,110.927 2293.52,110.927 C2291.11,110.927 2288.82,110.381 2286.72,109.427 C2286.57,109.381 2286.41,109.334 2286.27,109.334 C2286.02,109.334 2285.77,109.427 2285.66,109.724 L2284.86,111.834 C2284.82,111.974 2284.77,112.084 2284.77,112.177 C2284.77,112.427 2284.97,112.677 2285.36,112.881 C2287.82,114.177 2290.82,114.631 2293.86,114.631 C2300.11,114.631 2305.52,110.474 2305.52,104.084 M2324.3,100.334 L2324.3,99.1774 C2324.3,98.8806 2324.25,98.5837 2323.46,98.4743 C2321.46,98.2243 2320.89,96.3806 2320.85,93.2243 L2320.71,85.8806 C2320.6,81.2712 2317.75,78.7712 2313.71,78.7712 L2310.75,78.7712 C2310.3,78.7712 2309.8,78.8337 2309.8,79.2712 C2309.8,79.3337 2309.85,79.4274 2309.85,79.5212 L2310.25,81.0212 C2310.35,81.4274 2310.6,81.5837 2311.05,81.5837 L2313.3,81.5837 C2316.1,81.5837 2316.64,84.6774 2316.71,86.0837 L2316.85,92.3806 C2317,97.7243 2318.46,99.6774 2320.55,99.8337 L2320.55,99.8806 C2318.46,100.037 2316.96,102.427 2316.85,106.927 L2316.71,113.631 C2316.64,115.037 2316.1,118.084 2313.3,118.084 L2310.85,118.084 C2310.46,118.084 2310.25,118.224 2310.14,118.724 L2309.85,120.224 C2309.85,120.334 2309.8,120.381 2309.8,120.474 C2309.8,120.834 2310,120.881 2310.46,120.881 L2313.71,120.881 C2317.5,120.881 2320.6,118.381 2320.71,113.787 L2320.85,106.084 C2320.89,103.427 2321.46,101.381 2323.55,101.177 C2324.21,101.131 2324.3,100.927 2324.3,100.334"/>
<path class="" d="M1411.14,99.1265 C1411.14,92.6734 1407.98,86.7203 1400.89,86.7203 C1398.05,86.7203 1395.05,88.0171 1393.44,89.9234 L1393.44,88.1734 C1393.44,87.4703 1393.05,87.2671 1392.3,87.2671 L1390.39,87.2671 C1389.73,87.2671 1389.44,87.4703 1389.44,88.1734 L1389.44,121.127 C1389.44,121.83 1389.73,122.173 1390.39,122.173 L1392.59,122.173 C1393.23,122.173 1393.69,121.97 1393.69,121.22 L1393.69,109.127 C1395.19,110.97 1397.84,111.923 1400.3,111.923 C1407.55,111.923 1411.14,105.767 1411.14,99.1265 M1406.69,99.2203 C1406.69,103.673 1404.89,108.58 1399.73,108.58 C1397.3,108.58 1394.73,107.017 1393.69,105.08 L1393.69,93.3296 C1394.94,91.5171 1397.69,90.1265 1400.05,90.1265 C1405.23,90.1265 1406.69,94.8765 1406.69,99.2203 M1437.58,110.33 L1437.58,108.58 C1437.58,107.83 1437.23,107.58 1436.37,107.58 L1422.23,107.58 C1424.17,105.627 1426.28,103.58 1428.28,101.47 C1434.42,95.0796 1437.58,90.7203 1437.58,85.5171 C1437.58,79.564 1432.98,76.3765 1427.42,76.3765 C1424.12,76.3765 1420.78,77.314 1418.08,79.0171 C1417.73,79.2671 1417.53,79.5171 1417.53,79.814 C1417.53,79.9703 1417.58,80.1734 1417.67,80.3765 L1418.42,81.9703 C1418.62,82.3765 1418.83,82.564 1419.12,82.564 C1419.28,82.564 1419.42,82.5171 1419.62,82.4234 C1421.87,81.1265 1424.37,80.314 1426.78,80.314 C1430.28,80.314 1432.78,82.4234 1432.78,85.9703 C1432.78,89.7671 1429.98,93.7671 1425.23,98.8765 C1422.67,101.627 1419.67,104.377 1417.03,107.173 C1416.53,107.673 1416.42,107.97 1416.42,108.673 L1416.42,110.33 C1416.42,111.127 1416.67,111.423 1417.53,111.423 L1436.37,111.423 C1437.28,111.423 1437.58,111.017 1437.58,110.33 M1473.2,94.0796 L1473.2,92.5796 C1473.2,91.7671 1473,91.5796 1472.11,91.5796 L1457.56,91.5796 C1456.81,91.5796 1456.61,91.8296 1456.61,92.5171 L1456.61,94.2203 C1456.61,94.8765 1456.75,95.1734 1457.66,95.1734 L1472.2,95.1734 C1473,95.1734 1473.2,94.8765 1473.2,94.0796 M1473.2,102.767 L1473.2,101.267 C1473.2,100.47 1473,100.267 1472.11,100.267 L1457.56,100.267 C1456.81,100.267 1456.61,100.517 1456.61,101.22 L1456.61,102.923 C1456.61,103.58 1456.75,103.877 1457.66,103.877 L1472.2,103.877 C1473,103.877 1473.2,103.58 1473.2,102.767 M1505.08,76.4703 C1505.08,76.1265 1504.83,76.064 1504.39,76.064 L1501.19,76.064 C1497.39,76.064 1494.28,78.564 1494.19,83.1734 L1494.03,90.8765 C1493.98,93.5171 1493.44,95.5796 1491.33,95.7671 C1490.69,95.8296 1490.53,96.0171 1490.53,96.6265 L1490.53,97.7203 C1490.53,98.2203 1490.58,98.3765 1491.44,98.4703 C1493.44,98.7203 1493.98,100.58 1494.03,103.72 L1494.19,111.08 C1494.28,115.673 1497.14,118.173 1501.19,118.173 L1504.08,118.173 C1504.69,118.173 1505.03,117.97 1505.03,117.58 C1505.03,117.517 1504.98,117.423 1504.98,117.377 L1504.64,115.923 C1504.53,115.517 1504.23,115.377 1503.78,115.377 L1501.58,115.377 C1498.78,115.377 1498.19,112.33 1498.14,110.923 L1497.98,104.58 C1497.83,99.2203 1496.44,97.2671 1494.33,97.1265 L1494.33,97.0796 C1496.44,96.9234 1497.89,94.5171 1497.98,90.0171 L1498.14,83.3765 C1498.19,81.9703 1498.78,78.8765 1501.58,78.8765 L1503.98,78.8765 C1504.39,78.8765 1504.58,78.7203 1504.69,78.2203 L1505.03,76.7671 C1505.08,76.6734 1505.08,76.564 1505.08,76.4703 M1530.23,101.377 C1530.23,97.0796 1527.28,93.6265 1523.28,92.6734 C1526.48,91.6734 1528.94,88.4703 1528.94,84.9234 C1528.94,79.4234 1524.03,76.3765 1518.94,76.3765 C1515.83,76.3765 1513.03,77.1265 1510.53,78.6265 C1510.23,78.814 1510.08,78.9703 1510.08,79.2203 C1510.08,79.314 1510.12,79.4234 1510.19,79.564 L1510.98,81.3765 C1511.12,81.7203 1511.28,81.8765 1511.48,81.8765 C1511.62,81.8765 1511.78,81.814 1512.03,81.6734 C1513.94,80.6265 1516.23,79.9703 1518.12,79.9703 C1521.62,79.9703 1524.19,81.7203 1524.19,85.2203 C1524.19,89.3296 1521.37,91.1734 1517.23,91.1734 L1515.78,91.1734 C1515.12,91.1734 1514.98,91.4703 1514.98,92.0171 L1514.98,93.7203 C1514.98,94.2671 1515.19,94.6265 1515.83,94.6265 L1517.28,94.6265 C1521.69,94.6265 1525.48,96.6734 1525.48,101.377 C1525.48,105.58 1522.53,108.22 1518.23,108.22 C1515.83,108.22 1513.53,107.673 1511.44,106.72 C1511.28,106.673 1511.12,106.627 1510.98,106.627 C1510.73,106.627 1510.48,106.72 1510.37,107.017 L1509.58,109.127 C1509.53,109.267 1509.48,109.377 1509.48,109.47 C1509.48,109.72 1509.69,109.97 1510.08,110.173 C1512.53,111.47 1515.53,111.923 1518.58,111.923 C1524.83,111.923 1530.23,107.767 1530.23,101.377 M1541.72,109.877 C1541.72,108.22 1540.56,106.47 1538.81,106.47 C1537.26,106.47 1536.11,107.58 1536.11,109.127 C1536.11,110.627 1537.81,111.423 1537.81,112.767 C1537.81,113.97 1537.01,115.127 1536.06,116.08 C1535.86,116.267 1535.76,116.377 1535.76,116.517 C1535.76,116.673 1535.86,116.83 1535.97,116.97 L1536.31,117.377 C1536.51,117.627 1536.72,117.767 1536.92,117.767 C1537.11,117.767 1537.31,117.673 1537.61,117.47 C1539.92,115.877 1541.72,112.83 1541.72,109.877 M1579.16,110.47 L1579.16,91.5796 C1579.16,90.8296 1578.86,90.6265 1578.16,90.6265 L1575.7,90.6265 C1575.06,90.6265 1574.66,90.7671 1574.66,91.5796 L1574.66,99.5796 L1562.36,99.5796 L1571.91,78.2203 C1572.06,77.9234 1572.11,77.6265 1572.11,77.4234 C1572.11,77.1265 1571.95,76.9703 1571.56,76.9703 L1568.7,76.9703 C1568,76.9703 1567.7,77.4234 1567.45,77.9703 L1557.91,98.9234 C1557.45,99.9234 1557.36,100.33 1557.36,101.017 L1557.36,102.22 C1557.36,102.97 1557.56,103.423 1558.45,103.423 L1574.66,103.423 L1574.66,110.423 C1574.66,111.173 1575,111.423 1575.66,111.423 L1578.25,111.423 C1578.86,111.423 1579.16,111.173 1579.16,110.47 M1590.84,109.877 C1590.84,108.22 1589.69,106.47 1587.94,106.47 C1586.39,106.47 1585.23,107.58 1585.23,109.127 C1585.23,110.627 1586.94,111.423 1586.94,112.767 C1586.94,113.97 1586.14,115.127 1585.19,116.08 C1584.98,116.267 1584.89,116.377 1584.89,116.517 C1584.89,116.673 1584.98,116.83 1585.09,116.97 L1585.44,117.377 C1585.64,117.627 1585.84,117.767 1586.05,117.767 C1586.23,117.767 1586.44,117.673 1586.73,117.47 C1589.05,115.877 1590.84,112.83 1590.84,109.877 M1621.98,110.22 L1621.98,78.1265 C1621.98,77.3765 1621.69,76.9703 1620.98,76.9703 L1619.37,76.9703 C1618.53,76.9703 1618.12,77.0171 1617.53,77.4234 L1608.33,83.1734 C1607.87,83.4234 1607.69,83.7203 1607.69,84.0171 C1607.69,84.1734 1607.78,84.3765 1607.87,84.564 L1608.87,86.2203 C1609.03,86.5171 1609.28,86.6265 1609.53,86.6265 C1609.73,86.6265 1609.98,86.5171 1610.23,86.3765 L1617.48,81.9234 L1617.48,110.22 C1617.48,111.08 1617.78,111.423 1618.69,111.423 L1620.87,111.423 C1621.69,111.423 1621.98,111.08 1621.98,110.22 M1639.97,109.877 C1639.97,108.22 1638.81,106.47 1637.06,106.47 C1635.51,106.47 1634.36,107.58 1634.36,109.127 C1634.36,110.627 1636.06,111.423 1636.06,112.767 C1636.06,113.97 1635.26,115.127 1634.31,116.08 C1634.11,116.267 1634.01,116.377 1634.01,116.517 C1634.01,116.673 1634.11,116.83 1634.22,116.97 L1634.56,117.377 C1634.76,117.627 1634.97,117.767 1635.17,117.767 C1635.36,117.767 1635.56,117.673 1635.86,117.47 C1638.17,115.877 1639.97,112.83 1639.97,109.877 M1677.91,110.33 L1677.91,108.58 C1677.91,107.83 1677.56,107.58 1676.7,107.58 L1662.56,107.58 C1664.5,105.627 1666.61,103.58 1668.61,101.47 C1674.75,95.0796 1677.91,90.7203 1677.91,85.5171 C1677.91,79.564 1673.31,76.3765 1667.75,76.3765 C1664.45,76.3765 1661.11,77.314 1658.41,79.0171 C1658.06,79.2671 1657.86,79.5171 1657.86,79.814 C1657.86,79.9703 1657.91,80.1734 1658,80.3765 L1658.75,81.9703 C1658.95,82.3765 1659.16,82.564 1659.45,82.564 C1659.61,82.564 1659.75,82.5171 1659.95,82.4234 C1662.2,81.1265 1664.7,80.314 1667.11,80.314 C1670.61,80.314 1673.11,82.4234 1673.11,85.9703 C1673.11,89.7671 1670.31,93.7671 1665.56,98.8765 C1663,101.627 1660,104.377 1657.36,107.173 C1656.86,107.673 1656.75,107.97 1656.75,108.673 L1656.75,110.33 C1656.75,111.127 1657,111.423 1657.86,111.423 L1676.7,111.423 C1677.61,111.423 1677.91,111.017 1677.91,110.33 M1696.39,97.6265 L1696.39,96.4703 C1696.39,96.1734 1696.34,95.8765 1695.55,95.7671 C1693.55,95.5171 1692.98,93.6734 1692.94,90.5171 L1692.8,83.1734 C1692.69,78.564 1689.84,76.064 1685.8,76.064 L1682.84,76.064 C1682.39,76.064 1681.89,76.1265 1681.89,76.564 C1681.89,76.6265 1681.94,76.7203 1681.94,76.814 L1682.34,78.314 C1682.44,78.7203 1682.69,78.8765 1683.14,78.8765 L1685.39,78.8765 C1688.19,78.8765 1688.73,81.9703 1688.8,83.3765 L1688.94,89.6734 C1689.09,95.0171 1690.55,96.9703 1692.64,97.1265 L1692.64,97.1734 C1690.55,97.3296 1689.05,99.7203 1688.94,104.22 L1688.8,110.923 C1688.73,112.33 1688.19,115.377 1685.39,115.377 L1682.94,115.377 C1682.55,115.377 1682.34,115.517 1682.23,116.017 L1681.94,117.517 C1681.94,117.627 1681.89,117.673 1681.89,117.767 C1681.89,118.127 1682.09,118.173 1682.55,118.173 L1685.8,118.173 C1689.59,118.173 1692.69,115.673 1692.8,111.08 L1692.94,103.377 C1692.98,100.72 1693.55,98.6734 1695.64,98.4703 C1696.3,98.4234 1696.39,98.2203 1696.39,97.6265"/>
<path class="" d="M790.311,101.834 C790.311,95.3806 787.155,89.4274 780.061,89.4274 C777.218,89.4274 774.218,90.7243 772.608,92.6306 L772.608,90.8806 C772.608,90.1774 772.218,89.9743 771.468,89.9743 L769.561,89.9743 C768.905,89.9743 768.608,90.1774 768.608,90.8806 L768.608,123.834 C768.608,124.537 768.905,124.881 769.561,124.881 L771.764,124.881 C772.405,124.881 772.858,124.677 772.858,123.927 L772.858,111.834 C774.358,113.677 777.014,114.631 779.468,114.631 C786.718,114.631 790.311,108.474 790.311,101.834 M785.858,101.927 C785.858,106.381 784.061,111.287 778.905,111.287 C776.468,111.287 773.905,109.724 772.858,107.787 L772.858,96.0368 C774.108,94.2243 776.858,92.8337 779.218,92.8337 C784.405,92.8337 785.858,97.5837 785.858,101.927 M809.952,112.927 L809.952,80.8337 C809.952,80.0837 809.655,79.6774 808.952,79.6774 L807.343,79.6774 C806.499,79.6774 806.093,79.7243 805.499,80.1306 L796.296,85.8806 C795.843,86.1306 795.655,86.4274 795.655,86.7243 C795.655,86.8806 795.749,87.0837 795.843,87.2712 L796.843,88.9274 C796.999,89.2243 797.249,89.3337 797.499,89.3337 C797.702,89.3337 797.952,89.2243 798.202,89.0837 L805.452,84.6306 L805.452,112.927 C805.452,113.787 805.749,114.131 806.655,114.131 L808.843,114.131 C809.655,114.131 809.952,113.787 809.952,112.927 M852.374,96.7868 L852.374,95.2868 C852.374,94.4743 852.171,94.2868 851.28,94.2868 L836.733,94.2868 C835.983,94.2868 835.78,94.5368 835.78,95.2243 L835.78,96.9274 C835.78,97.5837 835.921,97.8806 836.827,97.8806 L851.374,97.8806 C852.171,97.8806 852.374,97.5837 852.374,96.7868 M852.374,105.474 L852.374,103.974 C852.374,103.177 852.171,102.974 851.28,102.974 L836.733,102.974 C835.983,102.974 835.78,103.224 835.78,103.927 L835.78,105.631 C835.78,106.287 835.921,106.584 836.827,106.584 L851.374,106.584 C852.171,106.584 852.374,106.287 852.374,105.474 M884.249,79.1774 C884.249,78.8337 883.999,78.7712 883.561,78.7712 L880.358,78.7712 C876.561,78.7712 873.452,81.2712 873.358,85.8806 L873.202,93.5837 C873.155,96.2243 872.608,98.2868 870.499,98.4743 C869.858,98.5368 869.702,98.7243 869.702,99.3337 L869.702,100.427 C869.702,100.927 869.749,101.084 870.608,101.177 C872.608,101.427 873.155,103.287 873.202,106.427 L873.358,113.787 C873.452,118.381 876.311,120.881 880.358,120.881 L883.249,120.881 C883.858,120.881 884.202,120.677 884.202,120.287 C884.202,120.224 884.155,120.131 884.155,120.084 L883.811,118.631 C883.702,118.224 883.405,118.084 882.952,118.084 L880.749,118.084 C877.952,118.084 877.358,115.037 877.311,113.631 L877.155,107.287 C876.999,101.927 875.608,99.9743 873.499,99.8337 L873.499,99.7868 C875.608,99.6306 877.061,97.2243 877.155,92.7243 L877.311,86.0837 C877.358,84.6774 877.952,81.5837 880.749,81.5837 L883.155,81.5837 C883.561,81.5837 883.749,81.4274 883.858,80.9274 L884.202,79.4743 C884.249,79.3806 884.249,79.2712 884.249,79.1774 M909.702,113.037 L909.702,111.287 C909.702,110.537 909.358,110.287 908.499,110.287 L894.358,110.287 C896.296,108.334 898.405,106.287 900.405,104.177 C906.546,97.7868 909.702,93.4274 909.702,88.2243 C909.702,82.2712 905.108,79.0837 899.546,79.0837 C896.249,79.0837 892.905,80.0212 890.202,81.7243 C889.858,81.9743 889.655,82.2243 889.655,82.5212 C889.655,82.6774 889.702,82.8806 889.796,83.0837 L890.546,84.6774 C890.749,85.0837 890.952,85.2712 891.249,85.2712 C891.405,85.2712 891.546,85.2243 891.749,85.1306 C893.999,83.8337 896.499,83.0212 898.905,83.0212 C902.405,83.0212 904.905,85.1306 904.905,88.6774 C904.905,92.4743 902.108,96.4743 897.358,101.584 C894.796,104.334 891.796,107.084 889.155,109.881 C888.655,110.381 888.546,110.677 888.546,111.381 L888.546,113.037 C888.546,113.834 888.796,114.131 889.655,114.131 L908.499,114.131 C909.405,114.131 909.702,113.724 909.702,113.037 M920.889,112.584 C920.889,110.927 919.733,109.177 917.983,109.177 C916.436,109.177 915.28,110.287 915.28,111.834 C915.28,113.334 916.983,114.131 916.983,115.474 C916.983,116.677 916.186,117.834 915.233,118.787 C915.03,118.974 914.936,119.084 914.936,119.224 C914.936,119.381 915.03,119.537 915.139,119.677 L915.483,120.084 C915.686,120.334 915.889,120.474 916.093,120.474 C916.28,120.474 916.483,120.381 916.78,120.177 C919.093,118.584 920.889,115.537 920.889,112.584 M958.53,104.084 C958.53,99.7868 955.577,96.3337 951.577,95.3806 C954.78,94.3806 957.233,91.1774 957.233,87.6306 C957.233,82.1306 952.327,79.0837 947.233,79.0837 C944.124,79.0837 941.327,79.8337 938.827,81.3337 C938.53,81.5212 938.374,81.6774 938.374,81.9274 C938.374,82.0212 938.421,82.1306 938.483,82.2712 L939.28,84.0837 C939.421,84.4274 939.577,84.5837 939.78,84.5837 C939.921,84.5837 940.077,84.5212 940.327,84.3806 C942.233,83.3337 944.53,82.6774 946.421,82.6774 C949.921,82.6774 952.483,84.4274 952.483,87.9274 C952.483,92.0368 949.671,93.8806 945.53,93.8806 L944.077,93.8806 C943.421,93.8806 943.28,94.1774 943.28,94.7243 L943.28,96.4274 C943.28,96.9743 943.483,97.3337 944.124,97.3337 L945.577,97.3337 C949.983,97.3337 953.78,99.3806 953.78,104.084 C953.78,108.287 950.827,110.927 946.53,110.927 C944.124,110.927 941.827,110.381 939.733,109.427 C939.577,109.381 939.421,109.334 939.28,109.334 C939.03,109.334 938.78,109.427 938.671,109.724 L937.874,111.834 C937.827,111.974 937.78,112.084 937.78,112.177 C937.78,112.427 937.983,112.677 938.374,112.881 C940.827,114.177 943.827,114.631 946.874,114.631 C953.124,114.631 958.53,110.474 958.53,104.084 M970.014,112.584 C970.014,110.927 968.858,109.177 967.108,109.177 C965.561,109.177 964.405,110.287 964.405,111.834 C964.405,113.334 966.108,114.131 966.108,115.474 C966.108,116.677 965.311,117.834 964.358,118.787 C964.155,118.974 964.061,119.084 964.061,119.224 C964.061,119.381 964.155,119.537 964.264,119.677 L964.608,120.084 C964.811,120.334 965.014,120.474 965.218,120.474 C965.405,120.474 965.608,120.381 965.905,120.177 C968.218,118.584 970.014,115.537 970.014,112.584 M1007.45,113.177 L1007.45,94.2868 C1007.45,93.5368 1007.16,93.3337 1006.45,93.3337 L1004,93.3337 C1003.36,93.3337 1002.95,93.4743 1002.95,94.2868 L1002.95,102.287 L990.655,102.287 L1000.2,80.9274 C1000.36,80.6306 1000.41,80.3337 1000.41,80.1306 C1000.41,79.8337 1000.25,79.6774 999.858,79.6774 L996.999,79.6774 C996.296,79.6774 995.999,80.1306 995.749,80.6774 L986.202,101.631 C985.749,102.631 985.655,103.037 985.655,103.724 L985.655,104.927 C985.655,105.677 985.858,106.131 986.749,106.131 L1002.95,106.131 L1002.95,113.131 C1002.95,113.881 1003.3,114.131 1003.95,114.131 L1006.55,114.131 C1007.16,114.131 1007.45,113.881 1007.45,113.177 M1019.14,112.584 C1019.14,110.927 1017.98,109.177 1016.23,109.177 C1014.69,109.177 1013.53,110.287 1013.53,111.834 C1013.53,113.334 1015.23,114.131 1015.23,115.474 C1015.23,116.677 1014.44,117.834 1013.48,118.787 C1013.28,118.974 1013.19,119.084 1013.19,119.224 C1013.19,119.381 1013.28,119.537 1013.39,119.677 L1013.73,120.084 C1013.94,120.334 1014.14,120.474 1014.34,120.474 C1014.53,120.474 1014.73,120.381 1015.03,120.177 C1017.34,118.584 1019.14,115.537 1019.14,112.584 M1050.28,112.927 L1050.28,80.8337 C1050.28,80.0837 1049.98,79.6774 1049.28,79.6774 L1047.67,79.6774 C1046.83,79.6774 1046.42,79.7243 1045.83,80.1306 L1036.62,85.8806 C1036.17,86.1306 1035.98,86.4274 1035.98,86.7243 C1035.98,86.8806 1036.08,87.0837 1036.17,87.2712 L1037.17,88.9274 C1037.33,89.2243 1037.58,89.3337 1037.83,89.3337 C1038.03,89.3337 1038.28,89.2243 1038.53,89.0837 L1045.78,84.6306 L1045.78,112.927 C1045.78,113.787 1046.08,114.131 1046.98,114.131 L1049.17,114.131 C1049.98,114.131 1050.28,113.787 1050.28,112.927 M1075.56,100.334 L1075.56,99.1774 C1075.56,98.8806 1075.51,98.5837 1074.72,98.4743 C1072.72,98.2243 1072.16,96.3806 1072.11,93.2243 L1071.97,85.8806 C1071.86,81.2712 1069.01,78.7712 1064.97,78.7712 L1062.01,78.7712 C1061.56,78.7712 1061.06,78.8337 1061.06,79.2712 C1061.06,79.3337 1061.11,79.4274 1061.11,79.5212 L1061.51,81.0212 C1061.61,81.4274 1061.86,81.5837 1062.31,81.5837 L1064.56,81.5837 C1067.36,81.5837 1067.91,84.6774 1067.97,86.0837 L1068.11,92.3806 C1068.26,97.7243 1069.72,99.6774 1071.81,99.8337 L1071.81,99.8806 C1069.72,100.037 1068.22,102.427 1068.11,106.927 L1067.97,113.631 C1067.91,115.037 1067.36,118.084 1064.56,118.084 L1062.11,118.084 C1061.72,118.084 1061.51,118.224 1061.41,118.724 L1061.11,120.224 C1061.11,120.334 1061.06,120.381 1061.06,120.474 C1061.06,120.834 1061.26,120.881 1061.72,120.881 L1064.97,120.881 C1068.76,120.881 1071.86,118.381 1071.97,113.787 L1072.11,106.084 C1072.16,103.427 1072.72,101.381 1074.81,101.177 C1075.47,101.131 1075.56,100.927 1075.56,100.334"/>
<path class="" d="M175.015,113.084 L175.015,98.3806 C175.015,92.9274 172.812,89.4274 167.062,89.4274 C164.156,89.4274 161.156,90.4743 158.859,92.4274 L158.812,90.8806 C158.812,90.2243 158.453,89.9743 157.859,89.9743 L155.656,89.9743 C154.953,89.9743 154.703,90.2868 154.703,90.9743 L154.703,113.131 C154.703,113.787 155.062,114.131 155.656,114.131 L158.015,114.131 C158.656,114.131 158.953,113.787 158.953,113.084 L158.953,95.8806 C160.703,94.2868 163.562,92.9743 165.859,92.9743 C169.859,92.9743 170.765,95.5368 170.765,99.0837 L170.765,113.084 C170.765,113.787 171.062,114.131 171.703,114.131 L174.062,114.131 C174.765,114.131 175.015,113.787 175.015,113.084 M210.937,96.7868 L210.937,95.2868 C210.937,94.4743 210.734,94.2868 209.844,94.2868 L195.297,94.2868 C194.547,94.2868 194.344,94.5368 194.344,95.2243 L194.344,96.9274 C194.344,97.5837 194.484,97.8806 195.39,97.8806 L209.937,97.8806 C210.734,97.8806 210.937,97.5837 210.937,96.7868 M210.937,105.474 L210.937,103.974 C210.937,103.177 210.734,102.974 209.844,102.974 L195.297,102.974 C194.547,102.974 194.344,103.224 194.344,103.927 L194.344,105.631 C194.344,106.287 194.484,106.584 195.39,106.584 L209.937,106.584 C210.734,106.584 210.937,106.287 210.937,105.474 M242.812,79.1774 C242.812,78.8337 242.562,78.7712 242.125,78.7712 L238.922,78.7712 C235.125,78.7712 232.015,81.2712 231.922,85.8806 L231.765,93.5837 C231.719,96.2243 231.172,98.2868 229.062,98.4743 C228.422,98.5368 228.265,98.7243 228.265,99.3337 L228.265,100.427 C228.265,100.927 228.312,101.084 229.172,101.177 C231.172,101.427 231.719,103.287 231.765,106.427 L231.922,113.787 C232.015,118.381 234.875,120.881 238.922,120.881 L241.812,120.881 C242.422,120.881 242.765,120.677 242.765,120.287 C242.765,120.224 242.719,120.131 242.719,120.084 L242.375,118.631 C242.265,118.224 241.969,118.084 241.515,118.084 L239.312,118.084 C236.515,118.084 235.922,115.037 235.875,113.631 L235.719,107.287 C235.562,101.927 234.172,99.9743 232.062,99.8337 L232.062,99.7868 C234.172,99.6306 235.625,97.2243 235.719,92.7243 L235.875,86.0837 C235.922,84.6774 236.515,81.5837 239.312,81.5837 L241.719,81.5837 C242.125,81.5837 242.312,81.4274 242.422,80.9274 L242.765,79.4743 C242.812,79.3806 242.812,79.2712 242.812,79.1774 M261.469,112.927 L261.469,80.8337 C261.469,80.0837 261.172,79.6774 260.469,79.6774 L258.859,79.6774 C258.015,79.6774 257.609,79.7243 257.015,80.1306 L247.812,85.8806 C247.359,86.1306 247.172,86.4274 247.172,86.7243 C247.172,86.8806 247.265,87.0837 247.359,87.2712 L248.359,88.9274 C248.515,89.2243 248.765,89.3337 249.015,89.3337 C249.219,89.3337 249.469,89.2243 249.719,89.0837 L256.969,84.6306 L256.969,112.927 C256.969,113.787 257.265,114.131 258.172,114.131 L260.359,114.131 C261.172,114.131 261.469,113.787 261.469,112.927 M279.453,112.584 C279.453,110.927 278.297,109.177 276.547,109.177 C275,109.177 273.844,110.287 273.844,111.834 C273.844,113.334 275.547,114.131 275.547,115.474 C275.547,116.677 274.75,117.834 273.797,118.787 C273.594,118.974 273.5,119.084 273.5,119.224 C273.5,119.381 273.594,119.537 273.703,119.677 L274.047,120.084 C274.25,120.334 274.453,120.474 274.656,120.474 C274.844,120.474 275.047,120.381 275.344,120.177 C277.656,118.584 279.453,115.537 279.453,112.584 M317.39,113.037 L317.39,111.287 C317.39,110.537 317.047,110.287 316.187,110.287 L302.047,110.287 C303.984,108.334 306.094,106.287 308.094,104.177 C314.234,97.7868 317.39,93.4274 317.39,88.2243 C317.39,82.2712 312.797,79.0837 307.234,79.0837 C303.937,79.0837 300.594,80.0212 297.89,81.7243 C297.547,81.9743 297.344,82.2243 297.344,82.5212 C297.344,82.6774 297.39,82.8806 297.484,83.0837 L298.234,84.6774 C298.437,85.0837 298.64,85.2712 298.937,85.2712 C299.094,85.2712 299.234,85.2243 299.437,85.1306 C301.687,83.8337 304.187,83.0212 306.594,83.0212 C310.094,83.0212 312.594,85.1306 312.594,88.6774 C312.594,92.4743 309.797,96.4743 305.047,101.584 C302.484,104.334 299.484,107.084 296.844,109.881 C296.344,110.381 296.234,110.677 296.234,111.381 L296.234,113.037 C296.234,113.834 296.484,114.131 297.344,114.131 L316.187,114.131 C317.094,114.131 317.39,113.724 317.39,113.037 M328.578,112.584 C328.578,110.927 327.422,109.177 325.672,109.177 C324.125,109.177 322.969,110.287 322.969,111.834 C322.969,113.334 324.672,114.131 324.672,115.474 C324.672,116.677 323.875,117.834 322.922,118.787 C322.719,118.974 322.625,119.084 322.625,119.224 C322.625,119.381 322.719,119.537 322.828,119.677 L323.172,120.084 C323.375,120.334 323.578,120.474 323.781,120.474 C323.969,120.474 324.172,120.381 324.469,120.177 C326.781,118.584 328.578,115.537 328.578,112.584 M366.219,104.084 C366.219,99.7868 363.265,96.3337 359.265,95.3806 C362.469,94.3806 364.922,91.1774 364.922,87.6306 C364.922,82.1306 360.015,79.0837 354.922,79.0837 C351.812,79.0837 349.015,79.8337 346.515,81.3337 C346.219,81.5212 346.062,81.6774 346.062,81.9274 C346.062,82.0212 346.109,82.1306 346.172,82.2712 L346.969,84.0837 C347.109,84.4274 347.265,84.5837 347.469,84.5837 C347.609,84.5837 347.765,84.5212 348.015,84.3806 C349.922,83.3337 352.219,82.6774 354.109,82.6774 C357.609,82.6774 360.172,84.4274 360.172,87.9274 C360.172,92.0368 357.359,93.8806 353.219,93.8806 L351.765,93.8806 C351.109,93.8806 350.969,94.1774 350.969,94.7243 L350.969,96.4274 C350.969,96.9743 351.172,97.3337 351.812,97.3337 L353.265,97.3337 C357.672,97.3337 361.469,99.3806 361.469,104.084 C361.469,108.287 358.515,110.927 354.219,110.927 C351.812,110.927 349.515,110.381 347.422,109.427 C347.265,109.381 347.109,109.334 346.969,109.334 C346.719,109.334 346.469,109.427 346.359,109.724 L345.562,111.834 C345.515,111.974 345.469,112.084 345.469,112.177 C345.469,112.427 345.672,112.677 346.062,112.881 C348.515,114.177 351.515,114.631 354.562,114.631 C360.812,114.631 366.219,110.474 366.219,104.084 M377.703,112.584 C377.703,110.927 376.547,109.177 374.797,109.177 C373.25,109.177 372.094,110.287 372.094,111.834 C372.094,113.334 373.797,114.131 373.797,115.474 C373.797,116.677 373,117.834 372.047,118.787 C371.844,118.974 371.75,119.084 371.75,119.224 C371.75,119.381 371.844,119.537 371.953,119.677 L372.297,120.084 C372.5,120.334 372.703,120.474 372.906,120.474 C373.094,120.474 373.297,120.381 373.594,120.177 C375.906,118.584 377.703,115.537 377.703,112.584 M415.14,113.177 L415.14,94.2868 C415.14,93.5368 414.844,93.3337 414.14,93.3337 L411.687,93.3337 C411.047,93.3337 410.64,93.4743 410.64,94.2868 L410.64,102.287 L398.344,102.287 L407.89,80.9274 C408.047,80.6306 408.094,80.3337 408.094,80.1306 C408.094,79.8337 407.937,79.6774 407.547,79.6774 L404.687,79.6774 C403.984,79.6774 403.687,80.1306 403.437,80.6774 L393.89,101.631 C393.437,102.631 393.344,103.037 393.344,103.724 L393.344,104.927 C393.344,105.677 393.547,106.131 394.437,106.131 L410.64,106.131 L410.64,113.131 C410.64,113.881 410.984,114.131 411.64,114.131 L414.234,114.131 C414.844,114.131 415.14,113.881 415.14,113.177 M434.125,100.334 L434.125,99.1774 C434.125,98.8806 434.078,98.5837 433.281,98.4743 C431.281,98.2243 430.719,96.3806 430.672,93.2243 L430.531,85.8806 C430.422,81.2712 427.578,78.7712 423.531,78.7712 L420.578,78.7712 C420.125,78.7712 419.625,78.8337 419.625,79.2712 C419.625,79.3337 419.672,79.4274 419.672,79.5212 L420.078,81.0212 C420.172,81.4274 420.422,81.5837 420.875,81.5837 L423.125,81.5837 C425.922,81.5837 426.469,84.6774 426.531,86.0837 L426.672,92.3806 C426.828,97.7243 428.281,99.6774 430.375,99.8337 L430.375,99.8806 C428.281,100.037 426.781,102.427 426.672,106.927 L426.531,113.631 C426.469,115.037 425.922,118.084 423.125,118.084 L420.672,118.084 C420.281,118.084 420.078,118.224 419.969,118.724 L419.672,120.224 C419.672,120.334 419.625,120.381 419.625,120.474 C419.625,120.834 419.828,120.881 420.281,120.881 L423.531,120.881 C427.328,120.881 430.422,118.381 430.531,113.787 L430.672,106.084 C430.719,103.427 431.281,101.381 433.375,101.177 C434.031,101.131 434.125,100.927 434.125,100.334"/>
<path class="" d="M161.602,37.2349 C161.602,34.4849 160.789,32.188 159.399,30.5318 C157.102,27.7818 153.195,26.7349 148.492,26.7349 L141.945,26.7349 C141.242,26.7349 140.992,27.0787 140.992,27.7818 L140.992,60.1412 C140.992,60.8443 141.289,61.188 141.945,61.188 L144.649,61.188 C145.352,61.188 145.649,60.7818 145.649,60.188 L145.649,48.1412 C145.789,48.1412 148.852,48.188 148.992,48.188 C155.899,48.188 161.602,44.688 161.602,37.2349 M156.899,37.3443 C156.899,42.438 153.695,44.6412 148.852,44.6412 C148.742,44.6412 145.789,44.5943 145.649,44.5943 L145.649,30.2818 L148.399,30.2818 C153.289,30.2818 156.899,31.8912 156.899,37.3443 M186.43,60.2818 L186.43,58.3912 C186.43,57.7818 186.133,57.5318 185.383,57.5318 L171.586,57.5318 L171.586,44.938 L183.383,44.938 C184.086,44.938 184.336,44.7349 184.336,44.0318 L184.336,42.2349 C184.336,41.6412 184.039,41.3443 183.336,41.3443 L171.586,41.3443 L171.586,30.3912 L184.727,30.3912 C185.586,30.3912 186.039,30.2818 186.086,29.5787 L186.289,27.688 C186.289,27.5787 186.289,27.5318 186.289,27.438 C186.289,26.938 186.086,26.7349 185.477,26.7349 L167.883,26.7349 C167.18,26.7349 166.93,27.0318 166.93,27.7349 L166.93,60.1412 C166.93,60.9849 167.133,61.188 167.977,61.188 L185.43,61.188 C186.18,61.188 186.43,60.8912 186.43,60.2818 M214.57,60.6412 C214.57,60.4849 214.524,60.2818 214.414,60.1412 L206.274,46.4849 L206.211,46.3912 C210.164,45.0318 213.211,41.6412 213.211,36.8443 C213.211,34.188 212.524,31.9849 211.164,30.3287 C208.961,27.6412 205.117,26.7349 200.617,26.7349 L193.414,26.7349 C192.664,26.7349 192.414,27.0318 192.414,27.8287 L192.414,60.1412 C192.414,60.8443 192.711,61.188 193.367,61.188 L196.117,61.188 C196.774,61.188 197.07,60.7818 197.07,60.1412 L197.07,47.188 L201.867,47.188 L209.367,60.2818 C209.711,60.938 210.164,61.188 210.914,61.188 L213.914,61.188 C214.367,61.188 214.57,60.938 214.57,60.6412 M208.524,36.8912 C208.524,41.3443 205.32,43.688 200.914,43.688 L197.07,43.688 L197.07,30.2818 L200.274,30.2818 C205.414,30.2818 208.524,31.9849 208.524,36.8912 M254.508,60.2818 C254.508,60.2349 254.508,60.2349 254.508,60.188 L254.508,60.1412 L253.149,27.6412 C253.102,26.9849 252.961,26.7349 252.352,26.7349 L250.055,26.7349 C249.461,26.7349 249.211,26.938 248.961,27.5318 L237.758,54.7349 L237.695,54.7349 L225.555,27.4849 C225.305,26.938 225.055,26.7349 224.258,26.7349 L222.102,26.7349 C221.555,26.7349 221.352,26.938 221.305,27.7818 L220.149,60.2349 L220.149,60.3443 C220.149,60.9849 220.399,61.188 221.055,61.188 L223.508,61.188 C224.258,61.188 224.508,60.9849 224.508,60.2818 L225.102,35.8443 L225.149,35.8443 L235.602,60.4849 C235.852,61.0943 236.102,61.188 236.602,61.188 L238.305,61.188 C238.695,61.188 239.008,61.0943 239.195,60.5943 L248.852,35.8443 L248.961,35.8443 L249.805,60.0318 C249.852,60.8912 250.055,61.188 250.758,61.188 L253.602,61.188 C254.258,61.188 254.508,60.9849 254.508,60.2818 M289.445,46.1412 L289.445,27.7349 C289.445,27.0787 289.195,26.7349 288.492,26.7349 L285.789,26.7349 C285.149,26.7349 284.789,27.0787 284.789,27.7349 L284.789,45.3443 C284.789,51.7818 283.789,57.7818 275.789,57.7818 C267.492,57.7818 266.649,52.0943 266.649,45.3912 L266.649,27.7349 C266.649,27.0787 266.399,26.7349 265.695,26.7349 L262.945,26.7349 C262.289,26.7349 261.992,27.0787 261.992,27.7349 L261.992,45.8443 C261.992,55.5943 264.899,61.688 275.742,61.688 C285.649,61.688 289.445,55.2818 289.445,46.1412 M319.945,27.5318 C319.945,27.4849 319.945,27.438 319.945,27.3912 C319.945,26.9849 319.695,26.7349 319.133,26.7349 L294.68,26.7349 C294.133,26.7349 293.93,26.8912 293.93,27.4849 L293.93,29.5787 C293.93,30.188 294.133,30.3912 294.742,30.3912 L304.383,30.3912 L304.383,60.188 C304.383,60.8912 304.633,61.188 305.289,61.188 L308.133,61.188 C308.789,61.188 309.039,60.8912 309.039,60.188 L309.039,30.3912 L318.383,30.3912 C319.086,30.3912 319.539,30.2818 319.633,29.5787 L319.945,27.5318 M345.57,60.6412 C345.57,60.4849 345.524,60.3443 345.477,60.1412 L333.117,27.3287 C332.961,26.938 332.664,26.7349 332.211,26.7349 L329.57,26.7349 C329.117,26.7349 328.82,27.0318 328.664,27.438 L316.117,60.188 C316.07,60.3912 316.024,60.5318 316.024,60.688 C316.024,60.9849 316.164,61.188 316.57,61.188 L319.524,61.188 C320.211,61.188 320.414,60.9849 320.664,60.3443 L324.117,50.9849 L337.07,50.9849 L340.367,60.2818 C340.617,61.0318 340.867,61.188 341.727,61.188 L344.82,61.188 C345.367,61.188 345.57,60.9849 345.57,60.6412 M335.867,47.5318 L325.32,47.5318 L329.414,36.188 C330.07,34.3287 330.414,33.3287 330.664,32.5318 L330.711,32.5318 C330.914,33.2349 331.274,34.3287 331.867,36.0943 L335.867,47.5318 M374.164,58.688 C374.164,58.5318 374.117,58.3443 374.008,58.1412 L373.367,56.5943 C373.211,56.188 372.961,55.9849 372.711,55.9849 C372.57,55.9849 372.414,56.0318 372.258,56.1412 C369.914,57.2818 366.914,57.9849 364.461,57.9849 C356.805,57.9849 353.414,51.2349 353.414,43.7349 C353.414,40.0318 354.305,36.3912 356.508,33.688 C358.414,31.2818 361.258,29.8912 364.461,29.8912 C367.117,29.8912 369.555,30.5318 371.914,31.8912 C372.07,31.9849 372.211,32.0318 372.367,32.0318 C372.617,32.0318 372.82,31.8912 372.961,31.5318 L373.758,29.688 C373.867,29.438 373.914,29.2349 373.914,29.0787 C373.914,28.7818 373.711,28.6412 373.32,28.3912 C370.555,26.8287 367.461,26.1412 364.164,26.1412 C354.164,26.1412 348.461,34.438 348.461,43.9849 C348.461,53.7349 353.367,61.688 363.805,61.688 C367.258,61.688 370.414,60.9849 373.461,59.5318 C373.914,59.3443 374.164,59.0318 374.164,58.688 M390.649,29.0318 L390.649,27.438 C390.649,26.9849 390.461,26.7349 389.805,26.7349 L379.008,26.7349 C378.508,26.7349 378.305,26.9849 378.305,27.4849 L378.305,29.1412 C378.305,29.688 378.508,29.8287 379.055,29.8287 L382.258,29.8287 L382.258,58.0318 L379.258,58.0318 C378.649,58.0318 378.508,58.2349 378.508,58.7349 L378.508,60.438 C378.508,60.938 378.711,61.188 379.258,61.188 L389.899,61.188 C390.461,61.188 390.602,60.938 390.602,60.3912 L390.602,58.7818 C390.602,58.3443 390.352,58.0318 389.758,58.0318 L386.758,58.0318 L386.758,29.8287 L389.805,29.8287 C390.461,29.8287 390.649,29.7349 390.649,29.0318 M416.305,18.8912 C416.305,18.7349 416.258,18.4849 416.102,18.2818 L415.149,16.7818 C414.899,16.438 414.649,16.2818 414.399,16.2818 C414.195,16.2818 414.008,16.3912 413.695,16.5787 L406.695,21.0787 C406.352,21.2818 406.258,21.5318 406.258,21.7349 C406.258,21.8912 406.305,22.0318 406.445,22.2349 L406.945,22.9849 C407.149,23.2818 407.399,23.438 407.649,23.438 C407.805,23.438 408.008,23.3912 408.258,23.2818 L415.805,19.5318 C416.149,19.3912 416.305,19.1412 416.305,18.8912 M425.461,43.7349 C425.461,33.3287 420.399,26.1412 411.195,26.1412 C402.508,26.1412 396.555,33.2349 396.555,44.0943 C396.555,54.9849 401.805,61.688 410.758,61.688 C419.102,61.688 425.461,55.0943 425.461,43.7349 M420.508,43.8912 C420.508,52.4849 416.602,57.8912 410.945,57.8912 C404.945,57.8912 401.445,52.688 401.445,43.938 C401.445,35.688 405.352,29.9849 411.102,29.9849 C417.195,29.9849 420.508,35.0787 420.508,43.8912 M458.602,60.1412 L458.602,27.7818 C458.602,27.0318 458.399,26.7349 457.649,26.7349 L455.258,26.7349 C454.602,26.7349 454.305,26.9849 454.305,27.7818 L454.305,53.3443 L454.195,53.3443 L435.805,27.4849 C435.399,26.8912 435.102,26.7349 434.492,26.7349 L432.492,26.7349 C431.852,26.7349 431.492,27.0318 431.492,27.7818 L431.492,60.1412 C431.492,60.8912 431.805,61.188 432.492,61.188 L434.805,61.188 C435.445,61.188 435.805,60.8443 435.805,60.1412 L435.805,34.938 L435.899,34.938 L453.945,60.2349 C454.445,60.938 454.852,61.188 455.445,61.188 L457.758,61.188 C458.352,61.188 458.602,60.9849 458.602,60.1412 M502.18,58.688 C502.18,58.5318 502.133,58.3443 502.024,58.1412 L501.383,56.5943 C501.227,56.188 500.977,55.9849 500.727,55.9849 C500.586,55.9849 500.43,56.0318 500.274,56.1412 C497.93,57.2818 494.93,57.9849 492.477,57.9849 C484.82,57.9849 481.43,51.2349 481.43,43.7349 C481.43,40.0318 482.32,36.3912 484.524,33.688 C486.43,31.2818 489.274,29.8912 492.477,29.8912 C495.133,29.8912 497.57,30.5318 499.93,31.8912 C500.086,31.9849 500.227,32.0318 500.383,32.0318 C500.633,32.0318 500.836,31.8912 500.977,31.5318 L501.774,29.688 C501.883,29.438 501.93,29.2349 501.93,29.0787 C501.93,28.7818 501.727,28.6412 501.336,28.3912 C498.57,26.8287 495.477,26.1412 492.18,26.1412 C482.18,26.1412 476.477,34.438 476.477,43.9849 C476.477,53.7349 481.383,61.688 491.82,61.688 C495.274,61.688 498.43,60.9849 501.477,59.5318 C501.93,59.3443 502.18,59.0318 502.18,58.688 M518.664,29.0318 L518.664,27.438 C518.664,26.9849 518.477,26.7349 517.82,26.7349 L507.024,26.7349 C506.524,26.7349 506.32,26.9849 506.32,27.4849 L506.32,29.1412 C506.32,29.688 506.524,29.8287 507.07,29.8287 L510.274,29.8287 L510.274,58.0318 L507.274,58.0318 C506.664,58.0318 506.524,58.2349 506.524,58.7349 L506.524,60.438 C506.524,60.938 506.727,61.188 507.274,61.188 L517.914,61.188 C518.477,61.188 518.617,60.938 518.617,60.3912 L518.617,58.7818 C518.617,58.3443 518.367,58.0318 517.774,58.0318 L514.774,58.0318 L514.774,29.8287 L517.82,29.8287 C518.477,29.8287 518.664,29.7349 518.664,29.0318 M547.82,60.6412 C547.82,60.4849 547.774,60.2818 547.664,60.1412 L539.524,46.4849 L539.461,46.3912 C543.414,45.0318 546.461,41.6412 546.461,36.8443 C546.461,34.188 545.774,31.9849 544.414,30.3287 C542.211,27.6412 538.367,26.7349 533.867,26.7349 L526.664,26.7349 C525.914,26.7349 525.664,27.0318 525.664,27.8287 L525.664,60.1412 C525.664,60.8443 525.961,61.188 526.617,61.188 L529.367,61.188 C530.024,61.188 530.32,60.7818 530.32,60.1412 L530.32,47.188 L535.117,47.188 L542.617,60.2818 C542.961,60.938 543.414,61.188 544.164,61.188 L547.164,61.188 C547.617,61.188 547.82,60.938 547.82,60.6412 M541.774,36.8912 C541.774,41.3443 538.57,43.688 534.164,43.688 L530.32,43.688 L530.32,30.2818 L533.524,30.2818 C538.664,30.2818 541.774,31.9849 541.774,36.8912 M576.508,58.688 C576.508,58.5318 576.461,58.3443 576.352,58.1412 L575.711,56.5943 C575.555,56.188 575.305,55.9849 575.055,55.9849 C574.914,55.9849 574.758,56.0318 574.602,56.1412 C572.258,57.2818 569.258,57.9849 566.805,57.9849 C559.149,57.9849 555.758,51.2349 555.758,43.7349 C555.758,40.0318 556.649,36.3912 558.852,33.688 C560.758,31.2818 563.602,29.8912 566.805,29.8912 C569.461,29.8912 571.899,30.5318 574.258,31.8912 C574.414,31.9849 574.555,32.0318 574.711,32.0318 C574.961,32.0318 575.164,31.8912 575.305,31.5318 L576.102,29.688 C576.211,29.438 576.258,29.2349 576.258,29.0787 C576.258,28.7818 576.055,28.6412 575.664,28.3912 C572.899,26.8287 569.805,26.1412 566.508,26.1412 C556.508,26.1412 550.805,34.438 550.805,43.9849 C550.805,53.7349 555.711,61.688 566.149,61.688 C569.602,61.688 572.758,60.9849 575.805,59.5318 C576.258,59.3443 576.508,59.0318 576.508,58.688 M608.852,46.1412 L608.852,27.7349 C608.852,27.0787 608.602,26.7349 607.899,26.7349 L605.195,26.7349 C604.555,26.7349 604.195,27.0787 604.195,27.7349 L604.195,45.3443 C604.195,51.7818 603.195,57.7818 595.195,57.7818 C586.899,57.7818 586.055,52.0943 586.055,45.3912 L586.055,27.7349 C586.055,27.0787 585.805,26.7349 585.102,26.7349 L582.352,26.7349 C581.695,26.7349 581.399,27.0787 581.399,27.7349 L581.399,45.8443 C581.399,55.5943 584.305,61.688 595.149,61.688 C605.055,61.688 608.852,55.2818 608.852,46.1412 M634.445,60.3443 L634.445,58.2818 C634.445,57.688 634.195,57.4849 633.492,57.4849 L620.945,57.4849 L620.945,27.7818 C620.945,27.0318 620.649,26.7349 619.945,26.7349 L617.242,26.7349 C616.586,26.7349 616.289,27.1412 616.289,27.7818 L616.289,60.0943 C616.289,60.8912 616.649,61.188 617.289,61.188 L633.586,61.188 C634.195,61.188 634.445,60.9849 634.445,60.3443 M665.133,60.6412 C665.133,60.4849 665.086,60.3443 665.039,60.1412 L652.68,27.3287 C652.524,26.938 652.227,26.7349 651.774,26.7349 L649.133,26.7349 C648.68,26.7349 648.383,27.0318 648.227,27.438 L635.68,60.188 C635.633,60.3912 635.586,60.5318 635.586,60.688 C635.586,60.9849 635.727,61.188 636.133,61.188 L639.086,61.188 C639.774,61.188 639.977,60.9849 640.227,60.3443 L643.68,50.9849 L656.633,50.9849 L659.93,60.2818 C660.18,61.0318 660.43,61.188 661.289,61.188 L664.383,61.188 C664.93,61.188 665.133,60.9849 665.133,60.6412 M655.43,47.5318 L644.883,47.5318 L648.977,36.188 C649.633,34.3287 649.977,33.3287 650.227,32.5318 L650.274,32.5318 C650.477,33.2349 650.836,34.3287 651.43,36.0943 L655.43,47.5318 M691.524,60.6412 C691.524,60.4849 691.477,60.2818 691.367,60.1412 L683.227,46.4849 L683.164,46.3912 C687.117,45.0318 690.164,41.6412 690.164,36.8443 C690.164,34.188 689.477,31.9849 688.117,30.3287 C685.914,27.6412 682.07,26.7349 677.57,26.7349 L670.367,26.7349 C669.617,26.7349 669.367,27.0318 669.367,27.8287 L669.367,60.1412 C669.367,60.8443 669.664,61.188 670.32,61.188 L673.07,61.188 C673.727,61.188 674.024,60.7818 674.024,60.1412 L674.024,47.188 L678.82,47.188 L686.32,60.2818 C686.664,60.938 687.117,61.188 687.867,61.188 L690.867,61.188 C691.32,61.188 691.524,60.938 691.524,60.6412 M685.477,36.8912 C685.477,41.3443 682.274,43.688 677.867,43.688 L674.024,43.688 L674.024,30.2818 L677.227,30.2818 C682.367,30.2818 685.477,31.9849 685.477,36.8912 M701.899,39.3443 C701.899,37.5318 700.461,36.4849 698.961,36.4849 C697.461,36.4849 695.961,37.5318 695.961,39.3443 C695.961,41.1412 697.555,42.1412 698.961,42.1412 C700.352,42.1412 701.899,41.0943 701.899,39.3443 M701.899,58.8443 C701.899,57.0318 700.461,56.0943 698.961,56.0943 C697.461,56.0943 695.961,57.0943 695.961,58.8912 C695.961,60.688 697.555,61.688 698.961,61.688 C700.352,61.688 701.899,60.5943 701.899,58.8443"/>
</svg>
